<svg xmlns="http://www.w3.org/2000/svg" width="102" height="64" fill="none"><path d="M93.574.068L8.663.114A8.06 8.06 0 0 0 .617 8.167L.64 55.726c0 4.45 3.616 8.046 8.053 8.046l84.911-.046a8.05 8.05 0 0 0 8.045-8.053l-.022-47.558c0-4.442-3.608-8.046-8.054-8.046z" fill="#e75035"/><path d="M14.091 38.423l11.593-.008m8.479 0l11.593-.008m8.488.001l11.593-.008m8.479-.008l11.593-.008" stroke="#fff" stroke-width="4.176" stroke-miterlimit="10" stroke-linecap="round"/><path opacity=".81" d="M20.181 19.672c1.53.008 2.794 1.112 3.014 2.537l6.554.046.015-3.764c.008-1.737-1.446-3.154-3.227-3.162l-13.26-.091c-1.789-.008-3.243 1.387-3.25 3.124l-.008 1.25 10.162.061zm3.006 3.452c-.236 1.425-1.5 2.514-3.029 2.507l-10.154-.053v-.914l10.162.053c1.172.008 2.131-.914 2.131-2.057 0-1.135-.959-2.08-2.124-2.08l-10.154-.053-.015 5.867c-.008 1.737 1.446 3.154 3.228 3.162l13.252.084c1.789.015 3.243-1.387 3.25-3.124l.008-3.337-6.554-.053z" fill="#f26a54"/></svg>