<svg xmlns="http://www.w3.org/2000/svg" width="137" height="84" fill="none"><rect x="20.25" y="12.75" width="96" height="58.5" rx="6.75" fill="#fff" stroke="#000" stroke-width="1.5"/><path d="M53.015 35.815c-.229.229-.572.458-.801.801-.916.916-1.717 1.946-1.946 3.32-.343 1.832 0 3.549 1.145 5.037.572.801 1.259 1.374 2.061 1.717.114 0 .229.114.343.114l-.343.916c-.687 1.717-1.603 3.32-2.862 4.694-.229.229-.458.458-.801.687-.916.801-1.946 1.03-3.091.687-.572-.114-1.145-.343-1.717-.572s-1.259-.343-1.832-.343c-.801 0-1.488.229-2.175.458-.572.229-1.145.458-1.717.572-.916.229-1.717-.114-2.404-.572-.801-.458-1.374-1.145-1.832-1.946-1.259-1.832-2.289-3.778-2.862-5.953-.687-1.946-.801-3.892-.572-5.839.229-1.717.916-3.32 2.175-4.579 1.259-1.374 2.862-1.946 4.694-1.717.916 0 1.717.343 2.633.572.343.114.687.229 1.145.229.572.114 1.03.114 1.603-.114a19.12 19.12 0 0 0 2.061-.572c1.03-.343 2.175-.458 3.206-.229 1.374.229 2.518 1.03 3.434 2.061.229.229.343.344.458.572 0-.114 0-.114 0 0zM47.634 27c0 .343.114.572 0 .916-.114 1.603-.687 2.976-1.832 4.121-.458.572-1.03.916-1.717 1.259-.572.229-1.145.229-1.832.343.229-3.663 1.946-5.953 5.38-6.64z" fill="#13130a"/><path d="M60.898 52.5h3.557v-6.635h3.758c4.535 0 6.971-2.723 6.971-6.501 0-3.749-2.407-6.501-6.923-6.501h-7.364V52.5zm3.557-9.559v-7.105h3.26c2.665 0 3.845 1.438 3.845 3.528s-1.179 3.576-3.826 3.576h-3.279zm17.343 9.856c2.311 0 3.691-1.084 4.324-2.32h.115V52.5h3.337v-9.857c0-3.893-3.174-5.062-5.983-5.062-3.097 0-5.475 1.381-6.242 4.065l3.241.46c.345-1.007 1.323-1.87 3.02-1.87 1.611 0 2.493.825 2.493 2.272v.057c0 .997-1.045 1.045-3.644 1.323-2.857.307-5.59 1.16-5.59 4.478 0 2.896 2.119 4.43 4.928 4.43zm.901-2.551c-1.448 0-2.483-.661-2.483-1.937 0-1.333 1.16-1.889 2.713-2.109.911-.125 2.733-.355 3.183-.719v1.735c0 1.64-1.323 3.03-3.413 3.03zm11.698 7.777c2.704 0 4.267-1.39 5.101-3.739l5.915-16.491-3.71-.019-3.404 11.122h-.153l-3.394-11.122H91.07l5.341 15.034-.297.796c-.642 1.678-1.659 1.793-3.174 1.352l-.805 2.704c.47.192 1.314.364 2.263.364z" fill="#000"/></svg>