<svg xmlns="http://www.w3.org/2000/svg" width="214" height="164" fill="none"><style><![CDATA[.B{stroke-miterlimit:10}.C{stroke-linejoin:round}.D{stroke:#e84f35}.E{stroke-linecap:round}.F{stroke-width:.413}.G{stroke-width:1.369}.H{fill:#172a3a}.I{stroke:#ffa727}.J{stroke-width:1.274}.K{color-interpolation-filters:sRGB}.L{flood-opacity:0}]]></style><path d="M165.47 135.248H84V43.575h57.498l23.972 22.77v68.903z" fill="#ebf1f7"/><path d="M141.498 43.575v22.77h23.972l-23.972-22.77z" fill="#dee7f3"/><path d="M116.784 99.46h20.473v3.338h-20.473V99.46zm0 4.911h20.473v3.318h-20.473v-3.318zm5.063 13.035c-1.649-.591-2.898-1.45-3.756-2.584-.859-1.116-1.288-2.48-1.288-4.053v-.038c0-1.03.229-1.955.677-2.794s1.106-1.592 1.965-2.25l5.902.629c-1.24.277-2.165.677-2.813 1.202-.648.543-.963 1.306-.963 2.345v.019c0 1.259.534 2.222 1.63 2.899 1.087.677 2.613 1.03 4.577 1.03 1.574 0 3.08-.238 4.472-.715 1.412-.467 2.68-1.192 3.815-2.117l2.574 3.776a14.26 14.26 0 0 1-3.137 1.955c-1.144.524-2.365.925-3.671 1.192-1.306.257-2.67.4-4.081.4-2.289-.019-4.253-.315-5.903-.896zm7.514-16.725c.057-.019.105-.038.181-.048.611-.191 1.126-.439 1.555-.715s.772-.629 1.001-1.049.353-.944.353-1.554v-.019c0-1.201-.506-2.145-1.526-2.813s-2.451-.992-4.31-.992c-1.125 0-2.269.21-3.433.61-1.182.401-2.326 1.011-3.451 1.802l-2.346-3.9a16.27 16.27 0 0 1 2.975-1.64c1.02-.439 2.06-.772 3.108-1.011a14.99 14.99 0 0 1 3.166-.353c2.241 0 4.148.315 5.74.925s2.813 1.507 3.633 2.67c.839 1.173 1.25 2.584 1.25 4.234v.019c0 1.64-.496 3.042-1.517 4.214l-6.55-.295c.066-.048.124-.067.171-.086z" fill="#b3c4cc"/><path d="M185.201 123.262H153v32.468a5.77 5.77 0 0 0 5.769 5.768h20.663a5.77 5.77 0 0 0 5.769-5.768v-32.468z" fill="#e84f35"/><g stroke-width="1.859" class="B"><path d="M181.368 133.064h3.699c5.302 0 9.593 4.301 9.593 9.593 0 5.301-4.301 9.592-9.593 9.592h-3.699" class="D"/><path d="M168.485 107.643c0-2.727 1.23-2.727 1.23-5.464 0-2.727-1.23-2.727-1.23-5.454s1.23-2.727 1.23-5.464-1.23-2.737-1.23-5.464c0-2.737 1.23-2.737 1.23-5.464m7.2 36.254c0-1.363 1.23-1.363 1.23-2.727s-1.23-1.364-1.23-2.727 1.23-1.364 1.23-2.727-1.23-1.364-1.23-2.737 1.23-1.363 1.23-2.737m-20.253 14.008c0-2.804 1.23-2.804 1.23-5.597 0-2.804-1.23-2.804-1.23-5.598 0-2.803 1.23-2.803 1.23-5.606s-1.23-2.804-1.23-5.607 1.23-2.803 1.23-5.607" stroke="#172a3a" class="C E"/></g><path d="M21 162h191" stroke="#172a3a" stroke-width="3.718" class="B C E"/><g filter="url(#A)"><rect x="66" y="116" width="74.807" height="25.796" rx="3.331" fill="#fff"/><path d="M83.568 124.355l.778 8.812a1.04 1.04 0 0 1-.946 1.128l-4.665.412a1.04 1.04 0 0 1-1.127-.946l-.778-8.812a1.04 1.04 0 0 1 .946-1.128l4.665-.412a1.04 1.04 0 0 1 1.127.946z" class="B C D F"/><path d="M83.309 123.681l1.661.159a1.04 1.04 0 0 1 .937 1.134l-.84 8.809a1.04 1.04 0 0 1-1.134.936l-2.704-.259" class="B C D E F"/><path d="M81.189 132.924l-.097-1.112" class="B C D E F"/><path d="M80.992 130.701l-.097-1.109" class="B C D E F"/><path d="M80.798 128.48l-.1-1.111" class="B C D E F"/><path d="M80.602 126.257l-.097-1.109" class="B C D E F"/><path d="M82.198 126.566l-.137-1.555" class="B C D E F"/><path d="M82.744 132.786l-.044-.518" class="B C D E F"/><path d="M78.906 131.662l.1 1.112" class="B C D E F"/><path d="M93.854 126.662v4.736h-.628v-4.736h.628zm2.918 0l-2.056 2.605h-1.112l-.098-.52h.836l1.652-2.085h.777zm-.631 4.736l-1.779-2.212.351-.55 2.196 2.762h-.768zm3.321-.602v-1.812c0-.139-.028-.259-.085-.361s-.137-.184-.247-.241a.9.9 0 0 0-.41-.084c-.152 0-.285.026-.4.078s-.202.12-.267.205a.45.45 0 0 0-.094.273h-.602c0-.126.032-.25.098-.374s.158-.235.28-.335.271-.182.442-.241.367-.091.579-.091c.256 0 .481.044.677.13s.351.218.462.394.169.391.169.654v1.639c0 .117.01.242.03.374s.053.246.094.342v.052h-.628c-.03-.07-.054-.162-.072-.277s-.026-.225-.026-.325zm.104-1.532l.006.423h-.608c-.171 0-.324.014-.459.042s-.247.066-.338.12a.58.58 0 0 0-.208.205c-.048.081-.072.175-.072.283a.62.62 0 0 0 .075.303c.05.091.125.164.224.218s.227.078.374.078a.99.99 0 0 0 .488-.117c.141-.078.253-.174.335-.286s.13-.223.137-.329l.257.289c-.015.092-.056.192-.124.303a1.44 1.44 0 0 1-.27.319c-.111.1-.243.183-.397.25s-.323.098-.514.098a1.35 1.35 0 0 1-.628-.14 1.07 1.07 0 0 1-.416-.374.99.99 0 0 1-.146-.53c0-.189.037-.355.111-.498a.96.96 0 0 1 .319-.361c.139-.098.306-.171.501-.221s.413-.075.654-.075h.699zm2.046-.709v4.196h-.605v-4.873h.553l.052.677zm2.371 1.054v.068c0 .256-.03.493-.091.712s-.15.406-.267.566a1.2 1.2 0 0 1-.426.374 1.23 1.23 0 0 1-.582.134c-.224 0-.421-.037-.592-.111s-.317-.181-.436-.322a1.64 1.64 0 0 1-.286-.507c-.07-.198-.117-.42-.143-.667v-.364c.026-.261.074-.494.146-.7a1.74 1.74 0 0 1 .283-.527 1.16 1.16 0 0 1 .433-.335c.169-.078.364-.117.585-.117a1.3 1.3 0 0 1 .589.13c.171.085.315.206.432.365a1.67 1.67 0 0 1 .264.569c.061.219.091.463.091.732zm-.605.068v-.068a2.17 2.17 0 0 0-.055-.495c-.037-.156-.095-.292-.173-.41s-.173-.212-.293-.279-.261-.104-.426-.104c-.151 0-.284.026-.396.078a.85.85 0 0 0-.283.211c-.079.087-.143.187-.192.299s-.084.226-.108.345v.843c.044.151.104.295.182.429s.183.24.313.322.294.12.491.12c.163 0 .302-.033.419-.1s.217-.164.293-.283.136-.256.173-.41a2.21 2.21 0 0 0 .055-.498zm2.547-1.799v3.52h-.605v-3.52h.605zm1.181 0v.488h-2.944v-.488h2.944zm1.245 0v3.52h-.601v-3.52h.601zm2.31 0l-1.669 2.017h-.842l-.091-.527h.689l1.181-1.49h.732zm-.647 3.52l-1.295-1.594.387-.436 1.672 2.03h-.764zm3.363-.602v-1.812c0-.139-.028-.259-.085-.361s-.136-.184-.247-.241a.9.9 0 0 0-.41-.084c-.151 0-.285.026-.4.078s-.201.12-.266.205a.45.45 0 0 0-.095.273h-.602c0-.126.033-.25.098-.374s.158-.235.28-.335a1.4 1.4 0 0 1 .442-.241c.174-.06.367-.091.579-.091.256 0 .482.044.677.13s.351.218.462.394.169.391.169.654v1.639a2.64 2.64 0 0 0 .029.374c.022.132.053.246.094.342v.052h-.627a1.09 1.09 0 0 1-.072-.277 2.27 2.27 0 0 1-.026-.325zm.104-1.532l.007.423h-.609c-.171 0-.324.014-.458.042s-.248.066-.339.12-.16.123-.208.205-.071.175-.071.283a.63.63 0 0 0 .074.303c.05.091.125.164.225.218s.227.078.374.078c.184 0 .347-.039.488-.117a1.02 1.02 0 0 0 .335-.286.62.62 0 0 0 .137-.329l.257.289c-.016.092-.057.192-.124.303s-.157.217-.27.319a1.45 1.45 0 0 1-.397.25c-.152.065-.323.098-.514.098-.238 0-.448-.047-.628-.14a1.08 1.08 0 0 1-.416-.374c-.098-.158-.146-.335-.146-.53 0-.189.036-.355.11-.498a.96.96 0 0 1 .319-.361c.139-.098.306-.171.501-.221s.413-.075.654-.075h.699zm5.12 1.334l1.197-2.72h.579l-1.568 3.52h-.416l-1.562-3.52h.579l1.191 2.72zm-1.366-2.72v3.52h-.602v-3.52h.602zm2.713 3.52v-3.52h.605v3.52h-.605zm3.649-.602v-1.812c0-.139-.028-.259-.084-.361a.56.56 0 0 0-.248-.241c-.11-.056-.247-.084-.409-.084-.152 0-.286.026-.4.078a.69.69 0 0 0-.267.205.45.45 0 0 0-.095.273h-.601c0-.126.032-.25.097-.374a1.1 1.1 0 0 1 .28-.335c.124-.102.271-.182.442-.241s.367-.091.579-.091c.256 0 .482.044.677.13s.351.218.462.394.169.391.169.654v1.639a2.64 2.64 0 0 0 .029.374c.022.132.053.246.095.342v.052h-.628c-.031-.07-.054-.162-.072-.277a2.27 2.27 0 0 1-.026-.325zm.104-1.532l.007.423h-.608c-.172 0-.325.014-.459.042s-.247.066-.338.12-.161.123-.209.205-.071.175-.071.283a.62.62 0 0 0 .075.303.54.54 0 0 0 .224.218c.102.052.227.078.374.078a.99.99 0 0 0 .488-.117 1.02 1.02 0 0 0 .335-.286.62.62 0 0 0 .137-.329l.257.289c-.015.092-.057.192-.124.303s-.157.217-.27.319-.243.183-.397.25a1.29 1.29 0 0 1-.514.098c-.238 0-.447-.047-.627-.14s-.317-.218-.417-.374-.146-.335-.146-.53a1.08 1.08 0 0 1 .11-.498.96.96 0 0 1 .319-.361c.139-.098.306-.171.501-.221s.413-.075.654-.075h.699zm3.468 1.334l1.197-2.72h.579l-1.568 3.52h-.416l-1.562-3.52h.579l1.191 2.72zm-1.366-2.72v3.52h-.602v-3.52h.602zm2.712 3.52v-3.52h.605v3.52h-.605zm2.225-.953l1.624-2.567h.605v3.52h-.605v-2.567l-1.624 2.567h-.598v-3.52h.598v2.567z" class="H"/></g><g filter="url(#B)"><rect x="70" y="9" width="98.599" height="34" rx="4.39" fill="#fff"/><path d="M89.756 31.451a1.03 1.03 0 0 0 1.029-1.029 1.03 1.03 0 0 0-1.029-1.029 1.03 1.03 0 0 0-1.029 1.029 1.03 1.03 0 0 0 1.029 1.029z" class="B C D G"/><path d="M96.304 23.874c-1.675-1.675-3.992-2.712-6.548-2.712s-4.873 1.037-6.548 2.712" class="B C D E G"/><path d="M85.146 25.812a6.49 6.49 0 0 1 9.219 0" class="B C D E G"/><path d="M94.365 25.812a6.49 6.49 0 0 0-9.219 0" class="B C D E G"/><path d="M87.089 27.755c.683-.683 1.626-1.103 2.667-1.103s1.984.424 2.667 1.103" class="B C D E G"/><path d="M107.758 26.503h-.741v-.527h.711c.315 0 .569-.044.763-.133a.89.89 0 0 0 .425-.369c.088-.157.133-.339.133-.544 0-.197-.049-.377-.146-.54s-.247-.297-.45-.394-.465-.15-.785-.15c-.24 0-.457.046-.651.137s-.349.213-.463.373-.172.339-.172.544h-.827c0-.266.055-.505.167-.716s.264-.396.459-.544.418-.267.673-.347a2.72 2.72 0 0 1 .814-.12c.335 0 .638.039.909.116s.505.186.699.334.343.333.446.553.154.476.154.767a1.27 1.27 0 0 1-.15.605 1.53 1.53 0 0 1-.429.497c-.185.143-.408.256-.668.339s-.551.12-.871.12zm-.741-.364h.741a3.73 3.73 0 0 1 .939.107c.275.072.506.176.695.313a1.34 1.34 0 0 1 .428.51 1.51 1.51 0 0 1 .151.69c0 .292-.058.55-.172.776a1.61 1.61 0 0 1-.476.575c-.206.157-.45.276-.733.356s-.587.12-.922.12c-.268 0-.534-.034-.797-.103s-.496-.18-.708-.326a1.71 1.71 0 0 1-.51-.566c-.126-.229-.188-.503-.188-.823h.827a1.02 1.02 0 0 0 .172.575c.117.174.278.314.484.42s.446.154.72.154c.315 0 .58-.049.798-.146s.387-.236.501-.407a1.03 1.03 0 0 0 .176-.587c0-.191-.031-.357-.094-.497s-.15-.26-.27-.352-.265-.159-.442-.201-.377-.069-.609-.069h-.711v-.519zm6.658 2.568v-2.388a.96.96 0 0 0-.112-.476c-.071-.137-.18-.243-.326-.317s-.325-.111-.54-.111c-.2 0-.376.034-.527.103a.92.92 0 0 0-.352.27.59.59 0 0 0-.124.36h-.793c0-.166.043-.33.129-.493s.208-.31.368-.442a1.84 1.84 0 0 1 .583-.317 2.3 2.3 0 0 1 .763-.12c.338 0 .635.057.892.171a1.34 1.34 0 0 1 .609.519c.149.229.223.516.223.862v2.161a3.35 3.35 0 0 0 .039.493c.028.174.07.324.124.45v.069h-.828a1.49 1.49 0 0 1-.094-.364 2.92 2.92 0 0 1-.034-.429zm.137-2.019l.009.557h-.802c-.226 0-.427.019-.605.056s-.326.087-.446.159-.211.162-.274.27-.094.23-.094.373.033.279.098.399.165.216.296.287.299.103.493.103c.243 0 .458-.052.643-.154s.333-.229.442-.377.171-.293.18-.433l.339.382c-.02.12-.075.253-.163.399a1.91 1.91 0 0 1-.356.42c-.146.132-.32.242-.523.33s-.426.129-.678.129c-.314 0-.59-.061-.827-.184a1.42 1.42 0 0 1-.549-.493 1.31 1.31 0 0 1-.193-.699c0-.249.049-.467.146-.656s.237-.35.42-.476.403-.226.66-.291.545-.099.862-.099h.922zm4.943-1.826V29.5h-.797v-4.639h.797zm-.857-1.23c0-.129.038-.237.116-.326s.197-.133.351-.133.267.044.347.133a.46.46 0 0 1 .125.326.45.45 0 0 1-.125.317c-.08.086-.195.129-.347.129s-.271-.043-.351-.129-.116-.194-.116-.317zm5.277 3.241v.643h-2.452v-.643h2.452zm-2.285-2.011V29.5h-.793v-4.639h.793zm2.929 0V29.5h-.798v-4.639h.798zm3.168 0V29.5h-.798v-4.639h.798zm1.556 0v.643h-3.88v-.643h3.88zm2.363 4.725c-.323 0-.616-.054-.879-.163a2 2 0 0 1-.674-.467 2.09 2.09 0 0 1-.428-.712 2.61 2.61 0 0 1-.15-.9v-.18a2.82 2.82 0 0 1 .167-1.008c.111-.297.263-.549.454-.755a1.95 1.95 0 0 1 .652-.467c.243-.106.495-.159.755-.159.331 0 .617.057.857.171a1.56 1.56 0 0 1 .596.48c.154.203.269.443.343.72a3.45 3.45 0 0 1 .111.9v.356h-3.464v-.647h2.671v-.06c-.011-.206-.054-.406-.128-.6s-.186-.354-.343-.48-.372-.189-.643-.189c-.18 0-.346.039-.498.116s-.281.186-.39.334-.193.33-.253.545a2.76 2.76 0 0 0-.09.742v.18c0 .22.03.427.09.622s.153.36.27.506a1.3 1.3 0 0 0 .433.343c.172.083.366.124.583.124.28 0 .518-.057.712-.171a1.77 1.77 0 0 0 .51-.459l.48.382c-.1.152-.227.296-.381.433s-.345.249-.57.334-.488.129-.793.129zm3.524-3.833v5.531h-.798v-6.422h.729l.069.892zm3.125 1.389v.09c0 .337-.04.65-.12.939s-.197.535-.351.746-.339.376-.562.493-.479.176-.768.176a1.96 1.96 0 0 1-.78-.146c-.226-.097-.417-.239-.574-.425s-.283-.409-.378-.669a3.88 3.88 0 0 1-.188-.879v-.48c.034-.343.098-.65.193-.922s.218-.503.373-.694a1.53 1.53 0 0 1 .57-.442c.223-.103.48-.154.772-.154s.55.057.776.171.415.272.57.48.27.459.347.75a3.61 3.61 0 0 1 .12.965zm-.797.09v-.09c0-.232-.025-.449-.073-.652s-.125-.386-.227-.54-.229-.28-.386-.369-.345-.137-.562-.137a1.24 1.24 0 0 0-.523.103 1.13 1.13 0 0 0-.373.279c-.103.114-.187.246-.253.394s-.11.297-.141.454v1.111c.057.2.137.389.24.566a1.25 1.25 0 0 0 .411.424c.172.106.388.159.648.159.214 0 .398-.044.553-.133a1.12 1.12 0 0 0 .386-.373 1.73 1.73 0 0 0 .227-.54 2.88 2.88 0 0 0 .073-.656zm4.956-.36v.643h-2.453v-.643h2.453zm-2.285-2.011V29.5h-.793v-4.639h.793zm2.928 0V29.5h-.798v-4.639h.798zm3.203 4.725c-.323 0-.616-.054-.879-.163s-.485-.267-.673-.467-.329-.437-.429-.712a2.61 2.61 0 0 1-.15-.9v-.18a2.82 2.82 0 0 1 .167-1.008c.111-.297.263-.549.454-.755a1.95 1.95 0 0 1 .652-.467c.243-.106.495-.159.755-.159.331 0 .617.057.857.171a1.56 1.56 0 0 1 .596.48c.154.203.269.443.343.72a3.45 3.45 0 0 1 .112.9v.356H143.9v-.647h2.671v-.06c-.011-.206-.054-.406-.128-.6s-.186-.354-.343-.48-.372-.189-.643-.189c-.18 0-.346.039-.498.116s-.281.186-.39.334-.193.33-.253.545a2.76 2.76 0 0 0-.09.742v.18c0 .22.03.427.09.622s.153.36.27.506a1.3 1.3 0 0 0 .433.343c.172.083.366.124.583.124.281 0 .518-.057.712-.171s.365-.267.51-.459l.48.382c-.1.152-.227.296-.381.433s-.344.249-.57.334-.488.129-.793.129zm4.57-4.725V29.5h-.798v-4.639h.798zm1.556 0v.643h-3.88v-.643h3.88z" class="H"/></g><g filter="url(#C)"><rect x="10" y="59" width="116.85" height="41" rx="5.307" fill="#fff"/><rect x="21.276" y="66.897" width="25.206" height="25.206" rx="4.643" stroke="#dee7f3" stroke-opacity=".4" stroke-width="1.327"/><path d="M39.268 76.553c0-3.333-3.018-5.953-6.476-5.282a5.37 5.37 0 0 0-4.22 4.312c-.323 1.841.298 3.549 1.451 4.734.605.622.954 1.451.954 2.322v.97h5.804v-.97c0-.846.307-1.675.904-2.272.978-.978 1.584-2.33 1.584-3.814z" class="B C I J"/><path d="M34.294 88.576h-.829a.83.83 0 0 1-.829-.829v-.829h2.487v.829a.83.83 0 0 1-.829.829z" class="B C I J"/><path d="M35.96 86.918h-4.162c-.456 0-.821-.365-.821-.821v-2.496h5.804v2.496c0 .456-.365.821-.821.821z" class="B C I J"/><path d="M55.639 79.878h-.897v-.637h.86c.38 0 .688-.054.922-.161s.406-.256.513-.446.161-.409.161-.658a1.25 1.25 0 0 0-.176-.653c-.117-.2-.299-.359-.544-.477s-.561-.181-.948-.181c-.29 0-.553.055-.788.166a1.37 1.37 0 0 0-.56.451 1.09 1.09 0 0 0-.207.658h-1c0-.321.067-.61.202-.865s.319-.479.554-.658a2.56 2.56 0 0 1 .814-.42c.311-.097.639-.145.985-.145.404 0 .77.047 1.099.14a2.43 2.43 0 0 1 .845.404 1.78 1.78 0 0 1 .539.668c.124.266.187.575.187.928 0 .259-.06.503-.181.731s-.294.428-.518.601-.494.309-.808.409a3.57 3.57 0 0 1-1.052.145zm-.897-.441h.897c.425 0 .803.043 1.135.13s.611.212.84.378a1.62 1.62 0 0 1 .518.617c.121.242.181.52.181.834 0 .352-.069.665-.207.938s-.327.504-.575.694-.544.333-.886.43-.71.145-1.114.145c-.325 0-.646-.041-.964-.124s-.599-.218-.855-.394-.461-.408-.617-.684-.228-.608-.228-.995h1a1.24 1.24 0 0 0 .207.694c.142.211.337.38.585.508s.539.186.871.186c.38 0 .701-.059.964-.176s.468-.285.606-.492.212-.447.212-.71c0-.231-.038-.432-.114-.601a1.02 1.02 0 0 0-.327-.425c-.142-.111-.319-.192-.534-.243s-.456-.083-.736-.083h-.86v-.627zm8.048 3.104v-2.886a1.17 1.17 0 0 0-.135-.575.88.88 0 0 0-.394-.383c-.176-.09-.394-.135-.653-.135-.242 0-.454.041-.637.124a1.11 1.11 0 0 0-.425.326c-.1.135-.15.28-.15.435h-.959a1.27 1.27 0 0 1 .155-.596c.104-.197.252-.375.446-.534s.432-.29.705-.383.584-.145.922-.145c.408 0 .767.069 1.078.207s.56.347.736.627.27.624.27 1.042v2.612a4.09 4.09 0 0 0 .047.596c.035.211.085.392.15.544v.083h-1c-.048-.111-.086-.257-.114-.441s-.041-.359-.041-.518zm.166-2.441l.01.674h-.969a3.58 3.58 0 0 0-.731.067 1.67 1.67 0 0 0-.539.192.91.91 0 0 0-.332.327c-.076.128-.114.278-.114.451s.04.337.119.482.199.261.358.347a1.3 1.3 0 0 0 .596.124c.294 0 .553-.062.777-.186s.402-.276.534-.456.207-.354.218-.523l.409.461c-.024.145-.09.306-.197.482s-.25.345-.43.508a2.32 2.32 0 0 1-.632.399 2.06 2.06 0 0 1-.819.155c-.38 0-.713-.074-1-.223a1.71 1.71 0 0 1-.663-.596c-.156-.252-.233-.534-.233-.845 0-.301.059-.565.176-.793a1.53 1.53 0 0 1 .508-.575c.221-.156.487-.273.798-.352s.658-.119 1.042-.119h1.114zm7.177 2.716c.228 0 .439-.047.632-.14s.352-.221.477-.383a1.07 1.07 0 0 0 .212-.565h.912a1.71 1.71 0 0 1-.337.928 2.3 2.3 0 0 1-.803.689 2.33 2.33 0 0 1-1.093.259c-.421 0-.789-.074-1.104-.223s-.57-.352-.777-.611a2.73 2.73 0 0 1-.461-.891 3.76 3.76 0 0 1-.15-1.073v-.218c0-.376.05-.732.15-1.067s.257-.637.461-.897a2.19 2.19 0 0 1 .777-.611c.314-.148.682-.223 1.104-.223.439 0 .822.09 1.15.27a1.98 1.98 0 0 1 .772.725c.19.304.294.65.311 1.036h-.912a1.38 1.38 0 0 0-.197-.627c-.111-.187-.263-.335-.456-.446s-.413-.171-.668-.171c-.294 0-.541.059-.741.176s-.354.269-.471.466-.197.409-.249.648a3.57 3.57 0 0 0-.073.72v.218c0 .245.024.487.073.725a2.08 2.08 0 0 0 .244.648c.117.193.275.349.472.466s.449.171.746.171zm5.944-1.783h-1.84l-.01-.767h1.503c.297 0 .544-.029.741-.088s.351-.147.451-.264.15-.263.15-.435c0-.135-.029-.252-.088-.352a.64.64 0 0 0-.254-.254c-.114-.069-.256-.119-.425-.15a2.9 2.9 0 0 0-.586-.052h-1.228v4.83h-.959v-5.607h2.187c.356 0 .675.031.959.093s.53.157.731.285.359.283.466.477a1.39 1.39 0 0 1 .161.684 1.15 1.15 0 0 1-.104.482c-.069.152-.171.287-.306.404s-.3.214-.497.29-.423.119-.679.14l-.373.285zm0 2.467H73.89l.477-.777h1.71c.266 0 .487-.033.663-.099a.83.83 0 0 0 .394-.29c.09-.128.135-.28.135-.456a.75.75 0 0 0-.135-.451c-.086-.128-.218-.224-.394-.29s-.397-.104-.663-.104h-1.456l.01-.767h1.819l.347.29c.307.024.568.1.782.228s.377.29.487.487a1.25 1.25 0 0 1 .166.632c0 .263-.05.494-.15.694s-.238.368-.425.503-.413.231-.679.3a3.77 3.77 0 0 1-.902.099zm4.483-5.607V83.5h-.964v-5.607h.964zm-1.036-1.487a.58.58 0 0 1 .14-.394c.097-.107.238-.161.425-.161s.323.053.42.161.15.238.15.394a.54.54 0 0 1-.15.383c-.097.104-.237.155-.42.155s-.328-.052-.425-.155-.14-.235-.14-.383zm4.861 1.487V83.5h-.964v-5.607h.964zm1.881 0v.777h-4.69v-.777h4.69zm4.265 0v.793h-2.71v-.793h2.71zm.845 0V83.5h-.959v-5.607h.959zm-3.788 0h.964l-.145 2.705-.119 1.109c-.052.318-.124.591-.218.819s-.204.414-.342.56a1.25 1.25 0 0 1-.487.316c-.19.066-.409.099-.658.099h-.301v-.845l.207-.016c.148-.01.275-.045.378-.104a.74.74 0 0 0 .269-.259 1.57 1.57 0 0 0 .176-.451 4.13 4.13 0 0 0 .109-.653l.062-.881.104-2.399zm5.079 2.866v-.119c0-.404.059-.779.176-1.125a2.67 2.67 0 0 1 .508-.907c.221-.259.489-.459.803-.601s.667-.218 1.057-.218.748.073 1.062.218.587.342.809.601.395.558.513.907.176.72.176 1.125v.119c0 .404-.059.779-.176 1.124a2.69 2.69 0 0 1-.513.907 2.35 2.35 0 0 1-.803.601c-.311.142-.663.212-1.057.212a2.56 2.56 0 0 1-1.062-.212c-.314-.145-.584-.346-.808-.601s-.39-.561-.508-.907a3.47 3.47 0 0 1-.176-1.124zm.959-.119v.119c0 .28.033.544.098.793a2.09 2.09 0 0 0 .295.653c.135.19.302.34.503.451s.434.161.7.161a1.42 1.42 0 0 0 .689-.161c.2-.111.366-.261.497-.451a2.09 2.09 0 0 0 .295-.653c.069-.249.104-.513.104-.793v-.119c0-.276-.035-.537-.104-.782s-.166-.468-.301-.658a1.43 1.43 0 0 0-.498-.456c-.197-.111-.428-.166-.694-.166s-.494.055-.694.166a1.49 1.49 0 0 0-.498.456 2.08 2.08 0 0 0-.295.658c-.066.245-.098.506-.098.782z" class="H"/></g><defs><filter id="A" x="57.673" y="109.338" width="91.461" height="42.45" filterUnits="userSpaceOnUse" class="K"><feFlood result="A" class="L"/><feColorMatrix in="SourceAlpha" values="0 0 0 0 0 0 0 0 0 0 0 0 0 0 0 0 0 0 127 0"/><feOffset dy="1.66543"/><feGaussianBlur stdDeviation="4.164"/><feColorMatrix values="0 0 0 0 0.152222 0 0 0 0 0.379468 0 0 0 0 0.570833 0 0 0 0.15 0"/><feBlend in2="A"/><feBlend in="SourceGraphic"/></filter><filter id="B" x="59.025" y=".22" width="120.55" height="55.951" filterUnits="userSpaceOnUse" class="K"><feFlood result="A" class="L"/><feColorMatrix in="SourceAlpha" values="0 0 0 0 0 0 0 0 0 0 0 0 0 0 0 0 0 0 127 0"/><feOffset dy="2.19511"/><feGaussianBlur stdDeviation="5.488"/><feColorMatrix values="0 0 0 0 0.152222 0 0 0 0 0.379468 0 0 0 0 0.570833 0 0 0 0.15 0"/><feBlend in2="A"/><feBlend in="SourceGraphic"/></filter><filter id="C" x="0" y="52" width="136.85" height="61" filterUnits="userSpaceOnUse" class="K"><feFlood result="A" class="L"/><feColorMatrix in="SourceAlpha" values="0 0 0 0 0 0 0 0 0 0 0 0 0 0 0 0 0 0 127 0"/><feOffset dy="3"/><feGaussianBlur stdDeviation="5"/><feColorMatrix values="0 0 0 0 0.0901961 0 0 0 0 0.164706 0 0 0 0 0.227451 0 0 0 0.1 0"/><feBlend in2="A"/><feBlend in="SourceGraphic"/></filter></defs></svg>