<svg xmlns="http://www.w3.org/2000/svg" width="129" height="129" fill="none"><g stroke="#ff7062" stroke-width=".642" stroke-miterlimit="10"><path d="M59.245 118.284c3.282 0 5.943-2.661 5.943-5.943s-2.661-5.943-5.943-5.943-5.943 2.66-5.943 5.943 2.661 5.943 5.943 5.943z"/><path d="M59.245 118.66a6.33 6.33 0 0 1-6.319-6.319 6.33 6.33 0 0 1 6.319-6.32 6.33 6.33 0 0 1 6.32 6.32 6.33 6.33 0 0 1-6.32 6.319zm0-11.886a5.57 5.57 0 0 0-5.562 5.562 5.57 5.57 0 0 0 5.562 5.561 5.57 5.57 0 0 0 5.561-5.561 5.57 5.57 0 0 0-5.561-5.562z"/></g><g fill="#2a2b3e"><path d="M116.015 52.649c-.211 0-.382-.171-.377-.381l.025-4.201a.38.38 0 0 1 .377-.376c.211 0 .376.171.376.381l-.025 4.201c0 .211-.17.377-.376.377z"/><path d="M118.128 50.561l-4.207-.025c-.21 0-.376-.171-.376-.381a.38.38 0 0 1 .376-.377l4.202.025c.21 0 .376.171.376.381a.37.37 0 0 1-.371.377z"/></g><g stroke-width=".642" stroke-miterlimit="10" stroke="#dee7f3"><path d="M20.098 87.406L14.5 90.103l2.696 5.599 5.599-2.696-2.696-5.599z"/><path d="M17.016 96.198l-3.027-6.279 6.279-3.027 3.027 6.279-6.279 3.027zm-2.013-5.923l2.369 4.919 4.919-2.369-2.369-4.919-4.919 2.369zm89.467 20.484a3.84 3.84 0 1 0 0-7.68 3.84 3.84 0 1 0 0 7.68z"/><path d="M104.47 111.141c-2.329 0-4.221-1.892-4.221-4.222s1.892-4.221 4.221-4.221 4.221 1.892 4.221 4.221a4.23 4.23 0 0 1-4.221 4.222zm0-7.685a3.47 3.47 0 0 0-3.464 3.463 3.47 3.47 0 0 0 3.464 3.464 3.47 3.47 0 0 0 3.463-3.464 3.47 3.47 0 0 0-3.463-3.463zm8.698-23.345c-.105 0-.21-.045-.286-.131l-2.414-2.771a.38.38 0 0 1 .035-.532.38.38 0 0 1 .532.035l2.414 2.771a.38.38 0 0 1-.035.532c-.07.06-.155.095-.246.095z"/></g><g fill="#dee7f3"><path d="M19.425 32.21l7.559-5.446 1.004 8.874-8.563-3.428z"/><path d="M28.435 36.226L18.642 32.3l8.639-6.224 1.154 10.149zm-8.232-4.111l7.344 2.941-.863-7.605-6.48 4.663z"/></g><path d="M39.172 109.379c-.146 0-.286-.085-.346-.231l-1.762-4.161c-.08-.191.01-.417.201-.497s.417.01.497.201l1.762 4.161c.08.191-.01.417-.201.497-.05.02-.1.03-.151.03z" fill="#e84f35"/><path d="M22.287 109.791c-.211 0-.376-.171-.376-.376v-2.636c0-.211.171-.376.376-.376s.377.17.377.376v2.636c.005.205-.166.376-.377.376z" fill="#121144"/><g fill="#e84f35"><path d="M106.046 33.545h-.005c-.432-.005-.778-.351-.773-.783l.055-8.654a.78.78 0 0 1 .778-.773h.005c.432.005.778.351.773.783l-.055 8.654a.77.77 0 0 1-.778.773z"/><path d="M110.403 29.248h-.005l-8.654-.055c-.431-.005-.778-.351-.773-.783a.78.78 0 0 1 .778-.773h.005l8.654.055c.431.005.778.351.773.783a.78.78 0 0 1-.778.773z"/></g><path d="M95.159 34.293l-59.405.196c-4.934 0-9.06 2.746-9.06 9.201v45.065c0 2.585 2.093 4.678 4.678 4.678h63.787a9.28 9.28 0 0 0 9.276-9.276V43.569c0-5.125-4.151-9.276-9.276-9.276z" fill="#13202a"/><path d="M94.311 27.988H36.818c-3.007 0-5.451 2.445-5.451 5.441v32.17c0 3.012 2.444 5.441 5.451 5.441h57.493c3.017 0 5.451-2.439 5.451-5.441v-32.17c0-3.002-2.444-5.441-5.451-5.441z" fill="#e84f35"/><path d="M40.482 53.909h7.85m5.743 0h7.845m5.742 0h7.85m5.743 0h7.85" stroke-miterlimit="10" stroke="#fff" stroke-width="2.69" stroke-linecap="round"/><path opacity=".81" d="M44.608 41.22c1.034.005 1.892.753 2.038 1.717l4.437.03.01-2.545c.005-1.175-.974-2.133-2.189-2.138l-8.975-.06c-1.21-.01-2.199.939-2.204 2.113l-.005.843 6.887.04zm2.038 2.344c-.161.964-1.019 1.697-2.053 1.697l-6.872-.04v-.617l6.882.04c.793.005 1.441-.617 1.446-1.39 0-.768-.647-1.41-1.436-1.405l-6.877-.04-.015 3.965c-.005 1.175.974 2.133 2.188 2.138l8.975.06c1.21.01 2.198-.939 2.203-2.113l.01-2.259-4.452-.035z" fill="#f26a54"/><path d="M52.8 62.733h44.598l4.989-2.229v18.617H52.925L52.8 62.733z" fill="#13202a"/><path d="M102.387 71.045l-4.989 2.229h-45.1m50.089-12.769l-4.989 2.229h-45.1" stroke-miterlimit="10" stroke="#172a3a" stroke-width="1.004"/><path d="M31.366 35.367s-1.641-.13-2.66.803c-1.742 1.591-1.968 3.87-1.968 5.757v49.748l23.697 22.884c1.892 1.546 2.49.733 2.49-2.219V61.995c0-2.48-1.285-4.186-3.182-6.084L31.15 37.726c-.688-1.079.216-2.359.216-2.359z" fill="#172a3a"/></svg>