<svg xmlns="http://www.w3.org/2000/svg" width="120" height="120" fill="none"><g clip-path="url(#A)"><circle cx="60" cy="60" r="60" fill="#f0f5fa"/><g clip-path="url(#B)"><path d="M11 46.086s18.457 30.385 30.91 37.636 17.845 12.453 25.28 11.897 15.428-8.178 17.658-11.154-22.307-35.69-26.766-42.753L44.876 21S15.028 35.832 11 46.086z" fill="#ffa727"/><g stroke="#162a3a" stroke-miterlimit="10"><path d="M37.189 53.699s3.428 9.327 1.942 18.089" stroke-width=".937" stroke-linecap="round"/><path d="M65.019 66.738s13.714 10.479 17.011 16.084" stroke-width=".408"/><g stroke-width=".937" stroke-linecap="round"><path d="M50.347 78.723l19.319 14.763m-11.55-18.704l18.763 16.63"/></g></g><path d="M67.189 48.219s-9.108 15.057-16.73 21.377-16.171 13.011-15.8 15.241 0 2.973 4.646 2.23 21.005-14.314 23.422-13.57-15.616 11.709-20.075 13.848-1.674 4.368 1.302 4.368 19.519-9.108 21.948-10.932c2.398-1.799 3.519-.593-.571 2.567-3.488 2.695-12.827 9.293-15.8 10.223s.187 3.532 4.462 2.788 17.286-9.108 18.776-8.737-15.057 8.737-14.869 9.852 2.229 2.045 6.507.743 22.679-9.851 31.6-22.307 13.755-26.582 13.755-26.582L79.464 25.35 60.317 41.337l6.873 6.882z" fill="#f26a54"/><g fill="#e75035"><path d="M67.14 96.527c-.662-3.094 5.624-4.509 5.065-.905-.265 1.689-4.506 3.507-5.065.905z"/><path d="M71.858 93.992c-.718-3.407 6.101-4.965 5.493-.999-.287 1.864-4.89 3.862-5.493.999z"/><path d="M76.879 91.412c-.762-3.56 6.47-5.19 5.827-1.043-.303 1.945-5.183 4.037-5.827 1.043zm5.205-4.065c-.706-3.297 5.992-4.806 5.396-.965-.284 1.802-4.802 3.738-5.396.965z"/></g><path d="M44.876 21s10.233 9.561 17.667 17.18S74.44 57.883 76.485 61.415s-2.601 7.806-7.435 3.532-8.862-11.709-8.862-11.709-13.63.931-20.509-5.577-9.667-12.452-9.667-12.452L44.876 21z" fill="#ffa727"/><path d="M40.639 47.579s4.044 4.94 11.797 5.299l7.753.359 1.755 2.932" stroke="#162a3a" stroke-width=".937" stroke-miterlimit="10" stroke-linecap="round"/></g></g><defs><clipPath id="A"><path fill="#fff" d="M0 0h120v120H0z"/></clipPath><clipPath id="B"><path fill="#fff" transform="translate(11 21)" d="M0 0h98.759v77.856H0z"/></clipPath></defs></svg>