<svg xmlns="http://www.w3.org/2000/svg" width="160" height="160" fill="none" xmlns:v="https://vecta.io/nano"><g clip-path="url(#A)"><g fill="#ffa727"><path d="M150.687 94.74s-15.483-4.801-15.611-15.12 4.21-36.121 5.972-41.933-3.914-7.097-6.303.874l-7.937 25.59s-4.272-17.394-5.659-25.841-1.744-15.105-5.106-14.14-3.464 11.305-3.013 16.217l2.167 21.38s-7.325-19.328-8.984-25.095-4.021-15.076-7.623-9.149 4.758 36.815 4.758 36.815-13.079-5.492-20.813 5.52-5.797 17.738-3.42 18.406S83.538 71.8 94.312 73.802s14.077 16.033 8.853 22.113-14.848-.094-23.276 10.988c-.942 5.069 1.644 6.711 4.031 5.993 4.576-1.375 6.927-3.311 22.846 2.83s32.656 17.628 32.656 17.628l11.265-38.614z"/><path d="M100.557 65.813s4.544 1.353 7.492 3.75l-7.492-3.75z"/></g><path d="M100.557 65.813s4.544 1.353 7.492 3.75" stroke="#162a3a" stroke-width="3.122" stroke-miterlimit="10" stroke-linecap="round"/><g fill="#64b3f7"><path d="M8.215 94.509s15.119-4.567 15.303-14.875-3.896-36.152-5.58-41.985 3.855-7.032 6.138.967l7.59 25.685s4.264-17.315 5.665-25.734 1.786-15.066 5.058-14.052 3.312 11.346 2.844 16.248l-2.236 21.329s7.251-19.203 8.902-24.94 4.005-15.003 7.483-9.028-4.849 36.712-4.849 36.712 12.78-5.294 20.255 5.824 5.549 17.809 3.228 18.44-4.216-16.515-14.73-14.675-13.813 15.81-8.756 21.963 14.473.127 22.625 11.324c.889 5.078-1.641 6.68-3.964 5.928-4.453-1.442-6.733-3.411-22.285 2.488s-31.932 17.129-31.932 17.129L8.215 94.509z"/><path d="M57.244 66.351s-4.437 1.284-7.324 3.636l7.325-3.636z"/></g><path d="M57.244 66.351s-4.437 1.284-7.324 3.636" stroke="#162a3a" stroke-width="3.122" stroke-miterlimit="10" stroke-linecap="round"/></g><defs><clipPath id="A"><path fill="#fff" d="M0 0h160v160H0z"/></clipPath></defs></svg>