<svg xmlns="http://www.w3.org/2000/svg" width="256" height="198" fill="none"><style><![CDATA[.B{fill:#172a3a}.C{fill:#e84f35}.D{fill:#f7a964}.E{stroke-width:1.466}.F{stroke-miterlimit:10}.G{stroke-linecap:round}.H{stroke-linejoin:round}.I{color-interpolation-filters:sRGB}]]></style><g clip-path="url(#C)"><g filter="url(#A)"><rect x="35" y="30.003" width="212.18" height="97.732" rx="5.144" fill="#fff"/><path d="M100.758 61.066v8.228h-1.695v-6.9h-3.306v6.9h-1.695v-8.228h6.696zm5.493 2.114v1.277h-3.006v-1.277h3.006zm1.192 0v6.114h-1.627v-6.114h1.627zm-4.605 0h1.599l-.164 3.085c-.022.441-.069.829-.141 1.164a3.57 3.57 0 0 1-.288.859c-.117.237-.258.431-.424.582s-.352.254-.571.322-.452.102-.712.102h-.497l-.017-1.283.209-.023c.12-.011.226-.045.316-.102a.73.73 0 0 0 .238-.254 1.64 1.64 0 0 0 .169-.424 4.52 4.52 0 0 0 .108-.61c.03-.234.051-.503.062-.808l.113-2.611zm9.166 4.736v-2.724a1.2 1.2 0 0 0-.096-.503c-.064-.143-.164-.254-.3-.333s-.303-.119-.514-.119c-.181 0-.337.032-.469.096s-.234.149-.305.266a.73.73 0 0 0-.107.401h-1.628c0-.26.06-.507.181-.74s.296-.439.525-.616.503-.322.82-.424.678-.152 1.074-.152c.474 0 .896.079 1.265.237a1.93 1.93 0 0 1 .871.712c.214.316.322.712.322 1.187v2.616c0 .335.02.61.062.825a2.16 2.16 0 0 0 .181.554v.096h-1.645c-.079-.166-.139-.373-.181-.622s-.056-.505-.056-.757zm.215-2.345l.011.921h-.91c-.215 0-.401.025-.559.074a1.03 1.03 0 0 0-.39.209c-.102.087-.177.188-.226.305a1.06 1.06 0 0 0-.068.384c0 .139.032.266.096.379a.68.68 0 0 0 .277.26c.12.06.262.09.424.09a1.32 1.32 0 0 0 .638-.147c.181-.098.321-.219.418-.362s.155-.279.159-.407l.429.69a2.8 2.8 0 0 1-.248.48 2.26 2.26 0 0 1-.39.469 2.03 2.03 0 0 1-.571.356c-.222.09-.486.136-.791.136-.388 0-.741-.077-1.057-.232s-.561-.375-.746-.65-.271-.595-.271-.949c0-.32.06-.605.181-.853s.297-.458.531-.627.533-.303.887-.39a5.01 5.01 0 0 1 1.232-.136h.944zm5.702-2.39v6.114h-1.634v-6.114h1.634zm1.966 0v1.26h-5.538v-1.26h5.538zm3.25 6.227c-.475 0-.901-.075-1.278-.226s-.697-.367-.96-.639a2.83 2.83 0 0 1-.599-.944c-.14-.362-.209-.746-.209-1.153v-.226a3.92 3.92 0 0 1 .197-1.272c.132-.384.321-.718.566-1s.55-.499.904-.65.753-.232 1.198-.232c.433 0 .817.072 1.153.215a2.26 2.26 0 0 1 .842.61 2.65 2.65 0 0 1 .52.949c.116.365.175.772.175 1.221v.678h-4.86v-1.085h3.26v-.124c0-.226-.041-.428-.124-.605a.96.96 0 0 0-.362-.43c-.162-.105-.369-.158-.621-.158-.215 0-.4.047-.554.141a1.1 1.1 0 0 0-.379.396 2.16 2.16 0 0 0-.214.599 3.75 3.75 0 0 0-.068.746v.226c0 .245.034.471.102.678a1.64 1.64 0 0 0 .299.537c.132.151.29.267.475.35s.401.124.638.124c.294 0 .567-.056.82-.169s.476-.292.661-.526l.791.859c-.128.185-.303.362-.525.531a2.82 2.82 0 0 1-.792.418 3.26 3.26 0 0 1-1.056.158zm5.594-2.419l-2.543-3.809h2.018l1.299 2.306h1.17l-.198 1.503h-1.746zm.797-.277l-1.396 2.583h-1.961l2.029-3.368 1.328.785zm2.204-3.532v6.114h-1.628v-6.114h1.628zm3.933 0l-2.543 3.809h-1.746l-.198-1.503h1.17l1.294-2.306h2.023zm-1.95 6.114l-1.395-2.583 1.379-.785 2.017 3.368h-2.001zm7.488-.689l1.622-5.425h1.746l-2.458 7.036a3.77 3.77 0 0 1-.215.497 1.99 1.99 0 0 1-.356.503c-.147.162-.333.294-.559.395s-.496.153-.82.153a2.07 2.07 0 0 1-.378-.028l-.351-.079v-1.192h.13l.13.006c.215 0 .39-.025.526-.074s.245-.124.328-.226.148-.226.197-.384l.458-1.181zm-.678-5.425l1.328 4.43.232 1.724-1.108.119-2.198-6.273h1.746zm7.143 4.956c.2 0 .377-.038.531-.113s.275-.188.362-.328.137-.311.141-.503h1.532a2.04 2.04 0 0 1-.345 1.147c-.226.332-.529.593-.91.786s-.806.282-1.277.282-.889-.079-1.243-.237-.643-.377-.876-.656a2.87 2.87 0 0 1-.526-.983c-.117-.377-.175-.78-.175-1.209v-.164a4.02 4.02 0 0 1 .175-1.209 2.8 2.8 0 0 1 .526-.983c.233-.283.525-.503.876-.661s.761-.237 1.232-.237c.501 0 .94.096 1.316.288s.678.467.893.825.33.774.334 1.26h-1.532c-.004-.203-.047-.388-.13-.554a.94.94 0 0 0-.35-.396c-.151-.102-.337-.152-.56-.152-.237 0-.431.051-.582.152a.98.98 0 0 0-.35.407c-.083.17-.141.364-.175.582a4.9 4.9 0 0 0-.045.678v.164c0 .237.015.465.045.684s.086.412.169.582a1.03 1.03 0 0 0 .356.401c.151.098.347.147.588.147zm7.623-4.956v1.277h-2.961v-1.277h2.961zm-2.492 0v6.114h-1.627v-6.114h1.627zm3.679 0v6.114h-1.633v-6.114h1.633zm4.069 6.227c-.475 0-.9-.075-1.277-.226s-.697-.367-.961-.639a2.83 2.83 0 0 1-.599-.944c-.139-.362-.209-.746-.209-1.153v-.226c0-.463.066-.887.198-1.272a2.99 2.99 0 0 1 .565-1c.249-.282.55-.499.904-.65s.754-.232 1.198-.232c.433 0 .818.072 1.153.215a2.26 2.26 0 0 1 .842.61c.23.264.403.58.52.949a3.99 3.99 0 0 1 .175 1.221v.678h-4.86v-1.085h3.261v-.124c0-.226-.042-.428-.125-.605s-.199-.324-.361-.43-.369-.158-.622-.158c-.215 0-.399.047-.554.141s-.28.226-.378.396a2.16 2.16 0 0 0-.215.599c-.045.226-.068.475-.068.746v.226c0 .245.034.471.102.678a1.64 1.64 0 0 0 .299.537c.132.151.29.267.475.35s.401.124.639.124a1.98 1.98 0 0 0 .819-.169 1.77 1.77 0 0 0 .661-.526l.791.859c-.128.185-.303.362-.525.531s-.482.309-.791.418-.662.158-1.057.158zm3.43-6.227h1.628v4.843h1.689v-4.843h1.639v4.843h1.684v-4.843h1.628v6.114h-8.268v-6.114zm12.393 6.227c-.475 0-.9-.075-1.277-.226s-.697-.367-.961-.639-.459-.586-.599-.944-.209-.746-.209-1.153v-.226c0-.463.066-.887.198-1.272a2.99 2.99 0 0 1 .565-1c.249-.282.55-.499.904-.65s.754-.232 1.198-.232c.433 0 .818.072 1.153.215a2.26 2.26 0 0 1 .842.61c.23.264.403.58.52.949a3.99 3.99 0 0 1 .175 1.221v.678h-4.86v-1.085h3.261v-.124c0-.226-.042-.428-.124-.605s-.2-.324-.362-.43-.369-.158-.622-.158c-.215 0-.399.047-.554.141s-.28.226-.378.396a2.16 2.16 0 0 0-.215.599c-.045.226-.068.475-.068.746v.226c0 .245.034.471.102.678a1.66 1.66 0 0 0 .299.537c.132.151.291.267.475.35s.401.124.639.124a1.98 1.98 0 0 0 .819-.169 1.77 1.77 0 0 0 .661-.526l.791.859c-.128.185-.303.362-.525.531s-.482.309-.791.418-.661.158-1.057.158zm7.623-3.758v1.266h-3.108v-1.266h3.108zm-2.565-2.469v6.114H179.8v-6.114h1.628zm3.667 0v6.114h-1.633v-6.114h1.633zm3.103-2.114l-.187 5.713h-1.356l-.192-5.713h1.735zm-1.78 7.482c0-.241.083-.441.248-.599.17-.162.392-.243.667-.243s.501.081.667.243.249.358.249.599c0 .234-.083.431-.249.593s-.388.243-.667.243-.497-.081-.667-.243a.8.8 0 0 1-.248-.593z" class="B"/><path d="M104.666 76.326v6.4h-.844V77.02h-3.155v5.705h-.849v-6.4h4.848zm4.593 1.644v.672h-2.298v-.672h2.298zm.717 0v4.756h-.813V77.97h.813zm-3.213 0h.817l-.123 2.294a8.35 8.35 0 0 1-.101.941 3.22 3.22 0 0 1-.184.694c-.077.193-.173.352-.29.475s-.252.21-.414.268-.347.084-.558.084h-.255v-.716l.176-.013a.75.75 0 0 0 .321-.088c.091-.05.167-.123.228-.22s.112-.227.15-.382.072-.34.092-.554l.053-.747.088-2.035zm7.327 3.943v-2.448c0-.187-.038-.35-.114-.488a.75.75 0 0 0-.335-.325c-.149-.076-.334-.114-.553-.114a1.3 1.3 0 0 0-.541.105c-.152.07-.272.163-.36.277s-.128.237-.128.369h-.813c0-.17.044-.338.132-.505a1.48 1.48 0 0 1 .378-.453c.167-.138.366-.246.598-.325s.495-.123.782-.123c.346 0 .651.059.914.176s.475.294.624.532.229.529.229.883v2.215a3.52 3.52 0 0 0 .039.505c.03.179.072.333.128.462v.07h-.848c-.041-.094-.074-.218-.097-.374s-.035-.305-.035-.44zm.14-2.07l.009.571h-.822c-.231 0-.438.019-.619.057s-.334.089-.458.163-.216.165-.281.277a.74.74 0 0 0-.097.382.83.83 0 0 0 .102.409.73.73 0 0 0 .303.294c.138.07.306.106.505.106.249 0 .469-.053.66-.158s.341-.234.452-.387.176-.3.185-.444l.347.391c-.02.123-.076.259-.167.409s-.212.293-.365.431-.328.248-.536.338-.437.132-.694.132c-.323 0-.605-.063-.849-.189s-.427-.294-.562-.505-.198-.453-.198-.717c0-.255.05-.479.149-.672s.244-.359.431-.488.413-.231.677-.299a3.57 3.57 0 0 1 .883-.101h.945zm3.82-1.872v4.756h-.818V77.97h.818zm1.595 0v.659h-3.977v-.659h3.977zm2.422 4.844a2.34 2.34 0 0 1-.901-.167c-.266-.114-.496-.274-.69-.479a2.13 2.13 0 0 1-.439-.73c-.103-.281-.154-.589-.154-.923v-.185c0-.387.057-.731.171-1.033s.27-.563.466-.774.419-.371.668-.479a1.92 1.92 0 0 1 .774-.163c.34 0 .633.059.879.176a1.6 1.6 0 0 1 .611.492c.158.208.275.454.351.738a3.49 3.49 0 0 1 .115.923v.365h-3.552v-.664h2.739v-.061c-.012-.211-.056-.416-.132-.615s-.191-.363-.352-.492-.381-.193-.659-.193c-.185 0-.355.04-.51.119s-.289.19-.4.343-.198.338-.259.558a2.81 2.81 0 0 0-.093.76v.185c0 .226.031.438.093.637s.156.369.277.519a1.33 1.33 0 0 0 .443.352 1.36 1.36 0 0 0 .598.127c.287 0 .531-.059.73-.176s.373-.274.523-.47l.492.391a2.26 2.26 0 0 1-.391.444 1.86 1.86 0 0 1-.585.343c-.228.088-.499.132-.813.132zm4.242-2.158l-1.802-2.686h.98l1.231 1.969h.949l-.119.716h-1.239zm.444-.084l-1.38 2.154h-1.029l1.894-2.743.515.589zm1.331-2.602v4.756h-.813V77.97h.813zm2.774 0l-1.802 2.686h-1.24l-.127-.716h.954l1.23-1.969h.985zm-.87 4.756l-1.385-2.154.523-.589 1.89 2.743h-1.028zm11.994-2.439v.624h-2.707v-.624h2.707zm-2.861-2.083v-.435c0-.302.062-.566.185-.791s.296-.406.518-.532.493-.189.8-.189.578.063.8.189.399.303.519.532.184.489.184.791v.435a1.66 1.66 0 0 1-.18.791c-.12.226-.293.401-.518.527s-.488.189-.796.189a1.62 1.62 0 0 1-.804-.189 1.31 1.31 0 0 1-.523-.527c-.123-.226-.185-.489-.185-.791zm.717-.435v.435a1.22 1.22 0 0 0 .083.47c.059.135.147.24.264.316s.269.11.448.11a.79.79 0 0 0 .435-.11.68.68 0 0 0 .26-.316 1.18 1.18 0 0 0 .087-.47v-.435a1.17 1.17 0 0 0-.087-.466c-.059-.135-.147-.24-.264-.316s-.261-.114-.44-.114-.322.038-.439.114-.205.182-.264.316-.083.29-.083.466zm-1.425-1.442v6.4h-.896l-2.607-4.984v4.984h-.817v-6.4h.896l2.616 4.997v-4.997h.808zm5.943 2.8h.58c.284 0 .519-.047.703-.141s.327-.227.418-.391.141-.355.141-.563c0-.246-.042-.453-.124-.62s-.205-.293-.369-.378-.372-.127-.624-.127a1.3 1.3 0 0 0-.606.136c-.173.088-.31.214-.409.378a1.12 1.12 0 0 0-.145.58h-.813a1.66 1.66 0 0 1 .246-.888 1.77 1.77 0 0 1 .69-.637c.299-.158.644-.237 1.037-.237.387 0 .725.069 1.015.207s.516.337.677.607.242.599.242.998c0 .161-.038.334-.114.519s-.189.352-.347.51-.358.289-.607.391-.548.149-.897.149h-.694v-.492zm0 .668v-.488h.694c.408 0 .745.048 1.011.145a1.6 1.6 0 0 1 .629.387c.155.161.264.338.325.532a1.76 1.76 0 0 1 .097.571c0 .299-.052.564-.154.796a1.63 1.63 0 0 1-.426.589 1.83 1.83 0 0 1-.642.365 2.53 2.53 0 0 1-.805.123c-.278 0-.54-.04-.786-.119s-.459-.193-.646-.343-.334-.338-.44-.558-.158-.476-.158-.76h.813c0 .223.048.418.145.585a1.03 1.03 0 0 0 .422.391c.185.091.401.136.65.136s.463-.042.642-.127.321-.22.418-.396.149-.397.149-.664-.055-.485-.167-.655-.269-.3-.475-.382a1.84 1.84 0 0 0-.716-.127h-.58zm8.013-3.468v.457l-2.651 5.942h-.857l2.646-5.731h-3.463v-.668h4.325zm5.252 4.246v.668h-4.624v-.479l2.866-4.435h.663l-.712 1.283-1.894 2.962h3.701zm-.892-4.246v6.4h-.813v-6.4h.813zm5.766 0v.457l-2.65 5.942h-.857l2.646-5.731h-3.464v-.668h4.325zm2.114 2.8h.581c.284 0 .518-.047.703-.141s.327-.227.417-.391.141-.355.141-.563c0-.246-.041-.453-.123-.62s-.205-.293-.369-.378-.372-.127-.624-.127c-.229 0-.431.046-.607.136a1 1 0 0 0-.409.378 1.13 1.13 0 0 0-.145.58h-.813a1.66 1.66 0 0 1 .246-.888 1.77 1.77 0 0 1 .69-.637c.299-.158.645-.237 1.038-.237.386 0 .725.069 1.015.207a1.51 1.51 0 0 1 .677.607c.161.267.242.599.242.998a1.35 1.35 0 0 1-.115.519c-.073.182-.189.352-.347.51a1.79 1.79 0 0 1-.606.391c-.25.1-.548.149-.897.149h-.695v-.492zm0 .668v-.488h.695c.407 0 .744.048 1.011.145s.476.226.628.387.264.338.326.532.096.381.096.571a1.94 1.94 0 0 1-.154.796 1.61 1.61 0 0 1-.426.589 1.82 1.82 0 0 1-.642.365 2.53 2.53 0 0 1-.804.123 2.56 2.56 0 0 1-.787-.119c-.243-.079-.458-.193-.646-.343s-.334-.338-.439-.558-.159-.476-.159-.76h.814c0 .223.048.418.145.585s.24.297.422.391.401.136.65.136.463-.042.642-.127.321-.22.417-.396.15-.397.15-.664-.056-.485-.167-.655-.27-.3-.475-.382a1.84 1.84 0 0 0-.716-.127h-.581zm4.906-.114l-.651-.167.321-3.187h3.283v.752h-2.593l-.193 1.741c.117-.067.265-.13.444-.189s.389-.088.624-.088c.296 0 .561.051.795.154s.434.243.598.431.294.413.382.677a2.78 2.78 0 0 1 .132.883c0 .308-.042.59-.127.848s-.207.484-.374.677a1.68 1.68 0 0 1-.633.444c-.252.106-.549.158-.892.158-.258 0-.503-.035-.734-.106s-.434-.183-.615-.33a1.78 1.78 0 0 1-.44-.554c-.111-.223-.182-.484-.211-.782h.774c.035.24.105.443.211.607a1.03 1.03 0 0 0 .413.374 1.39 1.39 0 0 0 .602.123c.193 0 .365-.034.514-.101a1.01 1.01 0 0 0 .378-.29c.103-.126.18-.278.233-.457a2.01 2.01 0 0 0 .084-.602c0-.202-.028-.39-.084-.563a1.28 1.28 0 0 0-.25-.453c-.109-.129-.242-.229-.4-.299s-.34-.11-.545-.11c-.273 0-.479.037-.62.11s-.28.173-.426.299zm5.221-.554h.58c.285 0 .519-.047.704-.141a.97.97 0 0 0 .417-.391c.094-.167.141-.355.141-.563 0-.246-.041-.453-.123-.62s-.205-.293-.369-.378-.373-.127-.625-.127c-.228 0-.43.046-.606.136a1 1 0 0 0-.409.378 1.12 1.12 0 0 0-.145.58h-.813a1.66 1.66 0 0 1 .246-.888 1.77 1.77 0 0 1 .69-.637c.299-.158.645-.237 1.037-.237.387 0 .726.069 1.016.207s.515.337.677.607.241.599.241.998c0 .161-.038.334-.114.519s-.189.352-.347.51-.358.289-.607.391-.548.149-.896.149h-.695v-.492zm0 .668v-.488h.695c.407 0 .744.048 1.011.145s.476.226.628.387.264.338.325.532a1.76 1.76 0 0 1 .097.571 1.94 1.94 0 0 1-.154.796 1.61 1.61 0 0 1-.426.589 1.83 1.83 0 0 1-.642.365 2.53 2.53 0 0 1-.804.123c-.279 0-.541-.04-.787-.119s-.458-.193-.646-.343-.334-.338-.44-.558-.158-.476-.158-.76h.813c0 .223.049.418.145.585s.241.297.422.391.402.136.651.136.463-.042.642-.127a.93.93 0 0 0 .417-.396c.1-.176.15-.397.15-.664s-.056-.485-.167-.655-.27-.3-.475-.382-.441-.127-.717-.127h-.58zm8.013-3.468v.457l-2.651 5.942h-.857l2.646-5.731h-3.463v-.668h4.325z" fill="#3b566e"/><path d="M59.173 107.548h.965c-.05.462-.183.876-.397 1.241s-.517.654-.909.869-.881.316-1.467.316c-.429 0-.819-.08-1.17-.241a2.6 2.6 0 0 1-.899-.683c-.251-.298-.445-.655-.583-1.07a4.57 4.57 0 0 1-.201-1.397v-.728c0-.512.067-.976.201-1.391s.333-.777.588-1.075.568-.528.929-.688a2.97 2.97 0 0 1 1.221-.242c.553 0 1.02.104 1.401.312a2.22 2.22 0 0 1 .889.864c.214.365.347.788.397 1.271h-.965a2.68 2.68 0 0 0-.261-.879 1.36 1.36 0 0 0-.542-.573c-.234-.134-.541-.201-.919-.201-.325 0-.611.062-.859.186s-.45.3-.618.527a2.46 2.46 0 0 0-.372.819c-.084.318-.126.672-.126 1.06v.738c0 .359.037.695.11 1.01a2.69 2.69 0 0 0 .347.829 1.72 1.72 0 0 0 .588.563c.238.134.519.2.844.2.412 0 .74-.065.985-.195s.429-.319.553-.563a2.86 2.86 0 0 0 .271-.879zm1.899-.332v-.115c0-.392.057-.755.171-1.09s.278-.631.492-.879.474-.446.779-.583.646-.211 1.025-.211.725.07 1.03.211.569.332.784.583a2.55 2.55 0 0 1 .497.879c.114.335.171.698.171 1.09v.115c0 .392-.057.756-.171 1.09s-.28.628-.497.879a2.27 2.27 0 0 1-.779.583 2.45 2.45 0 0 1-1.025.206c-.382 0-.725-.069-1.03-.206a2.32 2.32 0 0 1-.784-.583 2.65 2.65 0 0 1-.492-.879 3.36 3.36 0 0 1-.171-1.09zm.929-.115v.115a3 3 0 0 0 .095.769 2.02 2.02 0 0 0 .286.633 1.45 1.45 0 0 0 .487.437c.194.104.42.156.678.156s.477-.052.668-.156a1.4 1.4 0 0 0 .482-.437 2.02 2.02 0 0 0 .286-.633 2.86 2.86 0 0 0 .1-.769v-.115c0-.268-.034-.521-.1-.759s-.161-.453-.291-.638-.288-.334-.482-.442-.415-.16-.673-.16-.479.053-.673.16a1.46 1.46 0 0 0-.482.442c-.127.185-.223.397-.286.638a2.93 2.93 0 0 0-.095.759zm5.701-2.662l1.191 1.979 1.206-1.979h1.09l-1.778 2.682 1.833 2.753h-1.075l-1.256-2.04-1.256 2.04h-1.08l1.828-2.753-1.773-2.682h1.07zm5.405 1.044v6.48h-.934v-7.524h.854l.08 1.044zm3.662 1.628v.105c0 .396-.047.762-.141 1.1s-.231.627-.412.875-.397.44-.658.577-.561.206-.899.206c-.345 0-.65-.057-.914-.171a1.8 1.8 0 0 1-.673-.497c-.184-.218-.331-.479-.442-.784s-.181-.648-.221-1.029v-.563a4.72 4.72 0 0 1 .226-1.08c.111-.318.256-.589.437-.814a1.8 1.8 0 0 1 .668-.517 2.13 2.13 0 0 1 .904-.181c.342 0 .645.067.909.201a1.83 1.83 0 0 1 .668.563c.181.244.316.537.407.879s.141.715.141 1.13zm-.934.105v-.105a3.28 3.28 0 0 0-.085-.764c-.057-.241-.146-.452-.266-.633a1.27 1.27 0 0 0-.452-.432c-.184-.107-.404-.16-.658-.16-.234 0-.439.04-.613.12s-.317.189-.437.327-.219.288-.296.462a2.66 2.66 0 0 0-.166.532v1.301c.067.235.161.456.281.663a1.46 1.46 0 0 0 .482.498c.201.124.454.186.759.186.251 0 .467-.052.648-.156a1.31 1.31 0 0 0 .452-.437 1.99 1.99 0 0 0 .266-.633c.057-.241.085-.497.085-.769zm5.325 1.728v-2.798c0-.214-.044-.4-.131-.557s-.211-.285-.382-.372-.382-.13-.633-.13a1.49 1.49 0 0 0-.618.12 1.07 1.07 0 0 0-.412.317.69.69 0 0 0-.146.422h-.929c0-.195.05-.387.151-.578s.244-.364.432-.518.419-.281.683-.371.566-.141.894-.141a2.55 2.55 0 0 1 1.045.201c.305.134.542.337.713.608s.261.604.261 1.009v2.532a3.96 3.96 0 0 0 .045.578 2.25 2.25 0 0 0 .146.527v.081h-.969c-.047-.108-.084-.25-.111-.427s-.04-.349-.04-.503zm.161-2.366l.01.653h-.939c-.265 0-.501.022-.708.066a1.61 1.61 0 0 0-.522.186.88.88 0 0 0-.321.316.84.84 0 0 0-.111.437c0 .171.039.327.116.467a.84.84 0 0 0 .347.337c.157.08.35.12.578.12.285 0 .536-.06.753-.18s.39-.268.517-.443a.95.95 0 0 0 .211-.507l.397.447c-.023.141-.087.297-.191.467s-.243.335-.417.493a2.23 2.23 0 0 1-.613.386c-.234.101-.499.151-.794.151-.368 0-.691-.072-.969-.216a1.65 1.65 0 0 1-.643-.578c-.151-.244-.226-.517-.226-.818 0-.292.057-.548.171-.769s.278-.41.492-.557.472-.265.774-.342a4.08 4.08 0 0 1 1.01-.116h1.08zm5.917.216v.754h-2.873v-.754h2.873zm-2.677-2.355v5.435h-.929v-5.435h.929zm3.431 0v5.435h-.934v-5.435h.934zm2.502 3.963l2.507-3.963h.934v5.435h-.934v-3.964l-2.507 3.964h-.924v-5.435h.924v3.963zm7.148-3.963v5.435h-.934v-5.435h.934zm1.823 0v.753h-4.546v-.753h4.546zm1.678 1.868h1.632c.439 0 .809.077 1.111.231a1.58 1.58 0 0 1 .683.628 1.74 1.74 0 0 1 .236.904 1.92 1.92 0 0 1-.131.709 1.58 1.58 0 0 1-.392.572c-.17.164-.383.293-.638.387s-.54.136-.869.136h-2.31v-5.435h.929v4.671h1.381c.268 0 .483-.048.643-.146s.277-.222.347-.376.105-.315.105-.483-.035-.324-.105-.482-.186-.288-.347-.392-.375-.16-.643-.16h-1.632v-.764zm8.384-1.868v5.435h-.93v-5.435h.93zm3.566 0l-2.577 3.114h-1.301l-.14-.814h1.064l1.824-2.3h1.13zm-1 5.435l-1.999-2.462.598-.673 2.582 3.135h-1.181zm5.194-.93v-2.798c0-.214-.043-.4-.13-.557s-.211-.285-.382-.372-.382-.13-.633-.13c-.234 0-.44.04-.618.12s-.311.186-.412.317a.69.69 0 0 0-.145.422h-.93c0-.195.051-.387.151-.578s.245-.364.432-.518.419-.281.683-.371.566-.141.894-.141c.396 0 .744.067 1.045.201a1.57 1.57 0 0 1 .714.608c.174.268.261.604.261 1.009v2.532c0 .181.015.374.045.578a2.21 2.21 0 0 0 .146.527v.081h-.97c-.047-.108-.084-.25-.11-.427s-.041-.349-.041-.503zm.161-2.366l.01.653h-.939c-.265 0-.501.022-.708.066s-.382.102-.523.186-.248.189-.321.316-.111.27-.111.437.039.327.116.467a.84.84 0 0 0 .346.337c.158.08.35.12.578.12.285 0 .536-.06.754-.18s.39-.268.517-.443.201-.343.211-.507l.397.447c-.024.141-.087.297-.191.467s-.243.335-.417.493a2.23 2.23 0 0 1-.613.386c-.234.101-.499.151-.794.151-.368 0-.691-.072-.969-.216s-.489-.336-.643-.578-.226-.517-.226-.818c0-.292.057-.548.171-.769s.278-.41.492-.557.472-.265.774-.342.638-.116 1.009-.116h1.08zm3.16-1.095v6.48h-.935v-7.524h.854l.081 1.044zm3.662 1.628v.105a4.09 4.09 0 0 1-.141 1.1c-.094.335-.231.627-.412.875s-.397.44-.658.577-.561.206-.899.206c-.345 0-.65-.057-.914-.171s-.489-.279-.673-.497-.332-.479-.442-.784-.181-.648-.221-1.029v-.563c.04-.402.115-.762.226-1.08s.256-.589.437-.814a1.8 1.8 0 0 1 .668-.517c.261-.121.562-.181.904-.181s.645.067.909.201.487.318.668.563.317.537.407.879.141.715.141 1.13zm-.935.105v-.105c0-.271-.028-.526-.085-.764s-.146-.452-.266-.633a1.27 1.27 0 0 0-.452-.432c-.184-.107-.404-.16-.658-.16-.235 0-.439.04-.613.12s-.317.189-.437.327-.22.288-.297.462a2.71 2.71 0 0 0-.165.532v1.301a2.86 2.86 0 0 0 .281.663c.121.205.281.37.482.498s.454.186.759.186a1.28 1.28 0 0 0 .648-.156 1.31 1.31 0 0 0 .452-.437c.12-.184.209-.395.266-.633a3.33 3.33 0 0 0 .085-.769zm3.934-2.777v5.435h-.935v-5.435h.935zm1.823 0v.753h-4.546v-.753h4.546zm2.502 4.872l1.512-4.872h.994l-2.18 6.274c-.05.133-.117.277-.201.432a2.08 2.08 0 0 1-.311.447 1.51 1.51 0 0 1-.462.341c-.178.091-.391.136-.638.136-.074 0-.168-.01-.282-.03l-.241-.051-.005-.753.126.01.125.01a1.5 1.5 0 0 0 .538-.085.82.82 0 0 0 .372-.277c.103-.127.192-.303.266-.527l.387-1.055zm-1.111-4.872l1.412 4.219.241.98-.668.341-1.999-5.54h1.014zm10.63 0v.768h-2.748v-.768h2.748zm-2.613 0v5.435h-.929v-5.435h.929zm3.436 0v5.435h-.934v-5.435h.934zm1.246 2.777v-.115a3.36 3.36 0 0 1 .171-1.09 2.6 2.6 0 0 1 .492-.879 2.19 2.19 0 0 1 .779-.583c.304-.141.646-.211 1.024-.211s.726.07 1.03.211.57.332.784.583.383.541.497.879a3.36 3.36 0 0 1 .171 1.09v.115c0 .392-.057.756-.171 1.09a2.6 2.6 0 0 1-.497.879c-.214.248-.474.443-.779.583s-.643.206-1.024.206-.725-.069-1.03-.206a2.32 2.32 0 0 1-.784-.583 2.66 2.66 0 0 1-.492-.879c-.114-.334-.171-.698-.171-1.09zm.929-.115v.115c0 .272.032.528.096.769a2.01 2.01 0 0 0 .286.633c.131.184.293.33.487.437a1.42 1.42 0 0 0 .679.156c.254 0 .477-.052.668-.156a1.4 1.4 0 0 0 .482-.437 2.01 2.01 0 0 0 .286-.633c.067-.241.101-.497.101-.769v-.115a2.79 2.79 0 0 0-.101-.759 1.96 1.96 0 0 0-.291-.638c-.127-.187-.288-.334-.482-.442s-.416-.16-.674-.16-.478.053-.673.16a1.47 1.47 0 0 0-.482.442c-.127.185-.223.397-.286.638a2.91 2.91 0 0 0-.096.759zm8.736-2.662v.768h-2.627v-.768h2.627zm.819 0v5.435h-.93v-5.435h.93zm-3.672 0h.934l-.141 2.622-.115 1.075c-.051.308-.121.572-.211.793a1.66 1.66 0 0 1-.332.543c-.13.137-.288.239-.472.306a1.94 1.94 0 0 1-.638.096h-.291v-.819l.201-.015a.85.85 0 0 0 .366-.101.72.72 0 0 0 .262-.251c.07-.114.127-.259.17-.437s.082-.388.106-.633l.06-.854.101-2.325zm6.695 4.872l1.512-4.872h.995l-2.18 6.274c-.05.133-.117.277-.201.432a2.08 2.08 0 0 1-.311.447 1.51 1.51 0 0 1-.462.341c-.178.091-.391.136-.638.136-.074 0-.168-.01-.282-.03l-.241-.051-.005-.753.126.01.125.01a1.5 1.5 0 0 0 .538-.085.81.81 0 0 0 .371-.277c.104-.127.193-.303.267-.527l.386-1.055zm-1.11-4.872l1.412 4.219.241.98-.668.341-1.999-5.54h1.014zm8.555 0v5.435h-.929v-5.435h.929zm-.317 2.496v.764l-.572.19c-.191.054-.394.098-.608.131s-.44.045-.688.045c-.429 0-.801-.073-1.115-.221s-.558-.376-.729-.678-.256-.688-.256-1.15v-1.587h.929v1.587c0 .301.046.546.136.733s.223.327.397.417.387.131.638.131c.241 0 .467-.015.678-.045a5.52 5.52 0 0 0 .613-.131l.577-.186zm5.019 2.009v-2.798c0-.214-.044-.4-.131-.557s-.211-.285-.382-.372-.382-.13-.633-.13c-.234 0-.44.04-.618.12s-.311.186-.411.317-.146.271-.146.422h-.929c0-.195.05-.387.15-.578s.245-.364.432-.518.419-.281.683-.371a2.69 2.69 0 0 1 .895-.141c.395 0 .743.067 1.044.201a1.57 1.57 0 0 1 .714.608c.174.268.261.604.261 1.009v2.532c0 .181.015.374.045.578s.082.38.146.527v.081h-.97a1.76 1.76 0 0 1-.11-.427c-.027-.181-.04-.349-.04-.503zm.16-2.366l.01.653h-.939c-.265 0-.501.022-.708.066s-.382.102-.523.186-.247.189-.321.316-.111.27-.111.437.039.327.116.467.192.253.347.337a1.26 1.26 0 0 0 .577.12c.285 0 .536-.06.754-.18s.39-.268.517-.443.201-.343.211-.507l.397.447c-.024.141-.087.297-.191.467s-.243.335-.417.493a2.23 2.23 0 0 1-.613.386c-.234.101-.499.151-.793.151-.369 0-.692-.072-.97-.216s-.489-.336-.643-.578-.226-.517-.226-.818c0-.292.057-.548.171-.769s.278-.41.492-.557.472-.265.774-.342.638-.116 1.009-.116h1.08zm4.366-2.139v5.435h-.935v-5.435h.935zm1.823 0v.753h-4.546v-.753h4.546zm2.768 5.535c-.379 0-.722-.064-1.03-.191a2.33 2.33 0 0 1-.789-.547c-.217-.235-.385-.513-.502-.834s-.176-.673-.176-1.055v-.211c0-.442.065-.836.196-1.18.131-.349.308-.643.533-.885s.478-.423.763-.547a2.19 2.19 0 0 1 .884-.186c.389 0 .724.067 1.005.201a1.83 1.83 0 0 1 .698.563c.181.237.315.519.402.844s.13.673.13 1.054v.417h-4.058v-.758h3.129v-.071a2.31 2.31 0 0 0-.15-.703 1.27 1.27 0 0 0-.402-.562c-.185-.148-.436-.221-.754-.221-.211 0-.405.045-.583.135a1.25 1.25 0 0 0-.457.392c-.127.174-.226.387-.296.638s-.105.541-.105.869v.211a2.46 2.46 0 0 0 .105.728c.074.225.179.422.316.593s.31.305.508.402a1.55 1.55 0 0 0 .683.146c.328 0 .606-.067.834-.201a2.06 2.06 0 0 0 .598-.538l.562.447c-.117.178-.266.347-.447.508s-.403.291-.668.391-.571.151-.929.151zm6.831-5.535v.768h-2.627v-.768h2.627zm.819 0v5.435h-.929v-5.435h.929zm-3.672 0h.934l-.14 2.622-.116 1.075c-.05.308-.12.572-.211.793a1.66 1.66 0 0 1-.331.543 1.22 1.22 0 0 1-.472.306c-.185.064-.397.096-.638.096h-.292v-.819l.201-.015a.86.86 0 0 0 .367-.101.71.71 0 0 0 .261-.251c.07-.114.127-.259.171-.437a3.93 3.93 0 0 0 .105-.633l.061-.854.1-2.325zm6.269 2.843h1.005l-1.573 2.592h-1.004l1.572-2.592zm.779-2.843h2.27v5.435h-.929v-4.682h-1.341c-.265 0-.481.045-.648.136s-.29.201-.367.341a.9.9 0 0 0-.116.437c0 .148.036.29.106.427a.83.83 0 0 0 .331.332c.151.087.345.13.583.13h1.703v.764h-1.703c-.311 0-.588-.042-.829-.126s-.445-.199-.613-.346a1.52 1.52 0 0 1-.381-.528c-.087-.204-.131-.425-.131-.663s.045-.457.136-.658.227-.377.402-.527.393-.266.648-.347.55-.125.879-.125z" fill="#3b566e"/><rect x="203.196" y="99.444" width="25.076" height="12.859" rx="6.43" class="C"/><circle cx="221.842" cy="105.874" r="4.501" fill="#fff"/><path d="M35 127.735h212.18" stroke="#dee7f3" stroke-width="1.286" stroke-dasharray="1.93 1.93"/></g><g filter="url(#B)"><rect x="122.997" y="12" width="36.006" height="36.006" rx="18.003" fill="#09bc8a"/><path d="M135.213 30.698l4.863 3.806" stroke="#fff" class="E F G H"/><path d="M140.076 34.504l6.711-9.644" stroke="#fff" class="E F G H"/></g><path d="M58.847 128.306c9.722 23.109 10.811 34.84 21.824 34.758 21.173-.166 28.844-21.858 47.987-27.978 9.333-2.988 13.378-3.259 12.667.038-.708 3.254-11.128 7.56-11.128 7.56s11.435 8.57 3.532 16.71c-3.094 3.193-6.497 4.551-6.497 4.551s-35.984 40.41-62.199 27.059-27.003-44.551-27.003-44.551l20.817-18.147z" class="D"/><g class="C"><path d="M70.107 156.661c-3.133-5.79-5.873-14.947-11.114-27.415l-20.858 18.179s.302 11.473 6.373 23.508c8.434-4.925 17.072-9.515 25.599-14.272zm50.242-7.997c2.402-.898 6.807-2.614 6.211-5.704-.619-3.213-4.429-1.945-6.371-1.445-.724.19-.289 1.3.426 1.102l1.791-.507c3.568-.492 2.74 2.836 1.216 3.568-.927 1.031-2.89 1.556-4.137 2.033-.318.117-.409.412-.331.731.84 3.399-1.622 5.718-3.852 7.667-.542.478.143 1.458.685.98 2.594-2.251 4.985-4.748 4.362-8.425zm5.32 5.65c-1.233-1.087-2.138-1.837-1.216-3.74.266-.56.869-1.074 1.27-1.534 1.096-1.252 2.265-2.442 3.489-3.585.53-.501-.393-1.267-.915-.775-1.761 1.653-4.577 3.837-5.36 6.228-.568 1.742.752 3.155 2.022 4.273.562.505 1.289-.363.71-.867zm2.592 5.599c-4.546-2.745 2.358-7.338 4.355-9.122.541-.478-.153-1.464-.684-.979-2.627 2.349-10.129 7.505-4.122 11.144.65.401 1.101-.642.451-1.043z"/></g><path d="M22.943 93.889c-.369.669-.565 1.361-.75 2.018-3.817 1.049-7.057 4.22-7.899 8.36-.265 1.292-.277 2.537-.127 3.736-2.387 1.373-4.555 3.84-5.57 5.916-1.926 3.967-.196 9.087 3.114 11.912-.196 2.56.38 5.189 1.914 7.173a8.12 8.12 0 0 0 2.214 1.983c1.061 1.684 2.802 2.929 5.339 3.39 6.169 1.131 12.881-3.54 16.917-7.772a25.26 25.26 0 0 0 5.351-8.568c1.119-.288 2.11-.968 2.941-1.891 5.12-3.632 8.683-11.543 2.756-15.383-.519-1.245-1.315-2.26-2.445-2.86-1.361-1.199-2.629-1.614-3.794-1.43 1.453-.415 2.802-1.303 3.932-2.456.75-2.525 1.326-5.097 1.684-7.668.265-1.914 1.222-3.183 2.491-3.875-5.766-5.189-20.272-6.988-28.068 7.415z" class="B"/><g class="D"><path d="M40.736 106.262c-3.632 5.097-8.349 5.305-11.728 2.629-3.125-2.49-3.978-8.118.461-10.297 1.488-.738 3.425-1.165 5.835-1.13 0 0 1.718.704 3.356 1.914 2.122 1.568 4.117 4.013 2.076 6.884z"/><path d="M45.176 110.46c11.693-1.038 15.222-10.067 11.912-19.039-1.476-3.978-3.425-8.153-6.827-10.816-3.114-2.445-6.919-3.771-10.817-3.091-8.164 1.418-13.492 9.952-11.912 19.039 0 .034.012.058.012.092 1.637 9.041 9.698 14.507 17.632 13.815z"/></g><g class="B"><path d="M45.371 94.65c.637 0 1.153-.516 1.153-1.153s-.516-1.153-1.153-1.153-1.153.516-1.153 1.153.516 1.153 1.153 1.153zm9.087 2.249a26.84 26.84 0 0 0-3.344-6.919c-.415-.611-1.395 0-.98.611a25.53 25.53 0 0 1 3.217 6.654c.231.703 1.326.357 1.107-.346z"/></g><path d="M36.608 102.884c-2.099-1.719-5.12-1.846-7.3-.173-.588.449.023 1.429.611.98 1.753-1.338 4.174-1.373 5.893.046.577.461 1.361-.381.796-.853z" class="C"/><path d="M34.105 97.487c2.641 1.499 2.076-3.056 6.146-8.972 1.799-2.618 12.788-3.31 13.63-11.359.334-8.268-12.281-4.313-14.437.358-8.164 1.418-16.64 10.494-11.393 21.956.011.035 4.716-2.007 6.054-1.983z" class="B"/><path d="M63.868 199.229c-22.982 4.232-64.888 1.142-64.888 1.142s.069-25.981 6.492-50.67c5.812-22.336 17.586-30.927 29.671-31.619 4.705-.288 9.456.634 13.919 2.41 2.825 1.119 5.155 2.572 7.057 4.278 11.209 9.975 7.945 28.541 4.394 38.389-4.163 11.531 3.356 36.07 3.356 36.07z" class="C"/><path d="M56.119 124.77c-4.958 3.921-13.111 5.731-20.976-6.688 4.705-.288 9.456.634 13.919 2.41 2.825 1.119 5.155 2.572 7.057 4.278z" class="D"/><path d="M60.305 160.622a1.48 1.48 0 0 1-.219-.023c-.461-.116-.738-.588-.623-1.061.035-.127 3.39-13.319-1.142-21.576a.86.86 0 0 1 .346-1.176c.415-.23.946-.081 1.176.346 4.866 8.868 1.441 22.279 1.291 22.844a.86.86 0 0 1-.83.646z" class="B"/><path d="M21.467 122.868C7.11 131.782-25.386 168.44 6.902 217.115l22.394-13.065s-6.723-17.321-6.723-34.053c0-13.227 11.555-28.979 11.555-28.979l-12.662-18.15z" class="D"/><path d="M24.326 159.999c3.24-10.067 9.79-19.004 9.79-19.004l-12.65-18.139c-5.685 3.529-14.207 11.416-20.434 22.66 7.841 4.716 15.533 9.651 23.294 14.483z" class="C"/><path d="M25.572 157.439c-.127 0-.254-.023-.369-.081a.88.88 0 0 1-.415-1.153l3.575-7.553c.208-.438.715-.611 1.153-.415a.88.88 0 0 1 .415 1.153l-3.575 7.553a.87.87 0 0 1-.784.496z" class="B"/></g><defs><filter id="A" x="15" y="14.003" width="252.18" height="138.374" filterUnits="userSpaceOnUse" class="I"><feFlood flood-opacity="0" result="A"/><feColorMatrix in="SourceAlpha" values="0 0 0 0 0 0 0 0 0 0 0 0 0 0 0 0 0 0 127 0"/><feOffset dy="4"/><feGaussianBlur stdDeviation="10"/><feColorMatrix values="0 0 0 0 0.152222 0 0 0 0 0.379468 0 0 0 0 0.570833 0 0 0 0.15 0"/><feBlend in2="A"/><feBlend in="SourceGraphic"/></filter><filter id="B" x="102.997" y="1" width="76.006" height="76.006" filterUnits="userSpaceOnUse" class="I"><feFlood flood-opacity="0" result="A"/><feColorMatrix in="SourceAlpha" values="0 0 0 0 0 0 0 0 0 0 0 0 0 0 0 0 0 0 127 0"/><feOffset dy="9"/><feGaussianBlur stdDeviation="10"/><feColorMatrix values="0 0 0 0 0.0352941 0 0 0 0 0.737255 0 0 0 0 0.541176 0 0 0 0.3 0"/><feBlend in2="A"/><feBlend in="SourceGraphic"/></filter><clipPath id="C"><path fill="#fff" transform="translate(0 .811)" d="M0 0h256v197.189H0z"/></clipPath></defs></svg>