<svg xmlns="http://www.w3.org/2000/svg" width="142" height="146" fill="none"><style><![CDATA[.B{stroke-linecap:round}.C{stroke:#7c9cac}.D{stroke-width:.989}.E{fill:#e84f35}.F{fill:#172a3a}.G{color-interpolation-filters:sRGB}.H{flood-opacity:0}.I{stroke-width:1.834}]]></style><g filter="url(#A)"><path d="M100.561 81.442H74.513c-.631 0-1.144-.873-1.144-1.946V47.801c0-1.073.513-1.946 1.144-1.946h26.048c.632 0 1.145.873 1.145 1.946v31.695c0 1.073-.509 1.946-1.145 1.946z" fill="#fff"/><path d="M91.821 53.008h5.608v.916h-5.608v-.916zm0 1.347h5.608v.912h-5.608v-.912zm1.388 3.573c-.452-.163-.794-.399-1.03-.708s-.354-.68-.354-1.111v-.008a1.6 1.6 0 0 1 .187-.765 2.01 2.01 0 0 1 .537-.619l1.62.171c-.338.077-.594.187-.769.33s-.265.358-.265.643v.004c0 .346.147.606.448.794s.716.281 1.254.281c.431 0 .843-.065 1.225-.195a3.26 3.26 0 0 0 1.042-.578l.708 1.034c-.26.212-.545.395-.859.537s-.647.252-1.005.326-.733.11-1.119.11c-.627-.008-1.168-.085-1.62-.244zm2.059-4.583a.34.34 0 0 0 .049-.016c.167-.053.309-.118.427-.195s.212-.171.277-.289.098-.261.098-.427v-.004c0-.33-.138-.59-.415-.769s-.672-.273-1.18-.273c-.309 0-.623.057-.94.167s-.639.277-.944.492l-.643-1.066a4.57 4.57 0 0 1 .814-.452 5.09 5.09 0 0 1 .855-.277c.289-.061.578-.098.867-.098.615 0 1.14.086 1.575.252s.769.411.997.733.342.708.342 1.16v.004c0 .452-.138.834-.415 1.156l-1.795-.081c.004-.008.02-.012.033-.016z" class="E"/><path d="M77.981 65.955H92.15" class="B C D"/><path d="M77.981 70.239H92.15" class="B C D"/><path d="M77.981 74.522H92.15" class="B C D"/><path d="M98.081 65.955h-2.306" class="B C D"/><path d="M98.081 70.239h-2.306" class="B C D"/><path d="M98.081 74.522h-2.306" class="B C D"/></g><g fill="#b2c4d3"><path d="M66.845 117.067c5.594 48.286 1.091 107.797 1.091 107.797l-32.842 2.091s3.329-92.169.202-108.365c-3.137-16.206 31.548-1.523 31.548-1.523z"/><path d="M44.834 117.067c5.594 48.286 1.091 107.797 1.091 107.797l-32.842 2.091s3.329-92.169.202-108.365c-3.136-16.206 31.549-1.523 31.549-1.523z"/></g><path d="M56.818 123.81l-9.171 6.152v42.454" stroke="#000" class="B I"/><path d="M37.838 32.099l-1.982 7.505 17.26 1.972.816-8.043-16.094-1.434z" class="E"/><path d="M78.981 87.584c-2.568-12.106-15.59-31.182-21.246-39.436-6.603 9.171-3.822 47.384-2.14 65.573 8.865-3.668 25.954-14.031 23.386-26.137z" fill="#df3d21"/><path d="M50.97 40.108c-9.731-7.511-29.742 5.521-32.952 16.636s-7.043 64.913-7.043 64.913l58.998-.826s-3.431-50.673-7.558-64.087c-3.669-8.596-8.198-14.133-11.444-16.636z" class="E"/><g class="F"><path d="M73.256 88.091h-4.723c-2.953 0-5.365-2.403-5.365-5.365v-5.814c0-2.953 2.403-5.365 5.365-5.365h4.723c.376 0 .688.312.688.688s-.312.688-.688.688h-4.723c-2.201 0-3.99 1.788-3.99 3.989v5.814c0 2.201 1.788 3.989 3.99 3.989h4.723c.376 0 .688.312.688.688s-.303.688-.688.688z"/><path d="M77.859 89.99c-4.145 0-7.511-3.366-7.511-7.511V70.731H85.37v11.748c-.009 4.145-3.366 7.511-7.511 7.511z"/></g><path d="M79.171 66.484c-.339 0-.633-.248-.679-.587l-1.321-9.061c-.055-.376.202-.724.578-.779s.724.202.779.578l1.321 9.061c.055.376-.202.724-.578.78-.037.009-.064.009-.101.009zm-4.521.578c-.248 0-.486-.138-.605-.367l-2.064-3.898a.69.69 0 0 1 .284-.926.68.68 0 0 1 .926.284l2.064 3.898a.69.69 0 0 1-.284.926.67.67 0 0 1-.321.083z" fill="#b2c4d3"/><g fill="#f7a964"><path d="M41.725 31.996c-3.448 3.592-8.121 2.375-10.463-.117-2.175-2.322-1.254-6.014 2.491-7.221 1.256-.405 2.831-.527 4.721-.217a13.98 13.98 0 0 0 2.415 1.896c1.481 1.491 2.774 3.64.836 5.659z"/><path d="M59.451 23.611c.196 7.34-2.251 14.151-11.566 13.603-6.345-.369-12.075-5.635-12.268-12.984s4.985-13.435 11.566-13.603 12.08 5.648 12.268 12.984z"/></g><path d="M49.644 24.746c.467.197 1.005-.021 1.202-.488a.92.92 0 0 0-.488-1.202.92.92 0 0 0-1.202.488.92.92 0 0 0 .488 1.202zm7.109 2.873a21.4 21.4 0 0 0-1.826-5.838c-.252-.534-1.096-.164-.843.371a20.48 20.48 0 0 1 1.762 5.612c.099.59 1.007.445.907-.145zm-3.3-12.414c-2.718 1.202-13.87 1.939-12.323 7.968.398 1.532 1.152 2.388-.248 3.181-1.519.603-2.415-1.896-2.415-1.896-1.89-.31-3.461-.197-4.721.217-2.847-5.801-.899-10.155 1.792-10.871 0 0 19.034-12.003 22.627-5.141 3.114 5.924-4.713 6.542-4.713 6.542z" class="F"/><path d="M38.865 28.867c-1.455-1.6-3.818-2.04-5.727-.984-.508.283-.146 1.123.371.843 1.536-.855 3.447-.595 4.637.713.394.435 1.113-.137.719-.572z" class="E"/><path d="M68.78 81.387s2.293-5.402-.44-5.732c-7.86-.935-16.691 7.658-24.643 11.097.009 4.677.385 9.373.587 14.032.119 2.797.156 5.604.202 8.401 6.732-2.027 12.207-5.484 14.105-8.648 1.688-2.807 4.668-3.064 6.071-4.696 2.751 1.146 6.649-5.961 3.558-8.483.009-.009 3.531-2.761.559-5.97z" fill="#f7a964"/><path d="M48.668 93.842l-2.1-8.511c-3.98 2.183-7.805 3.549-11.253 2.366-9.63-3.32-13.188-20.864-2.063-29.577s12.124-20.525 12.124-20.525c-17.518.688-34.42 11.235-42.206 32.558-8.832 24.184 2.65 36.528 11.767 40.802 10.437 4.888 29.65-.624 37.592-5.191-1.348-3.953-2.715-7.896-3.861-11.922zM68.33 80.553c-3.375-1.843-6.695.174-9.455 2.21-.468.349-.009 1.146.459.789 2.44-1.798 5.466-3.879 8.529-2.21.523.284.99-.504.468-.789zm-.944 5.805c-2.623-.706-5.255.119-6.933 2.274-.358.459.284 1.11.651.651 1.477-1.908 3.705-2.669 6.044-2.045.569.156.807-.725.238-.88z" class="E"/><path d="M65.065 92.925l-1.073 1.605c-.33.495.468.954.789.459l1.073-1.605c.33-.495-.459-.954-.789-.459z" class="F"/><path d="M38.24 88.559c-2.137 0-4.732-.44-7.584-1.834-3.063-1.495-5.108-3.751-6.062-6.695-1.495-4.595-.303-10.611 3.54-17.884.174-.339.596-.468.926-.284.339.174.468.596.284.926-3.613 6.833-4.806 12.647-3.448 16.811.844 2.577 2.641 4.558 5.356 5.888 6.842 3.347 12.124.66 12.17.633.339-.174.752-.046.926.294s.046.752-.294.926c-.138.083-2.375 1.22-5.814 1.22zm-10.171 24.698c-4.925 0-9.666-.459-13.326-1.651a.69.69 0 0 1-.44-.871c.119-.367.504-.56.862-.44 10.657 3.466 31.53.412 37.134-1.761.358-.138.752.036.89.394s-.037.752-.394.89c-3.953 1.541-14.71 3.439-24.725 3.439z" fill="#fff"/><g filter="url(#B)"><path d="M124.406 106.204H98.358c-.631 0-1.145-.873-1.145-1.946V72.563c0-1.073.513-1.946 1.145-1.946h26.048c.631 0 1.145.873 1.145 1.946v31.695c0 1.073-.51 1.946-1.145 1.946z" fill="#fff"/><path d="M115.666 77.77h5.608v.916h-5.608v-.916zm0 1.347h5.608v.912h-5.608v-.912zm1.387 3.573c-.451-.163-.793-.399-1.029-.708s-.354-.68-.354-1.111v-.008a1.6 1.6 0 0 1 .187-.765c.122-.228.305-.436.537-.619l1.62.171c-.338.077-.594.187-.769.33s-.265.358-.265.643v.004c0 .346.147.606.448.794s.716.281 1.253.281c.432 0 .843-.065 1.225-.195s.737-.326 1.042-.578l.708 1.034c-.26.212-.545.395-.858.537a4.69 4.69 0 0 1-1.006.326c-.358.073-.732.11-1.119.11-.627-.008-1.168-.085-1.62-.244zm2.06-4.583a.4.4 0 0 0 .049-.016c.166-.053.309-.118.427-.195s.212-.171.277-.289.097-.26.097-.427v-.004c0-.33-.138-.59-.415-.769s-.671-.273-1.18-.273c-.309 0-.623.057-.94.167s-.639.277-.944.493l-.644-1.066c.261-.183.534-.33.814-.452a5.12 5.12 0 0 1 .855-.277c.289-.061.578-.098.867-.098.615 0 1.14.086 1.575.252s.769.411.997.733.342.708.342 1.16v.004c0 .452-.138.834-.415 1.156l-1.795-.081c.004-.008.02-.012.033-.016z" class="E"/><path d="M101.826 90.717h14.169" class="B C D"/><path d="M101.826 95.001h14.169" class="B C D"/><path d="M101.826 99.284h14.169" class="B C D"/><path d="M121.926 90.717H119.62" class="B C D"/><path d="M121.926 95.001h-2.306" class="B C D"/><path d="M121.926 99.284h-2.306" class="B C D"/></g><g filter="url(#C)"><path d="M130.826 57.597h-26.048c-.632 0-1.145-.873-1.145-1.946V23.957c0-1.073.513-1.946 1.145-1.946h26.048c.631 0 1.144.872 1.144 1.946v31.695c0 1.073-.509 1.946-1.144 1.946z" fill="#fff"/><path d="M122.086 29.163h5.608v.916h-5.608v-.916zm0 1.347h5.608v.912h-5.608v-.912zm1.388 3.573c-.452-.163-.794-.399-1.03-.708s-.354-.68-.354-1.111v-.008a1.6 1.6 0 0 1 .187-.765c.122-.228.305-.435.537-.619l1.62.171c-.338.077-.594.187-.769.33s-.265.358-.265.643v.004c0 .346.147.606.448.794s.716.281 1.254.281c.431 0 .842-.065 1.225-.195a3.28 3.28 0 0 0 1.042-.578l.708 1.034a3.98 3.98 0 0 1-.859.537c-.313.142-.647.252-1.005.326a5.58 5.58 0 0 1-1.119.11c-.627-.008-1.169-.086-1.62-.244zm2.059-4.583c.016-.004.029-.008.049-.016.167-.053.309-.118.427-.195s.212-.171.277-.289.098-.26.098-.427v-.004c0-.33-.139-.59-.415-.769s-.672-.273-1.181-.273c-.309 0-.622.057-.94.167a3.75 3.75 0 0 0-.944.492l-.643-1.066c.26-.183.533-.33.814-.452a5.12 5.12 0 0 1 .855-.277c.289-.061.577-.098.866-.098.615 0 1.14.085 1.575.252s.77.411.998.733.342.708.342 1.16v.004c0 .452-.139.834-.416 1.156l-1.794-.081c.004-.008.02-.012.032-.016z" class="E"/><path d="M108.246 42.11h14.169" class="B C D"/><path d="M108.246 46.394h14.169" class="B C D"/><path d="M108.246 50.677h14.169" class="B C D"/><path d="M128.346 42.11h-2.306" class="B C D"/><path d="M128.346 46.394h-2.306" class="B C D"/><path d="M128.346 50.677h-2.306" class="B C D"/></g><g stroke="#e84f35" class="B"><path d="M85.291 10.088c7.091 0 12.84 5.748 12.84 12.84s-5.748 12.839-12.84 12.839-12.84-5.748-12.84-12.839c0-3.023 1.044-5.801 2.792-7.994" stroke-width="2.751"/><path d="M80.688 23.412h5.33v-8.237" class="I"/></g><defs><filter id="A" x="63.369" y="38.856" width="48.337" height="55.586" filterUnits="userSpaceOnUse" class="G"><feFlood result="A" class="H"/><feColorMatrix in="SourceAlpha" values="0 0 0 0 0 0 0 0 0 0 0 0 0 0 0 0 0 0 127 0"/><feOffset dy="3"/><feGaussianBlur stdDeviation="5"/><feColorMatrix values="0 0 0 0 0.0901961 0 0 0 0 0.164706 0 0 0 0 0.227451 0 0 0 0.1 0"/><feBlend in2="A"/><feBlend in="SourceGraphic"/></filter><filter id="B" x="87.213" y="63.617" width="48.337" height="55.586" filterUnits="userSpaceOnUse" class="G"><feFlood result="A" class="H"/><feColorMatrix in="SourceAlpha" values="0 0 0 0 0 0 0 0 0 0 0 0 0 0 0 0 0 0 127 0"/><feOffset dy="3"/><feGaussianBlur stdDeviation="5"/><feColorMatrix values="0 0 0 0 0.0901961 0 0 0 0 0.164706 0 0 0 0 0.227451 0 0 0 0.1 0"/><feBlend in2="A"/><feBlend in="SourceGraphic"/></filter><filter id="C" x="93.633" y="15.011" width="48.337" height="55.586" filterUnits="userSpaceOnUse" class="G"><feFlood result="A" class="H"/><feColorMatrix in="SourceAlpha" values="0 0 0 0 0 0 0 0 0 0 0 0 0 0 0 0 0 0 127 0"/><feOffset dy="3"/><feGaussianBlur stdDeviation="5"/><feColorMatrix values="0 0 0 0 0.0901961 0 0 0 0 0.164706 0 0 0 0 0.227451 0 0 0 0.1 0"/><feBlend in2="A"/><feBlend in="SourceGraphic"/></filter></defs></svg>