<svg xmlns="http://www.w3.org/2000/svg" width="126" height="77" fill="none"><path d="M86.859 11.255h-48.4c-15.125 0-27.5 12.353-27.5 27.451s12.375 27.451 27.5 27.451h48.4c15.125 0 27.5-12.353 27.5-27.451s-12.375-27.451-27.5-27.451z" fill="#fff"/><path d="M86.859 13.478c3.396 0 6.696.672 9.804 1.99 3.011 1.277 5.707 3.102 8.044 5.422 2.324 2.32 4.153 5.023 5.431 8.029 1.32 3.102 1.994 6.396 1.994 9.786s-.674 6.684-1.994 9.786a25.42 25.42 0 0 1-5.431 8.029 25.34 25.34 0 0 1-8.044 5.422 24.98 24.98 0 0 1-9.804 1.99h-48.4a25 25 0 0 1-9.804-1.99c-3.011-1.276-5.706-3.102-8.044-5.422a25.29 25.29 0 0 1-5.431-8.029c-1.32-3.102-1.994-6.396-1.994-9.786s.674-6.684 1.994-9.786c1.279-3.006 3.107-5.696 5.431-8.029a25.34 25.34 0 0 1 8.044-5.422c3.108-1.318 6.408-1.99 9.804-1.99h48.4zm0-2.224h-48.4c-15.125 0-27.5 12.353-27.5 27.451s12.375 27.451 27.5 27.451h48.4c15.125 0 27.5-12.353 27.5-27.451s-12.375-27.451-27.5-27.451zM60.267 48.958h-2.64V28.453h6.999c1.774 0 3.286.59 4.524 1.771 1.265 1.18 1.897 2.622 1.897 4.323a5.66 5.66 0 0 1-1.897 4.351c-1.224 1.167-2.736 1.743-4.524 1.743h-4.359v8.318zm0-17.98v7.151h4.414c1.045 0 1.925-.357 2.612-1.057.701-.7 1.059-1.551 1.059-2.512 0-.947-.358-1.784-1.059-2.484-.687-.727-1.554-1.084-2.612-1.084h-4.414v-.014zm17.682 3.487c1.953 0 3.493.522 4.62 1.565s1.691 2.471 1.691 4.282v8.647h-2.516V47.01h-.11c-1.086 1.606-2.544 2.402-4.359 2.402-1.554 0-2.846-.453-3.891-1.373s-1.567-2.059-1.567-3.431c0-1.455.55-2.608 1.65-3.459 1.1-.865 2.571-1.29 4.4-1.29 1.567 0 2.86.288 3.864.865v-.604c0-.92-.358-1.688-1.086-2.333a3.73 3.73 0 0 0-2.558-.961c-1.471 0-2.64.618-3.492 1.867l-2.324-1.455c1.279-1.853 3.176-2.773 5.679-2.773zm-3.41 10.184c0 .686.289 1.263.88 1.716.578.453 1.265.686 2.049.686 1.114 0 2.104-.412 2.97-1.235s1.306-1.784 1.306-2.896c-.825-.645-1.966-.975-3.437-.975-1.072 0-1.966.261-2.681.769-.729.535-1.086 1.18-1.086 1.935zm24.076-9.731l-8.8 20.204h-2.722l3.272-7.069-5.802-13.135h2.874l4.18 10.074h.055l4.07-10.074h2.874z" fill="#3c4043"/><path d="M49.767 38.98c0-.859-.077-1.681-.22-2.472H38.481v4.529l6.373.001c-.258 1.507-1.09 2.792-2.365 3.648v2.939h3.794c2.215-2.047 3.484-5.072 3.484-8.646z" fill="#4285f4"/><path d="M42.49 44.687c-1.056.711-2.416 1.127-4.007 1.127-3.073 0-5.68-2.067-6.614-4.853h-3.913v3.031c1.939 3.84 5.924 6.476 10.527 6.476 3.182 0 5.855-1.045 7.8-2.843l-3.794-2.937z" fill="#34a853"/><path d="M31.501 38.713c0-.782.131-1.539.369-2.25v-3.031h-3.913a11.68 11.68 0 0 0-1.253 5.28 11.7 11.7 0 0 0 1.253 5.28l3.913-3.031a7.08 7.08 0 0 1-.369-2.25z" fill="#fabb05"/><path d="M38.483 31.61c1.737 0 3.292.597 4.52 1.764l3.362-3.353c-2.042-1.898-4.704-3.064-7.882-3.064-4.602 0-8.588 2.635-10.527 6.476l3.913 3.031c.934-2.786 3.541-4.853 6.614-4.853z" fill="#e94235"/></svg>