<svg xmlns="http://www.w3.org/2000/svg" width="120" height="120" fill="none"><style><![CDATA[.B{stroke-miterlimit:10}.C{stroke-linecap:round}.D{stroke:#fff}.E{stroke-width:1.783}.F{fill:#e84f35}.G{stroke-width:.446}.H{stroke-linejoin:round}]]></style><g clip-path="url(#B)"><circle cx="60" cy="60" r="60" fill="#f0f5fa"/><g stroke="#ff7062" class="B G"><path d="M22.533 28.364a5.46 5.46 0 0 0 5.458-5.457 5.46 5.46 0 0 0-5.457-5.457 5.46 5.46 0 0 0-5.457 5.458 5.46 5.46 0 0 0 5.458 5.458z"/><path d="M22.533 28.712a5.81 5.81 0 0 1-5.806-5.806 5.81 5.81 0 0 1 5.806-5.806 5.81 5.81 0 0 1 5.806 5.806c0 3.204-2.608 5.806-5.806 5.806zm0-10.921c-2.82 0-5.109 2.295-5.109 5.109a5.12 5.12 0 0 0 5.109 5.109 5.12 5.12 0 0 0 5.109-5.109c0-2.814-2.289-5.109-5.109-5.109z"/></g><g fill="#2a2b3e"><path d="M108.49 36.931a.35.35 0 0 1-.348-.348l.024-3.859c0-.189.159-.342.348-.342s.348.159.342.348l-.024 3.859c.006.189-.147.342-.342.342z"/><path d="M110.431 35.014l-3.864-.024c-.189 0-.348-.159-.342-.348 0-.189.159-.342.348-.342l3.858.024c.189 0 .349.159.343.348.006.189-.148.342-.343.342z"/></g><g stroke="#dee7f3" class="B G"><path d="M112.13 46.76l-5.146 2.478 2.478 5.146 5.146-2.478-2.478-5.146z"/><path d="M109.287 54.844l-2.779-5.77 5.77-2.779 2.779 5.77-5.77 2.779zm-1.853-5.446l2.177 4.519 4.52-2.177-2.177-4.519-4.52 2.177zM95.233 71.34a3.53 3.53 0 0 0 3.528-3.528 3.53 3.53 0 0 0-3.528-3.528 3.53 3.53 0 0 0-3.528 3.528 3.53 3.53 0 0 0 3.528 3.528z"/><path d="M95.233 71.694c-2.136 0-3.876-1.74-3.876-3.876s1.741-3.876 3.876-3.876 3.876 1.741 3.876 3.876-1.74 3.876-3.876 3.876zm0-7.062c-1.752 0-3.18 1.428-3.18 3.18s1.428 3.18 3.18 3.18 3.18-1.428 3.18-3.18-1.428-3.18-3.18-3.18zm0-9.086c-.094 0-.195-.041-.26-.118l-2.218-2.549c-.124-.148-.112-.366.035-.49s.366-.112.49.035l2.218 2.549c.124.148.112.366-.035.49-.071.053-.153.083-.23.083z"/></g><g fill="#dee7f3"><path d="M25.737 52.377l6.944-5.003.926 8.154-7.871-3.151z"/><path d="M34.015 56.065l-8.998-3.605 7.935-5.717 1.062 9.322zm-7.564-3.776l6.744 2.702-.791-6.986-5.953 4.283z"/></g><path d="M48.67 57.463c-.136 0-.266-.077-.319-.212l-1.622-3.823c-.077-.177.006-.383.183-.454.177-.077.383.006.454.183l1.622 3.823c.077.177-.006.384-.183.454-.047.018-.094.029-.136.029z" class="F"/><path d="M35.478 83.146a.35.35 0 0 1-.348-.348v-2.419a.35.35 0 0 1 .348-.348.35.35 0 0 1 .348.348v2.419c-.006.189-.159.348-.348.348z" fill="#030047"/><g class="F"><path d="M26.457 72.443a.71.71 0 0 1-.714-.72l.047-7.953a.71.71 0 1 1 1.428.012l-.047 7.953a.71.71 0 0 1-.714.708z"/><path d="M30.457 68.496l-7.953-.047a.71.71 0 0 1 .006-1.428l7.959.047a.71.71 0 0 1 .708.72c-.006.389-.33.708-.72.708z"/></g><g filter="url(#A)"><path d="M91.132 15.768H40.693c-2.637 0-4.785 2.142-4.785 4.773v28.226a4.78 4.78 0 0 0 4.785 4.773h50.439c2.643 0 4.785-2.142 4.785-4.773V20.541a4.79 4.79 0 0 0-4.785-4.773z" class="F"/><path d="M43.903 38.506h6.885" class="B C D E"/><path d="M55.827 38.506h6.885" class="B C D E"/><path d="M67.751 38.506h6.885" class="B C D E"/><path d="M79.675 38.506h6.891" class="B C D E"/><path opacity=".81" d="M47.526 27.379c.909.006 1.658.661 1.788 1.505l3.894.03.006-2.236c.006-1.032-.855-1.87-1.917-1.876l-7.871-.053c-1.062-.006-1.929.826-1.929 1.853v.737l6.03.041z" fill="#ff6a51"/><path opacity=".81" d="M49.313 29.432c-.142.844-.891 1.493-1.799 1.487l-6.03-.035v-.543l6.036.035c.696.006 1.268-.543 1.268-1.221 0-.673-.572-1.239-1.263-1.233l-6.036-.035-.012 3.481c-.006 1.033.855 1.87 1.918 1.876l7.871.053c1.062.006 1.929-.826 1.929-1.853l.006-1.982-3.888-.03z" fill="#ff6a51"/></g><g stroke="#172a3a" stroke-width="1.337" class="B H"><g class="C"><path d="M50.948 80.19c.732-7.528 3.829-29.547 5.481-36.338s9.764-5.428 8.478 2.283-3.575 30.361-3.575 30.361 2.106-14.349 3.575-19.741c1.392-5.104 8.974-4.702 8.053 1.54s-2.49 18.933-2.49 18.933l2.384-17.783c.513-2.69 7.245-3.558 6.691 1.971-.678 6.779-2.124 17.098-2.124 17.098l1.971-15.741c.289-2.862 7.098-2.643 6.915 2.679s-5.505 39.836-5.139 40.934m-31.807-.384s-5.817-9.717-4.85-21.759c.69-8.543 3.564-16.744 4.673-18.697 1.398-2.46 3.729-2.46 3.729-2.46"/></g><path d="M60.854 46.36c1.14 0 2.065-.924 2.065-2.065s-.925-2.065-2.065-2.065-2.065.925-2.065 2.065.924 2.065 2.065 2.065z"/></g></g><defs><filter id="A" x="26.992" y="10.864" width="77.841" height="55.604" filterUnits="userSpaceOnUse" color-interpolation-filters="sRGB"><feFlood flood-opacity="0" result="A"/><feColorMatrix in="SourceAlpha" values="0 0 0 0 0 0 0 0 0 0 0 0 0 0 0 0 0 0 127 0"/><feOffset dy="4.0123"/><feGaussianBlur stdDeviation="4.458"/><feColorMatrix values="0 0 0 0 0.933333 0 0 0 0 0.0855556 0 0 0 0 0.0855556 0 0 0 0.1 0"/><feBlend in2="A"/><feBlend in="SourceGraphic"/></filter><clipPath id="B"><path fill="#fff" d="M0 0h120v120H0z"/></clipPath></defs></svg>