<svg xmlns="http://www.w3.org/2000/svg" xmlns:xlink="http://www.w3.org/1999/xlink" width="274" height="249" fill="none"><style><![CDATA[.B{fill:#e84f35}.C{fill:#172a3a}.D{fill:#fff}.E{stroke-miterlimit:10}.F{fill:#ffad64}.G{fill:#09bc8a}.H{stroke:#0c6858}.I{stroke-width:1.873}.J{fill:#ffddd9}.K{fill:#0f1d26}.L{fill:#7699ab}.M{stroke-linecap:round}]]></style><path d="M124.5 249c68.759 0 124.5-55.741 124.5-124.5S193.259 0 124.5 0 0 55.741 0 124.5 55.741 249 124.5 249z" class="J"/><use xlink:href="#B" class="B"/><path d="M210.056 110.882V225.673" stroke="#172a3a" stroke-width="38.995" class="E"/><path d="M255.398 149.795l-18.187-12.973 14.66 3.13-14.76-41.205L222.1 88.165h11.222L206.398 13l-14.356 48.48 12.799-2.165-15.221 10.337-12.207 41.231h13.911l-16.033 7.17-10.981 37.085 8.135 3.622-12.606 11.473-9.329 31.497H274l-18.602-51.934z" fill="#0c6858"/><g class="B"><use xlink:href="#C"/><use xlink:href="#C" x="-29.419" y="-1.977"/><use xlink:href="#B" x="19.524" y="8.093"/><path d="M239.674 133.913a4.97 4.97 0 0 0 4.969-4.969 4.97 4.97 0 0 0-4.969-4.969 4.97 4.97 0 0 0-4.968 4.969 4.97 4.97 0 0 0 4.968 4.969z"/><use xlink:href="#B" x="39.792" y="63.449"/></g><g fill="#ffcc61"><path d="M155.311 160.284c-.571 1.593-.928 3.291-1.132 4.964-.336 2.788-.231 6.001 1.557 8.318 2.185 2.836 6.21 3.182 9.471 2.458 3.878-.859 7.395-3.082 10.472-5.519 1.965-1.557 3.868-3.26 5.529-5.142-.094.01-.183.021-.278.026.635 1.075 1.452 2.065 2.286 2.993 1.934 2.16 4.224 4.015 6.777 5.394 7.253 3.926 16.541 3.422 23.627-.708 2.679-1.562 4.807-3.732 6.725-6.143 1.279-1.604 2.636-3.727 4.738-4.298 1.153-.315 2.353-.084 3.47.267 1.415.446 2.783 1.033 4.14 1.625 3.245 1.415 6.452 2.935 9.791 4.12 3.098 1.095 6.478 2.039 9.801 1.703 3.072-.309 5.624-1.96 7.123-4.67.451-.812.797-1.677 1.085-2.563.042-.131-.278-.094-.32.031-1.074 3.308-3.228 6.086-6.766 6.825-3.286.692-6.782-.199-9.901-1.242-3.37-1.122-6.599-2.626-9.843-4.063-1.337-.592-2.678-1.179-4.052-1.672-1.064-.382-2.17-.733-3.312-.723-2.023.016-3.501 1.284-4.743 2.752-1.751 2.065-3.302 4.256-5.399 6.002-3.25 2.704-7.317 4.235-11.457 4.906-4.172.676-8.465.288-12.38-1.337-4.44-1.845-8.308-5.131-10.96-9.131-.047-.068-.089-.136-.131-.209-.052-.09-.23-.027-.278.026-1.268 1.436-2.688 2.757-4.14 3.999-2.914 2.495-6.19 4.78-9.843 6.033-3.365 1.153-7.805 1.421-10.483-1.368-2.002-2.086-2.285-5.226-2.055-7.972.158-1.898.556-3.916 1.19-5.677.047-.142-.267-.121-.309-.005zm99.632 4.398c.256-.163.817.251 1.252.928s.587 1.362.336 1.525c-.257.162-.818-.252-1.253-.928s-.587-1.363-.335-1.525zm-104.706 4.586c-.021-.304.619-.592 1.421-.645s1.473.147 1.493.451-.618.592-1.42.645-1.473-.152-1.494-.451zm11.243 2.815c.299.037.461.718.362 1.52s-.425 1.42-.729 1.384-.461-.718-.362-1.52c.105-.808.43-1.426.729-1.384zm10.922 1.598c.257-.162.818.252 1.253.928s.587 1.363.335 1.525-.817-.251-1.252-.927-.592-1.358-.336-1.526zm11.107-3.59c.272.136.199.828-.163 1.551s-.87 1.201-1.142 1.064-.199-.828.162-1.551.87-1.2 1.143-1.064zm8.8.22c.288.1.304.797.042 1.562s-.708 1.305-.996 1.206-.304-.797-.042-1.562c.262-.76.707-1.3.996-1.206zm6.803 7.171c.304.005.535.665.514 1.472s-.278 1.458-.582 1.452-.534-.665-.513-1.472c.015-.813.277-1.463.581-1.452zm7.464-5.782c.299-.063.676.524.844 1.316s.068 1.483-.231 1.546-.676-.524-.844-1.316-.063-1.483.231-1.546zm8.632 1.106c.257-.162.818.252 1.253.928s.587 1.363.335 1.525-.817-.251-1.252-.927c-.441-.677-.587-1.363-.336-1.526zm2.375-9.063c.256-.162.817.252 1.252.928s.587 1.363.336 1.525c-.257.163-.818-.251-1.253-.927-.44-.682-.592-1.363-.335-1.526zm9.57-.173c.304-.01.571.64.592 1.447.027.807-.199 1.468-.503 1.478s-.571-.639-.592-1.446.199-1.468.503-1.479zm10.912-.623c.294.068.388.76.21 1.546s-.566 1.368-.859 1.305c-.294-.068-.388-.76-.21-1.546s.561-1.374.859-1.305zm8.827 7.956c.298.037.466.719.367 1.52s-.42 1.421-.724 1.384c-.298-.036-.466-.718-.367-1.52s.425-1.42.724-1.384zm-77.031-37.173c.079 3.611 1.399 7.674 4.015 10.221 2.264 2.207 5.419 2.888 8.501 2.81 2.663-.069 5.163-.934 7.401-2.359 2.143-1.363 4.015-3.114 6.174-4.45 2.678-1.651 5.645-2.244 8.758-1.767 2.28.346 4.151 1.615 6.054 2.857 2.337 1.53 4.649 3.124 7.149 4.392 2.191 1.106 4.665 2.071 7.165 1.845 2.479-.225 4.444-1.714 5.77-3.768.488-.755.886-1.562 1.232-2.39-.105.026-.204.052-.309.083 1.321 1.625 3.014 3.067 4.811 4.131 2.92 1.724 6.384 2.117 9.162-.105 2.595-2.076 3.984-5.43 4.99-8.497.021-.063-.288-.026-.315.053-1.352 4.114-3.993 10.179-9.245 9.885-2.93-.162-5.577-2.06-7.637-4.015-.513-.492-1.022-1.006-1.473-1.556-.047-.058-.283.021-.309.083-1.137 2.684-3.003 5.41-6.085 5.908-2.573.419-5.215-.624-7.469-1.767-2.442-1.237-4.706-2.788-6.986-4.287-1.609-1.059-3.344-2.359-5.257-2.794-2.652-.608-5.493-.482-8.02.55-2.217.902-4.083 2.411-5.969 3.858-2.123 1.625-4.366 3.129-7.024 3.701-3.082.66-6.819.351-9.486-1.447-3.496-2.359-5.053-6.929-5.284-10.992-.005-.089-.01-.178-.01-.267.01-.058-.309-.005-.304.084zm76.879 4.141c.257-.163.818.251 1.253.927s.587 1.363.335 1.526-.817-.252-1.252-.928-.593-1.363-.336-1.525zm-79.767 1.252c-.063-.298.524-.671 1.315-.838s1.484-.063 1.547.236-.525.671-1.316.838-1.483.058-1.546-.236zm8.57 1.19c.267.142.183.834-.189 1.552s-.891 1.184-1.164 1.043c-.267-.142-.183-.834.189-1.552s.891-1.179 1.164-1.043zm7.709 7.071c.299-.031.619.593.708 1.395s-.084 1.478-.383 1.515c-.299.031-.618-.593-.707-1.395-.095-.807.078-1.483.382-1.515zm5.509-7.018c.257-.163.818.251 1.253.927s.587 1.363.335 1.526-.818-.252-1.253-.928c-.44-.682-.587-1.363-.335-1.525zm8.978-1.022c.257-.163.818.251 1.258.927s.587 1.363.336 1.526c-.257.162-.818-.252-1.253-.928-.446-.676-.592-1.358-.341-1.525zm10.477-4.12c.294.083.351.781.126 1.556s-.634 1.342-.928 1.258-.351-.781-.125-1.556c.22-.776.634-1.342.927-1.258zm3.79 7.291c.262.146.157.838-.241 1.541s-.933 1.153-1.195 1.006-.158-.839.241-1.541c.398-.708.933-1.158 1.195-1.006zm7.857-.121c.288.095.319.792.073 1.562-.251.771-.686 1.316-.975 1.222s-.319-.792-.073-1.562.686-1.311.975-1.222zm9.533 4.036c.257-.162.818.252 1.253.928s.587 1.363.336 1.525c-.257.163-.818-.251-1.253-.927s-.587-1.358-.336-1.526zm6.206-7.05c.278.126.231.823-.104 1.557s-.829 1.232-1.101 1.106c-.278-.126-.231-.823.105-1.557.33-.734.823-1.232 1.1-1.106zm7.286 7.779c.288-.1.733.44.996 1.2s.246 1.463-.042 1.562-.734-.44-.996-1.2c-.268-.765-.247-1.468.042-1.562zm-6.264-43.867c.545 2.17.671 4.665.073 6.824-.466 1.678-1.504 3.135-3.17 3.774-1.148.441-2.417.477-3.627.357-1.416-.142-2.721-.608-4.094-.918-2.904-.65-4.969 1.966-6.394 4.094l-2.663 4.115c-.776 1.111-1.698 2.338-2.966 2.914-1.368.619-2.778 0-3.884-.865-2.212-1.724-3.805-4.293-5.215-6.667l-1.546-2.736c-.048-.089-.289-.016-.32.068-.482 1.441-1.216 2.841-2.044 4.109-1.499 2.296-3.674 4.482-6.526 4.849-1.824.23-3.642-.33-5.225-1.2-1.08-.593-2.076-1.327-3.003-2.129l-1.478-1.378c-.483-.482-.96-1.19-1.526-1.562-2.337-1.525-5.409 1.399-7.081 2.705-1.509 1.174-3.123 2.458-5.021 2.919-2.275.556-4.251-.618-5.76-2.243-.068-.074-.367.042-.299.115 1.274 1.373 2.893 2.479 4.833 2.437 1.583-.036 3.055-.775 4.35-1.625 1.457-.953 2.762-2.112 4.183-3.118 1.168-.828 2.699-1.814 4.177-1.216.592.241.954.791 1.389 1.247l1.646 1.594c.948.844 1.97 1.625 3.076 2.259 1.531.88 3.255 1.478 5.037 1.41 2.862-.11 5.215-1.929 6.882-4.141 1.137-1.515 2.112-3.266 2.715-5.069l-.32.068c1.599 2.957 3.323 6.039 5.697 8.46 1.07 1.091 2.469 2.207 4.083 2.144 2.883-.115 4.639-3.564 5.965-5.671 1.394-2.223 3.433-6.133 6.588-5.787.488.052.949.225 1.415.362.766.22 1.541.403 2.327.529 1.222.194 2.485.252 3.701.005 1.693-.346 3.113-1.336 3.905-2.888.739-1.446.917-3.134.88-4.738-.016-.692-.079-1.379-.173-2.065-.058-.388-.073-.87-.22-1.237-.021-.053-.026-.116-.042-.173-.031-.11-.351-.027-.325.068z"/><path d="M220.617 116.49c.241-.183.834.199 1.311.844s.676 1.321.429 1.499c-.241.184-.833-.199-1.31-.844s-.676-1.315-.43-1.499zm11.138-1.834c.288-.09.713.471.943 1.242s.184 1.473-.11 1.557c-.288.089-.713-.472-.943-1.243s-.178-1.473.11-1.556zm-56.407 1.158c.289-.089.713.472.944 1.242s.183 1.473-.11 1.557-.713-.472-.944-1.242c-.225-.771-.178-1.468.11-1.557zm5.488 1.421c.298.047.435.733.304 1.53s-.483 1.405-.781 1.352c-.299-.047-.435-.733-.304-1.53s.482-1.4.781-1.352zm-13.318 5.419c.299.047.435.734.304 1.531s-.482 1.405-.781 1.352c-.299-.047-.435-.734-.304-1.53s.482-1.405.781-1.353zm19.76-6.311c.246.178.063.855-.409 1.51s-1.054 1.043-1.3.865-.063-.855.409-1.51 1.053-1.043 1.3-.865zm3.317 7.087c.294.078.362.77.157 1.551s-.607 1.353-.901 1.274-.362-.77-.157-1.551.608-1.353.901-1.274zm3.197-4.104c.288-.089.713.471.944 1.242s.183 1.473-.111 1.557c-.288.089-.712-.472-.943-1.243s-.183-1.467.11-1.556zm5.766 1.892c.267-.147.796.304 1.19 1.012s.498 1.399.23 1.546-.796-.304-1.19-1.012-.497-1.399-.23-1.546zm8.491-4.13c.209.215-.089.849-.666 1.415s-1.221.844-1.431.624.089-.849.666-1.416c.576-.56 1.221-.843 1.431-.623zm4.172 8.213c.299.063.398.755.231 1.547s-.546 1.378-.844 1.315-.399-.755-.231-1.546.55-1.379.844-1.316zm2.19-5.834c.236-.193.839.158 1.353.776.513.624.744 1.284.508 1.478s-.838-.157-1.352-.775c-.514-.624-.744-1.285-.509-1.479zm11.851-9.555c.304.021.508.687.456 1.494s-.336 1.446-.64 1.425-.508-.686-.456-1.493.336-1.442.64-1.426zm8.963 2.626c-.247.178-.828-.215-1.295-.87s-.65-1.331-.403-1.51.828.215 1.294.871c.472.655.65 1.331.404 1.509zm5.356-3.722c-.058.299-.744.42-1.541.268-.791-.152-1.389-.514-1.331-.813s.744-.419 1.541-.267c.791.152 1.389.514 1.331.812zm-58.577-20.903c.079 1.541.577 3.15 1.363 4.471 1.646 2.767 4.654 3.48 7.668 2.82 1.206-.267 2.374-.702 3.496-1.221l1.966-1.006c.503-.283.985-.655 1.514-.881 1.19-.508 2.516.383 3.428 1.069 2.369 1.772 4.382 4.482 7.265 5.451 4.685 1.578 6.986-4.833 8.082-8.13a6.72 6.72 0 0 0-.31.084c3.229 2.474 8.434 4.303 11.945 1.405 1.777-1.468 2.705-3.711 3.292-5.881.031-.11-.288-.068-.32.042-.896 3.302-2.799 6.835-6.593 7.129-2.338.178-4.681-.76-6.662-1.924a13.35 13.35 0 0 1-1.368-.896c-.079-.063-.273-.016-.309.084-1.022 3.077-3.219 9.519-7.668 7.878-2.789-1.027-4.744-3.627-7.066-5.367-.849-.639-1.871-1.31-2.982-1.268-.535.021-.97.231-1.42.503-1.342.823-2.747 1.562-4.22 2.123-3.15 1.206-6.897 1.436-9.083-1.562-1.022-1.405-1.624-3.271-1.714-5.006.011-.1-.309-.037-.304.084zm42.02 8.576c-.304.026-.603-.603-.677-1.405s.116-1.478.414-1.504c.304-.026.603.603.677 1.405s-.11 1.478-.414 1.504z"/><path d="M227.546 91.981c-.252.168-.818-.246-1.258-.922s-.593-1.358-.341-1.525.818.246 1.258.923.597 1.358.341 1.525zm5.897-1.337c-.163.257-.85.105-1.526-.335s-1.095-1.001-.927-1.258c.162-.257.849-.105 1.525.335s1.09 1.001.928 1.258zm-48.336-2.443c.205.225-.11.849-.702 1.394s-1.242.807-1.447.587.11-.849.703-1.394 1.237-.812 1.446-.587zm-.409 6.18c.2.231-.141.844-.749 1.368s-1.269.765-1.468.535.142-.844.75-1.368 1.268-.76 1.467-.535zm5.336.461c-.304-.011-.519-.676-.487-1.483s.309-1.452.608-1.436c.303.01.518.676.487 1.483s-.304 1.452-.608 1.436zm5.959 1.94c-.299.047-.639-.566-.765-1.363s.021-1.483.32-1.531.639.566.765 1.363c.126.802-.021 1.483-.32 1.531zm7.988-5.923c.252.173.084.849-.372 1.515s-1.027 1.069-1.279.896-.083-.849.373-1.515 1.032-1.069 1.278-.896zm.063 8.748c-.246-.173-.073-.849.388-1.515.461-.66 1.038-1.059 1.289-.881s.074.849-.387 1.515-1.038 1.054-1.29.881zm8.171-2.028c-.262.157-.807-.283-1.221-.975s-.535-1.384-.278-1.536.807.283 1.221.975c.42.697.54 1.384.278 1.536zm6.08-2.108c-.162.257-.849.105-1.525-.335s-1.096-1.001-.928-1.258.849-.105 1.525.335 1.091 1.006.928 1.258zm1.221-3.595c-.283-.105-.283-.807.006-1.562.283-.755.744-1.279 1.027-1.174s.283.807-.005 1.562-.745 1.279-1.028 1.174zm3.166-31.639c-.236 1.793-.713 3.596-1.357 5.278-.928 2.448-2.621 5.587-5.614 5.661-2.337.058-4.455-1.62-6.069-3.124-.073-.068-.267-.042-.309.058-.97 2.401-2.238 4.738-3.722 6.856-1.918 2.736-5.33 6.405-8.852 3.9-1.143-.812-2.008-1.992-2.72-3.182-1.18-1.966-2.024-4.125-2.752-6.29-.047-.136-.377-.042-.33.089 1.263 3.737 4.219 12.134 9.754 10.19 1.761-.619 3.16-2.044 4.303-3.465 1.242-1.546 2.275-3.26 3.192-5.016.519-.996 1.017-2.013 1.441-3.056l-.309.058c2.479 2.312 6.195 4.602 9.303 2.028 2.233-1.85 3.266-4.979 3.921-7.705.183-.76.351-1.536.45-2.312.027-.152-.309-.1-.33.032zm2.249 6.432c-.115.283-.875.278-1.698-.01s-1.389-.755-1.269-1.038.876-.278 1.698.011 1.389.755 1.269 1.038zm-12.679 7.464c-.314-.089-.367-.786-.11-1.557s.718-1.326 1.033-1.242c.314.089.366.786.11 1.557s-.718 1.331-1.033 1.242zm6.499-4.461c-.251.199-.917-.142-1.483-.755s-.828-1.274-.577-1.468.917.142 1.484.755.828 1.274.576 1.468zm-23.397 1.437c.168.262-.309.807-1.064 1.216s-1.504.535-1.672.273.309-.807 1.064-1.216 1.504-.529 1.672-.272zm-1.625 5.592c.194.246-.225.828-.938 1.3s-1.447.655-1.635.409c-.194-.246.225-.828.938-1.3s1.447-.655 1.635-.409zm4.173 2.317c-.304-.115-.273-.818.068-1.562s.864-1.253 1.163-1.137.273.818-.068 1.562c-.335.749-.859 1.258-1.163 1.137z"/><path d="M203.394 81.995c-.304.11-.817-.409-1.137-1.158s-.335-1.452-.026-1.562.817.409 1.137 1.158c.32.755.33 1.452.026 1.562zm1.022-6.091c-.251.199-.917-.142-1.483-.755s-.828-1.274-.577-1.468.918.142 1.484.755.828 1.269.576 1.468zm5.394-.854c-.252.199-.918-.141-1.484-.755s-.828-1.274-.576-1.468.917.142 1.483.755.823 1.274.577 1.468zm.607-6.568c-.272-.168-.099-.849.394-1.52.487-.671 1.105-1.075 1.383-.907s.1.849-.393 1.52-1.111 1.08-1.384.907z"/></g><path d="M193.803 238.625c4.361-13.828-189.153-13.828-184.776.005-4.361 13.827 189.152 13.827 184.776-.005z" fill="#ffcda4"/><path d="M112.71 237.273c.136.251 2.211-3.549 2.28-3.58a.27.27 0 0 0-.089-.362c-.357-.467-2.239 3.47-2.411 3.543-.111.168.026.404.22.399zm-1.662-.042c.383.078.551-1.636.671-1.819.089-.325-.424-.462-.508-.131.042.267-.807 1.96-.163 1.95zm13.9.041c.226.1 1.179-1.745 1.3-1.85.079-.12.037-.283-.084-.361-.403-.341-1.232 1.672-1.441 1.808-.11.168.026.409.225.403zm-61.339-.172c.77-.027-.624-1.945-.608-2.212-.136-.31-.624-.089-.477.22.136.141.792 2.086 1.085 1.992zm43.561 4.062c-.136.252-2.212-3.549-2.28-3.58-.074-.126-.032-.283.089-.362.356-.466 2.238 3.47 2.411 3.544.11.173-.026.403-.22.398zm1.661-.037c-.382.079-.55-1.635-.671-1.818-.089-.325.425-.462.509-.132-.042.268.807 1.961.162 1.95zm-13.9.042c-.225.1-1.179-1.745-1.3-1.85-.079-.121-.037-.283.084-.362.404-.34 1.232 1.672 1.441 1.809a.27.27 0 0 1-.225.403zm61.339-.173c-.77-.026.624-1.945.608-2.212.137-.309.624-.089.477.22-.136.142-.791 2.086-1.085 1.992z" class="F"/><path d="M45.82 176.758l-13.858 52.149h2.919l18.229-53.606-7.291 1.457zm31.605 0l13.853 52.149h-2.914L70.13 175.301l7.296 1.457zm-14.706 52.028h-2.191l-2.914-52.028h8.019l-2.914 52.028z" class="C"/><path d="M100.644 177.817H22.602a.41.41 0 0 1-.414-.414v-3.323a.41.41 0 0 1 .414-.414h78.042a.41.41 0 0 1 .414.414v3.323a.42.42 0 0 1-.414.414z" fill="#ce3f2c"/><path d="M145.73 188.075l-12.49 44.25h-4.686l8.329-45.288 8.847 1.038z" class="C"/><path d="M135.022 197.164h8.145l2.563-9.089-8.847-1.038-1.861 10.127z" class="K"/><path d="M120.226 188.075l-12.495 44.25h-4.686l8.328-45.288 8.853 1.038z" fill="#febc72"/><path d="M109.513 197.164h8.145l2.568-9.089-8.853-1.038-1.86 10.127z" fill="#e25a5a"/><path d="M150.264 188.075l14.985 51.473h4.685l-10.823-52.511-8.847 1.038z" class="C"/><path d="M159.111 187.037l-8.847 1.038 2.563 9.089h8.145l-1.861-10.127z" class="K"/><path d="M151.6 192.441H97.374s-1.258-15.106 13.847-20.767 26.432-2.516 38.393-18.88c11.955-16.365 20.137-24.547 25.174-24.547l-9.906 53.155a13.51 13.51 0 0 1-13.282 11.039z" fill="#4a3e71"/><path d="M158.508 129.447s10.184-25.028 40.049-23.791c18.303.76 22.443 13.277 19.319 20.29-3.155 7.071-29.875 57.364-29.875 57.364l-33.355-13.534 3.862-40.329zM97.39 192.441h46.364c4.204 0 8.009-1.939 10.509-5.037h-51.831c-2.789 0-5.042 2.254-5.042 5.037z" class="B"/><path d="M30.993 68.808c2.097 0 4.308-.975 6.358-1.876l3.286-1.274c3.223-.865 6.609-.073 9.303 2.181.257.21.634.178.844-.073a.6.6 0 0 0-.073-.844c-2.993-2.505-6.777-3.386-10.383-2.416-1.09.294-2.238.802-3.459 1.337-3.302 1.457-6.719 2.962-9.219.283a.601.601 0 1 0-.875.823c1.279 1.368 2.72 1.861 4.219 1.861zm0 6.169c2.097 0 4.308-.975 6.358-1.877l3.286-1.274c3.223-.865 6.609-.073 9.303 2.18.257.21.634.178.844-.073a.6.6 0 0 0-.073-.844c-2.993-2.505-6.777-3.391-10.383-2.416-1.09.294-2.238.802-3.459 1.337-3.302 1.457-6.719 2.962-9.219.283a.601.601 0 1 0-.875.823c1.279 1.363 2.72 1.861 4.219 1.861zm19.179-15.642l5.107 3.616 3.616-5.108-5.107-3.616-3.616 5.108z" class="J"/><path d="M89.79 237.676h35.792v-13.235l-21.337-8.308s-.812 5.111-2.704 9.393l-.31.661c-.346.723-.723 1.42-1.148 2.044-.131.215-.283.414-.424.608-.807 1.059-1.724 1.861-2.767 2.222-2.799.97-4.486 2.207-5.509 3.339a6.32 6.32 0 0 0-.592.739c-1.001 1.421-1.001 2.537-1.001 2.537z" class="F"/><path d="M102.62 220.693l26.909 5.682c1.19-1.52 2.154-3.637 2.935-6.117l.215-.702c3.679-12.507 3.019-33.169 3.019-33.169s30.363.739 45.416 0c11.813-.577 12.841-12.559 12.374-29.253-5.377-1.164-10.776-2.254-16.284-2.794-9.398-.917-18.838-1.179-28.282-1.253a60.71 60.71 0 0 0 .597 3.25s-36.044 0-37.769 8.811c-1.331 6.777-6.011 35.931-8.108 49.077-.037.252-.084.488-.12.724l-.902 5.744z" class="L"/><path d="M130.839 219.813a.61.61 0 0 0 .593-.493.6.6 0 0 0-.483-.697l-5.262-.965-20.787-3.81c-.325-.063-.639.157-.697.482a.6.6 0 0 0 .482.697l20.787 3.811 5.263.964c.031.011.068.011.104.011z" class="D"/><path d="M58.63 199.36l32.412 15.206 1.08-2.301.309-.676 5.865-12.501-17.427-13.094s-2.909 4.283-6.442 7.354l-.561.467c-.624.508-1.258.98-1.903 1.368l-.645.356c-1.179.624-2.348.954-3.443.844-2.94-.304-5 .094-6.415.681a6.49 6.49 0 0 0-.854.425c-1.504.86-1.976 1.871-1.976 1.871z" class="F"/><path d="M76.707 190.082l.666.33 20.278 10.049 4.979 2.463 3.837-6.206.891-1.473 2.211-3.685 2.684-4.581.697-1.2 2.112-3.737.666-1.201 1.242-2.243c.011-.016.016-.032.016-.047l1.216-2.296 3.192-6.515c.304-.682.671-1.306 1.095-1.872 6.714-9.073 27.291-3.705 27.291-3.705l1.363-7.229.226-1.2.487-2.61.152-.808c-9.681-2.29-19.403-5.346-28.23-6.677-5.277-.792-10.22-.97-14.649 0-5.545 1.216-10.278 4.235-13.795 10.095a9.48 9.48 0 0 0-.351.603l-.335.603c-10.692 18.885-17.941 33.142-17.941 33.142z" class="L"/><g class="D"><path d="M119.481 162.019c.042 0 .079-.005.121-.01l9.827-1.971c.325-.063.535-.383.472-.708-.068-.325-.383-.535-.708-.472l-9.827 1.971c-.325.063-.535.383-.472.708a.59.59 0 0 0 .587.482z"/><path d="M107.599 195.303c.194 0 .388-.094.503-.273 7.086-10.865 11.762-21.799 14.298-33.431a.6.6 0 1 0-1.174-.251c-2.505 11.489-7.128 22.292-14.13 33.032a.6.6 0 0 0 .173.834.66.66 0 0 0 .33.089zm-3.837 2.175a.6.6 0 0 0 .54-.335c.147-.299.026-.655-.272-.802a397.75 397.75 0 0 1-22.847-12.218c-.288-.168-.655-.068-.818.22-.168.288-.068.655.22.818a399.04 399.04 0 0 0 22.915 12.255.58.58 0 0 0 .262.062z"/><use xlink:href="#D"/><path d="M107.206 180.108c2.085 0 3.774-1.69 3.774-3.774s-1.689-3.774-3.774-3.774-3.773 1.689-3.773 3.774 1.689 3.774 3.773 3.774z"/><use xlink:href="#D" x="12.543" y="-16.789"/><path d="M113.642 211.814c2.085 0 3.774-1.69 3.774-3.774s-1.689-3.774-3.774-3.774-3.773 1.69-3.773 3.774 1.689 3.774 3.773 3.774z"/><use xlink:href="#D" x="36.637" y="13.654"/><path d="M126.714 175.086c2.084 0 3.774-1.689 3.774-3.774s-1.69-3.774-3.774-3.774-3.774 1.69-3.774 3.774 1.69 3.774 3.774 3.774zm13.434 1.248c2.084 0 3.773-1.69 3.773-3.774s-1.689-3.774-3.773-3.774-3.774 1.69-3.774 3.774 1.69 3.774 3.774 3.774z"/></g><path d="M53.908 200.083s4.508-6.871 8.507-7.621 8.208 0 8.208 0l-1.179 15.573-15.535-7.952z" class="B"/><path d="M87.981 219.813c-1.305-1.646-34.074-19.73-34.074-19.73" stroke="#3b566e" stroke-width="3.9" class="E M"/><path d="M100.78 237.676l-4.187-11.301s-6.955 3.439-8.606 7.407l-1.651 3.968 14.445-.074z" class="B"/><path d="M127.784 237.749c-2.202-.073-41.449 0-41.449 0" stroke="#3b566e" stroke-width="3.9" class="E M"/><path d="M180.092 188.075l14.985 51.473h4.685l-10.823-52.511-8.847 1.038z" class="C"/><path d="M188.939 187.037l-8.847 1.038 2.563 9.089h8.145l-1.861-10.127z" class="K"/><path d="M203.63 108.424c.603 0 1.216-.084 1.84-.262 1.006-.283 1.929-.745 2.825-1.19.792-.393 1.541-.771 2.338-1.028 1.824-.592 4.34-.534 5.419 1.578a.6.6 0 1 0 1.069-.545c-1.42-2.783-4.586-2.909-6.86-2.17-.881.288-1.709.697-2.506 1.095-.88.441-1.719.855-2.615 1.112-2.233.634-4.319-.121-5.582-2.018a.601.601 0 0 0-1.001.665c1.19 1.782 3.04 2.763 5.073 2.763zm0 4.256a6.64 6.64 0 0 0 1.84-.263c1.006-.283 1.929-.744 2.825-1.189.792-.394 1.541-.771 2.338-1.028 1.824-.592 4.34-.534 5.419 1.578.152.293.514.414.807.262a.6.6 0 0 0 .262-.807c-1.42-2.783-4.586-2.909-6.86-2.17-.881.288-1.709.697-2.506 1.095-.88.441-1.719.855-2.615 1.112-2.233.634-4.319-.121-5.582-2.018a.601.601 0 0 0-1.001.665c1.19 1.782 3.04 2.763 5.073 2.763zm-5.33-10.699l-4.308-1.478.54 4.513 3.768-3.035z" fill="#e4e4ef"/><path d="M79.571 122.16h53.089V78.602H79.571v43.558z" class="D"/><use xlink:href="#E" fill="#ffc2d6"/><use xlink:href="#E" x="-6.368" fill="#ffcc3e"/><path d="M104.591 75.616h24.776a3.29 3.29 0 0 0 3.291-3.292V71.7a3.29 3.29 0 0 0-3.291-3.292h-24.776A3.29 3.29 0 0 0 101.3 71.7v.624a3.29 3.29 0 0 0 3.291 3.292zm-12.946 34.291h5.844c.702 0 1.268-.566 1.268-1.268s-.566-1.269-1.268-1.269h-5.844c-.702 0-1.268.566-1.268 1.269s.566 1.268 1.268 1.268zm3.072 5.603h2.773c.702 0 1.268-.566 1.268-1.268s-.566-1.269-1.268-1.269h-2.773c-.702 0-1.268.566-1.268 1.269s.566 1.268 1.268 1.268zm-12.16 0h7.579c.702 0 1.268-.566 1.268-1.268s-.566-1.269-1.268-1.269h-7.579c-.702 0-1.268.566-1.268 1.269a1.27 1.27 0 0 0 1.268 1.268zm1.882-5.603h3.04c.702 0 1.268-.566 1.268-1.268s-.566-1.269-1.268-1.269h-3.04c-.702 0-1.268.566-1.268 1.269s.571 1.268 1.268 1.268zm-11.605 0h7.191c.702 0 1.268-.566 1.268-1.268s-.566-1.269-1.268-1.269h-7.191c-.702 0-1.268.566-1.268 1.269s.566 1.268 1.268 1.268z" class="B"/><g fill="#3b566e"><path d="M109.686 141.991h20.813l12.385 9.786a1.42 1.42 0 0 1-.875 2.526h-16.736l-15.587-12.312z"/><path d="M105.199 122.749l4.492 19.236 15.577 12.313-1.73-9.089-.755-3.947-.256-1.347-.897-4.707-.938-4.906c-.209-1.09-.928-2.018-1.944-2.479l-12.695-5.782c-.461-.204-.964.21-.854.708z"/></g><path d="M110.632 134.871l2.38 2.379 2.379-2.379-2.379-2.38-2.38 2.38z" class="D"/><path d="M132.831 153.16h3.899c.33 0 .603-.267.603-.602a.6.6 0 0 0-.603-.603h-3.899c-.33 0-.603.267-.603.603s.273.602.603.602zm-10.928-18.041c6.321-2.149 18.565-2.422 18.565-2.422.985-4.198 8.763-18.513 13.454-22.156l-1.09 29.07-23.098 4.136c-2.464-2.878-4.728-6.39-7.831-8.628z" class="C"/><path d="M121.636 135.213l1.908 10.001c1.257-.498 5.964-1.457 11.237-2.442-1.719-4.33-5.027-7.527-9.272-8.591-1.426.288-2.757.623-3.873 1.032z" class="F"/><path d="M122.532 139.92l.257 1.347c.44-1.242 1.059-2.379 1.835-3.443.288-.383-.352-.755-.635-.367a13.53 13.53 0 0 0-1.457 2.463z" class="B"/><path d="M147.019 147.62c-1.515-8.932-4.906-38.379 15.687-40.47 14.644-1.489 27.501 5.184 28.246 29.127l.602 18.524c-15.089-.87-29.99-3.25-44.535-7.181z" class="C"/><path d="M149.278 129.447a.6.6 0 0 0 .566-.398l2.584-7.223a.6.6 0 0 0-.361-.765.6.6 0 0 0-.765.361l-2.584 7.223a.6.6 0 0 0 .361.766c.068.026.136.036.199.036z" class="D"/><path d="M145.583 136.356c-12.186-.702-16.253-1.945-19.639 6.337s1.693 5.514 1.693 5.514.225 1.877 4.062 1.29c0 0 3.161 1.75 5.079.115 1.918-1.641 2.93-2.773 4.397-.189s7.904 3.129 9.712 1.201c2.757-2.946-5.304-14.268-5.304-14.268z" class="F"/><path d="M184.604 114.902c7.742 8.607 14.487 30.013 9.55 40.628-2.778 5.97-10.409 6.992-20.782 6.169-8.066-.64-17.757-3.308-28.345-9.141 0 0 2.715-12.334 0-17.025l27.549 1.73.183-23.289 11.845.928z" class="C"/><path d="M131.427 148.962c.639-3.135 2.295-5.865 4.795-7.863.367-.293.897.226.524.525-2.405 1.929-3.993 4.518-4.607 7.537-.094.461-.807.267-.712-.199zm-.2-9.797c.315-.361.834.168.524.525-2.217 2.552-3.532 5.598-3.868 8.968-.047.472-.786.477-.739 0a16.71 16.71 0 0 1 4.083-9.493z" class="B"/><path d="M172.319 138.369a.6.6 0 0 0 .598-.556 148.24 148.24 0 0 0 .367-16.915c-.011-.33-.294-.597-.624-.576-.33.01-.592.288-.577.623.199 5.572.079 11.217-.361 16.779a.6.6 0 0 0 .55.645c.016-.006.031 0 .047 0z" class="D"/><path d="M124.822 143.118c.959-2.134 2.369-3.984 4.162-5.483.362-.304.891.22.524.524a14.8 14.8 0 0 0-4.046 5.331c-.194.435-.834.057-.64-.372z" class="B"/><g class="D"><path d="M174.289 138.935a.61.61 0 0 0 .598-.53.6.6 0 0 0-.524-.671c-9.162-1.111-18.481-1.85-27.7-2.191-.346-.015-.608.247-.624.577-.011.33.246.608.576.624a330.47 330.47 0 0 1 27.601 2.185.32.32 0 0 0 .073.006z"/><path d="M149.289 152.736c.225 0 .44-.126.54-.341 2.405-5.032 2.898-10.52 1.431-15.877a.6.6 0 1 0-1.159.32c1.394 5.074.928 10.274-1.352 15.038-.142.299-.016.655.283.802.084.037.173.058.257.058z"/></g><g class="F"><path d="M170.888 100.068c4.209 1.064 7.107-1.991 7.694-4.921.535-2.72-1.85-5.037-5.178-4.193-1.122.278-2.338.922-3.596 2.023 0 0-.592 1.143-.912 2.521-.414 1.782-.377 3.968 1.992 4.57z"/><path d="M153.885 102.055c3.25 5.525 8.213 9.435 14.854 4.728 4.523-3.208 6.337-9.755 3.082-15.285-3.25-5.525-9.901-7.642-14.854-4.728s-6.331 9.76-3.082 15.285z"/></g><path d="M161.013 98.7a.802.802 0 1 0 0-1.604.802.802 0 1 0 0 1.604zm-3.275 5.08c-.692-1.657-1.143-3.387-1.342-5.169-.058-.514.734-.629.792-.115a17.69 17.69 0 0 0 1.289 4.969c.199.477-.54.792-.739.315zm13.821-7.355c.335-1.855 1.882-3.276 3.784-3.376.514-.026.629.765.116.791-1.531.079-2.826 1.153-3.103 2.673-.095.508-.891.419-.797-.089zm-17.118-3.37c2.568-.362 11.169-4.974 12.81.199.419 1.316.251 2.296 1.651 2.243 1.404-.262.912-2.521.912-2.521 1.258-1.106 2.474-1.745 3.595-2.023-.576-5.614-4.025-7.936-6.357-7.223 0 0-7.7-8.607-10.656-2.6 0 0-9.56-4.209-10.959 4.901-1.405 9.105 9.004 7.024 9.004 7.024z" class="C"/><path d="M193.137 192.441h-54.226s-1.258-15.106 13.847-20.767 26.432-2.516 38.393-18.88c11.955-16.365 20.137-24.547 25.174-24.547l-9.901 53.166a13.52 13.52 0 0 1-13.287 11.028z" fill="#ce3f2c"/><path d="M69.511 90.324h1.897v6.101h-1.897v-6.101zm1.96-1.698c0 .524-.398.949-1.022.949-.597 0-.996-.425-.985-.949-.011-.55.388-.959.996-.959.613 0 1.001.409 1.012.959zm20.719 6.783c0-.676.461-1.164 1.127-1.164s1.116.477 1.116 1.164c0 .666-.451 1.153-1.127 1.153-.655 0-1.116-.487-1.116-1.153z" class="B"/><path d="M74.8 91.923c.162.037.362.052.639.052 1.017 0 1.641-.514 1.641-1.379 0-.776-.54-1.242-1.494-1.242-.388 0-.65.037-.791.073v2.495h.005zm-1.892-3.832c.587-.1 1.415-.173 2.584-.173 1.179 0 2.018.225 2.584.676.54.425.901 1.127.901 1.955s-.278 1.531-.776 2.007c-.65.613-1.614.891-2.746.891a4.61 4.61 0 0 1-.65-.037v3.019h-1.892V88.09h-.005zm10.257 5.441c-1.001-.01-1.782.225-1.782.965 0 .487.325.729.749.729.477 0 .865-.315.991-.702.026-.1.037-.215.037-.325v-.666h.005zm.225 2.893l-.115-.613h-.037c-.404.488-1.027.75-1.756.75-1.242 0-1.981-.902-1.981-1.882 0-1.594 1.431-2.353 3.596-2.343v-.089c0-.325-.173-.791-1.116-.791a3.44 3.44 0 0 0-1.693.467l-.351-1.227c.425-.241 1.268-.54 2.38-.54 2.044 0 2.694 1.206 2.694 2.647v2.133c0 .587.026 1.153.089 1.494h-1.709v-.005zm4.414-6.127l.917 3.009.299 1.143h.037l.278-1.143.755-3.009h2.044l-1.431 4.036c-.88 2.432-1.468 3.412-2.154 4.025a3.52 3.52 0 0 1-1.845.839l-.403-1.614c.236-.037.54-.152.828-.325.288-.152.603-.451.791-.765a.5.5 0 0 0 .1-.278c0-.063-.01-.162-.089-.314l-2.243-5.603h2.117zm13.559 4.162l.052 1.966h-1.656l-.089-.865h-.037c-.236.377-.812 1.001-1.918 1.001-1.242 0-2.154-.776-2.154-2.668v-3.596h1.918v3.297c0 .891.288 1.431.954 1.431.524 0 .828-.362.954-.666a1.13 1.13 0 0 0 .063-.414v-3.648h1.918v4.162h-.005zm4.79-.928c-1.001-.01-1.782.225-1.782.965 0 .487.325.729.755.729.477 0 .865-.315.991-.702.026-.1.036-.215.036-.325v-.666zm.226 2.893l-.116-.613h-.036c-.399.488-1.028.75-1.756.75-1.242 0-1.981-.902-1.981-1.882 0-1.594 1.431-2.353 3.595-2.343v-.089c0-.325-.178-.791-1.116-.791a3.44 3.44 0 0 0-1.693.467l-.351-1.227c.424-.241 1.268-.54 2.379-.54 2.044 0 2.694 1.206 2.694 2.647v2.133c0 .587.027 1.153.089 1.494h-1.708v-.005z" fill="#7b9aa9"/><path d="M128.156 121.438l2.065.378.613-.42-2.065-.377-.613.419zm.372 5.289c-.042-.005-.079-.016-.121-.026-.691-.163-1.189-.682-1.326-1.394-.11-.577.032-1.368.76-1.866l.671-.462-1.986-.361c-.771.765-1.117 1.85-.902 2.961a3.22 3.22 0 0 0 2.443 2.553l.194.042c2.075.377 4.072-.991 4.449-3.056l-1.462-.267c-.225 1.268-1.446 2.107-2.72 1.876zm1.929-10.625c.042.006.079.016.121.027.691.162 1.189.681 1.326 1.394.11.571-.032 1.363-.76 1.866l-.671.461 1.986.362c.771-.766 1.117-1.851.902-2.962a3.21 3.21 0 0 0-2.443-2.552l-.194-.042c-2.081-.378-4.072.99-4.45 3.055l1.457.268a2.34 2.34 0 0 1 2.726-1.877zm2.411 6.442l-6.929-1.263-.173.949 6.929 1.263.173-.949zm.351-1.944l-6.929-1.264-.173.949 6.929 1.263.173-.948z" class="B"/><path d="M188.258 195.854s4.948-.745 6.431-7.669-1.237-12.863-10.635-15.583-10.142-1.73-21.022-6.924l-7.422-3.213s3.711 10.881 11.871 17.805 9.891 14.347 13.848 16.821 6.929-1.237 6.929-1.237z" class="G"/><path d="M166.124 170.568s17.438 7.731 22.134 25.291 4.203 41.057 4.203 41.057" class="E H I"/><path d="M208.594 202.128s-2.317-1.636-1.31-5.52c1.006-3.889 3.894-6.206 9.35-5.194s5.582 1.698 12.417 1.834l4.575.257s-4.649 4.571-10.545 6.007-8.659 4.754-11.295 5.001-3.192-2.385-3.192-2.385z" class="G"/><path d="M226.241 194.942s-10.802-.514-17.647 7.191-12.569 19.74-12.569 19.74" class="E H I"/><path d="M199.076 181.57s-6.494-3.711-4.45-11.689c2.039-7.977 11.499-12.799 14.838-16.694s4.639-5.011 4.639-5.011-7.605 13.911-9.089 20.589-5.194 12.994-5.938 12.805z" class="G"/><path d="M197.781 213.293s-2.227-31.906 6.305-45.634" class="E H I"/><path d="M199.076 181.57s-4.639-5.194-2.411-9.833 7.233-7.05 9.46-10.2c2.228-3.156 7.978-13.356 7.978-13.356s-.745 5.378-2.784 12.245c-2.038 6.861-9.46 19.85-12.243 21.144z" class="C"/><path d="M199.385 216.385s-.246-23.498 13.848-30.669" class="E H I"/><path d="M204.055 195.518s-4.204-3.957-.493-11.128 11.625-3.213 19.293-5.441 11.128-5.44 11.128-5.44-4.948 9.398-12.862 12.611-17.066 9.398-17.066 9.398z" class="G"/><path d="M204.055 195.518s-1.174-6.059 2.903-9.581 8.161-.373 12.616-1.3c4.45-.928 8.905-3.711 8.905-3.711s-8.349 9.088-13.91 11.316-10.514 3.276-10.514 3.276z" class="C"/><path d="M201.12 244.737h-6.861c-6.195 0-11.221-5.027-11.221-11.223v-26.617h29.309v26.617c-.005 6.196-5.032 11.223-11.227 11.223z" class="L"/><path d="M212.341 228.949v-.744l-29.309.55v.745l29.309-.551zm-29.309-6.668l29.309.813v-.739l-29.309-.818v.744zm0-6.389v.744l29.309-1.777v-.739l-29.309 1.772zm29.163 19.352l-29.157-1.714.036.745 28.99 1.703.131-.734z" class="D"/><path d="M76.43 152.757H60.208v20.5H76.43v-20.5z" class="B"/><path d="M73.715 157.836s6.992.551 6.992 5.168-5.902 5.373-5.902 5.373" stroke="#e84f35" stroke-width="3.12" class="E"/><path d="M68.867 128.672c0 2.097.975 4.309 1.876 6.358l1.274 3.287c.865 3.223.073 6.609-2.18 9.303-.21.257-.178.635.073.844a.6.6 0 0 0 .844-.073c2.505-2.993 3.386-6.778 2.416-10.384-.293-1.09-.802-2.238-1.337-3.459-1.457-3.302-2.961-6.72-.283-9.22a.601.601 0 0 0-.823-.876c-1.363 1.279-1.861 2.721-1.861 4.22zm-6.164 0c0 2.097.975 4.309 1.876 6.358l1.274 3.287c.865 3.223.073 6.609-2.18 9.303-.21.257-.178.635.073.844a.6.6 0 0 0 .844-.073c2.505-2.993 3.391-6.778 2.416-10.384-.294-1.09-.802-2.238-1.337-3.459-1.457-3.302-2.961-6.72-.283-9.22a.601.601 0 0 0-.823-.876c-1.363 1.279-1.861 2.721-1.861 4.22z" class="D"/><path d="M116.51 106.012l1.436-.377.267-.451-1.436.377-.267.451zm1.824 3.282c-.026.005-.058.015-.084.021a1.22 1.22 0 0 1-1.268-.498 1.3 1.3 0 0 1-.074-1.426l.294-.498-1.384.362a2.3 2.3 0 0 0 .309 2.17 2.28 2.28 0 0 0 2.333.907l.136-.032c1.447-.377 2.317-1.855 1.939-3.292l-1.017.268c.236.886-.298 1.787-1.184 2.018zm-1.94-7.391c.027-.005.058-.016.084-.021a1.22 1.22 0 0 1 1.269.498c.241.335.388.886.073 1.426l-.293.497 1.383-.361c.268-.724.163-1.52-.309-2.17-.54-.745-1.436-1.096-2.332-.907l-.137.031c-1.446.378-2.316 1.856-1.939 3.292l1.017-.267c-.236-.881.299-1.782 1.184-2.018zm3.47 3.412l-4.827 1.263.173.661 4.827-1.263-.173-.661zm-.351-1.352l-4.822 1.263.173.66 4.822-1.263-.173-.66z" class="B"/><path d="M25.196 38.354a9.51 9.51 0 0 0 9.508-9.508 9.51 9.51 0 0 0-9.508-9.508 9.51 9.51 0 0 0-9.508 9.508 9.51 9.51 0 0 0 9.508 9.508zm235.129 197.551c5.573 0 10.09-4.518 10.09-10.091a10.09 10.09 0 0 0-20.179 0c0 5.572 4.517 10.091 10.089 10.091z" class="J"/><defs ><path id="B" d="M196.869 50.635a4.97 4.97 0 0 0 4.968-4.969 4.97 4.97 0 0 0-4.968-4.969 4.97 4.97 0 0 0-4.969 4.969 4.97 4.97 0 0 0 4.969 4.969z"/><path id="C" d="M219.642 86.079a4.97 4.97 0 0 0 4.969-4.969 4.97 4.97 0 0 0-4.969-4.969 4.97 4.97 0 0 0-4.969 4.969 4.97 4.97 0 0 0 4.969 4.969z"/><path id="D" d="M90.077 182.582c2.084 0 3.774-1.69 3.774-3.774s-1.69-3.774-3.774-3.774-3.774 1.69-3.774 3.774 1.69 3.774 3.774 3.774z"/><path id="E" d="M125.761 86.115a1.78 1.78 0 0 0 1.777-1.777 1.78 1.78 0 0 0-1.777-1.777 1.78 1.78 0 0 0-1.777 1.777 1.78 1.78 0 0 0 1.777 1.777z"/></defs></svg>