<svg width="98" height="99" viewBox="0 0 98 99" fill="none" xmlns="http://www.w3.org/2000/svg">
<path d="M38.329 53.3128C49.1538 53.3128 57.929 44.5376 57.929 33.7128C57.929 22.888 49.1538 14.1128 38.329 14.1128C27.5042 14.1128 18.729 22.888 18.729 33.7128C18.729 44.5376 27.5042 53.3128 38.329 53.3128Z" fill="#DEE7F3"/>
<path d="M49.6047 43.9966C38.4738 43.9966 29.436 53.0223 29.436 64.1652C29.436 75.3082 38.4617 84.3218 49.6047 84.3218C60.7355 84.3218 69.7733 75.2961 69.7733 64.1531C69.7733 53.0102 60.7355 43.9966 49.6047 43.9966ZM55.0491 63.0158H52.581L50.3911 65.2057H55.0491V66.8149H48.782L48.3222 67.2746C47.5237 68.0368 47.1244 68.8837 47.1244 69.8033C47.1244 70.626 47.4148 71.3156 47.9834 71.86C48.5642 72.4045 49.2901 72.6828 50.1733 72.6828C51.4437 72.6828 52.46 72.2351 53.198 71.3277L55.0249 73.1425C53.7667 74.5218 52.1575 75.2114 50.1733 75.2114C48.419 75.2114 47.0034 74.7274 45.9025 73.7474C44.8015 72.7674 44.257 71.485 44.257 69.9C44.257 68.8354 44.6079 67.7949 45.3096 66.8149H44.1723V65.2057H46.7615L48.9513 63.0158H44.1723V61.4067H50.5605L50.9355 61.0316C51.722 60.2452 52.1091 59.4104 52.1091 58.503C52.1091 57.6803 51.8188 56.9907 51.2501 56.4462C50.6694 55.9018 49.9434 55.6235 49.0602 55.6235C47.7899 55.6235 46.7736 56.0712 46.0355 56.9786L44.2449 55.1516C45.4548 53.7724 47.0639 53.0828 49.0602 53.0828C50.8267 53.0828 52.2543 53.5667 53.3553 54.5467C54.4442 55.5267 54.9886 56.8092 54.9886 58.3941C54.9886 59.483 54.6741 60.4872 54.0328 61.3825H55.0854V63.0158H55.0491Z" fill="#E84F35"/>
<path d="M75.9922 57.027C80.505 47.6988 76.5971 36.4833 67.2689 31.9704C57.9408 27.4576 46.7252 31.3655 42.2124 40.6936" stroke="#172A3A" stroke-width="2.35524" stroke-miterlimit="10" stroke-linecap="round" stroke-linejoin="round"/>
</svg>
