<svg width="98" height="99" viewBox="0 0 98 99" fill="none" xmlns="http://www.w3.org/2000/svg">
<path d="M78.2409 17.5417H29.1674C25.2106 17.5417 21.9644 20.7757 21.9644 24.7447V26.8762H72.1894C75.6561 26.8762 78.4613 29.6815 78.4613 33.1482V36.9825L76.0726 39.3345L81.9894 40.731C83.9984 41.2087 85.4194 42.9972 85.4194 45.0675V46.0107V24.7447C85.4439 20.7757 82.2099 17.5417 78.2409 17.5417Z" fill="#DEE7F3"/>
<path d="M47.3095 67.473H18.8282C15.3615 67.473 12.5439 64.6677 12.5439 61.1887V32.9525C12.5439 29.4857 15.3492 26.6682 18.8282 26.6682H72.2015C75.6682 26.6682 78.4857 29.4735 78.4857 32.9525V36.7867" stroke="#172A3A" stroke-width="3" stroke-miterlimit="10" stroke-linecap="round" stroke-linejoin="round"/>
<path d="M23.5446 39.2244C22.6748 39.2244 21.9766 38.5261 21.9766 37.6564C21.9766 36.7866 22.6748 36.0884 23.5446 36.0884C24.4143 36.0884 25.1126 36.7866 25.1126 37.6564C25.1126 38.5261 24.4143 39.2244 23.5446 39.2244Z" stroke="#172A3A" stroke-width="3" stroke-miterlimit="10" stroke-linecap="round" stroke-linejoin="round"/>
<path d="M26.6808 39.2244C25.811 39.2244 25.1128 38.5261 25.1128 37.6564C25.1128 36.7866 25.811 36.0884 26.6808 36.0884C27.5505 36.0884 28.2488 36.7866 28.2488 37.6564C28.2488 38.5261 27.5505 39.2244 26.6808 39.2244Z" stroke="#172A3A" stroke-width="3" stroke-miterlimit="10" stroke-linecap="round" stroke-linejoin="round"/>
<path d="M21.9766 48.6448H28.7018" stroke="#172A3A" stroke-width="3" stroke-miterlimit="10" stroke-linecap="round" stroke-linejoin="round"/>
<path d="M35.4268 48.6448H42.152" stroke="#172A3A" stroke-width="3" stroke-miterlimit="10" stroke-linecap="round" stroke-linejoin="round"/>
<path d="M48.8774 48.6448H55.6027" stroke="#172A3A" stroke-width="3" stroke-miterlimit="10" stroke-linecap="round" stroke-linejoin="round"/>
<path d="M62.3403 48.6448H69.0656" stroke="#172A3A" stroke-width="3" stroke-miterlimit="10" stroke-linecap="round" stroke-linejoin="round"/>
<path d="M59.645 58.0649H69.0653" stroke="#172A3A" stroke-width="3" stroke-miterlimit="10" stroke-linecap="round" stroke-linejoin="round"/>
<path d="M21.9766 58.0649H25.1126" stroke="#172A3A" stroke-width="3" stroke-miterlimit="10" stroke-linecap="round" stroke-linejoin="round"/>
<path d="M72.2752 80.4945L67.6202 83.2385C66.922 83.6428 66.0645 83.6428 65.3662 83.2385L60.7112 80.4945C52.5527 75.6925 47.5425 66.9338 47.5425 57.4768V45.0553C47.5425 42.985 48.9635 41.1965 50.9725 40.7188L65.4642 37.3133C66.138 37.154 66.8362 37.154 67.51 37.3133L82.0017 40.7188C84.0107 41.1965 85.4317 42.985 85.4317 45.0553V57.4645C85.444 66.9338 80.4337 75.6925 72.2752 80.4945Z" fill="#E84F35"/>
</svg>
