<svg width="98" height="99" viewBox="0 0 98 99" fill="none" xmlns="http://www.w3.org/2000/svg">
<path d="M74.6372 24.2153H41.5108C38.474 24.2153 36.0059 26.6835 36.0059 29.7203V30.2163C36.0059 33.2531 38.474 35.7213 41.5108 35.7213H74.6372C77.674 35.7213 80.1422 33.2531 80.1422 30.2163V29.7203C80.1301 26.6835 77.674 24.2153 74.6372 24.2153Z" fill="#E84F35"/>
<path d="M74.6372 44.7832H41.5108C38.474 44.7832 36.0059 47.2514 36.0059 50.2881V50.7842C36.0059 53.821 38.474 56.2891 41.5108 56.2891H74.6372C77.674 56.2891 80.1422 53.821 80.1422 50.7842V50.2881C80.1301 47.2514 77.674 44.7832 74.6372 44.7832Z" fill="#DEE7F3"/>
<path d="M74.6372 65.3511H41.5108C38.474 65.3511 36.0059 67.8192 36.0059 70.856V71.3521C36.0059 74.3888 38.474 76.857 41.5108 76.857H74.6372C77.674 76.857 80.1422 74.3888 80.1422 71.3521V70.856C80.1301 67.8192 77.674 65.3511 74.6372 65.3511Z" fill="#DEE7F3"/>
<path d="M14.8813 30.313L21.6325 35.7091L31.9769 21.9165" stroke="#172A3A" stroke-width="2.35524" stroke-miterlimit="10" stroke-linecap="round" stroke-linejoin="round"/>
<path d="M14.8813 50.8809L21.6325 56.277L31.9769 42.4844" stroke="#172A3A" stroke-width="2.35524" stroke-miterlimit="10" stroke-linecap="round" stroke-linejoin="round"/>
<path d="M14.8813 70.2388L21.6325 75.6349L31.9769 61.8423" stroke="#172A3A" stroke-width="2.35524" stroke-miterlimit="10" stroke-linecap="round" stroke-linejoin="round"/>
</svg>
