<svg width="160" height="38" viewBox="0 0 160 38" fill="none" xmlns="http://www.w3.org/2000/svg">
<path d="M71.0063 22.7216V17.643C71.0063 15.7267 69.8004 14.4367 67.8596 14.4198C67.3069 14.3836 66.7547 14.4983 66.2606 14.752C65.7665 15.0057 65.3486 15.389 65.0504 15.8621C64.7787 15.4031 64.3898 15.0268 63.9248 14.773C63.4598 14.5191 62.9359 14.3971 62.4082 14.4198C61.9487 14.3973 61.4913 14.4967 61.0813 14.708C60.6712 14.9194 60.3226 15.2355 60.0699 15.6251V14.6094H58.3296V22.7216H60.0866V18.2287C60.0866 16.8203 60.8549 16.0754 62.0441 16.0754C63.2332 16.0754 63.7844 16.8372 63.7844 18.2118V22.7216H65.5414V18.2287C65.5414 16.8203 66.3431 16.0754 67.4989 16.0754C68.6547 16.0754 69.2559 16.8372 69.2559 18.2118V22.7216H71.0063ZM97.0043 14.6162H94.1617V12.1582H92.4046V14.6162H90.7812V16.2278H92.4046V19.9216C92.4046 21.8041 93.1228 22.9247 95.1805 22.9247C95.949 22.9273 96.7027 22.7102 97.355 22.2984L96.8707 20.7884C96.4038 21.0702 95.874 21.2275 95.3308 21.2454C94.4623 21.2454 94.175 20.7037 94.175 19.8911V16.2278H97.0177L97.0043 14.6162ZM111.846 14.413C111.421 14.4005 111.001 14.5043 110.63 14.7135C110.259 14.9226 109.951 15.2294 109.738 15.6014V14.6162H108.014V22.7216H109.754V18.178C109.754 16.8237 110.322 16.0924 111.461 16.0924C111.834 16.0869 112.204 16.1559 112.55 16.2955L113.085 14.6331C112.687 14.4889 112.268 14.4145 111.846 14.413V14.413ZM89.4083 15.2595C88.423 14.6661 87.2902 14.3723 86.1448 14.413C84.1205 14.413 82.8044 15.3983 82.8044 17.0065C82.8044 18.3303 83.7765 19.1429 85.5636 19.3968L86.382 19.5153C87.334 19.6507 87.7882 19.9047 87.7882 20.3617C87.7882 20.9881 87.1536 21.347 85.9644 21.347C85.005 21.3779 84.0634 21.0796 83.2921 20.5006L82.5071 21.8718C83.5206 22.59 84.7349 22.9591 85.9711 22.9247C88.2793 22.9247 89.6188 21.821 89.6188 20.2805C89.6188 18.8551 88.5632 18.1102 86.8262 17.8563L86.0078 17.7378C85.2563 17.6362 84.6516 17.4839 84.6516 16.9422C84.6516 16.3497 85.2195 15.9942 86.1749 15.9942C87.0502 16.0073 87.9078 16.2462 88.6668 16.6882L89.4083 15.2595ZM136.02 14.413C135.595 14.4005 135.176 14.5043 134.805 14.7135C134.434 14.9226 134.125 15.2294 133.912 15.6014V14.6162H132.188V22.7216H133.929V18.178C133.929 16.8237 134.497 16.0924 135.636 16.0924C136.008 16.0869 136.378 16.1559 136.725 16.2955L137.259 14.6331C136.861 14.4889 136.442 14.4145 136.02 14.413V14.413ZM113.603 18.6689C113.603 21.1269 115.293 22.9247 117.868 22.9247C118.913 22.9771 119.938 22.6317 120.744 21.9564L119.919 20.5344C119.318 20.9988 118.584 21.2541 117.828 21.2624C116.439 21.2624 115.42 20.2263 115.42 18.6689C115.42 17.1115 116.442 16.0924 117.828 16.0754C118.584 16.0837 119.318 16.339 119.919 16.8034L120.754 15.378C119.948 14.7027 118.923 14.3573 117.878 14.4097C115.303 14.4097 113.613 16.2075 113.613 18.6655L113.603 18.6689ZM129.897 18.6689V14.606H128.157V15.5913C127.86 15.2032 127.476 14.8928 127.036 14.686C126.597 14.4793 126.115 14.3822 125.631 14.4029C123.39 14.4029 121.623 16.1838 121.623 18.6587C121.623 21.1337 123.38 22.9146 125.631 22.9146C126.115 22.9353 126.597 22.8382 127.036 22.6314C127.476 22.4247 127.86 22.1143 128.157 21.7262V22.7081H129.897V18.6689ZM123.423 18.6689C123.423 17.2435 124.342 16.0754 125.848 16.0754C127.288 16.0754 128.257 17.1961 128.257 18.6689C128.257 20.1417 127.288 21.2624 125.848 21.2624C124.342 21.2624 123.423 20.0909 123.423 18.6689ZM102.426 14.413C100.087 14.413 98.444 16.1431 98.444 18.6689C98.444 21.2454 100.151 22.9247 102.543 22.9247C103.737 22.9671 104.905 22.5622 105.823 21.7871L104.971 20.4803C104.307 21.019 103.484 21.317 102.633 21.3267C101.51 21.3267 100.492 20.8019 100.241 19.3426H106.19C106.207 19.1226 106.224 18.9025 106.224 18.6655C106.224 16.1398 104.667 14.4097 102.426 14.4097V14.413ZM102.392 15.9908C103.515 15.9908 104.233 16.7018 104.417 17.9579H100.268C100.452 16.7864 101.153 15.9908 102.392 15.9908V15.9908ZM146.044 18.6689V11.3591H144.304V15.598C144.007 15.21 143.623 14.8996 143.184 14.6928C142.744 14.486 142.262 14.389 141.779 14.4097C139.537 14.4097 137.77 16.1905 137.77 18.6655C137.77 21.1405 139.527 22.9214 141.779 22.9214C142.262 22.9424 142.744 22.8459 143.183 22.6397C143.622 22.4336 144.007 22.1238 144.304 21.7363V22.7182H146.044V18.6689ZM139.571 18.6689C139.571 17.2435 140.489 16.0754 141.996 16.0754C143.435 16.0754 144.404 17.1961 144.404 18.6689C144.404 20.1417 143.435 21.2624 141.996 21.2624C140.489 21.2624 139.571 20.0909 139.571 18.6689ZM80.8136 18.6689V14.606H79.0732V15.5913C78.7765 15.2032 78.3924 14.8928 77.9531 14.686C77.5137 14.4793 77.0319 14.3822 76.5479 14.4029C74.3065 14.4029 72.5395 16.1838 72.5395 18.6587C72.5395 21.1337 74.2965 22.9146 76.5479 22.9146C77.0319 22.9353 77.5137 22.8382 77.9531 22.6314C78.3924 22.4247 78.7765 22.1143 79.0732 21.7262V22.7081H80.8136V18.6689ZM74.3399 18.6689C74.3399 17.2435 75.2585 16.0754 76.765 16.0754C78.2047 16.0754 79.1735 17.1961 79.1735 18.6689C79.1735 20.1417 78.2047 21.2624 76.765 21.2624C75.2552 21.2624 74.3366 20.0943 74.3366 18.6689H74.3399ZM148.072 22.7318H147.978V22.3458L147.841 22.6844H147.761L147.644 22.3458V22.7318H147.567V22.2578H147.684L147.821 22.5963L147.958 22.2578H148.075L148.072 22.7318ZM148.386 22.2578C148.42 22.2572 148.454 22.263 148.486 22.2747C148.515 22.285 148.541 22.3011 148.563 22.3221C148.585 22.3429 148.602 22.3684 148.613 22.3966C148.625 22.4279 148.63 22.4612 148.63 22.4948C148.63 22.5283 148.625 22.5616 148.613 22.5929C148.602 22.6211 148.585 22.6465 148.563 22.6674C148.541 22.6884 148.515 22.7045 148.486 22.7148C148.453 22.7208 148.419 22.7208 148.386 22.7148H148.199V22.2408L148.386 22.2578ZM148.276 22.3289V22.6674H148.386C148.409 22.6717 148.433 22.6717 148.456 22.6674C148.475 22.6603 148.492 22.649 148.506 22.6344C148.519 22.6197 148.53 22.6021 148.536 22.5828C148.54 22.5604 148.54 22.5375 148.536 22.5151C148.54 22.4927 148.54 22.4698 148.536 22.4474C148.53 22.4284 148.52 22.4111 148.506 22.3966C148.492 22.3818 148.475 22.3703 148.456 22.3627C148.433 22.3585 148.409 22.3585 148.386 22.3627L148.276 22.3289Z" fill="#231F20"/>
<path d="M36.1227 9.03296H25.6006V28.1995H36.1227V9.03296Z" fill="#FF5F00"/>
<path d="M26.2686 18.6215C26.2672 16.7759 26.6799 14.9542 27.4757 13.2942C28.2714 11.6342 29.4293 10.1794 30.8616 9.03988C29.0876 7.62676 26.9571 6.74802 24.7137 6.5041C22.4702 6.26018 20.2043 6.66092 18.175 7.66052C16.1456 8.66011 14.4346 10.2182 13.2376 12.1568C12.0406 14.0954 11.4058 16.3362 11.4058 18.6231C11.4058 20.9101 12.0406 23.1509 13.2376 25.0895C14.4346 27.0281 16.1456 28.5862 18.175 29.5858C20.2043 30.5854 22.4702 30.9861 24.7137 30.7422C26.9571 30.4983 29.0876 29.6195 30.8616 28.2064C29.4288 27.0666 28.2707 25.6112 27.4749 23.9506C26.6792 22.29 26.2667 20.4676 26.2686 18.6215V18.6215Z" fill="#EB001B"/>
<path d="M49.4374 26.1783H49.3606V25.789L49.2236 26.1275H49.1435L49.0065 25.789V26.1749H48.9297V25.7009H49.0466L49.1836 26.0395L49.3205 25.7009H49.4374V26.1783ZM49.7715 25.6942H49.8316L49.885 25.7145L49.9318 25.745C49.9448 25.7568 49.9561 25.7705 49.9652 25.7856L49.9017 25.8296C49.8882 25.8086 49.8699 25.7911 49.8483 25.7788C49.8245 25.7667 49.7981 25.7608 49.7715 25.7619C49.7494 25.7576 49.7267 25.7576 49.7047 25.7619C49.6848 25.7694 49.6666 25.7809 49.6512 25.7957C49.6366 25.8114 49.6253 25.8298 49.6178 25.8499C49.6014 25.8947 49.6014 25.9439 49.6178 25.9887C49.6253 26.0088 49.6366 26.0273 49.6512 26.0429C49.6666 26.0577 49.6848 26.0692 49.7047 26.0768C49.7267 26.0811 49.7494 26.0811 49.7715 26.0768C49.797 26.0773 49.8223 26.0715 49.8451 26.0596C49.8678 26.0478 49.8873 26.0304 49.9017 26.009L49.9619 26.0531C49.9515 26.0682 49.9391 26.0819 49.9251 26.0937L49.8817 26.1242L49.8282 26.1445H49.7681C49.7339 26.1455 49.6999 26.1397 49.6679 26.1275C49.6391 26.1161 49.613 26.0988 49.5912 26.0767C49.5693 26.0545 49.5522 26.028 49.541 25.9989C49.5167 25.9357 49.5167 25.8657 49.541 25.8025C49.5523 25.7734 49.5693 25.7469 49.5911 25.7246C49.6131 25.7027 49.6392 25.6854 49.6679 25.6739C49.7034 25.6733 49.7387 25.6802 49.7715 25.6942V25.6942Z" fill="#F79E1B"/>
<path d="M50.3194 18.6214C50.3194 20.9085 49.6844 23.1494 48.4872 25.0881C47.29 27.0267 45.5787 28.5848 43.5491 29.5843C41.5195 30.5837 39.2534 30.9842 37.0098 30.7399C34.7662 30.4957 32.6357 29.6165 30.8618 28.2029C32.2936 27.0624 33.4511 25.6073 34.2471 23.9472C35.043 22.2871 35.4566 20.4654 35.4566 18.6197C35.4566 16.7739 35.043 14.9523 34.2471 13.2922C33.4511 11.6321 32.2936 10.1769 30.8618 9.03641C32.6359 7.62267 34.7667 6.74346 37.0106 6.49932C39.2545 6.25518 41.5209 6.65595 43.5506 7.65581C45.5803 8.65568 47.2915 10.2143 48.4885 12.1534C49.6855 14.0926 50.32 16.334 50.3194 18.6214Z" fill="#F79E1B"/>
</svg>
