<svg xmlns="http://www.w3.org/2000/svg" width="80" height="88" fill="none"><path d="M63.813 39.78H27.496a1.6 1.6 0 0 1-1.596-1.596V12.192a1.6 1.6 0 0 1 1.596-1.596h36.317a1.6 1.6 0 0 1 1.596 1.596v25.992c0 .88-.71 1.596-1.596 1.596z" fill="#dee7f3"/><g filter="url(#A)"><path d="M42.312 34.124l-2.601-3.373c-1.085-1.397-2.737-2.215-4.492-2.215H16.763c-1.698 0-3.067 1.38-3.067 3.089v3.583 2.226V67.84a2.23 2.23 0 0 0 2.226 2.243h48.572a2.23 2.23 0 0 0 2.226-2.243V37.457a2.23 2.23 0 0 0-2.226-2.243H44.521c-.858.006-1.681-.403-2.209-1.09z" fill="#e84f35"/></g><path d="M20.704 25.265v-6.792a1.6 1.6 0 0 1 1.596-1.596h36.317a1.6 1.6 0 0 1 1.596 1.596v13.459" stroke="#172a3a" stroke-width="1.143" stroke-miterlimit="10" stroke-linecap="round" stroke-linejoin="round"/><path d="M47.906 24.549h7.825v1.278h-7.825v-1.278zm0 1.88h7.825v1.272h-7.825v-1.272zm1.936 4.986c-.63-.227-1.107-.557-1.437-.988-.329-.426-.494-.948-.494-1.55v-.011c0-.392.091-.75.261-1.068s.426-.608.75-.863l2.26.238c-.471.108-.829.261-1.073.46-.244.204-.369.5-.369.897v.006a1.22 1.22 0 0 0 .625 1.107c.415.261.999.392 1.749.392.602 0 1.175-.091 1.709-.273a4.55 4.55 0 0 0 1.454-.806l.988 1.442c-.363.295-.761.551-1.198.75a6.55 6.55 0 0 1-1.403.454 7.79 7.79 0 0 1-1.562.153c-.874-.011-1.63-.119-2.26-.341zm2.874-6.395c.023-.006.04-.011.068-.023.233-.074.432-.165.596-.273a1.14 1.14 0 0 0 .386-.403c.091-.159.136-.363.136-.596v-.006a1.21 1.21 0 0 0-.579-1.073c-.392-.255-.937-.38-1.647-.38-.432 0-.869.079-1.312.233-.449.153-.892.386-1.318.687l-.897-1.488a6.39 6.39 0 0 1 1.136-.63 7.12 7.12 0 0 1 1.193-.386 5.85 5.85 0 0 1 1.21-.136c.857 0 1.59.119 2.198.352s1.073.574 1.391 1.022c.324.449.477.988.477 1.619v.006c0 .63-.193 1.164-.579 1.613l-2.504-.114c.006-.011.029-.017.045-.023z" fill="#e84f35"/><defs><filter id="A" x="1.674" y="21.924" width="77.067" height="65.59" filterUnits="userSpaceOnUse" color-interpolation-filters="sRGB"><feFlood flood-opacity="0" result="A"/><feColorMatrix in="SourceAlpha" values="0 0 0 0 0 0 0 0 0 0 0 0 0 0 0 0 0 0 127 0"/><feOffset dy="5.40972"/><feGaussianBlur stdDeviation="6.011"/><feColorMatrix values="0 0 0 0 0.933333 0 0 0 0 0.0855556 0 0 0 0 0.0855556 0 0 0 0.1 0"/><feBlend in2="A"/><feBlend in="SourceGraphic"/></filter></defs></svg>