<svg xmlns="http://www.w3.org/2000/svg" width="82" height="80" fill="none"><path d="M58.891 71.262H21.986c-1.445 0-2.622-.886-2.622-1.977V42.673c0-1.09 1.171-1.977 2.622-1.977h36.905c1.445 0 2.621.886 2.621 1.977V69.29c-.005 1.085-1.182 1.971-2.621 1.971z" fill="#ebf1f7"/><path d="M63.07 61.7H18.252c-1.757 0-3.18-1.074-3.18-2.401V26.976c0-1.327 1.423-2.401 3.18-2.401H63.07c1.757 0 3.18 1.074 3.18 2.401v32.322c-.005 1.327-1.429 2.401-3.18 2.401z" fill="#dee7f3"/><g filter="url(#A)"><path d="M66.084 51.987H15.293c-1.993 0-3.604-1.219-3.604-2.724V12.638c0-1.504 1.611-2.724 3.605-2.724h50.791c1.993 0 3.605 1.219 3.605 2.724v36.631c-.005 1.499-1.622 2.718-3.605 2.718z" fill="#e84f35"/></g><path d="M54.582 20.975h7.402v1.209h-7.402v-1.209zm0 1.778h7.402v1.203h-7.402v-1.203zm1.832 4.717c-.596-.215-1.047-.526-1.359-.935-.312-.403-.467-.897-.467-1.466v-.011c0-.371.086-.709.247-1.01s.403-.575.709-.817l2.138.226c-.446.102-.784.247-1.015.435-.231.193-.349.473-.349.849v.005c0 .457.193.8.591 1.048.392.247.946.371 1.655.371a5 5 0 0 0 1.617-.258c.51-.172.972-.43 1.375-.763l.935 1.364c-.344.279-.72.521-1.134.709a6.19 6.19 0 0 1-1.327.43c-.473.097-.967.145-1.477.145-.833-.011-1.547-.113-2.138-.322zm2.713-6.049c.021-.005.038-.011.064-.021a2.29 2.29 0 0 0 .564-.258c.156-.102.279-.226.365-.381.086-.15.129-.344.129-.564v-.005c0-.435-.183-.779-.548-1.015-.371-.242-.886-.36-1.558-.36a3.78 3.78 0 0 0-1.241.22c-.43.145-.843.365-1.246.65l-.849-1.407a6.05 6.05 0 0 1 1.074-.596c.371-.156.747-.279 1.128-.365.381-.081.763-.129 1.144-.129.811 0 1.504.113 2.079.333s1.015.543 1.316.967c.306.424.451.935.451 1.531v.005c0 .596-.183 1.101-.548 1.526l-2.369-.108c.005-.011.027-.016.043-.021z" fill="#fff"/><path d="M16.501 38.359h25.226m-25.226 7.203h18.065" stroke="#fff" stroke-width="2.717" stroke-miterlimit="10" stroke-linecap="round"/><path d="M32.386 14.368v20.096l-8.246-4.776-8.246 4.776V8.996" stroke="#172a3a" stroke-width="1.143" stroke-miterlimit="10" stroke-linecap="round" stroke-linejoin="round"/><path d="M24.14 16.936l1.751 3.545 3.905.564-2.826 2.756.666 3.895-3.497-1.837-3.492 1.837.666-3.895-2.826-2.756 3.905-.564 1.746-3.545z" fill="#fff"/><defs><filter id="A" x=".316" y="3.66" width="80.743" height="64.816" filterUnits="userSpaceOnUse" color-interpolation-filters="sRGB"><feFlood flood-opacity="0" result="A"/><feColorMatrix in="SourceAlpha" values="0 0 0 0 0 0 0 0 0 0 0 0 0 0 0 0 0 0 127 0"/><feOffset dy="5.11724"/><feGaussianBlur stdDeviation="5.686"/><feColorMatrix values="0 0 0 0 0.933333 0 0 0 0 0.0855556 0 0 0 0 0.0855556 0 0 0 0.1 0"/><feBlend in2="A"/><feBlend in="SourceGraphic"/></filter></defs></svg>