<svg xmlns="http://www.w3.org/2000/svg" width="85" height="80" fill="none"><style><![CDATA[.B{stroke-miterlimit:10}.C{stroke-linecap:round}.D{stroke:#fff}.E{stroke-width:2.523}]]></style><path d="M57.935 69.711H26.493c-1.235 0-2.232-.755-2.232-1.682V45.354c0-.933.997-1.682 2.232-1.682h31.442c1.235 0 2.232.755 2.232 1.682v22.674c0 .933-1.003 1.682-2.232 1.682z" fill="#ebf1f7"/><path d="M65.986 53.044v4.751c-.005 1.23-1.326 2.227-2.955 2.227H21.403c-1.634 0-2.955-.998-2.955-2.232v-4.745" stroke="#172a3a" stroke-width="1.124" stroke-linejoin="round" class="B C"/><g filter="url(#A)"><path d="M68.116 10.596H16.312c-2.707 0-4.912 2.2-4.912 4.902v28.983a4.91 4.91 0 0 0 4.912 4.902h51.803a4.91 4.91 0 0 0 4.912-4.902V15.498c0-2.702-2.205-4.901-4.912-4.901z" fill="#e84f35"/><path d="M19.612 33.95h7.075" class="B C D E"/><path d="M31.858 33.95h7.075" class="B C D E"/><path d="M44.109 33.95h7.069" class="B C D E"/><path d="M56.355 33.95h7.069" class="B C D E"/><path opacity=".81" d="M23.334 22.518c.933.005 1.704.679 1.839 1.548l4.001.027.011-2.292c.005-1.057-.879-1.92-1.968-1.93l-8.083-.054c-1.089-.005-1.979.847-1.984 1.904l-.005.76 6.19.038z" fill="#ff6a51"/><path opacity=".81" d="M25.166 24.627c-.14.868-.917 1.531-1.849 1.526l-6.19-.038v-.555l6.196.038c.717.005 1.3-.555 1.305-1.251a1.29 1.29 0 0 0-1.294-1.267l-6.196-.038-.011 3.575c-.005 1.057.879 1.92 1.968 1.931l8.083.054c1.089.005 1.979-.847 1.984-1.904l.005-2.033-4.001-.038z" fill="#ff6a51"/></g><defs><filter id="A" x=".175" y="4.423" width="84.077" height="61.236" filterUnits="userSpaceOnUse" color-interpolation-filters="sRGB"><feFlood flood-opacity="0" result="A"/><feColorMatrix in="SourceAlpha" values="0 0 0 0 0 0 0 0 0 0 0 0 0 0 0 0 0 0 127 0"/><feOffset dy="5.05105"/><feGaussianBlur stdDeviation="5.612"/><feColorMatrix values="0 0 0 0 0.933333 0 0 0 0 0.0855556 0 0 0 0 0.0855556 0 0 0 0.1 0"/><feBlend in2="A"/><feBlend in="SourceGraphic"/></filter></defs></svg>