<svg xmlns="http://www.w3.org/2000/svg" width="91" height="32" fill="none" xmlns:v="https://vecta.io/nano"><g clip-path="url(#A)" fill-rule="evenodd" fill="#b4bfc9"><path d="M85.298 12.546c0-.975.769-1.771 1.692-1.771.948 0 1.692.795 1.692 1.771s-.744 1.771-1.692 1.771c-.923.025-1.692-.77-1.692-1.771zm1.692 1.386c.719 0 1.278-.615 1.278-1.361s-.589-1.361-1.278-1.361c-.719 0-1.283.615-1.283 1.361s.564 1.361 1.283 1.361zm-.235-.59h-.359v-1.566h.639c.13 0 .279 0 .384.075.13.075.18.23.18.385 0 .18-.105.335-.255.385l.279.695h-.384l-.23-.615h-.255v.64zm0-.87h.205c.075 0 .155 0 .205-.025s.075-.105.075-.18c0-.05-.025-.13-.075-.155s-.155-.025-.205-.025h-.18l-.025.385zM61.104.72l-.459 3.026c-.998-.54-1.742-.745-2.536-.745-2.101 0-3.584 2.156-3.584 5.207 0 2.106.998 3.387 2.636 3.387.694 0 1.458-.23 2.406-.72l-.484 3.182c-1.048.31-1.717.41-2.511.41-3.045 0-4.941-2.311-4.941-6.003C51.63 3.492 54.241 0 58.005 0c.484 0 .923.05 1.278.155l1.178.31.644.255zm-9.398 2.076c-.075-.025-.18-.025-.279-.025-.923 0-1.458.485-2.331 1.846l.255-1.721H46.79l-1.742 11.315h2.84c1.023-6.928 1.278-8.109 2.635-8.109h.205c.255-1.361.589-2.361 1.073-3.287l-.095-.02zM34.78 14.062c-.769.255-1.383.385-2.022.385-1.433 0-2.226-.87-2.226-2.491a7.64 7.64 0 0 1 .075-1.026l.18-1.105.13-.9 1.228-7.724h2.815l-.334 1.666h1.457l-.409 2.746h-1.432l-.744 4.722-.05.46c0 .59.309.845.973.845.334 0 .564-.025.769-.105l-.409 2.526zM23.618 6.468c0 1.436.664 2.411 2.151 3.156 1.128.565 1.333.745 1.333 1.256 0 .695-.514 1.025-1.612 1.025-.843 0-1.612-.13-2.536-.46l-.384 2.616.13.025.514.105.744.1 1.562.105c2.97 0 4.352-1.206 4.352-3.772 0-1.541-.564-2.461-1.996-3.156-1.178-.565-1.308-.695-1.308-1.231 0-.615.459-.925 1.383-.925.564 0 1.308.075 2.022.18l.409-2.616c-.744-.13-1.842-.23-2.486-.23-3.205-.005-4.303 1.716-4.278 3.822zm60.043 7.724h-2.69l.13-1.105c-.769.87-1.587 1.256-2.611 1.256-2.076 0-3.429-1.871-3.429-4.697 0-3.772 2.101-6.953 4.607-6.953 1.103 0 1.922.485 2.715 1.541l.614-3.977h2.79l-2.126 13.937zm-4.173-2.646c1.333 0 2.251-1.566 2.251-3.822 0-1.436-.539-2.231-1.512-2.231-1.278 0-2.201 1.591-2.201 3.797 0 1.486.489 2.256 1.462 2.256zm-35.744 2.416a9.33 9.33 0 0 1-2.92.46c-3.15 0-4.812-1.746-4.812-5.082 0-3.902 2.101-6.748 4.941-6.748 2.331 0 3.814 1.616 3.814 4.132 0 .82-.105 1.641-.359 2.796h-5.63c-.025.18-.025.255-.025.36 0 1.336.844 2.001 2.486 2.001.998 0 1.922-.23 2.945-.72l-.439 2.801zm-1.587-6.753c.025-.23.025-.435.025-.565 0-.925-.484-1.461-1.333-1.461-.898 0-1.537.72-1.792 2.026h3.1zm-29.909 6.983H9.433l1.612-10.7-3.634 10.7H5.49L5.26 3.567 3.543 14.192H.907L3.109.28h4.068l.105 8.624L10.047.28h4.403l-2.201 13.912zm7.297-5.033l-.639-.05c-1.612 0-2.406.59-2.406 1.721 0 .695.409 1.156 1.023 1.156 1.128 0 1.972-1.155 2.022-2.826zm2.052 5.032h-2.356l.05-1.181c-.719.95-1.662 1.361-2.97 1.361-1.537 0-2.586-1.256-2.586-3.081 0-2.771 1.842-4.362 4.966-4.362a9.86 9.86 0 0 1 1.153.075c.075-.385.105-.54.105-.745 0-.745-.484-1.025-1.817-1.025-.794 0-1.717.13-2.356.335l-.359.13-.255.075.384-2.541c1.408-.435 2.356-.615 3.379-.615 2.431 0 3.714 1.156 3.714 3.312 0 .565-.05.975-.23 2.256l-.564 4.027-.105.72-.075.565-.05.41-.03.285zm44.394-5.032l-.639-.05c-1.612 0-2.431.59-2.431 1.721 0 .695.409 1.156 1.023 1.156 1.153 0 1.997-1.156 2.047-2.826zm2.051 5.032h-2.356l.05-1.181c-.719.95-1.662 1.361-2.97 1.361-1.537 0-2.586-1.256-2.586-3.081 0-2.771 1.842-4.362 4.967-4.362.309 0 .744.025 1.153.075.075-.385.1-.54.1-.745 0-.745-.484-1.025-1.817-1.025-.794 0-1.717.13-2.356.335l-.409.105-.255.075.384-2.541c1.408-.435 2.356-.615 3.379-.615 2.431 0 3.714 1.156 3.714 3.312 0 .565-.05.975-.23 2.256l-.589 4.002-.075.72-.075.565-.05.385.02.36zm7.912-11.395c-.075-.025-.18-.025-.279-.025-.923 0-1.457.485-2.331 1.846l.255-1.721h-2.561l-1.742 11.315h2.84c1.023-6.928 1.278-8.109 2.635-8.109h.205c.255-1.361.614-2.361 1.073-3.287l-.095-.02zM64.075 25.197c0 2.566-.794 4.082-2.047 4.082-.923.025-1.457-1-1.457-2.516 0-1.796.819-3.847 2.101-3.847 1.043 0 1.403 1.101 1.403 2.281zm2.79.025c0-2.846-1.408-5.082-4.048-5.082-3.045 0-5.016 2.696-5.016 6.673 0 2.846 1.178 5.182 4.043 5.182 2.895.005 5.021-2.051 5.021-6.773zm-8.171-7.054l-.434 3.026c-.948-.54-1.612-.745-2.356-.745-1.972 0-3.354 2.156-3.354 5.207 0 2.106.923 3.387 2.456 3.387.664 0 1.383-.23 2.251-.72l-.459 3.182c-.973.31-1.612.41-2.356.41-2.84 0-4.632-2.311-4.632-6.003 0-4.977 2.456-8.469 5.965-8.469.459 0 .844.05 1.178.155l1.073.31c.364.105.439.13.669.26zm-17.486 2.051c-.075-.025-.18-.025-.279-.025-.869 0-1.358.485-2.176 1.846l.255-1.721h-2.381l-1.617 11.32h2.636c.948-6.928 1.203-8.109 2.456-8.109a.75.75 0 0 1 .205.025c.23-1.361.564-2.361.998-3.286l-.095-.05zm34.516 11.316h-2.511l.13-1.105c-.719.87-1.487 1.256-2.456 1.256-1.922 0-3.2-1.871-3.2-4.697 0-3.772 1.972-6.953 4.303-6.953 1.023 0 1.817.485 2.536 1.566l.589-3.977h2.611l-2.002 13.912zm-3.918-2.666c1.253 0 2.101-1.566 2.101-3.822 0-1.436-.484-2.206-1.408-2.206-1.203 0-2.046 1.566-2.046 3.797-.005 1.486.454 2.231 1.353 2.231zm-55.385 2.616a8.11 8.11 0 0 1-2.715.46c-2.945 0-4.482-1.746-4.482-5.082 0-3.877 1.972-6.748 4.607-6.748 2.176 0 3.559 1.591 3.559 4.132 0 .82-.105 1.641-.334 2.796h-5.241c-.025.18-.025.255-.025.36 0 1.311.794 1.976 2.331 1.976.948 0 1.792-.23 2.74-.72l-.439 2.826zm-1.482-6.748l.025-.565c0-.925-.459-1.461-1.253-1.461-.844 0-1.433.72-1.692 2.026h2.92zm32.928 6.748a8.11 8.11 0 0 1-2.715.46c-2.97 0-4.507-1.746-4.507-5.082 0-3.877 1.972-6.748 4.607-6.748 2.176 0 3.584 1.591 3.584 4.132 0 .82-.105 1.641-.334 2.796h-5.246c-.025.18-.025.255-.025.36 0 1.311.794 1.976 2.331 1.976.948 0 1.792-.23 2.74-.72l-.434 2.826zm-1.488-6.748c.025-.23.025-.435.025-.565 0-.925-.459-1.461-1.253-1.461-.843 0-1.432.72-1.692 2.026h2.92zm38.355 6.748c-.923.31-1.792.46-2.715.46-2.945 0-4.507-1.746-4.507-5.082 0-3.877 1.972-6.748 4.632-6.748 2.176 0 3.559 1.591 3.559 4.132 0 .82-.1 1.641-.335 2.796h-5.251c-.025.18-.025.255-.025.36 0 1.311.794 1.976 2.331 1.976.948 0 1.792-.23 2.74-.72l-.429 2.826zm-1.482-6.748l.025-.565c0-.925-.459-1.461-1.253-1.461-.844 0-1.433.72-1.692 2.026h2.92zM8.589 20.735c-.514-.36-1.228-.64-2.201-.64-1.073 0-1.922.23-1.922 1.361 0 2.001 3.893 1.256 3.893 5.568 0 3.927-2.561 4.952-4.892 4.952-1.023 0-2.226-.335-3.1-.745l.639-2.876c.539.485 1.587.82 2.486.82.844 0 2.126-.23 2.126-1.696 0-2.286-3.893-1.436-3.893-5.442 0-3.672 2.281-4.747 4.482-4.747 1.228 0 2.406.18 3.075.64l-.694 2.806zm15.563 10.75c-.539.255-1.278.435-2.356.435-2.306 0-3.739-2.311-3.739-5.132 0-3.697 2.076-6.618 5.121-6.618.664 0 1.692.28 2.486.745l-.589 2.696c-.564-.385-1.153-.615-1.767-.615-1.408 0-2.431 1.311-2.431 3.617 0 1.336.744 2.436 1.897 2.436.694 0 1.178-.155 1.767-.485l-.389 2.921zm9.889-2.846l-.334 2.926h-2.536l.205-1.821h-.025c-.794 1.231-1.612 2.081-3.075 2.081-1.587 0-2.456-1.696-2.456-3.877 0-.77.05-1.181.205-2.361l.719-5.232h2.84l-.769 5.262c-.075.565-.18 1.13-.18 1.721 0 .665.31 1.336 1.073 1.281 1.153 0 1.842-1.411 2.047-3.082l.794-5.182h2.74l-1.248 8.284zm53.333 2.796h-.439v-1.876h-.614v-.41h1.667v.41h-.614v1.876zm2.841 0h-.409v-1.901l-.384 1.901h-.409l-.384-1.901v1.901h-.409v-2.286h.639l.359 1.796h.025l.359-1.796h.614v2.286z"/></g><defs><clipPath id="A"><path fill="#fff" transform="translate(.368)" d="M0 0h89.846v32H0z"/></clipPath></defs></svg>