<svg xmlns="http://www.w3.org/2000/svg" width="82" height="32" fill="none" xmlns:v="https://vecta.io/nano"><g fill="#b4bfc9"><path d="M55.781 18.176l.817.251c-.054.237-.136.432-.259.585s-.259.279-.436.348c-.177.084-.395.125-.667.125-.327 0-.586-.042-.803-.139-.204-.098-.381-.265-.531-.516-.15-.237-.231-.558-.231-.934 0-.502.136-.892.395-1.171s.64-.404 1.116-.404c.381 0 .667.084.885.237s.381.39.477.725l-.817.181c-.027-.098-.054-.167-.095-.209-.054-.07-.109-.126-.191-.167s-.163-.056-.245-.056a.52.52 0 0 0-.477.265c-.082.125-.123.335-.123.599 0 .335.054.571.15.697s.245.195.422.195.313-.056.395-.153a.96.96 0 0 0 .218-.46z"/><path d="M56.924 17.895c0-.502.136-.892.408-1.171s.654-.418 1.144-.418c.504 0 .885.139 1.157.404.272.279.408.655.408 1.157 0 .362-.055.655-.177.878a1.28 1.28 0 0 1-.517.53c-.218.125-.504.195-.83.195-.34 0-.613-.056-.844-.167a1.33 1.33 0 0 1-.545-.53c-.15-.251-.204-.516-.204-.878zm.926 0c0 .307.054.53.163.669s.259.209.463.209a.58.58 0 0 0 .463-.195c.109-.139.163-.376.163-.711 0-.293-.055-.502-.177-.627-.109-.139-.272-.195-.463-.195s-.34.07-.449.209c-.109.111-.163.334-.163.641zm2.668-1.532h1.212l.463 1.868.463-1.868h1.212v3.066h-.762v-2.341l-.585 2.341h-.681l-.585-2.341v2.341h-.762v-3.066h.027zm3.948 0h1.539c.34 0 .585.084.749.251s.245.39.245.697-.095.557-.272.725c-.177.181-.463.265-.831.265h-.504v1.143h-.926v-3.08zm.926 1.31h.231c.177 0 .299-.028.381-.098.068-.07.109-.139.109-.237a.34.34 0 0 0-.095-.251c-.068-.07-.177-.098-.354-.098h-.259v.683h-.014zm2.097-1.31h.926v2.314h1.443v.753h-2.369v-3.066zm2.832 0h.926v3.066h-.926v-3.066zm3.431 2.55h-1.048l-.15.502h-.939l1.13-3.066h1.008l1.13 3.066h-.967l-.163-.502zm-.191-.655l-.327-1.101-.327 1.101h.653zm1.607-1.895h.858l1.13 1.7v-1.7h.871v3.066h-.871l-1.116-1.686v1.686h-.871v-3.066zm3.267 0h2.818v.753h-.939v2.314h-.926v-2.314h-.939v-.753h-.014zm-33.792 4.668l2.682-.864-.871-1.979c-.64.822-1.28 1.882-1.811 2.843zm-.912-9.045L38.475 0 0 2.23 10.66 32l20.517-6.62c-1.307-1.923-1.783-4.209-.272-5.324 1.688-1.254 4.234.195 5.854 2.244 1.566-2.676 5.963-8.906 6.971-10.314z"/></g><path d="M37.277 8.662c1.607 0 2.914-1.254 2.914-2.815s-1.307-2.815-2.914-2.815-2.914 1.254-2.914 2.815c0 1.547 1.307 2.815 2.914 2.815zm-2.383 1.213h4.765v12.753h-4.765V9.874zm-2.355 3.72c.041.014.068 0 .068-.042V10.32c0-.042-.027-.084-.068-.111 0 0-.626-.418-2.532-.53-.095-.056-1.77-.07-2.219 0-6.943.571-7.202 5.714-7.202 5.937v1.254c0 .153 0 5.408 7.202 5.868.708.056 2.083 0 2.219 0 1.661 0 2.805-.516 2.805-.516.041-.014.068-.056.068-.098V19.1c0-.042-.027-.056-.054-.028 0 0-.517.418-2.777.655-.64.07-.953.042-1.184 0-3.213-.558-3.363-2.955-3.363-2.955 0-.042-.014-.112-.014-.139v-.92c0-.042 0-.111.014-.139 0 0 .218-2.578 3.363-2.857h1.185a6.99 6.99 0 0 1 2.491.878zM7.352 22.586c0 .042.027.07.068.07h4.643c.041 0 .068-.028.068-.07v-3.707c0-.042.027-.07.068-.07 0 0 7.42.544 7.42-4.543 0-4.028-4.656-4.46-6.181-4.39H7.42c-.041 0-.068.028-.068.07v12.641zm4.697-6.606v-3.331h1.144s1.647.07 1.784 1.226a2.85 2.85 0 0 1 0 .683c-.218 1.352-1.647 1.422-1.647 1.422h-1.28z" fill="#fefefe"/><path d="M37.413 28.78c.381 0 .681 0 1.171-.223 1.688-.906 7.393-15.164 13.41-19.554a.42.42 0 0 0 .109-.111c.041-.056.041-.111.041-.111s0-.293-.885-.293c-5.351-.153-10.919 11.345-13.846 15.888-.041.056-.231 0-.231 0s-1.961-2.369-3.662-3.275c-.041-.014-.231-.084-.436-.07-.136 0-.926.167-1.293.557-.436.474-.422.739-.422 1.31 0 .042.027.237.082.335.422.753 2.315 3.429 3.88 4.906.231.181.599.641 2.083.641zM53.574 4.699h4.452c.885 0 1.593.125 2.124.362a3.47 3.47 0 0 1 1.334 1.045 4.28 4.28 0 0 1 .762 1.589c.163.599.245 1.24.245 1.923 0 1.059-.123 1.881-.354 2.467a4.08 4.08 0 0 1-.98 1.477c-.422.39-.871.655-1.348.794-.654.181-1.253.265-1.784.265h-4.452V4.699zm2.995 2.244v5.422h.735c.626 0 1.076-.07 1.334-.209s.477-.39.626-.739.231-.934.231-1.728c0-1.059-.163-1.77-.504-2.16s-.885-.585-1.675-.585h-.749zm6.753 4.403l2.859-.181c.068.474.191.836.381 1.087.313.404.749.599 1.321.599.422 0 .762-.098.994-.307s.354-.446.354-.711c0-.251-.109-.488-.327-.697s-.735-.39-1.538-.572c-1.321-.307-2.246-.711-2.818-1.212s-.844-1.143-.844-1.923c0-.516.15-.99.436-1.449s.722-.808 1.307-1.073 1.375-.39 2.383-.39c1.239 0 2.192.237 2.832.711.653.474 1.035 1.226 1.157 2.258l-2.832.167c-.082-.446-.231-.767-.476-.976s-.572-.307-.994-.307c-.354 0-.613.07-.79.223s-.259.334-.259.557c0 .153.068.307.218.432.136.125.477.251 1.008.362 1.307.293 2.246.585 2.818.878s.98.669 1.239 1.101.381.934.381 1.477a3.19 3.19 0 0 1-.517 1.756c-.34.543-.831.948-1.443 1.226s-1.402.418-2.342.418c-1.647 0-2.791-.321-3.431-.976-.626-.655-.98-1.477-1.076-2.481zm9.572 0l2.859-.181c.068.474.191.836.381 1.087.313.404.749.599 1.321.599.422 0 .762-.098.994-.307s.354-.446.354-.711c0-.251-.109-.488-.327-.697s-.735-.39-1.538-.571c-1.321-.307-2.246-.711-2.818-1.213-.558-.502-.844-1.143-.844-1.923 0-.516.15-.99.436-1.449s.722-.808 1.307-1.073 1.375-.39 2.383-.39c1.239 0 2.192.237 2.832.711.653.474 1.035 1.226 1.157 2.258l-2.832.167c-.082-.446-.231-.767-.477-.976s-.572-.307-.994-.307c-.354 0-.613.07-.79.223s-.259.334-.259.557c0 .153.068.307.218.432.136.125.477.251 1.007.362 1.307.293 2.246.585 2.818.878s.98.669 1.239 1.101.381.934.381 1.477a3.19 3.19 0 0 1-.517 1.756c-.34.544-.831.948-1.443 1.226s-1.402.418-2.342.418c-1.647 0-2.791-.321-3.431-.976s-.994-1.477-1.076-2.481z" fill="#b4bfc9"/></svg>