<svg xmlns="http://www.w3.org/2000/svg" width="79" height="15" fill="#b4bfc9" xmlns:v="https://vecta.io/nano"><path d="M30.047 14.431c-.864-.316-1.786-.534-2.584-.966-2.752-1.495-4.177-4.584-3.555-7.503A7.28 7.28 0 0 1 30.282.175c.59-.066 1.193-.01 1.915-.01L30.9 2.073c-.057.08-.233.094-.357.112-2.616.393-4.376 2.179-4.655 4.726-.298 2.733 2.092 5.353 4.924 5.498 3.055.156 5.682-2.177 5.613-5.223-.014-.616-.263-1.224-.373-1.842-.035-.197-.041-.447.055-.608.314-.528.682-1.026 1.06-1.581a6.77 6.77 0 0 1 1.286 3.057c.63 3.939-2.215 7.529-6.031 8.133-.061.01-.116.056-.174.085l-2.202.001zM78.81 5.685c-.029.057-.071.11-.085.169-.44 1.925-1.838 3.058-3.887 3.125l-2.216.004v2.456 2.397H69.93V.719l1.652.002 3.791.112c1.772.204 2.933 1.342 3.333 3.029.022.093.067.18.102.269v1.554zm-6.157 1.054c.608 0 1.194.056 1.764-.013.977-.116 1.583-.802 1.669-1.775.071-.809-.432-1.636-1.251-1.829-.696-.163-1.431-.166-2.183-.244v3.861zM.041.747h10.79v13.089H8.128V3.076H2.744v10.753H.041V.747zm16.194 8.238v4.852H13.57V.787c.009-.008.034-.047.058-.047l5.443.11c1.857.166 3.215 1.694 3.35 3.512.113 1.525-.203 2.909-1.576 3.868-.725.507-1.56.722-2.44.752l-2.169.004zm.03-2.233l1.652-.007c.957-.068 1.578-.65 1.751-1.581.155-.836-.242-1.649-1-1.979-.771-.336-1.582-.251-2.404-.216v3.784zm34.103 3.695l-.013 2.695a.53.53 0 0 1-.275.382c-4.598 1.953-9.515-.626-10.124-5.125-.376-2.771.394-5.192 2.837-6.811 2.27-1.504 4.767-1.565 7.279-.499.136.058.278.278.282.425.027.857.013 1.714.013 2.699-1.052-1.04-2.245-1.56-3.661-1.444a4.22 4.22 0 0 0-3.337 1.958c-1.26 1.905-.933 4.559.732 5.993 1.781 1.533 4.125 1.453 6.268-.273zm5.714-7.394H53.11V.752h8.652v2.275h-2.96v10.791h-2.72V3.053zM64.51 13.83V.751h2.664V13.83H64.51zM27.973 7.328c-.093-1.663 1.359-3.122 3.095-3.181 1.8-.062 3.359 1.419 3.333 3.165-.025 1.711-1.493 3.141-3.208 3.091V8.657c.169-.053.362-.094.537-.171.574-.254.896-.863.769-1.432-.136-.611-.635-1.043-1.244-1.08-.637-.037-1.254.352-1.383.96-.071.337-.209.416-.526.4l-1.373-.007z"/></svg>