<svg xmlns="http://www.w3.org/2000/svg" width="75" height="32" fill="#b4bfc9" xmlns:v="https://vecta.io/nano"><path d="M30.587 17.079L26.904 27.11l-.394-2.038c-.916-2.499-2.902-5.119-5.214-6.181l3.366 12.878h3.981l5.921-14.686h-3.977v-.004zm3.154 14.702l2.354-14.717h3.761l-2.354 14.717h-3.761zm17.408-14.354c-.742-.297-1.917-.621-3.37-.621-3.722 0-6.335 1.999-6.358 4.858-.023 2.116 1.871 3.3 3.293 4.002 1.469.718 1.959 1.183 1.956 1.824-.015.988-1.175 1.437-2.253 1.437-1.504 0-2.303-.223-3.537-.769l-.487-.234-.526 3.292c.881.41 2.505.765 4.194.785 3.95 0 6.516-1.976 6.547-5.026.015-1.679-.989-2.948-3.162-3.998-1.31-.683-2.122-1.132-2.11-1.827 0-.609.68-1.265 2.157-1.265 1.233-.02 2.118.265 2.814.566l.336.168.506-3.19zm9.643-.348h-2.907c-.901 0-1.577.258-1.975 1.222l-5.581 13.483h3.95l.792-2.214 4.816.008.456 2.202h3.494l-3.046-14.701zm-4.638 9.485l1.5-4.116c-.023.039.309-.851.499-1.402l.251 1.269.874 4.248h-3.123z"/><path d="M23.491 17.072h-6.068l-.035.254c4.715 1.218 7.827 4.213 9.125 7.751l-1.318-6.763c-.228-.933-.889-1.21-1.704-1.242zM6.044 13.515H3.648L.881.914 3.532.465l1.894 9.863 4.82-9.731h2.547L6.044 13.515zm12.476-4.12H12.8c-.155 1.753.649 2.515 2.014 2.515 1.144 0 2.149-.429 3.235-1.117l-.008 1.753c-1.063.672-2.288 1.101-3.73 1.101-2.489 0-4.136-1.437-3.641-4.678.444-2.925 2.45-4.697 4.773-4.697 2.675 0 3.564 2.03 3.177 4.584l-.101.539zm-3.366-3.581c-.885 0-1.712.707-2.103 2.183h3.544c.062-1.398-.371-2.183-1.442-2.183zm7.092 2.479l-.788 5.162h-2.215l1.372-9.004h1.882v1.808c.75-1.043 1.77-1.921 3.166-1.995l.012 2.218a4.93 4.93 0 0 0-3.428 1.812zm3.402 5.167l1.372-9.004h2.215l-1.372 9.004h-2.215zm2.729-10.516c-.738 0-1.248-.523-1.136-1.269A1.55 1.55 0 0 1 28.768.371c.719 0 1.229.539 1.113 1.304-.116.75-.785 1.269-1.503 1.269zm6.99-.948c-.758 0-1.214.336-1.337 1.136l-.201 1.324h1.697v1.827h-1.975l-1.094 7.177h-2.195l1.094-7.177h-1.291l.278-1.827h1.291l.236-1.546C32.175.914 33.543.168 35.367.168a5.35 5.35 0 0 1 .893.074l.016 1.827a5.34 5.34 0 0 0-.908-.074zm.024 11.464l1.372-9.004h2.215l-1.372 9.004h-2.215zm2.725-10.516c-.738 0-1.248-.523-1.136-1.269.116-.765.788-1.304 1.527-1.304.719 0 1.229.539 1.113 1.304-.112.75-.781 1.269-1.503 1.269zm9.441 6.451h-5.72c-.155 1.753.649 2.515 2.014 2.515 1.144 0 2.149-.429 3.235-1.117l-.008 1.753c-1.063.672-2.288 1.101-3.73 1.101-2.489 0-4.135-1.437-3.641-4.678.444-2.925 2.45-4.697 4.773-4.697 2.675 0 3.563 2.03 3.177 4.584l-.1.539zm-3.366-3.581c-.885 0-1.712.707-2.103 2.183h3.54c.07-1.398-.367-2.183-1.438-2.183zm9.926 7.646l.004-1.25c-.742.765-1.712 1.437-2.949 1.437-1.863 0-3.146-1.398-2.682-4.436.51-3.354 2.566-4.846 4.63-4.846.85 0 1.507.148 2.014.336l.661-4.342L58.067 0l-2.048 13.46h-1.902zm.742-6.915a3.22 3.22 0 0 0-1.674-.39c-1.163 0-2.157.949-2.458 2.929-.267 1.753.348 2.573 1.326 2.573.812 0 1.511-.484 2.219-1.23l.587-3.881zm7.943 6.997a7.77 7.77 0 0 1-2.698-.453l1.457-9.555 1.716-.269-.63 4.135c.502-.453 1.198-.902 2.052-.902 1.426 0 2.381 1.074 2.033 3.362-.383 2.511-1.917 3.682-3.931 3.682zm1.237-5.549c-.561 0-1.121.383-1.616.89l-.471 3.093c.328.129.56.183 1.036.183 1.063 0 1.805-.648 2.041-2.202.197-1.312-.236-1.964-.989-1.964zm6.643 5.834c-.858 1.679-1.705 2.202-3.003 2.202-.294 0-.456-.027-.603-.07l-.012-1.398a2.94 2.94 0 0 0 .769.098c.491 0 .916-.226 1.198-.718l.224-.453-1.422-6.72 1.782-.226.827 4.858 2.23-4.76h1.662l-3.652 7.189z"/></svg>