<svg xmlns="http://www.w3.org/2000/svg" width="174" height="220" fill="none" xmlns:v="https://vecta.io/nano"><path d="M112.375 26.803H7.62V211.13h104.755V26.803z" fill="#dee7f3"/><path d="M106.153 81.496H30.885v78.22h75.269v-78.22zM23.474 94.997a.62.62 0 0 1-.615-.615V71.946h20.117a.62.62 0 0 1 .615.615.62.62 0 0 1-.615.615H24.089v21.199a.62.62 0 0 1-.615.623zm20.658 74.458H21.703v-20.117a.62.62 0 0 1 .615-.615.62.62 0 0 1 .615.615v18.887h21.199a.62.62 0 0 1 .615.615c0 .336-.27.615-.615.615zm15.87-128.364H23.474v8.476h36.528v-8.476zm6.066 8.476a3.92 3.92 0 0 0 3.918-3.918 3.92 3.92 0 0 0-3.918-3.918 3.92 3.92 0 0 0-3.918 3.918 3.92 3.92 0 0 0 3.918 3.918z" fill="#f0f5fa"/><path d="M4.21 54.486H.521v43.446H4.21V54.486z" fill="#dee7f3"/><path d="M41.738 111.474c-.172 0-.336-.065-.459-.205l-2.5-2.787c-.23-.254-.205-.639.049-.869s.639-.205.869.049l2.5 2.788a.61.61 0 0 1-.459 1.024zM25.54 127.156a.62.62 0 0 1-.426-.172.61.61 0 0 1-.016-.869l5.673-5.935a.614.614 0 1 1 .885.852l-5.673 5.935a.58.58 0 0 1-.443.189zm21.42 20.756c-.23 0-.451-.131-.557-.361l-1.41-3.058a.62.62 0 0 1 .303-.819c.303-.148.672-.008.82.303l1.41 3.058a.62.62 0 0 1-.303.819c-.09.041-.18.058-.262.058zm113.247 28.076l13.272 16.387L143.566 220s-3.525-3.82-1.237-7.788c1.155-2.016 2.213-5.664 2.492-9.566l.041-.812c.049-.975.041-1.959-.025-2.926l-.074-.812c-.229-2.246-.803-4.385-1.836-6.156l17.28-15.952z" fill="#7699ab"/><path d="M152.567 197.801l-7.722 1.107-.074-.812 7.624-1.098c.525-.074.697.73.172.803zm-.762 4.591l-6.984.254.041-.812 6.976-.262c.532-.016.5.795-.033.82z" fill="#dee7f3"/><path d="M102.883 196.482l-1.369 21.042H60.797s0-5.197 4.377-6.558c2.221-.696 5.468-2.664 8.32-5.336l.582-.566a24.49 24.49 0 0 0 1.967-2.164l.5-.647c1.352-1.804 2.385-3.763 2.828-5.771h23.511z" fill="#7699ab"/><g fill="#172a3a"><path d="M106.161 97.957c.271 50.979 27.446 94.664 36.086 99.992l22.493-18.444s-14.173-17.453-18.346-32.208c-4.164-14.755-11-56.013-11-56.013l-29.233 6.673z"/><path d="M86.963 101.891c0 19.174-10.657 95.615-10.657 95.615l30.856 4.304 7.869-86.213c-.139-10.041-4.295-22.813-4.295-22.813l-23.773 9.107z"/></g><path d="M128.959 97.481a.61.61 0 0 1-.566-.377l-1-2.222c-.148-.303-.017-.672.287-.82.311-.147.672-.016.819.287l1.025 2.263c.131.311-.016.672-.328.803-.074.049-.155.066-.237.066zm23.329 79.425a.61.61 0 0 1-.532-.303l-2.492-4.599c-.156-.303-.033-.672.27-.828s.672-.033.828.271l2.459 4.541a.61.61 0 0 1-.221.836c-.098.058-.205.082-.312.082zm-4.73-9.255c-.229 0-.459-.131-.557-.361l-2.09-4.779c-.131-.311.016-.672.328-.803s.672.016.803.328l2.074 4.746a.61.61 0 0 1-.303.812.55.55 0 0 1-.255.057zm-4-9.599a.63.63 0 0 1-.582-.402l-1.598-4.992a.62.62 0 0 1 .426-.762.62.62 0 0 1 .762.426l1.574 4.91c.115.32-.049.672-.369.787-.073.025-.139.033-.213.033zm-2.894-9.984c-.278 0-.532-.189-.598-.476l-1.115-5.099c-.065-.336.148-.656.476-.729a.61.61 0 0 1 .721.475l1.107 5.066a.62.62 0 0 1-.459.738c-.033.025-.082.025-.132.025zm-2.098-10.182c-.287 0-.549-.205-.607-.5l-.926-5.123c-.057-.336.164-.656.5-.713s.656.164.713.5l.927 5.115c.065.336-.156.656-.492.713-.041 0-.082.008-.115.008zm-1.844-10.246c-.296 0-.55-.205-.607-.509l-.935-5.107c-.065-.336.156-.656.492-.721.328-.057.656.156.722.492l.942 5.123c.058.336-.164.656-.5.713-.041.009-.082.009-.114.009zm-1.951-10.223c-.287 0-.542-.196-.599-.492l-1.123-5.057c-.082-.328.123-.664.459-.738.328-.082.664.123.738.459l1.131 5.091a.62.62 0 0 1-.475.729c-.049.008-.091.008-.131.008zm-2.427-10.107c-.27 0-.516-.18-.59-.451l-1.525-4.935a.62.62 0 0 1 .385-.779.62.62 0 0 1 .779.386l1.541 5a.61.61 0 0 1-.426.754.55.55 0 0 1-.164.025zm24.199 75.949a.6.6 0 0 1-.459-.205c-.025-.024-.574-.639-1.533-2.016a.61.61 0 0 1 .156-.853c.278-.197.664-.123.852.156l1.435 1.902c.229.254.205.639-.049.869a.61.61 0 0 1-.402.147z" fill="#fff"/><path d="M82.471 207.327l-6.427-4.427.5-.647 6.345 4.361c.434.303.016 1.008-.418.713zm-3.672 2.852l-5.304-4.549.582-.566 5.304 4.542c.402.344-.18.918-.582.573z" fill="#dee7f3"/><path d="M112.375 137.46a.61.61 0 0 1-.565-.385c-1.722-4.206-3.73-21.871-4.091-25.117-.844-.115-2.836-.418-6.533-1.156-.336-.066-.55-.394-.484-.721s.385-.55.721-.484c5.017 1 6.886 1.197 6.911 1.197l.5.049.057.492c.025.205 2.263 20.887 4.058 25.264a.62.62 0 0 1-.336.804.53.53 0 0 1-.238.057z" fill="#fff"/><g fill="#f7a964"><path d="M91.357 34.836c4.443.115 6.648-3.59 6.574-6.648-.074-2.836-2.984-4.615-6.115-3.025-1.058.533-2.131 1.443-3.131 2.836 0 0-.336 1.279-.344 2.722-.016 1.869.516 4.05 3.017 4.115z"/><path d="M74.823 40.648c3.345 4.951 10.329 7.574 15.903 1.377 3.795-4.222 4.132-11.173-.361-15.96s-11.616-5.402-15.903-1.377-3.32 10.526.361 15.96z"/></g><path d="M81.004 35.714a.82.82 0 1 0 0-1.64.82.82 0 1 0 0 1.64zm-1.951 5.787a19.39 19.39 0 0 1-2.508-4.861c-.172-.5.59-.795.762-.295a18.29 18.29 0 0 0 2.41 4.672c.311.443-.353.918-.664.484zm-5.706-9.968c2.484-.943 10.034-7.484 12.837-2.689.713 1.221.771 2.238 2.156 1.869 1.344-.574.344-2.722.344-2.722 1.008-1.385 2.074-2.303 3.131-2.836 2.968-4.779-4.328-10.648-8.427-7.099 0 0-9.066-2.205-11.763 3.418-4.705 1.91-6.427 5.517-5.402 8.853 1.762 5.738 7.124 1.205 7.124 1.205zm17.862-.484c-.082-1.926 1.139-3.697 3.017-4.222.508-.139.803.623.295.762-1.508.426-2.558 1.787-2.492 3.369.016.525-.803.615-.82.09z" fill="#172a3a"/><g fill="#e84f35"><path d="M94.816 41.96c-8.312 2.804-15.141 8.427-13.362 32.2l2.295 29.88 53.283-7.566S121.499 32.967 94.816 41.96z"/><path d="M117.031 74.151l21.568-.197c-2.009-15.698-15.248-33.519-36.594-35.413V53.6c7.28.287 14.002 11.739 15.026 20.551z"/></g><path d="M123.13 21.368l5.599-14.952c2.328-6.148-5.714-9.214-8.05-3.049l-5.492 14.673 7.943 3.328zM43.689 218.533c-1.049-.418-1.566-1.607-1.148-2.665l5.033-12.689c.418-1.049 1.607-1.566 2.664-1.148 1.049.418 1.566 1.607 1.148 2.664l-5.033 12.69a2.06 2.06 0 0 1-2.664 1.148z" fill="#f0f5fa"/><path d="M67.142 191.67l61.997-166.113c5.582-14.714-17.272-23.404-22.863-8.673L44.279 182.997c-2.787 7.353-3.222 25.74 2.492 27.912s17.575-11.87 20.371-19.239z" fill="#3b566e"/><path d="M104.915 20.54l-2.811 7.533 22.576 9.443 2.901-7.779-22.666-9.198z" fill="#f0f5fa"/><path d="M63.658 197.973c1.557-2.278 2.795-4.492 3.484-6.303l20.723-55.53c-7.533-3.123-15.108-6.131-22.756-8.951l-20.83 55.808c-.525 1.385-.967 3.172-1.303 5.164 6.837 3.402 13.731 6.665 20.682 9.812z" fill="#b2c4d3"/><g fill="#f7a964"><path d="M101.12 85.39c-1.27-9.337-5.853-11.608-10.558-13.37-3.582-1.344-3.853 2.205 1.713 6.435l.172 6.107 8.673.828z"/><path d="M116.277 70.602c1.427 5.246 1.263 10.271-1.434 12.575-6.804 5.812-19.15-.205-26.027-5.123s-7.501.82-7.501.82c-4.541.41-3.148 5.123-3.148 5.123-2.967 3.353-2.385 5.238 11.001 15.165 15.395 11.419 44.48 10.476 49.283-15.985 1.279-7.033-.385-15.485-4.59-23.117-6.075 3.172-12.075 6.476-17.584 10.542z"/></g><path d="M84.176 81.709c-.836-.656-1.41-1.508-1.68-2.541-.139-.508-.926-.295-.787.221a5.46 5.46 0 0 0 1.894 2.902c.41.32.992-.254.574-.582zm-3.008 4.976c-.967-.271-1.697-1.016-1.951-1.984-.131-.508-.926-.295-.787.221.328 1.238 1.287 2.213 2.525 2.558.5.139.721-.656.213-.795z" fill="#e84f35"/><path d="M75.561 109.704c-4.681-10.108-6.533-26.831 8.763-43.742.549-.598 1.049-1.189 1.541-1.762 1.451-6.788 3.254-13.485 6.361-19.715-.533-.738-1.025-1.074-1.025-1.074-14.567 6.648-33.577 17.002-39.036 44.25-3.418 17.034 2.664 31.125 11.476 36.913 5.419 3.557 9.722 8.205 12.886 6.976 0 0 3.804.541 6.115-3.287 0 0 3.91-.066 3.508-3.894s-8.739-10.657-10.591-14.665z" fill="#f7a964"/><path d="M75.979 78.225c1.902-4.017 4.607-6.697 8.345-10.829.549-.598 1.344-.041 1.828-.615 1.451-6.788 2.967-16.059 6.074-22.297-.533-.738-1.025-1.074-1.025-1.074-9.607 4.386-21.141 10.386-29.453 21.772 4.615 4.484 9.452 8.738 14.231 13.042z" fill="#e84f35"/><path d="M72.839 108.064c9.542 1.09 14.739 3.55 16.1 7.648 1.369 4.099-3.845 2.312-6.41.066l-5.025 3.008-4.664-10.722z" fill="#f7a964"/><path d="M82.307 127.812c-1.656-3.066-3.525-5.984-5.624-8.755-.311-.418-1.025-.008-.705.41 2.099 2.779 3.976 5.697 5.623 8.755.246.467.959.049.705-.41zm-4.804 2.82c-1.459-3.468-3.722-6.353-6.755-8.591-.426-.312-.836.401-.41.705a19.38 19.38 0 0 1 6.378 8.099c.205.483.992.278.787-.213zm3.14-15.821c-.369-.173-.59-.476-.59-.894 0-.525-.82-.525-.82 0 0 .68.369 1.312 1 1.599.475.221.885-.484.41-.705z" fill="#e84f35"/><path d="M81.004 68.421c-.295 0-.549-.213-.607-.508l-.82-4.713c-.057-.336.164-.656.5-.713s.656.164.713.5l.82 4.713c.057.336-.164.656-.5.713-.033.008-.074.008-.106.008z" fill="#f0f5fa"/><path d="M37 218.959c-.197 0-.385-.09-.5-.262l-14.682-20.904c-.197-.279-.131-.664.147-.852.279-.197.664-.123.853.147L37.5 217.992c.197.278.131.664-.148.852a.62.62 0 0 1-.353.115zm-6.116 0c-.115 0-.238-.033-.344-.107l-10.689-7.238a.62.62 0 0 1-.164-.853.62.62 0 0 1 .852-.163l10.689 7.238c.279.188.352.574.164.852-.115.173-.312.271-.508.271z" fill="#7699ab"/></svg>