<svg xmlns="http://www.w3.org/2000/svg" width="32" height="32" fill="none"><path d="M22.028 4.57c-3.993-.76-8.14-.76-12.133 0-1.766.38-3.993 2.506-4.377 4.177a23.77 23.77 0 0 0 0 9.874c.461 1.671 2.688 3.798 4.377 4.177.077 0 .154.076.154.152v4.785c0 .228.307.38.461.152l2.304-2.355 2.15-2.203s.077-.076.153-.076c2.304.076 4.684-.152 6.988-.532 1.766-.38 3.993-2.506 4.377-4.177a23.77 23.77 0 0 0 0-9.874c-.461-1.595-2.688-3.722-4.454-4.101zm.077 14.279c-.384.759-.845 1.367-1.613 1.747l-.691.228c-.307-.076-.538-.152-.768-.228-2.457-.987-4.761-2.355-6.604-4.329-.998-1.139-1.843-2.431-2.534-3.798-.307-.684-.614-1.291-.845-1.975-.23-.608.154-1.215.538-1.671s.845-.76 1.382-.987c.384-.228.768-.076 1.075.228.614.76 1.229 1.519 1.689 2.355.307.532.23 1.139-.307 1.519-.154.076-.23.152-.384.304-.077.076-.23.152-.307.304a.73.73 0 0 0-.077.684c.614 1.747 1.766 3.114 3.532 3.874.307.152.538.228.921.228.538-.076.768-.684 1.152-.987s.845-.304 1.305-.076c.384.228.768.532 1.229.835.384.304.768.532 1.152.835.23.152.307.532.154.912zm-3.225-5.696c-.154 0-.077 0 0 0-.307 0-.384-.152-.461-.38 0-.152 0-.38-.077-.532-.077-.304-.23-.608-.538-.835l-.461-.228c-.23-.076-.384-.076-.614-.076-.23-.076-.307-.228-.307-.456 0-.152.23-.304.384-.304 1.229.076 2.15.759 2.304 2.203v.304c0 .152-.077.304-.23.304zm-.768-3.342c-.384-.152-.768-.304-1.229-.38-.154 0-.384-.076-.537-.076-.23 0-.384-.152-.307-.38 0-.228.154-.38.384-.304.768.076 1.459.228 2.15.532 1.382.684 2.15 1.823 2.381 3.342v.228.532.228c-.077.304-.614.38-.691 0 0-.076-.077-.228-.077-.304 0-.684-.154-1.367-.461-1.975-.461-.684-.998-1.139-1.613-1.443zm4.147 4.557c-.23 0-.384-.228-.384-.456 0-.456-.077-.911-.154-1.367-.307-2.431-2.304-4.405-4.684-4.785-.384-.076-.768-.076-1.075-.152-.23 0-.538 0-.614-.304-.077-.228.154-.456.384-.456h.154c3.148.076.154 0 0 0 3.225.076 5.913 2.203 6.45 5.393.077.532.154 1.063.154 1.671.153.228 0 .456-.23.456z" fill="#fff"/></svg>