<svg xmlns="http://www.w3.org/2000/svg" width="13" height="16" fill="none"><path d="M7.407 6.247c.11-.33.576-.33.686 0l.645 1.937a2.89 2.89 0 0 0 1.829 1.828l1.936.645c.33.11.33.576 0 .686l-1.937.645a2.89 2.89 0 0 0-1.828 1.829l-.645 1.936a.36.36 0 0 1-.343.248.36.36 0 0 1-.343-.248l-.645-1.937a2.89 2.89 0 0 0-1.828-1.828l-1.937-.645A.36.36 0 0 1 2.748 11a.36.36 0 0 1 .248-.343l1.937-.645a2.89 2.89 0 0 0 1.828-1.828l.645-1.937zM3.544 1.148c.014-.043.042-.081.079-.108s.081-.041.127-.041.09.014.127.041.065.064.079.108l.387 1.162c.173.518.579.924 1.097 1.097l1.162.387c.043.014.081.042.108.079s.041.081.041.127-.014.09-.041.127-.064.065-.108.079l-1.162.387c-.255.085-.488.229-.678.419s-.334.423-.419.678l-.387 1.162c-.014.043-.042.081-.079.108s-.081.041-.127.041-.09-.014-.127-.041-.065-.064-.079-.108L3.157 5.69c-.085-.255-.229-.488-.419-.678s-.423-.334-.678-.419L.898 4.206C.855 4.192.817 4.164.79 4.127S.749 4.046.749 4s.014-.09.041-.127.064-.065.108-.079l1.162-.387c.255-.085.488-.229.678-.419s.334-.423.419-.678l.387-1.162zM10.613.099c.01-.028.028-.053.053-.071s.054-.027.084-.027.059.009.084.027.043.042.053.071l.258.774c.115.346.386.617.732.732l.774.258c.028.01.053.028.071.053s.027.054.027.084-.009.06-.027.084-.042.043-.071.053l-.774.258c-.17.057-.325.152-.452.279s-.223.282-.28.453l-.258.774c-.01.028-.028.053-.053.071s-.054.027-.084.027-.059-.009-.084-.027-.043-.042-.053-.071l-.258-.774c-.057-.171-.152-.325-.279-.453s-.282-.223-.452-.279l-.773-.258c-.028-.01-.053-.028-.071-.053S8.752 2.03 8.752 2s.009-.06.027-.084.042-.043.071-.053l.774-.258c.346-.115.617-.386.732-.732L10.613.1V.099z" fill="#de7800"/></svg>