<svg xmlns="http://www.w3.org/2000/svg" width="137" height="24" fill="none" xmlns:v="https://vecta.io/nano"><path d="M59.463 16.037v-4.999c0-1.886-1.203-3.156-3.139-3.173a3.09 3.09 0 0 0-2.803 1.42 2.93 2.93 0 0 0-2.636-1.42 2.64 2.64 0 0 0-2.333 1.186v-1h-1.736v7.985h1.753v-4.422c0-1.386.766-2.12 1.953-2.12s1.736.75 1.736 2.103v4.439h1.753v-4.422c0-1.386.8-2.12 1.953-2.12s1.753.75 1.753 2.103v4.439h1.746zm25.938-7.978h-2.836v-2.42h-1.753v2.42h-1.62v1.586h1.62v3.636c0 1.853.717 2.956 2.769 2.956a4.08 4.08 0 0 0 2.17-.617l-.483-1.486c-.466.277-.995.432-1.536.45-.867 0-1.153-.533-1.153-1.333V9.645h2.836l-.013-1.586zm14.807-.2a2.35 2.35 0 0 0-1.212.296c-.37.206-.678.508-.891.874v-.97h-1.72v7.978h1.736v-4.472c0-1.333.566-2.053 1.703-2.053.372-.005.741.063 1.087.2l.533-1.636a3.71 3.71 0 0 0-1.237-.217zm-22.385.833c-.983-.584-2.113-.873-3.256-.833-2.02 0-3.333.97-3.333 2.553 0 1.303.97 2.103 2.753 2.353l.817.117c.95.133 1.403.383 1.403.833 0 .616-.633.97-1.82.97-.957.03-1.897-.263-2.666-.833l-.783 1.35c1.011.707 2.223 1.07 3.456 1.036 2.303 0 3.639-1.086 3.639-2.603 0-1.403-1.053-2.136-2.786-2.386l-.817-.117c-.75-.1-1.353-.25-1.353-.783 0-.583.567-.933 1.52-.933.873.013 1.729.248 2.486.683l.74-1.406zm46.504-.833a2.35 2.35 0 0 0-1.212.296c-.37.206-.678.508-.891.874v-.97h-1.72v7.978h1.737v-4.472c0-1.333.566-2.053 1.703-2.053.372-.005.741.063 1.086.2l.533-1.636c-.396-.142-.815-.215-1.236-.217zm-22.366 4.189c0 2.42 1.687 4.189 4.256 4.189a4.18 4.18 0 0 0 2.87-.953l-.823-1.4a3.51 3.51 0 0 1-2.087.717c-1.386 0-2.403-1.02-2.403-2.553s1.02-2.536 2.403-2.553a3.51 3.51 0 0 1 2.087.717l.833-1.403a4.18 4.18 0 0 0-2.87-.953c-2.569 0-4.256 1.77-4.256 4.189l-.01.003zm16.257 0V8.048h-1.736v.97a3.02 3.02 0 0 0-1.118-.891c-.438-.204-.919-.299-1.402-.279-2.236 0-3.999 1.753-3.999 4.189s1.753 4.189 3.999 4.189c.483.02.964-.075 1.402-.279a3.02 3.02 0 0 0 1.118-.891v.966h1.736v-3.976zm-6.459 0c0-1.403.917-2.553 2.42-2.553 1.436 0 2.403 1.103 2.403 2.553s-.967 2.553-2.403 2.553c-1.503 0-2.42-1.153-2.42-2.553zM90.81 7.858c-2.333 0-3.973 1.703-3.973 4.189 0 2.536 1.703 4.189 4.089 4.189a4.85 4.85 0 0 0 3.273-1.12l-.85-1.286c-.663.53-1.484.824-2.333.833-1.12 0-2.136-.517-2.386-1.953h5.935l.033-.666c0-2.486-1.553-4.189-3.789-4.189v.003zm-.033 1.553c1.12 0 1.836.7 2.02 1.936h-4.139c.183-1.153.883-1.936 2.12-1.936zm43.551 2.636V4.852h-1.736v4.173a3.02 3.02 0 0 0-1.118-.891c-.438-.204-.919-.299-1.401-.279-2.237 0-4 1.753-4 4.189s1.753 4.189 4 4.189c.482.021.963-.074 1.401-.277s.822-.508 1.118-.889v.966h1.736v-3.986zm-6.458 0c0-1.403.916-2.553 2.419-2.553 1.437 0 2.403 1.103 2.403 2.553s-.966 2.553-2.403 2.553c-1.503 0-2.419-1.153-2.419-2.553zm-58.622 0V8.048h-1.736v.97c-.296-.382-.679-.688-1.118-.891s-.919-.299-1.402-.279c-2.236 0-3.999 1.753-3.999 4.189s1.753 4.189 3.999 4.189c.483.02.964-.075 1.402-.279s.822-.509 1.118-.891v.966h1.736v-3.976zm-6.459 0c0-1.403.916-2.553 2.419-2.553 1.436 0 2.403 1.103 2.403 2.553s-.966 2.553-2.403 2.553c-1.506 0-2.423-1.15-2.423-2.553h.003zm73.562 3.999h-.093v-.38l-.137.333h-.08l-.116-.333v.38h-.077v-.467h.117l.136.333.137-.333h.117l-.004.467zm.314-.467c.034-.001.068.005.1.017a.22.22 0 0 1 .076.047c.022.021.039.046.05.073s.018.064.017.097-.005.066-.017.097-.028.053-.05.073-.048.037-.076.047c-.034.006-.067.006-.1 0h-.187v-.467l.187.017zm-.11.07v.333h.11c.023.004.046.004.07 0 .018-.007.035-.018.049-.033s.024-.032.031-.051.003-.045 0-.067c.003-.022.003-.045 0-.067s-.017-.036-.03-.05a.16.16 0 0 0-.05-.033.2.2 0 0 0-.07 0l-.11-.033z" fill="#fff"/><path d="M24.66 2.563H14.162v18.866H24.66V2.563z" fill="#ff5f00"/><path d="M14.829 12.001a11.98 11.98 0 0 1 1.204-5.244c.794-1.634 1.949-3.066 3.378-4.188A12 12 0 0 0 13.277.073a12 12 0 0 0-6.524 1.138A12 12 0 0 0 0 12.003a12 12 0 0 0 1.828 6.365c1.194 1.908 2.901 3.442 4.926 4.426s4.285 1.378 6.524 1.138a12 12 0 0 0 6.134-2.496 11.98 11.98 0 0 1-4.583-9.435z" fill="#eb001b"/><path d="M37.944 19.439h-.077v-.383l-.137.333h-.08l-.137-.333v.38h-.077v-.467h.117l.137.333.137-.333h.117v.47zm.333-.477h.06l.053.02.047.03a.18.18 0 0 1 .033.04l-.063.043c-.013-.021-.032-.038-.053-.05s-.05-.018-.077-.017c-.022-.004-.045-.004-.067 0s-.038.019-.053.033a.14.14 0 0 0-.033.053c-.016.044-.016.093 0 .137.007.02.019.038.033.053s.033.026.053.033.045.004.067 0 .051-.005.073-.017.042-.029.056-.05l.06.043a.2.2 0 0 1-.037.04l-.043.03-.053.02h-.06c-.034.001-.068-.005-.1-.017s-.055-.028-.077-.05-.039-.048-.05-.076c-.024-.062-.024-.131 0-.193.011-.029.028-.055.05-.077a.23.23 0 0 1 .077-.05.26.26 0 0 1 .103.02zm.547-6.961A12 12 0 0 1 25.545 23.93a12 12 0 0 1-6.134-2.497A12 12 0 0 0 23.995 12a12 12 0 0 0-1.207-5.244c-.794-1.634-1.949-3.066-3.377-4.189A12 12 0 0 1 25.546.069a12 12 0 0 1 6.525 1.138 12 12 0 0 1 6.754 10.794z" fill="#f79e1b"/></svg>