<svg xmlns="http://www.w3.org/2000/svg" width="52" height="17" fill="#fff" xmlns:v="https://vecta.io/nano"><path d="M.089.883C.121.786.16.553.205.411H.6L6.377.385c1.14 0 1.845.563 2.059 1.688l1.671 8.855c.019.11.052.226.104.427l.544-1.358L14.432.689c.091-.22.181-.31.434-.31l3.659.006h.408l-.201.505-6.43 15.375c-.084.207-.194.291-.427.291a188.58 188.58 0 0 0-3.82 0c-.246 0-.33-.084-.389-.31L4.661 4.582l-.343-1.281c-.13-.505-.44-.854-.9-1.087C2.116 1.562 1.52 1.18.089.883c0-.045 0 .045 0 0zm36.01 15.62l2.752-6.565 3.451-8.247C42.665.818 43.306.385 44.258.397h3.14c.201 0 .291.032.343.265l2.182 10.459 1.069 5.084c.019.091.019.188.032.304l-.376.019c-1.036 0-2.072-.006-3.108.006-.253 0-.356-.078-.401-.33l-.376-1.863a.24.24 0 0 0-.278-.233h-4.921c-.188 0-.266.078-.324.239l-.706 1.94c-.039.104-.175.239-.265.239h-4.08c-.019.006-.039-.006-.091-.026zm6.43-5.692h3.49l-1.243-5.97h-.084l-2.163 5.97zM24.353 15.94l.758-3.525.466.213c1.353.634 2.778.912 4.274.776.531-.045 1.043-.188 1.483-.511.738-.537.816-1.43.117-2.005-.46-.382-.991-.686-1.522-.964-.9-.472-1.787-.951-2.545-1.643-2.04-1.863-1.399-4.631-.013-6.073 1.1-1.151 2.486-1.713 4.014-1.972 1.865-.317 3.691-.11 5.478.505.052.019.097.045.175.084l-.706 3.312-2.253-.582c-.829-.155-1.677-.201-2.493.091a2.55 2.55 0 0 0-.868.53c-.421.401-.434.996 0 1.378.401.362.874.653 1.34.938l2.156 1.242c3.173 2.005 2.228 5.815.317 7.367-1.127.912-2.428 1.391-3.833 1.578a12.88 12.88 0 0 1-6.022-.608c-.104-.032-.194-.078-.324-.129zm-2.882.595h-4.177L20.746.417h4.164l-3.438 16.118z"/></svg>