<svg xmlns="http://www.w3.org/2000/svg" width="63" height="12" fill="none" xmlns:v="https://vecta.io/nano"><path d="M24.284 11.875c-.68-.249-1.405-.421-2.033-.762-2.166-1.179-3.288-3.615-2.798-5.917.526-2.472 2.504-4.282 5.017-4.563.464-.052.939-.008 1.507-.008L24.956 2.13c-.045.063-.183.074-.281.089-2.059.31-3.444 1.718-3.664 3.727-.234 2.155 1.647 4.221 3.876 4.336 2.404.123 4.473-1.717 4.418-4.119-.011-.486-.207-.966-.294-1.453-.028-.155-.032-.352.043-.48.247-.416.537-.809.834-1.247.56.752.874 1.546 1.012 2.411.495 3.106-1.744 5.937-4.747 6.414-.048.008-.092.044-.136.067l-1.734.001zm38.383-6.898c-.023.045-.056.086-.067.133-.346 1.518-1.446 2.411-3.059 2.465l-1.744.003v1.936 1.89h-2.119V1.061l1.3.002 2.984.089c1.395.161 2.309 1.058 2.624 2.388.017.073.053.142.081.212v1.225zm-4.847.831c.478 0 .94.044 1.389-.01.769-.092 1.246-.632 1.314-1.4.056-.638-.34-1.29-.985-1.442-.548-.129-1.126-.131-1.718-.193v3.045zM.667 1.084H9.16v10.322H7.032V2.92H2.794v8.48H.667V1.084zM13.413 7.58v3.827h-2.098V1.115c.007-.006.027-.037.046-.037l4.284.086c1.461.131 2.531 1.336 2.637 2.769.089 1.202-.159 2.294-1.24 3.05-.57.399-1.228.569-1.921.593l-1.707.003zm.024-1.761l1.3-.005c.754-.054 1.242-.513 1.379-1.247.122-.659-.19-1.3-.787-1.561-.607-.265-1.245-.198-1.892-.17V5.82zM40.28 8.733l-.01 2.125c-.003.105-.114.259-.216.302-3.62 1.54-7.489-.494-7.969-4.042-.296-2.186.31-4.094 2.233-5.371C36.104.561 38.07.513 40.047 1.354c.107.046.219.219.222.335l.01 2.128c-.828-.82-1.767-1.23-2.882-1.139-1.129.092-2.012.612-2.627 1.544-.992 1.502-.735 3.595.576 4.726 1.402 1.209 3.247 1.146 4.933-.215zm4.496-5.831h-2.339V1.088h6.81v1.794h-2.33v8.51h-2.141v-8.49zm6.635 8.499V1.087h2.097v10.314h-2.097z" fill="#114c8d"/><path d="M22.652 6.273c-.073-1.312 1.07-2.462 2.436-2.509 1.417-.049 2.644 1.119 2.624 2.496-.02 1.35-1.175 2.477-2.525 2.438V7.321c.133-.042.285-.074.423-.135.452-.201.705-.681.605-1.129-.107-.482-.5-.823-.979-.851-.501-.029-.987.278-1.088.757-.056.266-.164.328-.414.315l-1.081-.005z" fill="#ffcc0b"/></svg>