<svg xmlns="http://www.w3.org/2000/svg" width="22" height="22" fill="none" xmlns:v="https://vecta.io/nano"><path fill-rule="evenodd" d="M10.45 0C9.541 0 8.8.741 8.8 1.65v.462c0 .196-.137.394-.386.477-.543.166-1.057.388-1.541.642l-.006.003c-.189.102-.457.066-.648-.125l-.275-.275c-.644-.644-1.685-.644-2.329 0l-.781.781c-.644.644-.644 1.685 0 2.329l.275.275c.191.191.226.46.124.649-.256.478-.48.994-.646 1.55-.081.25-.273.382-.475.382H1.65C.741 8.8 0 9.541 0 10.45v1.1c0 .909.741 1.65 1.65 1.65h.462c.196 0 .394.137.477.386.166.543.388 1.057.642 1.541l.003.006c.102.189.066.457-.125.648l-.275.275c-.644.644-.644 1.685 0 2.329l.781.781c.644.644 1.685.644 2.329 0l.275-.275c.191-.191.459-.226.648-.125l.006.003a8.98 8.98 0 0 0 1.543.643c.251.081.384.274.384.476v.462c0 .909.741 1.65 1.65 1.65h1.1c.909 0 1.65-.741 1.65-1.65v-.462c0-.196.137-.394.386-.477a8.97 8.97 0 0 0 1.541-.642l.006-.003c.189-.102.457-.067.648.125l.275.275c.644.644 1.685.644 2.329 0l.781-.781c.644-.644.644-1.685 0-2.329l-.275-.275c-.191-.191-.226-.459-.125-.648l.003-.006a8.98 8.98 0 0 0 .643-1.543c.081-.251.274-.384.476-.384h.462c.909 0 1.65-.741 1.65-1.65v-1.1c0-.909-.741-1.65-1.65-1.65h-.462c-.196 0-.394-.137-.477-.386a8.97 8.97 0 0 0-.642-1.541l-.003-.006c-.102-.189-.067-.457.125-.648l.275-.275c.644-.644.644-1.685 0-2.329l-.781-.781c-.644-.644-1.685-.644-2.329 0l-.275.275c-.191.191-.459.226-.648.125l-.006-.003c-.485-.254-1-.477-1.543-.643-.251-.081-.384-.274-.384-.476V1.65C13.2.741 12.459 0 11.55 0h-1.1zm.242 15.4c2.402 0 4.35-1.97 4.35-4.4s-1.947-4.4-4.35-4.4-4.35 1.97-4.35 4.4 1.947 4.4 4.35 4.4z" fill="#ffa727"/></svg>