<svg xmlns="http://www.w3.org/2000/svg" width="121" height="120" fill="none"><path d="M71.632 84.474H20.368V26.79h36.18l15.084 14.328v43.356z" fill="#c9d9e8"/><path d="M56.548 26.79v14.328h15.084L56.548 26.79z" fill="#829ec3"/><path d="M39.118 54.078H52v2.1H39.118v-2.1zm0 3.09H52v2.088H39.118v-2.088zm3.186 8.202c-1.038-.372-1.824-.912-2.364-1.626-.54-.702-.81-1.56-.81-2.55v-.024c0-.648.144-1.23.426-1.758s.696-1.002 1.236-1.416l3.714.396c-.78.174-1.362.426-1.77.756-.408.342-.606.822-.606 1.476v.012c0 .792.336 1.398 1.026 1.824.684.426 1.644.648 2.88.648.99 0 1.938-.15 2.814-.45.888-.294 1.686-.75 2.4-1.332l1.62 2.376c-.594.486-1.248.9-1.974 1.23-.72.33-1.488.582-2.31.75-.822.162-1.68.252-2.568.252-1.44-.012-2.676-.198-3.714-.564zm4.728-10.524c.036-.012.066-.024.114-.03a4 4 0 0 0 .978-.45c.27-.174.486-.396.63-.66s.222-.594.222-.978v-.012a2 2 0 0 0-.96-1.77c-.642-.42-1.542-.624-2.712-.624a6.62 6.62 0 0 0-2.16.384c-.744.252-1.464.636-2.172 1.134l-1.476-2.454a10.23 10.23 0 0 1 1.872-1.032 11.27 11.27 0 0 1 1.956-.636c.666-.144 1.332-.222 1.992-.222 1.41 0 2.61.198 3.612.582s1.77.948 2.286 1.68c.528.738.786 1.626.786 2.664v.012c0 1.032-.312 1.914-.954 2.652l-4.122-.186c.042-.03.078-.042.108-.054z" fill="#e84f35"/><path d="M79.764 77.684H28.5V20H64.68L79.764 34.328V77.684Z" fill="#d9e4ee"/><path d="M64.68 20v14.328h15.084L64.68 20z" fill="#829ec3"/><path d="M47.25 47.288h12.882v2.1H47.25v-2.1zm0 3.09h12.882v2.088H47.25v-2.088zm3.186 8.202c-1.038-.372-1.824-.912-2.364-1.626-.54-.702-.81-1.56-.81-2.55v-.024c0-.648.144-1.23.426-1.758s.696-1.002 1.236-1.416l3.714.396c-.78.174-1.362.426-1.77.756-.408.342-.606.822-.606 1.476v.012c0 .792.336 1.398 1.026 1.824.684.426 1.644.648 2.88.648.99 0 1.938-.15 2.814-.45.888-.294 1.686-.75 2.4-1.332l1.62 2.376c-.594.486-1.248.9-1.974 1.23-.72.33-1.488.582-2.31.75-.822.162-1.68.252-2.568.252-1.44-.012-2.676-.198-3.714-.564zm4.728-10.524c.036-.012.066-.024.114-.03a4 4 0 0 0 .978-.45c.27-.174.486-.396.63-.66s.222-.594.222-.978v-.012a2 2 0 0 0-.96-1.77c-.642-.42-1.542-.624-2.712-.624a6.62 6.62 0 0 0-2.16.384c-.744.252-1.464.636-2.172 1.134l-1.476-2.454a10.23 10.23 0 0 1 1.872-1.032 11.27 11.27 0 0 1 1.956-.636c.666-.144 1.332-.222 1.992-.222 1.41 0 2.61.198 3.612.582s1.77.948 2.286 1.68c.528.738.786 1.626.786 2.664v.012c0 1.032-.312 1.914-.954 2.652l-4.122-.186c.042-.03.078-.042.108-.054z" fill="#e84f35"/><path d="M89.764 69.684H38.5V12H74.68L89.764 26.328V69.684Z" fill="#ebf1f7"/><path d="M74.68 12v14.328h15.084L74.68 12z" fill="#dee7f3"/><path d="M57.25 39.288h12.882v2.1H57.25v-2.1zm0 3.09h12.882v2.088H57.25v-2.088zm3.186 8.202c-1.038-.372-1.824-.912-2.364-1.626-.54-.702-.81-1.56-.81-2.55v-.024c0-.648.144-1.23.426-1.758s.696-1.002 1.236-1.416l3.714.396c-.78.174-1.362.426-1.77.756-.408.342-.606.822-.606 1.476v.012c0 .792.336 1.398 1.026 1.824.684.426 1.644.648 2.88.648.99 0 1.938-.15 2.814-.45.888-.294 1.686-.75 2.4-1.332l1.62 2.376c-.594.486-1.248.9-1.974 1.23-.72.33-1.488.582-2.31.75-.822.162-1.68.252-2.568.252-1.44-.012-2.676-.198-3.714-.564zm4.728-10.524c.036-.012.066-.024.114-.03a4 4 0 0 0 .978-.45c.27-.174.486-.396.63-.66s.222-.594.222-.978v-.012a2 2 0 0 0-.96-1.77c-.642-.42-1.542-.624-2.712-.624a6.62 6.62 0 0 0-2.16.384c-.744.252-1.464.636-2.172 1.134l-1.476-2.454a10.23 10.23 0 0 1 1.872-1.032 11.27 11.27 0 0 1 1.956-.636c.666-.144 1.332-.222 1.992-.222 1.41 0 2.61.198 3.612.582s1.77.948 2.286 1.68c.528.738.786 1.626.786 2.664v.012c0 1.032-.312 1.914-.954 2.652l-4.122-.186c.042-.03.078-.042.108-.054z" fill="#e84f35"/><path d="M18.656 101.208h72.582" stroke="#ffd0ce" stroke-width="2" stroke-miterlimit="10" stroke-linecap="round" stroke-linejoin="round"/></svg>