<svg xmlns="http://www.w3.org/2000/svg" width="32" height="32" fill="none"><path d="M27.44 13.715h-.94v-.048H16v4.667h6.593C21.632 21.05 19.047 23 16 23a7 7 0 0 1 0-14c1.785 0 3.408.673 4.644 1.773l3.3-3.3C21.86 5.531 19.073 4.333 16 4.333A11.67 11.67 0 0 0 4.333 16 11.67 11.67 0 0 0 16 27.667 11.67 11.67 0 0 0 27.667 16c0-.782-.08-1.546-.227-2.285z" fill="#ffc107"/><path d="M5.679 10.57l3.833 2.811C10.549 10.813 13.061 9 16 9c1.784 0 3.408.673 4.644 1.773l3.3-3.3C21.86 5.531 19.073 4.333 16 4.333c-4.481 0-8.367 2.53-10.321 6.236z" fill="#ff3d00"/><path d="M16 27.667c3.014 0 5.752-1.153 7.822-3.029l-3.611-3.056A6.95 6.95 0 0 1 16 23c-3.034 0-5.611-1.935-6.582-4.635l-3.805 2.931c1.931 3.778 5.852 6.371 10.386 6.371z" fill="#4caf50"/><path d="M27.44 13.715h-.94v-.048H16v4.667h6.593c-.46 1.293-1.289 2.423-2.384 3.25l.002-.001 3.611 3.055c-.255.232 3.845-2.804 3.845-8.637 0-.782-.08-1.546-.227-2.285z" fill="#1976d2"/></svg>