<svg xmlns="http://www.w3.org/2000/svg" width="32" height="32" fill="none"><path d="M23.393 15.74c-.013-2.131.96-3.737 2.924-4.922-1.098-1.562-2.76-2.422-4.951-2.587-2.074-.162-4.343 1.2-5.174 1.2-.878 0-2.886-1.144-4.466-1.144C8.465 8.337 5 10.868 5 16.018c0 1.522.28 3.094.84 4.712.749 2.131 3.449 7.353 6.266 7.268 1.473-.034 2.515-1.037 4.432-1.037 1.86 0 2.823 1.037 4.466 1.037 2.842-.041 5.284-4.787 5.996-6.925-3.811-1.784-3.607-5.225-3.607-5.334zm-3.308-9.531C21.681 4.328 21.536 2.616 21.489 2c-1.41.081-3.04.953-3.969 2.025-1.023 1.15-1.624 2.572-1.495 4.175 1.523.116 2.914-.662 4.06-1.991z" fill="#000"/></svg>