<svg width="32" height="32" viewBox="0 0 32 32" fill="none" xmlns="http://www.w3.org/2000/svg">
<path d="M15.9 29.7C8.92502 29.7 1.40002 25.325 1.40002 15.725C1.40002 6.125 8.92502 1.75 15.9 1.75C19.775 1.75 23.35 3.025 26 5.35C28.875 7.9 30.4 11.5 30.4 15.725C30.4 19.95 28.875 23.525 26 26.075C23.35 28.4 19.75 29.7 15.9 29.7Z" fill="url(#paint0_radial_1_4824)"/>
<path d="M27.8725 7.41748C29.205 9.56748 29.9 12.1275 29.9 14.975C29.9 19.2 28.375 22.775 25.5 25.325C22.85 27.65 19.25 28.95 15.4 28.95C10.885 28.95 6.14998 27.1125 3.35498 23.215C6.04498 27.63 11.105 29.7 15.9 29.7C19.75 29.7 23.35 28.4 26 26.075C28.875 23.525 30.4 19.95 30.4 15.725C30.4 12.54 29.5325 9.70998 27.8725 7.41748Z" fill="#EB8F00"/>
<path d="M16 19.85C18.7 19.85 20.6 21.25 21.175 22.125C21.2828 22.2606 21.3514 22.4232 21.3734 22.5951C21.3955 22.7669 21.3701 22.9415 21.3 23.1C21.19 23.3025 20.98 23.4275 20.75 23.425C20.665 23.42 20.58 23.4025 20.5 23.375C19.0366 22.9576 17.5218 22.7472 16 22.75C14.485 22.74 12.975 22.96 11.525 23.4C11.445 23.4275 11.36 23.445 11.275 23.45C11.045 23.4575 10.83 23.3325 10.725 23.125C10.58 22.8025 10.63 22.425 10.85 22.15C11.4 21.25 13.325 19.85 16 19.85Z" fill="#422B0D"/>
<path d="M9.25 26.125C7.625 26.125 6.375 24.55 6.375 23.2C6.375 22.25 6.8 21.15 7.4 19.625C7.475 19.4 7.575 19.175 7.675 18.925C8.025 18.02 8.425 17.135 8.875 16.275C8.965 16.1025 9.17 16.0275 9.35 16.1C9.425 16.1375 9.4875 16.2 9.525 16.275C9.9 17.05 10.325 18 10.75 18.975C11.8 21.325 12.1 22.275 12.1 23.225C12.125 24.55 10.85 26.125 9.25 26.125Z" fill="url(#paint1_radial_1_4824)"/>
<path d="M11 24.3225C10.6325 24.89 9.80005 24.7825 9.80005 23.84C9.80005 23.2375 9.92255 20.1425 10.44 20.575C11.29 21.28 11.53 23.52 11 24.3225Z" fill="#81D4FA"/>
<path d="M7.50007 11.675C7.18757 12.1375 6.44507 11.84 6.66257 11.28C7.17507 10.0625 8.13257 9.08747 9.34257 8.55747C9.78507 8.34747 10.2626 8.21497 10.7501 8.16247C10.9976 8.11247 11.2401 8.27247 11.2901 8.51997C11.3401 8.76747 11.1801 9.00997 10.9301 9.05997H10.8976C9.50232 9.52307 8.30486 10.4447 7.50007 11.675ZM24.3226 11.675C24.6351 12.1375 25.3776 11.84 25.1601 11.28C24.646 10.06 23.6817 9.08502 22.4676 8.55747C22.0251 8.34747 21.5526 8.21497 21.0651 8.16247C20.8176 8.11247 20.5751 8.27247 20.5276 8.51997C20.4776 8.76747 20.6376 9.00997 20.8851 9.05997H20.9176C22.3151 9.51997 23.5176 10.4425 24.3226 11.675ZM11.1676 11.735C10.1201 11.735 9.16757 12.62 9.16757 14.09C9.16757 15.56 10.1201 16.4425 11.1676 16.4425C12.2151 16.4425 13.1676 15.5575 13.1676 14.09C13.1676 12.6225 12.2151 11.735 11.1676 11.735Z" fill="#422B0D"/>
<path d="M11.07 12.7175C10.8988 12.6361 10.7024 12.6256 10.5235 12.6883C10.3446 12.7511 10.1978 12.882 10.115 13.0525C9.98246 13.33 10.0425 13.6625 10.265 13.8775C10.62 14.0475 11.0475 13.8975 11.22 13.5425C11.3525 13.265 11.2925 12.9325 11.07 12.7175Z" fill="#896024"/>
<path d="M20.75 11.735C19.7025 11.735 18.75 12.62 18.75 14.09C18.75 15.56 19.7025 16.4425 20.75 16.4425C21.7975 16.4425 22.75 15.5575 22.75 14.09C22.75 12.6225 21.8025 11.735 20.75 11.735Z" fill="#422B0D"/>
<path d="M20.6575 12.7175C20.4863 12.6361 20.2899 12.6256 20.111 12.6883C19.9321 12.7511 19.7853 12.882 19.7025 13.0525C19.57 13.33 19.63 13.6625 19.8525 13.8775C20.2075 14.0475 20.635 13.8975 20.8075 13.5425C20.94 13.265 20.88 12.9325 20.6575 12.7175Z" fill="#896024"/>
<defs>
<radialGradient id="paint0_radial_1_4824" cx="0" cy="0" r="1" gradientUnits="userSpaceOnUse" gradientTransform="translate(15.9 15.725) scale(14.24)">
<stop offset="0.5" stop-color="#FDE030"/>
<stop offset="0.92" stop-color="#F7C02B"/>
<stop offset="1" stop-color="#F4A223"/>
</radialGradient>
<radialGradient id="paint1_radial_1_4824" cx="0" cy="0" r="1" gradientUnits="userSpaceOnUse" gradientTransform="translate(9.455 17.3483) scale(6.605 10.1717)">
<stop offset="0.46" stop-color="#29B6F6"/>
<stop offset="1" stop-color="#1E88E5"/>
</radialGradient>
</defs>
</svg>
