<svg xmlns="http://www.w3.org/2000/svg" width="141" height="144" fill="none" xmlns:v="https://vecta.io/nano"><circle cx="70.5" cy="67.5" r="50.5" fill="#f0f5fa"/><path d="M107.638 64L117 118H55.899L49 64h58.638z" fill="#e84f35"/><g filter="url(#A)"><path d="M31.978 64L20 120h78.174L107 64H31.978z" fill="#fff"/></g><g fill="#dee7f3"><circle cx="40.065" cy="82.946" r="2.299"/><circle cx="48.843" cy="82.946" r="2.299"/><circle cx="57.621" cy="82.946" r="2.299"/><circle cx="66.4" cy="82.946" r="2.299"/><circle cx="75.178" cy="82.946" r="2.299"/><circle cx="83.956" cy="82.946" r="2.299"/><circle cx="92.736" cy="82.946" r="2.299"/><circle cx="37.557" cy="92.142" r="2.299"/><circle cx="46.335" cy="92.142" r="2.299"/><circle cx="55.114" cy="92.142" r="2.299"/><circle cx="63.892" cy="92.142" r="2.299"/><circle cx="72.67" cy="92.142" r="2.299"/><circle cx="81.449" cy="92.142" r="2.299"/><circle cx="90.228" cy="92.142" r="2.299"/><circle cx="34.631" cy="101.339" r="2.299"/><circle cx="43.41" cy="101.339" r="2.299"/><circle cx="52.188" cy="101.339" r="2.299"/><circle cx="60.966" cy="101.339" r="2.299"/><circle cx="69.744" cy="101.339" r="2.299"/><circle cx="78.523" cy="101.339" r="2.299"/><circle cx="87.302" cy="101.339" r="2.299"/><circle cx="32.121" cy="110.535" r="2.299"/><circle cx="40.9" cy="110.535" r="2.299"/><circle cx="49.678" cy="110.535" r="2.299"/><circle cx="58.456" cy="110.535" r="2.299"/><circle cx="67.235" cy="110.535" r="2.299"/><circle cx="76.014" cy="110.535" r="2.299"/><circle cx="84.792" cy="110.535" r="2.299"/></g><g stroke-width="1.672" stroke-linecap="round"><path d="M31.838 75.213h70.018" stroke="#dee7f3"/><path d="M43.199 68.942V61m49.328 7.942V61" stroke="#172a3a"/></g><rect x="12" y="15" width="41.029" height="41.029" rx="20.514" fill="#e84f35"/><g clip-path="url(#B)" stroke="#fff" stroke-width="1.887" stroke-miterlimit="10" stroke-linejoin="round"><path d="M32.515 45.771a10.26 10.26 0 0 0 10.257-10.257 10.26 10.26 0 0 0-10.257-10.257 10.26 10.26 0 0 0-10.257 10.257 10.26 10.26 0 0 0 10.257 10.257z"/><path d="M27.855 40.176l4.662-3.73v-6.061" stroke-linecap="round"/></g><path d="M10.174 99.601A2 2 0 0 1 12.134 98h37.918a2 2 0 0 1 1.96 2.399l-4.685 23a2 2 0 0 1-1.96 1.601H7.448a2 2 0 0 1-1.96-2.399l4.685-23z" fill="#bbc8da"/><path d="M9.501 102H51.5l-1.405 7.5H8.096l1.405-7.5z" fill="#172a3a"/><path d="M59 89l-4 4m0 0l-2-2" stroke-linecap="round" stroke="#e84f35" stroke-width="2"/><path d="M95.493 44.626l35.339-6.575s2.096 15.029-13.822 19.075-21.517-12.5-21.517-12.5z" fill="#e84f35"/><path d="M110.239 38.051L95.492 23s-5.607 9.025 0 15.051c6.64 7.139 14.747 0 14.747 0z" fill="#b2c4d3"/><path d="M115.181 35.406L123.129 23l3.07 10.238-11.018 2.168z" fill="#dee7f3"/><path d="M132.399 41.764a.54.54 0 0 1-.513-.361.54.54 0 0 1 .325-.694l4.675-1.676a.54.54 0 1 1 .368 1.019l-4.675 1.676a.4.4 0 0 1-.18.036z" fill="#7699ab"/><defs><filter id="A" x="0" y="48" width="127" height="96" filterUnits="userSpaceOnUse" color-interpolation-filters="sRGB"><feFlood flood-opacity="0" result="A"/><feColorMatrix in="SourceAlpha" values="0 0 0 0 0 0 0 0 0 0 0 0 0 0 0 0 0 0 127 0"/><feOffset dy="4"/><feGaussianBlur stdDeviation="10"/><feColorMatrix values="0 0 0 0 0.152222 0 0 0 0 0.379468 0 0 0 0 0.570833 0 0 0 0.15 0"/><feBlend in2="A"/><feBlend in="SourceGraphic"/></filter><clipPath id="B"><path fill="#fff" transform="translate(20.206 23.206)" d="M0 0h24.617v24.617H0z"/></clipPath></defs></svg>