<svg xmlns="http://www.w3.org/2000/svg" width="140" height="140" fill="none"><circle cx="71.5" cy="63.5" r="50.5" fill="#f0f5fa"/><rect x="15" y="15" width="43" height="43" rx="21.5" fill="#22d4a2"/><path d="M26 37.571L33.368 44 47 29" stroke="#fff" stroke-width="4" stroke-linecap="round"/><rect x="36" y="42" width="71.26" height="47.506" rx="6.598" fill="#e84f35"/><path d="M45.238 71.032h7.918m7.917 0h6.598m7.918 0h6.598m7.918 0h6.598" stroke="#fff" stroke-width="4" stroke-linecap="round"/><rect x="42.598" y="53.877" width="14.516" height="10.557" rx="2.639" fill="#ff6a51"/><rect x="22" y="75.464" width="40" height="40" rx="20" fill="#64b3f7"/><g fill="#f7a964"><path d="M37.324 104.985c-3.851 2.962-8.183 1.108-10.083-1.641-1.758-2.557-.335-5.991 3.457-6.605 1.275-.21 2.809-.092 4.589.485 0 0 1.116.913 2.056 2.184 1.219 1.648 2.148 3.91-.019 5.577z"/><path d="M55.672 99.477c-.886 7.113-4.246 13.335-13.16 11.441-6.068-1.289-10.831-7.21-9.945-14.324s6.776-12.243 13.16-11.442 10.831 7.21 9.945 14.324z"/></g><path d="M46.86 99.197c.454-.196.663-.723.467-1.177s-.723-.663-1.177-.467-.663.723-.467 1.177.723.663 1.177.467zm5.617 3.767c-.02-2.011-.327-3.985-.91-5.898-.17-.551-1.033-.314-.863.237.566 1.852.866 3.742.882 5.676 0 .566.895.56.891-.014zm-17.451-1.424c-1.169-1.757-3.384-2.527-5.387-1.788-.537.203-.308 1.069.236.863 1.606-.596 3.413-.07 4.367 1.371.326.483 1.101.041.783-.446zm16.079-11.054c-2.798.77-13.676-.158-13.063 5.888.159 1.541.764 2.469-.699 3.033-1.552.359-2.056-2.184-2.056-2.184-1.781-.577-3.314-.694-4.589-.485-1.898-6.018.615-9.932 3.323-10.234 0 0 4.089-12.253 9.786-7.399 0 0 7.946-8.564 13.426.168s-6.129 11.213-6.129 11.213z" fill="#172a3a"/><rect x="87" y="25.669" width="38.269" height="38.269" rx="19.135" fill="#ffd578"/><path d="M109.114 41.945c-1.255-1.996-.995-2.229-2.898-3.704 2.536-5.895 13.897-10.911 20.147-2.53 2.832 3.802 1.275 9.463 1.204 9.88 4.529.062 9.469 2.382 11.417 6.184 2.857 5.566-1.607 11.554-7.475 12.693-6.42 1.246-13.327-2.114-17.566-6.946-6.711-7.668-.372-16.785-1.099-17.255-.939-.616-2.817.891-3.73 1.678z" fill="#172a3a"/><g fill="#f7a964"><path d="M108.138 51.922c3.742 2.537 7.113 1.559 8.864-1.025 1.618-2.403.916-6.36-2.719-6.758-1.218-.137-2.683.034-4.365.631 0 0-1.046.876-1.914 2.07-1.127 1.555-1.971 3.654.134 5.082z"/><path d="M105.994 55.775c-8.461 2.085-13.051-3.105-12.811-9.877.108-2.999.511-6.25 2.281-8.83 1.616-2.369 3.992-4.154 6.891-4.622 6.075-.992 11.809 3.434 12.811 9.877.006.024.001.042.006.065.96 6.412-3.438 11.971-9.178 13.386z"/></g><path d="M102.085 45.307c-.461.106-.917-.163-1.018-.601s.191-.879.652-.986.917.163 1.018.601-.191.879-.652.986zm-5.777 3.621a18.33 18.33 0 0 1 .74-5.409c.146-.51.978-.334.832.176a17.6 17.6 0 0 0-.717 5.203c.007.525-.846.563-.855.03z" fill="#172a3a"/><path d="M110.259 48.693c1.081-1.644 3.173-2.444 5.095-1.852.519.156.317.955-.203.799-1.544-.479-3.254.074-4.137 1.43-.293.444-1.046.074-.755-.377z" fill="#e84f35"/><path d="M110.769 44.499c-1.515 1.628-2.176-1.545-6.408-4.529-1.878-1.321-12.204-2.29-12.133-5.832.109-5.171 7.235-1.226 10.133-1.694 6.075-.992 14.148 3.053 13.121 11.945.003.016-3.779-.223-4.714.11z" fill="#172a3a"/></svg>