<svg xmlns="http://www.w3.org/2000/svg" width="140" height="140" fill="none"><style><![CDATA[.B{stroke-miterlimit:10}.C{fill:#b2c4d3}.D{stroke-linecap:round}.E{stroke-width:3.03}]]></style><g clip-path="url(#A)"><circle cx="70.5" cy="69.5" r="50.5" fill="#f0f5fa"/><path d="M95.008 102.901L33.03 87.258c-2.431-.612-4.024-2.597-3.564-4.432l11.28-44.696c.461-1.835 2.809-2.824 5.24-2.212l61.978 15.644c2.431.611 4.024 2.597 3.564 4.432l-11.287 44.696c-.461 1.835-2.809 2.824-5.233 2.212z" fill="#d4e0f0"/><path d="M90.523 61.52l9.037 2.28-.37 1.472-9.037-2.28.37-1.472zm-.544 2.167l9.037 2.28-.37 1.465-9.037-2.28.37-1.465zm.778 6.319c-.657-.445-1.117-.966-1.374-1.563-.257-.589-.294-1.238-.113-1.933l.007-.015c.113-.453.317-.838.612-1.155.287-.317.664-.581 1.117-.778l2.537.936c-.574-.015-1.034.06-1.374.219-.347.166-.574.468-.687.929v.007a1.47 1.47 0 0 0 .393 1.465c.408.423 1.042.747 1.91.966.695.174 1.382.234 2.054.181.68-.053 1.314-.227 1.918-.506l.717 1.955a6.72 6.72 0 0 1-1.6.513c-.566.106-1.148.144-1.752.113s-1.223-.121-1.842-.279c-1.019-.272-1.857-.619-2.522-1.057zm5.179-6.546h.083a2.91 2.91 0 0 0 .77-.144c.219-.075.408-.189.559-.347s.264-.377.332-.649v-.008c.136-.528.015-1.004-.355-1.412-.377-.408-.974-.71-1.789-.921-.498-.128-1.027-.158-1.585-.113a6.33 6.33 0 0 0-1.721.408l-.604-1.978a7.16 7.16 0 0 1 1.495-.393c.498-.075.997-.113 1.487-.098a6.92 6.92 0 0 1 1.435.196c.989.249 1.797.604 2.431 1.05s1.072.974 1.306 1.585c.242.611.265 1.284.083 2.008v.008c-.181.725-.559 1.284-1.14 1.691l-2.861-.861c.03-.023.053-.023.076-.023z" class="C"/><g stroke="#b2c4d3" class="B D E"><path d="M38.707 70.995l30.781 7.769m-32.721-.083l22.046 5.564"/></g><path d="M93.573 78.401l-7.61 6.576 3.692 3.911-3.118 5.595 7.92-6.085-3.692-3.903 2.809-6.093z" class="C"/><g fill="#dee7f3"><path d="M106.181 36.612h-.007a1.17 1.17 0 0 1-1.155-1.17l.075-12.888c.008-.634.521-1.155 1.163-1.155h.007a1.17 1.17 0 0 1 1.155 1.17l-.075 12.888c-.008.642-.529 1.155-1.163 1.155z"/><path d="M112.667 30.21h-.008l-12.888-.076a1.17 1.17 0 0 1-1.155-1.17c.008-.634.521-1.155 1.163-1.155h.008l12.888.075a1.17 1.17 0 0 1 1.155 1.17c-.015.642-.528 1.155-1.162 1.155z"/></g><g stroke="#dee7f3" class="B"><path d="M134.786 59.242l-7.319 3.525 3.525 7.32 7.319-3.525-3.525-7.32z"/><path d="M130.726 70.731l-3.956-8.214 8.214-3.956 3.957 8.214-8.215 3.956zm-2.635-7.754l3.096 6.433 6.432-3.096-3.095-6.433-6.433 3.095z"/></g><g fill="#dee7f3"><path d="M12.833 95.789c-.566-.008-1.019-.461-1.019-1.027l.068-11.317c.008-.559.461-1.012 1.019-1.012h.008c.559.008 1.012.461 1.012 1.027l-.068 11.317c0 .559-.453 1.012-1.019 1.012z"/><path d="M18.526 90.164l-11.325-.068c-.559-.008-1.012-.461-1.012-1.027.008-.559.461-1.012 1.019-1.012h.008l11.317.068c.559.008 1.012.461 1.012 1.027 0 .559-.453 1.012-1.019 1.012z"/></g><g stroke="#e84f35" stroke-width="2" stroke-linejoin="round" class="B D"><path d="M26.264 43.309l-2.28-5.466a2.102 2.102 0 1 0-3.881 1.616l3.179 7.626c.642 1.54 2.416 2.272 3.964 1.631 1.54-.642 2.273-2.416 1.631-3.964l-4.454-10.698c-.891-2.129-3.337-3.141-5.466-2.25s-3.141 3.337-2.25 5.466l3.556 8.539m87.255 67.639l5.806-2.793c1.14-.551 1.615-1.918 1.072-3.058-.551-1.14-1.918-1.616-3.058-1.072l-8.101 3.903a3.3 3.3 0 0 0-1.54 4.402 3.3 3.3 0 0 0 4.401 1.54l11.363-5.473a4.56 4.56 0 0 0 2.129-6.078c-1.087-2.265-3.813-3.217-6.078-2.129l-9.067 4.364"/></g><path d="M102.459 95.88H38.533c-2.507 0-4.538-1.533-4.538-3.428V46.359c0-1.895 2.031-3.428 4.538-3.428h63.926c2.507 0 4.538 1.533 4.538 3.428v46.1c-.008 1.888-2.039 3.42-4.538 3.42z" fill="#fff"/><path d="M87.986 56.854h9.317v1.518h-9.317v-1.518zm0 2.242h9.317v1.51h-9.317v-1.51zm2.303 5.934c-.748-.272-1.321-.657-1.714-1.178-.393-.513-.589-1.133-.589-1.85v-.015a2.68 2.68 0 0 1 .31-1.276c.204-.385.506-.725.898-1.027l2.688.287c-.566.128-.989.309-1.276.551-.294.249-.438.596-.438 1.065v.008a1.46 1.46 0 0 0 .74 1.321c.498.309 1.193.468 2.084.468.717 0 1.404-.113 2.038-.325.642-.211 1.223-.544 1.737-.966l1.17 1.721a6.88 6.88 0 0 1-1.427.891 7.45 7.45 0 0 1-1.669.544c-.597.121-1.216.181-1.857.181-1.049-.008-1.948-.143-2.695-.4zm3.42-7.618a1.23 1.23 0 0 1 .083-.023c.279-.091.513-.196.71-.325a1.36 1.36 0 0 0 .453-.476 1.45 1.45 0 0 0 .166-.71v-.008c0-.551-.226-.981-.695-1.283-.461-.302-1.117-.453-1.963-.453-.513 0-1.034.098-1.563.279-.536.181-1.057.46-1.57.823l-1.065-1.774a7.44 7.44 0 0 1 1.351-.747c.461-.196.936-.347 1.419-.461.483-.106.959-.159 1.442-.159 1.019 0 1.888.144 2.612.423s1.276.687 1.653 1.216c.385.536.566 1.178.566 1.925v.008c0 .747-.227 1.382-.695 1.918l-2.982-.136c.03-.023.053-.03.075-.038z" class="C"/><g stroke="#b2c4d3" class="B D E"><path d="M40.058 78.734h31.748m-31.748 7.92h22.741"/></g><path d="M95.075 72.475l-5.776 8.245 4.538 2.892-1.646 6.184 6.183-7.837-4.537-2.884 1.238-6.599z" fill="#ffd578"/></g><defs><clipPath id="A"><path fill="#fff" d="M0 0h140v140H0z"/></clipPath></defs></svg>