<svg width="27" height="17" viewBox="0 0 27 17" fill="none" xmlns="http://www.w3.org/2000/svg">
<g clip-path="url(#clip0_4299_8115)">
<path d="M8.31277 16.5C12.9038 16.5 16.6255 12.9183 16.6255 8.5C16.6255 4.08172 12.9038 0.5 8.31277 0.5C3.72176 0.5 0 4.08172 0 8.5C0 12.9183 3.72176 16.5 8.31277 16.5Z" fill="#EB001B"/>
<path d="M18.3539 16.5C22.9449 16.5 26.6667 12.9183 26.6667 8.5C26.6667 4.08172 22.9449 0.5 18.3539 0.5C13.7629 0.5 10.0411 4.08172 10.0411 8.5C10.0411 12.9183 13.7629 16.5 18.3539 16.5Z" fill="#F79E1B"/>
<path d="M13.3314 2.11133C15.3329 3.57095 16.6217 5.88401 16.6217 8.48421C16.6217 11.0844 15.3329 13.4015 13.3314 14.8611C11.3299 13.4015 10.0411 11.0884 10.0411 8.48421C10.0411 5.88002 11.334 3.57095 13.3314 2.11133Z" fill="#FF5F00"/>
</g>
<defs>
<clipPath id="clip0_4299_8115">
<rect width="26.6667" height="16" fill="white" transform="translate(0 0.5)"/>
</clipPath>
</defs>
</svg>
