<svg xmlns="http://www.w3.org/2000/svg" width="192" height="192" fill="none"><path d="M129.811 135.158H47.789V42.864h57.888l24.134 22.925v69.369z" fill="#ebf1f7"/><path d="M105.677 42.864v22.925h24.134l-24.134-22.925z" fill="#dee7f3"/><path d="M139.392 123.091h-32.419v32.688a5.81 5.81 0 0 0 5.808 5.808h20.803a5.81 5.81 0 0 0 5.808-5.808v-32.688z" fill="#e84f35"/><g stroke-width="2" stroke-miterlimit="10"><path d="M135.533 132.96h3.724a9.66 9.66 0 0 1 9.658 9.658 9.66 9.66 0 0 1-9.658 9.657h-3.724" stroke="#e84f35"/><path d="M122.563 107.366c0-2.745 1.239-2.745 1.239-5.5 0-2.746-1.239-2.746-1.239-5.492s1.239-2.746 1.239-5.501-1.239-2.755-1.239-5.501c0-2.755 1.239-2.755 1.239-5.501m7.248 36.5c0-1.373 1.238-1.373 1.238-2.745s-1.238-1.373-1.238-2.746 1.238-1.373 1.238-2.746-1.238-1.372-1.238-2.755 1.238-1.373 1.238-2.755m-20.39 14.102c0-2.822 1.238-2.822 1.238-5.635 0-2.822-1.238-2.822-1.238-5.635 0-2.823 1.238-2.823 1.238-5.645s-1.238-2.822-1.238-5.645 1.238-2.822 1.238-5.645" stroke="#172a3a" stroke-linecap="round" stroke-linejoin="round"/></g><path d="M77.789 86.525H98.4v3.36H77.789v-3.36zm0 4.944H98.4v3.341H77.789v-3.341zm5.098 13.123c-1.661-.595-2.918-1.459-3.782-2.602-.864-1.123-1.296-2.496-1.296-4.08v-.038a5.86 5.86 0 0 1 .682-2.813c.451-.845 1.114-1.603 1.978-2.266l5.942.633c-1.248.278-2.179.682-2.832 1.21-.653.547-.97 1.315-.97 2.362v.019c0 1.267.538 2.237 1.642 2.918 1.094.682 2.63 1.037 4.608 1.037 1.584 0 3.101-.24 4.502-.72 1.421-.471 2.698-1.2 3.84-2.131l2.592 3.801c-.95.778-1.997 1.44-3.158 1.968-1.152.528-2.381.931-3.696 1.2a21.24 21.24 0 0 1-4.109.403c-2.304-.019-4.282-.316-5.942-.902zm7.565-16.838c.058-.019.106-.038.182-.048a6.4 6.4 0 0 0 1.565-.72c.432-.278.778-.634 1.008-1.056s.355-.95.355-1.565v-.019c0-1.21-.509-2.16-1.536-2.832s-2.467-.998-4.339-.998c-1.133 0-2.285.211-3.456.614-1.19.403-2.342 1.017-3.475 1.814l-2.362-3.926c.95-.672 1.968-1.21 2.995-1.651a18.03 18.03 0 0 1 3.13-1.018c1.066-.23 2.131-.355 3.187-.355 2.256 0 4.176.317 5.779.931s2.832 1.517 3.658 2.688c.845 1.181 1.258 2.602 1.258 4.263v.019c0 1.651-.499 3.062-1.526 4.243l-6.595-.298c.067-.048.125-.067.173-.086z" fill="#fff"/><path d="M29.05 161.933h116.131" stroke="#172a3a" stroke-width="4" stroke-miterlimit="10" stroke-linecap="round" stroke-linejoin="round"/></svg>