<svg width="31" height="17" viewBox="0 0 31 17" fill="none" xmlns="http://www.w3.org/2000/svg">
<g clip-path="url(#clip0_4299_8120)">
<path d="M1.24127 4.37714C1.25964 4.32239 1.28167 4.191 1.30738 4.1107C1.37716 4.1107 1.45429 4.1107 1.53142 4.1107C2.7728 4.1107 3.56644 4.09593 4.80782 4.09593C5.45422 4.09593 5.85454 4.41347 5.97574 5.04854C6.29527 6.71286 6.60745 8.37718 6.92331 10.0452C6.93432 10.1072 6.95269 10.1729 6.98207 10.286C7.09592 9.9977 7.19509 9.76046 7.29058 9.51958C7.98839 7.76766 8.68621 6.01939 9.37668 4.26748C9.4281 4.14338 9.47952 4.09229 9.62276 4.09229C10.3132 4.09958 11.0074 4.09593 11.6978 4.09593C11.764 4.09593 11.8301 4.09593 11.9292 4.09593C11.8851 4.20543 11.8521 4.29303 11.8154 4.38062C10.5997 7.27128 9.38035 10.1619 8.16836 13.0563C8.12061 13.1731 8.05818 13.2205 7.92596 13.2205C7.20243 13.2132 6.48258 13.2132 5.75905 13.2205C5.61949 13.2205 5.57174 13.1731 5.53869 13.0453C4.97309 10.8518 4.40382 8.65822 3.83455 6.46467C3.77211 6.22378 3.70233 5.98289 3.6399 5.74201C3.56644 5.45732 3.39015 5.26023 3.12939 5.12884C2.39117 4.7602 2.05294 4.54503 1.24127 4.37714C1.24127 4.40269 1.24127 4.35159 1.24127 4.37714Z" fill="#0652E7"/>
<path d="M21.6655 13.1912C22.1906 11.9503 22.7085 10.7167 23.2264 9.48668C23.8801 7.9355 24.5338 6.38433 25.1839 4.83315C25.3896 4.34042 25.7532 4.09589 26.2931 4.10319C26.8881 4.11414 27.4794 4.10684 28.0743 4.10319C28.1882 4.10319 28.2396 4.12144 28.269 4.25283C28.6767 6.22008 29.0917 8.18734 29.5067 10.1546C29.7087 11.1108 29.9107 12.0671 30.1127 13.0234C30.1237 13.0745 30.1237 13.1292 30.1311 13.1949C30.0503 13.1985 29.9842 13.2058 29.918 13.2058C29.3304 13.2058 28.7428 13.2022 28.1551 13.2095C28.0119 13.2095 27.9531 13.1657 27.9274 13.0234C27.865 12.6693 27.7805 12.3226 27.7144 11.9722C27.6961 11.8773 27.652 11.8408 27.5565 11.8408C26.6273 11.8445 25.6981 11.8445 24.7652 11.8408C24.6587 11.8408 24.6146 11.8846 24.5816 11.9759C24.453 12.3408 24.3208 12.7095 24.1813 13.0708C24.1592 13.1292 24.0821 13.2058 24.0307 13.2058C23.2594 13.2131 22.4881 13.2095 21.7169 13.2058C21.7058 13.2095 21.6948 13.2022 21.6655 13.1912ZM25.3125 9.9794C25.9882 9.9794 26.631 9.9794 27.2921 9.9794C27.0533 8.84431 26.8183 7.72746 26.5869 6.61062C26.5722 6.61062 26.5538 6.61062 26.5391 6.61062C26.1351 7.72746 25.7275 8.84431 25.3125 9.9794Z" fill="#0652E7"/>
<path d="M15.0032 12.8735C15.1464 12.2056 15.286 11.5596 15.4329 10.8844C15.5284 10.9282 15.6129 10.9647 15.6973 11.0048C16.4649 11.3625 17.2729 11.5195 18.1213 11.4428C18.4225 11.4173 18.7127 11.337 18.9624 11.1545C19.3811 10.8515 19.4252 10.3479 19.0285 10.023C18.7677 9.80769 18.4666 9.63615 18.1654 9.47921C17.6549 9.21277 17.1517 8.94268 16.722 8.55215C15.5651 7.501 15.9287 5.93888 16.7147 5.12496C17.3391 4.4753 18.125 4.15776 18.9918 4.01177C20.0495 3.83293 21.0852 3.94972 22.0989 4.29645C22.1283 4.3074 22.154 4.322 22.1981 4.3439C22.0622 4.97532 21.9263 5.61039 21.7977 6.21261C21.368 6.09947 20.9493 5.96442 20.5196 5.88413C20.0495 5.79653 19.5684 5.77098 19.1056 5.93523C18.9293 5.99727 18.7494 6.10677 18.6135 6.23451C18.3748 6.4608 18.3674 6.79658 18.6135 7.01192C18.8412 7.21631 19.1093 7.38056 19.3737 7.54115C19.7741 7.78569 20.2001 7.99373 20.5968 8.24192C22.3964 9.37336 21.8602 11.5231 20.7767 12.3991C20.1377 12.9137 19.3994 13.1838 18.6025 13.2896C17.4382 13.4466 16.2997 13.3298 15.1868 12.9465C15.1281 12.9283 15.0767 12.9027 15.0032 12.8735Z" fill="#0652E7"/>
<path d="M13.3691 13.2096C12.5758 13.2096 11.8009 13.2096 11.0002 13.2096C11.654 10.1766 12.304 7.15091 12.9578 4.11426C13.7364 4.11426 14.5187 4.11426 15.3193 4.11426C14.6729 7.14361 14.0229 10.1693 13.3691 13.2096Z" fill="#0652E7"/>
</g>
<defs>
<clipPath id="clip0_4299_8120">
<rect width="29.8667" height="16" fill="white" transform="translate(0.666687 0.5)"/>
</clipPath>
</defs>
</svg>
