<svg xmlns="http://www.w3.org/2000/svg" xmlns:xlink="http://www.w3.org/1999/xlink" width="104" height="104" fill="none"><style><![CDATA[.B{stroke:#172a3a}.C{stroke-width:1.013}.D{stroke-miterlimit:10}]]></style><g filter="url(#A)"><rect x="12" y="9" width="80" height="80" rx="3.95" fill="#fff"/><g clip-path="url(#B)" class="B C D"><path d="M27.427 43.041h34.484c3.649 0 5.702 4.228 3.465 7.134l-5.481 7.112a4.78 4.78 0 0 1-1.672 1.37 4.74 4.74 0 0 1-2.099.489H33.359a4.87 4.87 0 0 1-2.184-.517 4.91 4.91 0 0 1-1.727-1.443l-5.43-7.246c-2.125-2.836-.117-6.9 3.409-6.9z"/><path d="M33.709 56.941c-.475-.002-.943-.114-1.367-.327a3.1 3.1 0 0 1-1.083-.903l-5.219-6.965a2.5 2.5 0 0 1-.489-1.271c-.043-.461.044-.925.248-1.34s.521-.763.912-1.007.841-.373 1.301-.373h33.153c.483-.001.957.136 1.368.393s.741.626.953 1.064a2.62 2.62 0 0 1 .249 1.411c-.05.484-.233.945-.53 1.33l-5.271 6.836a2.94 2.94 0 0 1-1.034.85 2.92 2.92 0 0 1-1.3.301H33.709z"/><use xlink:href="#C"/><path d="M61.104 50.077c1.458 0 2.64-1.191 2.64-2.661s-1.182-2.661-2.64-2.661-2.64 1.191-2.64 2.661 1.182 2.661 2.64 2.661z"/><use xlink:href="#D"/><use xlink:href="#E"/><path d="M44.876 56.943c2.36 0 4.273-1.928 4.273-4.306s-1.913-4.306-4.273-4.306-4.273 1.928-4.273 4.306 1.913 4.306 4.273 4.306z"/><path d="M44.859 54.66c1.109 0 2.008-.906 2.008-2.023s-.899-2.023-2.008-2.023-2.008.906-2.008 2.023.899 2.023 2.008 2.023z"/><path d="M55.034 56.943c2.36 0 4.273-1.928 4.273-4.306s-1.913-4.306-4.273-4.306-4.273 1.928-4.273 4.306 1.913 4.306 4.273 4.306z"/><path d="M55.034 54.66c1.109 0 2.008-.906 2.008-2.023s-.899-2.023-2.008-2.023-2.008.906-2.008 2.023.899 2.023 2.008 2.023z"/><path d="M27.427 43.042l4.543-5.491h25.456l4.485 5.491"/><path d="M39.444 43.042v-5.491"/><path d="M34.404 37.551v-2.609h-2.008v-5.145h16.446v5.443H36.927"/><path d="M46.251 37.551c-.148 0 0-2.311 0-2.311"/><path d="M49.148 33.674h17.16v-2.536H48.842"/><path d="M61.104 31.585v2.089"/><path d="M39.444 29.795v-2.609h-4.745c-.611 0-1.197.245-1.629.68a2.33 2.33 0 0 0-.675 1.642v.288"/><path d="M42.035 29.796v-8.13"/></g><path d="M64.193 75.804s16.859-6.466 16.859-17.768c0-4.847-3.208-9.693-8.025-9.693-6.426-.01-8.834 3.686-8.834 3.686s-2.408-3.696-8.834-3.696c-4.817 0-8.025 4.847-8.025 9.693 0 11.312 16.859 17.778 16.859 17.778z" fill="#e84f35"/><path d="M71.041 59.482h-3.992v-4.014h-5.022v4.014h-3.992v5.05h3.992v4.015h5.022v-4.015h3.992v-5.05z" fill="#fff"/></g><defs><filter id="A" x=".758" y=".569" width="102.484" height="102.484" filterUnits="userSpaceOnUse" color-interpolation-filters="sRGB"><feFlood flood-opacity="0" result="A"/><feColorMatrix in="SourceAlpha" values="0 0 0 0 0 0 0 0 0 0 0 0 0 0 0 0 0 0 127 0"/><feOffset dy="2.81045"/><feGaussianBlur stdDeviation="5.621"/><feColorMatrix values="0 0 0 0 0.382222 0 0 0 0 0.563778 0 0 0 0 0.716667 0 0 0 0.35 0"/><feBlend in2="A"/><feBlend in="SourceGraphic"/></filter><clipPath id="B"><path fill="#fff" transform="translate(22.667 21.667)" d="M0 0h44.122v37.966H0z"/></clipPath><path id="C" d="M28.34 50.077c1.458 0 2.64-1.191 2.64-2.661s-1.182-2.661-2.64-2.661-2.64 1.191-2.64 2.661 1.182 2.661 2.64 2.661z"/><path id="D" d="M34.404 56.943c2.36 0 4.273-1.928 4.273-4.306s-1.913-4.306-4.273-4.306-4.273 1.928-4.273 4.306 1.913 4.306 4.273 4.306z"/><path id="E" d="M34.404 54.66c1.109 0 2.008-.906 2.008-2.023s-.899-2.023-2.008-2.023-2.008.906-2.008 2.023.899 2.023 2.008 2.023z"/></defs></svg>