<svg xmlns="http://www.w3.org/2000/svg" width="88" height="88" fill="none"><rect width="88" height="88" rx="4.4" fill="#fff"/><g stroke="#172a3a" stroke-width="2" stroke-miterlimit="10"><path d="M44.964 55.522s20.796-7.975 20.796-21.916c0-5.978-3.957-11.957-9.899-11.957-7.926-.012-10.897 4.547-10.897 4.547s-2.971-4.559-10.897-4.559c-5.942 0-9.899 5.978-9.899 11.957 0 13.953 20.796 21.928 20.796 21.928z" stroke-linejoin="round"/><path d="M26.23 71.641s1.919-5.513 1.282-8.183-6.638-7.642-9.337-9.407-6.354-5.088-4.848-6.406 3.774 2.743 6.979 3.882c2.564.911 5.491 2.66 5.491 2.66m.839.711s-3.642-3.09-4.01-4.248.96-2.199 2.303-1.122 2.81 3.093 5.016 4.351 5.612 3.594 4.944 8.409-.365 9.353-.365 9.353M16.039 48.034c-.941-1.225 1.063-2.94 2.163-.655.924 1.917 1.823 3.234 3.798 4.519m-3.385-3.846c0-1.024 1.566-2.163 2.403 0 .71 1.829 2.14 3.706 3.238 4.974m39.207 18.615s-1.919-5.513-1.282-8.183 6.638-7.642 9.337-9.407 6.354-5.088 4.848-6.406-3.774 2.743-6.98 3.882c-2.563.911-5.491 2.66-5.491 2.66m-.839.711s3.642-3.09 4.01-4.248-.96-2.199-2.303-1.122-2.81 3.093-5.016 4.351-5.611 3.594-4.944 8.409.365 9.353.365 9.353m18.485-23.607c.941-1.225-1.063-2.94-2.163-.655-.924 1.917-1.823 3.234-3.798 4.519m3.385-3.846c0-1.024-1.566-2.163-2.403 0-.71 1.829-2.14 3.706-3.238 4.974" stroke-linecap="round"/></g><g fill="#e84f35"><path d="M43.037 30.609h3.854v15.942h-3.854z"/><path d="M52.671 36.348v4.464H37.255v-4.464z"/></g></svg>