<svg xmlns="http://www.w3.org/2000/svg" xmlns:xlink="http://www.w3.org/1999/xlink" width="88" height="88" fill="none"><rect width="88" height="88" rx="4.4" fill="#fff"/><g clip-path="url(#A)" stroke="#172a3a" stroke-width="2" stroke-miterlimit="10"><path d="M15.768 47.716h56.272c5.954 0 9.305 6.571 5.654 11.087L68.75 69.855c-.728.9-1.662 1.628-2.728 2.129a8.06 8.06 0 0 1-3.425.76H25.448c-1.237 0-2.457-.274-3.564-.803a7.93 7.93 0 0 1-2.817-2.243l-8.861-11.26c-3.468-4.407-.191-10.722 5.563-10.722z"/><path d="M26.02 69.317a5.22 5.22 0 0 1-2.231-.508c-.693-.332-1.298-.812-1.767-1.404l-8.517-10.823a3.78 3.78 0 0 1-.798-1.975c-.069-.717.071-1.438.406-2.082A3.93 3.93 0 0 1 14.6 50.96a4.16 4.16 0 0 1 2.123-.579h54.1c.789-.001 1.562.211 2.232.611s1.209.973 1.556 1.653a3.9 3.9 0 0 1 .407 2.193c-.081.753-.381 1.469-.865 2.067l-8.6 10.624a4.76 4.76 0 0 1-1.687 1.321c-.66.31-1.387.471-2.122.468H26.02z"/><path d="M17.258 58.651c2.38 0 4.309-1.851 4.309-4.135s-1.929-4.135-4.309-4.135-4.309 1.851-4.309 4.135 1.929 4.135 4.309 4.135zm53.465 0c2.38 0 4.309-1.851 4.309-4.135s-1.929-4.135-4.309-4.135-4.308 1.851-4.308 4.135 1.929 4.135 4.308 4.135zM27.154 69.32c3.851 0 6.972-2.996 6.972-6.691s-3.121-6.691-6.972-6.691-6.972 2.996-6.972 6.691 3.122 6.691 6.972 6.691z"/><use xlink:href="#B"/><use xlink:href="#C"/><path d="M44.214 65.773c1.81 0 3.276-1.408 3.276-3.145s-1.467-3.144-3.276-3.144-3.277 1.408-3.277 3.144 1.467 3.145 3.277 3.145zm16.604 3.547c3.85 0 6.972-2.996 6.972-6.691s-3.121-6.691-6.972-6.691-6.972 2.996-6.972 6.691 3.121 6.691 6.972 6.691z"/><path d="M60.818 65.773c1.81 0 3.276-1.408 3.276-3.145s-1.467-3.144-3.276-3.144-3.276 1.408-3.276 3.144 1.467 3.145 3.276 3.145zm-45.05-18.055l7.413-8.534h41.54l7.319 8.534m-36.663 0v-8.534m-8.223.001V35.13h-3.277v-7.996h26.836v8.459H31.271"/><path d="M46.486 39.185c-.241 0 0-3.592 0-3.592m4.727-2.434h28.002v-3.941H50.714"/><path d="M70.723 29.914v3.246m-35.345-6.029v-4.055h-7.743a3.84 3.84 0 0 0-2.658 1.057c-.705.677-1.101 1.594-1.101 2.551v.447m15.73.003V14.5"/></g><defs><clipPath id="A"><path fill="#fff" transform="translate(8 14.5)" d="M0 0h72v59H0z"/></clipPath><path id="B" d="M27.154 65.773c1.81 0 3.276-1.408 3.276-3.145s-1.467-3.144-3.276-3.144-3.277 1.408-3.277 3.144 1.467 3.145 3.277 3.145z"/><path id="C" d="M44.242 69.32c3.85 0 6.972-2.996 6.972-6.691s-3.121-6.691-6.972-6.691-6.972 2.996-6.972 6.691 3.121 6.691 6.972 6.691z"/></defs></svg>