<svg xmlns="http://www.w3.org/2000/svg" width="107" height="31" fill="none" xmlns:v="https://vecta.io/nano"><path d="M.266 7.248h5.235v16.204H.266V7.248zm5.41-4.504c0 1.391-1.103 2.518-2.827 2.518-1.652 0-2.755-1.127-2.72-2.518C.094 1.286 1.197.192 2.883.192s2.755 1.094 2.793 2.551zm57.169 18.013c0-1.795 1.278-3.095 3.114-3.095s3.079 1.267 3.079 3.095c0 1.766-1.248 3.062-3.114 3.062-1.801 0-3.079-1.296-3.079-3.062z" fill="#e84f35"/><path d="M14.86 11.502c.45.099 1.003.136 1.763.136 2.804 0 4.533-1.366 4.533-3.66 0-2.063-1.488-3.293-4.117-3.293-1.072 0-1.797.099-2.179.198v6.619zM9.637 1.319c1.625-.268 3.911-.466 7.127-.466 3.251 0 5.571.598 7.127 1.799 1.488 1.131 2.492 2.996 2.492 5.194s-.763 4.06-2.144 5.327c-1.801 1.63-4.46 2.364-7.578 2.364-.691 0-1.316-.033-1.801-.099v8.021H9.637V1.319zm28.3 14.445c-2.766-.033-4.911.598-4.911 2.562 0 1.296.9 1.931 2.076 1.931 1.313 0 2.389-.83 2.732-1.861a3.51 3.51 0 0 0 .103-.866v-1.766zm.622 7.687l-.313-1.63h-.103c-1.107 1.3-2.839 1.997-4.842 1.997-3.426 0-5.468-2.393-5.468-4.992 0-4.225 3.945-6.255 9.928-6.222v-.231c0-.866-.485-2.096-3.079-2.096-1.728 0-3.564.565-4.67 1.233l-.969-3.26c1.175-.635 3.495-1.432 6.574-1.432 5.639 0 7.437 3.197 7.437 7.023v5.661c0 1.564.069 3.062.24 3.961h-4.735v-.011zM50.738 7.178l2.526 7.988.828 3.029h.103l.759-3.029 2.076-7.988h5.639l-3.941 10.716c-2.423 6.457-4.048 9.053-5.952 10.683a9.9 9.9 0 0 1-5.086 2.232l-1.106-4.291c.656-.099 1.488-.4 2.282-.866.794-.4 1.66-1.197 2.179-2.03.172-.231.275-.499.275-.731 0-.165-.034-.433-.244-.833l-6.195-14.88h5.857zm37.43 11.05l.137 5.224h-4.567l-.24-2.294h-.103c-.656.999-2.247 2.662-5.296 2.662-3.422 0-5.948-2.063-5.948-7.089V7.178h5.292v8.755c0 2.364.797 3.792 2.629 3.792 1.454 0 2.282-.965 2.629-1.762.137-.301.172-.697.172-1.098V7.178h5.292v11.05h.004zm13.214-2.464c-2.77-.033-4.914.598-4.914 2.562 0 1.296.9 1.931 2.076 1.931 1.316 0 2.389-.83 2.732-1.861.069-.264.107-.565.107-.866v-1.766zm.626 7.687l-.313-1.63h-.103c-1.107 1.3-2.835 1.997-4.842 1.997-3.426 0-5.464-2.393-5.464-4.992 0-4.225 3.941-6.255 9.928-6.222v-.231c0-.866-.484-2.096-3.079-2.096-1.728 0-3.564.565-4.67 1.233l-.969-3.26c1.175-.635 3.495-1.432 6.57-1.432 5.639 0 7.437 3.197 7.437 7.023v5.661c0 1.564.068 3.062.24 3.961h-4.735v-.011z" fill="#7c9cac"/></svg>