<svg width="78" height="28" viewBox="0 0 110 40" fill="none" xmlns="http://www.w3.org/2000/svg">
<path fill-rule="evenodd" clip-rule="evenodd" d="M103.981 15.3267C103.981 14.135 104.922 13.1633 106.052 13.1633C107.213 13.1633 108.124 14.135 108.124 15.3267C108.124 16.5183 107.213 17.49 106.052 17.49C104.922 17.5206 103.981 16.5489 103.981 15.3267ZM106.052 17.0194C106.932 17.0194 107.617 16.2678 107.617 15.3572C107.617 14.4467 106.896 13.695 106.052 13.695C105.172 13.695 104.482 14.4467 104.482 15.3572C104.482 16.2678 105.172 17.0194 106.052 17.0194ZM105.765 16.2983H105.325V14.3856H106.107C106.266 14.3856 106.449 14.3856 106.578 14.4772C106.737 14.5689 106.798 14.7583 106.798 14.9478C106.798 15.1678 106.669 15.3572 106.486 15.4183L106.828 16.2678H106.358L106.077 15.5161H105.765V16.2983V16.2983ZM105.765 15.235H106.016C106.107 15.235 106.205 15.235 106.266 15.2044C106.327 15.1739 106.358 15.0761 106.358 14.9844C106.358 14.9233 106.327 14.8256 106.266 14.795C106.205 14.7644 106.077 14.7644 106.016 14.7644H105.796L105.765 15.235Z" fill="#FD0C15"/>
<path fill-rule="evenodd" clip-rule="evenodd" d="M74.36 0.88L73.7978 4.57722C72.5756 3.91722 71.665 3.66667 70.6933 3.66667C68.1206 3.66667 66.3056 6.30055 66.3056 10.0283C66.3056 12.6011 67.5278 14.1656 69.5322 14.1656C70.3817 14.1656 71.3167 13.8844 72.4778 13.2856L71.885 17.1722C70.6017 17.5511 69.7828 17.6733 68.8111 17.6733C65.0833 17.6733 62.7611 14.85 62.7611 10.34C62.7611 4.26556 65.9572 0 70.565 0C71.1578 0 71.6956 0.0611111 72.1294 0.189444L73.5717 0.568333C73.9506 0.721111 74.0422 0.751667 74.36 0.88Z" fill="#FD0C15"/>
<path fill-rule="evenodd" clip-rule="evenodd" d="M62.8528 3.41611C62.7611 3.38556 62.6328 3.38556 62.5106 3.38556C61.38 3.38556 60.7261 3.97834 59.6567 5.64056L59.9683 3.53834H56.8333L54.7006 17.3617H58.1778C59.4306 8.89778 59.7422 7.45556 61.4045 7.45556C61.4961 7.45556 61.5328 7.45556 61.655 7.45556C61.9667 5.79334 62.3761 4.57111 62.9689 3.44056L62.8528 3.41611Z" fill="#FD0C15"/>
<path fill-rule="evenodd" clip-rule="evenodd" d="M42.13 17.1783C41.1889 17.49 40.4372 17.6489 39.655 17.6489C37.9011 17.6489 36.9294 16.5855 36.9294 14.6055C36.9294 14.2267 36.96 13.7928 37.0211 13.3528L37.2411 12.0022L37.4 10.9022L38.9033 1.46666H42.35L41.9406 3.50166H43.725L43.2239 6.85666H41.47L40.5594 12.6255C40.5289 12.8761 40.4983 13.0655 40.4983 13.1878C40.4983 13.9089 40.8772 14.2205 41.69 14.2205C42.0994 14.2205 42.3806 14.19 42.6311 14.0922L42.13 17.1783Z" fill="#FD0C15"/>
<path fill-rule="evenodd" clip-rule="evenodd" d="M28.4655 7.90166C28.4655 9.65555 29.2783 10.8472 31.0994 11.7578C32.4805 12.4483 32.7311 12.6683 32.7311 13.2917C32.7311 14.1411 32.1016 14.5444 30.7572 14.5444C29.7244 14.5444 28.7833 14.3855 27.6527 13.9822L27.1822 17.1783L27.3411 17.2089L27.9705 17.3372C28.1905 17.3678 28.4716 17.4289 28.8811 17.4594C29.6939 17.5205 30.3539 17.5878 30.7939 17.5878C34.43 17.5878 36.1227 16.115 36.1227 12.98C36.1227 11.0978 35.4322 9.97333 33.6783 9.12388C32.2361 8.43333 32.0772 8.27444 32.0772 7.62055C32.0772 6.86888 32.6394 6.48999 33.77 6.48999C34.4605 6.48999 35.3711 6.58166 36.245 6.70999L36.7461 3.51388C35.8355 3.35499 34.4911 3.23277 33.7027 3.23277C29.7794 3.22666 28.435 5.32888 28.4655 7.90166Z" fill="#FD0C15"/>
<path fill-rule="evenodd" clip-rule="evenodd" d="M101.976 17.3372H98.6822L98.8411 15.9867C97.9 17.05 96.8978 17.5205 95.645 17.5205C93.1028 17.5205 91.4467 15.235 91.4467 11.7822C91.4467 7.17444 94.0194 3.28777 97.0872 3.28777C98.4378 3.28777 99.44 3.88055 100.412 5.16999L101.163 0.311661H104.579L101.976 17.3372ZM96.8672 14.1044C98.4989 14.1044 99.6233 12.1917 99.6233 9.43555C99.6233 7.68166 98.9633 6.70999 97.7717 6.70999C96.2072 6.70999 95.0767 8.65333 95.0767 11.3483C95.0767 13.1633 95.6755 14.1044 96.8672 14.1044Z" fill="#FD0C15"/>
<path fill-rule="evenodd" clip-rule="evenodd" d="M53.1056 17.0561C51.9139 17.435 50.7834 17.6183 49.5306 17.6183C45.6745 17.6183 43.6395 15.4856 43.6395 11.4094C43.6395 6.64278 46.2122 3.16556 49.6895 3.16556C52.5434 3.16556 54.3584 5.13945 54.3584 8.21334C54.3584 9.21556 54.23 10.2178 53.9184 11.6294H47.025C46.9945 11.8494 46.9945 11.9411 46.9945 12.0694C46.9945 13.7011 48.0272 14.5139 50.0378 14.5139C51.26 14.5139 52.3906 14.2328 53.6434 13.6339L53.1056 17.0561ZM51.1622 8.80611C51.1928 8.525 51.1928 8.27445 51.1928 8.11556C51.1928 6.985 50.6 6.33111 49.5611 6.33111C48.4611 6.33111 47.6789 7.21111 47.3672 8.80611H51.1622Z" fill="#FD0C15"/>
<path fill-rule="evenodd" clip-rule="evenodd" d="M14.5445 17.3372H11.0978L13.0717 4.26556L8.62281 17.3372H6.27003L5.98892 4.35722L3.8867 17.3372H0.660034L3.35503 0.342224H8.33559L8.46392 10.8778L11.8495 0.342224H17.2395L14.5445 17.3372Z" fill="#FD0C15"/>
<path fill-rule="evenodd" clip-rule="evenodd" d="M23.4789 11.1894C23.1 11.1589 22.9472 11.1283 22.6966 11.1283C20.7228 11.1283 19.7511 11.8494 19.7511 13.2306C19.7511 14.08 20.2522 14.6422 21.0039 14.6422C22.385 14.6422 23.4178 13.2306 23.4789 11.1894ZM25.9905 17.3372H23.1061L23.1672 15.895C22.2872 17.0561 21.1322 17.5572 19.5311 17.5572C17.6489 17.5572 16.3655 16.0233 16.3655 13.7928C16.3655 10.4072 18.6205 8.46388 22.4461 8.46388C22.8555 8.46388 23.3567 8.49444 23.8578 8.55555C23.9494 8.085 23.9861 7.89555 23.9861 7.64499C23.9861 6.73444 23.3933 6.39222 21.7617 6.39222C20.79 6.39222 19.6594 6.55111 18.8772 6.80166L18.4372 6.96055L18.1255 7.05222L18.5961 3.94777C20.3194 3.41611 21.4805 3.19611 22.7333 3.19611C25.7094 3.19611 27.28 4.60777 27.28 7.24166C27.28 7.93222 27.2189 8.43333 26.9989 9.99777L26.3083 14.9172L26.18 15.7972L26.0883 16.4878L26.0272 16.9889L25.9905 17.3372Z" fill="#FD0C15"/>
<path fill-rule="evenodd" clip-rule="evenodd" d="M80.3428 11.1894C80.0005 11.1589 79.8111 11.1283 79.5605 11.1283C77.5867 11.1283 76.5844 11.8494 76.5844 13.2306C76.5844 14.08 77.0855 14.6422 77.8372 14.6422C79.2489 14.6422 80.2817 13.2306 80.3428 11.1894ZM82.8544 17.3372H79.97L80.0311 15.895C79.1511 17.0561 77.9961 17.5572 76.395 17.5572C74.5128 17.5572 73.2294 16.0233 73.2294 13.7928C73.2294 10.4072 75.4844 8.46389 79.31 8.46389C79.6889 8.46389 80.2205 8.49445 80.7216 8.55556C80.8133 8.085 80.8439 7.89556 80.8439 7.645C80.8439 6.73445 80.2511 6.39222 78.6194 6.39222C77.6478 6.39222 76.5172 6.55111 75.735 6.80167L75.2339 6.93L74.9222 7.02167L75.3928 3.91722C77.1161 3.38556 78.2772 3.16556 79.53 3.16556C82.5061 3.16556 84.0767 4.57722 84.0767 7.21111C84.0767 7.90167 84.0155 8.40278 83.7955 9.96722L83.0744 14.8561L82.9828 15.7361L82.8911 16.4267L82.83 16.8972L82.8544 17.3372Z" fill="#FD0C15"/>
<path fill-rule="evenodd" clip-rule="evenodd" d="M92.5405 3.41611C92.4489 3.38556 92.3205 3.38556 92.1983 3.38556C91.0677 3.38556 90.4139 3.97834 89.3444 5.64056L89.6561 3.53834H86.5211L84.3883 17.3617H87.8655C89.1183 8.89778 89.43 7.45556 91.0922 7.45556C91.1839 7.45556 91.1839 7.45556 91.3428 7.45556C91.6544 5.79334 92.0944 4.57111 92.6566 3.44056L92.5405 3.41611Z" fill="#FD0C15"/>
<path fill-rule="evenodd" clip-rule="evenodd" d="M77.9961 30.7817C77.9961 33.9167 77.0245 35.7683 75.4906 35.7683C74.36 35.7989 73.7061 34.5461 73.7061 32.6944C73.7061 30.5006 74.7083 27.995 76.2789 27.995C77.5561 27.995 77.9961 29.3394 77.9961 30.7817ZM81.4122 30.8122C81.4122 27.335 79.6889 24.6033 76.4561 24.6033C72.7283 24.6033 70.3145 27.8972 70.3145 32.7556C70.3145 36.2328 71.7567 39.0867 75.2645 39.0867C78.8089 39.0928 81.4122 36.5811 81.4122 30.8122Z" fill="#F3AE12"/>
<path fill-rule="evenodd" clip-rule="evenodd" d="M71.4083 22.1956L70.8766 25.8928C69.7155 25.2328 68.9027 24.9822 67.9922 24.9822C65.5783 24.9822 63.8855 27.6161 63.8855 31.3439C63.8855 33.9167 65.0161 35.4811 66.8922 35.4811C67.705 35.4811 68.585 35.2 69.6483 34.6011L69.0861 38.4878C67.8944 38.8667 67.1122 38.9889 66.2016 38.9889C62.7244 38.9889 60.5305 36.1656 60.5305 31.6556C60.5305 25.575 63.5372 21.3094 67.8333 21.3094C68.3955 21.3094 68.8661 21.3706 69.2755 21.4989L70.5894 21.8778C71.0355 22.0061 71.1272 22.0367 71.4083 22.1956Z" fill="#F3AE12"/>
<path fill-rule="evenodd" clip-rule="evenodd" d="M50.0011 24.7011C49.9095 24.6706 49.7811 24.6706 49.6589 24.6706C48.5956 24.6706 47.9967 25.2633 46.9945 26.9256L47.3061 24.8233H44.3911L42.4111 38.6528H45.6378C46.7989 30.1889 47.1106 28.7467 48.6445 28.7467C48.7361 28.7467 48.7361 28.7467 48.895 28.7772C49.1761 27.115 49.5856 25.8928 50.1172 24.7622L50.0011 24.7011Z" fill="#F3AE12"/>
<path fill-rule="evenodd" clip-rule="evenodd" d="M92.2594 38.5245H89.1855L89.3444 37.1739C88.4644 38.2372 87.5233 38.7078 86.3378 38.7078C83.985 38.7078 82.4205 36.4222 82.4205 32.9695C82.4205 28.3617 84.8344 24.475 87.6883 24.475C88.9411 24.475 89.9128 25.0678 90.7928 26.3878L91.5139 21.5294H94.71L92.2594 38.5245ZM87.4622 35.2672C88.9961 35.2672 90.035 33.3545 90.035 30.5983C90.035 28.8445 89.4422 27.9033 88.3116 27.9033C86.8389 27.9033 85.8061 29.8161 85.8061 32.5417C85.8 34.3567 86.3622 35.2672 87.4622 35.2672Z" fill="#F3AE12"/>
<path fill-rule="evenodd" clip-rule="evenodd" d="M19.6533 38.4633C18.5533 38.8422 17.49 39.0256 16.3288 39.0256C12.7233 39.0256 10.8411 36.8928 10.8411 32.8167C10.8411 28.0806 13.255 24.5728 16.4816 24.5728C19.1461 24.5728 20.8388 26.5161 20.8388 29.6206C20.8388 30.6228 20.7105 31.625 20.4294 33.0367H14.0127C13.9822 33.2567 13.9822 33.3483 13.9822 33.4767C13.9822 35.0778 14.9538 35.8906 16.8361 35.8906C17.9972 35.8906 19.03 35.6095 20.1911 35.0106L19.6533 38.4633ZM17.8383 30.2195C17.8383 29.9383 17.8688 29.6878 17.8688 29.5289C17.8688 28.3983 17.3066 27.7445 16.335 27.7445C15.3022 27.7445 14.5811 28.6245 14.2633 30.2195H17.8383V30.2195Z" fill="#F3AE12"/>
<path fill-rule="evenodd" clip-rule="evenodd" d="M58.1533 38.4633C57.0533 38.8422 55.99 39.0256 54.8289 39.0256C51.1928 39.0256 49.3105 36.8928 49.3105 32.8167C49.3105 28.0806 51.7244 24.5728 54.9511 24.5728C57.6155 24.5728 59.3389 26.5161 59.3389 29.6206C59.3389 30.6228 59.2105 31.625 58.9294 33.0367H52.5067C52.4761 33.2567 52.4761 33.3483 52.4761 33.4767C52.4761 35.0778 53.4478 35.8906 55.33 35.8906C56.4911 35.8906 57.5239 35.6095 58.685 35.0106L58.1533 38.4633ZM56.3322 30.2195C56.3628 29.9383 56.3628 29.6878 56.3628 29.5289C56.3628 28.3983 55.8005 27.7445 54.8289 27.7445C53.7961 27.7445 53.075 28.6245 52.7572 30.2195H56.3322V30.2195Z" fill="#F3AE12"/>
<path fill-rule="evenodd" clip-rule="evenodd" d="M103.29 38.4633C102.159 38.8422 101.096 39.0256 99.9656 39.0256C96.36 39.0256 94.4473 36.8928 94.4473 32.8167C94.4473 28.0806 96.8612 24.5728 100.118 24.5728C102.783 24.5728 104.476 26.5161 104.476 29.6206C104.476 30.6228 104.353 31.625 104.066 33.0367H97.6373C97.6067 33.2567 97.6067 33.3483 97.6067 33.4767C97.6067 35.0778 98.5784 35.8906 100.461 35.8906C101.622 35.8906 102.654 35.6095 103.816 35.0106L103.29 38.4633ZM101.475 30.2195C101.475 29.9383 101.506 29.6878 101.506 29.5289C101.506 28.3983 100.943 27.7445 99.9717 27.7445C98.9389 27.7445 98.2178 28.6245 97.9 30.2195H101.475V30.2195Z" fill="#F3AE12"/>
<path fill-rule="evenodd" clip-rule="evenodd" d="M10.065 25.3305C9.43556 24.8905 8.56167 24.5483 7.37 24.5483C6.05611 24.5483 5.01722 24.8294 5.01722 26.2105C5.01722 28.655 9.78389 27.7444 9.78389 33.0122C9.78389 37.8094 6.64889 39.0622 3.795 39.0622C2.54222 39.0622 1.06944 38.6528 0 38.1517L0.782222 34.6378C1.44222 35.2305 2.72556 35.64 3.82556 35.64C4.85833 35.64 6.42889 35.3589 6.42889 33.5683C6.42889 30.7755 1.66222 31.8144 1.66222 26.9194C1.66222 22.4339 4.455 21.12 7.15 21.12C8.65333 21.12 10.0956 21.34 10.9144 21.9022L10.065 25.3305Z" fill="#F3AE12"/>
<path fill-rule="evenodd" clip-rule="evenodd" d="M29.1194 38.4633C28.4594 38.775 27.555 38.995 26.235 38.995C23.4117 38.995 21.6578 36.1717 21.6578 32.725C21.6578 28.2089 24.2 24.64 27.9278 24.64C28.7406 24.64 29.9994 24.9822 30.9711 25.5506L30.25 28.8444C29.5594 28.3739 28.8383 28.0928 28.0867 28.0928C26.3633 28.0928 25.1106 29.6939 25.1106 32.5111C25.1106 34.1428 26.0211 35.4872 27.4328 35.4872C28.2822 35.4872 28.875 35.2978 29.5961 34.8944L29.1194 38.4633Z" fill="#F3AE12"/>
<path fill-rule="evenodd" clip-rule="evenodd" d="M41.2256 34.9861C41.0667 36.1778 40.9139 37.3389 40.8161 38.5611H37.7117L37.9622 36.3367H37.9317C36.96 37.84 35.9578 38.8789 34.1672 38.8789C32.2239 38.8789 31.1606 36.8072 31.1606 34.1428C31.1606 33.2017 31.2217 32.7006 31.4111 31.2583L32.2911 24.8661H35.7684L34.8273 31.295C34.7356 31.9855 34.6072 32.6761 34.6072 33.3972C34.6072 34.21 34.9861 35.0289 35.9211 34.9617C37.3328 34.9617 38.1761 33.2383 38.4267 31.1972L39.3984 24.8661H42.7534L41.2256 34.9861Z" fill="#F3AE12"/>
<path fill-rule="evenodd" clip-rule="evenodd" d="M106.523 38.4022H105.985V36.1105H105.233V35.6094H107.274V36.1105H106.523V38.4022Z" fill="#F3AE12"/>
<path fill-rule="evenodd" clip-rule="evenodd" d="M110 38.4022H109.499V36.08L109.028 38.4022H108.527L108.057 36.08V38.4022H107.556V35.6094H108.338L108.778 37.8033H108.808L109.248 35.6094H110V38.4022Z" fill="#F3AE12"/>
</svg>
