<svg xmlns="http://www.w3.org/2000/svg" width="37" height="37" fill="none"><path fill-rule="evenodd" d="M18.489 0a.95.95 0 0 0-.949.949v1.55L15.994.957a.95.95 0 0 0-1.342.002.95.95 0 0 0 .002 1.342l2.886 2.879v1.612l-1.546-1.542a.95.95 0 0 0-1.342.002.95.95 0 0 0 .002 1.342l2.886 2.879v6.734l-4.755-4.788-.028-4.063a.95.95 0 0 0-.956-.943.95.95 0 0 0-.943.956l.015 2.124L9.83 8.444 9.801 4.38a.95.95 0 0 0-.956-.943.95.95 0 0 0-.943.956l.015 2.125-1.112-1.12a.95.95 0 0 0-1.342-.005.95.95 0 0 0-.005 1.342l1.176 1.185-2.233.003a.95.95 0 0 0-.948.95.95.95 0 0 0 .95.948l4.114-.005 1.074 1.081-2.235.003a.95.95 0 0 0-.948.95.95.95 0 0 0 .95.948l4.115-.005 4.734 4.767H9.431l-2.879-2.886a.95.95 0 0 0-1.342-.002.95.95 0 0 0-.002 1.343l1.541 1.545H5.224l-2.879-2.886a.95.95 0 0 0-1.342-.002A.95.95 0 0 0 1 16.016l1.541 1.545H.949a.95.95 0 0 0-.949.949.95.95 0 0 0 .949.949h1.58L.98 20.989a.95.95 0 0 0-.009 1.342.95.95 0 0 0 1.342.009l2.921-2.88h1.503l-1.55 1.529a.95.95 0 0 0-.009 1.342.95.95 0 0 0 1.342.009l2.921-2.88h6.757l-4.741 4.774-4.098-.005a.95.95 0 0 0-.95.948.95.95 0 0 0 .948.951l2.218.003-1.052 1.06-4.097-.005a.95.95 0 0 0-.95.948.95.95 0 0 0 .948.951l2.216.003-1.191 1.199a.95.95 0 0 0 .005 1.342.95.95 0 0 0 1.342-.005l1.144-1.152-.015 2.143a.95.95 0 0 0 .943.956.95.95 0 0 0 .956-.943l.029-4.081 1.022-1.029-.015 2.141a.95.95 0 0 0 .943.956.95.95 0 0 0 .956-.943l.029-4.08 4.755-4.788v6.759l-2.886 2.879a.95.95 0 0 0-.002 1.343.95.95 0 0 0 1.342.002l1.546-1.542v1.568l-2.886 2.879a.95.95 0 0 0-.002 1.342.95.95 0 0 0 1.342.002l1.546-1.542v1.557a.95.95 0 0 0 .949.949.95.95 0 0 0 .949-.949v-1.545l1.529 1.55a.95.95 0 0 0 1.342.009.95.95 0 0 0 .009-1.342l-2.881-2.921v-1.546l1.529 1.55a.95.95 0 0 0 1.342.009.95.95 0 0 0 .009-1.342l-2.881-2.921v-6.736l4.771 4.804.029 4.074a.95.95 0 0 0 .956.943.95.95 0 0 0 .943-.956l-.015-2.135 1.001 1.008.028 4.053a.95.95 0 0 0 .956.943.95.95 0 0 0 .943-.956l-.015-2.114 1.157 1.165a.95.95 0 0 0 1.342.005.95.95 0 0 0 .005-1.342l-1.233-1.241 2.245-.003a.95.95 0 0 0 .948-.95.95.95 0 0 0-.95-.948l-4.125.005-1.009-1.016 2.224-.003a.95.95 0 0 0 .948-.951.95.95 0 0 0-.95-.948l-4.105.005-4.762-4.796h6.847l2.921 2.88a.95.95 0 0 0 1.342-.009.95.95 0 0 0-.009-1.342l-1.55-1.529h1.504l2.877 2.837a.95.95 0 0 0 1.343-.009.95.95 0 0 0-.009-1.343l-1.507-1.486h1.523a.95.95 0 0 0 .949-.949.95.95 0 0 0-.949-.949h-1.622l1.584-1.588a.95.95 0 0 0-.002-1.343.95.95 0 0 0-1.343.002l-2.922 2.929h-1.438l1.541-1.545a.95.95 0 0 0-.002-1.343.95.95 0 0 0-1.342.002l-2.879 2.886h-6.869l4.742-4.775 4.15-.029a.95.95 0 0 0 .943-.956.95.95 0 0 0-.956-.943l-2.238.016 1.123-1.131 4.062-.028a.95.95 0 0 0 .943-.956.95.95 0 0 0-.956-.943l-2.151.015 1.109-1.116a.95.95 0 0 0-.005-1.342.95.95 0 0 0-1.342.005l-1.139 1.147-.003-2.209a.95.95 0 0 0-.95-.948.95.95 0 0 0-.948.95l.005 4.117-1.038 1.046-.003-2.123a.95.95 0 0 0-.95-.948.95.95 0 0 0-.948.95l.005 4.03-4.774 4.807V9.484l2.881-2.921a.95.95 0 0 0-.009-1.342.95.95 0 0 0-1.342.009l-1.529 1.55V5.191l2.881-2.921A.95.95 0 0 0 22.31.928a.95.95 0 0 0-1.342.009l-1.529 1.55V.949A.95.95 0 0 0 18.489 0z" fill="#80c7ea" fill-opacity=".16"/></svg>