<svg xmlns="http://www.w3.org/2000/svg" width="182" height="224" fill="none" xmlns:v="https://vecta.io/nano"><style><![CDATA[.B{fill:#f0f5fa}.C{fill:#ff6a51}.D{fill:#7699ab}.E{fill:#172a3a}.F{fill:#dee7f3}]]></style><path d="M157.141 95.082l-15.574-6.909-6.909 15.574 15.574 6.909 6.909-15.574z" fill="#b2c4d3"/><path d="M139.052 70.647l15.97 13.791s6.192-10.109 0-15.786c-7.724-7.076-15.97 1.995-15.97 1.995z" class="F"/><path d="M148.41 86.352a4.48 4.48 0 0 0 4.477-4.477 4.48 4.48 0 0 0-4.477-4.477c-2.472 0-4.476 2.004-4.476 4.477s2.004 4.477 4.476 4.477zm12.031 28.472c-.169 0-.339-.081-.449-.229l-2.481-3.409a.56.56 0 0 1 .117-.773.56.56 0 0 1 .773.118l2.482 3.409a.56.56 0 0 1-.118.773.52.52 0 0 1-.324.111zm-52.114-12.149a.54.54 0 0 1-.413-.184.55.55 0 0 1 .044-.781l5.743-5.161a.553.553 0 1 1 .737.825l-5.743 5.161a.55.55 0 0 1-.368.14zm22.103-10.617a.53.53 0 0 1-.427-.206l-2.055-2.525a.55.55 0 0 1 .081-.773.55.55 0 0 1 .773.081l2.055 2.525a.55.55 0 0 1-.081.773c-.103.081-.229.125-.346.125zm27.53-48.308c-.126 0-.251-.044-.354-.125a.55.55 0 0 1-.073-.781l2.481-3.019a.554.554 0 1 1 .854.707l-2.481 3.019a.56.56 0 0 1-.427.199zm23.259 27.471c-.155 0-.317-.066-.427-.199l-5.154-6.17c-.199-.236-.162-.582.066-.78.235-.199.582-.162.78.066l5.154 6.17c.199.236.162.582-.066.78a.54.54 0 0 1-.353.133zm-62.452-52.88c-.044 0-.081-.007-.125-.015l-4.705-1.09c-.294-.066-.479-.368-.412-.663s.361-.486.662-.412l4.705 1.09c.295.066.479.368.413.663a.55.55 0 0 1-.538.427z" fill="#b2c4d3"/><g class="D"><path d="M167.752 73.518h-24.15v-24.15h24.15v24.15zm-23.046-1.105h21.942V50.472h-21.942v21.941zm8.821 67.842h-35.746v-35.747h35.746v35.747zm-34.642-1.104h33.538v-33.538h-33.538v33.538zm41.556-72.385a.55.55 0 0 1-.391-.162l-9.527-9.528c-.214-.214-.214-.567 0-.78s.567-.214.78 0l9.528 9.528c.213.213.213.567 0 .78-.103.103-.25.162-.39.162z"/><path d="M150.913 66.766c-.14 0-.28-.052-.39-.162-.214-.214-.214-.567 0-.78l9.527-9.528c.214-.214.567-.214.781 0s.213.567 0 .78l-9.528 9.528c-.11.103-.25.162-.39.162zm-7.62 50.2h-14.917c-.302 0-.552-.25-.552-.552s.25-.552.552-.552h14.917c.302 0 .552.25.552.552s-.25.552-.552.552zm0 4.676h-14.917c-.302 0-.552-.251-.552-.553s.25-.552.552-.552h14.917c.302 0 .552.251.552.552a.56.56 0 0 1-.552.553zm0 4.675h-2.989c-.302 0-.553-.25-.553-.552s.251-.552.553-.552h2.989c.302 0 .552.25.552.552s-.25.552-.552.552zm-5.802 0h-9.115c-.302 0-.552-.25-.552-.552s.25-.552.552-.552h9.115c.302 0 .552.25.552.552a.55.55 0 0 1-.552.552zm-45.54 73.327l-.493 21.61 37.551.368s.184-4.425-6.936-7.709-8.615-16.405-8.615-16.405l-21.507 2.136zm-67.546-9.167l-8.003 20.086L51.471 224s1.716-4.079-3.814-9.645-2.356-18.378-2.356-18.378l-20.896-5.5z"/></g><path d="M63.258 113.432c.56 11.795 15.72 34.024 18.113 49.898s8.769 44.567 8.769 44.567l29.665-5.603s-3.902-44.501-16.787-71.927c-9.439-20.086-22.95-33.406-22.95-33.406l-16.809 16.471z" class="F"/><path d="M45.131 207.095l-3.387 1.87c-.412.228-.044.861.368.633l3.387-1.87c.42-.228.052-.861-.368-.633zm.56 2.304l-2.761 2.121c-.368.287-.007.928.368.633l2.761-2.12c.375-.28.007-.921-.368-.634zm71.647-.891l-1.377 2.762c-.213.419.428.795.634.368l1.377-2.761c.213-.42-.42-.796-.634-.369zm2.106 2.489l-1.377 2.761c-.213.42.427.795.634.368l1.376-2.761c.214-.419-.427-.795-.633-.368z" class="B"/><g fill="#fff"><path d="M114.062 201.359c-.294 0-.545-.235-.552-.537-1.207-42.69-26.55-89.142-26.808-89.606-.147-.265-.051-.604.214-.751s.604-.052.751.213c.258.464 25.725 47.152 26.941 90.107a.55.55 0 0 1-.537.567z"/><path d="M91.848 120.765c-.066 0-.133-.014-.199-.036a.55.55 0 0 1-.317-.715c1.428-3.74-.302-8.923-.317-8.975-.096-.287.059-.604.346-.699s.604.059.699.346c.074.228 1.877 5.61.302 9.726-.088.221-.294.353-.515.353z"/></g><path d="M70.128 140.675C67.985 162.763 49.085 205.1 49.085 205.1L21.29 193.319s7.915-23.377 14.726-37.919c5.537-11.817 8.276-32.75 12.362-45.613.943-2.967 1.959-5.5 3.1-7.399l3.998-.582 16.25-2.363s.552 19.143-1.598 41.232z" class="F"/><path d="M69.48 132.553a.56.56 0 0 1-.486-.287l-1.811-3.291-5.485-1.951c-.287-.103-.434-.42-.339-.707.103-.287.42-.442.707-.339l5.883 2.099 2.01 3.659a.55.55 0 0 1-.221.751.52.52 0 0 1-.258.066z" fill="#fff"/><path d="M57.029 95.99l-1.553 5.816-3.998.582c-1.141 1.899-2.157 4.432-3.1 7.399-2.408-.868-5.552-2.429-8.924-5.242l17.575-8.555z" class="C"/><path d="M30.693 74.107c-2.96 9.859-.655 25.336 7.194 30.961 0 0 9.925-3.461 12.259-2.938 2.481-4.248 5.345-8.283 8.026-12.436-3.424-1.296-6.376-2.386-7.068-6.207-1.885-10.323 10.337-8.114 18.378-5.684 1.988-7.945 2.724-20.403 2.724-20.403-19.585-5.044-36.851 1.156-41.512 16.706z" class="E"/><path d="M59.614 102.123H39.911c-2.017 0-3.645-1.635-3.645-3.645V70.396c0-2.017 1.635-3.645 3.645-3.645h19.703c2.017 0 3.645 1.635 3.645 3.645v28.082a3.64 3.64 0 0 1-3.645 3.645z" class="D"/><g class="B"><path d="M41.56 66.752h-1.649c-2.017 0-3.645 1.635-3.645 3.645v28.082c0 2.018 1.635 3.645 3.645 3.645h1.649V66.752z"/><path d="M38.909 96.151h-2.864c-1.34 0-2.43-1.09-2.43-2.43v-.434c0-1.34 1.09-2.43 2.43-2.43h2.864v5.294z"/><path d="M4.51 217.903c-.302 0-.552-.25-.552-.552v-52.173c0-5.434 4.418-9.851 9.851-9.851h3.858a8.76 8.76 0 0 0 8.747-8.747v-43.773c0-5.433 4.418-9.851 9.851-9.851.302 0 .552.25.552.552s-.25.552-.552.552a8.76 8.76 0 0 0-8.747 8.747v43.773c0 5.433-4.418 9.851-9.852 9.851H13.81a8.76 8.76 0 0 0-8.747 8.747v52.173c0 .302-.25.552-.552.552z"/><path d="M8.781 218.588H.232v-4.277c0-2.364 1.914-4.278 4.278-4.278s4.278 1.914 4.278 4.278v4.277h-.007z"/></g><path d="M88.057 37.632c2.275 5.441 2.422 11.25-4.712 13.54-4.859 1.561-10.676-.714-12.951-6.155s-.169-11.501 4.712-13.54 10.676.714 12.951 6.155z" class="C"/><path d="M84.014 37.875c.407 0 .736-.33.736-.736s-.33-.736-.736-.736-.736.33-.736.736.33.736.736.736z" class="B"/><path d="M84.567 30.254c0-4.874-8.018.618-9.461 1.222-4.359.832-8.158 6.516-6.833 11.619 1.134 4.344 6.118 9.528 8.732 8.261 4.344-2.577 5.014-6.847 2.982-10.926.751-.891-.111-2.194.236-3.225.56-1.62 4.373-5.228 4.344-6.951z" class="E"/><path d="M78.536 40.083c-8.114-.736-7.171 5.772-4.101 7.245 2.474 1.185 6.325.736 7.864-2.945 1.531-3.689-3.762-4.3-3.762-4.3z" class="C"/><path d="M79.251 42.867c-1.554-.773-3.453-.42-4.572.92-.302.361.213.883.523.523.898-1.082 2.4-1.443 3.681-.81.42.214.788-.427.368-.633zm9.424-3.431a17.34 17.34 0 0 0-3.063-3.836c-.346-.324-.869.199-.523.523 1.163 1.09 2.143 2.319 2.945 3.689.243.405.884.037.641-.376z" class="B"/><g class="E"><path d="M78.087 57.541c-11.501-2.503-16.132 2.953-20.263 19.762s-11.501 26.544-11.501 26.544 33.457 9.453 47.608 7.384c.007-.007 8.548-48.381-15.845-53.689z"/><path d="M68.942 59.477l1.193-5.773 15.646 1.767-1.877 7.083-14.961-3.078z"/></g><path d="M57.7 78.355c-.051 0-.11-.007-.162-.022-.294-.088-.456-.398-.368-.692l3.313-10.787c.088-.294.398-.457.692-.368s.457.398.368.692L58.23 77.965a.56.56 0 0 1-.53.39z" class="B"/><path d="M123.693 52.357c-3.881 7.775-6.406 10.654-11.059 12.009-7.017 2.032-23.731-7.164-34.149-5.419l-2.481 21.426s15.145 9.896 32.662 8.467c15.175-1.237 25.232-16.787 27.081-24.445-1.812-5.073-7.879-9.211-12.053-12.038z" class="E"/><path d="M92.327 87.39a.53.53 0 0 1-.213-.044c-.022-.007-2.562-1.082-5.051-1.082-.317 0-.567-.243-.567-.552a.56.56 0 0 1 .567-.552c2.717 0 5.375 1.127 5.485 1.171.28.118.412.442.287.721a.55.55 0 0 1-.508.339z" class="B"/><path d="M124.134 51.547c-.891-6.258.236-11.685 2.909-13.673 3.784-2.82 2.68 3.357 2.68 3.357l-5.589 10.315z" class="C"/><path d="M132.661 33.869l-13.474 13.518c-1.282 1.281.714 3.269 1.995 1.988l13.474-13.518c.64-.641 1.554-2.555 1.053-3.048-.501-.501-2.408.42-3.048 1.06z" class="D"/><path d="M123.42 52.895c2.114-3.726 3.159-9.77 5.685-15.153 2.127-4.543 3.961-5.986 4.969-4.013.648 1.266-.684 2.673-1.546 6.884 0 0 3.188.655 3.402 2.886 0 0 2.783.685 2.989 4.418.103 1.863.633 4.101-1.465 3.748-.42 1.878-.847 5.64-1.2 8.239-.633 4.646-2.879 6.052-2.879 6.052l-9.955-13.062z" class="C"/><path d="M131.969 41.225l-.545 1.45c-.17.442.545.633.707.199l.544-1.451c.17-.449-.544-.641-.706-.199zm6.324 6.854c-.066-.464-.773-.265-.707.199.089.604 0 1.2-.213 1.775-.169.442.545.633.707.199.257-.707.316-1.428.213-2.172zm-10.411-7.709a17.35 17.35 0 0 0-1.745 5.382c-.073.464.641.663.707.199.28-1.833.825-3.556 1.671-5.206.221-.427-.412-.803-.633-.376zm7.599 3.542l-.361.987c-.162.449.552.641.707.199l.361-.987c.161-.449-.545-.641-.707-.199z" class="B"/><path d="M158.511 33.877h-23.428c-.302 0-.552-.25-.552-.552s.25-.552.552-.552h22.324V2.813h-31.344v14.983c0 .302-.25.552-.552.552s-.552-.25-.552-.552V1.708h33.552v32.168z" class="D"/><path d="M150.125 7.863l-.007-.007c-.714-.383-1.605-.118-1.988.589l-7.091 13.025-4.314-4.602c-.501-.538-1.333-.685-1.944-.28-.773.523-.876 1.583-.258 2.238l5.037 5.368 1.119 1.193a1.06 1.06 0 0 0 1.708-.221l.78-1.428 7.562-13.886c.383-.714.118-1.605-.604-1.988zM160.22 0h-4.521v4.521h4.521V0z" class="C"/></svg>