<svg xmlns="http://www.w3.org/2000/svg" width="34" height="34" fill="none"><path d="M11.573 24.055a3.57 3.57 0 0 1 2.167-3.285l3.103-1.33-1.998-.999v-.96l1.959-.489c-.489-.701-.761-1.543-.761-2.41v-4.084c0-.587.191-1.139.527-1.594-.586-1.551-1.934-2.741-3.625-2.928l-.506-.03a3.99 3.99 0 0 0-.506.03c-2.15.234-3.753 2.099-3.931 4.254-.136 1.662-.446 3.842-1.13 5.279a.96.96 0 0 0 .633 1.343l2.533.633v.96l-4.343 2.172A3.84 3.84 0 0 0 3.77 22.84c-.225.676.276 1.373.99 1.373h6.813v-.157z" fill="#dee7f3"/><path d="M11.564 24.382v-.327a3.57 3.57 0 0 1 2.168-3.285l4.097-1.755v-.897l-.553-.552c-.79-.791-1.237-1.866-1.237-2.988v-4.08a2.66 2.66 0 0 1 1.326-2.308c.714-.417 1.806.089 1.36-.803-.468-.931 3.332.391 4.042.803.82.48 1.326 1.356 1.326 2.308v4.084c0 1.122-.446 2.193-1.237 2.988l-.553.552v.897l4.097 1.755a3.58 3.58 0 0 1 2.168 3.285v.327" stroke="#172a3a" stroke-miterlimit="10" stroke-linecap="round" stroke-linejoin="round"/><path d="M26.346 28.764l-1.152.68c-.17.102-.387.102-.557 0l-1.152-.68c-2.019-1.186-3.255-3.353-3.255-5.695v-3.068a1.1 1.1 0 0 1 .85-1.071l3.587-.846a1.13 1.13 0 0 1 .506 0l3.587.846c.497.119.85.561.85 1.071v3.069c-.009 2.342-1.25 4.509-3.264 5.695z" fill="#e84f35"/></svg>