<svg xmlns="http://www.w3.org/2000/svg" width="34" height="34" fill="none"><path d="M22.738 25.623c2.145 0 3.884-1.739 3.884-3.884s-1.739-3.885-3.884-3.885-3.884 1.739-3.884 3.885 1.739 3.884 3.884 3.884zm-2.865-11.619l-1.866 1.866a1.89 1.89 0 0 1-2.669 0 1.89 1.89 0 0 1 0-2.669l1.849-1.849a1.89 1.89 0 0 1 1.334-.552h1.636a1.89 1.89 0 0 0 1.334-.553l1.122-1.122A6.32 6.32 0 0 0 17.13 5.95c-3.498 0-6.332 2.835-6.332 6.333s2.835 6.332 6.332 6.332a6.31 6.31 0 0 0 4.956-2.401l-2.214-2.21z" fill="#dee7f3"/><path d="M24.544 18.874L20.4 15.236l-.548-.485-1.283 1.343c-.91.935-2.384 1.016-3.387.178-1.033-.858-1.122-2.41-.2-3.383l1.135-1.22-2.346-.553a1.23 1.23 0 0 1-.553-.285l-.773-.68c-.561-.493-1.441-.408-1.964.191l-3.795 4.322c-.523.595-.493 1.479.064 1.972l2.172 1.908 1.271-1.271a1.16 1.16 0 0 1 1.636 0l.229.23a1.16 1.16 0 0 1 0 1.636 1.16 1.16 0 0 1 1.636 0l.229.23a1.16 1.16 0 0 1 0 1.636 1.16 1.16 0 0 1 1.636 0l.229.23a1.16 1.16 0 0 1 0 1.636 1.16 1.16 0 0 1 1.636 0l.229.23a1.16 1.16 0 0 1 0 1.636l-1.683 1.683.986 1.105c.561.493 1.436.408 1.963-.191s.493-1.479-.064-1.972c.561.493 1.441.408 1.963-.191s.493-1.479-.064-1.972c.561.493 1.436.408 1.963-.191s.493-1.479-.064-1.972c.561.493 1.441.408 1.963-.191.51-.595.48-1.479-.076-1.972z" fill="#e84f35"/><g fill-rule="evenodd" fill="#172a3a"><path d="M11.503 17.682a.64.64 0 0 0-.9 0l-1.696 1.696-.328-.328.328.328a.64.64 0 0 0 0 .9h0l.229.229a.64.64 0 0 0 .9 0l1.696-1.696.34.34-.34-.34a.64.64 0 0 0 0-.9h0l-.229-.229zm-1.636-.736a1.68 1.68 0 0 1 2.372 0h0l.229.229a1.68 1.68 0 0 1 0 2.372l-1.696 1.696a1.68 1.68 0 0 1-2.372 0h0l-.229-.23a1.68 1.68 0 0 1 0-2.372l.368.368-.368-.368 1.696-1.696.335.335-.335-.335z"/><path d="M13.364 19.548a.64.64 0 0 0-.9 0l-1.696 1.696a.64.64 0 0 0 0 .9l.229.228a.64.64 0 0 0 .901.001l1.696-1.696a.64.64 0 0 0 0-.9l-.229-.229zm-1.636-.736a1.68 1.68 0 0 1 2.372 0l.229.229a1.68 1.68 0 0 1 0 2.372l-1.696 1.696a1.68 1.68 0 0 1-2.37.002l-.002-.002-.229-.23a1.68 1.68 0 0 1 0-2.372l1.696-1.696z"/><path d="M15.23 21.41a.64.64 0 0 0-.9 0l-1.696 1.696a.64.64 0 0 0 0 .9l.229.229a.64.64 0 0 0 .901-.001l1.695-1.695a.64.64 0 0 0 0-.9l-.229-.229zm-1.636-.736a1.68 1.68 0 0 1 2.372 0l.229.229a1.68 1.68 0 0 1 0 2.372l-1.697 1.697a1.68 1.68 0 0 1-2.37-.002l-.229-.23a1.68 1.68 0 0 1 0-2.372l1.696-1.696z"/><path d="M17.091 23.271a.64.64 0 0 0-.9 0l-1.696 1.696a.64.64 0 0 0 0 .9l.231.231a.63.63 0 0 0 .897 0l.002-.002 1.696-1.696a.64.64 0 0 0 0-.9l-.229-.229zm-1.636-.736a1.68 1.68 0 0 1 2.372 0l.229.23a1.68 1.68 0 0 1 0 2.372l-1.695 1.695c-.654.659-1.72.659-2.374 0l-.229-.229a1.68 1.68 0 0 1 0-2.372l1.696-1.696zm9.652-13.233a1.37 1.37 0 0 0-1.934-.001l-1.313 1.313-.368-.368.368.368a2.41 2.41 0 0 1-1.702.705h-1.636a1.37 1.37 0 0 0-.966.4l-1.848 1.848a1.37 1.37 0 0 0-.002 1.933 1.37 1.37 0 0 0 1.934.001l.368.368-.368-.368 1.866-1.866a.52.52 0 1 1 .736.736l-1.866 1.866a2.41 2.41 0 0 1-3.404.001l-.001-.001a2.41 2.41 0 0 1-.001-3.404l.001-.001 1.849-1.849h0a2.41 2.41 0 0 1 1.703-.705h1.636a1.37 1.37 0 0 0 .967-.4l1.313-1.313.368.368-.368-.368a2.41 2.41 0 0 1 3.404-.001l.001.001 2.669 2.669a2.41 2.41 0 0 1 .001 3.404l-.001.001-3.999 3.999a.52.52 0 1 1-.736-.736l3.998-3.998a1.37 1.37 0 0 0 .001-1.934l.368-.368-.368.368-2.668-2.668z"/></g></svg>