<svg xmlns="http://www.w3.org/2000/svg" width="34" height="34" fill="none"><path d="M26.771 7.871l2.898 1.309a1.99 1.99 0 0 1 .994 2.627l-6.94 15.381a1.99 1.99 0 0 1-2.626.994l-4.722-2.129" fill="#dee7f3"/><path d="M25.377 6.847l-8.674-2.133c-1.067-.263-2.138.391-2.401 1.454l-2.397 9.762c.612 1.156 1.245 2.286 1.653 3.51.91-.136 1.853-.106 2.435-.88.569-.756-.094-1.543-.646-2.01-.361-.306-.527-.735-.459-1.164l.612-3.642c.225-1.326 1.317-2.465 2.07-3.111.268-.229.735-.072.735.255v11.568c0 .871-.833 1.577-1.861 1.577h-2.435v.026c0 1.211-.808 2.316-1.543 3.073l7.939 1.951c1.067.264 2.142-.391 2.401-1.453L26.83 9.244c.259-1.062-.391-2.138-1.454-2.397z" fill="#e84f35"/><g fill-rule="evenodd"><path d="M11.228 6.401c-.257.567-.592 1.666-.592 3.726 0 1.233.264 2.312.661 3.331.413-1.063.691-2.155.691-3.336 0-1.738-.422-3.017-.759-3.722zm-.503 8.365c-.63-1.354-1.13-2.85-1.13-4.638 0-2.649.526-3.919.881-4.538l.001-.003c.176-.303.493-.419.751-.419s.577.115.751.423c.429.751 1.05 2.326 1.05 4.532 0 1.703-.511 3.226-1.151 4.636l.641 1.232.078.145 1.31 2.729.043-.005.188-.022c.695-.086 1.134-.195 1.431-.591.142-.19.142-.363.04-.581-.117-.249-.352-.504-.607-.721L15 16.945c-.479-.411-.735-1.016-.629-1.645l.612-3.644c.258-1.525 1.482-2.764 2.244-3.419l.003-.003c.298-.251.681-.276.976-.174s.615.38.615.826v11.568c0 1.236-1.15 2.097-2.382 2.097h-1.951c-.164 1.111-.85 2.076-1.468 2.752-.363.397-.724.718-.994.941l-.33.259-.095.07-.027.019-.008.005-.003.002h0a.52.52 0 0 1-.617-.02l-.104-.074-.321-.249a8.8 8.8 0 0 1-.967-.919c-.607-.674-1.268-1.64-1.422-2.786H6.099c-1.232 0-2.382-.861-2.382-2.097V8.883c0-.445.321-.723.61-.826s.674-.085.97.171a8.94 8.94 0 0 1 1.207 1.221c.389.488.749 1.076.892 1.718v.001c.264 1.198.423 3.01.5 4.034v.003c.044.638-.273 1.209-.771 1.586l-.001.001c-.269.202-.523.513-.523 1.024a.52.52 0 0 0 .152.393c.114.119.304.236.601.354s.647.216 1.057.324l.255.067.051.013c.358-.954.828-1.87 1.286-2.764l.095-.186.625-1.251zm-.998 4.479c.336-.871.783-1.744 1.254-2.662l.046-.091.283-.556.291.547.037.068 1.223 2.5c-.331.094-.664.238-.966.469-.272.208-.495.456-.676.729-.353-.445-.836-.803-1.492-1.003zm-1.331.714l-.248-.065-1.176-.363c-.355-.141-.705-.326-.969-.602a1.56 1.56 0 0 1-.441-1.113c0-.933.494-1.522.938-1.856.266-.201.375-.454.359-.682l-.478-3.885c-.095-.425-.349-.869-.69-1.295a7.68 7.68 0 0 0-.934-.962v11.32c0 .506.516 1.056 1.341 1.056H8.12c.041-.531.138-1.048.276-1.553zm.768 1.553c.038-.433.12-.857.235-1.279l.021.006c.616.187 1.026.601 1.284 1.154l-.01.035-.023.083H9.164zm.022 1.041c.146.788.62 1.51 1.142 2.09l.197.21-.078-1.205c-.005-.352.005-.723.042-1.096H9.186zm2.848 2.278l.217-.228c.542-.593 1.024-1.308 1.18-2.05h-1.362l.049.75a10.98 10.98 0 0 1-.084 1.528zm-.176-3.319h1.605c-.039-.513-.132-1.001-.265-1.475a1.81 1.81 0 0 0-.671.309c-.314.239-.55.587-.716 1.018l.047.148zm2.374-1.637a8.59 8.59 0 0 1 .274 1.637h1.933c.825 0 1.341-.55 1.341-1.056V9.135c-.722.642-1.59 1.622-1.771 2.694l-.612 3.64v.002c-.038.229.046.482.28.683.294.25.663.622.874 1.072.225.481.274 1.079-.149 1.646l-.001.001c-.587.782-1.455.915-2.136.999l-.033.004z" fill="#172a3a"/><path d="M19.91 12.44c.265.065.427.332.362.597l-.506 2.066c-.065.265-.332.427-.597.362s-.427-.332-.362-.597l.506-2.065c.065-.265.332-.427.597-.362zm1.016-4.131c.265.065.427.332.362.597l-.506 2.066c-.065.265-.332.427-.597.362s-.427-.332-.362-.597l.506-2.066c.065-.265.332-.427.597-.362zm2.895.71c.265.065.427.333.361.598l-.714 2.894c-.065.265-.333.426-.598.361s-.427-.333-.361-.598l.714-2.894c.065-.265.333-.427.598-.361zm-3.322 13.494c.265.064.428.331.364.596l-.234.965c-.064.265-.331.428-.596.364s-.428-.331-.364-.596l.234-.965c.064-.265.331-.428.596-.364z" fill="#f0f5fa"/></g></svg>