<svg xmlns="http://www.w3.org/2000/svg" width="34" height="34" fill="none"><path d="M24.123 16.273v2.712h-2.38V8.372h3.039a1.72 1.72 0 0 1 1.717 1.717v4.267h-.463c-1.054 0-1.912.858-1.912 1.917z" fill="#dee7f3"/><g fill-rule="evenodd" fill="#172a3a"><path d="M9.125 7.031c-.771 0-1.396.625-1.396 1.396V24.73c0 .771.625 1.396 1.396 1.396h5.019a.521.521 0 1 1 0 1.041H9.125a2.44 2.44 0 0 1-2.437-2.437V8.428a2.44 2.44 0 0 1 2.437-2.437h10.548a2.44 2.44 0 0 1 2.437 2.437v10.808a.521.521 0 1 1-1.041 0V8.428c0-.771-.626-1.396-1.396-1.396H9.125zm.92 9.752a.52.52 0 0 1 .52-.52h3.838a.521.521 0 1 1 0 1.041h-3.838a.52.52 0 0 1-.52-.52zm0-2.567a.52.52 0 0 1 .52-.52h7.671a.521.521 0 1 1 0 1.041h-7.671a.52.52 0 0 1-.52-.52z"/><path d="M10.045 11.802a.52.52 0 0 1 .52-.52h7.671a.52.52 0 1 1 0 1.041h-7.671a.52.52 0 0 1-.52-.52z"/></g><path d="M16.945 28.144h-.217a1.08 1.08 0 0 1-1.08-1.079v-7a1.08 1.08 0 0 1 1.08-1.079h.217a1.08 1.08 0 0 1 1.079 1.079v7a1.08 1.08 0 0 1-1.079 1.079zm4.76 0h-.217a1.08 1.08 0 0 1-1.079-1.079v-5.036a1.08 1.08 0 0 1 1.079-1.079h.217a1.08 1.08 0 0 1 1.08 1.079v5.036a1.08 1.08 0 0 1-1.08 1.079zm4.76 0h-.217a1.08 1.08 0 0 1-1.079-1.079V16.792a1.08 1.08 0 0 1 1.079-1.079h.217a1.08 1.08 0 0 1 1.079 1.079v10.272a1.08 1.08 0 0 1-1.079 1.079z" fill="#e84f35"/></svg>