<svg xmlns="http://www.w3.org/2000/svg" xmlns:xlink="http://www.w3.org/1999/xlink" width="201" height="201" fill="none" xmlns:v="https://vecta.io/nano"><path d="M127.5 117.32l8.88 1.46c16.9 2.77 33.06-9.7 36.04-27.82l2.57-15.66c.8-4.9-6.78-6.16-7.59-1.25l-.49 3c-.5 3.06-3.23 5.16-6.08 4.69l-10.97-1.8.7-4.27 10.97 1.8c.65.11 1.28-.38 1.39-1.08l.49-3c1.74-10.58 17.3-8.04 15.56 2.55L176.4 91.6c-3.36 20.47-21.63 34.57-40.72 31.44l-16.18-2.66c2.78-.69 5.46-1.73 8-3.06zm-54.96-9.02l-8.88-1.46c-16.9-2.77-28.22-19.77-25.25-37.88l2.57-15.66c.8-4.9 8.39-3.67 7.59 1.25l-.49 3c-.5 3.06 1.41 5.92 4.26 6.39l10.97 1.8.7-4.27-10.97-1.8c-.65-.11-1.09-.77-.98-1.47l.49-3C54.29 44.62 38.74 42.05 37 52.65l-2.57 15.66c-3.36 20.47 9.44 39.67 28.53 42.81l16.18 2.66c-2.41-1.57-4.62-3.41-6.6-5.48z" fill="#dee7f3"/><path d="M136.38 118.779l-8.88-1.46a36.43 36.43 0 0 1-8 3.07l11.5 1.89c2.01-1 3.96-2.14 5.82-3.43l-.44-.07z" fill="#ffa303"/><path d="M150.559 75.673l-.702 4.273 7.352 1.207.702-4.273-7.352-1.207zM56.653 60.252l-.701 4.273 7.352 1.207.702-4.273-7.352-1.207z" fill="#b2c4d3"/><path d="M63.66 106.84l-.44-.08a46 46 0 0 0 4.42 5.12l11.5 1.89c-2.41-1.56-4.62-3.4-6.6-5.47l-8.88-1.46z" fill="#ffa303"/><path d="M152.14 63.659l-85.79-14.08c-3.93-.64-7.63 2.02-8.28 5.94l100.01 16.42c.65-3.93-2.01-7.63-5.94-8.28z" fill="#dee7f3"/><path d="M63.04 56.34l-2.71 16.53c-3.41 20.76 9.77 40.42 29.85 45.55l17.37 2.85c20.67 1.56 39.44-12.86 42.85-33.61l2.71-16.53-90.07-14.79z" fill="#b2c4d3"/><path d="M68.17 71.26l-7.43-.91-.41 2.52c-1.81 11.03 1.06 21.76 7.17 30.15 18.86 2.17 34.46-2.03 35.77-10.01 1.41-8.59-14.3-18.33-35.1-21.75z" fill="#dee7f3"/><path d="M141.24 69.18l-1.5 9.16c-3.41 20.76-22.27 36.08-42.85 33.61-4.28-.51-12.96-1.93-17.37-2.85-3.93-.82-7.52-2.53-10.83-4.52 5.33 6.63 12.76 11.61 21.5 13.85l17.37 2.85c20.67 1.56 39.44-12.86 42.85-33.61l2.71-16.53-11.88-1.96z" fill="#b2c4d3"/><path d="M90.69 118.5l-1.55 9.47 16.36 2.69 1.55-9.47-16.36-2.69z" fill="#d67205"/><path d="M89.77 124.09l16.36 2.69.92-5.59-16.36-2.69-.92 5.59z" fill="#c96b05"/><path d="M85.43 127.369l-1.35 8.23 23.76 3.9 1.35-8.23-23.76-3.9z" fill="#ffcf03"/><path d="M108.13 139.499l-24.32-3.99a4.38 4.38 0 0 0-5.03 3.62l-.24 1.47 32.97 5.41.24-1.47c.38-2.39-1.23-4.64-3.62-5.04z" fill="#ffdc01"/><path d="M72.08 139.54l-3.59 21.85 45.88 7.53 3.59-21.85-45.88-7.53z" fill="#b2c4d3"/><path opacity=".35" d="M68.78 159.58l4.92 1.01c17.9 2.94 33.69-2.41 35.26-11.95a9.52 9.52 0 0 0 .01-3.06l-36.9-6.06-3.29 20.06z" fill="#ffb600"/><g fill="#dee7f3"><path d="M115.15 169.05l-47.45-7.79a4.04 4.04 0 0 0-4.64 3.33l-.07.42 55.42 9.1.07-.42c.36-2.2-1.13-4.27-3.33-4.64z"/><path d="M140.56 149.74l-72.54 16.8a4.83 4.83 0 0 1-5.79-3.61l-10.37-44.75a4.83 4.83 0 0 1 3.61-5.79l72.54-16.8a4.83 4.83 0 0 1 5.79 3.61l10.37 44.75c.6 2.59-1.02 5.19-3.61 5.79z"/></g><g fill="#fff"><use xlink:href="#B"/><use xlink:href="#B" x="16.26" y="-3.77"/><use xlink:href="#B" x="32.52" y="-7.551"/><use xlink:href="#B" x="48.78" y="-11.33"/></g><path d="M72.42 126.85c1.24-.28 2.47.37 2.92 1.49l5.32-1.19-.7-3.05c-.32-1.41-1.76-2.28-3.21-1.95L66 124.56c-1.45.33-2.37 1.73-2.05 3.14l.23 1.01 8.24-1.86zm3.09 2.23c.08 1.2-.75 2.32-1.99 2.6l-8.23 1.86-.17-.74 8.24-1.86c.95-.22 1.55-1.14 1.34-2.07-.21-.92-1.17-1.51-2.11-1.28l-8.24 1.86 1.08 4.75c.32 1.41 1.76 2.28 3.21 1.95l10.75-2.42c1.45-.33 2.37-1.73 2.05-3.14l-.62-2.7-5.31 1.19z" fill="#30485b"/><path d="M121.903 106.882l-5.475 1.268 2.072 8.944 5.475-1.269-2.072-8.943z" fill="#ff5f00"/><path d="M118.03 112.49c-.41-1.74.01-3.58 1.14-4.98-2.92-1.37-6.4-.11-7.77 2.81s-.11 6.4 2.81 7.77c2.44 1.14 5.34.47 7.03-1.63a5.8 5.8 0 0 1-3.21-3.97z" fill="#eb001b"/><path d="M129.4 109.86c.73 3.14-1.23 6.28-4.37 7.01-1.28.3-2.61.15-3.8-.4 2.02-2.51 1.62-6.19-.89-8.21a6 6 0 0 0-1.18-.74c2.02-2.51 5.7-2.91 8.21-.89a5.75 5.75 0 0 1 2.03 3.23z" fill="#f79e1b"/><path d="M131.65 124.25l-67.89 30.57c-2.43 1.09-5.29.01-6.38-2.42l-18.86-41.88c-1.09-2.43-.01-5.29 2.42-6.38l67.89-30.57c2.43-1.09 5.29-.01 6.38 2.42l18.86 41.88c1.1 2.42.01 5.28-2.42 6.38z" fill="#162a3a"/><g fill="#fff"><use xlink:href="#C"/><use xlink:href="#C" x="15.22" y="-6.86"/><use xlink:href="#C" x="30.44" y="-13.72"/><path d="M108.49 112.24c-.83.37-1.81 0-2.18-.83-.38-.83 0-1.81.83-2.19l8.79-3.96c.83-.37 1.81 0 2.18.83.38.83 0 1.81-.83 2.19l-8.79 3.96z"/></g><path d="M60.37 115.03c1.16-.52 2.5-.11 3.15.89l4.99-2.21-1.27-2.86c-.59-1.32-2.17-1.89-3.53-1.29l-10.08 4.46c-1.36.6-1.99 2.16-1.4 3.48l.42.95 7.72-3.42zm3.46 1.59c.31 1.16-.28 2.42-1.44 2.93l-7.72 3.42-.31-.69 7.72-3.43c.89-.4 1.3-1.42.92-2.29a1.76 1.76 0 0 0-2.32-.85l-7.72 3.43 1.99 4.45c.59 1.32 2.17 1.89 3.53 1.29l10.08-4.46c1.36-.6 1.99-2.16 1.4-3.48l-1.13-2.53-5 2.21z" fill="#30485b"/><path d="M105.025 85.833L99.9 88.141l3.77 8.37 5.124-2.308-3.769-8.37z" fill="#ff5f00"/><path d="M102.32 92.09a5.82 5.82 0 0 1 .15-5.1 5.83 5.83 0 0 0-2.81 11.33c2.61.65 5.33-.58 6.58-2.96-1.74-.43-3.19-1.64-3.92-3.27z" fill="#eb001b"/><path d="M112.97 87.29c1.32 2.94.01 6.4-2.93 7.72a5.78 5.78 0 0 1-3.8.34 5.84 5.84 0 0 0-2.47-7.88 5.52 5.52 0 0 0-1.3-.49 5.84 5.84 0 0 1 7.88-2.47 5.89 5.89 0 0 1 2.62 2.78z" fill="#f79e1b"/><path d="M22.97 91.04l4.72 2.1c.17.08.37.06.53-.04l4.4-2.7c.4-.25.92.08.87.55l-.54 5.13a.57.57 0 0 0 .2.5l3.92 3.35a.58.58 0 0 1-.25 1l-5.05 1.08c-.18.04-.34.17-.41.34l-1.97 4.77a.58.58 0 0 1-1.03.07l-2.58-4.47c-.09-.16-.26-.27-.45-.28l-5.14-.4c-.47-.04-.7-.6-.38-.95l3.45-3.84a.55.55 0 0 0 .13-.52l-1.2-5.02c-.12-.47.35-.86.78-.67zm109.36-54.79l.73 5.11a.56.56 0 0 0 .31.43l4.62 2.3c.43.21.42.82 0 1.03l-4.63 2.27a.54.54 0 0 0-.31.43l-.76 5.1a.57.57 0 0 1-.98.31l-3.59-3.71a.57.57 0 0 0-.51-.17l-5.09.86a.57.57 0 0 1-.6-.83l2.42-4.56c.09-.17.09-.37 0-.53l-2.39-4.57c-.22-.42.14-.91.61-.83l5.08.89a.59.59 0 0 0 .51-.16l3.61-3.68c.33-.35.9-.16.97.31zm25.02 86.59l.3 2.11c.01.08.06.14.13.18l1.91.95c.18.09.18.34 0 .43l-1.92.94c-.07.03-.12.1-.13.18l-.31 2.11c-.03.19-.27.27-.4.13l-1.48-1.53c-.05-.06-.13-.08-.21-.07l-2.1.35c-.19.03-.34-.17-.25-.34l1-1.89c.04-.07.04-.15 0-.22l-.99-1.89c-.09-.17.06-.38.25-.34l2.1.37c.08.01.16-.01.21-.07l1.49-1.52c.13-.15.37-.07.4.12zm-87.76-80.7a3 3 0 1 0 0-6 3 3 0 1 0 0 6zm33 7a2 2 0 1 0 0-4 2 2 0 1 0 0 4zm-8.5-10a6.5 6.5 0 1 0 0-13 6.5 6.5 0 1 0 0 13z" fill="#e84f35"/><defs ><path id="B" d="M71.38 144.78c-.89.21-1.78-.35-1.98-1.24-.21-.89.35-1.78 1.24-1.98l9.39-2.18c.89-.21 1.78.35 1.98 1.24.21.89-.35 1.78-1.24 1.98l-9.39 2.18z"/><path id="C" d="M62.83 132.82c-.83.37-1.81 0-2.18-.83s0-1.81.83-2.19l8.79-3.96c.83-.37 1.81 0 2.18.83s0 1.81-.83 2.19l-8.79 3.96z"/></defs></svg>