<svg xmlns="http://www.w3.org/2000/svg" width="100" height="40" fill="none" fill-rule="evenodd"><path d="M90.076 16.549c0-.975.769-1.77 1.691-1.77.949 0 1.693.795 1.693 1.77s-.744 1.77-1.693 1.77c-.922.025-1.691-.77-1.691-1.77zm1.691 1.385c.719 0 1.283-.616 1.283-1.36s-.59-1.36-1.283-1.36c-.717 0-1.281.616-1.281 1.36s.564 1.36 1.281 1.36zm-.231-.59h-.359v-1.565h.643c.127 0 .281 0 .385.076.127.078.18.231.18.385 0 .18-.104.334-.258.385l.283.694h-.385l-.231-.617h-.258v.643zm0-.873h.205c.078 0 .154 0 .205-.025s.078-.102.078-.18c0-.051-.027-.127-.078-.152s-.152-.027-.205-.027h-.18l-.025.385zM65.838 4.719l-.461 3.029c-1-.539-1.744-.744-2.539-.744-2.103 0-3.592 2.155-3.592 5.21 0 2.103 1 3.386 2.643 3.386.691 0 1.461-.231 2.41-.719l-.488 3.183c-1.051.307-1.717.41-2.512.41-3.053 0-4.951-2.31-4.951-6.005C56.348 7.49 58.965 4 62.734 4c.486 0 .924.051 1.283.154l1.18.309.641.256zm-9.412 2.079c-.078-.025-.18-.025-.283-.025-.924 0-1.461.487-2.334 1.847l.256-1.72H51.5l-1.744 11.316h2.848c1.025-6.927 1.281-8.108 2.641-8.108h.205c.258-1.36.59-2.36 1.078-3.285l-.101-.025zM39.471 18.064c-.77.256-1.385.383-2.025.383-1.436 0-2.231-.872-2.231-2.488 0-.309.025-.668.076-1.028l.18-1.102.127-.899 1.232-7.724h2.82l-.332 1.669h1.461l-.41 2.745h-1.437l-.742 4.721-.053.463c0 .59.309.846.977.846.332 0 .563-.025.768-.102l-.41 2.515zm-11.182-7.598c0 1.438.666 2.413 2.154 3.158 1.129.565 1.334.743 1.334 1.256 0 .694-.514 1.026-1.617 1.026a7.1 7.1 0 0 1-2.539-.461l-.385 2.619.129.025.514.102.742.104 1.564.102c2.977 0 4.361-1.206 4.361-3.771 0-1.54-.565-2.464-2-3.156-1.18-.565-1.309-.694-1.309-1.233 0-.616.461-.922 1.385-.922.565 0 1.309.076 2.027.178l.41-2.617c-.744-.129-1.848-.231-2.488-.231-3.207 0-4.309 1.72-4.283 3.822zm60.145 7.725H85.74l.129-1.102c-.77.872-1.59 1.256-2.615 1.256-2.078 0-3.437-1.874-3.437-4.696 0-3.773 2.103-6.955 4.617-6.955 1.102 0 1.924.489 2.719 1.54l.615-3.979h2.795L88.434 18.19zm-4.18-2.642c1.334 0 2.256-1.565 2.256-3.824 0-1.436-.537-2.234-1.514-2.234-1.281 0-2.205 1.593-2.205 3.799 0 1.489.488 2.259 1.463 2.259zM48.447 17.96a9.43 9.43 0 0 1-2.922.461c-3.156 0-4.822-1.745-4.822-5.081 0-3.9 2.102-6.747 4.949-6.747 2.334 0 3.822 1.616 3.822 4.131 0 .821-.104 1.641-.359 2.796h-5.642c-.025.18-.025.258-.025.36 0 1.335.846 2.001 2.488 2.001 1 0 1.924-.231 2.949-.717l-.437 2.796zm-1.59-6.749c.027-.231.027-.436.027-.565 0-.924-.488-1.462-1.334-1.462-.899 0-1.539.719-1.797 2.026h3.103zm-29.956 6.98h-2.82L15.696 7.49l-3.643 10.701h-1.924l-.23-10.622L8.18 18.191H5.54L7.745 4.283h4.078l.103 8.621 2.77-8.621h4.412L16.901 18.19zm7.31-5.03l-.641-.051c-1.617 0-2.412.59-2.412 1.72 0 .694.41 1.155 1.025 1.155 1.129 0 1.977-1.155 2.027-2.824zm2.051 5.03h-2.359l.051-1.18c-.717.95-1.666 1.36-2.975 1.36-1.539 0-2.59-1.256-2.59-3.08 0-2.771 1.846-4.361 4.977-4.361a9.69 9.69 0 0 1 1.152.076c.078-.385.103-.539.103-.745 0-.743-.486-1.026-1.82-1.026-.795 0-1.719.129-2.361.334l-.357.127-.258.078.385-2.54c1.41-.436 2.359-.616 3.387-.616 2.435 0 3.719 1.155 3.719 3.31 0 .565-.053.975-.232 2.257l-.562 4.029-.104.719-.076.563-.051.412-.027.281zm44.474-5.03l-.641-.051c-1.615 0-2.437.59-2.437 1.72 0 .694.412 1.155 1.027 1.155 1.154 0 2-1.155 2.051-2.824zm2.053 5.03H70.43l.051-1.18c-.719.95-1.668 1.36-2.975 1.36-1.539 0-2.592-1.256-2.592-3.08 0-2.771 1.848-4.361 4.977-4.361.307 0 .744.025 1.154.076.076-.385.102-.539.102-.745 0-.743-.486-1.026-1.82-1.026-.795 0-1.719.129-2.359.334l-.41.102-.258.078.385-2.54c1.412-.436 2.361-.616 3.387-.616 2.436 0 3.719 1.155 3.719 3.31 0 .563-.051.975-.231 2.257l-.59 4.004-.078.719-.076.563-.051.385.025.36zm7.926-11.393c-.078-.025-.18-.025-.283-.025-.924 0-1.463.487-2.334 1.847l.258-1.72H75.79l-1.744 11.316h2.848c1.025-6.927 1.281-8.108 2.641-8.108h.207c.256-1.36.615-2.36 1.076-3.285l-.102-.025z" fill="#fd0c15"/><path d="M68.813 29.2c0 2.566-.795 4.08-2.051 4.08-.924.025-1.463-1.001-1.463-2.515 0-1.796.82-3.849 2.103-3.849 1.051 0 1.41 1.104 1.41 2.284zm2.797.025c0-2.849-1.412-5.081-4.053-5.081-3.053 0-5.027 2.695-5.027 6.671 0 2.849 1.18 5.184 4.053 5.184 2.899 0 5.027-2.054 5.027-6.775zm-8.182-7.056l-.437 3.027c-.947-.537-1.615-.745-2.359-.745-1.975 0-3.359 2.157-3.359 5.21 0 2.105.924 3.388 2.463 3.388.666 0 1.385-.233 2.256-.719l-.461 3.181c-.975.309-1.617.41-2.359.41-2.848 0-4.643-2.308-4.643-6.005 0-4.977 2.461-8.467 5.977-8.467.461 0 .846.051 1.18.154l1.076.307c.359.104.436.129.668.258zm-17.52 2.052c-.076-.025-.178-.025-.281-.025-.871 0-1.359.489-2.18 1.847l.256-1.718h-2.385l-1.617 11.316h2.642c.949-6.929 1.205-8.109 2.463-8.109.076 0 .076 0 .205.025.23-1.36.565-2.36 1-3.285l-.103-.051zm34.574 11.316h-2.514l.129-1.102c-.719.871-1.488 1.256-2.463 1.256-1.924 0-3.205-1.874-3.205-4.696 0-3.771 1.975-6.955 4.309-6.955 1.025 0 1.82.488 2.539 1.565l.59-3.977h2.617l-2.002 13.907zm-3.924-2.667c1.258 0 2.104-1.565 2.104-3.824 0-1.436-.488-2.206-1.41-2.206-1.205 0-2.053 1.565-2.053 3.797 0 1.489.461 2.233 1.359 2.233zm-55.476 2.616a8.16 8.16 0 0 1-2.719.463c-2.949 0-4.488-1.745-4.488-5.083 0-3.873 1.975-6.747 4.615-6.747 2.182 0 3.566 1.591 3.566 4.131 0 .821-.104 1.641-.334 2.796h-5.258c-.025.18-.025.258-.025.359 0 1.309.795 1.976 2.334 1.976.949 0 1.795-.231 2.744-.717l-.436 2.822zm-1.488-6.749l.025-.563c0-.924-.461-1.464-1.256-1.464-.848 0-1.437.719-1.693 2.026h2.924zm32.984 6.749a8.16 8.16 0 0 1-2.719.463c-2.975 0-4.516-1.745-4.516-5.083 0-3.873 1.977-6.747 4.617-6.747 2.18 0 3.592 1.591 3.592 4.131 0 .821-.104 1.641-.334 2.796H47.96c-.025.18-.025.258-.025.359 0 1.309.795 1.976 2.334 1.976.949 0 1.795-.231 2.744-.717l-.436 2.822zm-1.488-6.749c.025-.23.025-.436.025-.563 0-.924-.461-1.464-1.256-1.464-.848 0-1.437.719-1.693 2.026h2.924zm38.422 6.749c-.924.309-1.795.463-2.719.463-2.949 0-4.514-1.745-4.514-5.083 0-3.873 1.975-6.747 4.643-6.747 2.18 0 3.564 1.591 3.564 4.131 0 .821-.103 1.641-.334 2.796h-5.258c-.025.18-.025.258-.025.359 0 1.309.795 1.976 2.334 1.976.949 0 1.795-.231 2.744-.717l-.436 2.822zm-1.488-6.749l.025-.563c0-.924-.461-1.464-1.256-1.464-.848 0-1.436.719-1.693 2.026h2.924zm-74.792-4.002c-.512-.36-1.231-.641-2.205-.641-1.078 0-1.924.231-1.924 1.358 0 2.003 3.898 1.258 3.898 5.569 0 3.926-2.564 4.954-4.898 4.954-1.025 0-2.232-.334-3.104-.744l.641-2.875c.539.489 1.592.821 2.488.821.846 0 2.129-.23 2.129-1.694 0-2.282-3.898-1.436-3.898-5.44 0-3.668 2.283-4.746 4.488-4.746 1.23 0 2.412.18 3.078.641l-.693 2.798zm15.596 10.751c-.539.256-1.283.436-2.361.436-2.307 0-3.744-2.308-3.744-5.131 0-3.695 2.078-6.62 5.129-6.62.668 0 1.693.281 2.488.744l-.588 2.695c-.566-.385-1.156-.616-1.771-.616-1.41 0-2.436 1.307-2.436 3.617 0 1.335.744 2.439 1.899 2.439.691 0 1.178-.154 1.77-.489l-.385 2.925zm9.899-2.849l-.332 2.925h-2.539l.205-1.821h-.025c-.795 1.233-1.615 2.079-3.078 2.079-1.59 0-2.463-1.694-2.463-3.875 0-.77.051-1.18.205-2.361l.719-5.235h2.848l-.77 5.26c-.078.565-.18 1.13-.18 1.72 0 .666.307 1.335 1.076 1.282 1.154 0 1.848-1.411 2.053-3.078l.795-5.184h2.744l-1.258 8.287zm53.426 2.798h-.436v-1.874h-.616v-.41h1.667v.41h-.615v1.874zm2.848 0h-.41v-1.899l-.385 1.899h-.41l-.385-1.899v1.899H93v-2.284h.641l.36 1.796h.025l.36-1.796h.616v2.284z" fill="#f3ae12"/></svg>