<svg xmlns="http://www.w3.org/2000/svg" width="41" height="31" fill="none"><g clip-path="url(#A)"><rect x="6.297" y="7.488" width="27.405" height="16.69" rx="2.037" fill="#fff" stroke="#000" stroke-width=".453"/><g fill="#13130a"><path d="M15.647 14.064c-.065.065-.164.131-.229.229-.262.262-.491.556-.556.949-.098.523 0 1.014.327 1.439a1.4 1.4 0 0 0 .589.491c.033 0 .065.033.098.033l-.098.262c-.196.491-.458.949-.818 1.341a1.42 1.42 0 0 1-.229.196.88.88 0 0 1-.883.196c-.164-.033-.327-.098-.491-.164a1.48 1.48 0 0 0-.523-.098c-.229 0-.425.065-.621.131a2.87 2.87 0 0 1-.491.164c-.262.065-.491-.033-.687-.164-.229-.131-.393-.327-.523-.556-.36-.523-.654-1.079-.818-1.701-.196-.556-.229-1.112-.164-1.668.065-.491.262-.949.621-1.308.36-.393.818-.556 1.341-.491.262 0 .491.098.752.164.098.033.196.065.327.065.164.033.294.033.458-.033.163-.033.393-.098.589-.164.294-.098.621-.131.916-.065.393.065.72.294.981.589.066.065.098.098.131.164 0-.033 0-.033 0 0z"/><path d="M14.11 11.547c0 .098.033.163 0 .262-.033.458-.196.851-.523 1.178-.131.164-.294.262-.491.36-.163.065-.327.065-.523.098.065-1.047.556-1.701 1.537-1.897z"/></g><path d="M17.196 18.688h1.073v-2.002h1.134c1.369 0 2.103-.822 2.103-1.962 0-1.131-.726-1.962-2.089-1.962h-2.222v5.925zm1.073-2.885v-2.144h.984c.804 0 1.16.434 1.16 1.065s-.356 1.079-1.154 1.079h-.989zm5.233 2.974c.697 0 1.114-.327 1.305-.7h.035v.61h1.007v-2.974c0-1.175-.958-1.528-1.805-1.528-.934 0-1.652.417-1.884 1.227l.978.139c.104-.304.399-.564.911-.564.486 0 .752.249.752.686v.017c0 .301-.315.315-1.099.399-.862.093-1.687.35-1.687 1.351 0 .874.639 1.337 1.487 1.337zm.272-.77c-.437 0-.749-.2-.749-.584 0-.402.35-.57.819-.637.275-.038.825-.107.961-.217v.524c0 .495-.399.914-1.03.914zm3.53 2.346c.816 0 1.287-.419 1.539-1.128l1.785-4.976-1.12-.006-1.027 3.356h-.046l-1.024-3.356h-1.111l1.612 4.537-.09.24c-.194.506-.501.541-.958.408l-.243.816c.142.058.396.11.683.11z" fill="#000"/></g><defs><clipPath id="A"><path fill="#fff" transform="translate(.5 .832)" d="M0 0h40v30H0z"/></clipPath></defs></svg>