<svg xmlns="http://www.w3.org/2000/svg" width="40" height="31" fill="none"><path d="M27.073 7.34H11.987c-4.714 0-8.571 3.85-8.571 8.556s3.857 8.556 8.571 8.556h15.086c4.714 0 8.571-3.85 8.571-8.556S31.788 7.34 27.073 7.34z" fill="#fff"/><g fill="#3c4043"><path d="M27.073 8.033a7.79 7.79 0 0 1 3.056.62 7.96 7.96 0 0 1 2.507 1.69 7.88 7.88 0 0 1 1.693 2.503 7.75 7.75 0 0 1 .621 3.05 7.75 7.75 0 0 1-.621 3.05 7.93 7.93 0 0 1-1.693 2.503 7.9 7.9 0 0 1-2.507 1.69 7.79 7.79 0 0 1-3.056.62H11.987c-1.058 0-2.087-.21-3.056-.62-.939-.398-1.779-.967-2.507-1.69a7.83 7.83 0 0 1-1.693-2.503 7.75 7.75 0 0 1-.621-3.05 7.75 7.75 0 0 1 .621-3.05 7.93 7.93 0 0 1 1.693-2.503 7.9 7.9 0 0 1 2.507-1.69 7.79 7.79 0 0 1 3.056-.62h15.086zm0-.693H11.987c-4.714 0-8.571 3.85-8.571 8.556s3.857 8.556 8.571 8.556h15.086c4.714 0 8.571-3.85 8.571-8.556S31.788 7.34 27.073 7.34zm-8.289 9.162v2.588h-.823v-6.391h2.182c.553 0 1.024.184 1.41.552.394.368.591.817.591 1.348 0 .543-.197.993-.591 1.356-.381.364-.853.543-1.41.543h-1.359v.004zm0-3.016v2.229h1.376a1.1 1.1 0 0 0 .814-.329c.219-.218.33-.483.33-.783s-.111-.556-.33-.774c-.214-.227-.484-.338-.814-.338h-1.376v-.004z"/><path d="M24.296 14.574c.609 0 1.089.163 1.44.488s.527.77.527 1.335v2.695h-.784v-.607h-.034c-.339.5-.793.749-1.359.749-.484 0-.887-.141-1.213-.428s-.489-.642-.489-1.069a1.29 1.29 0 0 1 .514-1.078c.343-.269.801-.402 1.371-.402.489 0 .891.09 1.204.269v-.188a.93.93 0 0 0-.339-.727 1.16 1.16 0 0 0-.797-.3 1.25 1.25 0 0 0-1.089.582l-.724-.453c.399-.578.99-.864 1.77-.864zm-1.063 3.174c0 .214.09.394.274.535s.394.214.639.214c.347 0 .656-.128.926-.385s.407-.556.407-.903c-.257-.201-.613-.304-1.072-.304-.334 0-.613.081-.836.239-.227.167-.339.368-.339.603zm7.504-3.033l-2.743 6.297h-.849l1.02-2.203-1.809-4.094h.896l1.303 3.14h.017l1.269-3.14h.896z"/></g><path d="M15.512 15.981c0-.268-.024-.524-.069-.771h-3.449v1.412h1.987a1.7 1.7 0 0 1-.737 1.137v.916h1.183c.69-.638 1.086-1.581 1.086-2.695z" fill="#4285f4"/><path d="M13.243 17.759c-.329.222-.753.351-1.249.351-.958 0-1.77-.644-2.061-1.513h-1.22v.945c.604 1.197 1.846 2.018 3.281 2.018.992 0 1.825-.326 2.431-.886l-1.182-.916z" fill="#34a853"/><path d="M9.818 15.9c0-.244.041-.48.115-.701v-.945h-1.22a3.64 3.64 0 0 0-.39 1.646c0 .592.141 1.151.39 1.646l1.22-.945c-.074-.222-.115-.457-.115-.701z" fill="#fabb05"/><path d="M11.994 13.685c.541 0 1.026.186 1.409.55l1.048-1.045a3.53 3.53 0 0 0-2.457-.955c-1.434 0-2.677.821-3.281 2.018l1.22.945c.291-.868 1.104-1.513 2.061-1.513z" fill="#e94235"/></svg>