<svg xmlns="http://www.w3.org/2000/svg" width="40" height="31" fill="none"><style><![CDATA[.B{stroke:#fff}.C{stroke-width:.821}.D{stroke-miterlimit:10}.E{stroke-linecap:round}]]></style><g clip-path="url(#B)"><g filter="url(#A)"><path d="M31.765 6.66l-22.621.012A2.15 2.15 0 0 0 7 8.82l.006 12.695c0 1.188.963 2.148 2.146 2.146l22.621-.012c1.186 0 2.144-.964 2.144-2.15l-.006-12.695a2.15 2.15 0 0 0-2.146-2.144z" fill="#e84f35"/><path d="M10.75 17.959l3.089-.002" class="B C D E"/><path d="M16.098 17.951l3.089-.002" class="B C D E"/><path d="M21.445 17.949h3.091" class="B C D E"/><path d="M26.797 17.947l3.089-.002" class="B C D E"/><path d="M12.213 11.893c.408.002.744.297.803.677l1.746.012.004-1.005c.002-.464-.385-.842-.86-.844l-3.531-.022c-.477-.002-.864.37-.866.834l-.002.333 2.705.014z" fill="#fff"/><path d="M13.012 12.815a.81.81 0 0 1-.807.669L9.5 13.47v-.244l2.707.014c.312.002.568-.244.568-.549s-.255-.555-.566-.555l-2.705-.014-.004 1.566c-.002.464.385.842.86.844l3.531.022c.477.004.864-.37.866-.834l.002-.891-1.746-.014z" fill="#fff"/></g></g><defs><filter id="A" x="-.792" y="4.535" width="36.833" height="26.917" filterUnits="userSpaceOnUse" color-interpolation-filters="sRGB"><feFlood flood-opacity="0" result="A"/><feColorMatrix in="SourceAlpha" values="0 0 0 0 0 0 0 0 0 0 0 0 0 0 0 0 0 0 127 0"/><feOffset dx="-2.83333" dy="2.83333"/><feGaussianBlur stdDeviation="2.479"/><feColorMatrix values="0 0 0 0 0.933333 0 0 0 0 0.0855556 0 0 0 0 0.0855556 0 0 0 0.2 0"/><feBlend in2="A"/><feBlend in="SourceGraphic"/></filter><clipPath id="B"><path fill="#fff" transform="translate(0 .66)" d="M0 0h40v30H0z"/></clipPath></defs></svg>