<svg xmlns="http://www.w3.org/2000/svg" width="40" height="31" fill="none"><g clip-path="url(#C)"><g filter="url(#A)"><g filter="url(#B)"><path d="M29.519 8.575H11.947a.46.46 0 1 1 0-.921H28.85c0-1.008-.818-1.826-1.826-1.826H11.471a2.1 2.1 0 0 0-2.1 2.1v16.673c0 .761.616 1.377 1.377 1.377h18.771a2.73 2.73 0 0 0 2.729-2.729V11.303a2.73 2.73 0 0 0-2.729-2.729z" fill="#e84f35"/></g><path d="M32.321 14.613h-3.472c-2.356 0-2.293 4.813 0 4.813h3.472" stroke="#172a3a" stroke-width=".953" stroke-miterlimit="10" stroke-linecap="round" stroke-linejoin="round"/></g></g><defs><filter id="A" x="-4.51" y="-1.493" width="43.831" height="41.003" filterUnits="userSpaceOnUse" color-interpolation-filters="sRGB"><feFlood flood-opacity="0" result="A"/><feColorMatrix in="SourceAlpha" values="0 0 0 0 0 0 0 0 0 0 0 0 0 0 0 0 0 0 127 0"/><feOffset dx="-3.09451" dy="3.09451"/><feGaussianBlur stdDeviation="2.708"/><feColorMatrix values="0 0 0 0 0.933333 0 0 0 0 0.0855556 0 0 0 0 0.0855556 0 0 0 0.2 0"/><feBlend in2="A"/><feBlend in="SourceGraphic"/></filter><filter id="B" x="6.371" y="3.828" width="28.877" height="26.148" filterUnits="userSpaceOnUse" color-interpolation-filters="sRGB"><feFlood flood-opacity="0" result="A"/><feColorMatrix in="SourceAlpha" values="0 0 0 0 0 0 0 0 0 0 0 0 0 0 0 0 0 0 127 0"/><feOffset dy="1"/><feGaussianBlur stdDeviation="1.5"/><feColorMatrix values="0 0 0 0 0.933333 0 0 0 0 0.0855556 0 0 0 0 0.0855556 0 0 0 0.1 0"/><feBlend in2="A"/><feBlend in="SourceGraphic"/></filter><clipPath id="C"><path fill="#fff" transform="translate(0 .828)" d="M0 0h40v30H0z"/></clipPath></defs></svg>