<svg width="24" height="24" viewBox="0 0 24 24" fill="none" xmlns="http://www.w3.org/2000/svg">
<path d="M21 20.0586L15.972 15.0306C17.1803 13.58 17.7828 11.7195 17.6542 9.83605C17.5256 7.95259 16.6759 6.19121 15.2817 4.91831C13.8876 3.64541 12.0563 2.95901 10.169 3.00189C8.28163 3.04478 6.48346 3.81365 5.14855 5.14855C3.81365 6.48346 3.04478 8.28163 3.00189 10.169C2.95901 12.0563 3.64541 13.8876 4.91831 15.2817C6.19121 16.6759 7.95259 17.5256 9.83605 17.6542C11.7195 17.7828 13.58 17.1803 15.0306 15.972L20.0586 21L21 20.0586ZM4.35538 10.3474C4.35538 9.16232 4.70681 8.00382 5.36522 7.01843C6.02364 6.03304 6.95947 5.26502 8.05438 4.8115C9.14928 4.35797 10.3541 4.23931 11.5164 4.47051C12.6788 4.70172 13.7465 5.27241 14.5845 6.11041C15.4225 6.94842 15.9932 8.0161 16.2244 9.17845C16.4556 10.3408 16.3369 11.5456 15.8834 12.6405C15.4299 13.7354 14.6618 14.6712 13.6765 15.3297C12.6911 15.9881 11.5326 16.3395 10.3474 16.3395C8.75879 16.3377 7.23571 15.7059 6.11236 14.5825C4.98901 13.4592 4.35714 11.9361 4.35538 10.3474Z" fill="#7C9CAC"/>
</svg>
