<svg width="105" height="31" viewBox="0 0 105 31" fill="none" xmlns="http://www.w3.org/2000/svg">
<path d="M0.78969 7.46722H5.88701V23.523H0.78969V7.46722ZM6.05792 3.00405C6.05792 4.38265 4.98421 5.49935 3.30491 5.49935C1.69621 5.49935 0.622504 4.38265 0.655941 3.00405C0.622504 1.55998 1.69621 0.476013 3.33835 0.476013C4.98049 0.476013 6.02076 1.55998 6.05792 3.00405Z" fill="#E84F35"/>
<path d="M61.7205 20.8528C61.7205 19.074 62.9651 17.7864 64.7521 17.7864C66.5391 17.7864 67.7503 19.0413 67.7503 20.8528C67.7503 22.6024 66.5354 23.8864 64.7187 23.8864C62.9651 23.8864 61.7205 22.6024 61.7205 20.8528Z" fill="#E84F35"/>
<path d="M15.0001 11.683C15.4385 11.7812 15.9772 11.8175 16.7165 11.8175C19.447 11.8175 21.1299 10.4644 21.1299 8.191C21.1299 6.14674 19.6811 4.92819 17.1214 4.92819C16.0775 4.92819 15.3717 5.0264 15.0001 5.12461V11.683ZM9.91428 1.59263C11.4969 1.3271 13.7222 1.13068 16.8539 1.13068C20.0192 1.13068 22.2779 1.72358 23.7936 2.91303C25.2425 4.03337 26.2195 5.88121 26.2195 8.06005C26.2195 10.2353 25.4765 12.0831 24.1317 13.338C22.3782 14.953 19.7888 15.6805 16.7536 15.6805C16.0812 15.6805 15.472 15.6478 15.0001 15.5823V23.5302H9.91428V1.59263Z" fill="#7C9CAC"/>
<path d="M37.4683 15.9061C34.7749 15.8733 32.687 16.499 32.687 18.445C32.687 19.729 33.5638 20.3583 34.708 20.3583C35.986 20.3583 37.0336 19.5363 37.368 18.5141C37.4348 18.2522 37.4683 17.954 37.4683 17.6557V15.9061ZM38.0738 23.5229L37.7692 21.9079H37.6689C36.5915 23.1956 34.9049 23.8867 32.9545 23.8867C29.6184 23.8867 27.6309 21.515 27.6309 18.9397C27.6309 14.753 31.4722 12.7415 37.2974 12.7742V12.5451C37.2974 11.6866 36.8256 10.4681 34.2993 10.4681C32.6164 10.4681 30.8295 11.0282 29.7521 11.6902L28.8085 8.46018C29.9528 7.8309 32.2115 7.04156 35.2095 7.04156C40.7003 7.04156 42.4501 10.2098 42.4501 14V19.609C42.4501 21.1586 42.517 22.6427 42.6842 23.5338H38.0738V23.5229Z" fill="#7C9CAC"/>
<path d="M49.9326 7.39819L52.392 15.3133C52.6594 16.27 52.9975 17.4558 53.1981 18.3142H53.2984C53.5325 17.4558 53.8037 16.2372 54.0377 15.3133L56.0587 7.39819H61.5495L57.7119 18.016C55.3528 24.4143 53.7702 26.9859 51.9164 28.601C50.1332 30.1178 48.246 30.6452 46.9643 30.8126L45.8869 26.5604C46.5259 26.4621 47.3358 26.1639 48.1085 25.7019C48.8813 25.3054 49.7246 24.5161 50.2298 23.6904C50.397 23.4612 50.4973 23.1957 50.4973 22.9665C50.4973 22.8029 50.4639 22.5373 50.2595 22.1408L44.23 7.39819H49.9326Z" fill="#7C9CAC"/>
<path d="M86.3766 18.347C86.3766 20.4567 86.4435 22.1736 86.5103 23.5231H82.0634L81.8294 21.2497H81.7291C81.0901 22.239 79.5409 23.8868 76.5726 23.8868C73.2402 23.8868 70.7809 21.8426 70.7809 16.8629V7.39819H75.9336V16.0735C75.9336 18.4161 76.7101 19.831 78.4933 19.831C79.9087 19.831 80.7149 18.8744 81.0529 18.0851C81.1867 17.7868 81.2201 17.3939 81.2201 16.9975V7.39819H86.3729V18.347H86.3766Z" fill="#7C9CAC"/>
<path d="M99.2419 15.9061C96.5448 15.8733 94.4569 16.499 94.4569 18.445C94.4569 19.729 95.3336 20.3583 96.4779 20.3583C97.7596 20.3583 98.8035 19.5363 99.1378 18.5141C99.2047 18.2522 99.2419 17.954 99.2419 17.6557V15.9061ZM99.8511 23.5229L99.5465 21.9079H99.4462C98.3688 23.1956 96.6859 23.8867 94.7318 23.8867C91.3957 23.8867 89.4119 21.515 89.4119 18.9397C89.4119 14.753 93.2495 12.7415 99.0784 12.7742V12.5451C99.0784 11.6866 98.6066 10.4681 96.0804 10.4681C94.3975 10.4681 92.6105 11.0282 91.5332 11.6902L90.5896 8.46018C91.7338 7.8309 93.9925 7.04156 96.9868 7.04156C102.478 7.04156 104.227 10.2098 104.227 14V19.609C104.227 21.1586 104.294 22.6427 104.461 23.5338H99.8511V23.5229Z" fill="#7C9CAC"/>
</svg>
