<svg xmlns="http://www.w3.org/2000/svg" width="80" height="80" fill="none"><g clip-path="url(#A)"><path d="M40.179 50.274c-.687 0-1.376-.229-1.945-.691l-9.185-7.474c-1.321-1.075-1.52-3.017-.446-4.338s3.017-1.52 4.338-.445l7.036 5.726L50.274 32.85c1.21-1.198 3.162-1.189 4.36.021s1.189 3.162-.02 4.36l-12.265 12.15c-.598.592-1.383.893-2.17.893z" fill="#e94f35"/><g fill="#353535"><path d="M67.448 13.156c-2.476-.313-4.896-.863-7.192-1.632a1.17 1.17 0 0 0-.745 2.223c2.442.819 5.013 1.403 7.643 1.735 3.944.499 6.759 4.139 6.274 8.114-.635 5.212-1.799 12.993-3.732 20.456-2.106 8.129-4.578 13.785-7.347 16.812-5.687 6.214-12.816 11.722-17.795 15.248a7.58 7.58 0 0 1-8.748 0c-4.979-3.526-12.109-9.034-17.796-15.248-2.769-3.026-5.242-8.682-7.347-16.812-1.934-7.463-3.097-15.244-3.733-20.456-.484-3.975 2.33-7.615 6.275-8.114a38.34 38.34 0 0 0 23.226-11.69c.984-1.034 2.316-1.604 3.748-1.604a5.13 5.13 0 0 1 3.749 1.604c3.112 3.27 6.71 5.937 10.692 7.926a1.172 1.172 0 0 0 1.047-2.097 36.13 36.13 0 0 1-10.042-7.445 7.45 7.45 0 0 0-5.446-2.332 7.45 7.45 0 0 0-5.446 2.332 36.02 36.02 0 0 1-21.823 10.98c-5.221.66-8.948 5.471-8.307 10.723 1.091 8.952 4.414 30.629 11.678 38.566 5.826 6.367 13.097 11.985 18.17 15.578a9.9 9.9 0 0 0 5.729 1.82c2.007-.001 4.016-.607 5.729-1.82 5.073-3.593 12.343-9.211 18.17-15.578 7.264-7.938 10.587-29.615 11.678-38.566.64-5.252-3.087-10.063-8.308-10.723zm-29.913-2.304a43.71 43.71 0 0 1-20.569 9.979 4.53 4.53 0 0 0-3.616 5.064c.546 4.011 1.663 11.511 3.003 16.682 2.442 9.428 4.804 13.017 5.994 14.317 3.912 4.275 11.172 9.987 15.151 13.011a4.43 4.43 0 0 0 5.364 0c3.979-3.024 11.238-8.737 15.151-13.011 1.19-1.3 3.552-4.889 5.994-14.317 1.34-5.172 2.457-12.672 3.004-16.682a4.53 4.53 0 0 0-3.616-5.064c-7.72-1.492-14.641-4.849-20.569-9.979-1.508-1.304-3.781-1.304-5.288 0zm27.152 14.727c-.54 3.959-1.64 11.356-2.95 16.411-2.469 9.53-4.799 12.606-5.454 13.323-3.93 4.294-11.688 10.331-14.841 12.727-.744.566-1.783.566-2.527 0-3.153-2.396-10.911-8.434-14.84-12.727-.655-.717-2.985-3.793-5.454-13.323-1.309-5.054-2.41-12.451-2.949-16.411-.158-1.153.606-2.227 1.738-2.446 8.129-1.57 15.416-5.106 21.659-10.508.316-.274.714-.411 1.11-.411s.794.137 1.11.411c6.243 5.402 13.53 8.937 21.659 10.508 1.132.219 1.895 1.293 1.738 2.446zM33.679 36.417c-.881-.718-3.856-2.2-5.986.615s-.267 5.269.615 5.986l3.398 2.765a1.17 1.17 0 0 0 1.649-.169c.408-.502.333-1.24-.169-1.649L29.787 41.2c-.395-.322-1.26-1.371-.276-2.689s2.293-.598 2.689-.276l7.037 5.726a1.17 1.17 0 0 0 1.564-.077l10.297-10.201c.749-.742 1.961-.736 2.703.013s.736 1.961-.013 2.703l-12.264 12.15c-.971.936-2.041.546-2.551.125l-1.947-1.584c-.502-.408-1.24-.333-1.649.169a1.17 1.17 0 0 0 .17 1.649l1.947 1.585a4.27 4.27 0 0 0 2.685.955 4.23 4.23 0 0 0 2.996-1.232l12.264-12.15a4.26 4.26 0 0 0 .028-6.018 4.26 4.26 0 0 0-6.017-.028l-9.55 9.461-6.219-5.061z"/></g></g><defs><clipPath id="A"><path fill="#fff" d="M0 0h80v80H0z"/></clipPath></defs></svg>