<svg xmlns="http://www.w3.org/2000/svg" width="80" height="80" fill="none"><g clip-path="url(#A)"><path d="M61.764 18.199a4.2 4.2 0 0 1-4.197 4.197 4.2 4.2 0 0 1-4.197-4.197 4.2 4.2 0 0 1 4.197-4.197 4.2 4.2 0 0 1 4.197 4.197z" fill="#fff"/><g fill="#e94f35"><path d="M9.996 45.957L39.62 16.333l19.813 19.813L29.809 65.77 9.996 45.957z"/><path d="M38.583 48.961c0 1.681-1.363 3.045-3.044 3.045s-3.044-1.363-3.044-3.045 1.363-3.044 3.044-3.044 3.044 1.363 3.044 3.044zm.775-15.819c0 1.681-1.363 3.044-3.045 3.044s-3.044-1.363-3.044-3.044 1.364-3.044 3.044-3.044 3.045 1.363 3.045 3.044z"/></g><g fill="#353535"><path d="M74.688 16.636H71.56l.003-5.592a6.82 6.82 0 0 0-6.805-6.812l-23.74-.013a5.03 5.03 0 0 0-3.581 1.482L1.994 41.143A6.76 6.76 0 0 0 0 45.957c0 1.819.708 3.529 1.994 4.815l23 23.001c1.328 1.328 3.071 1.991 4.815 1.991s3.488-.663 4.815-1.991l22.314-22.315c.61-.61.61-1.6 0-2.21s-1.6-.61-2.21 0L32.414 71.563a3.69 3.69 0 0 1-5.209 0l-23-23.001a3.66 3.66 0 0 1 0-5.21l35.44-35.441a1.92 1.92 0 0 1 1.368-.567h.001l23.74.013a3.69 3.69 0 0 1 3.682 3.686l-.007 13.093h-7.038a2.18 2.18 0 0 1-1.552-.647 5.73 5.73 0 0 0 1.799-1.218 5.77 5.77 0 0 0 0-8.145 5.77 5.77 0 0 0-8.146 0 5.77 5.77 0 0 0 0 8.145 5.73 5.73 0 0 0 2.935 1.571c.765 1.996 2.7 3.419 4.963 3.419h7.036l-.004 7.49a1.92 1.92 0 0 1-.567 1.367l-4.29 4.29c-.61.61-.61 1.6 0 2.21a1.56 1.56 0 0 0 2.209 0l4.29-4.29a5.03 5.03 0 0 0 1.482-3.575l.004-7.492h3.134A5.32 5.32 0 0 0 80 21.949a5.32 5.32 0 0 0-5.312-5.312zm-18.983-.3c.514-.514 1.188-.77 1.863-.77a2.63 2.63 0 0 1 1.863.77 2.64 2.64 0 0 1 .408.533c-1.715.526-3.063 1.898-3.555 3.628-.207-.115-.403-.259-.579-.434a2.64 2.64 0 0 1 0-3.726zm18.983 7.8h-3.132l.002-4.375h3.13a2.19 2.19 0 0 1 2.188 2.188 2.19 2.19 0 0 1-2.187 2.188zM25.221 43.641a1.56 1.56 0 0 0 1.924 1.087l16.04-4.465c.831-.231 1.318-1.093 1.087-1.924s-1.093-1.317-1.925-1.086l-16.04 4.464c-.831.232-1.317 1.093-1.086 1.924zm7.06 2.062c-.87.87-1.35 2.027-1.35 3.258a4.57 4.57 0 0 0 1.35 3.257c.898.898 2.078 1.347 3.258 1.347s2.36-.449 3.258-1.347c1.796-1.796 1.796-4.719 0-6.515s-4.719-1.796-6.515 0zm4.305 4.305c-.578.578-1.518.578-2.096 0a1.47 1.47 0 0 1-.434-1.048c0-.395.154-.768.434-1.048a1.48 1.48 0 0 1 2.096 0c.578.578.578 1.519 0 2.096zM39.571 36.4c1.796-1.797 1.796-4.719 0-6.516a4.58 4.58 0 0 0-6.516 0c-1.796 1.796-1.796 4.719 0 6.516.898.898 2.078 1.347 3.258 1.347s2.36-.449 3.258-1.347zm-4.306-4.306a1.47 1.47 0 0 1 1.048-.434 1.47 1.47 0 0 1 1.048.434c.578.578.578 1.518 0 2.096s-1.518.578-2.096 0-.577-1.518 0-2.096zm-19.724 8.319c-.61-.61-1.6-.61-2.21 0l-4.44 4.44a1.56 1.56 0 0 0 0 2.21l19.814 19.814a1.56 1.56 0 0 0 2.21 0l29.624-29.625c.61-.61.61-1.6 0-2.21L40.725 15.228a1.56 1.56 0 0 0-2.209 0L22.17 31.574c-.61.61-.61 1.6 0 2.21s1.599.61 2.21 0l15.24-15.241 17.604 17.604L29.81 63.561 12.206 45.957l3.335-3.335a1.56 1.56 0 0 0 0-2.209zm44.712 3.958c-.411 0-.814.167-1.105.458s-.458.694-.458 1.105.167.814.458 1.105.693.458 1.105.458.814-.167 1.105-.458.458-.694.458-1.105-.167-.814-.458-1.105-.694-.458-1.105-.458zm-40.294-6.169c.292-.291.458-.692.458-1.105a1.57 1.57 0 0 0-1.562-1.562c-.411 0-.814.167-1.105.458s-.458.694-.458 1.105a1.57 1.57 0 0 0 1.563 1.563 1.56 1.56 0 0 0 1.104-.458z"/></g></g><defs><clipPath id="A"><path fill="#fff" d="M0 0h80v80H0z"/></clipPath></defs></svg>