<svg xmlns="http://www.w3.org/2000/svg" width="80" height="80" fill="none" xmlns:v="https://vecta.io/nano"><path d="M13.75 51.25c-.411 0-.814.167-1.105.458s-.458.694-.458 1.105.167.814.458 1.105.694.458 1.105.458a1.57 1.57 0 0 0 1.104-.458 1.58 1.58 0 0 0 .458-1.105c0-.411-.167-.814-.458-1.105s-.694-.458-1.104-.458zM70 16.875c-.411 0-.814.167-1.105.458s-.458.694-.458 1.105.167.814.458 1.105S69.589 20 70 20s.814-.167 1.105-.458.458-.694.458-1.105-.167-.814-.458-1.105-.694-.458-1.105-.458zM36.886 49.542c.291-.291.458-.694.458-1.105s-.167-.814-.458-1.105-.694-.458-1.105-.458-.814.167-1.105.458-.458.694-.458 1.105.167.814.458 1.105.694.458 1.105.458.814-.167 1.105-.458zm33.7 15.884v-.269c0-1.407 1.145-2.552 2.552-2.552h1.185c3.13 0 5.677-2.547 5.677-5.677s-2.547-5.677-5.677-5.677h-3.379c.394-.775.618-1.651.618-2.578V24.688c0-.863-.7-1.562-1.562-1.562s-1.562.7-1.562 1.563V42.5H3.125V5.703a2.58 2.58 0 0 1 2.578-2.578h60.156a2.58 2.58 0 0 1 2.578 2.578v6.484c0 .863.7 1.563 1.563 1.563s1.563-.7 1.563-1.562V5.703A5.71 5.71 0 0 0 65.859 0H5.703A5.71 5.71 0 0 0 0 5.703v42.969a5.71 5.71 0 0 0 5.703 5.703H7.5c.863 0 1.563-.7 1.563-1.562s-.7-1.562-1.562-1.562H5.703a2.58 2.58 0 0 1-2.578-2.578v-3.047h65.313v3.047a2.58 2.58 0 0 1-2.578 2.578H43.906h-16.25H20c-.863 0-1.562.7-1.562 1.563s.7 1.563 1.563 1.563h6.094v7.813h-.82a5.44 5.44 0 0 0-5.43 5.43V70c0 .863.7 1.563 1.562 1.563h28.75c.863 0 1.563-.7 1.563-1.562v-2.383a5.44 5.44 0 0 0-5.43-5.43h-.82v-7.812h20.391 8.464c1.407 0 2.552 1.145 2.552 2.552s-1.145 2.552-2.552 2.552H73.14c-3.13 0-5.677 2.547-5.677 5.677v.269c-5.315.761-9.414 5.341-9.414 10.863 0 2.046 1.665 3.711 3.711 3.711h14.531C78.335 80 80 78.335 80 76.289c0-5.522-4.099-10.102-9.414-10.863zm-21.992 2.192v.82H35.781 22.969v-.82a2.31 2.31 0 0 1 2.305-2.305h2.383 16.25 2.383a2.31 2.31 0 0 1 2.305 2.305zm-6.25-5.43H29.219v-7.812h13.125v7.813zm33.945 14.688H61.758c-.323 0-.586-.263-.586-.586 0-4.329 3.522-7.852 7.851-7.852s7.852 3.522 7.852 7.852c0 .323-.263.586-.586.586zM24.788 28.931h9.782c.863 0 1.563-.7 1.563-1.562s-.7-1.562-1.562-1.562h-9.782c-.863 0-1.562.7-1.562 1.563s.7 1.563 1.563 1.563zm-16.344 0h9.782c.863 0 1.563-.7 1.563-1.562s-.7-1.562-1.562-1.562H8.444c-.863 0-1.562.7-1.562 1.563s.7 1.563 1.563 1.563z" fill="#353535"/><path d="M52.108 38.878a2.47 2.47 0 0 1-1.562-.556l-7.378-6.003a2.48 2.48 0 0 1-.358-3.484c.864-1.061 2.423-1.221 3.484-.358l5.652 4.599 8.271-8.194c.972-.962 2.54-.955 3.502.017s.956 2.54-.016 3.502l-9.852 9.76a2.47 2.47 0 0 1-1.743.717z" fill="#e94f35"/><path d="M46.888 27.748c-.708-.576-3.097-1.767-4.808.494s-.214 4.232.494 4.808l2.73 2.221a.94.94 0 1 0 1.188-1.46l-2.73-2.221c-.318-.259-1.012-1.102-.222-2.16s1.842-.48 2.16-.222l5.652 4.599a.94.94 0 0 0 1.257-.062l8.271-8.194c.602-.596 1.575-.591 2.171.01s.591 1.575-.01 2.171l-9.852 9.76c-.78.752-1.639.439-2.049.1l-1.564-1.272a.94.94 0 1 0-1.188 1.46l1.564 1.273c.607.494 1.373.767 2.157.767.908 0 1.762-.352 2.406-.99l9.851-9.76c1.339-1.327 1.349-3.495.022-4.834s-3.494-1.349-4.833-.023l-7.67 7.599-4.996-4.065z" fill="#353535"/><path d="M8.882 19.505h36.43m-36.43-6.881h36.43" stroke="#353535" stroke-width="4" stroke-linecap="round"/></svg>