<svg xmlns="http://www.w3.org/2000/svg" xmlns:xlink="http://www.w3.org/1999/xlink" width="80" height="80" fill="none"><g clip-path="url(#A)"><path d="M53.76 10.666H43.07v6.168h10.69v-6.168z" fill="#d5f5fb"/><g fill="#e94f35"><path d="M42.79 10.666h11.25a3.75 3.75 0 0 0 0-7.5H42.79a3.75 3.75 0 0 0 0 7.5zm5.649 39.462c1.819 0 3.293-1.474 3.293-3.293s-1.474-3.293-3.293-3.293-3.293 1.474-3.293 3.293 1.474 3.293 3.293 3.293z"/></g><g fill="#353535"><path d="M79.846 43.695a31.62 31.62 0 0 0-9.089-19.179 31.38 31.38 0 0 0-15.435-8.475v-3.97c2.312-.575 4.03-2.668 4.03-5.155a5.32 5.32 0 0 0-5.312-5.313H42.79a5.32 5.32 0 0 0-5.313 5.313c0 2.487 1.719 4.58 4.03 5.155v3.981c-5.643 1.261-11.005 4.082-15.387 8.464a31.73 31.73 0 0 0-2.653 3.011c-.039-.003-.078-.006-.118-.006H12.214c-.863 0-1.562.7-1.562 1.563s.7 1.563 1.563 1.563h9.127c-1.146 1.918-2.069 3.932-2.773 6.006H1.563c-.863 0-1.563.7-1.563 1.563s.7 1.563 1.563 1.563h16.123a31.77 31.77 0 0 0-.776 6.006H10c-.863 0-1.563.7-1.563 1.563s.7 1.563 1.563 1.563h6.959c.132 2.023.457 4.034.976 6.006H7.813c-.863 0-1.563.7-1.563 1.563s.7 1.563 1.563 1.563h11.12a31.38 31.38 0 0 0 7.187 11.115c5.148 5.148 11.966 8.376 19.198 9.091 1.032.102 2.065.152 3.097.152 6.097 0 12.117-1.765 17.225-5.091.723-.471.928-1.439.457-2.162s-1.439-.928-2.162-.457c-11.181 7.281-26.155 5.707-35.605-3.743-11.088-11.088-11.088-29.129 0-40.217s29.129-11.088 40.217 0c9.438 9.438 11.02 24.399 3.764 35.575-.47.724-.264 1.692.459 2.161s1.692.264 2.161-.46c3.877-5.971 5.623-13.183 4.915-20.307zM40.602 6.916a2.19 2.19 0 0 1 2.188-2.188h11.25a2.19 2.19 0 0 1 2.188 2.188 2.19 2.19 0 0 1-2.187 2.188h-.28-10.69-.28a2.19 2.19 0 0 1-2.188-2.188zm4.03 8.599v-3.286h7.565v3.281a31.8 31.8 0 0 0-7.565.006zm25.021 50.971a1.57 1.57 0 0 0-1.104 2.668c.291.292.692.458 1.105.458a1.57 1.57 0 0 0 1.105-.458c.291-.291.458-.694.458-1.105s-.167-.814-.458-1.105-.694-.458-1.105-.458zm-21.214-43.89C35.074 22.596 24.2 33.47 24.2 46.835s10.874 24.239 24.239 24.239S72.678 60.2 72.678 46.835 61.804 22.596 48.439 22.596zm0 45.354c-11.642 0-21.114-9.472-21.114-21.114s9.472-21.114 21.114-21.114 21.114 9.472 21.114 21.114S60.081 67.95 48.439 67.95zm9.883-33.209l-7.739 7.739c-.647-.32-1.375-.501-2.145-.501s-1.498.181-2.145.501l-3.464-3.464c-.61-.61-1.599-.61-2.21 0s-.61 1.6 0 2.21l3.464 3.464c-.32.647-.501 1.375-.501 2.145a4.86 4.86 0 0 0 4.855 4.855 4.86 4.86 0 0 0 4.855-4.855c0-.77-.181-1.498-.501-2.145l7.512-7.512.227-.227c.61-.61.61-1.599 0-2.21s-1.599-.61-2.21 0zm-9.884 13.824a1.73 1.73 0 0 1 0-3.46 1.73 1.73 0 0 1 0 3.46z"/><use xlink:href="#B"/><path d="M33.179 45.253h-1.448c-.863 0-1.562.7-1.562 1.563s.7 1.563 1.563 1.563h1.448c.863 0 1.563-.7 1.563-1.562s-.7-1.562-1.562-1.562zm15.279-12.115c.863 0 1.563-.7 1.563-1.562v-1.448c0-.863-.7-1.562-1.562-1.562s-1.562.7-1.562 1.563v1.448c0 .863.7 1.562 1.563 1.562zm-.039 27.393c-.863 0-1.562.7-1.562 1.563v1.448c0 .863.7 1.563 1.563 1.563s1.563-.7 1.563-1.562v-1.448c0-.863-.7-1.562-1.562-1.562zM1.563 54.914c-.411 0-.814.167-1.105.458A1.57 1.57 0 0 0 0 56.476a1.57 1.57 0 0 0 .458 1.105c.291.291.694.458 1.105.458s.814-.167 1.105-.458.458-.694.458-1.105-.167-.814-.458-1.105-.694-.458-1.105-.458z"/></g></g><defs><clipPath id="A"><path fill="#fff" d="M0 0h80v80H0z"/></clipPath><path id="B" d="M65.145 45.292h-1.448c-.863 0-1.562.7-1.562 1.563s.7 1.563 1.563 1.563h1.448c.863 0 1.563-.7 1.563-1.562s-.7-1.562-1.562-1.562z"/></defs></svg>