<svg xmlns="http://www.w3.org/2000/svg" xmlns:xlink="http://www.w3.org/1999/xlink" width="65" height="65" fill="none"><path d="M38.995.121L2.186 2.162c-.579.033-1.122.289-1.508.711S.092 3.85.124 4.416l2.837 48.66a2.12 2.12 0 0 0 .727 1.477 2.23 2.23 0 0 0 1.584.544l36.809-2.041a2.23 2.23 0 0 0 .828-.208 2.18 2.18 0 0 0 .682-.501 2.12 2.12 0 0 0 .433-.718c.095-.265.135-.545.118-.825l-2.837-48.67a2.12 2.12 0 0 0-.729-1.471c-.433-.377-1.001-.571-1.581-.54h0z" fill="#21567e"/><path d="M31.142 9.173l-.021.001a.56.56 0 0 0-.218.074l-.041.023a4.21 4.21 0 0 0-.398.26c-2.722 2-4.257 4.751-4.576 8.178l-.246 3.96-.081 1.699-.036.838-.02.383-.021.384.392-.001c.9-.009 1.533.308 1.733.844.24.668.01 1.074-.901 1.631l-.184.113c-.471-.985-1.103-1.889-1.871-2.676-.064-.065-.119-.138-.161-.219a11.67 11.67 0 0 1-1.362-5.018l-.139-4.022-.04-1.775-.026-1.176-.1-2.805c-.063-1.104-.518-2.152-1.285-2.966l-.269-.254a1.14 1.14 0 0 1-.112-.107l-.257-.234-.25.241c-.02.022-.04.034-.061.055l-.141.132-.227.281a4.93 4.93 0 0 0-.896 3.368l.259 2.806.245 2.745.066.771.288 4.024a9.71 9.71 0 0 1-.696 4.058c-.047.108-.105.212-.173.309a9.8 9.8 0 0 0-1.607 2.982l-.132-.086c-1.165-.74-1.235-1.016-1.126-1.508.187-.796 1.105-1.022 1.632-1.082l.382-.043-.07-.482-.037-.277-.223-1.279-.57-3.244-.112-.645c-.14-.861-.331-1.712-.573-2.551-.828-2.702-2.706-4.982-5.232-6.353a3.62 3.62 0 0 0-.348-.156c-.054-.018-.109-.046-.163-.063l-.556-.248 1.435 24.624 5.638-.313c.771 2.313 2.324 4.066 4.761 5.356a.78.78 0 0 0 .409.111.7.7 0 0 0 .343-.122c2.003-1.234 3.451-3.165 4.049-5.401l.109-.492 5.67-.314-1.425-24.438-.429.096zm-9.89 24.962l.115 1.967c-.478-.57-.85-1.217-1.097-1.913l.982-.054zm3.453-.171a6.08 6.08 0 0 1-.877 2.043l-.115-1.977.993-.055-.001-.011zm-.529-5.26c-.687.245-1.311.632-1.83 1.134-.032.028-.066.054-.101.078l-.132-.086c-.566-.443-1.229-.753-1.938-.905l-.15-.024c.281-1.286.955-2.458 1.933-3.362 1.038.829 1.838 1.906 2.322 3.126l-.104.038zm-4.413 2.983l.004-.651c.121.119.272.203.438.244a2.35 2.35 0 0 1 .69.385.56.56 0 0 1 .196.268l-1.33.074.002-.321zm-6.457-16.451a9.84 9.84 0 0 1 1.577 3.787l.392 2.198.393 2.22c.032.184.013.227-.129.329a3.59 3.59 0 0 0-1.09 1.142c-.272.455-.437.963-.484 1.487l-.651-11.164h-.008zm14.852 7.814c-.131-.075-.154-.105-.143-.282l.028-.435.18-3.089a10.74 10.74 0 0 1 .866-4.232l.322-.648.646 11.081c-.197-.991-.848-1.802-1.898-2.395zm-4.532 8.754a.87.87 0 0 1 .303-.451c.131-.099.272-.186.419-.261.093-.046.185-.103.277-.16.074-.044.142-.096.203-.156l.069.616.03.339-1.301.072zm-6.375.023l.029.32-2.988.166-.289-4.955a2.01 2.01 0 0 0 .069.265c.385 1.342 1.338 2.23 2.845 2.641l.312.086c-.024.492-.017.986.021 1.477h.001zm10.309-2.152c1.574-.614 2.432-1.705 2.556-3.221l.289 4.964-2.956.164-.033-.566a11.98 11.98 0 0 0-.167-1.231l.312-.11z" fill="#ccc"/><path d="M22.113 29.841c-.566-.443-1.229-.753-1.938-.905l-.15-.024a6.46 6.46 0 0 1 1.933-3.362l.022.019-1.122-19.246-.231.219c-.02.022-.04.034-.06.055l-.141.132-.227.281a4.93 4.93 0 0 0-.895 3.366l.259 2.806.245 2.745.066.771.288 4.024a9.71 9.71 0 0 1-.696 4.058 1.79 1.79 0 0 1-.173.309 9.8 9.8 0 0 0-1.607 2.982l-.132-.086c-1.165-.74-1.235-1.016-1.126-1.508.187-.796 1.106-1.022 1.632-1.082l.379-.042-.07-.482-.037-.277-.223-1.279-.57-3.244-.112-.645c-.14-.86-.331-1.712-.573-2.551-.828-2.702-2.706-4.982-5.232-6.353-.113-.058-.229-.11-.348-.156-.054-.018-.109-.046-.163-.063l-.553-.248 1.435 24.624 5.659-.314c.771 2.313 2.324 4.066 4.761 5.356.123.072.265.107.408.101l-.576-9.886a1.13 1.13 0 0 0-.133-.096zm-8.807-14.605c.788 1.143 1.325 2.432 1.577 3.787l.392 2.198.393 2.22c.032.184.013.226-.129.329a3.59 3.59 0 0 0-1.09 1.142c-.272.455-.437.963-.484 1.487l-.651-11.164-.009.001zm3.944 16.591l.029.32-2.988.166-.289-4.954c.017.09.04.178.069.265.385 1.342 1.338 2.23 2.845 2.641l.312.086a11.55 11.55 0 0 0 .022 1.475v.001zm2.511.183l-.008-.321.004-.651c.121.119.272.203.438.244a2.35 2.35 0 0 1 .69.385c.091.068.159.162.196.268l-1.32.075zm1.553 3.189l.053.906c-.478-.569-.85-1.217-1.097-1.913l.982-.055.062 1.061z" fill="#fff"/><path d="M64.347 30.042L46.9 63.747c-.191.338-.511.588-.891.696s-.788.064-1.135-.122l-19.288-9.498a1.47 1.47 0 0 1-.774-.818 1.42 1.42 0 0 1 .045-1.112l17.45-33.712c.191-.338.511-.588.891-.696s.788-.064 1.134.122l19.288 9.498a1.48 1.48 0 0 1 .771.823c.136.363.12.763-.045 1.114z" fill="#b5efff"/><path d="M48.183 57.226c.966-1.867.198-4.144-1.716-5.087s-4.249-.193-5.216 1.674-.198 4.144 1.716 5.087 4.249.193 5.216-1.674z" fill="#0a7adf"/><path d="M37.402 36.183l1.102-2.129a1.19 1.19 0 0 1 .293-.366c.121-.102.262-.179.414-.228s.312-.068.472-.056a1.24 1.24 0 0 1 .458.125 1.21 1.21 0 0 1 .375.285 1.18 1.18 0 0 1 .234.404 1.16 1.16 0 0 1 .057.46 1.17 1.17 0 0 1-.128.447l-1.102 2.129a1.19 1.19 0 0 1-.293.366 1.21 1.21 0 0 1-.414.228c-.152.048-.312.068-.472.056a1.24 1.24 0 0 1-.458-.125 1.21 1.21 0 0 1-.375-.285 1.18 1.18 0 0 1-.234-.404 1.16 1.16 0 0 1-.057-.46c.012-.156.056-.308.128-.447zm-7.708 14.893l5.505-10.636a1.19 1.19 0 0 1 .293-.366c.121-.102.262-.179.414-.228a1.24 1.24 0 0 1 .93.069 1.22 1.22 0 0 1 .375.285 1.18 1.18 0 0 1 .234.404 1.16 1.16 0 0 1 .058.46c-.012.156-.056.308-.128.447L31.87 52.147a1.19 1.19 0 0 1-.293.366c-.121.102-.262.179-.414.228s-.312.068-.472.056a1.24 1.24 0 0 1-.458-.125 1.21 1.21 0 0 1-.375-.285 1.18 1.18 0 0 1-.234-.404 1.16 1.16 0 0 1-.058-.461 1.17 1.17 0 0 1 .128-.447zm5.678 2.512l13.277-25.65c.406-.785.264-1.654-.316-1.939s-1.381.119-1.787.904l-13.277 25.65c-.41.792-.268 1.661.312 1.946s1.381-.119 1.791-.911zm3.368 1.845l13.595-26.265a1.17 1.17 0 0 0 .099-.904 1.2 1.2 0 0 0-.583-.71c-.145-.066-.302-.103-.462-.11a1.23 1.23 0 0 0-.876.314 1.19 1.19 0 0 0-.28.375L36.637 54.397a1.17 1.17 0 0 0-.099.904 1.2 1.2 0 0 0 .583.71c.145.066.302.103.462.109a1.25 1.25 0 0 0 .47-.072 1.23 1.23 0 0 0 .406-.242 1.19 1.19 0 0 0 .28-.375z" fill="#999"/><path d="M56.481 30.649l-.381.736a.92.92 0 0 1-.561.403.94.94 0 0 1-.69-.096c-.223-.092-.399-.265-.491-.484a.87.87 0 0 1 .001-.68l.381-.736a.92.92 0 0 1 .561-.403.94.94 0 0 1 .69.096c.482.246.698.761.489 1.164zm3.489 1.718l-.381.736a.92.92 0 0 1-.561.403.94.94 0 0 1-.69-.096c-.223-.092-.399-.266-.491-.484a.87.87 0 0 1 .001-.68l.381-.736a.92.92 0 0 1 .561-.403.94.94 0 0 1 .69.096c.475.243.698.761.489 1.164z" fill="#0050c3"/><path d="M54.58 34.32l-3.8 7.341a.92.92 0 0 1-.561.403.94.94 0 0 1-.69-.096c-.223-.092-.399-.266-.491-.484a.87.87 0 0 1 .001-.68l3.8-7.341a.92.92 0 0 1 .561-.403.94.94 0 0 1 .69.096.91.91 0 0 1 .491.484.87.87 0 0 1-.001.68zm3.488 1.718l-4.557 8.805a.92.92 0 0 1-.561.403.94.94 0 0 1-.69-.096c-.223-.092-.399-.266-.491-.484a.87.87 0 0 1 .001-.68l4.558-8.804a.92.92 0 0 1 .561-.403.94.94 0 0 1 .69.096.91.91 0 0 1 .489.484.88.88 0 0 1 .001.68z" fill="#999"/><path d="M46.856 56.572c.596-1.152.122-2.558-1.059-3.139s-2.622-.119-3.219 1.033-.122 2.558 1.059 3.139 2.622.119 3.219-1.033z" fill="#bcd6ee"/><path d="M45.689 56.069c.273-.527.056-1.17-.485-1.437a1.11 1.11 0 0 0-1.473.473c-.273.527-.056 1.17.485 1.437a1.11 1.11 0 0 0 1.473-.473z" fill="#0a7adf"/><g fill="#0050c3"><use xlink:href="#B"/><use xlink:href="#C"/></g><path d="M42.269 19.259l-8.687 16.782 6.562 3.231 6.362-12.291c.41-.792 1.211-1.196 1.791-.911s.722 1.154.312 1.946l-6.362 12.291 1.349.664 6.607-12.765a1.15 1.15 0 0 1 .273-.385c.117-.108.256-.192.408-.247a1.21 1.21 0 0 1 .474-.068c.161.009.319.051.463.122s.272.17.375.291.18.262.225.413.058.31.038.466a1.13 1.13 0 0 1-.155.443l-6.607 12.765 6.534 3.217c-.223-.092-.399-.265-.491-.484a.87.87 0 0 1 .001-.68l4.557-8.805c.136-.189.337-.325.567-.381s.472-.03.684.074a.97.97 0 0 1 .467.493.94.94 0 0 1 .022.671l-4.557 8.804a.92.92 0 0 1-.561.403.94.94 0 0 1-.69-.096l3.393 1.671 8.687-16.782a1.42 1.42 0 0 0 .045-1.112 1.47 1.47 0 0 0-.774-.818l-19.289-9.498c-.346-.186-.754-.229-1.134-.122s-.7.358-.891.696h0zM40.65 35.2l-1.102 2.129c-.071.142-.17.268-.291.372s-.263.183-.416.233-.315.07-.476.059a1.24 1.24 0 0 1-.462-.125c-.144-.071-.272-.169-.377-.289a1.18 1.18 0 0 1-.234-.408 1.16 1.16 0 0 1-.054-.465c.014-.157.059-.309.134-.449l1.102-2.129a1.21 1.21 0 0 1 .707-.581c.305-.096.636-.07.922.071s.503.386.606.682a1.16 1.16 0 0 1-.06.9zm13.894-.808l-3.8 7.341c-.136.189-.337.325-.567.381a1.01 1.01 0 0 1-.684-.074.97.97 0 0 1-.467-.493.94.94 0 0 1-.022-.671l3.8-7.341c.136-.189.337-.325.567-.381s.473-.03.684.074a.97.97 0 0 1 .467.493.94.94 0 0 1 .022.671z" fill="#80dbff"/><path d="M38.469 34.125l-1.102 2.129c-.075.139-.12.292-.134.449s.005.315.054.465a1.18 1.18 0 0 0 .234.408c.105.12.233.218.377.289s.301.113.462.125a1.24 1.24 0 0 0 .476-.059c.153-.05.294-.13.416-.233a1.17 1.17 0 0 0 .291-.372l1.102-2.129a1.16 1.16 0 0 0 .059-.9 1.2 1.2 0 0 0-.606-.682 1.25 1.25 0 0 0-.922-.071 1.21 1.21 0 0 0-.707.581zm10.14-6.109c.406-.785.268-1.661-.312-1.946s-1.381.119-1.791.911l-6.362 12.291 2.096 1.032 6.362-12.291.007.004zm3.689 1.222a1.13 1.13 0 0 0 .117-.909 1.14 1.14 0 0 0-.225-.413 1.18 1.18 0 0 0-.375-.291 1.22 1.22 0 0 0-.463-.122 1.21 1.21 0 0 0-.474.068 1.17 1.17 0 0 0-.407.247c-.117.109-.21.239-.273.384l-6.607 12.765 2.103 1.035 6.607-12.765z" fill="gray"/><path d="M52.804 33.534l-3.8 7.341a.94.94 0 0 0 .022.671.97.97 0 0 0 .467.493 1.01 1.01 0 0 0 .684.074c.23-.056.431-.192.567-.381l3.8-7.341a.94.94 0 0 0-.022-.671.97.97 0 0 0-.467-.493 1.01 1.01 0 0 0-.684-.074c-.23.056-.431.192-.567.381zm.671 11.379l4.557-8.804a.94.94 0 0 0-.022-.671.97.97 0 0 0-.467-.493 1.01 1.01 0 0 0-.684-.074.98.98 0 0 0-.567.381l-4.557 8.804a.94.94 0 0 0 .022.671.97.97 0 0 0 .467.493 1.01 1.01 0 0 0 .684.074c.23-.056.431-.192.567-.381z" fill="#00aa9d"/><g fill="#0050c3"><use xlink:href="#B"/><use xlink:href="#C"/></g><defs ><path id="B" d="M56.444 30.721l-.381.735a.92.92 0 0 1-.561.403.94.94 0 0 1-.69-.096c-.223-.092-.399-.266-.491-.484a.87.87 0 0 1 .001-.68l.381-.735a.92.92 0 0 1 .561-.403.94.94 0 0 1 .69.096c.482.246.698.761.489 1.164z"/><path id="C" d="M59.931 32.438l-.381.736a.92.92 0 0 1-.561.403.94.94 0 0 1-.69-.096c-.223-.092-.399-.266-.491-.484a.87.87 0 0 1 .001-.68l.381-.736a.92.92 0 0 1 .561-.403.94.94 0 0 1 .69.096c.475.243.698.761.489 1.164z"/></defs></svg>