<svg xmlns="http://www.w3.org/2000/svg" width="105" height="65" fill="none"><path d="M100.342 65H4.658a4.66 4.66 0 0 1-3.291-1.369C.493 62.757.002 61.571 0 60.335V4.665c.002-1.237.493-2.422 1.366-3.297A4.66 4.66 0 0 1 4.658 0h95.706c1.232.006 2.411.5 3.28 1.374A4.67 4.67 0 0 1 105 4.665v55.693a4.67 4.67 0 0 1-1.373 3.284c-.872.87-2.054 1.358-3.285 1.358z" fill="#00aa9d"/><path d="M29.643 52.212H17.259c-2.322 0-3.117-.821-3.139-3.13l-.021-2.937c-.322-4.426 1.913-7.384 5.482-9.478 3.654-2.159 7.653-2.807 11.868-2.483a19.36 19.36 0 0 1 8.405 2.526c3.44 2.029 5.589 4.879 5.417 9.133-.043 1.015 0 2.051 0 3.087 0 2.483-.795 3.303-3.246 3.325l-12.383-.043zm45.853-3.261c-4.3 0-8.62 0-12.919-.021-.66.021-1.32-.059-1.956-.237a3.25 3.25 0 0 1-1.608-1.171 3.27 3.27 0 0 1-.039-3.799 3.25 3.25 0 0 1 1.583-1.205 5.83 5.83 0 0 1 1.827-.259h26.374c.301 0 .623 0 .924.021a3.35 3.35 0 0 1 2.233 1.06 3.38 3.38 0 0 1 .906 2.308 3.32 3.32 0 0 1-.95 2.297 3.29 3.29 0 0 1-2.274.985c-2.537.086-5.052.043-7.588.043l-6.512-.022zm.172-33.034h12.919a7.37 7.37 0 0 1 2.085.237 3.22 3.22 0 0 1 1.686 1.344 3.24 3.24 0 0 1 .464 2.111 3.35 3.35 0 0 1-.918 1.885 3.33 3.33 0 0 1-1.856.965 11.36 11.36 0 0 1-1.72.086h-25.43c-.532.004-1.063-.025-1.591-.086a3.26 3.26 0 0 1-2.111-1.125 3.29 3.29 0 0 1 .176-4.464 3.26 3.26 0 0 1 2.193-.953l8.792-.064 5.31.064v-.001z" fill="#00645c"/><path d="M75.581 29.088l13.822.022a3.27 3.27 0 0 1 2.02.588 3.29 3.29 0 0 1 1.248 1.7c.227.613.253 1.283.075 1.912s-.551 1.185-1.065 1.586c-.628.484-1.382.777-2.171.842l-12.855.086H67.52h-5.697a3.37 3.37 0 0 1-1.309-.223 3.38 3.38 0 0 1-1.123-.711c-.324-.309-.583-.68-.764-1.09a3.41 3.41 0 0 1-.288-1.301c-.021-1.9 1.44-3.368 3.547-3.368l13.693-.043z" fill="#999"/><path d="M29.751 12.657a7.95 7.95 0 0 1 3.076.622 7.98 7.98 0 0 1 2.6 1.765 8.02 8.02 0 0 1 1.722 2.635 8.05 8.05 0 0 1 .578 3.098 8.1 8.1 0 0 1-1.381 4.481 8.05 8.05 0 0 1-3.628 2.954 8.01 8.01 0 0 1-4.651.43 8.03 8.03 0 0 1-4.104-2.239 8.09 8.09 0 0 1-2.173-4.152 8.11 8.11 0 0 1 .492-4.665 8.06 8.06 0 0 1 2.99-3.603 8.02 8.02 0 0 1 4.48-1.326zm59.852 16.558l-14.013-.022c-4.62 0-9.262-.021-13.882 0-2.114.022-3.618 1.449-3.596 3.323a3.29 3.29 0 0 0 .291 1.284 3.35 3.35 0 0 0 .774 1.076 3.44 3.44 0 0 0 1.138.702 3.5 3.5 0 0 0 1.327.22c1.918.043 3.836 0 5.775 0h9.262l13.032-.085a4.23 4.23 0 0 0 2.201-.831 3.02 3.02 0 0 0 1.081-1.565 2.96 2.96 0 0 0-.079-1.887c-.228-.673-.676-1.254-1.274-1.654a3.37 3.37 0 0 0-2.039-.561z" fill="#00645c"/></svg>