<svg xmlns="http://www.w3.org/2000/svg" xmlns:xlink="http://www.w3.org/1999/xlink" width="105" height="65" fill="none"><path d="M95.452 16.952H83.273c-.459 0-.913-.09-1.336-.266a3.49 3.49 0 0 1-1.133-.758 3.5 3.5 0 0 1-1.023-2.474V7.191a3.5 3.5 0 0 1 1.023-2.474 3.49 3.49 0 0 1 1.133-.758c.424-.176.878-.266 1.336-.266h12.179c.459 0 .913.09 1.336.266a3.49 3.49 0 0 1 1.133.758 3.5 3.5 0 0 1 1.023 2.474v6.263c-.004.927-.373 1.814-1.027 2.47a3.5 3.5 0 0 1-2.465 1.029z" fill="#b7c77c"/><g fill="#666"><path d="M78.337 29.758h5.54c1.531 0 2.781 1.447 2.781 3.239s-1.25 3.239-2.781 3.239h-5.54c-1.53 0-2.781-1.447-2.781-3.239.022-1.792 1.251-3.239 2.781-3.239zm-38.802 0h27.722c1.53 0 2.781 1.447 2.781 3.239s-1.25 3.239-2.781 3.239H39.535c-1.53 0-2.781-1.447-2.781-3.239s1.25-3.239 2.781-3.239zm4.223-4.277h-4.591c-1.272 0-2.306-1.447-2.306-3.261 0-1.792 1.034-3.261 2.306-3.261h4.591c1.272 0 2.306 1.447 2.306 3.261s-1.033 3.261-2.306 3.261zm32.187 0H52.964c-1.272 0-2.306-1.447-2.306-3.261 0-1.792 1.034-3.261 2.306-3.261h23.001c1.272 0 2.306 1.447 2.306 3.261-.021 1.814-1.056 3.261-2.326 3.261zM39.664 46.32h58.31a3.17 3.17 0 0 0 1.221-.222c.389-.154.743-.382 1.043-.673a3.17 3.17 0 0 0 .707-1.022 3.2 3.2 0 0 0 .263-1.215 3.2 3.2 0 0 0-.263-1.215 3.17 3.17 0 0 0-1.75-1.695c-.388-.154-.803-.229-1.221-.222h-58.31c-.418-.007-.833.068-1.221.222a3.18 3.18 0 0 0-1.043.673 3.2 3.2 0 0 0-.707 1.022 3.19 3.19 0 0 0-.262 1.215 3.19 3.19 0 0 0 .969 2.236 3.18 3.18 0 0 0 2.264.895zm-.323 10.257h59.713c1.38 0 2.478-1.404 2.478-3.131s-1.12-3.131-2.478-3.131H39.341c-1.379 0-2.479 1.404-2.479 3.131-.022 1.728 1.099 3.131 2.479 3.131z"/><use xlink:href="#B"/></g><path d="M36.754 32.997c0 1.792 1.25 3.239 2.781 3.239h12.632v-6.5H39.535c-1.531.022-2.781 1.469-2.781 3.261zm7.004-14.015h-4.591c-1.271 0-2.305 1.447-2.305 3.261 0 1.792 1.034 3.261 2.306 3.261h4.59c1.272 0 2.306-1.447 2.306-3.261s-1.033-3.261-2.306-3.261zm6.899 3.24c0 1.404.625 2.591 1.509 3.045v-6.09c-.884.454-1.509 1.641-1.509 3.045zM36.431 43.189a3.19 3.19 0 0 0 .262 1.215 3.17 3.17 0 0 0 .707 1.022 3.18 3.18 0 0 0 1.043.673 3.17 3.17 0 0 0 1.221.222h12.503v-6.24H39.664a3.14 3.14 0 0 0-1.221.211 3.16 3.16 0 0 0-1.045.666c-.301.289-.541.635-.708 1.019a3.16 3.16 0 0 0-.26 1.213zm.409 10.258c0 1.727 1.121 3.131 2.479 3.131h12.848v-6.24H39.341c-1.38 0-2.501 1.382-2.501 3.109zm2.026-39.842h4.893c1.358 0 2.436-1.447 2.436-3.261 0-1.792-1.099-3.261-2.436-3.261h-4.893c-1.358 0-2.436 1.447-2.436 3.261s1.099 3.261 2.436 3.261z" fill="#999"/><path d="M100.324 65H4.655a4.66 4.66 0 0 1-3.289-1.369C.494 62.757.002 61.573 0 60.337V4.663c.002-1.236.494-2.421 1.366-3.295A4.66 4.66 0 0 1 4.655 0h95.69a4.66 4.66 0 0 1 3.289 1.369c.872.874 1.364 2.059 1.366 3.295v55.693c-.015 1.234-.514 2.413-1.389 3.282s-2.055 1.358-3.287 1.362z" fill="#e4e2a9"/><path d="M95.667 17.6H83.488c-.459 0-.913-.09-1.337-.266a3.49 3.49 0 0 1-1.133-.758 3.5 3.5 0 0 1-.757-1.135c-.175-.425-.266-.879-.266-1.339V7.839c0-.459.09-.914.266-1.339a3.5 3.5 0 0 1 .757-1.135 3.49 3.49 0 0 1 1.133-.758c.424-.176.878-.266 1.337-.266h12.179c.459 0 .913.09 1.336.266a3.49 3.49 0 0 1 1.133.758 3.5 3.5 0 0 1 .757 1.135c.175.424.266.879.266 1.339v6.263c-.004.927-.373 1.814-1.027 2.47a3.5 3.5 0 0 1-2.465 1.029z" fill="#c4c4c4"/><g fill="#666"><path d="M78.553 30.406h5.54c1.53 0 2.781 1.447 2.781 3.239s-1.25 3.239-2.781 3.239h-5.54c-1.53 0-2.781-1.447-2.781-3.239.021-1.792 1.25-3.239 2.781-3.239zm-38.802 0h27.722c1.531 0 2.781 1.447 2.781 3.239s-1.25 3.239-2.781 3.239H39.751c-1.53 0-2.781-1.447-2.781-3.239s1.25-3.239 2.781-3.239zm4.222-4.277h-4.591c-1.272 0-2.306-1.447-2.306-3.261 0-1.792 1.035-3.261 2.306-3.261h4.591c1.272 0 2.306 1.447 2.306 3.261s-1.033 3.261-2.306 3.261zm32.187 0H53.179c-1.272 0-2.306-1.447-2.306-3.261 0-1.792 1.035-3.261 2.306-3.261H76.18c1.272 0 2.306 1.447 2.306 3.261-.021 1.814-1.056 3.261-2.326 3.261zM39.879 46.968h58.31a3.17 3.17 0 0 0 1.221-.222c.389-.154.743-.382 1.043-.673s.54-.638.706-1.022a3.2 3.2 0 0 0 .263-1.215 3.18 3.18 0 0 0-.263-1.215 3.2 3.2 0 0 0-.706-1.022 3.18 3.18 0 0 0-1.043-.673 3.17 3.17 0 0 0-1.221-.222h-58.31c-.418-.007-.833.068-1.221.222a3.18 3.18 0 0 0-1.043.673 3.2 3.2 0 0 0-.707 1.022 3.19 3.19 0 0 0-.262 1.215 3.19 3.19 0 0 0 .969 2.236 3.18 3.18 0 0 0 2.264.895zm-.323 10.258h59.713c1.379 0 2.479-1.404 2.479-3.131s-1.121-3.131-2.479-3.131H39.556c-1.379 0-2.479 1.404-2.479 3.131-.022 1.728 1.099 3.131 2.479 3.131z"/><use xlink:href="#B" x="0.215" y="0.647"/></g><defs ><path id="B" d="M43.76 13.605h-4.893c-1.358 0-2.436-1.447-2.436-3.261 0-1.792 1.099-3.261 2.436-3.261h4.893c1.358 0 2.436 1.447 2.436 3.261s-1.078 3.261-2.436 3.261z"/></defs></svg>