<svg xmlns="http://www.w3.org/2000/svg" xmlns:xlink="http://www.w3.org/1999/xlink" width="160" height="48" fill="none"><g clip-path="url(#A)"><g fill="#020202"><path d="M96.224 35.646c-1.095 1.083-1.122 2.887-.08 4.026l4.994 5.386c1.042 1.138 2.778 1.166 3.873.083l4.914-4.942c1.095-1.083 1.121-2.887.08-4.026l-4.994-5.386c-1.042-1.138-2.778-1.166-3.873-.083l-4.914 4.942zm51.09 9.522c0 1.582 1.228 2.859 2.751 2.859h7.184c1.522 0 2.751-1.277 2.751-2.859v-7.135c0-1.583-1.229-2.859-2.751-2.859h-7.184c-1.523 0-2.751 1.277-2.751 2.859v7.135z"/></g><g fill="#00aa9d"><path d="M100.283 30.871c.268-6.579 5.128-2.832 3.82-6.69s-4.621-8.495-2.217-9.744 4.487-2.665 5.742-.361c.908 1.694-.054-6.413 7.691-10.466 1.389-.722 3.873.444 5.903 0 2.189-.5 3.952-1.721 7.023-1.749 0 0-7.905 0 0 0h15.17c6.49 4.969 8.546 15.824 8.546 15.824S160 20.183 160 31.26v11.382h-31.14-19.523c0 .028-9.321-5.191-9.054-11.771z"/><path d="M149.638 16.629c0 1.582 1.228 2.859 2.75 2.859h4.514c1.522 0 2.751-1.277 2.751-2.859v-.944c0-1.582-1.229-2.859-2.751-2.859h-4.514c-1.522 0-2.75 1.277-2.75 2.859v.944z"/></g><g fill="#373737"><path d="M113.797 28.539c4.914-.333 9.721-1.721 12.259-1.721h20.11c.4-2.138 2.243-3.776 4.406-3.776 2.484 0 4.514 2.11 4.514 4.692s-2.03 4.692-4.514 4.692c-2.19 0-4.006-1.61-4.406-3.776h-20.004c-1.896 0-7.611 2.249-12.365 1.721-1.255-.666-.107-1.499 0-1.832z"/><path d="M105.224 28.65c-.32 1.36 2.11 2.554 4.834 3.248 2.751.694 5.208.167 5.529-1.194s-.775-3.248-3.526-3.942c-2.724-.666-6.516.555-6.837 1.888zm5.555-16.574c1.763-3.387 4.62-6.829 6.757-6.219 3.605.999 5.662-.305 10.122-.722s13.567 0 15.009 0c4.059 5.275 5.822 12.382 5.822 12.382s-12.739-.972-18.267.139c-5.502 1.11-7.825-6.274-20.244-.111-.534-1.027-.187-3.609.801-5.469zm29.325 26.652c0 .278.213.527.507.527.267 0 .508-.222.508-.527v-5.774c0-.278-.214-.528-.508-.528-.267 0-.507.222-.507.528v5.774zm-2.111 0c0 .278.214.527.508.527.267 0 .508-.222.508-.527v-5.774c0-.278-.214-.528-.508-.528-.267 0-.508.222-.508.528v5.774zm-2.109 0c0 .278.214.527.508.527.267 0 .507-.222.507-.527v-5.774c0-.278-.214-.528-.507-.528-.268 0-.508.222-.508.528v5.774z"/><use xlink:href="#B"/><path d="M131.691 38.728c0 .278.214.527.508.527.267 0 .507-.222.507-.527v-5.774c0-.278-.213-.528-.507-.528-.268 0-.508.222-.508.528v5.774zm-2.484-.611c.027.278.294.472.562.444s.454-.305.427-.583l-.721-5.747c-.027-.278-.294-.472-.562-.444s-.454.305-.427.583l.721 5.747zm-2.217 0c.027.278.294.472.562.444s.454-.305.427-.583l-.748-5.719c-.027-.278-.294-.472-.561-.444s-.454.305-.428.583l.748 5.719z"/><use xlink:href="#C"/><path d="M122.611 38.589c.08.278.347.444.614.361s.427-.361.347-.639l-1.389-5.608c-.08-.278-.347-.444-.614-.361s-.427.361-.347.639l1.389 5.608zm-1.71 1.305a.51.51 0 0 0 .641.305c.267-.111.374-.416.294-.666l-2.003-5.386a.51.51 0 0 0-.641-.305c-.267.111-.374.416-.294.666l2.003 5.386z"/></g><path d="M12.553 27.207s-6.837-2.054-8.386-3.165-4.861-2.887-4.006-5.691c.828-2.804.908-5.858 4.326-5.608-1.362-1.332-.134-9.966 3.846-9.717s4.727.999 13.754-.999S59.049.583 65.752 5.747l9.374 7.107c1.442 1.055 5.849 2.304 5.849 2.304s5.742-10.438 6.757-10.105c1.015.305 6.543 3.387 6.677 2.054L95.13 0l1.816.194s-.641 8.939-1.095 9.772c-.481.833-6.971-2.471-7.745-2.748s-4.567 7.19-4.967 8.162 1.843 5.691 1.843 5.691 7.318.194 6.677 1.027c-.668.833.828 4.331.374 5.358s2.003 2.471 2.777 4.109-.561 12.076-1.335 13.187-4.861-.527-4.861-.527.801-12.437-4.3-12.021-7.505 8.356-7.505 8.356l-4.193-1.721-7.398.444-34.024-7.329-18.641-4.747z" fill="#ef4f24"/><g fill="#373737"><path d="M12.339 23.764c-.561 5.497 3.285 10.438 8.573 10.994 5.288.583 10.042-3.415 10.576-8.911.561-5.497-3.285-10.438-8.573-10.994s-10.042 3.415-10.576 8.912zM28.923 9.328l22.434 5.08s2.083-3.692 2.724-9.828c-20.27-3.442-25.158 4.747-25.158 4.747zm28.122-3.609c-.294 2.971-2.056 10.133-2.056 10.133s11.377 1.083 16.986 3.304 8.733 2.971 9.481.139c-1.309-1.971-2.083-1.582-6.089-4.053-4.033-2.471-11.911-7.523-18.321-9.522z"/></g><g fill="#231f20"><path d="M21.018 33.481c-2.217-.25-4.22-1.36-5.635-3.193-1.416-1.805-2.056-4.081-1.816-6.385.454-4.442 4.033-7.801 8.333-7.801.294 0 .588.028.881.055 2.217.25 4.22 1.36 5.635 3.193 1.415 1.804 2.056 4.081 1.816 6.385-.454 4.442-4.033 7.801-8.332 7.801-.267 0-.587-.028-.881-.056zm-3.579-9.161a4.68 4.68 0 0 0 .988 3.442c.748.972 1.843 1.582 3.018 1.721.16.028.32.028.481.028 2.297 0 4.22-1.805 4.46-4.192a4.68 4.68 0 0 0-.988-3.442c-.748-.972-1.843-1.582-3.018-1.721-.16-.028-.32-.028-.481-.028-2.297.028-4.22 1.804-4.46 4.192zm57.233 15.907c-1.148-3.887 1.469-5.302 3.205-6.219.908-.472 1.923-1.027 2.938-1.943 1.309-1.166 2.804-1.804 4.273-1.804 2.591 0 4.754 1.888 5.635 4.886.641 2.221.427 4.581-.641 6.635s-2.831 3.553-4.968 4.22c-.801.25-1.602.389-2.43.389-3.712.028-6.944-2.471-8.012-6.163zm8.653-5.108c-1.362 1.221-2.644 1.916-3.712 2.471-.507.278-1.175.639-1.362.833 0 .083 0 .25.107.611.561 1.971 2.35 3.331 4.3 3.331.427 0 .881-.056 1.309-.194a4.49 4.49 0 0 0 2.671-2.276 4.83 4.83 0 0 0 .347-3.553c-.187-.611-.721-2.027-1.923-2.027-.507-.028-1.122.278-1.736.805z"/></g></g><defs><clipPath id="A"><path fill="#fff" d="M0 0h160v48H0z"/></clipPath><path id="B" d="M133.774 38.728c0 .278.214.527.508.527.267 0 .507-.222.507-.527v-5.774c0-.278-.213-.528-.507-.528-.268 0-.508.222-.508.528v5.774z"/><path id="C" d="M124.881 39.2c.08.278.347.444.614.361s.427-.361.347-.639l-1.389-5.608c-.08-.278-.347-.444-.614-.361s-.427.361-.347.639l1.389 5.608z"/></defs></svg>