<svg xmlns="http://www.w3.org/2000/svg" width="47" height="46" fill="none"><g clip-path="url(#A)"><g fill="#fff"><path d="M21.59 19.338c-1.236 5.417-8.585 5.797-8.585 5.797-1.079-2.142-3.298-3.612-5.86-3.612a6.56 6.56 0 0 0-6.559 6.558c0 2.388 1.276 4.476 3.183 5.623-1.64 1.192-2.707 3.124-2.707 5.307 0 1.799.725 3.43 1.899 4.614l11.647-9.131 9.81-12.328-2.827-2.829z"/><path d="M27.248 24.996l-2.829-2.828L2.96 43.626c1.185 1.174 2.815 1.899 4.614 1.899 2.183 0 4.115-1.067 5.307-2.707C14.028 44.724 16.117 46 18.505 46a6.56 6.56 0 0 0 6.557-6.557c0-2.562-1.469-4.781-3.612-5.86 0 0 .38-7.35 5.798-8.587z"/></g><g fill="#e84f35"><path d="M19.237 9.934L13.071 16.1l9.152 1.906 6.166-6.164-9.152-1.907zm15.509 8.262l-6.166 6.166 1.906 9.152 6.166-6.164-1.906-9.153z"/></g><g fill="#dee7f3"><path d="M45.104.071a22.58 22.58 0 0 0-16.441 8.317l-7.146 8.806c-1.812 2.233-1.645 5.452.388 7.486l12.297-9.87L46.586 0l-1.482.071z"/><path d="M21.906 24.68c1.09 1.09 2.521 1.645 3.958 1.645 1.243 0 2.492-.416 3.527-1.255l8.807-7.146a22.58 22.58 0 0 0 8.317-16.441L46.586 0l-24.68 24.68z"/></g><g fill="#172a3a"><path d="M35.444 9.235l-1.907 1.907.953.954 1.24-.701.667-1.206-.953-.954z"/><path d="M34.486 12.098l1.906-1.906.954.954-1.906 1.906-.954-.953z"/></g></g><defs><clipPath id="A"><path fill="#fff" transform="translate(.586)" d="M0 0h46v46H0z"/></clipPath></defs></svg>