<svg xmlns="http://www.w3.org/2000/svg" width="140" height="28" fill="none"><path fill-rule="evenodd" d="M140 0l-7.311 28H0L7.311 0H140z" fill="#c22e0c"/><path d="M35.513 5.016h-.654-6.623l-5.732 10.93.108-10.93H15.31l-4.807 17.965h4.545l3.666-13.696-.162 13.696h4.103l7.182-13.696-3.666 13.696h4.536L34.86 7.456l.654-2.441zm17.808 8.847c.646-2.42.608-4.39-.117-5.907a5 5 0 0 0-.504-.837c-1.187-1.608-3.278-2.408-6.269-2.408-.854 0-1.67.071-2.449.208A11.15 11.15 0 0 0 38.95 7.16c-1.912 1.508-3.278 3.57-4.091 6.19l-.192.658c-.562 2.099-.616 3.849-.167 5.244a6.15 6.15 0 0 0 .358.879c.475.954 1.158 1.683 2.054 2.187 1.158.646 2.749.966 4.774.966a14.05 14.05 0 0 0 2.299-.183c1.079-.179 2.075-.492 2.995-.941 1.533-.75 2.837-1.795 3.899-3.136.992-1.25 1.77-2.833 2.325-4.74l.117-.421zm-5.528-.071c-.537 2.008-1.241 3.399-2.099 4.178-.508.458-1.079.783-1.708.971a4.74 4.74 0 0 1-1.37.192c-1.158 0-1.97-.396-2.433-1.187s-.446-2.095.038-3.911c.487-1.829 1.179-3.141 2.066-3.932.525-.471 1.091-.8 1.7-.991a4.32 4.32 0 0 1 1.312-.2c1.171 0 1.991.387 2.466 1.166.467.787.479 2.02.029 3.716zm33.758-4.94h9.31l.254-.954.771-2.882h-.771-14.101l-3.603 13.467-1.204 4.499h1.204H87.35l1.091-4.07H78.86l.946-3.536h8.635l.983-3.666h-8.636l.762-2.857zm46.872-1.733c-1.187-1.608-3.278-2.408-6.269-2.408a14.13 14.13 0 0 0-2.45.208c-1.887.337-3.565 1.083-5.032 2.241-2.066 1.633-3.499 3.915-4.282 6.848-.25.937-.4 1.8-.45 2.599a8.31 8.31 0 0 0 0 1.116c.038.55.133 1.062.283 1.533.454 1.395 1.258 2.416 2.408 3.066 1.158.646 2.749.966 4.774.966.804 0 1.57-.062 2.299-.183 1.079-.179 2.079-.491 2.996-.941a11.22 11.22 0 0 0 3.899-3.137c1.067-1.342 1.883-3.066 2.445-5.165.775-2.891.562-5.14-.621-6.744zm-4.911 6.673c-.537 2.008-1.241 3.399-2.1 4.178-.512.458-1.079.783-1.708.971a4.74 4.74 0 0 1-1.37.192c-1.158 0-1.975-.396-2.433-1.187s-.446-2.095.038-3.911c.487-1.829 1.179-3.141 2.07-3.932.525-.471 1.091-.8 1.7-.991.42-.133.858-.2 1.312-.2 1.17 0 1.991.387 2.466 1.166.466.787.479 2.02.025 3.716zM74.616 5.016h-1.204-4.028l-2.658 9.939-4.103-9.939h-5.186l-4.232 15.82-.575 2.145h.575 4.645l2.637-9.86 4.091 9.86h5.232l3.603-13.463 1.204-4.503zm25.219 11.459h3.712l-.454 1.695c-.838.429-1.571.737-2.183.916a6.53 6.53 0 0 1-1.845.271c-1.308 0-2.216-.416-2.724-1.25s-.504-2.22.017-4.165c.492-1.833 1.212-3.166 2.162-4.016s2.033-1.266 3.249-1.266c.817 0 1.441.179 1.866.542s.667.879.708 1.558l5.595-.95.013-.004-.013-.383c-.058-.991-.283-1.824-.683-2.491-.45-.758-1.117-1.312-2.004-1.674s-2.328-.537-4.311-.537c-2.058 0-3.774.287-5.145.871-1.762.754-3.241 1.854-4.436 3.299-.966 1.175-1.716 2.516-2.245 4.024l-.337 1.1c-.5 1.862-.567 3.511-.213 4.949a5.91 5.91 0 0 0 .55 1.445 4.85 4.85 0 0 0 1.704 1.804c1.146.729 2.787 1.091 4.92 1.091 1.733 0 3.282-.2 4.653-.608 1.37-.4 3.024-1.166 4.965-2.283l2.05-7.66h-8.573l-.996 3.724z" fill="#fff"/></svg>