<svg xmlns="http://www.w3.org/2000/svg" width="41" height="24" fill="none" xmlns:v="https://vecta.io/nano"><rect x=".5" width="40" height="24" rx="4" fill="#f0f5fa"/><path d="M16.127 14.847c-.356-.132-.736-.223-1.065-.404-1.134-.625-1.722-1.915-1.465-3.135.276-1.31 1.311-2.269 2.627-2.417.243-.027.492-.004.789-.004l-.535.797c-.024.034-.096.039-.147.047-1.078.164-1.804.91-1.918 1.975-.123 1.142.862 2.236 2.03 2.297 1.259.065 2.342-.909 2.314-2.182-.006-.257-.108-.511-.154-.77-.014-.082-.017-.187.023-.254.129-.221.281-.429.437-.661a2.85 2.85 0 0 1 .53 1.277c.259 1.646-.913 3.145-2.486 3.398-.025.004-.048.023-.072.035h-.908zm20.099-3.654c-.012.024-.029.046-.035.071-.181.804-.757 1.278-1.602 1.306l-.913.002v1.026 1.001h-1.11v-5.48l.681.001 1.563.047c.73.085 1.209.561 1.374 1.265.009.039.028.075.042.112v.649zm-2.538.44c.25 0 .492.023.727-.005.403-.049.652-.335.688-.742.029-.338-.178-.684-.516-.764-.287-.068-.59-.069-.899-.102v1.613zM3.759 9.131h4.447v5.468H7.093v-4.495h-2.22v4.492H3.759V9.131zm6.675 3.441v2.027H9.335V9.147c.004-.003.014-.02.024-.02l2.243.046c.765.069 1.325.708 1.381 1.467.047.637-.083 1.215-.65 1.616-.299.212-.643.302-1.006.314l-.894.002zm.012-.933l.681-.003c.395-.029.65-.272.722-.661.064-.349-.1-.689-.412-.827-.318-.141-.652-.105-.991-.09v1.581zm14.057 1.544l-.005 1.126c-.002.056-.06.137-.113.16-1.895.816-3.922-.261-4.173-2.141-.155-1.158.162-2.169 1.169-2.845.935-.628 1.965-.654 3-.208a.24.24 0 0 1 .116.178l.005 1.128c-.433-.434-.925-.652-1.509-.603-.591.049-1.054.324-1.375.818-.519.796-.385 1.905.302 2.504.734.641 1.7.607 2.583-.114zm2.355-3.089h-1.225v-.961h3.566v.95h-1.22v4.508h-1.121v-4.497zm3.474 4.502V9.132h1.098v5.464h-1.098z" fill="#114c8d"/><path d="M15.272 11.88c-.039-.695.56-1.304 1.275-1.329.742-.026 1.385.593 1.374 1.322-.01.715-.615 1.312-1.322 1.291v-.729c.07-.022.149-.039.221-.072.237-.106.369-.361.317-.598a.56.56 0 0 0-.513-.451c-.262-.015-.517.147-.57.401a.17.17 0 0 1-.217.167l-.566-.003z" fill="#ffcc0b"/></svg>