<svg xmlns="http://www.w3.org/2000/svg" width="41" height="24" fill="none" xmlns:v="https://vecta.io/nano"><rect x=".982" width="40" height="24" rx="4" fill="#f0f5fa"/><g clip-path="url(#A)" fill="#282d60"><path d="M4.865 7.495c.02-.06.044-.203.072-.291h.244l3.562-.016c.703 0 1.138.347 1.27 1.041l1.03 5.459c.012.068.032.14.064.263l.335-.837 2.268-5.739c.056-.136.112-.191.268-.191l2.256.004h.252l-.124.311-3.964 9.479c-.052.128-.12.179-.264.179-.787-.008-1.569-.008-2.356 0-.152 0-.204-.052-.24-.191l-1.852-7.19-.212-.79c-.08-.311-.271-.526-.555-.67-.802-.403-1.17-.638-2.052-.821 0-.028 0 .028 0 0zm22.202 9.631l1.697-4.048 2.128-5.084a1.18 1.18 0 0 1 1.206-.798h1.936c.124 0 .18.02.212.163l1.346 6.448.659 3.134c.012.056.012.116.02.187l-.232.012c-.639 0-1.277-.004-1.916.004-.156 0-.22-.048-.248-.203l-.232-1.149c-.02-.104-.068-.144-.172-.144h-3.034c-.116 0-.164.048-.2.148l-.435 1.196c-.024.064-.108.148-.164.148h-2.515c-.012.004-.024-.004-.056-.016zm3.964-3.509h2.152l-.767-3.681h-.052l-1.333 3.681zm-11.206 3.162l.467-2.173.287.132c.834.391 1.713.562 2.635.478.327-.028.643-.116.914-.315.455-.331.503-.881.072-1.236-.284-.235-.611-.423-.938-.594-.555-.291-1.102-.586-1.569-1.013-1.258-1.149-.862-2.855-.008-3.745.679-.71 1.533-1.057 2.475-1.216 1.15-.195 2.276-.068 3.377.311.032.012.06.028.108.052l-.435 2.042-1.389-.359c-.511-.096-1.034-.124-1.537.056a1.57 1.57 0 0 0-.535.327c-.259.247-.268.614 0 .849.248.223.539.403.826.578l1.329.766c1.956 1.236 1.373 3.585.196 4.542-.695.562-1.497.857-2.363.973-1.266.171-2.503.044-3.713-.375-.064-.02-.12-.048-.2-.08zm-1.776.366h-2.575l2.128-9.938h2.567l-2.12 9.938z"/></g><defs><clipPath id="A"><path fill="#fff" transform="translate(4.241 3.259)" d="M0 0h32.466v17.482H0z"/></clipPath></defs></svg>