<svg xmlns="http://www.w3.org/2000/svg" width="41" height="24" fill="none" xmlns:v="https://vecta.io/nano"><rect x=".464" width="40" height="24" rx="4" fill="#f0f5fa"/><path d="M15.39 20.195c4.64 0 8.402-3.669 8.402-8.195S20.03 3.805 15.39 3.805 6.988 7.474 6.988 12s3.762 8.195 8.402 8.195z" fill="#eb001b"/><path d="M25.538 20.195c4.64 0 8.402-3.669 8.402-8.195s-3.762-8.195-8.402-8.195S17.137 7.474 17.137 12s3.761 8.195 8.401 8.195z" fill="#f79e1b"/><path d="M20.462 5.456c2.023 1.495 3.326 3.864 3.326 6.528s-1.303 5.037-3.326 6.532c-2.023-1.495-3.325-3.864-3.325-6.532s1.307-5.033 3.325-6.528z" fill="#ff5f00"/></svg>