<svg xmlns="http://www.w3.org/2000/svg" width="166" height="50" fill="none"><g clip-path="url(#A)"><path fill-rule="evenodd" d="M38.648 26.17c1.016-4.998 4.702-7.431 7.419-7.852.846-.111 1.707-.165 2.622 0 2.279.627 2.657 1.596 1.851 2.778-1.716 1.966-3.313 4.044-4.654 6.358-.864 1.476-1.612 3.514-1.928 7.656-.117 4.265-2.05 7.598-5.31 10.256V26.17zm-6.487 22.475c-2.798.655-5.44.448-7.932-.544l5.526-8.512h2.405v9.056zm-13.261-4.042l4.3-6.314c-1.586-.72-2.816-1.734-3.678-3.041s-1.294-2.992-1.294-5.059c0-1.389.292-2.604.879-3.643s1.33-1.884 2.233-2.548c.791-.569 1.747-.994 2.88-1.271s2.423-.412 3.885-.412h6.18l-.283-1.986c-.68-4.495-2.059-9.93-3.055-16.674-.643-3.382-5.372-3.826-5.323.207.02 1.665.411 3.304.616 4.958.391 2.533.38 5.201.155 7.941-.687 2.93-3.892-3.103-4.219-3.672-2.034-3.54-3.563-7.77-5.809-9.072-1.831-.809-4.102.653-3.523 3.219.11 1.005 2.012 4.196 3.978 7.955.985 1.884 1.851 4.064 2.785 5.877.393 1.19-.075 1.302-.848 1.039-3.757-2.256-6.774-5.625-10.801-9.112-1.926-1.668-5.29 1.485-3.549 3.763 2.966 3.884 6.746 6.526 10.028 9.578 1.765 1.641.937 3.028-1.672 2.493-3.26-.671-6.277-2.325-9.54-3.841-.435-.203-.996-.236-1.44-.051-1.294.537-1.484 1.866-1.131 3.349.254 1.07 1.014 1.846 2.109 2.283 2.317.927 4.448 1.726 6.659 2.985 1.635.93 3.845 2.831 4.809 4.439 1.235 2.06 2.178 4.055 3.6 5.554.351.37.707.72 1.067 1.057zm13.261-9.932h-2.054c-.981 0-1.765-.045-2.363-.132-.601-.08-1.118-.308-1.562-.675a3.28 3.28 0 0 1-.921-1.22c-.221-.495-.334-1.057-.334-1.677 0-.602.106-1.153.316-1.645s.51-.894.903-1.202c.517-.406 1.045-.638 1.593-.707s1.325-.1 2.335-.1h2.092v7.357h-.005z" fill="#56ccf2"/></g><g clip-path="url(#B)"><path fill-rule="evenodd" d="M160.072 46.56l-.994.842c-.295.243-.69.49-1.185.742-.48.238-.951.423-1.413.552-.457.129-1.094.19-1.922.19-1.537 0-2.812-.518-3.82-1.556-1.018-1.037-1.522-2.341-1.522-3.915 0-1.294.261-2.345.77-3.135.514-.799 1.256-1.432 2.222-1.898.98-.476 2.15-.809 3.506-.994l4.386-.433v-.095c0-.956-.356-1.622-1.056-1.989s-1.76-.552-3.168-.552c-.642 0-1.385.114-2.236.347s-1.689.528-2.502.89h-.462v-4.22c.538-.152 1.404-.338 2.602-.552a20.99 20.99 0 0 1 3.621-.314c2.992 0 5.176.5 6.546 1.499s2.055 2.526 2.055 4.577v11.86h-5.428V46.56zm0-2.697v-3.644l-2.212.243a6.99 6.99 0 0 0-1.661.395c-.471.162-.837.419-1.099.752s-.39.79-.39 1.351c0 .818.219 1.38.652 1.689.438.309 1.08.462 1.932.462.471 0 .951-.109 1.446-.328a4.7 4.7 0 0 0 1.332-.918zm-11.794-9.072h-8.192v13.616h-5.428V31.009h13.62v3.782zm-22.036 4.957c0-1.028-.085-1.884-.261-2.564-.172-.69-.41-1.232-.709-1.646-.319-.433-.681-.737-1.09-.904s-.866-.252-1.384-.252c-.485 0-.933.076-1.323.224s-.761.433-1.094.856c-.309.404-.561.952-.747 1.651s-.28 1.584-.28 2.64c0 1.066.09 1.922.266 2.574s.409 1.175.69 1.565c.29.4.652.695 1.089.88s.918.281 1.451.281c.433 0 .88-.095 1.332-.281s.809-.462 1.08-.832c.324-.443.566-.975.738-1.599.157-.633.242-1.494.242-2.593zm5.557-.033c0 2.864-.785 5.114-2.35 6.76-1.57 1.646-3.782 2.469-6.651 2.469-2.845 0-5.057-.828-6.637-2.469-1.574-1.646-2.364-3.901-2.364-6.76 0-2.888.79-5.152 2.364-6.789 1.58-1.637 3.787-2.455 6.637-2.455 2.859 0 5.066.828 6.641 2.469s2.36 3.906 2.36 6.775zm-20.852 8.692h-5.333V37.488l-3.544 7.236h-2.307l-3.544-7.236v10.918h-5.176V31.009h5.904l4.049 8.049 4.044-8.049h5.908v17.398zm-28.32-8.658c0-1.028-.086-1.884-.262-2.564-.171-.69-.409-1.232-.709-1.646-.319-.433-.68-.737-1.089-.904s-.866-.252-1.384-.252c-.485 0-.933.076-1.323.224s-.761.433-1.094.856c-.309.404-.561.952-.747 1.651s-.281 1.584-.281 2.64c0 1.066.09 1.922.266 2.574s.409 1.175.69 1.565a2.57 2.57 0 0 0 1.089.88c.433.185.923.281 1.451.281.433 0 .88-.095 1.332-.281s.809-.462 1.08-.832c.323-.443.566-.975.737-1.599.157-.633.243-1.494.243-2.593zm5.552-.033c0 2.864-.785 5.114-2.35 6.76s-3.782 2.469-6.651 2.469c-2.845 0-5.057-.828-6.636-2.469s-2.364-3.901-2.364-6.76c0-2.888.79-5.152 2.364-6.789s3.792-2.455 6.641-2.455c2.859 0 5.067.828 6.641 2.469s2.355 3.906 2.355 6.775zm-20.871 8.692H61.88V34.853h-5.523v13.554h-5.428V31.009h16.38v17.398z" fill="#56ccf2"/></g><defs><clipPath id="A"><path fill="#fff" transform="translate(.5 .975)" d="M0 0h50.428v48.049H0z"/></clipPath><clipPath id="B"><path fill="#fff" transform="translate(50.928 30.471)" d="M0 0h114.572v18.473H0z"/></clipPath></defs></svg>