<svg xmlns="http://www.w3.org/2000/svg" width="29" height="19" fill="none"><path d="M28.238 8.831L21.413.844a.82.82 0 0 0-.7-.394.82.82 0 0 0-.819.819c0 .238.1.456.262.606l6.181 7.506-6.112 7.369h-.663-1.975l5.775-6.738c.175-.187.244-.394.244-.6a.82.82 0 0 0-.231-.588L16.469.856c-.15-.25-.412-.406-.712-.406h-4.844a.82.82 0 0 0-.819.819c0 .137.019.281.094.381l6.419 7.794-5.469 6.581c-.031.031-.506.706-1.331.706H3.269c-.887 0-1.625-.694-1.625-1.619V3.706c0-.806.738-1.631 1.644-1.631H7.35a.77.77 0 0 0 .819-.806c0-.481-.337-.837-.819-.837L3.25.45C1.306.45 0 2.056 0 3.694v11.419c0 1.762 1.55 3.256 3.25 3.256h6.531a3.33 3.33 0 0 0 .9-.125l.112-.038a3.59 3.59 0 0 0 1.55-1.019L18.5 9.994c.294-.331.331-.812.006-1.169l-5.837-6.75h2.019.669l6.088 7.338-6.4 7.744s0 .006.013.019c-.062.113-.094.244-.094.381a.82.82 0 0 0 .819.819h4.844c.3 0 .563-.163.706-.4l6.9-7.963c.331-.369.294-.85.006-1.181z" fill="#1434cb"/></svg>