<svg width="32" height="20" viewBox="0 0 32 20" fill="none" xmlns="http://www.w3.org/2000/svg">
<g clip-path="url(#clip0_25_4906)">
<path d="M9.97533 19.5001C15.4846 19.5001 19.9507 15.2468 19.9507 10.0001C19.9507 4.75342 15.4846 0.500122 9.97533 0.500122C4.46611 0.500122 0 4.75342 0 10.0001C0 15.2468 4.46611 19.5001 9.97533 19.5001Z" fill="#EB001B"/>
<path d="M22.0246 19.5001C27.5339 19.5001 32 15.2468 32 10.0001C32 4.75342 27.5339 0.500122 22.0246 0.500122C16.5154 0.500122 12.0493 4.75342 12.0493 10.0001C12.0493 15.2468 16.5154 19.5001 22.0246 19.5001Z" fill="#F79E1B"/>
<path d="M15.9977 2.41333C18.3995 4.14663 19.946 6.89339 19.946 9.98113C19.946 13.0689 18.3995 15.8204 15.9977 17.5537C13.5958 15.8204 12.0493 13.0736 12.0493 9.98113C12.0493 6.88865 13.6008 4.14663 15.9977 2.41333Z" fill="#FF5F00"/>
</g>
<defs>
<clipPath id="clip0_25_4906">
<rect width="32" height="19" fill="white" transform="translate(0 0.500122)"/>
</clipPath>
</defs>
</svg>
