<svg xmlns="http://www.w3.org/2000/svg" width="150" height="46" fill="none"><path d="M.563 10.687h7.305v24.176H.563V10.687zm7.549-6.72c0 2.076-1.539 3.757-3.945 3.757-2.305 0-3.844-1.681-3.796-3.757C.324 1.793 1.862.16 4.215.16s3.844 1.632 3.897 3.807zm79.771 26.876c0-2.678 1.784-4.617 4.344-4.617s4.296 1.89 4.296 4.617c0 2.634-1.741 4.568-4.344 4.568-2.513 0-4.296-1.933-4.296-4.568z" fill="#e84f35"/><path d="M20.928 17.035c.628.148 1.4.203 2.46.203 3.913 0 6.325-2.037 6.325-5.461 0-3.078-2.076-4.913-5.745-4.913-1.496 0-2.508.148-3.04.296v9.875zM13.639 1.842c2.268-.4 5.457-.696 9.945-.696 4.536 0 7.773.893 9.945 2.684 2.076 1.687 3.477 4.469 3.477 7.75 0 3.275-1.065 6.058-2.992 7.947-2.513 2.432-6.224 3.527-10.573 3.527-.964 0-1.837-.049-2.513-.148v11.968h-7.289V1.842zm39.488 21.552c-3.86-.049-6.852.893-6.852 3.823 0 1.933 1.256 2.881 2.896 2.881 1.831 0 3.333-1.238 3.812-2.777.096-.394.144-.844.144-1.293v-2.634zm.868 11.469l-.437-2.432h-.144c-1.544 1.939-3.961 2.98-6.756 2.98-4.781 0-7.629-3.571-7.629-7.449 0-6.304 5.505-9.333 13.853-9.284v-.345c0-1.293-.676-3.127-4.296-3.127-2.412 0-4.973.843-6.517 1.84l-1.352-4.864c1.64-.948 4.877-2.136 9.173-2.136 7.869 0 10.377 4.771 10.377 10.478v8.446c0 2.333.096 4.568.335 5.91h-6.607v-.017zm16.995-24.28l3.525 11.918 1.155 4.519h.144l1.06-4.519 2.896-11.918h7.869l-5.5 15.988c-3.381 9.634-5.649 13.506-8.305 15.938-2.555 2.284-5.26 3.078-7.097 3.33l-1.544-6.403c.916-.148 2.076-.597 3.184-1.293 1.107-.597 2.316-1.785 3.04-3.029.24-.345.383-.745.383-1.09 0-.246-.048-.646-.341-1.243l-8.641-22.199h8.172zm52.228 16.486l.192 7.794h-6.373l-.335-3.423h-.144c-.916 1.49-3.136 3.971-7.39 3.971-4.776 0-8.3-3.078-8.3-10.576V10.583h7.384v13.063c0 3.527 1.113 5.658 3.669 5.658 2.028 0 3.183-1.44 3.668-2.629.192-.449.239-1.041.239-1.638V10.583h7.385v16.486h.005zm18.438-3.675c-3.865-.049-6.858.893-6.858 3.823 0 1.933 1.257 2.881 2.897 2.881a4.01 4.01 0 0 0 3.812-2.777 5.57 5.57 0 0 0 .149-1.293v-2.634zm.873 11.469l-.437-2.432h-.143c-1.544 1.939-3.956 2.98-6.757 2.98-4.781 0-7.624-3.571-7.624-7.449 0-6.304 5.5-9.333 13.853-9.284v-.345c0-1.293-.676-3.127-4.296-3.127-2.412 0-4.973.843-6.517 1.84l-1.352-4.864c1.64-.948 4.877-2.136 9.168-2.136 7.869 0 10.377 4.771 10.377 10.478v8.446c0 2.333.095 4.568.335 5.91h-6.607v-.017z" fill="#7b9aa9"/></svg>