<svg xmlns="http://www.w3.org/2000/svg" width="71" height="46" fill="none"><path d="M21.937 45.222c12.115 0 21.937-9.949 21.937-22.222S34.052.778 21.937.778 0 10.727 0 23s9.821 22.222 21.937 22.222z" fill="#eb001b"/><path d="M48.434 45.222c12.115 0 21.936-9.949 21.936-22.222S60.549.778 48.434.778 26.497 10.727 26.497 23s9.821 22.222 21.937 22.222z" fill="#f79e1b"/><path d="M35.18 5.253c5.282 4.055 8.683 10.48 8.683 17.702s-3.401 13.659-8.683 17.714c-5.282-4.054-8.683-10.48-8.683-17.713S29.909 9.308 35.18 5.253z" fill="#ff5f00"/></svg>