<svg width="32" height="32" viewBox="0 0 32 32" fill="none" xmlns="http://www.w3.org/2000/svg">
<path d="M22.0279 4.56965C18.0349 3.81012 13.8883 3.81012 9.89529 4.56965C8.12914 4.94942 5.90227 7.07611 5.51832 8.74708C4.82723 12.0131 4.82723 15.355 5.51832 18.621C5.97906 20.292 8.20593 22.4187 9.89529 22.7984C9.97208 22.7984 10.0489 22.8744 10.0489 22.9503V27.7354C10.0489 27.9632 10.356 28.1151 10.5096 27.8873L12.8133 25.5327C12.8133 25.5327 14.6562 23.6339 14.9633 23.3301C14.9633 23.3301 15.0401 23.2541 15.1169 23.2541C17.4206 23.3301 19.801 23.1022 22.1047 22.7225C23.8709 22.3427 26.0977 20.216 26.4817 18.545C27.1728 15.2791 27.1728 11.9371 26.4817 8.67112C26.0209 7.07611 23.7941 4.94942 22.0279 4.56965ZM22.1047 18.8489C21.7208 19.6084 21.26 20.216 20.4921 20.5958C20.2618 20.6717 20.0314 20.7477 19.801 20.8236C19.4939 20.7477 19.2635 20.6717 19.0332 20.5958C16.5759 19.6084 14.2723 18.2412 12.4293 16.2664C11.4311 15.1271 10.5864 13.8359 9.89529 12.4688C9.58813 11.7852 9.28098 11.1776 9.05061 10.494C8.82024 9.88637 9.20419 9.27875 9.58813 8.82303C9.97207 8.36731 10.4328 8.0635 10.9703 7.83564C11.3543 7.60778 11.7382 7.75968 12.0454 8.0635C12.6597 8.82303 13.274 9.58256 13.7347 10.418C14.0419 10.9497 13.9651 11.5573 13.4276 11.9371C13.274 12.0131 13.1972 12.089 13.0436 12.2409C12.9668 12.3169 12.8133 12.3928 12.7365 12.5447C12.5829 12.7726 12.5829 13.0005 12.6597 13.2283C13.274 14.9752 14.4258 16.3424 16.192 17.1019C16.4991 17.2538 16.7295 17.3298 17.1134 17.3298C17.651 17.2538 17.8813 16.6462 18.2653 16.3424C18.6492 16.0386 19.1099 16.0386 19.5707 16.2664C19.9546 16.4943 20.3386 16.7981 20.7993 17.1019C21.1832 17.4057 21.5672 17.6336 21.9511 17.9374C22.1815 18.0893 22.2583 18.4691 22.1047 18.8489ZM18.8796 13.1524C18.726 13.1524 18.8028 13.1524 18.8796 13.1524C18.5724 13.1524 18.4956 13.0005 18.4188 12.7726C18.4188 12.6207 18.4188 12.3928 18.3421 12.2409C18.2653 11.9371 18.1117 11.6333 17.8045 11.4054C17.651 11.3295 17.4974 11.2535 17.3438 11.1776C17.1134 11.1016 16.9599 11.1016 16.7295 11.1016C16.4991 11.0257 16.4223 10.8738 16.4223 10.6459C16.4223 10.494 16.6527 10.3421 16.8063 10.3421C18.0349 10.418 18.9564 11.1016 19.1099 12.5447C19.1099 12.6207 19.1099 12.7726 19.1099 12.8485C19.1099 13.0005 19.0332 13.1524 18.8796 13.1524ZM18.1117 9.81042C17.7277 9.65851 17.3438 9.50661 16.8831 9.43065C16.7295 9.43065 16.4991 9.3547 16.3456 9.3547C16.1152 9.3547 15.9616 9.20279 16.0384 8.97494C16.0384 8.74708 16.192 8.59517 16.4223 8.67112C17.1902 8.74708 17.8813 8.89898 18.5724 9.2028C19.9546 9.88637 20.7225 11.0257 20.9529 12.5447C20.9529 12.6207 20.9529 12.6966 20.9529 12.7726C20.9529 12.9245 20.9529 13.0764 20.9529 13.3043C20.9529 13.3802 20.9529 13.4562 20.9529 13.5321C20.8761 13.8359 20.3386 13.9119 20.2618 13.5321C20.2618 13.4562 20.185 13.3043 20.185 13.2283C20.185 12.5447 20.0314 11.8612 19.7243 11.2535C19.2635 10.57 18.726 10.1142 18.1117 9.81042ZM22.2583 14.3676C22.0279 14.3676 21.8743 14.1398 21.8743 13.9119C21.8743 13.4562 21.7976 13.0005 21.7208 12.5447C21.4136 10.1142 19.4171 8.13945 17.0367 7.75968C16.6527 7.68373 16.2688 7.68373 15.9616 7.60778C15.7312 7.60778 15.4241 7.60778 15.3473 7.30397C15.2705 7.07611 15.5009 6.84825 15.7312 6.84825C15.808 6.84825 15.8848 6.84825 15.8848 6.84825C19.0332 6.9242 16.0384 6.84825 15.8848 6.84825C19.11 6.9242 21.7976 9.05089 22.3351 12.2409C22.4119 12.7726 22.4887 13.3043 22.4887 13.9119C22.6422 14.1398 22.4887 14.3676 22.2583 14.3676Z" fill="white"/>
</svg>
