<svg xmlns="http://www.w3.org/2000/svg" width="92" height="29" fill="none"><path d="M.616 7.962H5.04v14.125H.616V7.962zm4.573-3.927c0 1.213-.932 2.195-2.39 2.195C1.403 6.231.471 5.248.5 4.035c-.029-1.27.903-2.224 2.328-2.224s2.328.954 2.361 2.224zm48.314 15.703c0-1.565 1.08-2.698 2.631-2.698s2.602 1.104 2.602 2.698c0 1.539-1.055 2.669-2.632 2.669-1.522 0-2.602-1.13-2.602-2.669z" fill="#e84f35"/><path d="M12.95 11.671c.38.086.848.118 1.49.118 2.37 0 3.831-1.19 3.831-3.19 0-1.798-1.258-2.871-3.479-2.871-.906 0-1.519.086-1.841.173v5.77zM8.536 2.794c1.374-.234 3.305-.406 6.024-.406 2.747 0 4.708.522 6.024 1.568 1.258.986 2.106 2.611 2.106 4.528s-.645 3.539-1.812 4.643c-1.522 1.421-3.77 2.061-6.404 2.061a11.43 11.43 0 0 1-1.522-.086v6.992H8.536v-19.3zm23.917 12.592c-2.338-.029-4.15.522-4.15 2.234 0 1.13.761 1.683 1.754 1.683 1.109 0 2.019-.723 2.309-1.622a3.15 3.15 0 0 0 .087-.755v-1.539zm.526 6.701l-.264-1.421h-.087c-.935 1.133-2.399 1.741-4.092 1.741-2.896 0-4.621-2.086-4.621-4.352 0-3.683 3.334-5.453 8.39-5.424v-.202c0-.755-.41-1.827-2.602-1.827-1.461 0-3.012.493-3.947 1.075l-.819-2.842c.993-.554 2.954-1.248 5.556-1.248 4.766 0 6.285 2.787 6.285 6.122v4.935c0 1.363.058 2.669.203 3.453h-4.002v-.01zM43.272 7.901l2.135 6.963.7 2.64h.087l.642-2.64 1.754-6.963h4.766l-3.331 9.341c-2.048 5.629-3.421 7.892-5.03 9.312a8.24 8.24 0 0 1-4.298 1.946l-.935-3.741c.555-.086 1.258-.349 1.928-.755.671-.349 1.403-1.043 1.841-1.77.145-.202.232-.435.232-.637 0-.144-.029-.378-.206-.726l-5.234-12.97h4.95zm31.633 9.633l.116 4.554h-3.86l-.203-2h-.087c-.555.87-1.899 2.32-4.476 2.32-2.893 0-5.027-1.799-5.027-6.179V7.901h4.472v7.632c0 2.061.674 3.306 2.222 3.306 1.229 0 1.928-.842 2.222-1.536.116-.262.145-.608.145-.957V7.901h4.472v9.632h.003zm11.167-2.148c-2.341-.029-4.153.522-4.153 2.234 0 1.13.761 1.683 1.754 1.683 1.112 0 2.019-.723 2.309-1.622a3.15 3.15 0 0 0 .09-.755v-1.539zm.529 6.701l-.264-1.421h-.087c-.935 1.133-2.396 1.741-4.092 1.741-2.896 0-4.618-2.086-4.618-4.352 0-3.683 3.331-5.453 8.391-5.424v-.202c0-.755-.409-1.827-2.602-1.827-1.461 0-3.012.493-3.947 1.075l-.819-2.842c.993-.554 2.954-1.248 5.553-1.248 4.766 0 6.285 2.787 6.285 6.122v4.935c0 1.363.058 2.669.203 3.453H86.6v-.01z" fill="#7c9cac"/></svg>