<svg xmlns="http://www.w3.org/2000/svg" width="134" height="41" fill="none"><path d="M22.386 16.058l-6.993 11.73c-1.145 1.909-1.609 3.171-1.609 5.018v6.342H9.822v-6.342c0-2.032-.309-3.079-1.454-5.018l-6.993-11.73h4.611l3.59 6.219c.804 1.416 1.826 3.325 2.321 4.741.495-1.416 1.516-3.325 2.321-4.71l3.589-6.25h4.58zm10.088 6.096v2.802c-1.362-2.093-3.064-3.14-5.601-3.14-4.394 0-7.953 3.879-7.953 8.836s3.558 8.836 7.953 8.836c2.537 0 4.239-1.047 5.601-3.14v2.802h3.62V22.154h-3.62zm-4.858 13.977c-2.878 0-4.858-2.217-4.858-5.48s1.98-5.48 4.858-5.48c3.032 0 5.168 2.432 5.168 5.48s-2.135 5.48-5.168 5.48zm11.015-2.093h3.868c.371 1.601 1.671 2.524 3.651 2.524 1.764 0 2.692-.677 2.692-1.632 0-1.047-.619-1.57-2.599-2.34l-2.816-1.108c-2.94-1.17-4.363-2.648-4.363-4.988 0-2.956 2.445-4.772 6.436-4.772 3.559 0 6.158 1.909 6.56 5.018h-3.713c-.402-1.293-1.424-1.97-3.094-1.97-1.454 0-2.352.616-2.352 1.57 0 .862.557 1.354 2.321 2.063l2.816 1.108c3.218 1.262 4.611 2.74 4.611 5.142 0 3.14-2.352 4.926-6.591 4.926s-7.148-2.186-7.427-5.542zm20.145-11.884v2.709c1.114-1.693 3.094-3.048 5.229-3.048 3.992 0 6.591 2.771 6.591 7.173v10.16H66.76v-9.544c0-2.771-1.207-4.433-3.528-4.433-2.445 0-4.456 2.001-4.456 5.634v8.344h-3.682V22.154h3.683zm22.775-.339c-4.92 0-8.664 3.972-8.664 8.836 0 4.833 3.744 8.836 8.664 8.836 4.951 0 8.819-4.003 8.819-8.836 0-4.864-3.868-8.836-8.819-8.836zm0 14.131c-2.909 0-5.013-2.278-5.013-5.296 0-3.048 2.104-5.295 5.013-5.295 2.971 0 5.044 2.247 5.044 5.295 0 3.017-2.073 5.296-5.044 5.296z" fill="#283746"/><path d="M105.131 39.148V29.142c0-3.602.402-6.865 1.701-9.667-3.032-.308-6.158-1.509-9.314-3.325l-8.695-4.988 5.632-9.729 8.695 4.988c2.754 1.57 5.168 2.371 7.612 2.371 2.414 0 4.827-.801 7.581-2.371l8.696-4.988 5.631 9.729-8.695 4.988c-5.663 3.263-7.612 6.588-7.612 12.992v10.006h-11.232z" fill="#f5aa00"/></svg>