<svg xmlns="http://www.w3.org/2000/svg" width="42" height="24" fill="none" fill-rule="evenodd"><path d="M19.938 7.215h1.741l-1.072 6.816h-1.741l1.072-6.816zm-6.032 0h2.665c1.696 0 2.136.985 1.951 2.162-.154.983-.854 1.639-1.763 1.872l1.688 2.782h-2.185l-1.266-2.676-.421 2.676h-1.741l1.072-6.816zm1.527 1.355l-.269 1.71h.503c.489 0 .953-.385 1.029-.855s-.26-.856-.75-.856h-.514zm12.454-1.355h1.741l-1.072 6.816h-1.741l1.072-6.816zm3.064 0h3.822l-.234 1.482h-2.081l-.183 1.165h1.979l-.234 1.481h-1.978l-.189 1.205h2.081l-.233 1.482h-3.822l1.072-6.816zm-21.902 0h3.822l-.233 1.482h-2.082l-.183 1.165h1.979l-.233 1.481h-1.978l-.19 1.205h2.081l-.233 1.482H7.977l1.072-6.816zm13.947 0h3.865l-.233 1.482h-2.125l-.186 1.165h1.932l-.234 1.481h-1.932l-.423 2.687h-1.738l1.072-6.816zm12.801 0h2.269c2.703 0 3.318 2.062 3.107 3.411-.303 1.923-2.002 3.405-4.178 3.405h-2.269l1.072-6.816zm1.508 1.482h.36c1.331 0 1.851.946 1.707 1.86-.192 1.226-1.066 1.991-2.207 1.991h-.466l.606-3.851zM.888 6.287h3.22l.382 4.951C6.621 7.517 8.787 3.936 10.969.419h1.05L5.221 14.03H2.857L2.28 8.57C2.137 7.215 1.866 6.64.888 6.493v-.207z" fill="#005198"/><path d="M2.108 3.471l2.745 1.173.239 3.086h.203l2.492-4.257v-.214h-5.68l.001.212z" fill="#f8a600"/><path d="M14.801 18.912c.416 0 .699.386.632.859s-.46.859-.876.859-.699-.384-.632-.859.459-.859.876-.859zm-1.406-3.279h1.126l-.38 2.686c.322-.313.716-.507 1.155-.507.904 0 1.497.878 1.337 1.963s-1.012 1.964-1.916 1.964a1.1 1.1 0 0 1-.983-.544l-.06.426h-1.127l.847-5.989zm3.336 2.27h1.352l.605 1.905 1.174-1.905h1.306l-3.429 5.559h-1.306l1.446-2.344-1.148-3.215zm10.607 3.717l1.817-5.989h1.62l-1.816 5.989h-1.621zm-.724-5.987l-2.15 3.878h-.022l-.162-3.878h-2.783l-.028.26c.91 0 1.103.14 1.217.861l.545 4.867h1.679l3.394-5.988h-1.691zm10.518 5.127l-.399.86h-1.759l3.19-5.978h2.16l.54 5.978h-1.2v.01h-.502l-.038-.87h-1.991zm.569-1.159h1.37l-.125-2.794-1.245 2.794zm-5.226 2.19c-1.144 0-1.902-.363-2.445-.687l.772-1.179c.487.272.869.587 1.748.587.284 0 .555-.073.71-.343.226-.389-.052-.599-.684-.957l-.312-.204c-.939-.641-1.345-1.25-.903-2.314.283-.68 1.028-1.195 2.258-1.195a3.62 3.62 0 0 1 2.107.726l-.887 1.041c-.452-.366-.827-.551-1.257-.551-.341 0-.601.132-.691.31-.168.335.055.562.548.869l.372.237c1.139.719 1.411 1.472 1.125 2.177-.492 1.213-1.453 1.483-2.459 1.483z" fill="#005198"/></svg>