<svg xmlns="http://www.w3.org/2000/svg" width="73" height="30" fill="none" fill-rule="evenodd"><path d="M64.86 12.455c0-.702.554-1.275 1.218-1.275.683 0 1.219.573 1.219 1.275s-.536 1.275-1.219 1.275c-.664.018-1.218-.554-1.218-1.275zm1.218.998c.518 0 .924-.443.924-.979s-.425-.979-.924-.979c-.516 0-.922.443-.922.979s.406.979.922.979zm-.166-.425h-.259v-1.127h.463c.091 0 .203 0 .277.055.091.056.129.166.129.277 0 .13-.075.241-.186.277l.204.5h-.277l-.166-.445h-.186v.463zm0-.629h.148c.056 0 .111 0 .148-.018s.056-.073.056-.129c0-.037-.02-.091-.056-.11s-.11-.02-.148-.02h-.129l-.018.277zM47.407 3.937l-.332 2.181c-.72-.388-1.256-.536-1.828-.536-1.515 0-2.586 1.552-2.586 3.751 0 1.514.72 2.438 1.903 2.438.498 0 1.052-.166 1.736-.518l-.352 2.292c-.757.221-1.236.296-1.809.296-2.198 0-3.565-1.663-3.565-4.324 0-3.585 1.884-6.098 4.599-6.098a3.4 3.4 0 0 1 .924.111l.849.222.461.184zM40.63 5.434c-.056-.018-.129-.018-.204-.018-.665 0-1.052.35-1.681 1.33l.184-1.238h-1.847l-1.256 8.148h2.05c.738-4.988.923-5.838 1.901-5.838h.148c.186-.979.425-1.7.776-2.365l-.073-.018zm-12.209 8.112c-.554.184-.997.276-1.458.276-1.034 0-1.606-.628-1.606-1.791a5.43 5.43 0 0 1 .055-.74l.129-.794.091-.647.887-5.562h2.031l-.239 1.202h1.052l-.295 1.977h-1.035l-.534 3.399-.038.334c0 .425.222.609.703.609.239 0 .405-.018.553-.073l-.295 1.811zM20.37 8.075c0 1.036.48 1.738 1.551 2.274.813.407.96.535.96.905 0 .499-.37.739-1.165.739a5.11 5.11 0 0 1-1.828-.332l-.277 1.885.093.018.37.073.534.075 1.127.073c2.143 0 3.14-.868 3.14-2.716 0-1.109-.406-1.774-1.44-2.272-.849-.407-.942-.5-.942-.888 0-.443.332-.664.997-.664.406 0 .942.055 1.46.128l.295-1.884a12.61 12.61 0 0 0-1.792-.166c-2.309 0-3.102 1.238-3.084 2.752zm43.308 5.562h-1.939l.093-.793c-.554.627-1.145.905-1.883.905-1.496 0-2.475-1.349-2.475-3.381 0-2.717 1.515-5.008 3.325-5.008.793 0 1.385.352 1.958 1.109l.443-2.865h2.012l-1.533 10.034zm-3.01-1.902c.961 0 1.624-1.127 1.624-2.754 0-1.034-.387-1.608-1.09-1.608-.922 0-1.588 1.147-1.588 2.735 0 1.072.351 1.627 1.053 1.627zm-25.783 1.736c-.702.221-1.366.332-2.104.332-2.273 0-3.472-1.257-3.472-3.658 0-2.808 1.513-4.859 3.564-4.859 1.681 0 2.752 1.164 2.752 2.975 0 .591-.075 1.182-.259 2.014h-4.063c-.018.129-.018.186-.018.259 0 .961.609 1.441 1.792 1.441.72 0 1.385-.166 2.124-.516l-.315 2.013zm-1.145-4.86c.02-.166.02-.314.02-.407 0-.666-.352-1.052-.961-1.052-.647 0-1.108.518-1.294 1.459h2.235zm-21.57 5.026h-2.031l1.163-7.705-2.623 7.705H7.294l-.166-7.649-1.238 7.649H3.989L5.577 3.623h2.936l.075 6.208 1.994-6.208h3.177L12.17 13.637zm5.263-3.621l-.461-.037c-1.164 0-1.737.425-1.737 1.238 0 .499.295.832.738.832.813 0 1.423-.832 1.46-2.033zm1.477 3.622h-1.699l.037-.85c-.516.684-1.2.979-2.142.979-1.108 0-1.865-.905-1.865-2.217 0-1.995 1.329-3.141 3.584-3.141.239 0 .534.018.83.055.056-.277.075-.388.075-.536 0-.535-.35-.739-1.311-.739-.572 0-1.238.093-1.7.241l-.257.091-.186.056.277-1.829c1.015-.314 1.699-.443 2.439-.443 1.754 0 2.678.832 2.678 2.384 0 .407-.038.702-.167 1.625l-.405 2.901-.075.518-.055.405-.037.297-.02.203zm32.024-3.622l-.461-.037c-1.163 0-1.755.425-1.755 1.238 0 .499.297.832.74.832.831 0 1.44-.832 1.477-2.033zm1.478 3.622h-1.699l.037-.85c-.518.684-1.201.979-2.142.979-1.108 0-1.866-.905-1.866-2.217 0-1.995 1.33-3.141 3.583-3.141a7.19 7.19 0 0 1 .831.055c.055-.277.073-.388.073-.536 0-.535-.35-.739-1.311-.739-.572 0-1.238.093-1.699.241l-.295.073-.186.056.277-1.829c1.017-.314 1.7-.443 2.439-.443 1.754 0 2.678.832 2.678 2.384 0 .405-.037.702-.166 1.625l-.425 2.883-.056.518-.055.405-.037.277.018.259zm5.708-8.204c-.056-.018-.129-.018-.204-.018-.665 0-1.053.35-1.681 1.33l.186-1.238h-1.848l-1.256 8.148h2.05c.738-4.988.922-5.838 1.901-5.838h.149c.184-.979.443-1.7.775-2.365l-.073-.018z" fill="#fd0c15"/><path d="M49.549 21.565c0 1.848-.572 2.938-1.477 2.938-.665.018-1.053-.72-1.053-1.811 0-1.293.591-2.772 1.515-2.772.757 0 1.015.795 1.015 1.645zm2.014.018c0-2.051-1.017-3.658-2.918-3.658-2.198 0-3.62 1.94-3.62 4.804 0 2.051.849 3.733 2.918 3.733 2.087 0 3.62-1.479 3.62-4.878zm-5.891-5.081l-.315 2.18c-.682-.387-1.163-.536-1.699-.536-1.422 0-2.419 1.553-2.419 3.751 0 1.515.665 2.44 1.773 2.44.48 0 .997-.168 1.624-.518l-.332 2.291c-.702.222-1.164.295-1.699.295-2.05 0-3.343-1.662-3.343-4.324 0-3.584 1.772-6.097 4.304-6.097.332 0 .609.037.849.111l.775.221c.259.075.314.093.481.186zm-12.615 1.477c-.055-.018-.128-.018-.203-.018-.627 0-.979.352-1.57 1.33l.184-1.237h-1.717l-1.165 8.148h1.903c.684-4.989.868-5.839 1.774-5.839.055 0 .055 0 .148.018a8.75 8.75 0 0 1 .72-2.365l-.075-.037zm24.895 8.149h-1.81l.093-.794c-.517.628-1.072.905-1.773.905-1.385 0-2.308-1.349-2.308-3.381 0-2.716 1.422-5.008 3.102-5.008.738 0 1.311.352 1.828 1.127l.425-2.863h1.885l-1.442 10.014zm-2.825-1.921c.906 0 1.515-1.127 1.515-2.754 0-1.034-.352-1.588-1.015-1.588-.868 0-1.478 1.127-1.478 2.734 0 1.072.332 1.608.979 1.608zM15.18 26.091c-.647.222-1.274.333-1.958.333-2.124 0-3.232-1.256-3.232-3.66 0-2.789 1.422-4.859 3.323-4.859 1.571 0 2.568 1.145 2.568 2.975 0 .591-.074 1.182-.24 2.014h-3.786c-.018.13-.018.186-.018.259 0 .943.572 1.423 1.681 1.423.683 0 1.292-.166 1.976-.516l-.314 2.032zm-1.072-4.86l.018-.405c0-.666-.332-1.054-.904-1.054-.61 0-1.035.518-1.219 1.459h2.105zm23.751 4.86c-.647.222-1.274.333-1.958.333-2.142 0-3.251-1.256-3.251-3.66 0-2.789 1.423-4.859 3.325-4.859 1.57 0 2.586 1.145 2.586 2.975 0 .591-.075 1.182-.24 2.014h-3.786c-.018.13-.018.186-.018.259 0 .943.572 1.423 1.681 1.423.684 0 1.292-.166 1.976-.516l-.314 2.032zm-1.072-4.86c.018-.166.018-.314.018-.405 0-.666-.332-1.054-.904-1.054-.61 0-1.035.518-1.219 1.459h2.105zm27.667 4.86c-.665.222-1.292.333-1.958.333-2.124 0-3.25-1.256-3.25-3.66 0-2.789 1.422-4.859 3.343-4.859 1.57 0 2.567 1.145 2.567 2.975 0 .591-.075 1.182-.241 2.014h-3.786c-.018.13-.018.186-.018.259 0 .943.572 1.423 1.681 1.423.684 0 1.292-.166 1.976-.516l-.314 2.032zm-1.072-4.86l.018-.405c0-.666-.332-1.054-.904-1.054-.61 0-1.034.518-1.219 1.459h2.105zM9.528 18.35c-.368-.259-.886-.461-1.588-.461-.776 0-1.385.166-1.385.978 0 1.442 2.807.906 2.807 4.01 0 2.827-1.847 3.567-3.527 3.567-.738 0-1.607-.241-2.235-.536l.461-2.07c.388.352 1.146.591 1.792.591.609 0 1.533-.166 1.533-1.22 0-1.643-2.807-1.034-2.807-3.917 0-2.641 1.644-3.418 3.232-3.418.886 0 1.737.129 2.216.461l-.499 2.015zm11.23 7.741c-.388.184-.924.314-1.7.314-1.661 0-2.696-1.662-2.696-3.695 0-2.661 1.496-4.767 3.693-4.767.481 0 1.219.203 1.792.536l-.423 1.94c-.408-.277-.833-.443-1.276-.443-1.015 0-1.754.941-1.754 2.605 0 .961.536 1.756 1.367 1.756.498 0 .848-.111 1.274-.352l-.277 2.106zm7.128-2.051l-.239 2.106h-1.828l.148-1.311h-.018c-.572.888-1.163 1.497-2.216 1.497-1.145 0-1.773-1.22-1.773-2.79 0-.554.037-.85.148-1.7l.518-3.77h2.05l-.554 3.788c-.056.407-.129.813-.129 1.238 0 .48.221.961.775.923.831 0 1.33-1.016 1.478-2.216l.572-3.733h1.976l-.906 5.967zm38.469 2.015h-.314v-1.349h-.443v-.295h1.2v.295h-.443v1.349zm2.051 0h-.295v-1.368l-.277 1.368h-.295l-.277-1.368v1.368h-.295V24.41h.462l.259 1.293h.018l.259-1.293h.443v1.645z" fill="#f3ae12"/></svg>