<svg xmlns="http://www.w3.org/2000/svg" width="37" height="37" fill="none"><rect x=".823" y=".4" width="35.764" height="35.764" rx="9.644" fill="#fff"/><path d="M12.514 25.159c0 .701.6 1.272 1.338 1.272h1.529v3.604c0 .913.769 1.658 1.715 1.658s1.714-.742 1.714-1.658v-3.607h2.669v3.604c0 .913.769 1.658 1.715 1.658s1.715-.742 1.715-1.658v-3.604h1.529c.738 0 1.338-.572 1.338-1.272v-11.83H12.514v11.833zM23.728 7.195l1.41-1.946c.082-.114.063-.266-.047-.341s-.267-.036-.349.078l-1.463 2.024a9.01 9.01 0 0 0-3.165-.563 9.01 9.01 0 0 0-3.165.563l-1.463-2.021c-.082-.114-.239-.153-.348-.078s-.129.222-.047.341l1.41 1.946c-2.242.994-3.812 2.877-4.013 5.077h15.261c-.207-2.203-1.78-4.086-4.019-5.08zm-6.836 3.068c-.167 0-.33-.047-.469-.136s-.247-.214-.311-.361a.77.77 0 0 1-.048-.465c.033-.156.113-.3.231-.412a.86.86 0 0 1 .433-.22c.164-.031.334-.015.488.046s.286.164.379.297a.78.78 0 0 1 .142.447.79.79 0 0 1-.248.569.87.87 0 0 1-.597.236zm6.544 0c-.167 0-.33-.047-.469-.136s-.247-.214-.311-.361a.77.77 0 0 1-.048-.465c.033-.156.113-.3.231-.412a.86.86 0 0 1 .433-.22c.164-.031.334-.015.488.046s.286.164.379.297a.78.78 0 0 1 .142.447.79.79 0 0 1-.248.569.87.87 0 0 1-.597.236zm7.015 3.015c-.948 0-1.714.742-1.714 1.658v6.478c0 .913.769 1.658 1.714 1.658s1.715-.742 1.715-1.658v-6.481c.003-.916-.763-1.655-1.715-1.655zm-20.68 0c-.948 0-1.714.742-1.714 1.658v6.478c0 .913.769 1.658 1.714 1.658s1.715-.742 1.715-1.658v-6.481c0-.916-.769-1.655-1.715-1.655z" fill="#00a046"/></svg>