<svg xmlns="http://www.w3.org/2000/svg" width="37" height="37" fill="none"><rect x=".823" y=".895" width="35.783" height="35.783" rx="9.649" fill="#fff"/><path d="M26.243 31.13c-1.461 1.416-3.056 1.193-4.592.522-1.625-.686-3.116-.716-4.831 0-2.147.924-3.28.656-4.562-.522-7.276-7.499-6.202-18.92 2.058-19.337 2.013.104 3.414 1.103 4.592 1.193 1.759-.358 3.444-1.387 5.323-1.252 2.251.179 3.951 1.073 5.069 2.684-4.652 2.788-3.548 8.916.716 10.63-.85 2.236-1.953 4.458-3.787 6.098l.015-.015zm-7.484-19.427c-.224-3.325 2.475-6.068 5.576-6.337.432 3.847-3.489 6.709-5.576 6.337z" fill="#1c1c1c"/></svg>