<svg xmlns="http://www.w3.org/2000/svg" width="120" height="41" fill="none"><path d="M119.333 35.571c0 2.132-1.527 3.858-3.417 3.858H4.088C2.2 39.43.667 37.703.667 35.571V4.802C.667 2.672 2.2.939 4.088.939h111.827c1.891 0 3.418 1.733 3.418 3.863v30.769z" fill="#000"/><path d="M115.556.985c2.057 0 3.732 1.884 3.732 4.199v30c0 2.315-1.675 4.199-3.732 4.199H4.444c-2.058 0-3.732-1.884-3.732-4.199v-30C.712 2.869 2.387.985 4.444.985h111.112zm0-.801H4.444C2.001.184 0 2.435 0 5.184v30c0 2.749 2.001 5 4.444 5h111.112c2.443 0 4.444-2.251 4.444-5v-30c0-2.749-2.001-5-4.444-5z" fill="#a6a6a6"/><path d="M25.901 19.968c-.032-3.223 2.877-4.791 3.01-4.864-1.647-2.203-4.201-2.504-5.098-2.528-2.145-.207-4.225 1.177-5.317 1.177-1.114 0-2.796-1.157-4.61-1.123-2.333.033-4.516 1.272-5.713 3.196-2.471 3.923-.628 9.688 1.739 12.859 1.184 1.553 2.568 3.287 4.378 3.226 1.772-.067 2.434-1.036 4.572-1.036 2.118 0 2.74 1.036 4.587.997 1.901-.028 3.098-1.56 4.241-3.127 1.368-1.78 1.918-3.533 1.94-3.623-.045-.014-3.693-1.291-3.729-5.154zm-3.489-9.478c.953-1.093 1.605-2.58 1.424-4.089-1.379.056-3.104.875-4.097 1.944-.879.942-1.664 2.486-1.461 3.938 1.549.106 3.14-.717 4.134-1.793zm25.273 18.939h-2.019l-1.106-3.255h-3.843l-1.053 3.255h-1.965l3.808-11.081h2.352l3.827 11.081zm-3.458-4.62l-1-2.893c-.106-.296-.304-.992-.596-2.087h-.035l-.562 2.087-.982 2.893h3.176zm13.25.526c0 1.359-.392 2.433-1.176 3.221-.702.702-1.574 1.053-2.615 1.053-1.123 0-1.931-.378-2.422-1.134h-.036v4.209h-1.895v-8.615l-.07-2.63h1.667l.106 1.266h.035c.632-.954 1.591-1.43 2.878-1.43a3.25 3.25 0 0 1 2.518 1.117c.674.746 1.01 1.727 1.01 2.944zm-1.931.065c0-.778-.187-1.419-.562-1.923-.41-.526-.96-.789-1.65-.789-.467 0-.892.147-1.272.436a2 2 0 0 0-.746 1.143c-.059.22-.088.4-.088.541v1.332c0 .581.19 1.072.571 1.472s.875.6 1.483.6c.714 0 1.269-.258 1.667-.773s.597-1.195.597-2.039zm11.742-.065c0 1.359-.392 2.433-1.177 3.221-.701.702-1.573 1.053-2.614 1.053-1.123 0-1.931-.378-2.421-1.134h-.036v4.209h-1.895v-8.615l-.07-2.63h1.667l.106 1.266h.035c.631-.954 1.59-1.43 2.878-1.43 1.005 0 1.845.372 2.519 1.117s1.008 1.727 1.008 2.944zm-1.931.065c0-.778-.188-1.419-.563-1.923-.41-.526-.958-.789-1.649-.789-.468 0-.892.147-1.273.436s-.628.672-.745 1.143c-.058.22-.088.4-.088.541v1.332a2.06 2.06 0 0 0 .569 1.472c.379.4.875.6 1.485.6.714 0 1.269-.258 1.667-.773s.597-1.195.597-2.039zm12.9.921c0 .943-.349 1.709-1.051 2.301-.771.647-1.843.97-3.222.97-1.273 0-2.293-.23-3.066-.69l.439-1.48c.832.471 1.745.708 2.74.708.714 0 1.269-.152 1.668-.453a1.44 1.44 0 0 0 .596-1.211c0-.45-.164-.828-.492-1.136s-.871-.593-1.632-.857c-2.071-.724-3.106-1.784-3.106-3.177 0-.911.363-1.658 1.089-2.239s1.689-.873 2.896-.873c1.076 0 1.971.176 2.685.526l-.474 1.447c-.667-.34-1.42-.509-2.264-.509-.667 0-1.187.154-1.561.46-.316.274-.474.608-.474 1.003a1.32 1.32 0 0 0 .543 1.085c.316.263.889.548 1.721.855 1.018.384 1.765.833 2.246 1.347s.718 1.155.718 1.921zm6.266-3.55h-2.089v3.879c0 .987.368 1.48 1.106 1.48.339 0 .62-.027.842-.082l.052 1.348c-.373.131-.865.197-1.474.197-.749 0-1.333-.214-1.756-.641s-.632-1.146-.632-2.154V22.77h-1.244v-1.332h1.244v-1.463l1.861-.526v1.989h2.089v1.334zm9.424 2.597c0 1.228-.375 2.237-1.124 3.025-.785.812-1.827 1.217-3.125 1.217-1.252 0-2.248-.389-2.991-1.167s-1.115-1.759-1.115-2.943c0-1.238.382-2.252 1.149-3.041s1.798-1.184 3.097-1.184c1.252 0 2.259.389 3.019 1.167.727.755 1.09 1.73 1.09 2.925zm-1.966.058c0-.737-.168-1.369-.508-1.896a1.89 1.89 0 0 0-1.701-.956 1.92 1.92 0 0 0-1.738.956c-.34.528-.508 1.17-.508 1.929 0 .737.168 1.369.508 1.895.41.638.982.956 1.721.956.724 0 1.292-.325 1.701-.973.349-.537.525-1.176.525-1.912zM100.108 23c-.188-.033-.388-.049-.598-.049-.667 0-1.182.236-1.545.708-.316.416-.474.943-.474 1.578v4.192h-1.894l.018-5.474-.071-2.515h1.651l.069 1.529h.052a2.74 2.74 0 0 1 .948-1.266 2.39 2.39 0 0 1 1.37-.428c.175 0 .333.012.474.032V23zm8.475 2.055c0 .318-.022.586-.069.805h-5.686c.023.789.297 1.393.825 1.809.479.372 1.099.559 1.86.559.842 0 1.61-.126 2.3-.378l.297 1.232c-.807.33-1.76.494-2.859.494-1.323 0-2.361-.365-3.117-1.093s-1.131-1.707-1.131-2.934c0-1.205.351-2.208 1.054-3.008.736-.854 1.731-1.282 2.982-1.282 1.229 0 2.16.427 2.792 1.282.501.679.752 1.518.752 2.515zm-1.807-.46c.012-.526-.111-.981-.368-1.365-.328-.494-.832-.74-1.51-.74-.62 0-1.124.241-1.509.724-.315.384-.503.844-.561 1.381h3.948v.001zm-5.635-12.129h-.907v-.599h.839c.234 0 .419-.033.556-.1a.61.61 0 0 0 .292-.289c.058-.122.086-.266.086-.431a.89.89 0 0 0-.1-.415.73.73 0 0 0-.31-.321 1.16 1.16 0 0 0-.574-.126 1.14 1.14 0 0 0-.529.121.96.96 0 0 0-.378.321c-.091.133-.137.284-.137.452h-.843c0-.347.085-.645.255-.894s.403-.447.689-.584.603-.205.943-.205a2.48 2.48 0 0 1 .766.11c.225.073.42.175.578.316s.278.308.36.515a1.83 1.83 0 0 1 .128.71c0 .193-.04.375-.119.547a1.38 1.38 0 0 1-.341.457c-.149.133-.33.231-.543.305a2.14 2.14 0 0 1-.711.11zm-.907-.368h.907a2.74 2.74 0 0 1 .78.1 1.51 1.51 0 0 1 .565.284 1.18 1.18 0 0 1 .342.468c.079.182.118.393.118.631a1.77 1.77 0 0 1-.141.72c-.094.213-.222.389-.392.536s-.374.259-.611.337a2.48 2.48 0 0 1-.779.116c-.319 0-.629-.063-.93-.189a1.75 1.75 0 0 1-.743-.584c-.194-.266-.292-.605-.292-1.015h.843c0 .172.047.335.141.489a1.06 1.06 0 0 0 .392.373c.17.095.366.142.588.142a1.25 1.25 0 0 0 .592-.126.86.86 0 0 0 .356-.336.89.89 0 0 0 .123-.458c0-.214-.037-.386-.11-.515s-.185-.224-.337-.284-.34-.095-.574-.095h-.839v-.594zm-7.724 1.546l2.274-4.149h.848v5.69h-.848v-4.149l-2.274 4.149h-.838v-5.69h.838v4.149zm-3.395-4.149v5.69h-.848v-5.69h.848zm1.654 0v.789h-4.124v-.789h4.124zm-8.139 4.149l2.274-4.149h.848v5.69h-.848v-4.149l-2.274 4.149h-.839v-5.69h.839v4.149zm-6.572-.936L74.19 9.495h1.016l1.276 2.356h.984l-.123.857h-1.285zm.46-.1l-1.431 2.577h-1.066l1.964-3.281.533.705zm1.381-3.113v5.69h-.843v-5.69h.843zm2.876 0l-1.868 3.213h-1.285l-.132-.857h.989l1.276-2.356h1.021zm-.902 5.69l-1.435-2.577.542-.705 1.96 3.281h-1.066zm-7.479-.974v-2.929a1.34 1.34 0 0 0-.118-.584.84.84 0 0 0-.346-.389c-.155-.091-.346-.137-.574-.137-.213 0-.4.042-.561.126a.98.98 0 0 0-.374.331.8.8 0 0 0-.132.442h-.843a1.45 1.45 0 0 1 .137-.605c.091-.2.222-.38.392-.542s.38-.294.62-.389.513-.147.811-.147c.359 0 .674.07.948.21a1.51 1.51 0 0 1 .647.636c.155.284.237.633.237 1.057v2.65a4.79 4.79 0 0 0 .041.605c.03.214.074.398.132.552v.084h-.88c-.043-.112-.076-.261-.1-.447a4.15 4.15 0 0 1-.036-.526zm.146-2.477l.009.684h-.852a2.74 2.74 0 0 0-.643.068 1.35 1.35 0 0 0-.474.194c-.128.088-.225.198-.292.331s-.1.282-.1.458.035.342.105.489a.83.83 0 0 0 .314.352c.139.087.317.126.524.126a1.24 1.24 0 0 0 .684-.189 1.5 1.5 0 0 0 .469-.463c.118-.182.182-.359.191-.531l.36.468c-.021.147-.079.31-.173.489a2.29 2.29 0 0 1-.378.515 2.03 2.03 0 0 1-.556.405c-.213.105-.453.158-.72.158-.334 0-.627-.075-.88-.226a1.57 1.57 0 0 1-.583-.605 1.79 1.79 0 0 1-.205-.857c0-.305.052-.573.155-.805s.252-.429.447-.584a2.03 2.03 0 0 1 .702-.357 3.23 3.23 0 0 1 .916-.121h.98zm-5.464-2.239v5.69h-.848v-5.69h.848zm1.654 0v.789h-4.124v-.789h4.124zm-5.706 2.466v.789h-2.607v-.789h2.607zm-2.429-2.466v5.69h-.843v-5.69h.843zm3.113 0v5.69h-.848v-5.69h.848zm-6.198 4.716v-2.929a1.34 1.34 0 0 0-.118-.584.84.84 0 0 0-.346-.389c-.155-.091-.346-.137-.574-.137a1.19 1.19 0 0 0-.56.126.99.99 0 0 0-.374.331.8.8 0 0 0-.132.442h-.843a1.45 1.45 0 0 1 .137-.605c.091-.2.222-.38.392-.542a1.9 1.9 0 0 1 .62-.389 2.15 2.15 0 0 1 .811-.147c.358 0 .675.07.948.21s.492.352.647.636.237.633.237 1.057v2.65a4.79 4.79 0 0 0 .041.605c.03.214.075.398.132.552v.084h-.88c-.043-.112-.076-.261-.1-.447a4.15 4.15 0 0 1-.037-.526zm.146-2.477l.009.684h-.852a2.74 2.74 0 0 0-.642.068 1.35 1.35 0 0 0-.474.194c-.128.088-.225.198-.292.331s-.1.282-.1.458.035.342.105.489a.83.83 0 0 0 .314.352c.139.087.317.126.524.126a1.24 1.24 0 0 0 .684-.189 1.5 1.5 0 0 0 .469-.463c.119-.182.182-.359.191-.531l.36.468c-.021.147-.079.31-.173.489a2.29 2.29 0 0 1-.378.515 2.03 2.03 0 0 1-.556.405c-.213.105-.453.158-.72.158-.334 0-.627-.075-.88-.226a1.57 1.57 0 0 1-.583-.605 1.79 1.79 0 0 1-.205-.857c0-.305.052-.573.155-.805s.252-.429.447-.584a2.03 2.03 0 0 1 .702-.357 3.23 3.23 0 0 1 .916-.121h.98zm-6.08.947h-1.618l-.009-.778h1.322c.261 0 .479-.03.652-.089s.308-.149.397-.268.132-.266.132-.442a.78.78 0 0 0-.078-.358c-.049-.105-.123-.191-.223-.258a1.01 1.01 0 0 0-.374-.152 2.22 2.22 0 0 0-.515-.053h-1.08v4.901h-.843v-5.69h1.923a3.44 3.44 0 0 1 .843.095c.252.063.466.16.643.289s.316.288.41.484a1.59 1.59 0 0 1 .141.694 1.32 1.32 0 0 1-.091.489 1.2 1.2 0 0 1-.269.41 1.42 1.42 0 0 1-.437.294c-.173.077-.372.121-.597.142l-.328.289zm0 2.503h-1.923l.419-.789h1.504c.234 0 .428-.033.583-.1a.75.75 0 0 0 .346-.295c.079-.13.118-.284.118-.463a.85.85 0 0 0-.118-.457c-.078-.126-.191-.228-.346-.294s-.349-.105-.583-.105h-1.281l.009-.778h1.6l.305.294c.27.024.5.102.688.231s.331.294.428.494a1.44 1.44 0 0 1 .146.642c0 .266-.044.501-.132.705a1.31 1.31 0 0 1-.374.51c-.164.133-.363.235-.597.305a2.77 2.77 0 0 1-.793.1zm-4.484-.973v-2.929a1.34 1.34 0 0 0-.119-.584.84.84 0 0 0-.346-.389c-.155-.091-.346-.137-.574-.137-.213 0-.399.042-.56.126a.98.98 0 0 0-.374.331.8.8 0 0 0-.132.442h-.843a1.45 1.45 0 0 1 .137-.605c.091-.2.222-.38.392-.542s.38-.294.62-.389.513-.147.811-.147a2.05 2.05 0 0 1 .948.21c.276.14.492.352.647.636s.237.633.237 1.057v2.65a4.79 4.79 0 0 0 .041.605c.03.214.074.398.132.552v.084h-.88c-.042-.112-.076-.261-.1-.447a4.15 4.15 0 0 1-.036-.526zm.146-2.477l.009.684h-.852a2.74 2.74 0 0 0-.643.068 1.35 1.35 0 0 0-.474.194c-.128.088-.225.198-.292.331s-.1.282-.1.458.035.342.105.489a.83.83 0 0 0 .314.352c.139.087.318.126.524.126a1.24 1.24 0 0 0 .684-.189 1.5 1.5 0 0 0 .469-.463c.118-.182.182-.359.191-.531l.36.468c-.021.147-.079.31-.173.489a2.29 2.29 0 0 1-.378.515 2.03 2.03 0 0 1-.556.405c-.213.105-.453.158-.72.158-.334 0-.627-.075-.88-.226a1.57 1.57 0 0 1-.583-.605 1.79 1.79 0 0 1-.205-.857c0-.305.052-.573.155-.805s.252-.429.447-.584a2.03 2.03 0 0 1 .702-.357 3.23 3.23 0 0 1 .916-.121h.98zm-6.435-.225h-.788v-.647h.756c.334 0 .605-.054.811-.163s.357-.259.451-.452.141-.415.141-.668a1.42 1.42 0 0 0-.155-.663c-.103-.203-.263-.365-.478-.484s-.494-.184-.834-.184c-.255 0-.486.056-.693.168s-.371.261-.492.457-.182.415-.182.668h-.88a2.09 2.09 0 0 1 .178-.878 1.94 1.94 0 0 1 .488-.668 2.16 2.16 0 0 1 .715-.426c.273-.098.562-.147.866-.147a3.09 3.09 0 0 1 .966.142 2.03 2.03 0 0 1 .743.41 1.78 1.78 0 0 1 .474.678c.109.27.164.584.164.941a1.74 1.74 0 0 1-.16.741c-.107.231-.258.435-.456.61a2.2 2.2 0 0 1-.711.415 2.75 2.75 0 0 1-.925.147zm-.788-.447h.788c.374 0 .706.044.998.131a2.05 2.05 0 0 1 .738.384 1.61 1.61 0 0 1 .456.626 2.11 2.11 0 0 1 .16.847c0 .358-.061.675-.182.952s-.287.512-.506.705a2.19 2.19 0 0 1-.779.436 3.12 3.12 0 0 1-.98.147c-.286 0-.568-.042-.848-.126a2.33 2.33 0 0 1-.752-.4c-.225-.182-.406-.414-.542-.694s-.2-.617-.2-1.01h.88a1.4 1.4 0 0 0 .182.705 1.42 1.42 0 0 0 .515.515c.219.129.474.189.766.189.334 0 .617-.06.848-.179a1.29 1.29 0 0 0 .533-.5 1.4 1.4 0 0 0 .187-.72c0-.235-.033-.438-.1-.61a1.03 1.03 0 0 0-.287-.431 1.15 1.15 0 0 0-.469-.247 2.24 2.24 0 0 0-.647-.084h-.756v-.636z" fill="#fff"/></svg>