<svg xmlns="http://www.w3.org/2000/svg" width="120" height="41" fill="none"><path d="M115.556 40.184H4.444c-2.443 0-4.444-2.251-4.444-5v-30c0-2.749 2.001-5 4.444-5h111.112c2.443 0 4.444 2.251 4.444 5v30c0 2.749-2.001 5-4.444 5z" fill="#000"/><path d="M115.556.985c2.057 0 3.732 1.884 3.732 4.199v30c0 2.315-1.675 4.199-3.732 4.199H4.444c-2.058 0-3.732-1.884-3.732-4.199v-30C.712 2.869 2.387.985 4.444.985h111.112zm0-.801H4.444C2.001.184 0 2.435 0 5.184v30c0 2.749 2.001 5 4.444 5h111.112c2.443 0 4.444-2.251 4.444-5v-30c0-2.749-2.001-5-4.444-5z" fill="#a6a6a6"/><path d="M99.58 12.466h-.908v-.6h.84c.234 0 .42-.033.557-.1s.234-.166.292-.289a1 1 0 0 0 .086-.431.89.89 0 0 0-.1-.415.73.73 0 0 0-.31-.321c-.143-.081-.335-.126-.575-.126a1.14 1.14 0 0 0-.529.121 1 1 0 0 0-.379.321.78.78 0 0 0-.137.452h-.844a1.54 1.54 0 0 1 .256-.894 1.73 1.73 0 0 1 .689-.584 2.18 2.18 0 0 1 .945-.205 2.46 2.46 0 0 1 .766.11c.229.07.422.175.58.316a1.34 1.34 0 0 1 .36.515c.082.206.128.44.128.71 0 .193-.039.375-.118.547s-.194.324-.343.457-.33.231-.543.305a2.14 2.14 0 0 1-.712.111zm-.908-.368h.908a2.76 2.76 0 0 1 .781.1 1.52 1.52 0 0 1 .566.284 1.18 1.18 0 0 1 .342.468c.079.182.118.393.118.631a1.77 1.77 0 0 1-.141.72c-.094.213-.222.389-.392.536a1.77 1.77 0 0 1-.612.337 2.47 2.47 0 0 1-.78.116 2.39 2.39 0 0 1-.931-.189 1.75 1.75 0 0 1-.744-.584c-.195-.266-.292-.605-.292-1.015h.844c0 .172.047.335.142.489s.225.279.392.373a1.19 1.19 0 0 0 .589.142c.237 0 .435-.042.593-.126a.86.86 0 0 0 .356-.336.89.89 0 0 0 .123-.458c0-.214-.036-.386-.109-.515a.64.64 0 0 0-.338-.284 1.49 1.49 0 0 0-.575-.095h-.84v-.594zm-7.735 1.546l2.277-4.149h.849v5.69h-.849v-4.149l-2.277 4.149h-.84v-5.69h.84v4.149zm-3.4-4.149v5.69h-.849v-5.69h.849zm1.657 0v.789h-4.13v-.789h4.13zm-8.151 4.149l2.277-4.149h.849v5.69h-.849v-4.149l-2.277 4.149h-.84v-5.69h.84v4.149zm-6.58-.936l-1.871-3.213h1.018l1.278 2.356h.986l-.123.857h-1.287zm.461-.1l-1.433 2.577h-1.068l1.967-3.281.534.705zm1.383-3.113v5.69h-.844v-5.69h.844zm2.88 0l-1.871 3.213h-1.287l-.132-.857h.99l1.278-2.356h1.022zm-.904 5.69l-1.437-2.577.543-.705 1.962 3.281h-1.068zm-7.49-.974v-2.929a1.34 1.34 0 0 0-.119-.584.84.84 0 0 0-.347-.389 1.12 1.12 0 0 0-.575-.137c-.213 0-.4.042-.561.126a1.01 1.01 0 0 0-.374.331.8.8 0 0 0-.132.442h-.844a1.45 1.45 0 0 1 .137-.605c.091-.2.222-.38.392-.542a1.9 1.9 0 0 1 .621-.389c.243-.098.514-.147.812-.147.359 0 .675.07.949.21a1.51 1.51 0 0 1 .648.636c.155.284.237.633.237 1.057v2.65a4.77 4.77 0 0 0 .041.605c.03.214.075.398.132.552v.084h-.881a2.04 2.04 0 0 1-.1-.447 4.15 4.15 0 0 1-.037-.526zm.146-2.477l.009.684h-.853a2.75 2.75 0 0 0-.644.068c-.189.042-.347.107-.475.195a.87.87 0 0 0-.292.331c-.067.13-.1.282-.1.457s.035.342.105.489.175.265.315.352.318.126.525.126c.259 0 .487-.063.684-.189s.354-.28.47-.463.183-.359.192-.531l.361.468c-.021.147-.079.31-.174.489a2.29 2.29 0 0 1-.379.515 2.03 2.03 0 0 1-.557.405c-.213.105-.453.158-.721.158-.335 0-.628-.075-.881-.226s-.444-.352-.584-.605-.205-.542-.205-.857c0-.305.052-.573.155-.804s.252-.43.447-.584.429-.277.703-.358.579-.121.917-.121h.981zm-5.471-2.239v5.69h-.849v-5.69h.849zm1.657 0v.789h-4.13v-.789h4.13zm-5.714 2.466v.789H58.8v-.789h2.61zm-2.432-2.466v5.69h-.844v-5.69h.844zm3.117 0v5.69h-.849v-5.69h.849zm-6.207 4.716v-2.929a1.34 1.34 0 0 0-.119-.584.84.84 0 0 0-.347-.389 1.12 1.12 0 0 0-.575-.137c-.213 0-.4.042-.561.126a1.01 1.01 0 0 0-.374.331.8.8 0 0 0-.132.442h-.844a1.45 1.45 0 0 1 .137-.605c.091-.2.222-.38.392-.542a1.9 1.9 0 0 1 .621-.389c.243-.098.514-.147.812-.147.359 0 .675.07.949.21a1.5 1.5 0 0 1 .648.636c.158.281.237.633.237 1.057v2.65a4.77 4.77 0 0 0 .041.605c.03.214.075.398.132.552v.084h-.881a2.04 2.04 0 0 1-.1-.447 4.13 4.13 0 0 1-.036-.526zm.146-2.477l.009.684h-.853a2.75 2.75 0 0 0-.643.068 1.35 1.35 0 0 0-.475.195.87.87 0 0 0-.292.331c-.067.13-.1.282-.1.457s.035.342.105.489.175.265.315.352a1.02 1.02 0 0 0 .525.126c.259 0 .487-.063.684-.189s.354-.28.47-.463.183-.359.192-.531l.361.468c-.021.147-.079.31-.173.489a2.29 2.29 0 0 1-.379.515 2.03 2.03 0 0 1-.557.405c-.213.105-.453.158-.721.158-.335 0-.628-.075-.881-.226s-.444-.352-.584-.605-.205-.542-.205-.857c0-.305.052-.573.155-.804s.253-.43.447-.584.429-.277.703-.358.579-.121.917-.121h.981zm-6.088.947h-1.62l-.009-.778h1.323c.262 0 .479-.03.653-.089a.79.79 0 0 0 .397-.268.72.72 0 0 0 .132-.442.78.78 0 0 0-.078-.357.62.62 0 0 0-.224-.258c-.101-.067-.225-.121-.374-.152a2.5 2.5 0 0 0-.516-.053H48.55v4.901h-.844v-5.69h1.926a3.45 3.45 0 0 1 .844.095c.252.063.467.16.643.289a1.29 1.29 0 0 1 .411.484 1.58 1.58 0 0 1 .142.694 1.32 1.32 0 0 1-.091.489 1.2 1.2 0 0 1-.269.41 1.43 1.43 0 0 1-.438.294c-.173.074-.373.121-.598.142l-.329.289zm0 2.503h-1.926l.42-.789h1.506c.234 0 .429-.033.584-.1a.75.75 0 0 0 .347-.295.87.87 0 0 0 .119-.463c0-.179-.039-.331-.119-.457a.75.75 0 0 0-.347-.294 1.42 1.42 0 0 0-.584-.105h-1.282l.009-.778h1.602l.306.294a1.42 1.42 0 0 1 .689.231 1.26 1.26 0 0 1 .429.494 1.44 1.44 0 0 1 .146.642c0 .266-.044.501-.132.705a1.31 1.31 0 0 1-.374.51c-.164.133-.364.235-.598.305s-.499.1-.794.1zm-4.491-.973v-2.929a1.34 1.34 0 0 0-.119-.584.84.84 0 0 0-.347-.389 1.12 1.12 0 0 0-.575-.137c-.213 0-.4.042-.561.126a1.01 1.01 0 0 0-.374.331.8.8 0 0 0-.132.442h-.844a1.45 1.45 0 0 1 .137-.605c.091-.2.222-.38.392-.542a1.9 1.9 0 0 1 .621-.389c.243-.098.514-.147.812-.147.359 0 .675.07.949.21a1.51 1.51 0 0 1 .648.636c.155.284.237.633.237 1.057v2.65a4.77 4.77 0 0 0 .041.605c.03.214.075.398.132.552v.084h-.881a2.04 2.04 0 0 1-.1-.447 4.15 4.15 0 0 1-.036-.526zm.146-2.477l.009.684h-.853a2.75 2.75 0 0 0-.644.068c-.189.042-.347.107-.475.195a.87.87 0 0 0-.292.331c-.067.13-.1.282-.1.457s.035.342.105.489.175.265.315.352.318.126.525.126c.259 0 .487-.063.684-.189s.354-.28.47-.463.183-.359.192-.531l.361.468a1.54 1.54 0 0 1-.173.489 2.29 2.29 0 0 1-.379.515 2.03 2.03 0 0 1-.557.405c-.213.105-.453.158-.721.158-.335 0-.628-.075-.881-.226s-.444-.352-.584-.605-.205-.542-.205-.857c0-.305.052-.573.155-.804s.252-.43.447-.584.429-.277.703-.358.58-.121.917-.121h.981zm-6.443-.225h-.789v-.647h.758c.335 0 .605-.054.812-.163s.357-.259.452-.452.141-.415.141-.668a1.42 1.42 0 0 0-.155-.663c-.103-.203-.263-.365-.479-.484s-.494-.184-.835-.184a1.43 1.43 0 0 0-.694.168 1.26 1.26 0 0 0-.493.457c-.122.196-.182.415-.182.668h-.881a2.08 2.08 0 0 1 .178-.878 1.98 1.98 0 0 1 .488-.668 2.23 2.23 0 0 1 .717-.426 2.55 2.55 0 0 1 .867-.147c.356 0 .678.047.967.142s.537.228.744.41a1.78 1.78 0 0 1 .475.678c.11.27.164.584.164.941a1.75 1.75 0 0 1-.16.741 1.85 1.85 0 0 1-.456.61 2.19 2.19 0 0 1-.712.415 2.76 2.76 0 0 1-.926.147zm-.789-.447h.789a3.48 3.48 0 0 1 .999.131c.292.088.538.216.739.384a1.61 1.61 0 0 1 .456.626 2.11 2.11 0 0 1 .16.847 2.34 2.34 0 0 1-.183.952 1.99 1.99 0 0 1-.507.705c-.219.193-.479.338-.78.436a3.14 3.14 0 0 1-.981.147 2.94 2.94 0 0 1-.849-.126 2.33 2.33 0 0 1-.753-.4 2.02 2.02 0 0 1-.543-.694c-.137-.28-.201-.617-.201-1.01h.881a1.4 1.4 0 0 0 .182.705c.125.214.297.386.516.515s.475.189.767.189c.335 0 .618-.06.849-.179a1.29 1.29 0 0 0 .534-.5 1.4 1.4 0 0 0 .187-.72c0-.235-.033-.438-.1-.61a1.03 1.03 0 0 0-.288-.431c-.125-.112-.281-.195-.47-.247a2.42 2.42 0 0 0-.648-.084h-.758v-.636zm22.599 10.767c-2.078 0-3.775 1.574-3.775 3.746 0 2.154 1.697 3.745 3.775 3.745s3.78-1.591 3.78-3.745c0-2.172-1.697-3.746-3.78-3.746zm0 6.017c-1.14 0-2.121-.937-2.121-2.27 0-1.351.981-2.271 2.121-2.271s2.125.92 2.125 2.271c0 1.333-.985 2.27-2.125 2.27zm-8.237-6.017c-2.082 0-3.775 1.574-3.775 3.746 0 2.154 1.693 3.745 3.775 3.745s3.775-1.591 3.775-3.745c0-2.172-1.694-3.746-3.775-3.746zm0 6.017c-1.141 0-2.125-.937-2.125-2.27 0-1.351.984-2.271 2.125-2.271s2.121.92 2.121 2.271c0 1.333-.981 2.27-2.121 2.27zm-9.802-4.868v1.592h3.818c-.112.89-.41 1.544-.868 1.999-.557.55-1.425 1.162-2.95 1.162-2.35 0-4.19-1.888-4.19-4.227s1.84-4.228 4.19-4.228c1.271 0 2.195.494 2.877 1.135l1.127-1.122a5.58 5.58 0 0 0-4.004-1.604c-3.222 0-5.93 2.61-5.93 5.818s2.708 5.818 5.93 5.818c1.742 0 3.05-.568 4.078-1.634 1.054-1.049 1.382-2.524 1.382-3.716a5.3 5.3 0 0 0-.086-.994H42.93zm40.081 1.234c-.311-.838-1.269-2.382-3.222-2.382-1.935 0-3.546 1.518-3.546 3.746 0 2.098 1.595 3.745 3.732 3.745 1.728 0 2.726-1.049 3.136-1.66l-1.283-.851c-.428.623-1.011 1.036-1.853 1.036s-1.437-.382-1.822-1.135l5.032-2.073-.174-.426zm-5.131 1.247c-.043-1.444 1.127-2.184 1.965-2.184.657 0 1.214.327 1.4.795l-3.365 1.389zm-4.09 3.634h1.654V18.084H73.79v11.009zm-2.709-6.429h-.055c-.372-.438-1.08-.834-1.978-.834-1.884 0-3.607 1.647-3.607 3.759 0 2.099 1.723 3.733 3.607 3.733.898 0 1.607-.4 1.978-.851h.055v.537c0 1.432-.769 2.202-2.008 2.202-1.011 0-1.638-.727-1.896-1.338l-1.439.598c.415.993 1.513 2.215 3.335 2.215 1.94 0 3.576-1.136 3.576-3.9v-6.727h-1.568v.607zm-1.892 5.182c-1.14 0-2.094-.95-2.094-2.258 0-1.32.954-2.283 2.094-2.283 1.123 0 2.009.963 2.009 2.283 0 1.308-.886 2.258-2.009 2.258zm21.568-9.762H86.8v11.009h1.65v-4.171h2.307c1.832 0 3.629-1.32 3.629-3.419s-1.801-3.418-3.629-3.418zm.043 5.307h-2.35v-3.775h2.35c1.232 0 1.935 1.018 1.935 1.887 0 .852-.703 1.888-1.935 1.888zm10.199-1.582c-1.192 0-2.431.524-2.941 1.686l1.464.611c.315-.611.895-.809 1.507-.809.856 0 1.724.512 1.737 1.416v.116c-.298-.172-.937-.426-1.724-.426-1.576 0-3.183.864-3.183 2.477 0 1.475 1.292 2.425 2.743 2.425 1.111 0 1.723-.499 2.108-1.079h.056v.851h1.594v-4.223c0-1.952-1.464-3.044-3.361-3.044zm-.199 6.033c-.539 0-1.291-.267-1.291-.933 0-.852.937-1.179 1.749-1.179.727 0 1.067.16 1.508.37a2 2 0 0 1-1.966 1.742zm9.365-5.792l-1.896 4.773h-.056l-1.961-4.773h-1.779l2.946 6.669-1.681 3.711h1.724L112 22.049h-1.836zm-14.872 7.044h1.654v-11.01h-1.654v11.009z" fill="#fff"/><path d="M9.276 7.723c-.261.308-.412.786-.412 1.406v22.115c0 .62.151 1.099.412 1.406l.064.068L20.356 20.33v-.293L9.34 7.65l-.064.072z" fill="url(#A)"/><path d="M24.024 24.462l-3.668-4.131v-.293l3.672-4.131.082.054 4.349 2.784c1.241.79 1.241 2.09 0 2.885l-4.349 2.779-.087.054z" fill="url(#B)"/><path d="M24.11 24.408l-3.754-4.224-11.08 12.466c.412.487 1.084.546 1.849.059l12.986-8.301z" fill="url(#C)"/><path d="M24.11 15.96L11.125 7.659c-.764-.482-1.437-.424-1.849.064l11.08 12.461 3.755-4.224z" fill="url(#D)"/><defs><linearGradient id="A" x1="19.378" y1="31.474" x2="2.711" y2="16.66" gradientUnits="userSpaceOnUse"><stop stop-color="#00a0ff"/><stop offset=".007" stop-color="#00a1ff"/><stop offset=".26" stop-color="#00beff"/><stop offset=".512" stop-color="#00d2ff"/><stop offset=".76" stop-color="#00dfff"/><stop offset="1" stop-color="#00e3ff"/></linearGradient><linearGradient id="B" x1="30.075" y1="20.183" x2="8.567" y2="20.183" gradientUnits="userSpaceOnUse"><stop stop-color="#ffe000"/><stop offset=".409" stop-color="#ffbd00"/><stop offset=".775" stop-color="orange"/><stop offset="1" stop-color="#ff9c00"/></linearGradient><linearGradient id="C" x1="22.069" y1="17.888" x2="-.533" y2="-2.202" gradientUnits="userSpaceOnUse"><stop stop-color="#ff3a44"/><stop offset="1" stop-color="#c31162"/></linearGradient><linearGradient id="D" x1="6.487" y1="40.008" x2="16.579" y2="31.037" gradientUnits="userSpaceOnUse"><stop stop-color="#32a071"/><stop offset=".069" stop-color="#2da771"/><stop offset=".476" stop-color="#15cf74"/><stop offset=".801" stop-color="#06e775"/><stop offset="1" stop-color="#00f076"/></linearGradient></defs></svg>