<svg xmlns="http://www.w3.org/2000/svg" width="114" height="34" fill="none"><path d="M.459 7.866h5.582v17.935H.459V7.866zM6.228 2.88c0 1.54-1.176 2.787-3.015 2.787C1.451 5.667.276 4.42.312 2.88.276 1.267 1.451.056 3.25.056S6.187 1.267 6.228 2.88zM67.19 22.819c0-1.987 1.363-3.425 3.32-3.425s3.284 1.402 3.284 3.425c0 1.954-1.331 3.389-3.32 3.389-1.92 0-3.283-1.434-3.283-3.389z" fill="#e84f35"/><path d="M16.022 12.575c.48.11 1.07.15 1.88.15 2.991 0 4.834-1.511 4.834-4.051 0-2.284-1.587-3.645-4.39-3.645-1.143 0-1.916.11-2.323.219v7.326zm-5.57-11.272c1.733-.297 4.17-.516 7.6-.516 3.467 0 5.94.662 7.6 1.991 1.587 1.252 2.657 3.316 2.657 5.75s-.814 4.494-2.287 5.896c-1.921 1.804-4.756 2.617-8.081 2.617-.736 0-1.404-.037-1.92-.11v8.878h-5.57V1.303zm30.177 15.989c-2.95-.037-5.236.662-5.236 2.836 0 1.434.96 2.137 2.213 2.137 1.4 0 2.547-.918 2.913-2.06a4.04 4.04 0 0 0 .11-.959v-1.954zm.663 8.508l-.334-1.804h-.11c-1.18 1.438-3.027 2.21-5.163 2.21-3.654 0-5.83-2.649-5.83-5.526 0-4.677 4.207-6.924 10.587-6.887v-.256c0-.959-.517-2.32-3.283-2.32-1.843 0-3.8.626-4.98 1.365l-1.033-3.608c1.253-.703 3.727-1.585 7.01-1.585 6.014 0 7.93 3.539 7.93 7.773v6.266c0 1.731.073 3.389.256 4.384h-5.049V25.8zM54.28 7.789l2.693 8.842.883 3.352h.11l.81-3.352 2.213-8.842h6.014L62.8 19.649c-2.584 7.147-4.317 10.02-6.347 11.824-1.953 1.694-4.02 2.284-5.423 2.47l-1.18-4.75c.7-.11 1.587-.443 2.433-.959.846-.443 1.77-1.325 2.323-2.247.183-.256.293-.553.293-.809 0-.183-.037-.48-.26-.922L48.034 7.789h6.246zm39.913 12.23l.147 5.782h-4.87l-.256-2.54h-.11c-.7 1.105-2.397 2.946-5.647 2.946-3.65 0-6.343-2.284-6.343-7.846V7.789h5.643v9.691c0 2.617.85 4.197 2.803 4.197 1.55 0 2.433-1.069 2.803-1.95.147-.333.183-.772.183-1.215V7.789h5.643V20.02h.004zm14.091-2.727c-2.954-.037-5.241.662-5.241 2.836 0 1.434.96 2.137 2.213 2.137 1.404 0 2.547-.918 2.914-2.06a4.04 4.04 0 0 0 .114-.959v-1.954zm.667 8.508l-.334-1.804h-.11c-1.18 1.438-3.023 2.21-5.163 2.21-3.653 0-5.826-2.649-5.826-5.526 0-4.677 4.203-6.924 10.587-6.887v-.256c0-.959-.517-2.32-3.284-2.32-1.843 0-3.8.626-4.98 1.365l-1.033-3.608c1.253-.703 3.727-1.585 7.006-1.585 6.013 0 7.93 3.539 7.93 7.773v6.266c0 1.731.073 3.389.256 4.384h-5.049V25.8z" fill="#fff"/></svg>