<svg xmlns="http://www.w3.org/2000/svg" xmlns:xlink="http://www.w3.org/1999/xlink" width="91" height="40" fill="none"><g clip-path="url(#A)"><g fill="#7eba28"><path d="M35.224 6.745h14.013L45.895.014H31.803l3.421 6.731zm5.164 10.19h11.345l-3.395-6.825H36.915l3.474 6.825z"/></g><path d="M28.132 0L14.806 26.965h7.132l6.247-12.568.013-.013v-.013l.013.013 6.26 12.594 7.013.013L28.132 0z" fill="#fff"/><path d="M58.681 25.762l-2.694-5.422H42.119l3.408 6.651h13.762l-.185-.374-.423-.855z" fill="#7eba28"/><g fill="#fff"><path d="M76.498 16.948v-.013c-.528-2.871-2.496-5.235-5.099-6.29l.106-.521c.106-.521.145-1.055.145-1.603a8.8 8.8 0 0 0-.185-1.776C70.7 3.045 67.556.24 63.726.013c-.159-.013-14.106 0-14.106 0l3.341 6.731h10.104c.357.067.687.267.924.534.317.321.41.815.41.828.026.12.04.227.04.334a1.73 1.73 0 0 1-1.175 1.643l-.119.04h-3.764l3.394 6.825h5.296c.396.053.74.254 1.004.534a1.72 1.72 0 0 1 .436.841v.013c0 .013.013.027.013.04.013.094.026.187.026.267 0 .067-.013.147-.013.214-.079.641-.502 1.175-1.083 1.389-.106.053-.225.08-.344.093h-8.387l3.302 6.651h4.609c.198.013 2.668-.053 4.24-.815.013 0 .013-.013.026-.013a10.05 10.05 0 0 0 1.162-.681 8.6 8.6 0 0 0 3.381-5.115c.106-.494.172-1.015.185-1.536v-.08c.013-.027.013-.053.013-.08v-.147a8.89 8.89 0 0 0-.145-1.576zM2.219 35.74L2.1 37.168c-.106.628-.277 1.055-.515 1.282-.119.107-.304.16-.581.16H.885l-.066-.014v1.282c.238.027.449.04.647.04.449 0 .806-.147 1.096-.427.238-.24.436-.574.594-1.002.211-.574.343-1.375.409-2.404l.04-.641.04-.735h1.902v5.142h1.44v-6.237H2.298l-.079 2.124zm10.724.708c-.357-.294-.938-.441-1.73-.441H9.866V33.63H8.413v6.237h2.774c.726 0 1.308-.174 1.73-.534.409-.334.621-.815.621-1.443-.013-.641-.211-1.122-.594-1.442zm-1.175 2.11c-.185.174-.462.267-.845.267h-1.07v-1.777h1.07c.423 0 .726.094.898.281.132.134.198.347.198.614 0 .254-.079.454-.251.614zm6.617-2.044v-.147c.304-.134.528-.32.674-.548a1.4 1.4 0 0 0 .225-.775c0-.534-.225-.908-.66-1.135-.343-.174-.925-.267-1.743-.267h-2.325v6.237h2.615c.806 0 1.426-.174 1.862-.508a1.66 1.66 0 0 0 .647-1.376c0-.401-.106-.734-.33-.975-.224-.254-.541-.427-.964-.507zm-2.39-1.856h.225l.726.013c.396.013.66.12.766.347.053.12.092.24.092.347 0 .147-.026.281-.079.401s-.159.214-.304.281c-.159.067-.515.107-1.096.107h-.317v-1.496h-.013zm2.087 3.753c-.145.281-.462.428-.938.441h-.964-.185v-1.736h1.096a1.82 1.82 0 0 1 .528.067c.198.054.343.147.423.28.079.12.132.294.132.507a.83.83 0 0 1-.093.441zm2.389-3.794h1.017v4.26h-1.017v.988h3.46v-.988h-1.004v-4.26h1.004v-.975h-3.46v.975zm8.493 1.897v-.147c.304-.134.528-.32.674-.548a1.4 1.4 0 0 0 .224-.775c0-.534-.224-.908-.66-1.135-.343-.174-.924-.267-1.743-.267h-2.325v6.237h2.628c.806 0 1.426-.174 1.862-.508a1.66 1.66 0 0 0 .647-1.376c0-.401-.106-.734-.33-.975-.224-.254-.555-.427-.977-.507zm-2.377-1.856h.225l.726.013c.396.013.66.12.766.347.053.12.093.24.093.347a1 1 0 0 1-.079.401c-.052.12-.159.214-.304.281-.159.067-.515.107-1.096.107H26.6v-1.496h-.013zm2.074 3.753c-.145.281-.462.428-.938.441h-.964-.185v-1.736h1.096a1.82 1.82 0 0 1 .528.067c.198.054.343.147.423.28.079.12.132.294.132.507a.72.72 0 0 1-.093.441z"/><use xlink:href="#B"/><path d="M40.798 35.966h-2.483v-2.324h-1.453v6.224h1.453v-2.804h2.483v2.804h1.453v-6.224h-1.453v2.324zm2.879 3.9h4.319v-1.082h-2.879v-1.723h2.681v-1.095h-2.681v-1.242h2.879v-1.082h-4.319v6.224zm9.747-5.822c-.396-.267-.951-.414-1.664-.414h-2.549v6.237h1.453v-2.084h1.057c.792 0 1.413-.24 1.902-.735.357-.374.542-.868.542-1.469 0-.694-.251-1.202-.74-1.536zm-1.083 2.417c-.211.187-.594.267-1.162.267h-.528v-2.057h.343c.555 0 .925.04 1.136.134.343.147.515.414.515.801.014.387-.092.668-.304.855zm2.826 3.405h1.44v-5.142h2.853v-1.082h-4.292v6.224zm7.885-6.357c-.964 0-1.73.294-2.272.868-.555.574-.819 1.376-.819 2.377s.278 1.79.819 2.364c.554.588 1.308.882 2.272.882.977 0 1.73-.294 2.285-.882s.819-1.376.819-2.364c0-1.002-.277-1.803-.832-2.377-.541-.574-1.294-.868-2.271-.868zm1.136 4.901c-.277.347-.66.521-1.122.521a1.39 1.39 0 0 1-1.123-.521c-.317-.387-.475-.948-.475-1.669 0-.748.159-1.309.489-1.683a1.41 1.41 0 0 1 1.109-.508c.462 0 .832.174 1.109.508.317.387.475.948.475 1.669.013.735-.145 1.296-.462 1.683zm7.647-1.695c-.159-.067-.33-.107-.515-.134v-.187c.383-.093.687-.267.898-.521a1.36 1.36 0 0 0 .33-.895c0-.975-.819-1.469-2.47-1.469-.753 0-1.506.133-2.232.401v1.215h.066l.766-.347a3.38 3.38 0 0 1 1.136-.214c.819 0 1.215.227 1.215.681 0 .267-.08.467-.251.601s-.475.2-.911.2h-1.03v.988h1.057l.555.027c.33.054.555.187.66.414a1.05 1.05 0 0 1 .079.441.85.85 0 0 1-.436.774c-.251.16-.621.24-1.083.24-.343 0-.727-.08-1.175-.254a6.69 6.69 0 0 1-.819-.414h-.066v1.322c.687.254 1.426.387 2.219.387.924 0 1.638-.174 2.153-.534.462-.334.7-.801.7-1.415 0-.267-.039-.481-.119-.641a1.33 1.33 0 0 0-.726-.668zm6.525-.268c-.356-.294-.938-.441-1.73-.441h-1.361v-1.282h3.209v-1.082H73.83v6.237h2.774c.727 0 1.308-.174 1.73-.534.409-.334.621-.815.621-1.443-.013-.654-.211-1.135-.594-1.456zm-1.175 2.11c-.185.174-.462.267-.845.267h-1.083v-1.776h1.083c.423 0 .727.094.898.281.132.133.198.347.198.614a.75.75 0 0 1-.251.614zm5.243-1.802l-1.585-3.125h-1.559l2.457 4.701c-.053.134-.172.227-.37.294-.172.054-.409.08-.687.08a2.95 2.95 0 0 1-.753-.08v1.242c.093 0 .251.013.449.027l.687.013c.409 0 .753-.067 1.03-.2.396-.187.7-.547.938-1.069l2.192-4.995h-1.492l-1.307 3.112zm2.919-3.112v1.082h1.915v5.142h1.453v-5.142h1.928v-1.082h-5.296z"/></g></g><defs><clipPath id="A"><path fill="#fff" transform="translate(.656)" d="M0 0h90v40H0z"/></clipPath><path id="B" d="M31.328 39.866h4.319v-1.082h-2.879v-1.723h2.681v-1.095h-2.681v-1.242h2.879v-1.082h-4.319v6.224z"/></defs></svg>