<svg xmlns="http://www.w3.org/2000/svg" xmlns:xlink="http://www.w3.org/1999/xlink" width="156" height="42" fill="none"><style><![CDATA[.B{fill:#33b8c1}.C{fill:#f6c048}.D{fill:#d9271c}]]></style><g clip-path="url(#A)"><g fill="#fff"><path d="M11.313 35.888v4.447h-.571v-2.022H8.256v2.022h-.571v-4.447h.571v1.925h2.486v-1.925h.571zm3.417 0h.482l1.842 4.447h-.61l-.533-1.29h-1.872l-.525 1.303h-.631l1.846-4.46zm1.053 2.707l-.81-2.072-.853 2.056 1.663.017zm6.358 1.741h-3.51v-4.447h.571v3.947h2.166v-3.947h.572v3.947h.699v1.681h-.499v-1.181zm2.132 0v-4.447h.571v4.447h-.571zm4.431.033a1.98 1.98 0 0 1-.853-.193c-.256-.122-.483-.293-.669-.504s-.33-.461-.426-.727a2.47 2.47 0 0 1-.149-.841 2.21 2.21 0 0 1 .162-.841 2.3 2.3 0 0 1 .426-.723 2.13 2.13 0 0 1 .674-.496 1.99 1.99 0 0 1 .853-.185 1.9 1.9 0 0 1 .853.198 2.17 2.17 0 0 1 .67.517 2.3 2.3 0 0 1 .426.723c.1.269.151.554.149.841a2.21 2.21 0 0 1-.162.841 2.31 2.31 0 0 1-.426.719c-.19.207-.419.375-.674.496a1.97 1.97 0 0 1-.853.176zm-1.544-2.257a2 2 0 0 0 .111.656 1.79 1.79 0 0 0 .316.559c.139.166.301.296.49.391a1.37 1.37 0 0 0 .635.143 1.33 1.33 0 0 0 .648-.155 1.64 1.64 0 0 0 .486-.399c.134-.167.236-.356.303-.559a1.92 1.92 0 0 0 .107-.635 1.99 1.99 0 0 0-.111-.652 1.82 1.82 0 0 0-.328-.559c-.135-.16-.302-.292-.49-.387a1.4 1.4 0 0 0-.623-.143 1.35 1.35 0 0 0-.648.151c-.188.097-.354.232-.486.395a1.77 1.77 0 0 0-.307.555c-.069.206-.104.422-.102.639zm9.053-2.224v4.447h-.571v-2.022h-2.486v2.022h-.571v-4.447h.571v1.925h2.486v-1.925h.571zm3.412 0h.486l1.842 4.447h-.623l-.537-1.303h-1.889l-.529 1.303h-.61l1.859-4.447zm1.057 2.707l-.81-2.072-.853 2.056 1.663.017zm3.988-1.467l-.192 1.48c-.058.347-.158.686-.298 1.009a1.46 1.46 0 0 1-.427.58 1.03 1.03 0 0 1-.618.185l-.102-.547a1.02 1.02 0 0 0 .256-.046.57.57 0 0 0 .222-.147 1.16 1.16 0 0 0 .192-.298c.071-.159.126-.323.166-.492l.136-.727.111-1.017.098-1.219h2.392v4.447h-.584v-3.943h-1.279l-.072.736zm3.982-1.24h.571v1.644h.964a1.92 1.92 0 0 1 .593.088 1.41 1.41 0 0 1 .482.269c.137.115.246.258.32.42a1.58 1.58 0 0 1 0 1.215 1.2 1.2 0 0 1-.324.42 1.49 1.49 0 0 1-.482.269 1.93 1.93 0 0 1-.584.088h-1.535l-.004-4.414zm.571 3.96h.964c.128.01.257-.007.379-.05a.91.91 0 0 0 .325-.198c.161-.185.244-.425.23-.668a.92.92 0 0 0-.239-.664.92.92 0 0 0-.321-.195.95.95 0 0 0-.374-.053h-.964v1.828zm7.788-3.96v4.447h-.571v-2.022h-2.482v2.022h-.576v-4.447h.576v1.925h2.482v-1.925h.571zm2.63 3.578l2.61-3.59h.469v4.447h-.572v-3.527l-2.559 3.527h-.512v-4.435h.571l-.009 3.577zm5.711 0l2.61-3.59h.469v4.447h-.572v-3.527L65.3 40.323h-.516v-4.435h.571l-.004 3.577zm2.324-4.876c.001.106-.024.21-.072.304a.67.67 0 0 1-.205.238c-.208.124-.446.189-.689.189s-.481-.066-.689-.189a.68.68 0 0 1-.204-.239.67.67 0 0 1-.073-.303h.32c.004.06.023.118.055.169s.076.094.129.125a.76.76 0 0 0 .452.13.73.73 0 0 0 .427-.122.47.47 0 0 0 .133-.131c.035-.052.059-.11.071-.172h.345zm7.199 5.779a1.95 1.95 0 0 1-.853-.193c-.257-.121-.486-.293-.674-.504s-.329-.462-.426-.727a2.32 2.32 0 0 1-.154-.841 2.31 2.31 0 0 1 .162-.841c.106-.268.257-.509.448-.723.191-.207.422-.375.678-.496a1.97 1.97 0 0 1 .853-.185 1.88 1.88 0 0 1 .853.197c.255.127.483.303.669.517a2.34 2.34 0 0 1 .427.723 2.33 2.33 0 0 1 .11 1.258 2.35 2.35 0 0 1-.562 1.134 2.23 2.23 0 0 1-.674.496 1.98 1.98 0 0 1-.857.185zm-1.561-2.257a2 2 0 0 0 .111.656 1.72 1.72 0 0 0 .316.559 1.5 1.5 0 0 0 .486.391c.197.097.415.146.635.143.226.006.45-.048.648-.155a1.54 1.54 0 0 0 .486-.399c.135-.167.239-.356.307-.559s.102-.419.102-.635c.002-.222-.036-.442-.111-.651a1.72 1.72 0 0 0-.316-.559c-.137-.158-.304-.29-.49-.387-.195-.095-.409-.144-.627-.143-.225-.003-.448.049-.648.151-.187.099-.352.233-.486.395a1.86 1.86 0 0 0-.307.555 1.96 1.96 0 0 0-.107.639zm9.07-2.224v4.447h-.572v-2.022h-2.486v2.022h-.571v-4.447h.571v1.925h2.486v-1.925h.572zm3.198 1.24a14.38 14.38 0 0 1-.188 1.48 4.5 4.5 0 0 1-.299 1.009c-.093.224-.239.423-.426.58a1.03 1.03 0 0 1-.618.185l-.102-.547a1.02 1.02 0 0 0 .256-.046.57.57 0 0 0 .222-.147 1.04 1.04 0 0 0 .188-.298 2.76 2.76 0 0 0 .166-.492 6.46 6.46 0 0 0 .136-.727l.111-1.017.102-1.219h2.388v4.447h-.571v-3.943h-1.279l-.085.736zm5.343-1.24h.482l1.842 4.447h-.61l-.533-1.303h-1.893l-.525 1.303h-.597l1.834-4.447zm1.058 2.707l-.814-2.072-.853 2.056 1.667.017zm3.407.871l2.614-3.59h.469v4.447h-.571v-3.527l-2.559 3.527h-.516v-4.435h.572l-.009 3.577zm2.328-4.876a.67.67 0 0 1-.073.303.68.68 0 0 1-.204.239c-.208.124-.446.189-.689.189s-.481-.066-.689-.189a.66.66 0 0 1-.205-.238c-.048-.094-.073-.199-.072-.304h.337c.003.06.021.119.053.17a.36.36 0 0 0 .13.124c.132.09.291.136.452.13a.73.73 0 0 0 .426-.122.48.48 0 0 0 .2-.303h.333zm6.44 1.298v4.447h-.567v-2.022h-2.482v2.022h-.572v-4.447h.572v1.925h2.482v-1.925h.567zm1.91 2.989v-.5h1.877v.5h-1.877zm4.346-1.051h.571l1.48-1.938h.657l-1.608 2.148 1.753 2.299h-.653l-1.565-2.009h-.635v2.009h-.572v-4.447h.572v1.938zm4.354 2.51v-4.447h.571v4.447h-.571zm6.255-4.448v4.447h-.571v-2.022h-2.482v2.022h-.576v-4.447h.576v1.925h2.482v-1.925h.571zm3.89 4.481a1.96 1.96 0 0 1-.853-.193 2.08 2.08 0 0 1-.67-.504 2.33 2.33 0 0 1-.426-.727 2.39 2.39 0 0 1-.149-.841 2.19 2.19 0 0 1 .162-.841 2.29 2.29 0 0 1 .447-.723 2.13 2.13 0 0 1 .674-.496 1.99 1.99 0 0 1 .853-.185 1.9 1.9 0 0 1 .853.198 2.21 2.21 0 0 1 .665.517 2.36 2.36 0 0 1 .427.723 2.39 2.39 0 0 1 .149.841c.001.288-.054.573-.162.841a2.29 2.29 0 0 1-.427.719 2.2 2.2 0 0 1-.673.496c-.273.124-.57.184-.87.176zm-1.544-2.257a1.98 1.98 0 0 0 .111.656 1.81 1.81 0 0 0 .315.559 1.52 1.52 0 0 0 .491.391 1.37 1.37 0 0 0 .635.143 1.33 1.33 0 0 0 .648-.155 1.63 1.63 0 0 0 .486-.399 1.77 1.77 0 0 0 .303-.559c.071-.204.107-.419.107-.635a2.01 2.01 0 0 0-.111-.652 1.8 1.8 0 0 0-.32-.559 1.56 1.56 0 0 0-.49-.387 1.4 1.4 0 0 0-.623-.143 1.35 1.35 0 0 0-.648.151 1.52 1.52 0 0 0-.486.395c-.135.165-.239.353-.307.555-.075.205-.116.421-.12.639h.009zm8.525-1.719h-1.557v3.943h-.571v-3.943h-1.557v-.504h3.685v.504zm4.673 3.442v.5h-3.062v-4.447h3.007v.504h-2.435v1.438h2.132v.471h-2.132v1.534h2.49zm3.1-3.947h.482l1.842 4.447h-.61l-.533-1.303h-1.893l-.525 1.303h-.609l1.846-4.447zm1.053 2.707l-.81-2.055-.853 2.055h1.663zm5.664-2.202h-1.556v3.943h-.572v-3.943H142.7v-.504h3.684v.504zm1.612 3.943v-4.447h1.881c.191-.002.379.041.55.126.162.079.307.189.426.324a1.58 1.58 0 0 1 .282.458 1.37 1.37 0 0 1 .102.517 1.51 1.51 0 0 1-.363.988 1.36 1.36 0 0 1-.426.319c-.169.081-.354.121-.542.118h-1.347v1.597h-.563zm.571-2.102h1.314a.74.74 0 0 0 .324-.072.69.69 0 0 0 .243-.202c.069-.088.123-.188.158-.294.039-.115.059-.236.06-.357a1.04 1.04 0 0 0-.069-.366c-.04-.109-.101-.208-.179-.294a.74.74 0 0 0-.26-.193.72.72 0 0 0-.316-.067h-1.279l.004 1.845z"/><use xlink:href="#B"/><use xlink:href="#C"/><use xlink:href="#D"/><use xlink:href="#E"/><use xlink:href="#F"/><use xlink:href="#G"/><use xlink:href="#H"/><use xlink:href="#I"/></g><g class="B"><use xlink:href="#J"/><use xlink:href="#K" opacity=".5"/></g><use xlink:href="#L" fill="#fff"/><g class="D"><use xlink:href="#M"/><use xlink:href="#N"/></g><use xlink:href="#O" class="C"/><use xlink:href="#P" class="D"/><use xlink:href="#Q" class="B"/><use xlink:href="#R" class="C"/><use xlink:href="#S" class="B"/><use xlink:href="#T" class="C"/><use xlink:href="#U" class="B"/><g class="D"><use xlink:href="#V"/><use xlink:href="#W"/><use xlink:href="#X"/></g><use xlink:href="#Y" class="C"/><use xlink:href="#Z" fill="#2d3945"/><use xlink:href="#a" class="B"/><path d="M141.834 28.739h-125.8a14.39 14.39 0 0 1-9.787-4.292c-2.575-2.627-4.014-6.137-4.014-9.789s1.439-7.162 4.014-9.789A14.39 14.39 0 0 1 16.034.576h125.8c3.703.126 7.212 1.665 9.787 4.292s4.013 6.137 4.013 9.789-1.439 7.162-4.013 9.789-6.084 4.166-9.787 4.292z" fill="#fff"/><g class="D"><use xlink:href="#B"/><use xlink:href="#C"/><use xlink:href="#D"/><use xlink:href="#E"/><use xlink:href="#F"/><use xlink:href="#G"/><use xlink:href="#H"/><use xlink:href="#I"/></g><g class="B"><use xlink:href="#J"/><use xlink:href="#K" opacity=".5"/></g><use xlink:href="#L" fill="#fff"/><g class="D"><use xlink:href="#M"/><use xlink:href="#N"/></g><use xlink:href="#O" class="C"/><use xlink:href="#P" class="D"/><use xlink:href="#Q" class="B"/><use xlink:href="#R" class="C"/><use xlink:href="#S" class="B"/><use xlink:href="#T" class="C"/><use xlink:href="#U" class="B"/><g class="D"><use xlink:href="#V"/><use xlink:href="#W"/><use xlink:href="#X"/></g><use xlink:href="#Y" class="C"/><use xlink:href="#Z" fill="#2d3945"/><use xlink:href="#a" class="B"/></g><defs><clipPath id="A"><path fill="#fff" transform="translate(0 .5)" d="M0 0h156v41H0z"/></clipPath><path id="B" d="M44.393 11.244c-.128.168-.256.341-.384.383-.156.091-.335.135-.516.126-.22-.001-.437-.044-.64-.126l-.729-.298a4.99 4.99 0 0 0-.853-.298c-.363-.088-.735-.131-1.109-.126a2.5 2.5 0 0 0-1.373.341 1.13 1.13 0 0 0-.352.412c-.082.163-.122.344-.118.526-.005.134.019.269.07.393s.129.237.229.33c.252.198.525.368.815.509l1.156.42 1.326.42a12.46 12.46 0 0 1 1.326.551c.427.207.818.481 1.156.811a3.31 3.31 0 0 1 .815 1.147 3.67 3.67 0 0 1 .299 1.618c.011.731-.134 1.455-.427 2.127a4.76 4.76 0 0 1-1.241 1.66c-.613.487-1.309.862-2.056 1.11-1.433.403-2.939.489-4.409.252a9.81 9.81 0 0 1-1.539-.383 10.25 10.25 0 0 1-1.369-.593 4.01 4.01 0 0 1-1.075-.744l1.07-1.702a1.24 1.24 0 0 1 .469-.467c.218-.133.474-.193.729-.172a1.38 1.38 0 0 1 .725.172l.687.383a9.04 9.04 0 0 0 .9.383c.397.116.811.165 1.224.143a2.87 2.87 0 0 0 .895-.13 1.86 1.86 0 0 0 .601-.298c.149-.109.266-.253.341-.42a1.08 1.08 0 0 0 .085-.513c.005-.141-.018-.281-.069-.413a1.04 1.04 0 0 0-.229-.352 2.2 2.2 0 0 0-.815-.509 6.86 6.86 0 0 0-1.156-.383l-1.326-.42c-.473-.164-.887-.345-1.313-.546a4.63 4.63 0 0 1-1.156-.841c-.351-.364-.626-.793-.81-1.261a4.53 4.53 0 0 1-.303-1.786c.001-.644.133-1.282.388-1.875.262-.611.658-1.158 1.16-1.602.556-.487 1.212-.851 1.923-1.068.872-.268 1.782-.397 2.695-.383.555-.005 1.108.058 1.646.189.498.09.986.231 1.454.42.439.162.856.376 1.241.639a4.91 4.91 0 0 1 .985.807l-1.045 1.438z"/><path id="C" d="M45.42 8.091h3.723c.287-.007.57.067.815.214.202.141.364.33.469.551l1.54 6.94.345 1.534.256 1.488.426-1.488a19.74 19.74 0 0 1 .473-1.534l1.936-6.94c.076-.225.226-.419.426-.551.221-.16.494-.236.768-.214h2.055a1.52 1.52 0 0 1 .815.214c.202.141.364.33.469.551l1.838 6.94.426 1.534.384 1.488.298-1.488.388-1.534 1.625-6.94c.077-.225.227-.418.426-.551a1.17 1.17 0 0 1 .772-.214h3.552L64.81 23.543h-3.765c-.093.008-.187-.003-.275-.032a.7.7 0 0 1-.241-.136c-.165-.166-.283-.372-.341-.597l-2.226-7.692c-.119-.335-.219-.676-.299-1.022-.091-.336-.163-.677-.213-1.021l-.213 1.021c-.079.346-.18.688-.303 1.022l-2.222 7.663a.95.95 0 0 1-.35.561.98.98 0 0 1-.635.204H50.26L45.42 8.091z"/><path id="D" d="M76.789 7.625a8.54 8.54 0 0 1 2.823.467c.823.286 1.569.752 2.183 1.362.629.636 1.124 1.389 1.454 2.215.353.954.526 1.964.512 2.98.01.281-.004.562-.043.841-.023.18-.081.354-.171.513a.53.53 0 0 1-.143.163.54.54 0 0 1-.198.093c-.165.055-.338.084-.512.084h-8.904c.041 1.048.467 2.046 1.198 2.808.337.295.73.521 1.156.665s.877.204 1.326.176c.48.024.961-.049 1.412-.214.356-.106.7-.247 1.028-.42.299-.172.601-.298.853-.42.249-.137.529-.211.814-.214a1.02 1.02 0 0 1 .474.087c.148.067.278.168.379.295l1.369 1.681c-.436.52-.956.966-1.539 1.32a8.78 8.78 0 0 1-1.706.807 6.6 6.6 0 0 1-1.757.387c-.552.081-1.109.123-1.667.126-1.036.006-2.065-.167-3.04-.513a6.89 6.89 0 0 1-2.482-1.572 7.46 7.46 0 0 1-1.706-2.598c-.438-1.156-.642-2.386-.601-3.619-.003-1.003.172-1.999.516-2.942.327-.91.852-1.738 1.54-2.425.682-.702 1.496-1.266 2.397-1.66a10.34 10.34 0 0 1 3.036-.471zm.085 3.19c-.385-.022-.77.036-1.131.168s-.691.337-.967.601c-.545.607-.889 1.364-.985 2.169h5.778c.002-.358-.041-.716-.128-1.063s-.257-.671-.486-.95-.515-.507-.84-.668a2.59 2.59 0 0 0-1.241-.256z"/><path id="E" d="M93.092 7.625c.963-.005 1.919.153 2.827.467.821.286 1.566.752 2.179 1.362a7.4 7.4 0 0 1 1.459 2.215c.353.954.526 1.964.511 2.98.011.281-.004.562-.042.841-.024.18-.082.354-.171.513a.53.53 0 0 1-.144.163.54.54 0 0 1-.198.093 1.64 1.64 0 0 1-.516.084h-8.955c.128 1.261.554 2.215 1.198 2.808.337.295.73.521 1.156.665a3.46 3.46 0 0 0 1.326.176 3.61 3.61 0 0 0 1.412-.214 5.77 5.77 0 0 0 1.028-.42c.299-.172.597-.298.853-.42.248-.137.526-.21.81-.214.163-.009.326.021.474.088a1.01 1.01 0 0 1 .379.294l1.326 1.681c-.437.519-.957.965-1.539 1.32-.537.329-1.109.599-1.706.807a6.57 6.57 0 0 1-1.753.387 12.1 12.1 0 0 1-1.672.126c-1.048.002-2.09-.171-3.079-.513-.934-.339-1.781-.876-2.482-1.572-.746-.739-1.327-1.624-1.706-2.598-.452-1.153-.669-2.383-.64-3.619a8.52 8.52 0 0 1 .512-2.942 6.59 6.59 0 0 1 1.544-2.425c.689-.694 1.501-1.256 2.397-1.66a12.31 12.31 0 0 1 3.211-.471zm.085 3.19a2.82 2.82 0 0 0-1.129.168c-.36.132-.689.337-.965.601a3.92 3.92 0 0 0-.985 2.169h5.778a4.28 4.28 0 0 0-.128-1.063 2.87 2.87 0 0 0-.473-.937 2.72 2.72 0 0 0-.853-.681 2.59 2.59 0 0 0-1.245-.256z"/><path id="F" d="M116.243 19.924a2.79 2.79 0 0 0-.554-.807 2.75 2.75 0 0 0-3.808 0 2.11 2.11 0 0 0-.559.807c-.14.323-.213.672-.213 1.023s.073.7.213 1.024c.124.306.315.582.559.807.238.246.53.436.853.555a3.05 3.05 0 0 0 1.07.21 2.61 2.61 0 0 0 1.028-.21 2.72 2.72 0 0 0 .853-.555c.254-.229.445-.518.554-.841a2.89 2.89 0 0 0 .213-1.021c-.001-.341-.072-.678-.209-.992z"/><path id="G" d="M138.584 23.543h-4.239l-6.021-15.452h3.838c.287-.008.57.067.814.214.202.141.364.33.47.551l2.132 6.94.516 1.66c.17.555.256 1.063.384 1.618l.383-1.618c.128-.555.346-1.106.516-1.66l2.226-6.94c.08-.236.248-.433.469-.551a1.16 1.16 0 0 1 .772-.214h3.685l-5.945 15.452z"/><path id="H" d="M108.968 19.882c-.078-.13-.179-.245-.298-.34-.141-.086-.304-.13-.469-.126-.12.003-.238.032-.346.084l-.256.13c-.042.042-.128.042-.213.084a.64.64 0 0 1-.298.042c-.214 0-.346-.042-.427-.214-.132-.186-.192-.413-.17-.639v-6.637h3.467V8.814h-3.467V4.943h-3.753v.042a1.34 1.34 0 0 0-.734.456 1.31 1.31 0 0 0-.294.805v12.896c-.012.61.09 1.217.303 1.791.172.529.466 1.012.859 1.41a3.65 3.65 0 0 0 1.405.885c.604.216 1.243.318 1.885.298a7.47 7.47 0 0 0 2.184-.298 6.68 6.68 0 0 0 1.923-.933l.213-.172-1.514-2.24z"/><path id="I" d="M126.857 19.882c-.078-.13-.179-.245-.298-.34-.142-.087-.307-.131-.474-.126a.81.81 0 0 0-.341.084l-.256.13c-.042.042-.128.042-.213.084-.096.038-.2.052-.303.042-.213 0-.341-.042-.426-.214a.95.95 0 0 1-.171-.639v-6.637h3.467V8.814h-3.467V4.943h-3.765v.042c-.29.067-.548.227-.735.456s-.289.512-.293.805v12.896a4.93 4.93 0 0 0 .299 1.791 3.59 3.59 0 0 0 .862 1.409c.393.398.875.701 1.406.886.604.216 1.243.318 1.885.298a7.49 7.49 0 0 0 2.184-.298 6.68 6.68 0 0 0 1.923-.933l.213-.172-1.497-2.24z"/><path id="J" d="M14.465.769c-2.81 0-5.557.821-7.894 2.36a14.05 14.05 0 0 0-5.233 6.286 13.82 13.82 0 0 0-.809 8.092c.548 2.717 1.902 5.212 3.889 7.171s4.519 3.293 7.275 3.833a14.4 14.4 0 0 0 8.21-.797c2.596-1.06 4.816-2.855 6.377-5.158s2.395-5.011 2.395-7.781c0-3.715-1.497-7.277-4.162-9.904S18.233.769 14.465.769zm5.117 13.497l-7.676 4.182c-.64.34-1.156-.042-1.156-.841l-.085-7.663c0-.811.516-1.236 1.156-.895l7.702 4.002c.648.32.691.874.06 1.215z"/><path id="K" d="M15.745.517c-3.802 0-7.449 1.489-10.138 4.139a14.03 14.03 0 0 0-4.199 9.993 14.03 14.03 0 0 0 4.199 9.993c2.689 2.65 6.335 4.139 10.138 4.139 7.919 0 13.74-6.343 13.74-14.132S23.681.517 15.745.517zm5.139 13.619l-7.697 4.174c-.64.34-1.156-.042-1.198-.841l-.081-7.717c0-.807.516-1.236 1.156-.895l7.799 4.048c.635.341.678.891.038 1.232h-.017z"/><path id="L" d="M28.537 11.37c-.516-2.383-3.211-7.024-4.921-7.747-1.629-.681-2.482-1.833-3.126-1.959S17.079.345 16.085.559s-2.397-.13-3.211-.042S7.757 1.58 5.301 3.791C2.989 5.893 2.315 7.028 2.315 7.028s-4.32 8.512-1.07 9.538c.853.252.729.765.772 1.656 0 1.32-.384 1.492.597 2.257s2.013-.681 2.87.172-.814 2.724 1.497 4.002 1.94-2.001 3.561-1.45.213 2.854 2.098 2.98 1.198-2.341 2.311-2.169.469 1.959 2.78 1.53.772-2.383 2.013-2.766 1.706 2.102 4.192-.298.128-2.341.687-3.279 1.07.681 1.795-1.488.085-1.362 0-2.383 2.61-1.576 2.119-3.959z"/><path id="M" d="M24.064 18.562h-1.753c-.04.001-.08-.006-.117-.02s-.071-.037-.099-.064a.29.29 0 0 1-.066-.098c-.015-.037-.022-.076-.021-.116v-.467a.29.29 0 0 1 .022-.115c.015-.036.037-.07.066-.097a.3.3 0 0 1 .099-.065c.037-.015.077-.022.117-.021h1.753c.04-.001.079.007.116.022s.07.037.098.065.05.061.064.098.021.075.02.114v.467c-.043.13-.171.298-.299.298z"/><path id="N" d="M24.494 13.371a.34.34 0 0 1-.175-.042l-.384-.256a.23.23 0 0 1-.085-.069c-.022-.029-.037-.063-.043-.1a.32.32 0 0 1 .043-.214l.9-1.534c.035-.065.095-.115.166-.138s.149-.019.217.012l.384.256c.034.015.064.039.087.068a.23.23 0 0 1 .045.1c0 .088 0 .172-.047.214l-.904 1.534c0 .126-.119.168-.205.168z"/><path id="O" d="M22.009 10.176c-.023.003-.047 0-.069-.007s-.042-.019-.059-.035l-.384-.256a.32.32 0 0 1-.125-.194c-.016-.078-.002-.158.04-.226l.9-1.517c.036-.065.095-.115.166-.138s.149-.019.217.012l.384.256a.23.23 0 0 1 .085.069c.022.029.037.063.043.1a.32.32 0 0 1-.043.214l-.895 1.576c-.085.063-.171.147-.26.147z"/><path id="P" d="M19.654 6.515a.16.16 0 0 1-.069-.007c-.022-.007-.042-.019-.059-.035a.33.33 0 0 1-.171-.168l-.597-1.702c-.021-.032-.033-.069-.033-.107s.012-.075.033-.107a.33.33 0 0 1 .171-.168l.426-.172c.171-.042.341 0 .384.172l.601 1.702c.043.168 0 .34-.171.383l-.426.168c-.004.042-.047.042-.09.042z"/><path id="Q" d="M17.215 7.154l-.085.084c-.064.037-.139.053-.213.046l-1.753-.471c-.085 0-.128-.084-.171-.126-.031-.067-.046-.141-.043-.214l.128-.42c.008-.036.023-.071.044-.102a.28.28 0 0 1 .081-.077c.032-.02.067-.033.105-.04s.075-.005.112.004l1.753.471c.085 0 .132.084.175.126.031.067.046.141.043.214l-.132.42c0 .029 0 .084-.043.084z"/><path id="R" d="M12.938 4.09c-.072-.002-.141-.029-.196-.075s-.091-.111-.103-.181l-.085-.467c-.011-.074.004-.15.043-.214.016-.033.04-.062.07-.084s.064-.037.101-.042l1.706-.383c.074-.011.149.004.213.042.034.016.064.039.087.068s.039.064.045.1l.072.462c.015.079.002.16-.038.23s-.103.124-.18.152l-1.706.383-.03.008z"/><path id="S" d="M18.03 21.332a.16.16 0 0 1-.069-.007c-.022-.007-.042-.019-.059-.035l-.384-.256c-.065-.047-.109-.116-.125-.194s-.002-.158.04-.226l.896-1.534c.035-.066.096-.117.168-.14s.151-.018.22.014l.384.252c.033.017.062.041.084.071s.037.065.043.101c.011.074-.004.15-.043.214l-.883 1.526c-.102.172-.188.214-.273.214z"/><path id="T" d="M5.279 10.307l-1.544-.769c-.067-.036-.117-.095-.141-.166a.29.29 0 0 1 .013-.216l.213-.42c.013-.036.035-.069.063-.096a.26.26 0 0 1 .1-.059c.037-.012.077-.016.116-.011s.076.019.109.04l1.539.765c.067.036.117.095.141.166a.29.29 0 0 1-.013.216l-.213.42c-.034.067-.093.118-.165.142s-.15.02-.219-.012z"/><path id="U" d="M5.45 17.881c-.043-.042-.085-.084-.085-.126l-.213-.42a.35.35 0 0 1-.01-.232c.023-.076.072-.143.138-.188l1.582-.841a.47.47 0 0 1 .213-.042c.064.031.122.074.171.126l.213.42c.047.088.047.172 0 .214-.033.064-.076.122-.128.172l-1.582.841a.47.47 0 0 1-.213.042c-.023.021-.054.033-.085.034z"/><path id="V" d="M7.459 7.368c-.06.002-.119-.013-.171-.042l-.384-.256a.32.32 0 0 1-.125-.194c-.016-.078-.002-.158.039-.226l.9-1.534c.035-.065.095-.115.166-.138s.149-.019.217.012l.384.256a.23.23 0 0 1 .085.069c.022.029.037.063.043.1.011.074-.004.15-.043.214l-.896 1.53c-.043.088-.09.13-.175.13 0 .08-.043.08-.043.08z"/><path id="W" d="M6.362 14.35c-.024.022-.053.038-.084.048a.23.23 0 0 1-.096.009c-.032-.004-.064-.015-.091-.032s-.051-.04-.069-.067l-1.365-1.152c-.056-.054-.091-.126-.099-.202s.012-.154.057-.218l.299-.341c.058-.053.134-.083.213-.084.085 0 .175 0 .217.084l1.369 1.148c.052.066.095.138.128.214.011.074-.004.15-.043.214l-.299.341c-.111.038-.111.038-.136.038z"/><path id="X" d="M7.975 22.055c-.066-.001-.13-.022-.184-.06s-.094-.092-.115-.154l-.461-1.744c-.012-.039-.016-.08-.011-.12s.017-.079.037-.115.047-.067.079-.092.069-.044.109-.055l.426-.126c.074-.011.149.004.213.042.085.042.128.084.128.168l.469 1.744a.32.32 0 0 1-.043.214c-.043.084-.085.126-.171.126l-.426.13c.043.042-.009.042-.051.042z"/><path id="Y" d="M13.753 22.95a.33.33 0 0 1-.185-.061c-.054-.038-.095-.092-.117-.154l-.427-1.744c-.012-.039-.017-.08-.012-.12a.3.3 0 0 1 .036-.116c.02-.036.047-.067.079-.092a.31.31 0 0 1 .11-.054l.426-.13c.074-.011.149.004.213.042.033.017.062.041.085.071s.037.065.043.101l.469 1.744c.011.074-.004.15-.043.214-.043.084-.085.126-.171.126l-.427.13c-.038.042-.038.042-.081.042z"/><path id="Z" d="M21.027 12.774l-9.889-5.107c-.81-.42-1.497.084-1.497 1.152l.085 9.79c0 1.064.687 1.53 1.501 1.105l9.808-5.321c.844-.467.802-1.19-.009-1.618z"/><path id="a" d="M21.027 12.774l-9.889-5.107c-.81-.42-1.497.084-1.497 1.152v1.316l9.885 5.023 1.458-.807c.895-.425.853-1.147.043-1.576z"/></defs></svg>