<svg width="74" height="45" viewBox="0 0 74 45" fill="none" xmlns="http://www.w3.org/2000/svg">
<path d="M23.076 44.7916C35.814 44.7916 46.1403 34.7702 46.1403 22.4081C46.1403 10.0461 35.814 0.0246582 23.076 0.0246582C10.3379 0.0246582 0.0117188 10.0461 0.0117188 22.4081C0.0117188 34.7702 10.3379 44.7916 23.076 44.7916Z" fill="#EB001B"/>
<path d="M50.9358 44.7916C63.6739 44.7916 74.0001 34.7702 74.0001 22.4081C74.0001 10.0461 63.6739 0.0246582 50.9358 0.0246582C38.1978 0.0246582 27.8716 10.0461 27.8716 22.4081C27.8716 34.7702 38.1978 44.7916 50.9358 44.7916Z" fill="#F79E1B"/>
<path d="M37.0007 4.53247C42.5541 8.6164 46.1298 15.0882 46.1298 22.3634C46.1298 29.6386 42.5541 36.1215 37.0007 40.2054C31.4473 36.1215 27.8716 29.6497 27.8716 22.3634C27.8716 15.077 31.4588 8.6164 37.0007 4.53247Z" fill="#FF5F00"/>
</svg>
