<svg width="120" height="47" viewBox="0 0 120 47" fill="none" xmlns="http://www.w3.org/2000/svg">
<path d="M81.9264 26.6937L83.1262 27.0622C83.0463 27.4102 82.9263 27.6968 82.7463 27.922C82.5663 28.1471 82.3664 28.3314 82.1064 28.4337C81.8465 28.5565 81.5265 28.618 81.1266 28.618C80.6467 28.618 80.2667 28.5565 79.9468 28.4133C79.6468 28.27 79.3869 28.0243 79.1669 27.6558C78.9469 27.3078 78.827 26.837 78.827 26.2843C78.827 25.5474 79.0269 24.9742 79.4069 24.5648C79.7868 24.1554 80.3467 23.9712 81.0466 23.9712C81.6065 23.9712 82.0264 24.094 82.3464 24.3192C82.6663 24.5443 82.9063 24.8923 83.0463 25.3836L81.8465 25.6498C81.8065 25.5065 81.7665 25.4041 81.7065 25.3427C81.6265 25.2403 81.5465 25.1585 81.4265 25.097C81.3066 25.0356 81.1866 25.0152 81.0666 25.0152C80.7666 25.0152 80.5267 25.138 80.3667 25.4041C80.2467 25.5883 80.1867 25.8954 80.1867 26.2843C80.1867 26.7756 80.2667 27.1236 80.4067 27.3079C80.5467 27.4921 80.7666 27.5944 81.0266 27.5944C81.2866 27.5944 81.4865 27.5126 81.6065 27.3693C81.7665 27.185 81.8665 26.9803 81.9264 26.6937Z" fill="#225E63"/>
<path d="M83.6061 26.284C83.6061 25.547 83.8061 24.9739 84.206 24.5645C84.606 24.1551 85.1659 23.9503 85.8858 23.9503C86.6256 23.9503 87.1855 24.1551 87.5855 24.544C87.9854 24.9534 88.1854 25.5061 88.1854 26.243C88.1854 26.7753 88.1054 27.2051 87.9254 27.5327C87.7455 27.8602 87.5055 28.1263 87.1656 28.3105C86.8456 28.4948 86.4257 28.5971 85.9458 28.5971C85.4458 28.5971 85.0459 28.5152 84.706 28.3515C84.386 28.1877 84.1261 27.9421 83.9061 27.5736C83.6861 27.2051 83.6061 26.8162 83.6061 26.284ZM84.9659 26.284C84.9659 26.7343 85.0459 27.0618 85.2059 27.2666C85.3658 27.4713 85.5858 27.5736 85.8858 27.5736C86.1857 27.5736 86.4057 27.4713 86.5657 27.287C86.7256 27.0823 86.8056 26.7343 86.8056 26.243C86.8056 25.8132 86.7256 25.5061 86.5457 25.3219C86.3857 25.1172 86.1457 25.0353 85.8658 25.0353C85.5858 25.0353 85.3658 25.1376 85.2059 25.3423C85.0459 25.5061 84.9659 25.8336 84.9659 26.284Z" fill="#225E63"/>
<path d="M88.8852 24.0322H90.6649L91.3448 26.7753L92.0247 24.0322H93.8044V28.5357H92.6846V25.0967L91.8247 28.5357H90.8249L89.965 25.0967V28.5357H88.8452V24.0322H88.8852Z" fill="#225E63"/>
<path d="M94.6843 24.0322H96.944C97.4439 24.0322 97.8038 24.1551 98.0438 24.4007C98.2837 24.6464 98.4037 24.9739 98.4037 25.4242C98.4037 25.8746 98.2637 26.243 98.0038 26.4887C97.7438 26.7548 97.3239 26.8776 96.784 26.8776H96.0441V28.5562H94.6843V24.0322V24.0322ZM96.0441 25.9565H96.384C96.644 25.9565 96.824 25.9155 96.944 25.8132C97.0439 25.7108 97.1039 25.6085 97.1039 25.4652C97.1039 25.3219 97.0639 25.1991 96.964 25.0967C96.864 24.9943 96.704 24.9534 96.444 24.9534H96.0641V25.9565H96.0441Z" fill="#225E63"/>
<path d="M99.1235 24.0322H100.483V27.4303H102.603V28.5357H99.1235V24.0322Z" fill="#225E63"/>
<path d="M103.283 24.0322H104.643V28.5357H103.283V24.0322Z" fill="#225E63"/>
<path d="M108.322 27.7783H106.782L106.562 28.5152H105.183L106.842 24.0118H108.322L109.982 28.5152H108.562L108.322 27.7783ZM108.042 26.8162L107.562 25.199L107.082 26.8162H108.042Z" fill="#225E63"/>
<path d="M110.402 24.0322H111.661L113.321 26.5296V24.0322H114.601V28.5357H113.321L111.681 26.0588V28.5357H110.402V24.0322V24.0322Z" fill="#225E63"/>
<path d="M115.201 24.0322H119.34V25.1376H117.96V28.5357H116.601V25.1376H115.221V24.0322H115.201Z" fill="#225E63"/>
<path d="M65.5691 30.8898L69.5084 29.6206L68.2286 26.7138C67.2888 27.9216 66.3489 29.4774 65.5691 30.8898ZM64.2293 17.6045L56.5106 0L0 3.27526L15.6574 47L45.7924 37.2766C43.8727 34.4517 43.1728 31.0945 45.3924 29.4569C47.872 27.6145 51.6114 29.7435 53.991 32.7526C56.2906 28.8223 62.7495 19.672 64.2293 17.6045Z" fill="#225E63"/>
<path d="M54.7501 12.7223C57.1097 12.7223 59.0294 10.8799 59.0294 8.58726C59.0294 6.29457 57.1097 4.45224 54.7501 4.45224C52.3905 4.45224 50.4708 6.29457 50.4708 8.58726C50.4708 10.8595 52.3905 12.7223 54.7501 12.7223ZM51.2507 14.5032H58.2495V33.2336H51.2507V14.5032Z" fill="#FEFEFE"/>
<path d="M47.7913 19.9688C47.8513 19.9893 47.8912 19.9688 47.8912 19.9074V15.1582C47.8912 15.0968 47.8513 15.0354 47.7913 14.9945C47.7913 14.9945 46.8714 14.3804 44.0719 14.2166C43.9319 14.1347 41.4723 14.1143 40.8124 14.2166C30.6141 15.0559 30.2342 22.6095 30.2342 22.937V24.7793C30.2342 25.0045 30.2342 32.7218 40.8124 33.3974C41.8523 33.4792 43.8719 33.3974 44.0719 33.3974C46.5115 33.3974 48.1912 32.64 48.1912 32.64C48.2512 32.6195 48.2912 32.5581 48.2912 32.4967V28.0546C48.2912 27.9932 48.2512 27.9727 48.2112 28.0136C48.2112 28.0136 47.4513 28.6278 44.1319 28.9758C43.192 29.0781 42.7321 29.0372 42.3922 28.9758C37.673 28.1569 37.453 24.636 37.453 24.636C37.453 24.5746 37.433 24.4723 37.433 24.4313V23.0803C37.433 23.0189 37.433 22.9165 37.453 22.8756C37.453 22.8756 37.7729 19.0886 42.3922 18.6792H44.1319C46.1515 18.9453 47.7913 19.9688 47.7913 19.9688Z" fill="#FEFEFE"/>
<path d="M10.7974 33.1722C10.7974 33.2336 10.8374 33.2745 10.8974 33.2745H17.7163C17.7763 33.2745 17.8163 33.2336 17.8163 33.1722V27.7271C17.8163 27.6657 17.8562 27.6247 17.9162 27.6247C17.9162 27.6247 28.8144 28.4231 28.8144 20.9514C28.8144 15.0354 21.9756 14.4008 19.7359 14.5032C19.6959 14.5032 10.8974 14.5032 10.8974 14.5032C10.8374 14.5032 10.7974 14.5441 10.7974 14.6056V33.1722ZM17.6963 23.4692V18.5768H19.376C19.376 18.5768 21.7956 18.6792 21.9956 20.3782C22.0356 20.501 22.0356 21.3403 21.9956 21.3812C21.6756 23.3669 19.576 23.4692 19.576 23.4692H17.6963Z" fill="#FEFEFE"/>
<path d="M54.9509 42.2713C55.5108 42.2713 55.9507 42.2713 56.6706 41.9438C59.1502 40.6132 67.5288 19.672 76.3673 13.2239C76.4273 13.1829 76.4873 13.1215 76.5273 13.0601C76.5872 12.9782 76.5872 12.8963 76.5872 12.8963C76.5872 12.8963 76.5872 12.4665 75.2875 12.4665C67.4288 12.2413 59.2501 29.1294 54.9509 35.8027C54.8909 35.8846 54.6109 35.8027 54.6109 35.8027C54.6109 35.8027 51.7314 32.3227 49.2318 30.9922C49.1718 30.9717 48.8919 30.8693 48.5919 30.8898C48.3919 30.8898 47.2321 31.1355 46.6922 31.7086C46.0523 32.4046 46.0723 32.7936 46.0723 33.6328C46.0723 33.6943 46.1123 33.9808 46.1923 34.1241C46.8122 35.2295 49.5917 39.1598 51.8914 41.3297C52.2313 41.5958 52.7712 42.2713 54.9509 42.2713Z" fill="#2BBC5D"/>
<path d="M78.687 6.89851H85.2259C86.5256 6.89851 87.5655 7.08275 88.3453 7.43075C89.1452 7.79921 89.8051 8.31097 90.305 8.96602C90.8249 9.64155 91.2049 10.4194 91.4248 11.2996C91.6648 12.1799 91.7848 13.1215 91.7848 14.1246C91.7848 15.6803 91.6048 16.8881 91.2649 17.7478C90.9249 18.6076 90.445 19.324 89.8251 19.9177C89.2052 20.4908 88.5453 20.8798 87.8454 21.0845C86.8856 21.3506 86.0057 21.4734 85.2259 21.4734H78.687V6.89851V6.89851ZM83.0862 10.1942V18.1572H84.166C85.0859 18.1572 85.7458 18.0549 86.1257 17.8502C86.5056 17.6455 86.8256 17.277 87.0456 16.7652C87.2655 16.2535 87.3855 15.3937 87.3855 14.2269C87.3855 12.6712 87.1455 11.6272 86.6456 11.054C86.1457 10.4808 85.3458 10.1942 84.186 10.1942H83.0862Z" fill="#225E63"/>
<path d="M93.0046 16.6629L97.2039 16.3968C97.3039 17.0928 97.4838 17.625 97.7638 17.9935C98.2237 18.5871 98.8636 18.8737 99.7035 18.8737C100.323 18.8737 100.823 18.7304 101.163 18.4233C101.503 18.1163 101.683 17.7683 101.683 17.3794C101.683 17.0109 101.523 16.6629 101.203 16.3558C100.883 16.0488 100.123 15.7827 98.9436 15.5165C97.0039 15.0662 95.6441 14.4726 94.8043 13.7356C93.9644 12.9987 93.5645 12.0571 93.5645 10.9107C93.5645 10.1533 93.7844 9.45732 94.2044 8.78179C94.6243 8.10627 95.2642 7.59451 96.1241 7.20557C96.9839 6.81663 98.1437 6.6324 99.6235 6.6324C101.443 6.6324 102.843 6.9804 103.783 7.67639C104.743 8.37238 105.303 9.47778 105.482 10.9926L101.323 11.2382C101.203 10.5832 100.983 10.1124 100.623 9.80531C100.263 9.49826 99.7835 9.35496 99.1636 9.35496C98.6436 9.35496 98.2637 9.45732 98.0037 9.68249C97.7438 9.90766 97.6238 10.1738 97.6238 10.5013C97.6238 10.7265 97.7238 10.9517 97.9438 11.1359C98.1437 11.3201 98.6436 11.5043 99.4235 11.6681C101.343 12.098 102.723 12.5279 103.563 12.9578C104.403 13.3876 105.003 13.9403 105.383 14.5749C105.762 15.2095 105.942 15.9464 105.942 16.7448C105.942 17.6864 105.682 18.5462 105.183 19.324C104.683 20.1224 103.963 20.716 103.063 21.1254C102.163 21.5348 101.003 21.7395 99.6235 21.7395C97.2039 21.7395 95.5242 21.2687 94.5843 20.3066C93.6645 19.3445 93.1446 18.1368 93.0046 16.6629Z" fill="#225E63"/>
<path d="M107.062 16.6629L111.261 16.3968C111.361 17.0928 111.541 17.625 111.821 17.9935C112.281 18.5871 112.921 18.8737 113.761 18.8737C114.381 18.8737 114.881 18.7304 115.221 18.4233C115.561 18.1163 115.741 17.7683 115.741 17.3794C115.741 17.0109 115.581 16.6629 115.261 16.3558C114.941 16.0488 114.181 15.7827 113.001 15.5165C111.061 15.0662 109.702 14.4726 108.862 13.7356C108.042 12.9987 107.622 12.0571 107.622 10.9107C107.622 10.1533 107.842 9.45732 108.262 8.78179C108.682 8.10627 109.322 7.59451 110.182 7.20557C111.041 6.81663 112.201 6.6324 113.681 6.6324C115.501 6.6324 116.9 6.9804 117.84 7.67639C118.8 8.37238 119.36 9.47778 119.54 10.9926L115.381 11.2382C115.261 10.5832 115.041 10.1124 114.681 9.80531C114.321 9.49826 113.841 9.35496 113.221 9.35496C112.701 9.35496 112.321 9.45732 112.061 9.68249C111.801 9.90766 111.681 10.1738 111.681 10.5013C111.681 10.7265 111.781 10.9517 112.001 11.1359C112.201 11.3201 112.701 11.5043 113.481 11.6681C115.401 12.098 116.781 12.5279 117.62 12.9578C118.46 13.3876 119.06 13.9403 119.44 14.5749C119.82 15.2095 120 15.9464 120 16.7448C120 17.6864 119.74 18.5462 119.24 19.324C118.74 20.1224 118.02 20.716 117.12 21.1254C116.221 21.5348 115.061 21.7395 113.681 21.7395C111.261 21.7395 109.582 21.2687 108.642 20.3066C107.702 19.3445 107.182 18.1368 107.062 16.6629Z" fill="#225E63"/>
</svg>
