<svg width="101" height="34" viewBox="0 0 101 34" fill="none" xmlns="http://www.w3.org/2000/svg">
<path d="M0.0161133 1.78846C0.0800477 1.59784 0.156769 1.14034 0.246277 0.860761C0.489228 0.860761 0.757753 0.860761 1.02628 0.860761C5.34825 0.860761 8.11139 0.809339 12.4334 0.809339C14.6839 0.809339 16.0776 1.91496 16.4996 4.12619C17.612 9.92115 18.6989 15.7161 19.7986 21.5238C19.837 21.7398 19.9009 21.9686 20.0032 22.3625C20.3996 21.3586 20.7448 20.5325 21.0773 19.6938C23.5068 13.5938 25.9363 7.50658 28.3403 1.40663C28.5193 0.974546 28.6983 0.796631 29.197 0.796631C31.6009 0.822047 34.0176 0.809339 36.4216 0.809339C36.6517 0.809339 36.8819 0.809339 37.2271 0.809339C37.0737 1.19059 36.9586 1.49558 36.8308 1.80058C32.5983 11.8655 28.353 21.9304 24.1334 32.0081C23.9671 32.4147 23.7498 32.5799 23.2894 32.5799C20.7704 32.5545 18.2642 32.5545 15.7452 32.5799C15.2593 32.5799 15.093 32.4147 14.9779 31.9699C13.0088 24.3323 11.0268 16.6946 9.04483 9.05699C8.82746 8.21824 8.58451 7.3795 8.36713 6.54076C8.11139 5.54951 7.49762 4.86327 6.58975 4.40577C4.01959 3.12224 2.84202 2.37304 0.0161133 1.78846C0.0161133 1.87742 0.0161133 1.6995 0.0161133 1.78846Z" fill="white"/>
<path d="M71.125 32.4783C72.9535 28.1575 74.7565 23.8621 76.5594 19.5794C78.8355 14.1784 81.1116 8.77743 83.3748 3.37643C84.0909 1.66082 85.3568 0.809365 87.2365 0.834781C89.308 0.872906 91.3666 0.847489 93.4381 0.834781C93.8345 0.834781 94.0135 0.898322 94.1158 1.35582C95.5352 8.20556 96.9801 15.0553 98.425 21.905C99.1283 25.2346 99.8316 28.5641 100.535 31.8937C100.573 32.0716 100.573 32.2622 100.599 32.491C100.317 32.5037 100.087 32.5291 99.8571 32.5291C97.8112 32.5291 95.7653 32.5164 93.7194 32.5418C93.2207 32.5418 93.0161 32.3893 92.9266 31.8937C92.7093 30.661 92.4152 29.4537 92.185 28.2337C92.1211 27.9033 91.9676 27.7762 91.6352 27.7762C88.4001 27.7889 85.165 27.7889 81.9171 27.7762C81.5463 27.7762 81.3929 27.9287 81.2778 28.2464C80.8302 29.5173 80.3699 30.8008 79.884 32.0589C79.8073 32.2622 79.5388 32.5291 79.3597 32.5291C76.6745 32.5545 73.9893 32.5418 71.304 32.5291C71.2657 32.5418 71.2273 32.5164 71.125 32.4783ZM83.8224 21.295C86.1752 21.295 88.4129 21.295 90.7145 21.295C89.8834 17.3428 89.065 13.4541 88.2594 9.56534C88.2083 9.56534 88.1443 9.56534 88.0932 9.56534C86.6866 13.4541 85.2673 17.3428 83.8224 21.295Z" fill="white"/>
<path d="M47.9297 31.3726C48.4284 29.047 48.9143 26.7976 49.4258 24.4466C49.7582 24.5991 50.0523 24.7262 50.3464 24.866C53.0189 26.1114 55.832 26.6578 58.7858 26.3909C59.8343 26.302 60.8444 26.0224 61.714 25.387C63.1717 24.3322 63.3251 22.5785 61.9441 21.4474C61.0363 20.6977 59.9877 20.1004 58.9392 19.5539C57.1618 18.6262 55.41 17.6858 53.914 16.326C49.8861 12.6661 51.152 7.22693 53.8884 4.39299C56.0622 2.13092 58.7985 1.02531 61.8163 0.516978C65.4989 -0.105725 69.1048 0.300939 72.634 1.50822C72.7363 1.54635 72.8258 1.59718 72.9792 1.67343C72.5061 3.87195 72.033 6.08318 71.5854 8.18004C70.0894 7.78609 68.6317 7.31588 67.1356 7.0363C65.4989 6.7313 63.8238 6.64235 62.2126 7.21422C61.5989 7.43026 60.9723 7.81151 60.4992 8.25629C59.6681 9.0442 59.6425 10.2134 60.4992 10.9631C61.292 11.6748 62.2254 12.2467 63.1461 12.8058C64.5399 13.6573 66.0231 14.3817 67.4041 15.2458C73.6697 19.1854 71.8028 26.6705 68.0307 29.7205C65.8058 31.5124 63.2356 32.4528 60.4608 32.8213C56.4074 33.3678 52.4435 32.9611 48.569 31.6267C48.3644 31.5632 48.1854 31.4742 47.9297 31.3726Z" fill="white"/>
<path d="M42.2397 32.5417C39.4778 32.5417 36.7797 32.5417 33.9922 32.5417C36.2683 21.9812 38.5315 11.4461 40.8076 0.872803C43.5184 0.872803 46.242 0.872803 49.0296 0.872803C46.7791 11.4206 44.5158 21.9558 42.2397 32.5417Z" fill="white"/>
</svg>
