<svg width="33" height="32" viewBox="0 0 33 32" fill="none" xmlns="http://www.w3.org/2000/svg">
<path d="M28.9723 9.38537L28.9728 9.40647L28.9728 9.4069C29.0329 12.5783 29.1078 16.5252 27.7848 20.1115C27.0589 22.0785 25.9612 23.7882 24.5215 25.1936C22.8825 26.7935 20.7366 28.0644 18.1427 28.9714C18.0578 29.001 17.9692 29.0252 17.88 29.0432C17.7545 29.0685 17.6273 29.0811 17.5002 29.0811C17.3736 29.0811 17.2465 29.0685 17.1204 29.0432C17.0307 29.0252 16.9432 29.0015 16.8587 28.972C14.2618 28.0665 12.1132 26.7962 10.4731 25.1962C9.03294 23.7908 7.93517 22.0817 7.21035 20.1152C5.89155 16.5393 5.96645 12.6001 6.02712 9.43441L6.02817 9.38537C6.03978 9.12381 6.04769 8.84959 6.05244 8.54637C6.07407 7.05768 7.25836 5.82633 8.74755 5.74301C11.8531 5.56951 14.2554 4.55754 16.308 2.55732L16.3254 2.54045C16.9948 1.92662 18.0051 1.92662 18.6745 2.54045L18.6919 2.55732C20.7445 4.55754 23.1468 5.56951 26.2529 5.74301C27.7421 5.82633 28.9258 7.05768 28.948 8.54637C28.9527 8.8517 28.9607 9.12592 28.9723 9.38537Z" fill="#09BC8A"/>
<path d="M18.5714 17.7365V16.848C19.7521 16.1792 20.7143 14.5132 20.7143 12.8462C20.7143 10.17 20.7143 8 17.5 8C14.2857 8 14.2857 10.17 14.2857 12.8462C14.2857 14.5132 15.2479 16.1792 16.4286 16.848V17.7365C14.3735 17.9051 12.5871 18.5525 11.4226 19.4755C10.1241 20.5047 11.3431 22 13 22H22C23.6569 22 24.8759 20.5047 23.5774 19.4755C22.4129 18.5525 20.6265 17.9051 18.5714 17.7365Z" fill="white"/>
</svg>
