<svg xmlns="http://www.w3.org/2000/svg" width="100%" height="100%" viewBox="0 0 510 250"><g transform="translate(1, 1)"><g fill="none" class="nc-icon-wrapper"><path d="M11.872 2.848v7.863" stroke="#172A3A" stroke-width="2" stroke-miterlimit="10" stroke-linecap="round" stroke-linejoin="round"/><path d="M36.417 2.848v7.863" stroke="#172A3A" stroke-width="2" stroke-miterlimit="10" stroke-linecap="round" stroke-linejoin="round"/><path d="M39.345 41h-30.4c-2.1 0-3.8-1.7-3.8-3.8V10.8c0-2.1 1.7-3.8 3.8-3.8h30.4c2.1 0 3.8 1.7 3.8 3.8v26.4c0 2.1-1.7 3.8-3.8 3.8z" stroke="#172A3A" stroke-width="2" stroke-miterlimit="10" stroke-linecap="round" stroke-linejoin="round"/><path d="M12.145 27a1 1 0 1 0 0-2 1 1 0 0 0 0 2z" fill="#172A3A" stroke="#172A3A" stroke-miterlimit="10" stroke-linecap="round" stroke-linejoin="round"/><path d="M20.145 27a1 1 0 1 0 0-2 1 1 0 0 0 0 2z" fill="#172A3A" stroke="#172A3A" stroke-miterlimit="10" stroke-linecap="round" stroke-linejoin="round"/><path d="M28.145 27a1 1 0 1 0 0-2 1 1 0 0 0 0 2z" fill="#172A3A" stroke="#172A3A" stroke-miterlimit="10" stroke-linecap="round" stroke-linejoin="round"/><path d="M36.145 27a1 1 0 1 0 0-2 1 1 0 0 0 0 2z" fill="#172A3A" stroke="#172A3A" stroke-miterlimit="10" stroke-linecap="round" stroke-linejoin="round"/><path d="M12.145 19a1 1 0 1 0 0-2 1 1 0 0 0 0 2z" fill="#172A3A" stroke="#172A3A" stroke-miterlimit="10" stroke-linecap="round" stroke-linejoin="round"/><path d="M20.145 19a1 1 0 1 0 0-2 1 1 0 0 0 0 2z" fill="#172A3A" stroke="#172A3A" stroke-miterlimit="10" stroke-linecap="round" stroke-linejoin="round"/><path d="M28.145 19a1 1 0 1 0 0-2 1 1 0 0 0 0 2z" fill="#172A3A" stroke="#172A3A" stroke-miterlimit="10" stroke-linecap="round" stroke-linejoin="round"/><path d="M36.145 19a1 1 0 1 0 0-2 1 1 0 0 0 0 2z" fill="#172A3A" stroke="#172A3A" stroke-miterlimit="10" stroke-linecap="round" stroke-linejoin="round"/><path d="M12.145 35a1 1 0 1 0 0-2 1 1 0 0 0 0 2z" fill="#172A3A" stroke="#172A3A" stroke-miterlimit="10" stroke-linecap="round" stroke-linejoin="round"/><path d="M20.145 35a1 1 0 1 0 0-2 1 1 0 0 0 0 2z" fill="#172A3A" stroke="#172A3A" stroke-miterlimit="10" stroke-linecap="round" stroke-linejoin="round"/><path d="M28.145 35a1 1 0 1 0 0-2 1 1 0 0 0 0 2z" fill="#172A3A" stroke="#172A3A" stroke-miterlimit="10" stroke-linecap="round" stroke-linejoin="round"/></g></g><g transform="translate(52, 0.5)"><g fill="none" class="nc-icon-wrapper"><path d="M43.94 21.238h-.5c-.76 0-1.48-.42-1.78-1.1-.72-1.62-1.88-3.1-3.36-4.36l1.64-6.54s-3.9.66-5.4 2.48c-.54.66-1.4 1-2.22.72-2.24-.76-4.74-1.2-7.38-1.2-9.74 0-17.64 5.82-17.64 13 0 3.58 1.98 6.82 5.16 9.18.68.5.94 1.38.72 2.2l-1.46 5.42 5.8 1.56 1.14-4.24c.26-1 1.24-1.62 2.24-1.44 1.3.22 2.64.36 4.04.36s2.74-.12 4.04-.36c1-.18 1.98.46 2.24 1.44l1.14 4.24 5.8-1.56-1.48-5.5c-.2-.78.04-1.62.7-2.08 1.92-1.42 3.4-3.16 4.28-5.1.32-.7 1.02-1.1 1.78-1.1h.5c1.1 0 2-.9 2-2v-2c0-1.12-.9-2.02-2-2.02z" stroke="#172A3A" stroke-width="2" stroke-miterlimit="10" stroke-linecap="round" stroke-linejoin="round"/><path d="M34.94 23.238a1 1 0 1 0 0-2 1 1 0 0 0 0 2z" stroke="#172A3A" stroke-width="2" stroke-miterlimit="10" stroke-linecap="round" stroke-linejoin="round"/><path d="M6.88 16.558c-1.66-1.88-1.38-6.96 1.06-6.32 3.06.8-.82 8-4 8" stroke="#172A3A" stroke-width="2" stroke-miterlimit="10" stroke-linecap="round" stroke-linejoin="round"/><path d="M29.9 11.778c-.24-3.64-3.26-6.54-6.96-6.54-3.86 0-7 3.14-7 7 0 .28.04.54.08.8" stroke="#172A3A" stroke-width="2" stroke-miterlimit="10" stroke-linecap="round" stroke-linejoin="round"/></g></g><g transform="translate(103, 1)"><g fill="none" class="nc-icon-wrapper"><path d="M24.066 9v32" stroke="#30485B" stroke-width="2" stroke-miterlimit="10" stroke-linecap="round" stroke-linejoin="round"/><path d="M34.066 19l-10-12-10 12" stroke="#30485B" stroke-width="2" stroke-miterlimit="10" stroke-linecap="round" stroke-linejoin="round"/></g></g><g transform="translate(154, 1)"><g fill="none" class="nc-icon-wrapper"><path d="M24.904 33.41V12.59" stroke="#30485B" stroke-width="2" stroke-miterlimit="10" stroke-linecap="round" stroke-linejoin="round"/><path d="M14.904 23.41l10 12 10-12" stroke="#30485B" stroke-width="2" stroke-miterlimit="10" stroke-linecap="round" stroke-linejoin="round"/></g></g><g transform="translate(205.5, 0.5)"><g fill="none" class="nc-icon-wrapper"><path d="M41 39.238H7c-2.2 0-4-1.8-4-4v-12h14v2c0 2.2 1.8 4 4 4h6c2.2 0 4-1.8 4-4v-2h14v12c0 2.2-1.8 4-4 4z" stroke="#172A3A" stroke-width="2" stroke-miterlimit="10" stroke-linecap="round" stroke-linejoin="round"/><path d="M3 23.238l6.84-11.98a3.991 3.991 0 0 1 3.48-2.02h21.36c1.44 0 2.76.76 3.48 2.02L45 23.238" stroke="#172A3A" stroke-width="2" stroke-miterlimit="10" stroke-linecap="round" stroke-linejoin="round"/></g></g><g transform="translate(256, 0.5)"><g fill="none" class="nc-icon-wrapper"><path d="M13.085 15.238h-4.16a1.92 1.92 0 0 1-1.92-1.92v-4.16c0-1.06.86-1.92 1.92-1.92h4.16c1.06 0 1.92.86 1.92 1.92v4.16c0 1.06-.86 1.92-1.92 1.92z" stroke="#172A3A" stroke-width="2" stroke-miterlimit="10" stroke-linecap="round" stroke-linejoin="round"/><path d="M26.085 15.238h-4.16a1.92 1.92 0 0 1-1.92-1.92v-4.16c0-1.06.86-1.92 1.92-1.92h4.16c1.06 0 1.92.86 1.92 1.92v4.16c0 1.06-.86 1.92-1.92 1.92z" stroke="#172A3A" stroke-width="2" stroke-miterlimit="10" stroke-linecap="round" stroke-linejoin="round"/><path d="M39.085 15.238h-4.16a1.92 1.92 0 0 1-1.92-1.92v-4.16c0-1.06.86-1.92 1.92-1.92h4.16c1.06 0 1.92.86 1.92 1.92v4.16c0 1.06-.86 1.92-1.92 1.92z" stroke="#172A3A" stroke-width="2" stroke-miterlimit="10" stroke-linecap="round" stroke-linejoin="round"/><path d="M13.085 28.238h-4.16a1.92 1.92 0 0 1-1.92-1.92v-4.16c0-1.06.86-1.92 1.92-1.92h4.16c1.06 0 1.92.86 1.92 1.92v4.16c0 1.06-.86 1.92-1.92 1.92z" stroke="#172A3A" stroke-width="2" stroke-miterlimit="10" stroke-linecap="round" stroke-linejoin="round"/><path d="M26.085 28.238h-4.16a1.92 1.92 0 0 1-1.92-1.92v-4.16c0-1.06.86-1.92 1.92-1.92h4.16c1.06 0 1.92.86 1.92 1.92v4.16c0 1.06-.86 1.92-1.92 1.92z" stroke="#172A3A" stroke-width="2" stroke-miterlimit="10" stroke-linecap="round" stroke-linejoin="round"/><path d="M39.085 28.238h-4.16a1.92 1.92 0 0 1-1.92-1.92v-4.16c0-1.06.86-1.92 1.92-1.92h4.16c1.06 0 1.92.86 1.92 1.92v4.16c0 1.06-.86 1.92-1.92 1.92z" stroke="#172A3A" stroke-width="2" stroke-miterlimit="10" stroke-linecap="round" stroke-linejoin="round"/><path d="M13.085 41.238h-4.16a1.92 1.92 0 0 1-1.92-1.92v-4.16c0-1.06.86-1.92 1.92-1.92h4.16c1.06 0 1.92.86 1.92 1.92v4.16c0 1.06-.86 1.92-1.92 1.92z" stroke="#172A3A" stroke-width="2" stroke-miterlimit="10" stroke-linecap="round" stroke-linejoin="round"/><path d="M26.085 41.238h-4.16a1.92 1.92 0 0 1-1.92-1.92v-4.16c0-1.06.86-1.92 1.92-1.92h4.16c1.06 0 1.92.86 1.92 1.92v4.16c0 1.06-.86 1.92-1.92 1.92z" stroke="#172A3A" stroke-width="2" stroke-miterlimit="10" stroke-linecap="round" stroke-linejoin="round"/><path d="M39.085 41.238h-4.16a1.92 1.92 0 0 1-1.92-1.92v-4.16c0-1.06.86-1.92 1.92-1.92h4.16c1.06 0 1.92.86 1.92 1.92v4.16c0 1.06-.86 1.92-1.92 1.92z" stroke="#172A3A" stroke-width="2" stroke-miterlimit="10" stroke-linecap="round" stroke-linejoin="round"/></g></g><g transform="translate(307, 0.5)"><g fill="none" class="nc-icon-wrapper"><path d="M5.508 43.238l.96-2.86a8.015 8.015 0 0 1 4-4.62l9.04-4.52v-2l-5.26-1.32c-1.22-.3-1.88-1.64-1.34-2.76 1.44-2.98 2.08-7.54 2.36-11 .38-4.48 3.7-8.36 8.18-8.86a9.416 9.416 0 0 1 2.12 0c4.48.5 7.8 4.36 8.18 8.86.28 3.46.94 8.02 2.36 11 .54 1.12-.12 2.46-1.34 2.76l-5.26 1.32v2l9.04 4.52c1.9.94 3.34 2.6 4 4.62l.96 2.86" stroke="#172A3A" stroke-width="2" stroke-miterlimit="10" stroke-linecap="round" stroke-linejoin="round"/></g></g><g transform="translate(358, 0.5)"><g fill="none" class="nc-icon-wrapper"><path d="M13.6 41.255c-12.2-12.28 4.06-30.94 9.14-36.2.78-.82 2.06-.8 2.86 0 3.74 3.88 13.56 15.06 13.56 25.58 0 9.32-8.48 16.64-18.14 14.68-2.82-.56-5.4-2.04-7.42-4.06z" stroke="#172A3A" stroke-width="2" stroke-miterlimit="10" stroke-linecap="round" stroke-linejoin="round"/><path d="M22.16 39.415a9.024 9.024 0 0 1-6.78-6.78" stroke="#172A3A" stroke-miterlimit="10" stroke-linecap="round" stroke-linejoin="round"/></g></g><g transform="translate(409, 0.5)"><g fill="none" class="nc-icon-wrapper"><path d="M24.88 37.238v-4" stroke="#172A3A" stroke-miterlimit="10" stroke-linecap="round" stroke-linejoin="round"/><path d="M24.88 33.238a2 2 0 1 0 0-4 2 2 0 0 0 0 4z" stroke="#172A3A" stroke-miterlimit="10" stroke-linecap="round" stroke-linejoin="round"/><path d="M37.88 21.238h-26c-2.2 0-4 1.8-4 4v14c0 2.2 1.8 4 4 4h26c2.2 0 4-1.8 4-4v-14c0-2.2-1.8-4-4-4z" stroke="#172A3A" stroke-width="2" stroke-miterlimit="10" stroke-linecap="round" stroke-linejoin="round"/><path d="M13.88 21.238v-7c0-6.08 4.92-11 11-11s11 4.92 11 11" stroke="#172A3A" stroke-width="2" stroke-miterlimit="10" stroke-linecap="round" stroke-linejoin="round"/></g></g><g transform="translate(460, 1)"><g fill="none" class="nc-icon-wrapper"><path d="M24.005 45c11.598 0 21-9.402 21-21s-9.402-21-21-21-21 9.402-21 21 9.402 21 21 21z" stroke="#172A3A" stroke-width="2" stroke-miterlimit="10" stroke-linecap="round" stroke-linejoin="round"/><path d="M24.005 11v13l7 7" stroke="#172A3A" stroke-width="2" stroke-miterlimit="10" stroke-linecap="round" stroke-linejoin="round"/><path d="M3.005 24h4" stroke="#172A3A" stroke-width="2" stroke-miterlimit="10" stroke-linecap="round" stroke-linejoin="round"/><path d="M41.005 24h4" stroke="#172A3A" stroke-width="2" stroke-miterlimit="10" stroke-linecap="round" stroke-linejoin="round"/><path d="M24.005 45v-4" stroke="#172A3A" stroke-width="2" stroke-miterlimit="10" stroke-linecap="round" stroke-linejoin="round"/><path d="M24.005 7V3" stroke="#172A3A" stroke-width="2" stroke-miterlimit="10" stroke-linecap="round" stroke-linejoin="round"/><path d="M5.826 34.5l3.46-2" stroke="#172A3A" stroke-width="2" stroke-miterlimit="10" stroke-linecap="round" stroke-linejoin="round"/><path d="M38.726 15.5l3.46-2" stroke="#172A3A" stroke-width="2" stroke-miterlimit="10" stroke-linecap="round" stroke-linejoin="round"/><path d="M34.505 42.18l-2-3.46" stroke="#172A3A" stroke-width="2" stroke-miterlimit="10" stroke-linecap="round" stroke-linejoin="round"/><path d="M15.505 9.28l-2-3.46" stroke="#172A3A" stroke-width="2" stroke-miterlimit="10" stroke-linecap="round" stroke-linejoin="round"/><path d="M13.505 42.18l2-3.46" stroke="#172A3A" stroke-width="2" stroke-miterlimit="10" stroke-linecap="round" stroke-linejoin="round"/><path d="M32.505 9.28l2-3.46" stroke="#172A3A" stroke-width="2" stroke-miterlimit="10" stroke-linecap="round" stroke-linejoin="round"/><path d="M42.186 34.5l-3.46-2" stroke="#172A3A" stroke-width="2" stroke-miterlimit="10" stroke-linecap="round" stroke-linejoin="round"/><path d="M9.286 15.5l-3.46-2" stroke="#172A3A" stroke-width="2" stroke-miterlimit="10" stroke-linecap="round" stroke-linejoin="round"/></g></g><g transform="translate(1, 50.5)"><g fill="none" class="nc-icon-wrapper"><path d="M41.313 21.238v20c0 2.2-1.8 4-4 4h-16c-2.2 0-4-1.8-4-4v-26c0-2.2 1.8-4 4-4h10l10 10z" stroke="#172A3A" stroke-width="2" stroke-miterlimit="10" stroke-linecap="round" stroke-linejoin="round"/><path d="M31.314 7.238c0-2.2-1.8-4-4-4h-14c-2.2 0-4 1.8-4 4v26c0 2.2 1.8 4 4 4" stroke="#172A3A" stroke-width="2" stroke-miterlimit="10" stroke-linecap="round" stroke-linejoin="round"/><path d="M41.313 21.238h-8c-1.1 0-2-.9-2-2v-8" stroke="#172A3A" stroke-width="2" stroke-miterlimit="10" stroke-linecap="round" stroke-linejoin="round"/></g></g><g transform="translate(52, 50.5)"><g fill="none" class="nc-icon-wrapper"><path d="M24.479 39.635a3 3 0 1 0 0-6 3 3 0 0 0 0 6z" stroke="#172A3A" stroke-miterlimit="10" stroke-linecap="round" stroke-linejoin="round"/><path d="M24.479 33.635v-12" stroke="#172A3A" stroke-miterlimit="10" stroke-linecap="round" stroke-linejoin="round"/><path d="M39.479 18.635h-4" stroke="#172A3A" stroke-width="2" stroke-miterlimit="10" stroke-linecap="round" stroke-linejoin="round"/><path d="M37.479 24.635h-2" stroke="#172A3A" stroke-width="2" stroke-miterlimit="10" stroke-linecap="round" stroke-linejoin="round"/><path d="M37.479 12.635h-2" stroke="#172A3A" stroke-width="2" stroke-miterlimit="10" stroke-linecap="round" stroke-linejoin="round"/><path d="M39.479 6.635h-4" stroke="#172A3A" stroke-width="2" stroke-miterlimit="10" stroke-linecap="round" stroke-linejoin="round"/><path d="M29.48 28.195V8.935c0-2.62-1.88-5-4.48-5.26-3-.32-5.52 2.02-5.52 4.96v19.52c0 .62-.32 1.18-.8 1.6a8.985 8.985 0 0 0-3.08 8.42c.6 3.56 3.4 6.52 6.94 7.26a9.011 9.011 0 0 0 10.94-8.8c0-2.78-1.26-5.26-3.22-6.9-.48-.4-.78-.94-.78-1.54z" stroke="#172A3A" stroke-width="2" stroke-miterlimit="10" stroke-linecap="round" stroke-linejoin="round"/></g></g><g transform="translate(103, 51)"><g fill="none" class="nc-icon-wrapper"><path d="M24.229 43c10.493 0 19-8.507 19-19s-8.507-19-19-19c-10.494 0-19 8.507-19 19s8.506 19 19 19z" stroke="#172A3A" stroke-width="2" stroke-miterlimit="10" stroke-linecap="round" stroke-linejoin="round"/><path d="M18.229 21a1 1 0 1 0 0-2 1 1 0 0 0 0 2z" stroke="#172A3A" stroke-width="2" stroke-miterlimit="10" stroke-linecap="round" stroke-linejoin="round"/><path d="M30.229 21a1 1 0 1 0 0-2 1 1 0 0 0 0 2z" stroke="#172A3A" stroke-width="2" stroke-miterlimit="10" stroke-linecap="round" stroke-linejoin="round"/><path d="M15.328 27c.5 4.5 4.28 8 8.9 8s8.4-3.5 8.9-8h-17.8z" stroke="#172A3A" stroke-width="2" stroke-miterlimit="10" stroke-linecap="round" stroke-linejoin="round"/></g></g><g transform="translate(154, 50.5)"><g fill="none" class="nc-icon-wrapper"><path d="M24.254 31.238a7 7 0 1 0 0-14 7 7 0 0 0 0 14z" stroke="#172A3A" stroke-width="2" stroke-miterlimit="10" stroke-linecap="round" stroke-linejoin="round"/><path d="M41.254 21.238h-.84c-.86 0-1.56-.6-1.82-1.4-.28-.92-.66-1.8-1.1-2.64-.42-.78-.22-1.74.4-2.36l.5-.5c.78-.78.78-2.04 0-2.82l-1.42-1.42c-.78-.78-2.04-.78-2.82 0l-.5.5c-.62.62-1.58.82-2.36.4-.84-.44-1.72-.82-2.64-1.1-.82-.26-1.4-.96-1.4-1.82v-.84c0-1.1-.9-2-2-2h-2c-1.1 0-2 .9-2 2v.84c0 .86-.6 1.56-1.4 1.82-.92.28-1.8.66-2.64 1.1-.78.42-1.74.22-2.36-.4l-.5-.5c-.78-.78-2.04-.78-2.82 0l-1.42 1.42c-.78.78-.78 2.04 0 2.82l.5.5c.62.62.82 1.58.4 2.36-.44.82-.82 1.7-1.1 2.64-.26.82-.96 1.4-1.82 1.4h-.84c-1.1 0-2 .9-2 2v2c0 1.1.9 2 2 2h.84c.86 0 1.56.6 1.82 1.4.28.92.66 1.8 1.1 2.64.42.78.22 1.74-.4 2.36l-.5.5c-.78.78-.78 2.04 0 2.82l1.42 1.42c.78.78 2.04.78 2.82 0l.5-.5c.62-.62 1.58-.82 2.36-.4.84.44 1.72.82 2.64 1.1.82.26 1.4.96 1.4 1.82v.84c0 1.1.9 2 2 2h2c1.1 0 2-.9 2-2v-.84c0-.86.6-1.56 1.4-1.82.92-.28 1.8-.66 2.64-1.1.78-.42 1.74-.22 2.36.4l.5.5c.78.78 2.04.78 2.82 0l1.42-1.42c.78-.78.78-2.04 0-2.82l-.5-.5c-.62-.62-.82-1.58-.4-2.36.44-.84.82-1.72 1.1-2.64.26-.82.96-1.4 1.82-1.4h.84c1.1 0 2-.9 2-2v-2c0-1.1-.9-2-2-2z" stroke="#172A3A" stroke-width="2" stroke-miterlimit="10" stroke-linecap="round" stroke-linejoin="round"/></g></g><g transform="translate(205, 50.5)"><g fill="none" class="nc-icon-wrapper"><path d="M22.527 34.364c6.302 0 11.41-5.108 11.41-11.41 0-6.302-5.108-11.41-11.41-11.41-6.301 0-11.41 5.108-11.41 11.41 0 6.302 5.109 11.41 11.41 11.41z" stroke="#E84F35" stroke-width="2" stroke-miterlimit="10"/><path d="M37.299 37.726l-6.697-6.697" stroke="#E84F35" stroke-width="2" stroke-miterlimit="10"/></g></g><g transform="translate(256, 51)"><g fill="none" class="nc-icon-wrapper"><path d="M31.648 15h6c2.2 0 4-1.8 4-4V5" stroke="#172A3A" stroke-width="2" stroke-miterlimit="10" stroke-linecap="round" stroke-linejoin="round"/><path d="M43.648 24c0 10.5-8.5 19-19 19s-19-8.5-19-19 8.5-19 19-19c6.7 0 12.58 3.46 15.96 8.68" stroke="#172A3A" stroke-width="2" stroke-miterlimit="10" stroke-linecap="round" stroke-linejoin="round"/></g></g><g transform="translate(307, 51)"><g fill="none" class="nc-icon-wrapper"><path d="M7.381 32.083H34.13a3.677 3.677 0 0 0 3.666-3.666v-5.5" stroke="#172A3A" stroke-width="2" stroke-miterlimit="10" stroke-linecap="round" stroke-linejoin="round"/><path d="M12.13 37.583L7.93 33.385a1.826 1.826 0 0 1 0-2.585l4.199-4.217" stroke="#172A3A" stroke-width="2" stroke-miterlimit="10" stroke-linecap="round" stroke-linejoin="round"/><path d="M37.044 11.916H10.296a3.677 3.677 0 0 0-3.667 3.667v5.5" stroke="#172A3A" stroke-width="2" stroke-miterlimit="10" stroke-linecap="round" stroke-linejoin="round"/><path d="M32.296 6.417l4.198 4.198c.715.715.715 1.87 0 2.585l-4.198 4.216" stroke="#172A3A" stroke-width="2" stroke-miterlimit="10" stroke-linecap="round" stroke-linejoin="round"/></g></g><g transform="translate(357, 50)"><g fill="none" class="nc-icon-wrapper"><g clip-path="url(#clip0)"><path d="M22.776 6.494v30.909" stroke="#172A3A" stroke-width="2" stroke-miterlimit="10" stroke-linecap="round" stroke-linejoin="round"/><path d="M38.23 21.948H7.321" stroke="#172A3A" stroke-width="2" stroke-miterlimit="10" stroke-linecap="round" stroke-linejoin="round"/></g><defs><clipPath id="clip0"><path d="M.958.13h49.09v49.01H.958V.13z" fill="#fff"/></clipPath></defs></g></g><g transform="translate(409, 50.5)"><g fill="none" class="nc-icon-wrapper"><path d="M34.706 7.618c12.2 12.28-4.06 30.94-9.14 36.2-.78.82-2.06.8-2.86 0-3.74-3.88-13.56-15.06-13.56-25.58 0-9.32 8.48-16.64 18.14-14.68 2.82.56 5.4 2.04 7.42 4.06z" stroke="#172A3A" stroke-width="2" stroke-miterlimit="10" stroke-linecap="round" stroke-linejoin="round"/><path d="M24.145 25.238a7 7 0 1 0 0-14 7 7 0 0 0 0 14z" stroke="#172A3A" stroke-width="2" stroke-miterlimit="10" stroke-linecap="round" stroke-linejoin="round"/></g></g><g transform="translate(460, 51)"><g fill="none" class="nc-icon-wrapper"><path d="M41.71 33.54l-6.6-4.32c-1.38-.86-3.18-.5-4.12.82-1.52 1.84-3.36 4.88-10.26-2.02s-3.92-8.8-2.08-10.32c1.34-.94 1.7-2.74.82-4.12l-4.32-6.6c-.56-.82-1.32-2.16-3.1-1.9-1.78.26-6.4 2.86-6.4 8.56 0 5.7 4.5 12.68 10.64 18.82 6.14 6.14 13.12 10.58 18.76 10.58 5.64 0 8.36-5.08 8.56-6.34.2-1.26-1.08-2.58-1.9-3.16z" stroke="#172A3A" stroke-width="2" stroke-miterlimit="10" stroke-linecap="round" stroke-linejoin="round"/></g></g><g transform="translate(1, 100.5)"><g fill="none" class="nc-icon-wrapper"><path d="M24.799 33.958c6.164 0 11.161-4.997 11.161-11.161 0-6.165-4.997-11.162-11.162-11.162-6.164 0-11.161 4.997-11.161 11.162 0 6.164 4.997 11.161 11.162 11.161z" fill="#172A3A"/><path d="M3.798 24.635s8-13 21-13 21 13 21 13-8 13-21 13-21-13-21-13z" stroke="#172A3A" stroke-width="1.4" stroke-miterlimit="10" stroke-linecap="round" stroke-linejoin="round"/></g></g><g transform="translate(52, 100.5)"><g fill="none" class="nc-icon-wrapper"><path d="M5.194 43.238v-.74c0-3.2 1.9-6.08 4.84-7.34l9.16-3.92v-2l-1.24-1.24a9.444 9.444 0 0 1-2.76-6.68v-9.12c0-2.12 1.12-4.1 2.96-5.16 1.6-.94 4.04.2 3.04-1.8-1.04-2.08 7.44.86 9.04 1.8a5.977 5.977 0 0 1 2.96 5.16v9.14c0 2.5-1 4.9-2.76 6.68l-1.24 1.22v2l9.16 3.92a7.976 7.976 0 0 1 4.84 7.34v.74" stroke="#172A3A" stroke-width="2" stroke-miterlimit="10" stroke-linecap="round" stroke-linejoin="round"/></g></g><g transform="translate(103, 100.5)"><g fill="none" class="nc-icon-wrapper"><path d="M41.95 39.238H7.47c-2.08 0-3.76-1.68-3.76-3.76v-22.48c0-2.08 1.68-3.76 3.76-3.76h34.48c2.08 0 3.76 1.68 3.76 3.76v22.48c0 2.08-1.68 3.76-3.76 3.76z" stroke="#172A3A" stroke-width="2" stroke-miterlimit="10" stroke-linecap="round" stroke-linejoin="round"/><path d="M7.71 13.238l14.16 14.16a4.008 4.008 0 0 0 5.66 0l14.18-14.16" stroke="#172A3A" stroke-miterlimit="10" stroke-linecap="round" stroke-linejoin="round"/><path d="M7.71 35.238l8-8" stroke="#172A3A" stroke-miterlimit="10" stroke-linecap="round" stroke-linejoin="round"/><path d="M33.71 27.238l8 8" stroke="#172A3A" stroke-miterlimit="10" stroke-linecap="round" stroke-linejoin="round"/></g></g><g transform="translate(154, 100.5)"><g fill="none" class="nc-icon-wrapper"><path d="M17.687 43.635h18c2.2 0 4-1.62 4-3.62V9.255c0-2-1.8-3.62-4-3.62h-18" stroke="#30485B" stroke-width="2" stroke-miterlimit="10" stroke-linecap="round" stroke-linejoin="round"/><path d="M7.687 24.634h22" stroke="#30485B" stroke-width="2" stroke-miterlimit="10" stroke-linecap="round" stroke-linejoin="round"/><path d="M24.526 18.634l4.58 4.58c.78.78.78 2.06 0 2.84l-4.58 4.58" stroke="#30485B" stroke-width="2" stroke-miterlimit="10" stroke-linecap="round" stroke-linejoin="round"/></g></g><g transform="translate(205, 100.5)"><g fill="none" class="nc-icon-wrapper"><path d="M24.567 37.238v-4" stroke="#172A3A" stroke-miterlimit="10" stroke-linecap="round" stroke-linejoin="round"/><path d="M24.567 33.238a2 2 0 1 0 0-4 2 2 0 0 0 0 4z" stroke="#172A3A" stroke-miterlimit="10" stroke-linecap="round" stroke-linejoin="round"/><path d="M37.567 21.238h-26c-2.2 0-4 1.8-4 4v14c0 2.2 1.8 4 4 4h26c2.2 0 4-1.8 4-4v-14c0-2.2-1.8-4-4-4z" stroke="#172A3A" stroke-width="2" stroke-miterlimit="10" stroke-linecap="round" stroke-linejoin="round"/><path d="M13.567 21.238v-5c0-6.08 4.92-11 11-11s11 4.92 11 11v5" stroke="#172A3A" stroke-width="2" stroke-miterlimit="10" stroke-linecap="round" stroke-linejoin="round"/></g></g><g transform="translate(256, 100.5)"><g fill="none" class="nc-icon-wrapper"><path d="M37.319 16.635c0-8.04-7.28-14.36-15.62-12.74-5.16 1-9.28 5.22-10.18 10.4-.78 4.44.72 8.56 3.5 11.42 1.46 1.5 2.3 3.5 2.3 5.6v2.34h14v-2.34c0-2.04.74-4.04 2.18-5.48 2.36-2.36 3.82-5.62 3.82-9.2z" stroke="#172A3A" stroke-width="2" stroke-miterlimit="10" stroke-linecap="round" stroke-linejoin="round"/><path d="M25.32 45.635h-2c-1.1 0-2-.9-2-2v-2h6v2c0 1.1-.9 2-2 2z" stroke="#172A3A" stroke-width="2" stroke-miterlimit="10" stroke-linecap="round" stroke-linejoin="round"/><path d="M29.34 41.635H19.3c-1.1 0-1.98-.88-1.98-1.98v-6.02h14v6.02c0 1.1-.88 1.98-1.98 1.98z" stroke="#172A3A" stroke-width="2" stroke-miterlimit="10" stroke-linecap="round" stroke-linejoin="round"/></g></g><g transform="translate(307, 100.5)"><g fill="none" class="nc-icon-wrapper"><path d="M21.453 3.878l-17.14 16.4c-1.12 1.08-.36 2.96 1.18 2.96.94 0 1.72.76 1.72 1.72v14.28c0 2.2 1.8 4 4 4h6.28c.94 0 1.72-.76 1.72-1.72v-10.56c0-.94.76-1.72 1.72-1.72h6.56c.94 0 1.72.76 1.72 1.72v10.56c0 .94.76 1.72 1.72 1.72h6.28c2.2 0 4-1.8 4-4v-14.28c0-.94.76-1.72 1.72-1.72 1.54 0 2.3-1.88 1.18-2.96l-17.14-16.4a3.986 3.986 0 0 0-5.52 0z" stroke="#172A3A" stroke-width="2" stroke-miterlimit="10" stroke-linecap="round" stroke-linejoin="round"/></g></g><g transform="translate(358, 101)"><g fill="none" class="nc-icon-wrapper"><path d="M36.248 28.743L24.58 17.075" stroke="#3B566E" stroke-width="2.02" stroke-miterlimit="10" stroke-linecap="round" stroke-linejoin="round"/><path d="M24.58 17.076L12.914 28.743" stroke="#3B566E" stroke-width="2.02" stroke-miterlimit="10" stroke-linecap="round" stroke-linejoin="round"/></g></g><g transform="translate(409, 101)"><g fill="none" class="nc-icon-wrapper"><path d="M19.419 35.667L31.086 24" stroke="#3B566E" stroke-width="2.02" stroke-miterlimit="10" stroke-linecap="round" stroke-linejoin="round"/><path d="M31.085 24L19.418 12.333" stroke="#3B566E" stroke-width="2.02" stroke-miterlimit="10" stroke-linecap="round" stroke-linejoin="round"/></g></g><g transform="translate(460, 101)"><g fill="none" class="nc-icon-wrapper"><path d="M29.485 12.333L17.818 24" stroke="#3B566E" stroke-width="2.02" stroke-miterlimit="10" stroke-linecap="round" stroke-linejoin="round"/><path d="M17.818 24l11.667 11.667" stroke="#3B566E" stroke-width="2.02" stroke-miterlimit="10" stroke-linecap="round" stroke-linejoin="round"/></g></g><g transform="translate(1.5, 151)"><g fill="none" class="nc-icon-wrapper"><path d="M12.333 19.257L24 30.925" stroke="#3B566E" stroke-width="2.02" stroke-miterlimit="10" stroke-linecap="round" stroke-linejoin="round"/><path d="M24 30.924l11.667-11.667" stroke="#3B566E" stroke-width="2.02" stroke-miterlimit="10" stroke-linecap="round" stroke-linejoin="round"/></g></g><g transform="translate(52.5, 150.5)"><g fill="none" class="nc-icon-wrapper"><path d="M13 17.635s-1.02 8.16 4 10c0 0-2.14-17.48 10.42-22 0 0-3.2 12.06 3.58 16 0 0 .2-5.38 4-8 0 7.24 4 6.48 4 14.62 0 8.36-6.5 15.38-15 15.38s-15-7.02-15-15.38c0-7.98 4-10.62 4-10.62z" stroke="#172A3A" stroke-width="2" stroke-miterlimit="10" stroke-linecap="round" stroke-linejoin="round"/></g></g><g transform="translate(103, 150.5)"><g fill="none" class="nc-icon-wrapper"><path d="M39.527 7.635h-30c-2.2 0-4 1.8-4 4v2l13.66 13.66c1.5 1.5 2.34 3.54 2.34 5.66v6.54c0 1.34.66 2.58 1.78 3.32l4.22 2.82v-12.68c0-2.12.84-4.16 2.34-5.66l13.66-13.66v-2c0-2.2-1.8-4-4-4z" stroke="#172A3A" stroke-width="2" stroke-miterlimit="10" stroke-linecap="round" stroke-linejoin="round"/></g></g><g transform="translate(154, 150.5)"><g fill="none" class="nc-icon-wrapper"><path d="M24.367 34.176V9.89" stroke="#172A3A" stroke-width="2" stroke-miterlimit="10" stroke-linecap="round" stroke-linejoin="round"/><path d="M13.09 23.768l10.063 9.923c.676.659 1.77.659 2.428 0l10.062-9.923" stroke="#172A3A" stroke-width="2" stroke-miterlimit="10" stroke-linecap="round" stroke-linejoin="round"/><path d="M9.622 39.38h29.491" stroke="#172A3A" stroke-width="2" stroke-miterlimit="10" stroke-linecap="round" stroke-linejoin="round"/></g></g><g transform="translate(205, 150.5)"><g fill="none" class="nc-icon-wrapper"><path d="M39.006 7.635v34c0 2.2-1.8 4-4 4h-22c-2.2 0-4-1.8-4-4v-34c0-2.2 1.8-4 4-4h22c2.2 0 4 1.8 4 4z" stroke="#172A3A" stroke-width="2" stroke-miterlimit="10" stroke-linecap="round" stroke-linejoin="round"/><path d="M16.006 33.635h8" stroke="#172A3A" stroke-miterlimit="10" stroke-linecap="round" stroke-linejoin="round"/><path d="M16.006 24.635h16" stroke="#172A3A" stroke-miterlimit="10" stroke-linecap="round" stroke-linejoin="round"/><path d="M16.006 15.635h16" stroke="#172A3A" stroke-miterlimit="10" stroke-linecap="round" stroke-linejoin="round"/></g></g><g transform="translate(256, 150.5)"><g fill="none" class="nc-icon-wrapper"><path d="M7.847 11.635h34" stroke="#172A3A" stroke-width="2" stroke-miterlimit="10" stroke-linecap="round" stroke-linejoin="round"/><path d="M31.847 21.634v12m-7-12.24v12.24-12.24zm-7 .24v12-12z" stroke="#172A3A" stroke-width="2" stroke-miterlimit="10" stroke-linecap="round" stroke-linejoin="round"/><path d="M29.847 11.635h-10v-4c0-1.1.9-2 2-2h6c1.1 0 2 .9 2 2v4z" stroke="#172A3A" stroke-width="2" stroke-miterlimit="10" stroke-linecap="round" stroke-linejoin="round"/><path d="M37.847 11.635v28c0 2.2-1.8 4-4 4h-18c-2.2 0-4-1.8-4-4v-28" stroke="#172A3A" stroke-width="2" stroke-miterlimit="10" stroke-linecap="round" stroke-linejoin="round"/></g></g><g transform="translate(307.5, 150.5)"><g fill="none" class="nc-icon-wrapper"><path d="M13.09 13.662L34.91 35.48" stroke="#172A3A" stroke-width="2" stroke-miterlimit="10" stroke-linecap="round" stroke-linejoin="round"/><path d="M34.909 13.662L13.091 35.48" stroke="#172A3A" stroke-width="2" stroke-miterlimit="10" stroke-linecap="round" stroke-linejoin="round"/></g></g><g transform="translate(358, 150.5)"><g fill="none" class="nc-icon-wrapper"><g clip-path="url(#clip0)"><path d="M45.639 24.635s-8 11-21 11-21-11-21-11" stroke="#172A3A" stroke-width="2" stroke-miterlimit="10" stroke-linecap="round" stroke-linejoin="round"/><path d="M24.639 35.635v4" stroke="#172A3A" stroke-width="2" stroke-miterlimit="10" stroke-linecap="round" stroke-linejoin="round"/><path d="M31.239 34.755l.8 3.92" stroke="#172A3A" stroke-width="2" stroke-miterlimit="10" stroke-linecap="round" stroke-linejoin="round"/><path d="M36.739 32.335l1.98 3.48" stroke="#172A3A" stroke-width="2" stroke-miterlimit="10" stroke-linecap="round" stroke-linejoin="round"/><path d="M41.478 29.115l2.56 3.08" stroke="#172A3A" stroke-width="2" stroke-miterlimit="10" stroke-linecap="round" stroke-linejoin="round"/><path d="M18.039 34.755l-.8 3.92" stroke="#172A3A" stroke-width="2" stroke-miterlimit="10" stroke-linecap="round" stroke-linejoin="round"/><path d="M12.539 32.335l-1.98 3.48" stroke="#172A3A" stroke-width="2" stroke-miterlimit="10" stroke-linecap="round" stroke-linejoin="round"/><path d="M7.799 29.115l-2.56 3.08" stroke="#172A3A" stroke-width="2" stroke-miterlimit="10" stroke-linecap="round" stroke-linejoin="round"/></g><defs><clipPath id="clip0"><path d="M.639.635h48v48h-48v-48z" fill="#fff"/></clipPath></defs></g></g><g transform="translate(409.5, 150.5)"><g fill="none" class="nc-icon-wrapper"><path d="M9.273 24.812l7.906 7.623c1.194 1.151 3.147 1.151 4.34 0l17.209-16.591" stroke="#172A3A" stroke-width="2" stroke-miterlimit="10" stroke-linecap="round" stroke-linejoin="round"/></g></g><g transform="translate(460.5, 151)"><g fill="none" class="nc-icon-wrapper"><path d="M43 37H5c-1.1 0-2-.9-2-2V13c0-1.1.9-2 2-2h38c1.1 0 2 .9 2 2v22c0 1.1-.9 2-2 2z" stroke="#172A3A" stroke-width="2" stroke-miterlimit="10" stroke-linecap="round" stroke-linejoin="round"/><path d="M37 33H11c0-2.2-1.8-4-4-4V19c2.2 0 4-1.8 4-4h26c0 2.2 1.8 4 4 4v10c-2.2 0-4 1.8-4 4z" stroke="#172A3A" stroke-miterlimit="10" stroke-linecap="round" stroke-linejoin="round"/><path d="M24 31a7 7 0 1 0 0-14 7 7 0 0 0 0 14z" stroke="#172A3A" stroke-miterlimit="10" stroke-linecap="round" stroke-linejoin="round"/></g></g><g transform="translate(1, 200.5)"><g fill="none" class="nc-icon-wrapper"><path d="M41.627 37.238h-34c-2.2 0-4-1.8-4-4v-18c0-2.2 1.8-4 4-4h34c2.2 0 4 1.8 4 4v18c0 2.2-1.8 4-4 4z" stroke="#172A3A" stroke-width="2" stroke-miterlimit="10" stroke-linecap="round" stroke-linejoin="round"/><path d="M45.627 16.996h-42v4.606h42v-4.606z" fill="#172A3A"/></g></g><g transform="translate(52, 201)"><g fill="none" class="nc-icon-wrapper"><path d="M33.135 24H13.836" stroke="#30485B" stroke-width="2" stroke-miterlimit="10" stroke-linecap="round" stroke-linejoin="round"/><path d="M23.135 34l12-10-12-10" stroke="#30485B" stroke-width="2" stroke-miterlimit="10" stroke-linecap="round" stroke-linejoin="round"/></g></g><g transform="translate(103, 201)"><g fill="none" class="nc-icon-wrapper"><path d="M15.522 22.528h19.602" stroke="#30485B" stroke-width="2" stroke-miterlimit="10" stroke-linecap="round" stroke-linejoin="round"/><path d="M25.522 12.528l-12 10 12 10" stroke="#30485B" stroke-width="2" stroke-miterlimit="10" stroke-linecap="round" stroke-linejoin="round"/></g></g></svg>