<svg xmlns="http://www.w3.org/2000/svg" width="104" height="56" fill="#282d60" xmlns:v="https://vecta.io/nano"><path d="M2.016 13.519c.064-.191.141-.648.23-.928h.78l11.407-.051c2.251 0 3.644 1.106 4.066 3.317l3.299 17.398c.038.216.102.445.205.839l1.074-2.669 7.263-18.287c.179-.432.358-.61.857-.61l7.225.013h.806l-.396.991-12.697 30.207c-.166.407-.384.572-.844.572a379.42 379.42 0 0 0-7.544 0c-.486 0-.652-.165-.767-.61l-5.933-22.913-.678-2.516c-.256-.991-.87-1.677-1.777-2.135-2.57-1.284-3.748-2.033-6.574-2.617 0-.089 0 .089 0 0zm71.109 30.69L78.56 31.31l6.815-16.203c.716-1.716 1.982-2.567 3.862-2.542h6.202c.396 0 .575.063.678.521l4.309 20.549 2.11 9.989c.039.178.039.369.064.597l-.742.038c-2.045 0-4.091-.013-6.137.013-.499 0-.703-.153-.793-.648l-.742-3.66c-.064-.33-.217-.457-.55-.457h-9.718c-.371 0-.524.153-.639.47l-1.394 3.812c-.077.203-.345.47-.524.47h-8.056c-.038.013-.077-.013-.179-.051zm12.697-11.183h6.892l-2.455-11.73h-.166l-4.271 11.73zM49.93 43.103l1.496-6.926.921.419c2.672 1.245 5.486 1.792 8.439 1.525 1.048-.089 2.059-.369 2.928-1.004 1.458-1.055 1.611-2.809.23-3.94-.908-.75-1.956-1.347-3.005-1.894-1.777-.928-3.529-1.868-5.025-3.228-4.028-3.66-2.762-9.099-.026-11.933 2.174-2.262 4.91-3.368 7.928-3.876 3.683-.623 7.289-.216 10.818.991.102.038.192.089.345.165l-1.394 6.507c-1.496-.394-2.954-.864-4.45-1.144-1.637-.305-3.312-.394-4.923.178a5.05 5.05 0 0 0-1.714 1.042c-.831.788-.857 1.957 0 2.707.793.712 1.726 1.284 2.647 1.843 1.394.851 2.877 1.576 4.258 2.44 6.266 3.94 4.399 11.425.627 14.475-2.225 1.792-4.795 2.732-7.57 3.101-4.053.547-8.017.14-11.892-1.194-.205-.064-.384-.153-.639-.254zm-5.69 1.169h-8.248l6.815-31.669h8.222l-6.79 31.669z"/></svg>