<svg width="10" height="10" viewBox="0 0 10 10" fill="none" xmlns="http://www.w3.org/2000/svg">
<path d="M4.39046 9.04995C3.91416 8.87088 3.40636 8.74725 2.96653 8.50221C1.44977 7.65455 0.664036 5.90322 1.00717 4.24837C1.37573 2.47099 2.76043 1.16983 4.52031 0.968031C4.84521 0.930886 5.17785 0.962487 5.57569 0.962487C5.32041 1.35333 5.09718 1.70315 4.86068 2.0441C4.82919 2.08956 4.73249 2.09733 4.66397 2.10786C3.22181 2.33073 2.25208 3.34304 2.09847 4.78723C1.93436 6.33676 3.25165 7.82197 4.81261 7.90402C6.49624 7.99273 7.94449 6.66995 7.90636 4.94302C7.89862 4.59375 7.76159 4.24892 7.70081 3.89854C7.68147 3.78711 7.67815 3.64519 7.7312 3.55371C7.90415 3.25434 8.10694 2.97216 8.31525 2.65726C8.70756 3.19779 8.92748 3.76882 9.02418 4.39029C9.37118 6.62338 7.80303 8.65855 5.70001 9.00116C5.66631 9.00671 5.63592 9.03277 5.60442 9.0494C5.19995 9.04995 4.79493 9.04995 4.39046 9.04995Z" fill="#114C8D"/>
<path d="M3.24697 5.02202C3.19559 4.079 3.99624 3.25185 4.95271 3.21858C5.94509 3.18365 6.80432 4.023 6.78995 5.01259C6.77614 5.98278 5.9672 6.7933 5.02178 6.76502C5.02178 6.44015 5.02178 6.11417 5.02178 5.77544C5.11516 5.7455 5.22125 5.72221 5.31795 5.67842C5.63456 5.53428 5.81193 5.18889 5.74175 4.86679C5.66661 4.52029 5.39199 4.27525 5.05603 4.25474C4.70516 4.23367 4.36479 4.45432 4.29406 4.79915C4.25483 4.99042 4.17913 5.03477 4.00397 5.0259C3.75809 5.01259 3.51109 5.02202 3.24697 5.02202Z" fill="#FFCC0B"/>
</svg>
