<svg width="300" height="90" viewBox="0 0 300 90" fill="none" xmlns="http://www.w3.org/2000/svg">
<path d="M0.388706 20.741H15.1191V68.3739H0.388706V20.741ZM15.6129 7.49998C15.6129 11.5899 12.5101 14.9028 7.65726 14.9028C3.00839 14.9028 -0.0944333 11.5899 0.00219444 7.49998C-0.0944333 3.21582 3.00839 0 7.75389 0C12.4994 0 15.5056 3.21582 15.6129 7.49998Z" fill="#E84F35"/>
<path d="M176.478 60.453C176.478 55.1761 180.074 51.356 185.238 51.356C190.403 51.356 193.903 55.079 193.903 60.453C193.903 65.6437 190.392 69.453 185.142 69.453C180.074 69.453 176.478 65.6437 176.478 60.453Z" fill="#E84F35"/>
<path d="M41.456 33.2476C42.7229 33.5389 44.2796 33.6469 46.4162 33.6469C54.3075 33.6469 59.1711 29.6325 59.1711 22.8879C59.1711 16.8232 54.9839 13.2081 47.5865 13.2081C44.5695 13.2081 42.5296 13.4994 41.456 13.7908V33.2476ZM26.7578 3.31239C31.3315 2.52463 37.7626 1.94189 46.8134 1.94189C55.9609 1.94189 62.4886 3.70088 66.8691 7.22965C71.0563 10.5534 73.8799 16.0354 73.8799 22.4994C73.8799 28.9526 71.7327 34.4346 67.8461 38.1576C62.7785 42.949 55.2952 45.1073 46.5236 45.1073C44.5803 45.1073 42.8195 45.0101 41.456 44.8159V68.395H26.7578V3.31239Z" fill="#E84F35"/>
<path d="M106.389 45.776C98.6051 45.6789 92.5712 47.535 92.5712 53.3084C92.5712 57.1177 95.105 58.9846 98.4119 58.9846C102.105 58.9846 105.133 56.5458 106.099 53.5134C106.292 52.7365 106.389 51.8516 106.389 50.9667V45.776ZM108.139 68.3731L107.259 63.5817H106.969C103.855 67.4019 98.9809 69.4522 93.3443 69.4522C83.703 69.4522 77.959 62.4163 77.959 54.776C77.959 42.3552 89.0604 36.3876 105.895 36.4847V35.8048C105.895 33.2581 104.532 29.643 97.2309 29.643C92.3673 29.643 87.203 31.3048 84.0895 33.2689L81.3624 23.6862C84.6692 21.8193 91.197 19.4775 99.8613 19.4775C115.73 19.4775 120.787 28.8768 120.787 40.1214V56.7616C120.787 61.3587 120.98 65.7616 121.463 68.4055H108.139V68.3731Z" fill="#E84F35"/>
<path d="M142.411 20.5356L149.519 44.0176C150.292 46.8557 151.269 50.3737 151.848 52.9205H152.138C152.815 50.3737 153.598 46.7586 154.275 44.0176L160.115 20.5356H175.984L164.893 52.0356C158.075 71.0175 153.502 78.647 148.144 83.4384C142.991 87.9384 137.537 89.5031 133.833 89.9995L130.719 77.3844C132.566 77.0931 134.906 76.2082 137.139 74.8377C139.373 73.6614 141.81 71.3197 143.27 68.8701C143.753 68.1902 144.043 67.4024 144.043 66.7226C144.043 66.237 143.946 65.4492 143.356 64.2729L125.931 20.5356H142.411Z" fill="#E84F35"/>
<path d="M247.735 53.0176C247.735 59.2765 247.928 64.37 248.121 68.3736H235.27L234.593 61.6291H234.303C232.457 64.5643 227.98 69.4528 219.401 69.4528C209.771 69.4528 202.663 63.388 202.663 48.6147V20.5356H217.555V46.273C217.555 53.2226 219.798 57.4204 224.952 57.4204C229.042 57.4204 231.372 54.5823 232.349 52.2406C232.736 51.3557 232.832 50.1902 232.832 49.014V20.5356H247.724V53.0176H247.735Z" fill="#E84F35"/>
<path d="M284.915 45.776C277.121 45.6789 271.087 47.535 271.087 53.3084C271.087 57.1177 273.621 58.9846 276.927 58.9846C280.632 58.9846 283.649 56.5458 284.615 53.5134C284.808 52.7365 284.915 51.8516 284.915 50.9667V45.776ZM286.676 68.3731L285.796 63.5817H285.506C282.392 67.4019 277.529 69.4522 271.881 69.4522C262.24 69.4522 256.507 62.4163 256.507 54.776C256.507 42.3552 267.598 36.3876 284.443 36.4847V35.8048C284.443 33.2581 283.079 29.643 275.779 29.643C270.915 29.643 265.751 31.3048 262.637 33.2689L259.91 23.6862C263.217 21.8193 269.745 19.4775 278.398 19.4775C294.267 19.4775 299.324 28.8768 299.324 40.1214V56.7616C299.324 61.3587 299.517 65.7616 300 68.4055H286.676V68.3731Z" fill="#E84F35"/>
</svg>
