<svg xmlns="http://www.w3.org/2000/svg" width="182" height="58" fill="none"><g clip-path="url(#A)"><path d="M69.413 1.026L44.698 57.123h-15.61l-11.147-44.77c-.677-2.756-1.282-3.768-3.439-4.927C10.979 5.531 5.142 3.755 0 2.653l.371-1.627h25.131c3.201 0 6.053 2.093 6.729 5.719l5.763 32.462L53.901 1.026h15.512zm60.637 37.781c.274-14.804-20.614-15.621-20.377-22.236.075-2.011 2.054-4.15 6.33-4.698 2.117-.271 7.955-.481 14.524 2.509l2.762-11.894C129.751 1.219 125.198 0 119.507 0c-14.596 0-24.979 7.626-25.214 18.542-.211 8.079 7.156 12.582 12.716 15.268 5.713 2.749 7.618 4.512 7.562 6.971-.096 3.766-4.666 5.426-8.917 5.491-7.426.114-11.707-1.973-15.117-3.544L87.69 55.021c3.426 1.556 9.777 2.913 16.381 2.979 15.515 0 25.768-7.528 25.979-19.194m38.291 18.316H182L170.865 1.026h-12.606c-2.835 0-5.248 1.619-6.344 4.114l-22.889 51.983h15.504l3.199-8.381h18.945l1.667 8.381zm-16.2-19.877l8.07-21.063 4.18 21.063h-12.25zM90.516 1.026l-13 56.097H62.745L75.751 1.026h14.765z" fill="#1434cb"/></g><defs><clipPath id="A"><path fill="#fff" d="M0 0h182v58H0z"/></clipPath></defs></svg>