<svg width="253" height="76" viewBox="0 0 253 76" fill="none" xmlns="http://www.w3.org/2000/svg">
<path d="M0.327808 17.5146H12.7504V57.738H0.327808V17.5146ZM13.1669 6.33332C13.1669 9.78703 10.5502 12.5846 6.45762 12.5846C2.53708 12.5846 -0.0796388 9.78703 0.00185065 6.33332C-0.0796388 2.71558 2.53708 0 6.53911 0C10.5411 0 13.0764 2.71558 13.1669 6.33332Z" fill="white"/>
<path d="M148.829 51.0492C148.829 46.5931 151.862 43.3672 156.217 43.3672C160.573 43.3672 163.524 46.5111 163.524 51.0492C163.524 55.4324 160.564 58.6491 156.136 58.6491C151.862 58.6491 148.829 55.4324 148.829 51.0492Z" fill="white"/>
<path d="M34.9609 28.0756C36.0293 28.3216 37.3422 28.4127 39.144 28.4127C45.799 28.4127 49.9006 25.0228 49.9006 19.3274C49.9006 14.206 46.3694 11.1533 40.1309 11.1533C37.5866 11.1533 35.8663 11.3993 34.9609 11.6454V28.0756ZM22.5654 2.79696C26.4226 2.13173 31.8462 1.63965 39.479 1.63965C47.1933 1.63965 52.6984 3.12502 56.3926 6.10487C59.9238 8.91157 62.3051 13.5408 62.3051 18.9993C62.3051 24.4487 60.4942 29.078 57.2165 32.2218C52.9429 36.2679 46.632 38.0904 39.2345 38.0904C37.5957 38.0904 36.1108 38.0084 34.9609 37.8444V57.7556H22.5654V2.79696Z" fill="white"/>
<path d="M89.7211 38.6554C83.1567 38.5734 78.0681 40.1407 78.0681 45.016C78.0681 48.2328 80.205 49.8093 82.9937 49.8093C86.1084 49.8093 88.6618 47.7498 89.4766 45.1892C89.6396 44.5331 89.7211 43.7858 89.7211 43.0386V38.6554ZM91.197 57.7373L90.4545 53.6913H90.2101C87.5843 56.9172 83.4736 58.6486 78.72 58.6486C70.5892 58.6486 65.7451 52.7071 65.7451 46.2554C65.7451 35.7666 75.1073 30.7273 89.3046 30.8094V30.2353C89.3046 28.0847 88.1547 25.0319 81.9977 25.0319C77.8961 25.0319 73.5409 26.4353 70.9152 28.0938L68.6154 20.0017C71.4041 18.4252 76.9092 16.4478 84.2161 16.4478C97.5984 16.4478 101.863 24.3849 101.863 33.8803V47.9321C101.863 51.8141 102.026 55.5321 102.433 57.7647H91.197V57.7373Z" fill="white"/>
<path d="M120.1 17.3413L126.094 37.1705C126.746 39.5672 127.569 42.5379 128.058 44.6885H128.303C128.873 42.5379 129.534 39.4851 130.105 37.1705L135.03 17.3413H148.413L139.06 43.9412C133.31 59.9705 129.453 66.4131 124.935 70.4592C120.589 74.2592 115.989 75.5805 112.865 75.9997L110.239 65.3469C111.797 65.1009 113.771 64.3537 115.654 63.1964C117.537 62.2031 119.593 60.2256 120.824 58.157C121.231 57.5829 121.476 56.9177 121.476 56.3436C121.476 55.9335 121.394 55.2683 120.896 54.275L106.201 17.3413H120.1Z" fill="white"/>
<path d="M208.922 44.7705C208.922 50.0558 209.085 54.357 209.248 57.7378H198.41L197.84 52.0424H197.595C196.038 54.5211 192.262 58.6491 185.028 58.6491C176.906 58.6491 170.912 53.5278 170.912 41.0525V17.3413H183.471V39.0751C183.471 44.9436 185.363 48.4885 189.709 48.4885C193.159 48.4885 195.124 46.0918 195.947 44.1144C196.273 43.3671 196.355 42.383 196.355 41.3897V17.3413H208.913V44.7705H208.922Z" fill="white"/>
<path d="M240.278 38.6554C233.705 38.5734 228.616 40.1407 228.616 45.016C228.616 48.2328 230.753 49.8093 233.542 49.8093C236.665 49.8093 239.21 47.7498 240.025 45.1892C240.188 44.5331 240.278 43.7858 240.278 43.0386V38.6554ZM241.763 57.7373L241.021 53.6913H240.776C238.15 56.9172 234.049 58.6486 229.286 58.6486C221.155 58.6486 216.32 52.7071 216.32 46.2554C216.32 35.7666 225.673 30.7273 239.88 30.8094V30.2353C239.88 28.0847 238.73 25.0319 232.573 25.0319C228.471 25.0319 224.116 26.4353 221.49 28.0938L219.191 20.0017C221.979 18.4252 227.484 16.4478 234.782 16.4478C248.165 16.4478 252.429 24.3849 252.429 33.8803V47.9321C252.429 51.8141 252.592 55.5321 253 57.7647H241.763V57.7373Z" fill="white"/>
</svg>
