<svg width="74" height="46" viewBox="0 0 74 46" fill="none" xmlns="http://www.w3.org/2000/svg">
<path d="M23.0761 45.7564C35.8142 45.7564 46.1404 35.7349 46.1404 23.3729C46.1404 11.0108 35.8142 0.989395 23.0761 0.989395C10.3381 0.989395 0.0118408 11.0108 0.0118408 23.3729C0.0118408 35.7349 10.3381 45.7564 23.0761 45.7564Z" fill="#EB001B"/>
<path d="M50.9358 45.7564C63.6738 45.7564 74 35.7349 74 23.3729C74 11.0108 63.6738 0.989395 50.9358 0.989395C38.1977 0.989395 27.8715 11.0108 27.8715 23.3729C27.8715 35.7349 38.1977 45.7564 50.9358 45.7564Z" fill="#F79E1B"/>
<path d="M37.0006 5.49729C42.554 9.58122 46.1298 16.053 46.1298 23.3282C46.1298 30.6034 42.554 37.0863 37.0006 41.1703C31.4473 37.0863 27.8715 30.6145 27.8715 23.3282C27.8715 16.0419 31.4588 9.58122 37.0006 5.49729Z" fill="#FF5F00"/>
</svg>
