<svg xmlns="http://www.w3.org/2000/svg" height="1055.067" width="3171.387" xmlns:v="https://vecta.io/nano"><path d="M2274.205 372.136v395.171h-95.907V371.692h-106.235v-83.938h309.165v84.382h-107.024M576.347 287.485V767.58h-95.994V371.783H288.51v395.796h-96.33V287.485h384.167m191.219 221.702h35.833c17.987 0 41.029 0 61.181-15.127 17.279-13.679 25.904-35.276 25.904-56.145 0-26.632-12.952-44.629-26.624-54.7-19.432-13.689-43.901-15.116-66.215-15.116h-30.08zm43.749-221.702c53.992 0 91.413 5.763 126.68 36.713 38.867 34.549 48.947 81.341 48.947 115.89 0 18.696-2.881 70.525-39.584 107.237-26.633 26.632-66.225 42.475-121.645 42.475h-58.147v177.78h-95.892V287.485h139.641m1164.76 462.814c-28.773 15.107-66.933 28.079-118.76 28.079-84.226 0-135.32-28.787-175.626-66.944-55.427-53.275-77.013-113.001-77.013-183.553 0-87.085 35.987-149.702 77.013-187.85 48.227-45.357 107.96-63.344 176.333-63.344 33.84 0 74.16 5.763 118.053 29.512v109.41c-43.893-50.392-98.613-53.992-115.88-53.992-96.466 0-159.08 79.178-159.08 167.709 0 106.528 82.066 164.12 162.68 164.12 44.64 0 84.213-19.433 112.28-52.547v109.4m597.015-462.815v480.094h-95.899V287.484h95.899m191.861 221.704h35.83c17.998 0 41.03 0 61.188-15.127 17.283-13.678 25.907-35.277 25.907-56.146 0-26.632-12.944-44.629-26.621-54.701-19.444-13.689-43.904-15.116-66.241-15.116h-30.063zm43.758-221.703c53.974 0 91.397 5.762 126.678 36.713 38.851 34.549 48.939 81.342 48.939 115.891 0 18.695-2.874 70.525-39.584 107.236-26.639 26.632-66.223 42.474-121.643 42.474h-58.149v177.78h-95.883V287.485h139.641" fill="#1a468e"/><path d="M1247.601 528.145l-.029-.603c0-26.805 21.731-48.556 48.544-48.556 26.805 0 48.535 21.751 48.535 48.556 0 26.688-21.567 48.352-48.228 48.515v65.537c62.855-.172 113.761-51.159 113.761-114.052 0-63.001-51.08-114.072-114.068-114.072-62.999 0-114.07 51.071-114.07 114.072 0 .2.028.401.028.603h65.528" fill="#fbc709"/><path d="M1464.183 445.08c12.227 24.889 19.107 52.863 19.107 82.461 0 103.532-83.946 187.468-187.48 187.468-103.541 0-187.478-83.936-187.478-187.468 0-99.808 78.02-181.389 176.382-187.122l46.755-71.588c-11.669-1.599-23.559-2.499-35.659-2.499-144.265 0-261.199 116.944-261.199 261.209 0 144.246 116.934 261.19 261.199 261.19s261.199-116.944 261.199-261.19c0-56.251-17.84-108.308-48.093-150.946l-44.733 68.485" fill="#1a468e"/></svg>