<svg width="33" height="32" viewBox="0 0 33 32" fill="none" xmlns="http://www.w3.org/2000/svg">
<path d="M16.5002 26C17.6048 26 18.5002 25.1046 18.5002 24C18.5002 22.8954 17.6048 22 16.5002 22C15.3957 22 14.5002 22.8954 14.5002 24C14.5002 25.1046 15.3957 26 16.5002 26Z" stroke="#172A3A" stroke-width="2" stroke-miterlimit="10" stroke-linecap="round" stroke-linejoin="round"/>
<path d="M29.228 11.272C25.972 8.016 21.468 6 16.5 6C11.532 6 7.02797 8.016 3.77197 11.272" stroke="#172A3A" stroke-width="2" stroke-miterlimit="10" stroke-linecap="round" stroke-linejoin="round"/>
<path d="M7.54004 15.0399C9.83604 12.7439 12.996 11.3279 16.5 11.3279C20.004 11.3279 23.164 12.7439 25.46 15.0399" stroke="#172A3A" stroke-width="2" stroke-miterlimit="10" stroke-linecap="round" stroke-linejoin="round"/>
<path d="M25.46 15.0399C23.164 12.7439 20.004 11.3279 16.5 11.3279C12.996 11.3279 9.83604 12.7439 7.54004 15.0399" stroke="#172A3A" stroke-width="2" stroke-miterlimit="10" stroke-linecap="round" stroke-linejoin="round"/>
<path d="M11.3162 18.816C12.6442 17.488 14.4762 16.672 16.5002 16.672C18.5242 16.672 20.3562 17.496 21.6842 18.816" stroke="#172A3A" stroke-width="2" stroke-miterlimit="10" stroke-linecap="round" stroke-linejoin="round"/>
</svg>
