<svg width="32" height="32" viewBox="0 0 32 32" fill="none" xmlns="http://www.w3.org/2000/svg">
<path d="M8.66406 27.3359V4.66388C8.66406 3.19188 9.85606 1.99988 11.3281 1.99988H20.6641C22.1361 1.99988 23.3281 3.19188 23.3281 4.66388V27.3279C23.3281 28.7999 22.1361 29.9919 20.6641 29.9919H11.3361C9.86406 29.9999 8.66406 28.8079 8.66406 27.3359Z" stroke="#172A3A" stroke-width="2" stroke-miterlimit="10" stroke-linecap="round" stroke-linejoin="round"/>
<path d="M16.0002 27.3278C16.3669 27.3278 16.6642 27.0305 16.6642 26.6638C16.6642 26.297 16.3669 25.9998 16.0002 25.9998C15.6335 25.9998 15.3362 26.297 15.3362 26.6638C15.3362 27.0305 15.6335 27.3278 16.0002 27.3278Z" stroke="#172A3A" stroke-width="2" stroke-miterlimit="10" stroke-linecap="round" stroke-linejoin="round"/>
<path d="M14.0002 4.6637H18.0002" stroke="#172A3A" stroke-width="2" stroke-miterlimit="10" stroke-linecap="round" stroke-linejoin="round"/>
</svg>
