<svg width="33" height="32" viewBox="0 0 33 32" fill="none" xmlns="http://www.w3.org/2000/svg">
<path d="M27.8361 22.3601L23.4441 19.4881C22.5321 18.9121 21.3161 19.1521 20.7001 20.0401C19.6841 21.2641 18.4601 23.2961 13.8521 18.6881C9.24414 14.0801 11.2361 12.8161 12.4601 11.8001C13.3481 11.1761 13.5881 9.96814 13.0121 9.05614L10.1401 4.66414C9.75614 4.11214 9.25214 3.22414 8.06814 3.40014C6.88414 3.57614 3.79614 5.30414 3.79614 9.10414C3.79614 12.9041 6.79614 17.5521 10.8921 21.6561C14.9881 25.7601 19.6361 28.7121 23.4041 28.7121C27.1721 28.7121 28.9801 25.3281 29.1081 24.4881C29.2361 23.6481 28.3881 22.7441 27.8361 22.3601Z" stroke="#172A3A" stroke-width="2" stroke-miterlimit="10" stroke-linecap="round" stroke-linejoin="round"/>
</svg>
