<svg width="24" height="24" viewBox="0 0 24 24" fill="none" xmlns="http://www.w3.org/2000/svg">
<path d="M4.38 7.50977H10.5V14.5098H4.38C3.8814 14.5098 3.4032 14.3117 3.05063 13.9592C2.69806 13.6066 2.5 13.1284 2.5 12.6298V9.38977C2.5 8.89116 2.69806 8.41299 3.05063 8.06042C3.4032 7.70786 3.8814 7.50977 4.38 7.50977V7.50977Z" stroke="#E84F35" stroke-linecap="round" stroke-linejoin="round"/>
<path d="M19.6903 18.0301L18.5303 16.9301C17.2104 15.6868 15.5073 14.9287 13.7002 14.7801L10.4902 14.5101V7.51011L13.7002 7.24009C15.5086 7.08875 17.2119 6.32709 18.5303 5.08012L19.6903 3.99009C19.8152 3.82347 19.9889 3.7 20.1874 3.63688C20.3858 3.57377 20.5989 3.57418 20.7971 3.63804C20.9953 3.7019 21.1686 3.82605 21.2928 3.99314C21.4171 4.16023 21.4861 4.36193 21.4902 4.57011V17.4401C21.4882 17.6491 21.4206 17.8522 21.2971 18.0209C21.1736 18.1896 21.0004 18.3153 20.8018 18.3804C20.6031 18.4455 20.3891 18.4468 20.1897 18.384C19.9903 18.3211 19.8157 18.1974 19.6903 18.0301Z" stroke="#E84F35" stroke-linecap="round" stroke-linejoin="round"/>
<path d="M4.49023 14.5098L7.49023 21.5098H9.49023C9.75545 21.5098 10.0099 21.4044 10.1974 21.2169C10.3849 21.0293 10.4902 20.775 10.4902 20.5098V19.9197C10.4891 19.6574 10.3849 19.406 10.2002 19.2198L9.49023 18.5098L8.49023 14.5098" stroke="#E84F35" stroke-linecap="round" stroke-linejoin="round"/>
</svg>
