<svg xmlns="http://www.w3.org/2000/svg" width="25" height="27" fill="none"><path d="M19.156.641a36.66 36.66 0 0 0-13.649 0c-1.987.427-4.492 2.82-4.924 4.7a26.74 26.74 0 0 0 0 11.108c.518 1.88 3.024 4.272 4.924 4.7.086 0 .173.085.173.171v5.383c0 .256.346.427.518.171l2.592-2.649 2.419-2.478s.086-.085.173-.085c2.592.085 5.27-.171 7.861-.598 1.987-.427 4.492-2.82 4.924-4.7a26.74 26.74 0 0 0 0-11.108c-.518-1.794-3.024-4.187-5.01-4.614zm.086 16.064c-.432.854-.95 1.538-1.814 1.965l-.777.256-.864-.256c-2.764-1.111-5.356-2.649-7.429-4.871-1.123-1.282-2.073-2.734-2.851-4.272l-.95-2.222c-.259-.684.173-1.367.605-1.88s.95-.854 1.555-1.111c.432-.256.864-.085 1.209.256.691.854 1.382 1.709 1.901 2.649.346.598.259 1.282-.346 1.709-.173.085-.259.171-.432.342-.086.085-.259.171-.346.342-.173.256-.173.513-.086.769.691 1.965 1.987 3.503 3.974 4.358.346.171.605.256 1.037.256.605-.085.864-.769 1.296-1.111s.95-.342 1.469-.085c.432.256.864.598 1.382.94l1.296.94c.259.171.346.598.173 1.025zm-3.628-6.409c-.173 0-.086 0 0 0-.345 0-.432-.171-.518-.427 0-.171 0-.427-.086-.598-.086-.342-.259-.684-.605-.94l-.518-.256c-.259-.085-.432-.085-.691-.085-.259-.085-.346-.256-.346-.513 0-.171.259-.342.432-.342 1.382.085 2.419.854 2.592 2.478v.342c0 .171-.086.342-.259.342zm-.864-3.76c-.432-.171-.864-.342-1.382-.427-.173 0-.432-.085-.605-.085-.259 0-.432-.171-.345-.427 0-.256.173-.427.432-.342.864.085 1.641.256 2.419.598 1.555.769 2.419 2.051 2.678 3.76v.256.598.256c-.086.342-.691.427-.777 0 0-.085-.086-.256-.086-.342 0-.769-.173-1.538-.518-2.222-.518-.769-1.123-1.282-1.814-1.624zm4.665 5.127c-.259 0-.432-.256-.432-.513 0-.513-.086-1.025-.173-1.538-.346-2.734-2.592-4.956-5.27-5.383-.432-.085-.864-.085-1.209-.171-.259 0-.605 0-.691-.342-.086-.256.173-.513.432-.513h.173 0c3.628.085 6.652 2.478 7.257 6.067.086.598.173 1.196.173 1.88a.31.31 0 0 1-.259.513z" fill="#7c9cac"/></svg>