<svg width="24" height="24" viewBox="0 0 24 24" fill="none" xmlns="http://www.w3.org/2000/svg">
<g clip-path="url(#clip0_2897_4388)">
<path d="M3.375 5.25V7.3125" stroke="#172A3A" stroke-linecap="round"/>
<path d="M0.1875 5.8125H6.9375" stroke="#172A3A" stroke-linecap="round"/>
<path d="M20.25 5.25V7.3125" stroke="#172A3A" stroke-linecap="round"/>
<path d="M16.875 5.8125H23.625" stroke="#172A3A" stroke-linecap="round"/>
<path d="M5.25 7.875H9.375C9.5 7.1875 10.2 5.8125 12 5.8125C13.8 5.8125 14.625 7.1875 14.8125 7.875H18.75" stroke="#172A3A"/>
<path d="M5.0625 9.1875L10.3125 11.4375M10.3125 11.4375H13.6875M10.3125 11.4375L11.0625 12.9375M13.6875 11.4375L18.75 9.375M13.6875 11.4375L12.9375 12.9375" stroke="#172A3A"/>
<mask id="path-7-inside-1_2897_4388" fill="white">
<rect x="1.5" y="7.125" width="3.75" height="3" rx="0.75"/>
</mask>
<rect x="1.5" y="7.125" width="3.75" height="3" rx="0.75" stroke="#172A3A" stroke-width="2" mask="url(#path-7-inside-1_2897_4388)"/>
<mask id="path-8-inside-2_2897_4388" fill="white">
<rect x="18.375" y="7.125" width="3.75" height="3" rx="0.75"/>
</mask>
<rect x="18.375" y="7.125" width="3.75" height="3" rx="0.75" stroke="#172A3A" stroke-width="2" mask="url(#path-8-inside-2_2897_4388)"/>
<mask id="path-9-inside-3_2897_4388" fill="white">
<rect x="9" y="12.75" width="6" height="5.25" rx="0.75"/>
</mask>
<rect x="9" y="12.75" width="6" height="5.25" rx="0.75" stroke="#172A3A" stroke-width="2" mask="url(#path-9-inside-3_2897_4388)"/>
<path d="M6.75 10.125L4.2805 17.8863C4.20354 18.1282 4.38404 18.375 4.63784 18.375H5.55039C5.70781 18.375 5.84847 18.2767 5.90256 18.1288L8.625 10.6875M15.375 10.6875L18.0974 18.1288C18.1515 18.2767 18.2922 18.375 18.4496 18.375H19.3622C19.616 18.375 19.7965 18.1282 19.7195 17.8863L17.25 10.125" stroke="#172A3A"/>
<circle cx="12" cy="15.375" r="0.625" stroke="#172A3A"/>
</g>
<defs>
<clipPath id="clip0_2897_4388">
<rect width="24" height="24" fill="white"/>
</clipPath>
</defs>
</svg>
