<svg xmlns="http://www.w3.org/2000/svg" width="24" height="24" fill="none"><path d="M21.333 0c.707 0 1.386.281 1.886.781S24 1.959 24 2.667v18.667c0 .707-.281 1.386-.781 1.886S22.041 24 21.333 24H2.667c-.707 0-1.386-.281-1.886-.781S0 22.041 0 21.333V2.667C0 1.959.281 1.281.781.781S1.959 0 2.667 0h18.667zm-.667 20.667V13.6c0-1.153-.458-2.258-1.273-3.074s-1.921-1.273-3.074-1.273c-1.133 0-2.453.693-3.093 1.733v-1.48h-3.72v11.16h3.72v-6.573a1.86 1.86 0 0 1 1.853-1.867c.495 0 .97.197 1.32.547s.547.825.547 1.32v6.573h3.72zM5.173 7.413a2.24 2.24 0 0 0 2.24-2.24c0-1.24-1-2.253-2.24-2.253-.598 0-1.171.237-1.593.66s-.66.996-.66 1.593c0 1.24 1.013 2.24 2.253 2.24zm1.853 13.253V9.507H3.333v11.16h3.693z" fill="#7c9cac"/></svg>