<svg xmlns="http://www.w3.org/2000/svg" width="24" height="24" fill="none"><g clip-path="url(#A)"><path fill-rule="evenodd" d="M15.046 15.8c-1.113 2.507-3.624 4.256-6.544 4.256-3.952 0-7.155-3.204-7.155-7.155s3.204-7.155 7.155-7.155 7.155 3.204 7.155 7.155c0 .205-.009.408-.026.608-.062.536-.238 1.514-.588 2.286l.002.005zm.655.818a8.14 8.14 0 0 1-2.52 2.896c.843.349 1.768.542 2.737.542 3.952 0 7.155-3.204 7.155-7.155s-3.204-7.155-7.155-7.155c-.969 0-1.894.193-2.737.542a8.14 8.14 0 0 1 2.413 2.696c.21-.074.437-.135.68-.183a5.51 5.51 0 0 1 1.164-.127c.507 0 .949.073 1.325.219.384.146.684.369.899.668.215.292.323.661.323 1.106 0 .184-.015.361-.046.53-.031.161-.084.307-.161.438h.668v.565h-.98c-.177.154-.411.3-.703.438a10.15 10.15 0 0 1-.887.357 25.93 25.93 0 0 0-.841.288c-.193.066-.344.131-.452.192l-.004.05h3.867v.553h-3.928c-.094.644-.263 1.263-.499 1.848.162.166.366.295.613.388.315.108.684.161 1.106.161.446 0 .864-.046 1.256-.138.392-.1.734-.207 1.026-.323v.691c-.269.108-.603.207-1.003.3a6.41 6.41 0 0 1-1.325.127c-.561 0-1.053-.081-1.475-.242-.191-.074-.363-.165-.515-.272zM15.917 21c-1.336 0-2.597-.323-3.708-.896-1.111.573-2.371.896-3.707.896a8.1 8.1 0 0 1-8.1-8.1 8.1 8.1 0 0 1 8.1-8.1c1.336 0 2.597.323 3.707.896 1.111-.573 2.372-.896 3.708-.896a8.1 8.1 0 0 1 0 16.2zm.685-8.147a7.87 7.87 0 0 1 .351-.123l.841-.288c.254-.085.438-.165.553-.242h-1.775c.019.216.029.433.03.653zm-.098-1.218h2.466c.092-.115.158-.242.196-.38a1.73 1.73 0 0 0 .069-.519c0-.315-.077-.572-.23-.772-.146-.207-.357-.365-.634-.472a2.57 2.57 0 0 0-.956-.161 4.27 4.27 0 0 0-.703.058 4.82 4.82 0 0 0-.657.161 3.57 3.57 0 0 0-.154.049 8.04 8.04 0 0 1 .603 2.037zm-11.476-.827v.414c0 .29.064.557.193.801a1.5 1.5 0 0 0 .553.586c.244.147.532.22.865.22s.618-.073.854-.22a1.46 1.46 0 0 0 .548-.586c.129-.244.193-.51.193-.801v-.414c0-.297-.064-.568-.193-.811a1.5 1.5 0 0 0-.553-.586c-.236-.147-.523-.22-.86-.22-.33 0-.614.073-.854.22a1.5 1.5 0 0 0-.553.586c-.129.244-.193.514-.193.811zm.747.414v-.414c0-.168.03-.326.091-.473s.159-.271.285-.36.288-.14.478-.14a.78.78 0 0 1 .478.14c.129.09.224.21.285.36s.097.304.097.473v.414a1.21 1.21 0 0 1-.091.467.84.84 0 0 1-.279.36c-.125.09-.285.134-.478.134s-.355-.045-.484-.134-.226-.213-.29-.36a1.21 1.21 0 0 1-.091-.467zm3.063 3.987v.419c0 .294.064.562.193.806a1.54 1.54 0 0 0 .559.586c.24.147.527.22.86.22s.618-.073.854-.22a1.46 1.46 0 0 0 .548-.586c.129-.244.193-.512.193-.806v-.419c0-.294-.065-.562-.193-.806a1.5 1.5 0 0 0-.553-.586c-.236-.147-.523-.22-.86-.22-.33 0-.614.073-.854.22a1.5 1.5 0 0 0-.553.586c-.129.244-.193.512-.193.806zm.747.419v-.419a1.22 1.22 0 0 1 .091-.473c.064-.147.159-.265.285-.355s.288-.14.478-.14a.79.79 0 0 1 .768.494c.064.147.097.304.097.473v.419a1.22 1.22 0 0 1-.091.473c-.061.147-.156.267-.285.36s-.285.134-.478.134-.355-.045-.484-.134-.226-.213-.29-.36a1.25 1.25 0 0 1-.091-.473zm-2.719.903l3.82-6.115-.559-.355-3.82 6.115.559.355z" fill="#172a3a"/></g><defs><clipPath id="A"><path fill="#fff" d="M0 0h24v24H0z"/></clipPath></defs></svg>