<svg xmlns="http://www.w3.org/2000/svg" width="24" height="24" fill="none"><g clip-path="url(#A)"><path fill-rule="evenodd" d="M6.194 4.401A.5.5 0 0 1 6.684 4h6.184a.5.5 0 0 1 .428.241l1.338 2.213H24a.5.5 0 1 1 0 1h-8.761l1.622 2.682h2.192c1.115 0 2.186.44 2.976 1.223s1.235 1.848 1.235 2.958-.445 2.174-1.235 2.958-1.86 1.224-2.976 1.224H4.211c-1.115 0-2.186-.44-2.976-1.224S0 15.429 0 14.318s.445-2.174 1.235-2.958 1.86-1.223 2.976-1.223h.828l1.156-5.735zm-.756 6.735h11.133 2.482c.853 0 1.67.336 2.272.933s.939 1.406.939 2.249-.337 1.652-.939 2.249-1.419.933-2.272.933H4.211c-.853 0-1.67-.336-2.272-.933S1 15.161 1 14.318s.337-1.651.939-2.248 1.419-.933 2.272-.933h1.228zm10.254-1H6.058L7.093 5h5.493l1.334 2.206 1.772 2.931z" fill="#172a3a"/><path fill="#ffb13c" d="M6 19h11.5v3.5H6z"/><path fill="#5ca7ff" d="M6 15.5h11.5V19H6z"/></g><defs><clipPath id="A"><path fill="#fff" d="M0 0h24v24H0z"/></clipPath></defs></svg>