<svg xmlns="http://www.w3.org/2000/svg" width="81" height="18" fill="none"><g clip-path="url(#A)"><rect width="17.848" height="17.848" rx="2.059" fill="#fff"/><path d="M13.729 14.415h.686m-2.746 0h-1.373v-2.059m2.059 0h2.059v-2.059h-.686m-3.432 0h1.373m-8.237 2.059c0-.64 0-.96.104-1.212.139-.336.406-.603.743-.743.253-.104.572-.104 1.212-.104s.96 0 1.212.104a1.37 1.37 0 0 1 .743.743c.104.253.104.572.104 1.212s0 .96-.104 1.212c-.069.167-.17.318-.297.446s-.279.229-.445.298c-.253.104-.572.104-1.212.104s-.96 0-1.212-.104a1.37 1.37 0 0 1-.743-.743c-.104-.253-.104-.572-.104-1.212zm6.864-6.864c0-.64 0-.96.104-1.212.139-.336.407-.603.743-.743.253-.104.572-.104 1.212-.104s.96 0 1.212.104c.336.139.603.406.743.743.104.253.104.572.104 1.212s0 .96-.104 1.212c-.069.167-.17.318-.297.446s-.279.229-.445.298c-.253.104-.572.104-1.212.104s-.96 0-1.212-.104a1.37 1.37 0 0 1-.445-.297c-.127-.127-.229-.279-.298-.445-.104-.253-.104-.572-.104-1.212zm-6.864 0c0-.64 0-.96.104-1.212.139-.336.406-.603.743-.743.253-.104.572-.104 1.212-.104s.96 0 1.212.104a1.37 1.37 0 0 1 .743.743c.104.253.104.572.104 1.212s0 .96-.104 1.212c-.069.167-.17.318-.297.446s-.279.229-.445.298c-.253.104-.572.104-1.212.104s-.96 0-1.212-.104a1.37 1.37 0 0 1-.743-.743c-.104-.253-.104-.572-.104-1.212z" stroke="#000" stroke-width="1.373" stroke-linecap="round" stroke-linejoin="round"/></g><path d="M22.944 14.796V4.911h1.49l3.418 7.002 3.419-7.002h1.49v9.885h-1.544V8.46l-3.034 6.336h-.659L24.496 8.46v6.336h-1.551zm11.882-8.539V4.739h1.654v1.517h-1.654zm0 8.539V7.382h1.654v7.414h-1.654zm7.136-8.251c-.38 0-.728-.094-1.043-.281a2.15 2.15 0 0 1-.755-.748c-.188-.316-.281-.666-.281-1.05h1.291a.78.78 0 0 0 .789.789c.22 0 .405-.076.556-.227s.233-.343.233-.563h1.291c0 .384-.094.734-.281 1.05a2.15 2.15 0 0 1-.755.748c-.316.188-.664.281-1.043.281zm3 .837v7.414h-1.586V9.956l-3.528 4.839h-1.325V7.382h1.586v4.716l3.542-4.716h1.311zm7.758 7.633c-.705-.009-1.304-.167-1.799-.474s-.881-.739-1.16-1.297-.449-1.217-.508-1.977c-.027-.389-.03-.824-.007-1.304s.073-.95.151-1.407.185-.847.323-1.167.327-.616.556-.886.476-.503.741-.686a3.71 3.71 0 0 1 .982-.487 7.25 7.25 0 0 1 1.119-.261l1.201-.172 1.222-.192.151 1.462a6.67 6.67 0 0 1-.892.151l-1.043.11c-.357.041-.698.101-1.023.178s-.606.192-.844.343a1.94 1.94 0 0 0-.755.865 3.43 3.43 0 0 0-.309 1.188c.284-.421.636-.716 1.057-.886s.856-.261 1.291-.261c.659 0 1.224.156 1.695.467s.84.734 1.091 1.27.384 1.123.384 1.778c0 .732-.153 1.373-.46 1.922a3.23 3.23 0 0 1-1.277 1.277c-.545.302-1.174.451-1.888.446zm.082-1.551c.595 0 1.043-.183 1.345-.549s.46-.863.46-1.476c0-.627-.158-1.121-.474-1.483s-.755-.542-1.332-.542c-.586 0-1.032.181-1.339.542s-.46.856-.46 1.483c0 .641.156 1.14.467 1.496s.755.529 1.332.529zm7.127 1.538c-.535 0-.989-.101-1.359-.302s-.652-.478-.844-.817a2.27 2.27 0 0 1-.282-1.119c0-.357.059-.677.178-.961s.302-.535.549-.741.567-.382.961-.515a9.11 9.11 0 0 1 1.043-.261l1.304-.213 1.476-.22-.59.336c.005-.513-.11-.89-.343-1.133s-.627-.364-1.181-.364a2.14 2.14 0 0 0-.968.233c-.311.156-.529.423-.652.803l-1.51-.474c.183-.627.531-1.13 1.043-1.51s1.213-.57 2.087-.57c.659 0 1.238.108 1.737.323s.876.567 1.119 1.057c.133.261.213.529.24.803s.041.565.041.886v4.551h-1.448v-1.606l.24.261c-.334.535-.725.929-1.174 1.181s-1 .371-1.668.371zm.329-1.318c.375 0 .696-.066.961-.199s.476-.295.631-.487.268-.373.323-.542a2.06 2.06 0 0 0 .144-.721l.021-.666.508.151-1.284.206-.92.172c-.256.05-.483.108-.68.172s-.355.149-.487.24-.236.197-.309.316-.103.258-.103.419a.88.88 0 0 0 .137.487c.092.137.224.247.398.33s.398.123.659.123zm5.494 1.112V7.382h1.654v2.924h3.329V7.382h1.654v7.414h-1.654v-2.938h-3.329v2.938h-1.654zm8.54 0l.014-7.414h1.675v3.569l2.711-3.569h2.066l-2.876 3.707 3.123 3.707h-2.19l-2.835-3.569v3.569h-1.689z" fill="#fff"/><defs><clipPath id="A"><rect width="17.848" height="17.848" rx="2.059" fill="#fff"/></clipPath></defs></svg>