<svg xmlns="http://www.w3.org/2000/svg" width="120" height="28" fill="#000"><path d="M0 24V4a4 4 0 0 1 4-4v2a2 2 0 0 0-2 2v20l.011.204a2 2 0 0 0 1.785 1.785L4 26h20l.204-.011A2 2 0 0 0 26 24V4a2 2 0 0 0-2-2V0a4 4 0 0 1 4 4v20a4 4 0 0 1-4 4H4a4 4 0 0 1-4-4zM24 0v2H4V0h20zM11 19l-.017-1.026a1.12 1.12 0 0 0-.06-.356l-.042-.09a1 1 0 0 0-.499-.451v-.001c-.043-.017-.131-.043-.356-.059C9.789 17.001 9.48 17 9 17l-1.026.017c-.227.015-.315.041-.357.059a1 1 0 0 0-.54.542c-.017.043-.044.13-.06.356A16.97 16.97 0 0 0 7 19l.017 1.026c.015.227.042.315.06.357l.042.088a1 1 0 0 0 .498.452l.108.03a2.07 2.07 0 0 0 .249.029C8.211 21 8.52 21 9 21l1.026-.017a1.12 1.12 0 0 0 .356-.06 1 1 0 0 0 .541-.541l.03-.108a2.05 2.05 0 0 0 .029-.248C11 19.789 11 19.48 11 19zm4 0a1 1 0 1 1 2 0v2h1a1 1 0 1 1 0 2h-2a1 1 0 0 1-1-1v-3zm7 2a1 1 0 1 1 0 2h-1a1 1 0 1 1 0-2h1zm0-6a1 1 0 0 1 1 1v3a1 1 0 0 1-1 1h-3a1 1 0 1 1 0-2h2v-1a1 1 0 1 1 0-2h1zm-4 0a1 1 0 1 1 0 2h-2a1 1 0 1 1 0-2h2zm-7-6l-.017-1.026a1.12 1.12 0 0 0-.06-.356l-.042-.09a1 1 0 0 0-.499-.451v-.001c-.043-.017-.131-.043-.356-.059C9.789 7 9.48 7 9 7l-1.026.017c-.227.015-.315.041-.357.059a1 1 0 0 0-.54.542c-.017.043-.044.131-.06.356C7 8.211 7 8.52 7 9l.017 1.026c.015.227.042.315.06.357l.042.088a1 1 0 0 0 .498.452l.108.03a2.07 2.07 0 0 0 .249.029C8.211 11 8.52 11 9 11l1.026-.017a1.12 1.12 0 0 0 .356-.06 1 1 0 0 0 .541-.541l.03-.108a2.05 2.05 0 0 0 .029-.248C11 9.789 11 9.48 11 9zm10 0l-.017-1.026a1.12 1.12 0 0 0-.06-.356l-.042-.09a1 1 0 0 0-.499-.451v-.001c-.043-.017-.131-.043-.356-.059C19.789 7 19.48 7 19 7l-1.026.017c-.227.015-.315.041-.357.059a1 1 0 0 0-.54.542c-.017.043-.044.131-.06.356C17.001 8.211 17 8.52 17 9l.017 1.026c.015.227.042.315.06.357l.042.088a1 1 0 0 0 .498.452l.108.03a2.1 2.1 0 0 0 .249.029 17 17 0 0 0 1.026.017l1.026-.017a1.12 1.12 0 0 0 .356-.06 1 1 0 0 0 .541-.541l.03-.108a2.05 2.05 0 0 0 .029-.248C21 9.789 21 9.48 21 9zm-8 10l-.021 1.162a3.07 3.07 0 0 1-.207.984 3.02 3.02 0 0 1-.649.975 3 3 0 0 1-.973.65l-.002.001c-.326.134-.656.184-.985.206L9 23c-.452 0-.841 0-1.162-.021-.33-.022-.66-.072-.985-.206l-.001-.001a3 3 0 0 1-1.623-1.623h-.001c-.134-.326-.184-.656-.206-.985L5 19l.021-1.162c.022-.33.072-.66.206-.985l.001-.001a3 3 0 0 1 1.623-1.623l.001-.001c.326-.134.656-.184.985-.206L9 15l1.162.021c.33.022.66.072.985.206v.001a3 3 0 0 1 1.496 1.354l.127.269.001.001c.134.326.184.656.206.985L13 19zm0-10l-.021 1.162a3.07 3.07 0 0 1-.207.984 3.02 3.02 0 0 1-.649.975 3 3 0 0 1-.973.65l-.002.001c-.326.134-.656.184-.985.206L9 13c-.452 0-.841 0-1.162-.021-.33-.022-.66-.072-.985-.206l-.001-.001a3 3 0 0 1-1.623-1.623h-.001c-.134-.326-.184-.656-.206-.985L5 9l.021-1.162c.022-.33.072-.66.206-.985l.001-.001a3 3 0 0 1 1.623-1.623l.001-.001c.326-.134.656-.184.985-.206L9 5l1.162.021a3.44 3.44 0 0 1 .74.12l.245.086v.001a3 3 0 0 1 1.496 1.354l.127.269.001.001c.134.326.184.656.206.985L13 9zm10 0l-.021 1.162a3.07 3.07 0 0 1-.207.984 3.02 3.02 0 0 1-.649.975 3 3 0 0 1-.973.65l-.002.001c-.326.134-.656.184-.985.206L19 13c-.452 0-.841 0-1.162-.021-.33-.022-.66-.072-.985-.206l-.001-.001a3 3 0 0 1-1.623-1.623h-.001c-.134-.326-.184-.656-.206-.985L15 9l.021-1.162c.022-.33.072-.66.206-.985l.001-.001a3 3 0 0 1 1.623-1.623l.001-.001c.326-.134.656-.184.985-.206L19 5l1.162.021a3.44 3.44 0 0 1 .74.12l.245.086v.001a3 3 0 0 1 1.496 1.354l.127.269.001.001c.134.326.184.656.206.985L23 9zm12.4 12V6.6h2.17l4.98 10.2 4.98-10.2h2.17V21h-2.25v-9.23L43.03 21h-.96l-4.41-9.23V21H35.4zM52.709 8.56V6.35h2.41v2.21h-2.41zm0 12.44V10.2h2.41V21h-2.41zM63.105 8.98a2.92 2.92 0 0 1-1.52-.41 3.13 3.13 0 0 1-1.1-1.09 2.94 2.94 0 0 1-.41-1.53h1.88c0 .32.11.593.33.82.227.22.5.33.82.33a1.1 1.1 0 0 0 .81-.33c.227-.227.34-.5.34-.82h1.88c0 .56-.137 1.07-.41 1.53a3.13 3.13 0 0 1-1.1 1.09 2.92 2.92 0 0 1-1.52.41zm4.37 1.22V21h-2.31v-7.05L60.025 21h-1.93V10.2h2.31v6.87l5.16-6.87h1.91zm11.302 11.12c-1.027-.013-1.9-.243-2.62-.69s-1.283-1.077-1.69-1.89-.653-1.773-.74-2.88a16.23 16.23 0 0 1-.01-1.9c.033-.7.107-1.383.22-2.05s.27-1.233.47-1.7c.207-.467.477-.897.81-1.29a5.41 5.41 0 0 1 2.51-1.71c.52-.167 1.063-.293 1.63-.38l1.75-.25 1.78-.28.22 2.13c-.373.093-.807.167-1.3.22l-1.52.16a12.6 12.6 0 0 0-1.49.26c-.473.113-.883.28-1.23.5a2.82 2.82 0 0 0-1.1 1.26c-.253.547-.403 1.123-.45 1.73.413-.613.927-1.043 1.54-1.29a4.94 4.94 0 0 1 1.88-.38c.96 0 1.783.227 2.47.68a4.39 4.39 0 0 1 1.59 1.85c.373.773.56 1.637.56 2.59 0 1.067-.223 2-.67 2.8s-1.067 1.42-1.86 1.86-1.71.657-2.75.65zm.12-2.26c.867 0 1.52-.267 1.96-.8.447-.54.67-1.257.67-2.15 0-.913-.23-1.633-.69-2.16-.453-.527-1.1-.79-1.94-.79-.853 0-1.503.263-1.95.79s-.67 1.247-.67 2.16c0 .933.227 1.66.68 2.18.453.513 1.1.77 1.94.77zM89.28 21.3c-.78 0-1.44-.147-1.98-.44-.54-.3-.95-.697-1.23-1.19a3.31 3.31 0 0 1-.41-1.63c0-.52.087-.987.26-1.4a2.76 2.76 0 0 1 .8-1.08c.36-.307.827-.557 1.4-.75.433-.14.94-.267 1.52-.38l1.9-.31 2.15-.32-.86.49c.007-.747-.16-1.297-.5-1.65s-.913-.53-1.72-.53a3.11 3.11 0 0 0-1.41.34c-.453.227-.77.617-.95 1.17l-2.2-.69c.267-.913.773-1.647 1.52-2.2.753-.553 1.767-.83 3.04-.83.96 0 1.803.157 2.53.47a3.14 3.14 0 0 1 1.63 1.54 3.29 3.29 0 0 1 .35 1.17c.04.393.06.823.06 1.29V21h-2.11v-2.34l.35.38c-.487.78-1.057 1.353-1.71 1.72-.647.36-1.457.54-2.43.54zm.48-1.92c.547 0 1.013-.097 1.4-.29s.693-.43.92-.71c.233-.28.39-.543.47-.79a2.99 2.99 0 0 0 .21-1.05l.03-.97.74.22-1.87.3-1.34.25a8.53 8.53 0 0 0-.99.25 3.07 3.07 0 0 0-.71.35c-.193.133-.343.287-.45.46a1.2 1.2 0 0 0-.15.61 1.28 1.28 0 0 0 .2.71 1.39 1.39 0 0 0 .58.48c.26.12.58.18.96.18zM97.763 21V10.2h2.41v4.26h4.85V10.2h2.41V21h-2.41v-4.28h-4.85V21h-2.41zm12.441 0l.02-10.8h2.44v5.2l3.95-5.2h3.01l-4.19 5.4 4.55 5.4h-3.19l-4.13-5.2V21h-2.46z"/></svg>