<svg xmlns="http://www.w3.org/2000/svg" width="48" height="48" fill="none" xmlns:v="https://vecta.io/nano"><path d="M2.794 46.226c.851.922 4.358-.686 7.125-1.976 2.074-.964 10.372-4.369 14.497-6.135 1.114-.476 2.734-1.099 3.9-2.633 1.035-1.365 3.78-7.162-1.748-13.035-5.61-5.963-11.389-4.316-13.549-2.786-1.271.9-2.306 2.929-2.771 3.96-1.965 4.357-4.766 12.341-5.906 15.48-.836 2.314-2.392 6.21-1.549 7.125z" fill="#ffc107"/><path d="M9.694 24.934c.053.652.184 1.714.634 3.757.308 1.403.81 2.873 1.219 3.844 1.226 2.921 2.948 4.099 4.691 5.044 2.962 1.605 4.976 1.905 4.976 1.905l-2.415.986s-1.462-.304-3.457-1.286c-1.901-.937-3.881-2.524-5.329-5.629-.626-1.346-.99-2.651-1.2-3.686-.259-1.282-.3-2.01-.3-2.01l1.181-2.925zm-2.966 7.605s.3 2.434 2.31 5.505c2.355 3.593 5.644 4.181 5.644 4.181l-2.186.9s-2.441-.746-4.762-3.915c-1.447-1.976-1.852-4.339-1.852-4.339l.848-2.332zm-2.081 5.767s.548 2.1 1.747 3.667c1.429 1.871 3.248 2.415 3.248 2.415l-1.676.742s-1.271-.266-2.662-2.029c-1.057-1.339-1.357-2.876-1.357-2.876l.701-1.92z" fill="#ff8f00"/><path opacity=".44" d="M3.735 43.639c-.075-.169-.075-.36.004-.525l9.551-19.807 1.571 5.906-10.05 14.516c-.27.405-.877.352-1.076-.09z" fill="#fffde7"/><path d="M15.618 31.196c4.463 5.22 9.544 4.567 11.235 3.247s3.034-5.872-1.41-11.006c-4.658-5.378-9.93-3.844-11.149-2.681s-2.771 5.651 1.324 10.44z" fill="url(#A)"/><path d="M30.945 33.345c-1.628-1.365-2.494-1.121-3.656-.638-1.5.623-3.859 1.084-7.061 0l.964-2.321c1.901.641 3.278.33 4.466-.371 1.53-.9 3.623-2.134 6.877.6 1.358 1.14 2.749 1.898 3.769 1.553.742-.248 1.136-1.354 1.335-2.235a6.36 6.36 0 0 0 .071-.503c.18-1.376.48-4.346 2.693-5.865 2.366-1.624 4.852-1.624 4.852-1.624l.45 4.47c-1.144-.169-1.939.064-2.61.435-2.527 1.406-.326 6.806-4.26 8.621-3.784 1.759-6.878-1.275-7.89-2.122z" fill="#03a9f4"/><path d="M17.025 27.645l-1.627-1.459c2.989-3.337 2.201-5.79 1.627-7.575l-.296-1.027c-.255-1.155-.308-2.16-.229-3.037-1.148-1.429-1.654-2.925-1.687-3.026-.697-2.111-.172-4.17 1.031-6.101C18.278 1.5 22.684 1.5 22.684 1.5l1.47 3.934c-1.117-.045-4.781.011-5.906 1.785-1.421 2.235-.487 3.615-.42 3.773.274-.356.551-.641.799-.863 1.796-1.594 3.356-1.822 4.35-1.732 1.117.101 2.13.664 2.854 1.586.791 1.012 1.118 2.329.866 3.525-.244 1.166-1.02 2.153-2.186 2.779-2.036 1.095-3.731.945-4.868.566.008.026.011.056.019.082.041.188.124.45.221.754.664 2.055 1.898 5.318-2.858 9.956zm2.756-14.074a3.16 3.16 0 0 0 .683.383c.788.315 1.646.21 2.621-.315.574-.308.641-.637.664-.746.067-.326-.045-.742-.289-1.054-.214-.274-.461-.416-.758-.446-.562-.049-1.324.307-2.085.986-.364.326-.641.727-.836 1.192z" fill="#f44336"/><path d="M23.539 28.256l-2.329-.064s1.106-6.247 4.688-7.297c.671-.195 1.406-.394 2.145-.503.439-.067 1.133-.169 1.474-.296.079-.589-.169-1.339-.446-2.19-.218-.66-.442-1.339-.562-2.081-.233-1.447.154-2.726 1.087-3.607 1.14-1.069 2.981-1.41 5.059-.937 1.185.27 2.059.851 2.828 1.361 1.099.731 1.74 1.103 3.082.199 1.624-1.095-.499-5.381-1.627-7.856l4.211-1.755c.566 1.238 3.3 7.605 1.496 11.239-.608 1.223-1.654 2.033-3.026 2.336-2.985.668-4.733-.495-6.007-1.342-.604-.401-1.133-.716-1.706-.881-3.986-1.136 1.579 4.729-1.028 7.365-1.564 1.579-5.385 1.995-5.632 2.055-2.46.593-3.705 4.256-3.705 4.256z" fill="#f48fb1"/><path d="M16.496 14.546c-.071.825-.105 1.316.109 2.389 1.031.758 3.278.758 3.278.758l-.221-.754c-.007-.026-.011-.056-.019-.082-2.284-1.14-3.146-2.31-3.146-2.31z" fill="#c92b27"/><path d="M11.824 18.24l-3.878-1.901 1.931-2.79 3.041 2.014-1.095 2.678z" fill="#ffc107"/><path d="M6.108 12.975c-1.98-.266-3.997-1.946-4.219-2.137l1.946-2.284c.589.499 1.838 1.335 2.674 1.447l-.401 2.974z" fill="#fb8c00"/><path d="M9.604 7.976l-2.85-.934c.326-.998.412-2.074.244-3.113l2.963-.476c.244 1.507.12 3.071-.356 4.523z" fill="#03a9f4"/><path d="M27.402 5.747l2.931-.641.846 3.868-2.931.641-.846-3.869z" fill="#fb8c00"/><path d="M34.673 6.664L32.61 4.485a4.77 4.77 0 0 0 1.328-2.377l2.962.484c-.037.236-.416 2.359-2.227 4.073z" fill="#ffc107"/><path d="M35.817 18.217l2.62-.819.895 2.864-2.62.819-.895-2.863z" fill="#fb8c00"/><path d="M36.581 42.386l-2.981-.352c.127-1.061-.664-2.362-.881-2.651l2.4-1.8c.18.236 1.744 2.4 1.462 4.804z" fill="#f44336"/><path d="M45.139 38.584c-1.121-.169-2.269-.236-3.401-.195l-.101-3c1.316-.045 2.648.03 3.949.229l-.446 2.966z" fill="#fb8c00"/><path d="M41.106 42.713l2.108-2.135 2.901 2.864-2.107 2.135-2.901-2.864z" fill="#f48fb1"/><path d="M34.914 23.75l2.168 2.478-2.478 2.168-2.168-2.478 2.478-2.168z" fill="#f44336"/><defs><linearGradient id="A" x1="27.894" y1="23.19" x2="16.731" y2="29.887" gradientUnits="userSpaceOnUse"><stop offset=".024" stop-color="#8f4700"/><stop offset="1" stop-color="#703e2d"/></linearGradient></defs></svg>