<svg xmlns="http://www.w3.org/2000/svg" width="32" height="32" fill="none"><mask id="A" maskUnits="userSpaceOnUse" x="3" y="2" width="26" height="28" fill="#000"><path fill="#fff" d="M3 2h26v28H3z"/><path d="M22.028 4.57c-3.993-.76-8.14-.76-12.133 0-1.766.38-3.993 2.506-4.377 4.177a23.77 23.77 0 0 0 0 9.874c.461 1.671 2.688 3.798 4.377 4.177.077 0 .154.076.154.152v4.785c0 .228.307.38.461.152l2.304-2.355 2.15-2.203s.077-.076.153-.076c2.304.076 4.684-.152 6.988-.532 1.766-.38 3.993-2.506 4.377-4.177a23.77 23.77 0 0 0 0-9.874c-.461-1.595-2.688-3.722-4.454-4.101zm.077 14.279c-.384.759-.845 1.367-1.613 1.747l-.691.228c-.307-.076-.538-.152-.768-.228-2.457-.987-4.761-2.355-6.604-4.329-.998-1.139-1.843-2.431-2.534-3.798-.307-.684-.614-1.291-.845-1.975-.23-.608.154-1.215.538-1.671s.845-.76 1.382-.987c.384-.228.768-.076 1.075.228.614.76 1.229 1.519 1.689 2.355.307.532.23 1.139-.307 1.519-.154.076-.23.152-.384.304-.077.076-.23.152-.307.304a.73.73 0 0 0-.077.684c.614 1.747 1.766 3.114 3.532 3.874.307.152.538.228.921.228.538-.076.768-.684 1.152-.987s.845-.304 1.305-.076c.384.228.768.532 1.229.835.384.304.768.532 1.152.835.23.152.307.532.154.912zm-3.225-5.696c-.154 0-.077 0 0 0-.307 0-.384-.152-.461-.38 0-.152 0-.38-.077-.532-.077-.304-.23-.608-.538-.835l-.461-.228c-.23-.076-.384-.076-.614-.076-.23-.076-.307-.228-.307-.456 0-.152.23-.304.384-.304 1.229.076 2.15.759 2.304 2.203v.304c0 .152-.077.304-.23.304zm-.768-3.342c-.384-.152-.768-.304-1.229-.38-.154 0-.384-.076-.537-.076-.23 0-.384-.152-.307-.38 0-.228.154-.38.384-.304.768.076 1.459.228 2.15.532 1.382.684 2.15 1.823 2.381 3.342v.228.532.228c-.077.304-.614.38-.691 0 0-.076-.077-.228-.077-.304 0-.684-.154-1.367-.461-1.975-.461-.684-.998-1.139-1.613-1.443zm4.147 4.557c-.23 0-.384-.228-.384-.456 0-.456-.077-.911-.154-1.367-.307-2.431-2.304-4.405-4.684-4.785-.384-.076-.768-.076-1.075-.152-.23 0-.538 0-.614-.304-.077-.228.154-.456.384-.456h.154c.154 0 3.148.076 0 0 3.225.076 5.913 2.203 6.45 5.393.077.532.154 1.063.154 1.671.153.228 0 .456-.23.456z"/></mask><path d="M22.028 4.57c-3.993-.76-8.14-.76-12.133 0-1.766.38-3.993 2.506-4.377 4.177a23.77 23.77 0 0 0 0 9.874c.461 1.671 2.688 3.798 4.377 4.177.077 0 .154.076.154.152v4.785c0 .228.307.38.461.152l2.304-2.355 2.15-2.203s.077-.076.153-.076c2.304.076 4.684-.152 6.988-.532 1.766-.38 3.993-2.506 4.377-4.177a23.77 23.77 0 0 0 0-9.874c-.461-1.595-2.688-3.722-4.454-4.101zm.077 14.279c-.384.759-.845 1.367-1.613 1.747l-.691.228c-.307-.076-.538-.152-.768-.228-2.457-.987-4.761-2.355-6.604-4.329-.998-1.139-1.843-2.431-2.534-3.798-.307-.684-.614-1.291-.845-1.975-.23-.608.154-1.215.538-1.671s.845-.76 1.382-.987c.384-.228.768-.076 1.075.228.614.76 1.229 1.519 1.689 2.355.307.532.23 1.139-.307 1.519-.154.076-.23.152-.384.304-.077.076-.23.152-.307.304a.73.73 0 0 0-.077.684c.614 1.747 1.766 3.114 3.532 3.874.307.152.538.228.921.228.538-.076.768-.684 1.152-.987s.845-.304 1.305-.076c.384.228.768.532 1.229.835.384.304.768.532 1.152.835.23.152.307.532.154.912zm-3.225-5.696c-.154 0-.077 0 0 0-.307 0-.384-.152-.461-.38 0-.152 0-.38-.077-.532-.077-.304-.23-.608-.538-.835l-.461-.228c-.23-.076-.384-.076-.614-.076-.23-.076-.307-.228-.307-.456 0-.152.23-.304.384-.304 1.229.076 2.15.759 2.304 2.203v.304c0 .152-.077.304-.23.304zm-.768-3.342c-.384-.152-.768-.304-1.229-.38-.154 0-.384-.076-.537-.076-.23 0-.384-.152-.307-.38 0-.228.154-.38.384-.304.768.076 1.459.228 2.15.532 1.382.684 2.15 1.823 2.381 3.342v.228.532.228c-.077.304-.614.38-.691 0 0-.076-.077-.228-.077-.304 0-.684-.154-1.367-.461-1.975-.461-.684-.998-1.139-1.613-1.443zm4.147 4.557c-.23 0-.384-.228-.384-.456 0-.456-.077-.911-.154-1.367-.307-2.431-2.304-4.405-4.684-4.785-.384-.076-.768-.076-1.075-.152-.23 0-.538 0-.614-.304-.077-.228.154-.456.384-.456h.154c.154 0 3.148.076 0 0 3.225.076 5.913 2.203 6.45 5.393.077.532.154 1.063.154 1.671.153.228 0 .456-.23.456z" fill="#7c509a"/><path d="M22.028 4.57l.421-1.955-.023-.005-.023-.004-.374 1.965zm-12.133 0l-.374-1.965-.023.004-.023.005.42 1.955zM5.518 8.747l-1.949-.448-.004.017-.004.017 1.957.414zm0 9.874l-1.957.414.013.059.016.058 1.928-.532zm4.377 4.177l-.439 1.951.217.049h.222v-2zm.614 5.089l-1.43-1.399-.127.13-.102.151 1.658 1.118zm2.304-2.355l1.43 1.399.005-.006-1.435-1.393zm2.15-2.203l-1.406-1.422h0l1.406 1.422zm.153-.076l.066-1.999-.033-.001h-.033v2zm6.988-.532l.325 1.973.048-.008.047-.01-.421-1.955zm4.377-4.177l1.949.448.004-.017.004-.017-1.957-.414zm0-9.874l1.957-.414-.015-.071-.02-.07-1.921.555zm-4.377 10.178l1.785.902.038-.075.031-.078-1.854-.75zm-1.613 1.747l.626 1.899.134-.044.126-.062-.887-1.793zm-.691.228l-.48 1.942.559.138.547-.18-.626-1.899zm-.768-.228l-.746 1.856.059.024.06.02.626-1.899zm-6.604-4.329l-1.504 1.318.021.024.021.023 1.462-1.365zm-2.534-3.798l-1.824.82.019.042.021.041 1.785-.902zm-.845-1.975l1.895-.639-.012-.035-.013-.035-1.87.709zm1.92-2.658l.781 1.841.124-.053.116-.069-1.021-1.72zm1.075.228L13.6 6.806l-.07-.086-.079-.078-1.406 1.422zm1.689 2.355l-1.751.966.01.018.01.017 1.732-1.001zm-.307 1.519l.887 1.793.14-.069.127-.09-1.154-1.634zm-.691.608l1.658 1.118.07-.104.056-.112-1.785-.902zm-.077.684l-1.895.639.004.012.004.012 1.887-.663zm3.532 3.874l.887-1.793-.048-.024-.049-.021-.79 1.837zm.921.228v2h.141l.139-.02-.28-1.98zm2.457-1.063l1.021-1.72-.066-.039-.068-.034-.887 1.793zm1.229.835l1.241-1.568-.068-.054-.072-.048-1.101 1.67zm1.152.835l-1.241 1.568.068.054.072.048 1.101-1.67zm-3.532-5.165h-2v.328l.105.311 1.895-.639zm-.077-.532l-1.939.49.054.215.1.198 1.785-.902zm-.538-.835l1.192-1.606-.144-.107-.161-.08-.887 1.793zm-.461-.228l.887-1.793-.126-.063-.134-.044-.626 1.899zm-.614-.076l-.626 1.899.305.101h.321v-2zm.077-.759l.123-1.996-.062-.004h-.062v2zm2.304 2.203h2v-.106l-.011-.105-1.989.212zm0 .304h2-2zm-.998-3.038l.887-1.793-.074-.037-.077-.03-.736 1.86zm-1.229-.38l.325-1.973-.162-.027h-.164v2zm-.845-.456l1.895.639.105-.311v-.328h-2zm.384-.304l-.626 1.899.21.069.22.022.197-1.99zm2.15.532l.887-1.793-.04-.02-.041-.018-.805 1.831zm2.381 3.342h2v-.151l-.023-.149-1.977.3zm0 .987l1.939.49.061-.241v-.249h-2zm-.691 0h-2v.2l.04.196 1.96-.396zm-.538-2.279l1.785-.902-.056-.112-.07-.104-1.658 1.118zm1.997 1.291l-1.984.251.005.041.007.041 1.972-.332zM17.037 7.76l-.388 1.962.036.007.037.006.315-1.975zm-1.075-.152l.48-1.942-.236-.058h-.244v2zm-.614-.304l1.939-.49-.019-.075-.025-.073-1.895.639zm.537-.456l.048-1.999-.024-.001h-.024v2zm0 0v-2l-.047 3.999.047-1.999zm6.45 5.393l1.979-.286-.003-.023-.004-.023-1.972.332zm.154 1.671h-2v.611l.341.507 1.659-1.118zm-.087-11.307c-4.24-.807-8.64-.807-12.88 0l.747 3.93c3.746-.713 7.639-.713 11.385 0l.748-3.93zm-12.927.009C8.096 2.911 6.779 3.8 5.807 4.728c-.962.918-1.922 2.196-2.238 3.572l3.898.896c.068-.295.413-.916 1.102-1.574.679-.649 1.359-1.013 1.746-1.096l-.841-3.911zM3.562 8.333a25.77 25.77 0 0 0 0 10.702l3.913-.828a21.77 21.77 0 0 1 0-9.046l-3.913-.828zm.029 10.82c.365 1.325 1.319 2.575 2.275 3.488s2.249 1.807 3.592 2.109l.877-3.903c-.347-.078-1.012-.436-1.707-1.1s-1.085-1.312-1.181-1.658L3.59 19.153zm6.305 5.646c-.604 0-1.047-.279-1.301-.531a1.85 1.85 0 0 1-.546-1.318h4a2.15 2.15 0 0 0-.642-1.526c-.312-.308-.831-.626-1.512-.626v4zM8.049 22.95v4.785h4V22.95h-4zm0 4.785c0 1.04.681 1.808 1.437 2.107a2.23 2.23 0 0 0 2.682-.837L8.851 26.77c.204-.302.536-.578.978-.702.422-.119.82-.067 1.128.055a1.73 1.73 0 0 1 1.092 1.613h-4zm3.89 1.551l2.304-2.355-2.859-2.797-2.304 2.355 2.859 2.797zm.874-3.753l1.435 1.393.021-.021.059-.061.213-.219.666-.684 1.164-1.189-2.813-2.844c-.171.169-.727.738-1.217 1.242l-.668.687-.213.22-.059.061-.015.016c-.005.006-.005.006 1.43 1.398zm2.15-2.203l1.406 1.423-.022.021-.024.022c-.016.015-.034.031-.053.047a1.65 1.65 0 0 1-.158.118c-.065.043-.172.107-.316.164s-.376.128-.679.128v-4a2.2 2.2 0 0 0-1.207.368c-.097.064-.173.125-.227.17a2.25 2.25 0 0 0-.073.065l-.029.027-.019.018c-.005.005-.006.006 1.401 1.428zm.088 1.923c2.473.081 4.991-.164 7.379-.557l-.651-3.947c-2.219.366-4.462.577-6.597.506l-.132 3.998zm7.474-.575c1.378-.297 2.696-1.186 3.667-2.113.962-.918 1.922-2.196 2.238-3.572l-3.898-.896c-.068.295-.413.916-1.102 1.574-.679.649-1.359 1.013-1.746 1.096l.841 3.911zm5.913-5.719c.749-3.539.749-7.163 0-10.702l-3.913.828a21.77 21.77 0 0 1 0 9.046l3.913.828zm-.035-10.843c-.372-1.288-1.331-2.516-2.295-3.414-.97-.904-2.283-1.791-3.66-2.087l-.841 3.911c.39.084 1.073.45 1.773 1.103.706.659 1.091 1.292 1.18 1.599l3.843-1.11zm-8.083 9.831c-.283.561-.488.744-.714.856l1.773 3.585c1.309-.647 2.026-1.679 2.511-2.637l-3.57-1.805zm-.454.75l-.346.114-.346.114 1.252 3.799.346-.114.346-.114-1.253-3.799zm.415.186c-.227-.056-.394-.111-.622-.186l-1.253 3.799c.233.077.526.174.914.27l.96-3.883zm-.502-.142c-2.272-.913-4.3-2.137-5.887-3.838l-2.924 2.729c2.098 2.248 4.678 3.759 7.32 4.821l1.491-3.712zm-5.845-3.792a16.26 16.26 0 0 1-2.253-3.382l-3.57 1.805c.757 1.498 1.693 2.933 2.815 4.213l3.008-2.636zm-2.214-3.299c-.354-.789-.585-1.233-.774-1.794l-3.791 1.277c.272.806.656 1.577.916 2.156l3.649-1.639zm-.799-1.864a.93.93 0 0 1 .059.384c-.007.106-.031.17-.036.183s.002-.007.035-.057a2.02 2.02 0 0 1 .14-.183L8.059 7.534c-.244.29-.592.745-.824 1.317-.243.601-.398 1.444-.054 2.351l3.74-1.418zm.197.327c.14-.166.32-.302.633-.435L10.19 5.994c-.762.323-1.503.795-2.131 1.54l3.059 2.577zm.873-.556a1.24 1.24 0 0 1-.461.158c-.185.026-.356.009-.497-.028-.263-.069-.387-.194-.394-.2l2.813-2.844c-.314-.31-.783-.663-1.411-.827a2.72 2.72 0 0 0-2.091.301l2.041 3.44zm-1.501-.234c.635.785 1.132 1.408 1.493 2.063l3.503-1.932c-.561-1.017-1.292-1.913-1.886-2.646l-3.11 2.515zm1.513 2.097c-.046-.08-.122-.271-.073-.539.052-.29.218-.487.344-.576l2.308 3.267c.663-.469 1.136-1.159 1.284-1.981.144-.8-.046-1.561-.4-2.172l-3.463 2.001zm.538-1.274c-.478.236-.761.533-.904.675l2.813 2.844.075-.074c.012-.011.003-.003-.017.014a1.05 1.05 0 0 1-.097.071c-.04.026-.074.044-.096.055l-1.773-3.585zm-.904.675c.082-.081.15-.13.122-.109l-.045.034c-.024.018-.058.045-.097.077-.147.121-.447.387-.666.822l3.57 1.804a1.53 1.53 0 0 1-.221.326 1.27 1.27 0 0 1-.138.134c.006-.004.017-.012.026-.02a3.26 3.26 0 0 0 .095-.075c.04-.033.1-.084.167-.15l-2.813-2.844zm-.559.608c-.581.861-.539 1.77-.314 2.44l3.791-1.277c.025.074.069.24.05.465a1.29 1.29 0 0 1-.21.608l-3.317-2.236zm-.305 2.465c.778 2.212 2.292 4.042 4.629 5.047l1.58-3.675c-1.195-.514-1.985-1.418-2.436-2.7l-3.774 1.327zm4.533 5.003a3.82 3.82 0 0 0 1.808.435v-4c-.03 0-.037-.002-.028 0s.011.002.021.003.019.004.028.006c.02.005.029.009.024.007s-.031-.013-.079-.037l-1.773 3.585zm2.088.415c1.017-.144 1.619-.794 1.865-1.079.068-.079.129-.154.173-.209l.104-.129c.059-.07.039-.038-.03.017l-2.482-3.137a3.83 3.83 0 0 0-.562.561l-.146.179-.081.098c-.04.047-.008 0 .082-.063a1.2 1.2 0 0 1 .516-.199l.56 3.961zm2.113-1.399a.94.94 0 0 1-.531.192c-.186.008-.29-.043-.291-.044l1.773-3.586c-.97-.479-2.297-.599-3.433.3l2.482 3.137zm-.956.076a7.09 7.09 0 0 1 .452.303l.696.482 2.202-3.339c-.196-.129-.371-.255-.59-.41a10.83 10.83 0 0 0-.719-.476l-2.041 3.44zm1.008.684c.25.198.493.366.678.494a9.14 9.14 0 0 1 .473.342l2.482-3.137c-.25-.198-.493-.366-.678-.494a9.19 9.19 0 0 1-.473-.342l-2.482 3.137zm1.292.937a1.46 1.46 0 0 1-.647-.948c-.044-.246-.002-.437.048-.56l3.708 1.5c.337-.833.451-2.436-.907-3.331l-2.202 3.339zm-1.971-8.455h-.02-.021-.02-.02l-.008 4h.02.02.02.02l.008-4h-.02-.02-.02-.02c-.008 0-.008 2-.008 4h.02.02.021.02l.007-4zm0 0a1.43 1.43 0 0 1 .462.082c.227.078.445.211.628.392a1.57 1.57 0 0 1 .305.418c.038.077.053.128.04.09l-3.791 1.277c.032.095.19.621.633 1.059.551.545 1.221.682 1.723.682v-4zm1.539 1.62c0-.065.002-.257-.02-.467-.019-.188-.071-.568-.272-.967l-3.57 1.805c-.069-.136-.101-.249-.116-.311s-.021-.109-.022-.124-.001-.023-.001.065h4zm-.138-1.022a3.44 3.44 0 0 0-1.285-1.952l-2.383 3.213c-.067-.05-.123-.114-.163-.18-.037-.06-.047-.101-.047-.101l3.878-.98zm-1.59-2.138l-.23-.114-.23-.114-1.773 3.585.23.114.23.114 1.773-3.585zm-.721-.335c-.559-.184-.992-.177-1.241-.177v4h.04.032.042l-.036-.005c-.013-.002-.026-.004-.039-.007a.67.67 0 0 1-.033-.008l1.235-3.804zm-.614-.076c.214.071.569.255.825.66.232.366.242.697.242.784h-4c0 .315.049.835.377 1.353a2.42 2.42 0 0 0 1.304 1.002l1.252-3.799zm1.067 1.444a1.8 1.8 0 0 1-.303 1.006c-.13.192-.27.317-.371.391s-.221.142-.349.192a1.65 1.65 0 0 1-.593.107v-4c-.631 0-1.136.262-1.441.489-.244.181-.943.776-.943 1.815h4zm-1.739 1.692c.14.009.231.032.283.051.025.01.041.018.05.023s.014.01.017.014.01.014.019.033c.018.038.052.129.07.297l3.977-.423c-.12-1.124-.569-2.145-1.404-2.893-.817-.731-1.82-1.036-2.765-1.094l-.247 3.992zm.427.206v.02.02.02.02.02.02.021.021.021.02.02.02.02.02l4 .019v-.02-.02-.02-.02-.02-.02-.021-.021-.021-.02-.02-.02-.02-.02l-4-.019zm0 .304c0-.225.051-.563.284-.909a1.8 1.8 0 0 1 1.486-.787v4c.843 0 1.481-.458 1.831-.977.31-.46.399-.95.399-1.327h-4zm1.738-4.898c-.368-.146-.939-.378-1.639-.493l-.651 3.947c.221.037.419.108.818.266l1.472-3.72zm-1.964-.52a1.38 1.38 0 0 1 .133.006c.027.003.044.005.048.006s-.006-.001-.062-.012c-.04-.008-.128-.026-.221-.04s-.248-.036-.436-.036v4c-.061 0-.107-.004-.133-.006a.79.79 0 0 1-.048-.006c-.002 0 .006.001.062.012.04.008.128.026.221.04a2.82 2.82 0 0 0 .436.036v-4zm-.537-.076c.29 0 .819.097 1.243.586.485.559.493 1.237.346 1.673l-3.791-1.277c-.224.664-.178 1.532.422 2.224.539.621 1.26.795 1.78.795v-4zm1.693 1.62c0 .306-.106.84-.601 1.26-.557.472-1.219.475-1.641.336l1.253-3.799c-.652-.215-1.507-.174-2.198.412-.63.534-.812 1.258-.812 1.791h4zm-1.813 1.686c.616.061 1.091.174 1.542.372l1.61-3.662c-.931-.409-1.838-.6-2.758-.691l-.394 3.981zm1.46.334c.747.37 1.149.92 1.29 1.849l3.955-.6c-.32-2.109-1.454-3.837-3.471-4.835l-1.773 3.585zm1.267 1.549v.02.02.02.02.02.02.02.02.021.02.02l4 .005v-.02-.02-.02-.02-.02-.02-.02-.02-.02-.021-.02l-4-.005zm0 .228v.021.02.021.021.021.02.02.021.02.02.021.02.02.021.02.02.021.02.021.021.02.021.021.02.021l4 .019v-.021-.021-.02-.021-.021-.02-.021-.021-.02-.021-.021-.021-.021-.02-.02-.021-.02-.021-.021-.02-.02-.021-.021-.021-.021l-4-.017zm0 .532v.02.02.02.021.02.02.02.02.02.02.02l4 .005v-.02-.02-.02-.02-.02-.02-.02-.02-.02-.021-.02l-4-.005zm.061-.262c.235-.931 1.03-1.223 1.47-1.25a1.65 1.65 0 0 1 1.016.278c.399.266.642.666.722 1.066l-3.921.793c.119.589.458 1.123.982 1.471a2.35 2.35 0 0 0 1.448.385c.747-.046 1.849-.528 2.161-1.763l-3.878-.98zm3.248.49a2.17 2.17 0 0 0-.036-.389c-.016-.088-.035-.162-.048-.212s-.028-.094-.037-.123l-.022-.067c-.006-.017 0-.001.006.024s.019.072.031.138.029.176.029.325h-4a2.18 2.18 0 0 0 .035.389c.016.089.035.162.048.212a3.12 3.12 0 0 0 .037.123l.022.067c.006.017.001.001-.006-.024a1.6 1.6 0 0 1-.031-.137c-.011-.061-.029-.176-.029-.325h4zm-.077-.304a6.39 6.39 0 0 0-.676-2.877l-3.57 1.804c.157.311.246.683.246 1.073h4zm-.802-3.093c-.647-.96-1.447-1.654-2.384-2.118l-1.773 3.586c.291.144.567.361.841.768l3.317-2.236zm.876 2.232a1.65 1.65 0 0 1 1.294.621c.224.285.322.612.322.923h-4c0 .539.175 1.094.534 1.55a2.35 2.35 0 0 0 1.85.906v-4zm1.616 1.544c0-.651-.11-1.273-.181-1.699l-3.944.665c.082.485.126.775.126 1.035h4zm-.169-1.618c-.423-3.346-3.129-5.995-6.353-6.509l-.63 3.95c1.537.245 2.824 1.546 3.015 3.061l3.968-.502zm-6.28-6.496c-.299-.059-.589-.087-.747-.103-.205-.021-.239-.029-.236-.028l-.96 3.883c.311.077.622.107.782.124.206.021.301.032.385.049l.776-3.924zm-1.463-.19c-.069 0-.056-.001-.031.001s.14.011.292.062c.161.053.4.163.627.387.237.234.374.509.437.756l-3.878.98c.235.932.92 1.463 1.562 1.675.475.157.946.139.991.139v-4zm1.281 1.057c.248.736-.055 1.355-.331 1.662-.259.288-.666.521-1.181.521v-4c-.744 0-1.382.346-1.795.806-.429.478-.809 1.325-.485 2.289l3.791-1.277zm-1.511 2.183h.02.02.02.02.02.02.02c.012 0 .012 0 .012-2v-2h-.02-.02-.02-.02-.02-.02-.02l-.012 4zm.105-.001l1.353.032.086.002h.022.043l.038-.001c.02-.001.082-.004.124-.008.149-.019 1.76-1.522 1.13-3.499-.44-.291-1.012-.47-1.084-.479l-.085-.008-.031-.002-.026-.001-.037-.001-.196-.005-1.289-.029v4c-.008 0 .027 0 .131.003l.33.007.727.018.176.005-.044-.002-.031-.002a3.58 3.58 0 0 1-.085-.008c-.071-.01-.643-.188-1.084-.479-.63-1.978.981-3.48 1.13-3.499.042-.003.104-.007.124-.008l.038-.001h.029.021l-.067-.001-1.346-.032-.096 3.999zm.001 0c2.355.055 4.161 1.565 4.525 3.726l3.944-.665c-.711-4.22-4.28-6.963-8.375-7.06l-.094 3.999zm4.518 3.679c.078.542.133.94.133 1.385h4c0-.77-.099-1.436-.174-1.957l-3.959.572zm.475 2.503a1.71 1.71 0 0 1-.056-1.784 1.71 1.71 0 0 1 1.485-.878v4a2.29 2.29 0 0 0 2.003-1.163c.458-.816.338-1.74-.114-2.41L20.83 15.03z" fill="#fff" mask="url(#A)"/></svg>