<svg xmlns="http://www.w3.org/2000/svg" width="45" height="42" fill="none"><g clip-path="url(#A)"><path d="M23.903 41.315c11.237 0 20.347-9.065 20.347-20.248S35.14.818 23.903.818 3.556 9.884 3.556 21.067s9.11 20.248 20.347 20.248z" fill="#ebf1f7"/><path d="M23.903 28.349c4.042 0 7.319-3.261 7.319-7.283s-3.277-7.284-7.319-7.284-7.319 3.261-7.319 7.284 3.277 7.284 7.319 7.284z" fill="#e84f35"/><path d="M23.903 36.391c8.505 0 15.401-6.861 15.401-15.326S32.409 5.74 23.903 5.74s-15.4 6.861-15.4 15.326 6.895 15.326 15.4 15.326z" stroke="#e84f35" stroke-width="6" stroke-miterlimit="10"/><g stroke="#172a3a" stroke-width="1.5" stroke-linejoin="round"><path d="M1.123 11.12l5.926 3.822 4.734-1.301-7.196-4.64-3.463 2.119z"/><path d="M5.117 4.99l5.926 3.818.74 4.833-7.196-4.64.531-4.012z"/><path d="M24.329 21.729l-13.622-8.782" stroke-linecap="round"/></g></g><defs><clipPath id="A"><path fill="#fff" transform="translate(.75 .818)" d="M0 0h43.5v40.5H0z"/></clipPath></defs></svg>