<svg xmlns="http://www.w3.org/2000/svg" width="44" height="28" fill="none"><g clip-path="url(#A)"><path d="M39.722.557H3.665A3.42 3.42 0 0 0 .25 3.972v20.173c0 .906.36 1.775 1 2.415s1.509 1 2.415 1h36.056c.449 0 .893-.088 1.308-.259s.792-.423 1.109-.74.569-.694.741-1.108.26-.859.26-1.308V3.972a3.42 3.42 0 0 0-1.004-2.414c-.641-.64-1.509-1-2.415-1.001z" fill="#e84f35"/><g fill="#ff6a51"><path opacity=".81" d="M8.552 8.871c.306-.002.603.104.838.301s.391.471.442.772l2.781.023V8.368a1.36 1.36 0 0 0-1.37-1.34l-5.63-.038a1.35 1.35 0 0 0-.966.376 1.35 1.35 0 0 0-.416.949v.529l4.32.026z"/><path opacity=".81" d="M9.828 10.336c-.053.301-.212.573-.448.768s-.533.299-.839.294l-4.309-.026v-.375l4.312.026a.88.88 0 0 0 .878-.878.88.88 0 0 0-.878-.878L4.232 9.24v2.488a1.36 1.36 0 0 0 1.37 1.34l5.63.037a1.35 1.35 0 0 0 .966-.376 1.35 1.35 0 0 0 .302-.433c.071-.163.11-.338.113-.516v-1.415l-2.785-.03z"/></g><g fill="#fff"><path d="M6.218 20.28H7.79v-1.663H5.737v-3.002h2.395c.044 0 .088.009.129.026s.077.043.108.075a.37.37 0 0 1 .076.108.32.32 0 0 1 .026.129.33.33 0 0 1-.098.24c-.031.032-.069.057-.11.074s-.086.025-.13.024H6.424v1.663H7.79a.69.69 0 0 1 .679.679v1.663a.68.68 0 0 1-.679.679H6.218c-.154-.003-.306-.037-.447-.101l-.514-.214a.32.32 0 0 1-.156-.128c-.037-.059-.055-.127-.05-.195a.35.35 0 0 1 .094-.24c.028-.031.063-.056.102-.073A.29.29 0 0 1 5.37 20a.58.58 0 0 1 .236.06l.447.188c.051.026.108.038.165.034zm5.975.34v-1.415h-2.045v-3.261c-.001-.045.008-.09.025-.132s.043-.08.076-.112.07-.059.112-.077.087-.028.133-.028.09.01.131.028a.33.33 0 0 1 .109.077c.033.032.058.07.076.112s.026.087.026.132v2.582h1.359v-1.989a.33.33 0 0 1 .208-.319c.041-.017.086-.027.13-.027s.089.009.13.027.079.043.11.075a.33.33 0 0 1 .098.244v1.989a.34.34 0 0 1 .241.098c.032.031.057.069.074.11a.34.34 0 0 1 .026.13c0 .045-.008.089-.025.131s-.043.079-.076.109-.068.059-.109.077a.31.31 0 0 1-.131.025v1.422c0 .044-.008.089-.025.13a.34.34 0 0 1-.313.208c-.044 0-.089-.008-.13-.025s-.079-.041-.11-.073-.059-.071-.075-.113a.34.34 0 0 1-.022-.134zm3.092-.339h1.043v-4.005H15.3a.32.32 0 0 1-.13-.024c-.041-.017-.079-.042-.11-.074s-.057-.069-.073-.11a.33.33 0 0 1-.024-.13.34.34 0 0 1 .098-.24c.031-.031.068-.057.11-.074s.086-.025.13-.024h1.708v4.68h.679v-1.41a.32.32 0 0 1 .024-.13c.017-.041.042-.079.074-.11s.068-.058.11-.076a.33.33 0 0 1 .131-.026c.045 0 .089.008.13.025a.34.34 0 0 1 .11.073c.032.032.058.07.074.112a.33.33 0 0 1 .023.132v1.753a.32.32 0 0 1-.024.13c-.017.041-.042.079-.074.11a.34.34 0 0 1-.24.098h-2.74a.33.33 0 0 1-.131-.026c-.042-.018-.079-.043-.11-.076-.063-.066-.098-.153-.098-.244-.001-.044.008-.088.024-.128a.32.32 0 0 1 .073-.108c.032-.031.069-.056.11-.073a.34.34 0 0 1 .13-.025zm5.029-4.68h.341a.34.34 0 0 1 .239.099c.064.063.099.149.099.239a.33.33 0 0 1-.098.24c-.031.032-.069.057-.11.074s-.086.025-.13.024v2.252h2.391a.34.34 0 0 1 .13.026.33.33 0 0 1 .11.075c.031.032.058.071.074.114a.34.34 0 0 1 .023.134v1.753a.33.33 0 0 1-.026.131c-.018.042-.043.079-.076.11a.35.35 0 0 1-.244.098h-2.725c-.045 0-.09-.009-.132-.026a.34.34 0 0 1-.112-.075.32.32 0 0 1-.101-.237v-4.684c-.001-.045.008-.089.026-.131s.043-.079.076-.11a.33.33 0 0 1 .244-.105zm.334 3.607v1.073h2.049v-1.073h-2.049z"/></g><path d="M26.319 14.068v8.396" stroke="#fff" stroke-width=".751" stroke-miterlimit="10" stroke-linecap="round"/></g><defs><clipPath id="A"><path fill="#fff" transform="translate(.25 .568)" d="M0 0h42.891v27H0z"/></clipPath></defs></svg>