<svg xmlns="http://www.w3.org/2000/svg" width="190" height="76" fill="#2c2a23"><path d="M95.042 23.136c0 .311-.066.595-.066.879l-.071 12.561-.087 9.59a2.24 2.24 0 0 1-2.256 2.25 2.18 2.18 0 0 1-1.513-.711 2.19 2.19 0 0 1-.568-1.572l.126-18.912.071-4.915.148-20.032c-.022-.524.145-1.039.471-1.45s.789-.691 1.304-.789c.486-.088.988-.009 1.424.225s.779.609.974 1.063a.7.7 0 0 0 .513.306 40.41 40.41 0 0 1 16.76 3.823 11.38 11.38 0 0 1 3.9 2.731c3.217 3.615 2.687 8.465-1.24 11.299a14.2 14.2 0 0 1-5.827 2.31 79.22 79.22 0 0 1-13.517 1.316l-.546.027zm.076-4.369h.546c2.124-.109 4.254-.12 6.362-.36 2.501-.29 4.992-.715 7.466-1.191a6.24 6.24 0 0 0 3.675-1.982c.44-.441.713-1.022.773-1.643s-.098-1.242-.445-1.76a6.17 6.17 0 0 0-2.878-2.332 36.18 36.18 0 0 0-12.25-3.386c-1.054-.098-2.124 0-3.277 0l.027 12.654zm87.715 15.745a12.69 12.69 0 0 1-4.522.923c-2.596.091-5.166-.555-7.411-1.862-4.475-2.529-7.93-6.535-9.776-11.332a9.25 9.25 0 0 1-.639-4.484 2.14 2.14 0 0 1 2.321-1.851 2.05 2.05 0 0 1 1.362.617 2.06 2.06 0 0 1 .583 1.377c0 2.703 1.168 4.915 2.73 6.952a17.37 17.37 0 0 0 6.008 5.183 9.1 9.1 0 0 0 6.34.847c3.135-.759 4.779-2.643 5.085-5.844l.426-5.155c.016-.549.237-1.071.621-1.464a2.18 2.18 0 0 1 1.449-.655c.271-.018.543.018.8.107a2.05 2.05 0 0 1 1.183 1.051c.118.245.187.51.201.782a21.72 21.72 0 0 1-.289 6.401 167.02 167.02 0 0 1-1.59 6.947 52.23 52.23 0 0 1-2.73 7.968c-2.021 4.691-5.532 7.591-10.535 8.552-2.365.453-4.784.639-7.187.874-1.12.109-2.054-.879-2.141-2.097a2.14 2.14 0 0 1 .544-1.523c.374-.417.896-.67 1.455-.705 1.556-.153 3.118-.235 4.664-.442 1.74-.193 3.429-.702 4.986-1.502a8.56 8.56 0 0 0 3.151-2.938c1.376-2.032 2.103-4.309 2.911-6.723zM5.143 26.506l-.464 5.423 3.823.224 11.157.546c.542-.011 1.069.181 1.478.537a2.18 2.18 0 0 1 .734 1.39 2.11 2.11 0 0 1-1.48 2.217 2.33 2.33 0 0 1-.699.076L8.316 36.32l-5.281-.273a7.2 7.2 0 0 1-1.092-.109 1.98 1.98 0 0 1-1.638-2.184l.803-9.443.715-8.307.339-3.905a2.04 2.04 0 0 1 .22-.824 2.05 2.05 0 0 1 .537-.662 2.04 2.04 0 0 1 .761-.385 2.06 2.06 0 0 1 .852-.041l12.812 1.092c1.092.087 2.146.038 3.217.06a2.18 2.18 0 0 1 .858.125 2.2 2.2 0 0 1 .742.448 2.17 2.17 0 0 1 .509.702c.121.266.188.553.196.844.008.268-.037.536-.133.787s-.24.48-.425.675-.406.351-.652.46a2.04 2.04 0 0 1-.779.175l-7.739-.284-6.51-.584h-.492l-.639 7.477 4.74.169 9.099.322a2.11 2.11 0 0 1 2.028 2.21c-.014.279-.083.552-.203.804s-.289.477-.497.664a2.11 2.11 0 0 1-1.536.533L8.562 26.49c-1.087-.016-2.195.016-3.419.016zm14.473 17.291h-.634a2.11 2.11 0 0 1-1.547-.612c-.203-.201-.363-.442-.47-.707s-.16-.549-.154-.835a2.11 2.11 0 0 1 .685-1.516 2.12 2.12 0 0 1 .728-.437 2.11 2.11 0 0 1 .841-.115l2.185.06a.81.81 0 0 0 .885-.519 219.93 219.93 0 0 0 7.198-15.319c.546-1.273 1.611-1.857 2.731-1.458a2.31 2.31 0 0 1 .919.654 2.32 2.32 0 0 1 .501 1.011l3.741 12.015c1.717 5.035 3.698 9.975 5.936 14.8.204.422.33.877.371 1.343a2.01 2.01 0 0 1-.373 1.335c-.279.387-.687.661-1.15.773-.48.126-.99.074-1.435-.147s-.794-.596-.984-1.055l-3.566-8.361c-.053-.205-.177-.384-.35-.505s-.384-.176-.595-.155c-1.273 0-2.545 0-3.823-.033l-6.434-.098a.64.64 0 0 0-.672.393l-2.556 4.62c-.122.265-.299.502-.517.695a2.11 2.11 0 0 1-.752.429c-.278.09-.571.121-.861.091s-.572-.118-.826-.262-.476-.338-.651-.571-.3-.5-.367-.784-.075-.579-.022-.866.164-.56.327-.802c.519-.983 1.076-1.971 1.693-3.064zm11.327-13.184l-4.369 9.11h7.449l-3.08-9.088v-.022zm123.584 20.158c-6.062-.273-10.78-2.884-14.063-8.023a2.25 2.25 0 0 1-.424-1.056c-.049-.383.001-.771.146-1.129a2.05 2.05 0 0 1 1.857-1.382 2.08 2.08 0 0 1 2.009 1.092c1.086 1.908 2.685 3.473 4.615 4.517 2.387 1.416 5.216 1.893 7.935 1.338 2.185-.475 3.501-2.184 3.277-4.222-.071-.797-.391-1.551-.915-2.157a3.82 3.82 0 0 0-2.001-1.218c-1.546-.459-3.151-.715-4.735-1.027a13.21 13.21 0 0 1-4.948-1.748c-1.737-1.158-2.971-2.66-3.168-4.828a5.68 5.68 0 0 1 .303-2.349 5.66 5.66 0 0 1 1.238-2.02 9.14 9.14 0 0 1 14.925 1.944l.29.59c.144.254.234.535.263.825a2.11 2.11 0 0 1-.09.861c-.09.278-.235.534-.429.752a2.11 2.11 0 0 1-.694.517c-1.005.546-2.092.24-2.797-.858-.196-.306-.349-.639-.546-.945-.378-.634-.898-1.172-1.519-1.572a4.79 4.79 0 0 0-4.229-.478c-.695.251-1.322.66-1.832 1.193-.814.868-.776 1.567.126 2.365a6.06 6.06 0 0 0 2.91 1.273c1.83.388 3.687.655 5.494 1.12a8.83 8.83 0 0 1 5.385 3.736 8.19 8.19 0 0 1-4.216 12.162 10.74 10.74 0 0 1-1.895.497c-.737.131-1.502.158-2.272.229zm-52.123-18.58l.24 4.669h1.371l8.449.153a10.97 10.97 0 0 1 2.872.546 2.07 2.07 0 0 1 1.404 2.272 2.13 2.13 0 0 1-1.639 1.879 1.52 1.52 0 0 1-.808.033c-1.223-.47-2.501-.382-3.768-.404l-7.253-.115a1.93 1.93 0 0 0-.349.027l.196 2.922h1.639l10.021-.442a2.14 2.14 0 0 1 .847.09c.274.087.527.227.745.414a2.14 2.14 0 0 1 .525.672 2.15 2.15 0 0 1 .221.823 2.03 2.03 0 0 1-1.759 2.25 33.58 33.58 0 0 1-3.85.322l-10.082.208c-1.534 0-2.386-.732-2.501-2.272l-.661-10.054-.268-4.948c-.093-2.124.841-3.222 2.981-3.32s4.369-.071 6.554-.093l8.449-.093c.579-.006 1.137.219 1.551.624a2.19 2.19 0 0 1 .655 1.538c.006.579-.219 1.137-.624 1.551s-.959.649-1.539.655l-12.107.137-1.513-.044zm34.537-1.731l1.354 4.467a2.16 2.16 0 0 1 .15.895 2.17 2.17 0 0 1-.227.879 2.18 2.18 0 0 1-1.37 1.131c-1.147.36-2.315-.333-2.731-1.638l-1.43-4.746-2.354.546-2.731.628a.81.81 0 0 0-.469.221.8.8 0 0 0-.235.462l-2.185 7.919c-.142.543-.488 1.011-.966 1.306a2.19 2.19 0 0 1-1.601.278c-.292-.068-.567-.196-.807-.375a2.19 2.19 0 0 1-.867-1.513 2.18 2.18 0 0 1 .085-.886l2.545-9.23 3.484-11.785a34.94 34.94 0 0 1 1.573-3.703c.166-.419.466-.772.853-1.003a2.04 2.04 0 0 1 1.288-.274c.449.02.879.183 1.229.465a2.11 2.11 0 0 1 .715 1.102l1.191 3.675 2.081 6.586c.071.224.109.415.447.431a2.15 2.15 0 0 1 2.141 1.6 2.23 2.23 0 0 1-.966 2.413l-.197.147zm-7.062-7.853l-1.512 5.363 3.036-.71-1.343-4.254c-.028-.082-.066-.158-.181-.399zm-79.472-8.236c1.683-.013 3.345.361 4.861 1.092a2.1 2.1 0 0 1 1.231 2.036 2.09 2.09 0 0 1-.216.809 2.01 2.01 0 0 1-2.73.999c-2.359-1.092-4.718-.825-7.072-.109a3.54 3.54 0 0 0-1.465.698c-.428.343-.769.781-.998 1.279-.388.95-.213 1.578.672 2.075l3.605 1.917 4.331 2.294a10.38 10.38 0 0 1 2.135 1.671c.941.965 1.524 2.224 1.651 3.566s-.209 2.688-.953 3.813c-1.562 2.512-3.938 3.424-6.788 3.277a10.38 10.38 0 0 1-6.057-2.545c-1.086-.908-2.119-1.876-3.096-2.9a2.1 2.1 0 0 1 .008-3.068 2.1 2.1 0 0 1 .73-.443c.271-.096.559-.136.846-.117a2.09 2.09 0 0 1 .822.229 2.1 2.1 0 0 1 .663.537 17.21 17.21 0 0 0 3.675 3.217c1.316.754 2.687 1.212 4.216.737a2.53 2.53 0 0 0 1.737-1.868 1.4 1.4 0 0 0-.035-.893c-.109-.286-.307-.529-.566-.691l-3.665-2.234-5.063-2.654c-1.666-.928-3.047-2.332-3.178-4.451-.197-3.113 1.229-5.352 3.921-6.777 2.097-1.063 4.428-1.578 6.777-1.496zm23.074 22.823a9.91 9.91 0 0 1-6.652-.147 12.24 12.24 0 0 1-4.637-3.533 26.34 26.34 0 0 1-4.746-7.706c-.202-.474-.212-1.008-.029-1.49a1.99 1.99 0 0 1 1.012-1.094c.412-.245.901-.324 1.369-.223a1.89 1.89 0 0 1 1.154.769 7.33 7.33 0 0 1 .699 1.289 22.1 22.1 0 0 0 4.882 6.887c2.185 2.01 5.352 2.103 7.367.229a4.37 4.37 0 0 0 1.442-2.441l.464-1.955c.289-1.038 1.163-1.546 2.332-1.382.486.039.939.264 1.263.628s.496.839.479 1.327a8.5 8.5 0 0 1-.218 1.78l-2.01 7.848a13.73 13.73 0 0 1-2.731 5.461c-2.141 2.496-4.964 3.577-8.148 3.867a17.97 17.97 0 0 1-5.685-.42 2.12 2.12 0 0 1-1.361-.877c-.32-.461-.445-1.029-.348-1.581.043-.271.141-.53.286-.762a2.06 2.06 0 0 1 1.304-.919c.268-.059.544-.063.814-.013l3.888.393a8.19 8.19 0 0 0 4.669-1.251c1.704-1.087 2.561-2.72 3.14-4.686zm23.57 33.035l1.595 1.638 2.987 3.025c.279.284.399.601.055.89s-.584.109-.846-.158l-5.221-5.177c-.227-.171-.466-.326-.715-.464v2.474c0 .322 0 .633-.41.71s-.661-.158-.655-.645l.104-6.696v-.623c-.224 0-.431.109-.546.044s-.492-.289-.492-.442a.76.76 0 0 1 .399-.546c.381-.147.777-.255 1.18-.322a.58.58 0 0 1 .273 0l3.058.857c.469.14.911.359 1.305.65a4.5 4.5 0 0 1 1.092 1.245c.672 1.191.366 2.152-.873 2.731-.743.311-1.529.535-2.288.808zm-2.185-1.234a5.75 5.75 0 0 0 3.55-.333c1.262-.497 1.371-1.322.311-2.185a2.98 2.98 0 0 0-.306-.229c-1.045-.566-2.196-.908-3.381-1.005l-.18 3.752h.005zm-21.67 2.387l.437-2.949.546-3.277c.06-.35.147-.677.595-.59s.546.388.453.781l-.77 4.675-.317 2.813a1.06 1.06 0 0 1-.41.726c-.36.191-.546-.153-.748-.437l-4.642-7.056c-.098-.148-.213-.284-.415-.546l-.186 1.6-.546 5.363a.92.92 0 0 1-.167.36.93.93 0 0 1-.303.257c-.355.153-.623-.147-.573-.601l.546-5.581.278-2.6c.028-.308.178-.593.415-.792.388-.208.601.197.792.475l4.609 6.816.404.563zm57.858-1.164l-3.277.224v2.845.486c.028.36-.081.628-.48.644s-.546-.273-.579-.639v-1.906-1.545c-.175-.049-.339-.049-.437-.137s-.333-.317-.339-.481.192-.448.328-.464c.426-.055.415-.317.404-.623l-.071-3.484c0-.377 0-.71.508-.715s.546.311.546.699l.06 3.594a4.86 4.86 0 0 0 .039.677l3.096-.317c.088 0 .202-.311.202-.475v-3.435c0-.399.055-.754.546-.737s.508.366.508.737v3.32c.044.203.104.402.181.595.043.191.136.459.049.546-.323.388-.213.819-.208 1.24l.044 2.398c0 .333-.104.59-.47.612s-.546-.202-.573-.546l-.066-2.392c-.016-.229-.011-.459-.011-.721zm-68.981 1.977l3.107-.18c.519-.033.754.137.721.546s-.24.486-.584.502l-2.823.169c-.273 0-.475 0-.546.361a.54.54 0 0 1-.187.207c-.079.051-.171.082-.266.087-.175 0-.339-.202-.508-.306s-.295-.24-.442-.235l-2.184.109c-.366 0-.688-.044-.71-.475s.208-.579.617-.59l2.337-.142c.153 0 .415-.197.426-.322l.546-6.291a.79.79 0 0 0-.06-.153l-2.824-.377c-.382-.049-.705-.147-.644-.617s.393-.475.781-.426l6.319.819c.546.071.846.421.595.759-.094.095-.208.169-.333.218s-.259.069-.393.061c-.77-.055-1.535-.186-2.365-.295l-.579 6.57zm48.807-3.506h1.709l2.496.197c.377.033.634.202.546.628s-.344.437-.699.41l-3.528-.224c-.393-.027-.546.082-.546.508v1.316h3.632a4.39 4.39 0 0 1 .972 0c.191.044.481.3.47.437a.77.77 0 0 1-.144.322.76.76 0 0 1-.271.224 4.45 4.45 0 0 1-1.093.055l-3.97.169c-.475 0-.683-.18-.693-.623l-.164-6.302c0-.645.087-.808.726-.781l5.33.268c.328 0 .623.147.601.546s-.306.546-.683.508l-4.565-.268h-.323l.197 2.611zm-30.49-5.281l1.573.164c.393.033.77.12.715.612s-.491.459-.885.437l-2.436-.066a2.38 2.38 0 0 0-.972.322c-.546.279-.612.77-.153 1.147a7.16 7.16 0 0 0 1.272.704c.807.363 1.583.79 2.321 1.278a2.92 2.92 0 0 1 1.108 1.451c.205.59.214 1.23.028 1.826-.214.594-.6 1.111-1.108 1.486a3.18 3.18 0 0 1-1.748.617 5.65 5.65 0 0 1-4.315-1.442c-.284-.24-.437-.519-.148-.836s.546-.218.857.027a4.37 4.37 0 0 0 3.714 1.163 2.78 2.78 0 0 0 .994-.41 1.64 1.64 0 0 0 .546-2.37c-.387-.616-.961-1.093-1.638-1.36l-1.551-.666c-.402-.194-.77-.45-1.092-.759a1.64 1.64 0 0 1-.229-2.263c.174-.221.401-.393.66-.501a15.58 15.58 0 0 1 2.479-.699l.005.136zm11.031 3.828c-.101 1.1-.258 2.193-.47 3.277-.123.638-.393 1.239-.79 1.754s-.908.93-1.493 1.212a3.04 3.04 0 0 1-4.227-1.469c-.57-1.321-.865-2.745-.868-4.183-.044-.83.049-1.671.082-2.501 0-.393.158-.704.612-.645s.492.361.448.732a14.5 14.5 0 0 0 .251 4.915 5.54 5.54 0 0 0 .459 1.278c.107.25.265.475.465.66a1.93 1.93 0 0 0 1.496.505 1.94 1.94 0 0 0 .77-.242c1.289-.59 1.759-1.753 1.939-3.026l.147-3.097a1.96 1.96 0 0 1 .033-.699c.098-.202.355-.453.546-.453s.442.3.47.497a10.91 10.91 0 0 1 0 1.469l.131.016zm26.231 1.448c-.033-2.829 2.599-5.145 5.215-4.566a2.37 2.37 0 0 1 1.246.626c.343.329.579.754.677 1.22.049.3.06.606-.328.694a.55.55 0 0 1-.23.02c-.077-.01-.151-.036-.217-.077s-.123-.095-.167-.16-.072-.138-.085-.214c-.055-.345-.242-.654-.521-.864a1.35 1.35 0 0 0-.976-.261 3.49 3.49 0 0 0-1.465.305 3.5 3.5 0 0 0-1.202.892 3.49 3.49 0 0 0-.817 2.807c.273 2.272 2.103 3.506 4.123 2.731a4.36 4.36 0 0 0 1.333-.983c.273-.257.508-.431.847-.202s.251.546 0 .847a3.97 3.97 0 0 1-1.802 1.366 3.96 3.96 0 0 1-2.256.157c-1.568-.268-2.731-1.092-3.113-2.731l-.262-1.606zM103.9 65.32l-3.195-.251c-.125-.018-.245-.061-.352-.128a.91.91 0 0 1-.27-.26c-.043-.072-.065-.154-.062-.238s.029-.165.076-.233.113-.123.19-.156a.43.43 0 0 1 .243-.029c2.403.202 4.839.142 7.193.786.191.055.448.087.546.219a1.25 1.25 0 0 1 .213.748c0 .082-.415.235-.606.197l-2.949-.677.186 3.468.24 2.436c.044.355-.044.628-.443.672s-.546-.186-.595-.546l-.409-5.374c-.022-.191-.006-.388-.006-.633z"/></svg>