<svg xmlns="http://www.w3.org/2000/svg" xmlns:xlink="http://www.w3.org/1999/xlink" width="361" height="201" fill="none"><style><![CDATA[.B{fill:#263238}.C{fill:#eaf3fd}.D{fill:#172a3a}.E{fill:#b7d3f2}.F{stroke:#172a3a}]]></style><path d="M311.524 73.397c-.194-.329-1.733-.388-2.893-1.113s-3.027-4.217-3.271-4.875 2.455-4.681 2.455-7.591-6.206-7.962-7.846-8.35-12.555.295-13.707.489-8.477 4.386-8.477 6.612 2.22 7.093 5.391 8.687 11.453 1.442 12.656 1.738 8.569 13.368 9.629 14.085 3.607.632 4.036.531 1.976-2.218 2.363-3.087.168-6.208-.336-7.127z" class="B"/><path d="M309.479 83.586L298.53 67.485l12.968 13.63-2.019 2.471z" fill="#fff"/><path d="M128.198 173.005l46.504 1.738s-1.261-63.603-29.786-65.197-16.718 63.459-16.718 63.459z" fill="#ffc727"/><path d="M128.198 173.005l46.504 1.738s-1.261-63.603-29.786-65.197-16.718 63.459-16.718 63.459z" fill="#3b566e"/><path d="M6.076 141.731l40.231 27.994s-9.511-62.524-26.792-63.595-13.438 35.601-13.438 35.601z" fill="#ffc727"/><path d="M6.076 141.731l40.231 27.994s-9.511-62.524-26.792-63.595-13.438 35.601-13.438 35.601z" fill="#3b566e"/><use xlink:href="#B" class="B"/><use xlink:href="#B" opacity=".2" fill="#000"/><path d="M150.29 200.931c17.491 0 31.67-16.641 31.67-37.169s-14.179-37.17-31.67-37.17-31.67 16.641-31.67 37.17 14.179 37.169 31.67 37.169z" class="D"/><path d="M170.682 200.881l-1.472.042c-.496 0-.975 0-1.463-.042h2.935z" class="B"/><path d="M150.29 190.895c12.772 0 23.126-12.148 23.126-27.133s-10.354-27.133-23.126-27.133-23.126 12.147-23.126 27.133 10.354 27.133 23.126 27.133z" class="C"/><path d="M150.289 188.786c11.778 0 21.326-11.204 21.326-25.025s-9.548-25.024-21.326-25.024-21.326 11.204-21.326 25.024 9.548 25.025 21.326 25.025z" class="E"/><g class="C"><path d="M146.942 157.486h6.728c-2.262-3.837 5.617-17.205 5.617-17.205l-3.523-1.384c-2.346 4.724-3.515 6.107-5.441 6.107s-3.103-1.383-5.449-6.107l-3.516 1.384s7.863 13.368 5.584 17.205zm7.258.473l2.069 7.472c2.405-3.702 15.675.954 15.675.954v-4.353c-4.549-1.163-6.038-2.041-6.627-4.217s.16-3.888 3.263-7.97l-2.178-3.475s-8.401 12.93-12.202 11.589zm1.85 8.248l-5.415 4.622c3.75 1.535 4.07 17.788 4.07 17.788l3.549-1.315c-.471-5.432-.219-7.355 1.345-8.688s3.196-1.02 7.459 1.181l2.153-3.551s-13.068-5.415-13.161-10.037zm-6.105 4.622l-5.425-4.622c-.084 4.656-13.152 10.037-13.152 10.037l2.153 3.551c4.264-2.201 5.887-2.53 7.459-1.181s1.817 3.256 1.354 8.696l3.54 1.307s.32-16.253 4.071-17.788zm-5.635-5.398l2.069-7.472c-3.801 1.341-12.202-11.589-12.202-11.589l-2.212 3.5c3.103 4.074 3.86 5.811 3.263 7.962s-2.077 3.028-6.626 4.217v4.344s13.303-4.664 15.708-.962z"/><path d="M144.101 163.584c0 4.007 2.766 7.262 6.189 7.262s6.189-3.255 6.189-7.262-2.775-7.262-6.189-7.262-6.189 3.248-6.189 7.262z"/></g><use xlink:href="#C" class="B"/><use xlink:href="#C" opacity=".2" fill="#000"/><path d="M298.809 200.931c17.49 0 31.669-16.641 31.669-37.169s-14.179-37.17-31.669-37.17-31.67 16.641-31.67 37.17 14.179 37.169 31.67 37.169z" class="D"/><path d="M319.209 200.881l-1.471.042c-.496 0-.976 0-1.464-.042h2.935z" class="B"/><path d="M298.809 190.895c12.772 0 23.125-12.148 23.125-27.133s-10.353-27.133-23.125-27.133-23.126 12.147-23.126 27.133 10.353 27.133 23.126 27.133z" class="C"/><path d="M298.809 188.786c11.778 0 21.326-11.204 21.326-25.025s-9.548-25.024-21.326-25.024-21.327 11.204-21.327 25.024 9.549 25.025 21.327 25.025z" class="E"/><g class="C"><path d="M295.47 157.486h6.727c-2.262-3.837 5.618-17.205 5.618-17.205l-3.524-1.384c-2.346 4.724-3.515 6.107-5.441 6.107s-3.103-1.383-5.449-6.107l-3.515 1.384s7.837 13.368 5.584 17.205zm7.257.473l2.068 7.472c2.405-3.702 15.675.954 15.675.954v-4.353c-4.549-1.163-6.038-2.041-6.626-4.217s.16-3.888 3.254-7.97l-2.169-3.475s-8.401 12.93-12.202 11.589zm1.85 8.248l-5.416 4.622c3.751 1.535 4.07 17.788 4.07 17.788l3.541-1.315c-.463-5.432-.211-7.355 1.354-8.688s3.195-1.02 7.459 1.181l2.153-3.551s-13.069-5.415-13.161-10.037zm-6.105 4.622l-5.45-4.622c-.084 4.656-13.152 10.037-13.152 10.037l2.153 3.551c4.264-2.201 5.887-2.53 7.459-1.181s1.817 3.256 1.354 8.696l3.54 1.307s.328-16.253 4.096-17.788zm-5.634-5.398l2.068-7.472c-3.801 1.341-12.202-11.58-12.202-11.58l-2.211 3.5c3.103 4.073 3.86 5.811 3.263 7.962s-2.078 3.028-6.627 4.217v4.343s13.304-4.672 15.709-.97z"/><path d="M292.627 163.584c0 4.007 2.767 7.262 6.189 7.262s6.19-3.255 6.19-7.262-2.775-7.262-6.19-7.262-6.189 3.248-6.189 7.262z"/></g><use xlink:href="#D" class="B"/><use xlink:href="#D" opacity=".2" fill="#000"/><path d="M43.616 189.688l-1.337.051c-.454 0-.891 0-1.337-.051h2.674z" class="B"/><path d="M25.014 189.747c10.733 0 19.434-16.641 19.434-37.169s-8.701-37.17-19.434-37.17S5.58 132.049 5.58 152.578s8.701 37.169 19.434 37.169z" class="D"/><path d="M25.014 179.711c7.84 0 14.195-12.148 14.195-27.133s-6.355-27.133-14.195-27.133-14.195 12.148-14.195 27.133 6.355 27.133 14.195 27.133z" class="C"/><path d="M25.015 177.602c7.227 0 13.085-11.204 13.085-25.024s-5.858-25.025-13.085-25.025-13.085 11.204-13.085 25.025 5.858 25.024 13.085 25.024z" class="E"/><g class="C"><path d="M22.963 146.294h4.104c-1.388-3.829 3.448-17.197 3.448-17.197l-2.161-1.383c-1.438 4.723-2.153 6.106-3.364 6.106s-1.901-1.383-3.364-6.106l-2.153 1.383s4.877 13.368 3.49 17.197zm4.448.481l1.27 7.473c1.48-3.703 9.62.953 9.62.953v-4.361c-2.783-1.155-3.7-2.032-4.062-4.217s.101-3.888 2.001-7.97l-1.354-3.492s-5.138 12.955-7.476 11.614zm1.144 8.249l-3.364 4.622c2.304 1.535 2.523 17.787 2.523 17.787l2.178-1.315c-.286-5.432-.135-7.363.841-8.688s1.968-1.02 4.583 1.173l1.32-3.543s-8.031-5.381-8.081-10.036zm-3.751 4.613l-3.364-4.613c-.05 4.655-8.073 10.036-8.073 10.036l1.32 3.551c2.615-2.201 3.624-2.53 4.583-1.181s1.11 3.256.841 8.696l2.178 1.307s.21-16.252 2.514-17.796zm-3.456-5.389l1.27-7.473c-2.338 1.341-7.493-11.58-7.493-11.58l-1.354 3.5c1.901 4.074 2.371 5.811 2.001 7.962s-1.278 3.028-4.07 4.217v4.352s8.166-4.639 9.646-.978z"/><path d="M21.213 152.401c0 4.006 1.682 7.261 3.801 7.261s3.801-3.255 3.801-7.261-1.682-7.271-3.801-7.271-3.801 3.256-3.801 7.271z"/><path d="M123.924 174.93l3.02.091-.475-2.983c-2.544-15.97-1.038-29.748 2.687-39.416 3.794-9.849 9.493-14.638 14.927-14.638 5.268 0 9.52 2.997 13.089 8.178 3.59 5.209 6.238 12.297 8.246 19.613 1.943 7.079 3.236 14.172 4.24 19.68l.087.477 1.363 6.86c.205.838.437 1.647.716 2.285.134.309.343.728.665 1.109.295.349 1.024 1.057 2.196 1.057h176.11c1.57 0 2.44-1.178 2.719-1.59.387-.573.682-1.263.917-1.918.48-1.344.906-3.129 1.277-5.068.747-3.904 1.341-8.831 1.649-13.067a55.72 55.72 0 0 0-.561-13.946c.459-8.919-.742-15.055-2.149-19.052-.711-2.018-1.469-3.478-2.082-4.467-.305-.493-.574-.868-.78-1.133l-.046-.06-.213-.522-1.012-2.42a248.19 248.19 0 0 0-3.593-8.052c-2.945-6.296-6.928-14.074-10.927-19.545-4.22-5.773-12.541-10.971-19.414-14.623-3.504-1.862-6.758-3.387-9.135-4.446l-2.841-1.228-.489-.203c-28.716-33.635-46.698-46.601-57.92-51.729-5.781-2.641-18.46-5.325-34.35-7.347-16.017-2.038-35.636-3.444-55.524-3.397-19.876.047-40.331 1.451-57.098 3.796C90.843 8.4 83.34 9.813 77.272 11.424c-5.972 1.585-10.869 3.438-13.778 5.637-2.826 2.136-5.987 6.002-9.053 10.332-3.114 4.397-6.296 9.512-9.144 14.356-2.852 4.849-5.387 9.457-7.208 12.851l-2.151 4.066-.584 1.127-.044.085c-4.574 4.932-8.129 10.723-10.46 17.038-2.558 2.531-4.934 6.677-6.698 10.089-.966 1.87-1.804 3.633-2.438 4.972l-.091.193-.694 1.454-.244.483c-.028.054-.034.064-.02.046-8.641 11.927-11.399 23.932-11.989 32.956-.295 4.511-.049 8.284.274 10.944.162 1.331.343 2.387.487 3.12l.18.854.056.235.017.069.005.021.002.008v.002c0 .002.001.003 2.42-.629l-2.419.632 4.908-.862c-.187-2.025.014-9.39 1.503-16.223.744-3.416 1.765-6.478 3.079-8.626 1.322-2.161 2.616-2.919 3.861-2.919 3.295 0 6.746 2.614 10.216 7.948 3.375 5.188 6.287 12.226 8.702 19.446 2.405 7.188 4.27 14.408 5.597 19.883l1.044 4.391.54 2.283.508 2.001c.069.242.147.5.232.726.04.104.11.28.213.466.051.092.145.25.288.423a2.57 2.57 0 0 0 .982.73c.245.103.461.145.51.155l.005.001a3.35 3.35 0 0 0 .21.035 7.52 7.52 0 0 0 .318.035 30.93 30.93 0 0 0 .792.058l2.619.136 8.944.359 26.664.913 26.482.84 8.707.268 2.437.074.642.019.165.005.041.002h.011.003l.076-2.499-.076 2.499z" stroke-width="5" class="F"/></g><path d="M115.811 22.33h.001c.867.501 1.949 1.529 3.197 3.149 1.225 1.589 2.51 3.615 3.818 5.954 2.616 4.675 5.239 10.446 7.583 16.119 2.341 5.664 4.384 11.187 5.842 15.345l1.706 5.044.447 1.437.026.09a.58.58 0 0 1-.066.105.52.52 0 0 1-.06.066l-.536-.06-2.908-.386-1.107-.152-9.607-1.286a737.69 737.69 0 0 0-38.266-3.885l-33.317-2.756c-3.363-.339-5.709-.624-7.245-.873l-.55-.094a37.95 37.95 0 0 1 .902-2.026c1.084-2.282 2.696-5.317 4.529-8.566 3.679-6.522 8.136-13.705 10.836-17.213 5.315-6.904 12.166-12.043 23.458-13.232 5.862-.617 12.106-.757 17.716-.252 5.662.51 10.466 1.658 13.601 3.47zM44.358 61.366zm98.574-16.179h0c-3.643-8.366-7.427-15.082-10.115-19.855l-.288-.512c-1.371-2.435-2.371-4.234-2.921-5.483l-.033-.076.523-.084c1.143-.174 2.705-.362 4.631-.556 3.846-.386 9.061-.785 15.095-1.134 12.067-.699 27.344-1.197 41.383-1.004 14.071.194 27.039.724 37.097 1.539 5.031.408 9.306.885 12.615 1.422 3.405.552 5.517 1.13 6.433 1.624 10.394 5.616 23.415 17.62 33.892 28.412 5.21 5.366 9.739 10.379 12.933 14.057l2.467 2.89-2.568.034-16.988.184-51.382.46-51.399.394-17.01.102-4.806.014a342.15 342.15 0 0 1-.58 0l-.223-.544-1.35-3.51-.485-1.279c-1.575-4.142-3.85-10.039-6.921-17.095z" stroke-width="4" class="F"/><path d="M222.922 149.094c2.649-.911 45.453-1.105 67.275-1.374l53.947-.506c1.732.649 2.161 4.917 1.732 8.535s-3.658 7.102-11.597 8.181-26.439 1.957-44.704 2.396-47.345.792-55.284 0-12.572-5.457-14.144-8.688.252-7.675 2.775-8.544z" fill="#ebebeb"/><path d="M223.889 144.88c2.607-.843 44.755-1.02 66.216-1.265l53.122-.464c1.699.599 2.136 4.538 1.682 7.869s-3.6 6.545-11.42 7.549-26.069 1.796-44.024 2.201-46.621.734-54.442 0-12.379-5.06-13.935-8.012.312-7.077 2.801-7.878z" class="D"/><path d="M258.028 119.752c-.136.085-.191.207-.205.236v.001a.74.74 0 0 0-.043.124 1.83 1.83 0 0 0-.036.201 7.31 7.31 0 0 0-.043.539l-.046 1.754.028 5.194.155 5.183.113 1.742.069.534a1.44 1.44 0 0 0 .052.208c.011.032.031.083.064.136a.53.53 0 0 0 .277.226c.05.018.093.024.102.025h.001l.041.004.063.004.159.003.54-.001 1.967-.024 6.898-.125 20.784-.454 20.769-.518 6.882-.206 1.957-.077.54-.031.164-.015a.91.91 0 0 0 .075-.011l.061-.015.002-.001c.013-.004.088-.026.163-.084.12-.091.165-.209.175-.238l.001-.001c.018-.046.028-.09.034-.12a2.1 2.1 0 0 0 .026-.198l.019-.531-.022-1.723-.2-5.095-.262-5.085-.099-1.701-.032-.496-.011-.145-.001-.004a.93.93 0 0 0-.015-.119.87.87 0 0 0-.207-.308c-.034-.021-.091-.05-.115-.059-.042-.015-.078-.022-.091-.024l-.08-.01-.156-.007a19.19 19.19 0 0 0-.517-.008c-.445-.002-1.094 0-1.916.006l-6.807.083-20.662.361-20.738.452-6.906.198-1.98.081-.556.035a3.55 3.55 0 0 0-.176.019c-.024.003-.053.008-.083.015-.011.002-.094.019-.176.07h0z" fill="#fff" stroke="#000"/><path d="M266.313 135.298l-7.888.102c-.353-.144-.589-15.005-.286-15.182.101-.059 3.12-.169 7.745-.287l.429 15.367z" fill="#22d4a2"/><path d="M122.134 73.397c-.185-.329-1.732-.388-2.884-1.113s-3.027-4.217-3.271-4.875 2.455-4.681 2.455-7.591-6.206-7.962-7.846-8.35-12.555.295-13.715.489-8.468 4.386-8.468 6.612 2.22 7.093 5.39 8.687 11.453 1.442 12.614 1.738 8.569 13.368 9.62 14.085 3.616.632 4.045.531 1.976-2.218 2.355-3.087.235-6.208-.295-7.127z" class="B"/><path d="M128.198 173.005s-3.246 3.062-8.637-.303c-.618-2.943-.928-5.942-.925-8.949-.1-9.328 3.006-18.407 8.796-25.708.051 8.08-1.9 22.031.766 34.96z" class="D"/><g opacity=".4" fill="#fff"><path d="M152.098 70.555l134.651-1.501c4.457-.135 9.469-.363 13.909-.675-24.261 2.766-49.8 2.64-74.246 3.07-24.06.059-50.314-.051-74.314-.894zm60.572 22.679c7.493 3.542 15.633 14.237 8.578 21.828-4.768 5.305-13.564 4.63-19.493 1.991 5.886 1.391 14.01 1.745 18.274-3.096 6.206-6.975-1.489-16.303-7.359-20.723zm-6.659 29.006c6.845 1.687 13.791 8.695 5.945 14.296a13.93 13.93 0 0 1-3.364 1.788c-4.978 1.543-10.848 1.256-15.389-1.392 5.315 1.687 13.136 1.645 17.744-1.763 6.929-4.605-.05-10.458-4.97-12.929h.034zM326.93 97.165c.244 6.022 4.163 13.435 9.301 16.64 2.144 1.375 4.759 2.008 6.904.338 1.065-.791 1.838-1.916 2.195-3.197a5.64 5.64 0 0 1-1.682 3.804c-2.145 2.319-5.735 1.915-8.216.43-5.71-3.137-9.915-11.614-8.519-18.015h.017zm17.877 26.475c-.05 3.306 3.087 14.532 7.569 9.277a5.34 5.34 0 0 0 1.06-2.117c.121.896-.023 1.809-.415 2.623s-1.014 1.495-1.789 1.957c-5.668 2.134-8.266-7.903-6.425-11.766v.026z"/></g><path d="M331.26 90.965c-5.138.751-4.205 9.413-1.951 13.968s6.727 9.412 11.403 9.412 5.491-8.249 1.682-15.418c-3.204-5.963-7.165-8.544-11.134-7.962zm17.449 28.905c-2.884-.523-3.927 4.276-3.548 7.118s1.917 6.242 4.414 7.085 4.407-3.424 3.642-7.945c-.631-3.762-2.288-5.845-4.508-6.258zm-155.758 2.361c-7.283 2.176-7.964 7.945-4.138 11.446 5.349 4.891 14.296 4.596 19.754 2.429 6.089-2.43 6.416-8.038.757-11.614-2.416-1.515-5.123-2.499-7.945-2.889a20.14 20.14 0 0 0-8.428.628z" fill="#fff"/><path d="M93 20.431c-5.833 13.333-17.9 48.2-19.5 81" stroke-width="4" stroke-linecap="round" class="F"/><path d="M198.476 90.965c-9.402 1.299-11.521 10.071-7.611 16.582 5.458 9.118 16.516 11.209 23.648 9.379 7.997-2.041 9.645-10.661 3.506-17.813-5.39-6.292-12.605-9.109-19.543-8.147z" fill="#fff"/><defs ><path id="B" d="M200.889 163.753c0 19.888-13.313 36.132-30.056 37.111h-20.544v-74.272h20.544v.05c16.743.987 30.056 17.198 30.056 37.111z"/><path id="C" d="M349.416 163.753c0 19.888-13.312 36.132-30.055 37.111h-20.545v-74.272h20.545v.05c16.743.987 30.055 17.198 30.055 37.111z"/><path id="D" d="M63.252 152.569c0 19.888-4.205 36.133-19.493 37.111H25.015v-74.272h18.745v.051c15.272.986 19.493 17.222 19.493 37.11z"/></defs></svg>