<svg xmlns="http://www.w3.org/2000/svg" width="500" height="451" fill="none"><style><![CDATA[.B{fill:#302a37}.C{fill:#fff}.D{fill:#ffd15c}.E{fill-rule:evenodd}.F{fill:#ce541d}.G{fill:#f9b10c}.H{fill:#86bce5}]]></style><mask id="A" maskUnits="userSpaceOnUse" x="0" y="0" width="500" height="451" mask-type="alpha"><path fill="url(#F)" d="M0 .931h500v450H0z"/></mask><g mask="url(#A)"><path d="M252.682 281.619a27.93 27.93 0 0 0-11.333.838c-3.688 1.053-7.142 2.855-10.163 5.302s-5.552 5.491-7.446 8.959a31.31 31.31 0 0 0-3.595 11.252l2.222.291c.44-3.658 1.566-7.189 3.314-10.392s4.082-6.015 6.871-8.276 5.977-3.926 9.382-4.9a25.79 25.79 0 0 1 10.465-.778l.283-2.296zm-66.944-6.488c3.504.46 6.886 1.636 9.954 3.46a27.25 27.25 0 0 1 7.927 7.174c2.166 2.911 3.761 6.24 4.694 9.795a29.27 29.27 0 0 1 .745 10.925l2.222.291c.967-7.998-1.149-16.07-5.883-22.439s-11.696-10.515-19.357-11.526l-.302 2.32z" fill="#e7e8f2"/><path d="M188.019 285.046l-6.479 2.296.361 1.108 6.479-2.296-.361-1.108zm-.379.554v4.826h1.12l-.023-4.821-1.097-.005zm.384.554l6.401 2.229.352-1.112-6.401-2.225-.352 1.108zm-.508-25.172l.124 24.618h1.12l-.124-24.623-1.12.005zm-5.976 26.36c-.129.06-.232.167-.288.302a.61.61 0 0 0-.018.425.58.58 0 0 0 .263.326c.123.07.268.09.404.055l-.361-1.108zm6.123 3.084c.012.146.077.282.18.381a.55.55 0 0 0 .759 0 .6.6 0 0 0 .181-.381h-1.12zm6.753-2.043a.53.53 0 0 0 .225.044.55.55 0 0 0 .224-.054.56.56 0 0 0 .184-.142.61.61 0 0 0 .115-.207c.024-.076.033-.157.026-.238a.6.6 0 0 0-.067-.228c-.037-.071-.088-.133-.149-.182a.56.56 0 0 0-.206-.105l-.352 1.112zm-5.78-27.41c-.012-.146-.077-.282-.18-.381a.55.55 0 0 0-.38-.154.55.55 0 0 0-.379.154.6.6 0 0 0-.181.381h1.12zm-23.579 24.183l-6.498 2.315.361 1.103 6.48-2.296-.343-1.122zm-.38.559l.023 4.821h1.12l-.023-4.821h-1.12zm.38.549l6.401 2.229.357-1.107-6.397-2.23-.361 1.108zm-.503-25.172l.123 24.623h1.12l-.123-24.623h-1.12zm-5.995 26.379a.57.57 0 0 0-.32.295.6.6 0 0 0-.027.445c.048.147.149.267.282.335s.286.078.426.028l-.361-1.103zm6.123 3.08a.61.61 0 0 0 .027.24.59.59 0 0 0 .118.208c.052.061.117.109.188.142a.54.54 0 0 0 .227.05c.078 0 .155-.017.227-.05s.135-.081.188-.142a.59.59 0 0 0 .118-.208.61.61 0 0 0 .027-.24h-1.12zm6.749-2.044c.14.05.294.039.427-.03s.234-.19.281-.337a.61.61 0 0 0-.029-.446.57.57 0 0 0-.323-.294l-.356 1.107zm-5.775-27.405a.61.61 0 0 0-.17-.413c-.106-.109-.249-.17-.397-.17-.074.001-.146.017-.213.046a.56.56 0 0 0-.18.128.59.59 0 0 0-.12.19.63.63 0 0 0-.041.223l1.121-.004z" class="B"/><path d="M192.336 268.324c-.091.196.156.33.352.263 5.423-1.781 8.542-7.442 9.634-10.598.03-.088.038-.182.023-.274a.56.56 0 0 0-.106-.252.54.54 0 0 0-.209-.168.52.52 0 0 0-.261-.041l-48.651 3.752c-.089.003-.175.03-.25.078a.52.52 0 0 0-.181.197c-.042.081-.064.173-.062.265s.027.183.072.262c1.253 2.143 3.791 4.406 5.387 5.686.269.219.626-.311.781-.626.087-.167.17 0 .293.158 1.642 1.909 7.641 4.134 11.889 5.117 1.618.368 2.743.64 3.53.888 1.007.2 2.035.263 3.059.186 1.001-.2 2.551-.415 4.833-.725l.128-.029c3.495-.56 6.777-2.107 9.492-4.473.156-.148.338.129.247.334z" class="D"/><path d="M207.485 261.388l.041-1.193c.002-.013.001-.026-.003-.039s-.011-.024-.02-.033c-2.743-4.344-5.605-12.049-6.858-15.868-.005-.025-.019-.049-.039-.065s-.044-.026-.069-.026-.05.009-.069.026a.12.12 0 0 0-.038.065c-.682 7.581 4.115 14.445 6.858 17.186.013.018.031.031.052.039a.1.1 0 0 0 .064.003c.021-.006.04-.018.054-.035s.024-.037.027-.06zm-66.598-.234l-.055-1.193a.09.09 0 0 1-.008-.036.09.09 0 0 1 .008-.036c2.716-4.377 5.487-12.111 6.689-15.944.046-.119.215-.095.215 0 .759 7.571-3.982 14.493-6.68 17.257-.014.011-.029.018-.046.022s-.034.003-.05-.002-.032-.013-.044-.025-.023-.026-.029-.043z" class="G"/><path d="M175.792 248.022c-.075.038-.158.057-.242.057s-.167-.019-.242-.057l-10.951-5.437a.57.57 0 0 1-.268-.271c-.057-.119-.073-.256-.045-.386s.097-.247.198-.33.225-.127.352-.126l21.948-.119a.55.55 0 0 1 .351.124.58.58 0 0 1 .198.326c.029.129.015.265-.04.384a.57.57 0 0 1-.262.274l-10.997 5.561z" fill="#ec662b"/><path d="M168.925 240.99c-.023.174-.094.337-.205.469a.86.86 0 0 1-.419.274.83.83 0 0 1-.493-.012c-.16-.054-.301-.156-.406-.294s-.169-.303-.185-.478.019-.351.099-.505a.88.88 0 0 1 .348-.366c.148-.083.316-.12.484-.105a.86.86 0 0 1 .328.108c.101.059.191.137.263.232s.126.203.158.319a.96.96 0 0 1 .028.358zm14.784.062c-.027.184-.105.355-.223.493s-.273.236-.445.284-.353.043-.521-.015a.92.92 0 0 1-.429-.311c-.111-.145-.179-.32-.196-.504s.018-.371.1-.535.209-.3.364-.39a.89.89 0 0 1 .509-.12.95.95 0 0 1 .637.368c.158.206.231.468.204.73z" class="C"/><path d="M169.639 244.957l5.697 3.041.508-1.041-5.693-3.041-.512 1.041zm6.063-4.172c-.535.983-2.286 2.864-5.839 3.065l.064 1.169c3.923-.239 6.031-2.329 6.749-3.661l-.974-.573zm-.366 7.213a.54.54 0 0 0 .427.035c.141-.048.258-.153.325-.291a.6.6 0 0 0 .034-.445.58.58 0 0 0-.278-.34l-.508 1.041zm-5.487-4.148c-.123.007-.24.057-.333.141a.6.6 0 0 0-.183.323.62.62 0 0 0 .042.373.58.58 0 0 0 .25.27l.256-.52-.032-.587zm6.813-2.492a.61.61 0 0 0 .052-.444.58.58 0 0 0-.264-.351.54.54 0 0 0-.425-.054c-.143.042-.264.141-.337.276l.974.573z" class="B"/><path d="M283.915 270.806c27.517-.148 49.954 25.745 50.114 57.838l-99.648.545c-.16-32.099 22.03-58.23 49.534-58.383zM80.58 271.919a53.61 53.61 0 0 1 21.323 4.306c6.768 2.883 12.924 7.13 18.12 12.498s9.327 11.751 12.159 18.786 4.31 14.583 4.347 22.214l-108.176.592c-.16-32.093 21.486-58.229 52.227-58.396z" fill="#010101"/><path d="M290.964 359.25c20.531-3.633 34.353-23.954 30.873-45.389s-22.944-35.865-43.475-32.232-34.353 23.955-30.874 45.389 22.945 35.865 43.476 32.232z" class="C"/><mask id="B" maskUnits="userSpaceOnUse" x="246" y="281" width="77" height="79"><path d="M246.905 320.682c.039 7.786 2.289 15.385 6.465 21.836s10.09 11.464 16.995 14.405 14.491 3.679 21.798 2.119 14.006-5.347 19.251-10.882 8.8-12.57 10.215-20.215.627-15.555-2.265-22.732-7.757-13.297-13.981-17.587-13.526-6.556-20.984-6.513c-9.997.059-19.563 4.261-26.593 11.681s-10.952 17.451-10.901 27.888z" class="C"/></mask><g mask="url(#B)" class="B"><path d="M284.368 271.761c-12.376.07-24.218 5.268-32.924 14.452s-13.559 21.601-13.496 34.521l17.919-.1a31.16 31.16 0 0 1 2.131-11.495 30.14 30.14 0 0 1 6.181-9.77c2.655-2.801 5.813-5.028 9.292-6.555s7.214-2.324 10.988-2.345l-.091-18.708zm46.904 48.462c-.031-6.397-1.27-12.725-3.644-18.623s-5.838-11.249-10.194-15.75-9.517-8.06-15.191-10.478-11.747-3.644-17.875-3.611l.091 18.708c3.775-.021 7.517.734 11.013 2.223s6.675 3.681 9.359 6.453 4.817 6.068 6.28 9.701a31.14 31.14 0 0 1 2.246 11.473l17.915-.096zm-46.415 48.95a44.96 44.96 0 0 0 17.841-3.8c5.65-2.478 10.777-6.094 15.087-10.642s7.721-9.938 10.035-15.862 3.487-12.267 3.452-18.665l-17.915.096c.02 3.941-.704 7.848-2.13 11.497s-3.527 6.969-6.183 9.771a28.73 28.73 0 0 1-9.293 6.557c-3.481 1.527-7.215 2.324-10.99 2.344l.096 18.704zm-46.909-48.439c.07 12.917 5.051 25.276 13.848 34.36s20.689 14.147 33.061 14.079l-.096-18.704c-7.623.041-14.95-3.081-20.369-8.68s-8.485-13.215-8.525-21.174l-17.919.119z"/></g><path d="M298.081 321.341c-.064-13.118-6.228-18.556-13.119-20.527 5.835-.033 17.796 3.819 18.949 19.572s-12.465 19.749-19.662 19.792c5.396-.688 13.91-3.285 13.832-18.837z" class="H"/><mask id="C" maskUnits="userSpaceOnUse" x="263" y="298" width="43" height="45"><path d="M263.964 320.591c.021 4.264 1.253 8.426 3.539 11.959s5.525 6.279 9.307 7.89 7.935 2.016 11.937 1.163 7.67-2.927 10.543-5.958 4.821-6.883 5.597-11.069a22.44 22.44 0 0 0-1.238-12.449c-1.583-3.931-4.247-7.283-7.654-9.634s-7.407-3.592-11.491-3.57c-2.712.015-5.394.587-7.894 1.683a20.62 20.62 0 0 0-6.675 4.709c-1.908 2.013-3.417 4.397-4.441 7.018s-1.544 5.427-1.53 8.258z" class="C"/></mask><g mask="url(#C)" class="B"><path d="M284.486 295.415a23.14 23.14 0 0 0-9.178 1.957c-2.907 1.276-5.544 3.136-7.762 5.476a25.18 25.18 0 0 0-5.163 8.16 26.01 26.01 0 0 0-1.779 9.602l6.721-.038c-.023-4.786 1.776-9.386 5.001-12.788s7.612-5.327 12.197-5.352l-.037-7.017zm24.134 24.933c-.034-6.647-2.596-13.008-7.122-17.684s-10.645-7.283-17.012-7.249l.037 7.012a16.65 16.65 0 0 1 6.622 1.338 17.23 17.23 0 0 1 5.628 3.882c1.613 1.667 2.896 3.65 3.776 5.835a18.73 18.73 0 0 1 1.349 6.899l6.722-.033zm-23.86 25.195c6.367-.036 12.459-2.711 16.938-7.436s6.976-11.112 6.944-17.759l-6.721.033c.023 4.786-1.776 9.386-5.001 12.788s-7.612 5.327-12.196 5.352l.036 7.022zm-24.133-24.933c.034 6.648 2.595 13.009 7.121 17.684s10.645 7.284 17.012 7.249l-.036-7.017c-2.27.013-4.521-.442-6.623-1.337s-4.014-2.215-5.627-3.882a18.09 18.09 0 0 1-3.776-5.835c-.88-2.185-1.338-4.53-1.35-6.9l-6.721.038z"/></g><path d="M81.447 360.814c20.745-1.895 36.09-20.988 34.275-42.645s-20.103-37.678-40.847-35.783-36.09 20.987-34.275 42.644 20.103 37.678 40.847 35.784z" class="C"/><mask id="D" maskUnits="userSpaceOnUse" x="40" y="282" width="76" height="79"><path d="M40.434 321.813c.039 7.786 2.289 15.385 6.465 21.836s10.091 11.464 16.996 14.405a36.22 36.22 0 0 0 21.797 2.119c7.307-1.56 14.006-5.347 19.251-10.882s8.8-12.57 10.215-20.214.627-15.556-2.265-22.733-7.757-13.297-13.981-17.587-13.526-6.556-20.984-6.513c-9.998.058-19.564 4.259-26.595 11.68s-10.952 17.452-10.899 27.889z" class="C"/></mask><g mask="url(#D)" class="B"><path d="M77.893 272.893c-6.128.033-12.189 1.326-17.838 3.805s-10.775 6.095-15.086 10.642-7.721 9.936-10.037 15.859-3.491 12.265-3.459 18.662l17.92-.095c-.02-3.942.704-7.848 2.13-11.498s3.527-6.969 6.183-9.77 5.813-5.03 9.294-6.557 7.215-2.324 10.99-2.345l-.096-18.703zm46.909 48.457c-.032-6.397-1.271-12.725-3.646-18.623s-5.839-11.249-10.195-15.748-9.518-8.06-15.192-10.477-11.748-3.643-17.876-3.609l.096 18.703c7.623-.043 14.95 3.076 20.37 8.672s8.489 13.21 8.533 21.168l17.91-.086zm-46.42 48.973c12.376-.069 24.219-5.267 32.924-14.451s13.56-21.602 13.496-34.522l-17.91.086c.039 7.959-2.952 15.608-8.315 21.265s-12.658 8.858-20.282 8.9l.087 18.722zm-46.909-48.462c.067 12.92 5.046 25.284 13.843 34.372s20.691 14.156 33.067 14.09l-.096-18.708c-3.775.022-7.516-.733-11.012-2.222s-6.675-3.682-9.358-6.454-4.817-6.068-6.279-9.701-2.225-7.532-2.244-11.472l-17.92.095z"/></g><path d="M91.605 322.472c-.064-13.123-6.228-18.555-13.118-20.551 5.835-.028 17.796 3.843 18.953 19.572S84.97 341.242 77.777 341.28c5.391-.659 13.905-3.255 13.827-18.808z" class="H"/><mask id="E" maskUnits="userSpaceOnUse" x="57" y="300" width="42" height="44"><path d="M57.506 321.718c.021 4.264 1.252 8.425 3.539 11.959s5.525 6.279 9.307 7.89a19.84 19.84 0 0 0 11.937 1.162c4.001-.853 7.671-2.926 10.544-5.957s4.82-6.883 5.596-11.069a22.44 22.44 0 0 0-1.238-12.45c-1.583-3.93-4.246-7.283-7.654-9.633s-7.407-3.592-11.491-3.57c-2.712.015-5.394.586-7.894 1.683s-4.768 2.697-6.675 4.709-3.416 4.397-4.441 7.018-1.544 5.427-1.53 8.258z" class="C"/></mask><g mask="url(#E)" class="B"><path d="M78.008 296.546a23.14 23.14 0 0 0-9.177 1.957c-2.906 1.275-5.544 3.136-7.761 5.475s-3.972 5.111-5.164 8.158a26.03 26.03 0 0 0-1.78 9.601l6.722-.033c-.023-4.787 1.776-9.386 5-12.788s7.612-5.327 12.197-5.352l-.037-7.018zm24.134 24.928a26 26 0 0 0-1.875-9.581c-1.222-3.034-3.004-5.787-5.245-8.102s-4.897-4.147-7.816-5.39-6.044-1.873-9.197-1.855l.037 7.013a16.65 16.65 0 0 1 6.622 1.337c2.102.896 4.014 2.215 5.628 3.882s2.897 3.65 3.776 5.835 1.338 4.53 1.349 6.9l6.722-.039zM78.26 346.67a23.13 23.13 0 0 0 9.178-1.958c2.907-1.275 5.544-3.136 7.762-5.475s3.972-5.113 5.163-8.161 1.796-6.31 1.779-9.602l-6.722.039c.023 4.786-1.776 9.386-5.001 12.787s-7.612 5.327-12.196 5.353l.037 7.017zm-24.134-24.933c.016 3.291.653 6.548 1.875 9.582s3.004 5.788 5.245 8.103 4.897 4.147 7.816 5.391 6.044 1.874 9.197 1.857l-.037-7.013a16.65 16.65 0 0 1-6.622-1.337c-2.102-.896-4.014-2.215-5.628-3.882s-2.897-3.65-3.776-5.835-1.338-4.529-1.349-6.899l-6.722.033z"/></g><path d="M90.286 238.126c14.948-42.328 45.401-48.983 58.13-49.054l93.361-.511c35.062-.191 54.724 28.489 56.53 48.429l-208.021 1.136zm235.735 90.313c3.384-19.233-7.741-54.057-40.919-53.876-36.242.201-46.114 36.466-43.123 54.344.068.364.06.739-.024 1.1a2.63 2.63 0 0 1-.461.988c-.22.291-.498.529-.815.698a2.4 2.4 0 0 1-1.019.279l-116.918.639c-1.642 0-2.78-1.799-2.41-3.47 3.878-17.462-10.059-53.618-41.532-53.465-30.302.167-47.586 34.413-42.744 53.999.407 1.638-.695 3.395-2.286 3.404l-6.479.033c-.471.005-.932-.148-1.314-.437s-.665-.697-.808-1.166c-6.95-23.568 1.029-42.376 6.237-47.141 2.908-29.257 28.551-42.963 44.198-46.156 19.031-45.092 59.58-58.459 75.752-58.549l75.616-.411 33.607-.186c35.012-.191 65.579 46.037 60.024 63.872 10.374 10.254 11.024 27.434 9.144 34.628 20.257 16.985 13.485 43.756 8.441 52.811-.187.324-.453.591-.769.774a2.02 2.02 0 0 1-1.037.272l-8.015.043c-.355-.008-.704-.097-1.023-.26a2.47 2.47 0 0 1-.823-.685 2.6 2.6 0 0 1-.47-.984c-.086-.359-.097-.734-.03-1.098z" fill="#ec662a" class="E"/><path d="M232.692 249.191c-1.372-2.2-2.218-5.699-2.597-9.7a74.58 74.58 0 0 1 .342-15.342c1.372-11.982 5.396-27.263 13.933-43.827l5.917 3.341c-8.139 15.796-11.889 30.237-13.183 41.345-.579 4.578-.688 9.208-.324 13.81.356 3.728 1.06 5.8 1.513 6.521l-5.601 3.852zm-113.273-15.428c-.892 6.291-16.278 6.387-20.81 3.742-9.291-6.597 7.435-17.567 14.363-20.021s7.567 8.421 6.447 16.279z" class="F"/><path d="M336.364 331.461l-8.016.043c-.356-.011-.705-.103-1.023-.269s-.598-.404-.819-.695a2.6 2.6 0 0 1-.462-.99 2.67 2.67 0 0 1-.019-1.101 46.91 46.91 0 0 0 0-14.742c5.487-3.403 13.882-6.477 17.376-7.59.407 10.288-2.643 19.63-5.24 24.289-.185.324-.449.592-.764.777a2.01 2.01 0 0 1-1.033.278zm-96.704.511l-116.918.639c-1.642 0-2.78-1.804-2.41-3.475.692-3.477.828-7.05.402-10.574l120.952-.663c-.36 3.657-.262 7.348.292 10.979a2.68 2.68 0 0 1-.017 1.107 2.62 2.62 0 0 1-.459.998 2.49 2.49 0 0 1-.817.705 2.39 2.39 0 0 1-1.025.284zm-205.93 1.126l-6.479.034a2.13 2.13 0 0 1-1.312-.434c-.381-.288-.664-.697-.805-1.165a65.98 65.98 0 0 1-2.625-15.004 60.8 60.8 0 0 1-.032-6.206c3.896 1.332 11.98 4.564 13.155 6.807a33.32 33.32 0 0 0 .407 12.541c.434 1.656-.677 3.418-2.309 3.427z" class="B"/><path d="M56.626 274.038l-22.268.12c-.128-13.462 10.933-24.475 23.667-24.609l21.436-.119c.128 13.462-10.091 24.475-22.835 24.608zm176.603 22.012c-1.507 3.856-4.074 7.158-7.379 9.49s-7.197 3.588-11.186 3.609l.028 4.678c4.873-.028 9.63-1.564 13.667-4.414s7.176-6.885 9.017-11.597l-4.147-1.766zm-18.565 13.099l-83.621.477.022 4.678 83.627-.477-.028-4.678zm33.448-51.203l-14.883 38.123 4.147 1.766 14.888-38.127-4.152-1.762zm-117.069 51.68c-.595.003-1.163.253-1.581.694a2.39 2.39 0 0 0-.648 1.657 2.39 2.39 0 0 0 .664 1.651 2.19 2.19 0 0 0 1.587.676l-.022-4.678zm121.221-49.918c.224-.575.219-1.219-.012-1.791a2.29 2.29 0 0 0-1.22-1.257c-.55-.234-1.168-.229-1.715.012s-.981.7-1.205 1.274l4.152 1.762z" class="F"/><path d="M230.349 237.362v3.027c.064 12.855 8.418 23.524 19.451 25.921 2.524-9.352 6.58-18.937 8.363-29.12l-27.814.172z" class="F"/><path d="M244.522 253.063c-1.311.004-2.57-.535-3.5-1.499s-1.458-2.274-1.465-3.642v-.535l9.89-.057v.534c.006 1.371-.509 2.688-1.432 3.663s-2.18 1.527-3.493 1.536z" fill="#ec662a"/><path d="M248.93 248.399l-9.09.052c-.546 0-1.069-.226-1.455-.629s-.603-.949-.603-1.519.217-1.116.603-1.519.909-.629 1.455-.629l9.085-.048c.546 0 1.069.227 1.455.629a2.2 2.2 0 0 1 .603 1.519c0 .57-.217 1.117-.603 1.519s-.909.63-1.455.63l.005-.005z" fill="#ba4a1d"/><path d="M219.871 279.289l-90.878.478c-2.913 0-5.295-2.865-5.313-6.378s2.336-6.421 5.249-6.44l90.878-.477c2.913 0 5.295 2.864 5.313 6.378s-2.336 6.42-5.249 6.439z" class="F"/><path d="M211.599 278.115l-76.296 1.432v1.17l76.296-1.432v-1.17zm-76.296 1.432c-.14.013-.27.081-.365.189s-.147.249-.147.396.053.288.147.396.225.176.365.189v-1.17zm76.315-.248c.073-.001.146-.016.213-.047s.129-.074.18-.129a.58.58 0 0 0 .118-.192c.026-.071.039-.147.037-.224a.6.6 0 0 0-.169-.411.55.55 0 0 0-.398-.167l.019 1.17z" class="B"/><path d="M337.866 319.961l-.407-18.002 11.257 6.97-6.132 19.386-3.438-1.766-2.483-3.218 1.203-3.37z" fill="#fce3e2"/><path d="M360.549 326.821l-8.756 1.031-2.634-3.213 10.224-1.651 1.166 3.833z" class="E H"/><path d="M310.864 263.231l8.258 7.198.718-.897-8.258-7.194-.718.893zm-8.271-7.194l8.253 7.194.718-.893-8.23-7.199-.741.898zm19.867 29.854l10.06 6.206.571-1.007-10.059-6.206-.572 1.007zm-10.059-6.205l10.059 6.205.572-1.002-10.06-6.206-.571 1.003zm17.041 23.983l2.314 11.752 1.097-.234-2.313-11.757-1.098.239zm2.831-12.192l-2.826 11.934 1.088.277 2.821-11.935-1.083-.276zm-13.26-21.845l-6.781 9.194.887.712 6.804-9.18-.91-.726zm10.425 33.779l-.028.124v.134l.549-.12-.521-.138zm3.909-11.653l.101-.42-.357-.224-.288.506.544.138zm-21.115-12.932l-.385.525.545.335.283-.478-.443-.382zm7.691-8.468l.329-.444-.412-.363-.361.449.444.358z" class="B"/><path d="M392.748 379.269l-23.58 8.068 1.024 3.255 23.581-8.067-1.025-3.256zm-1.129 1.604l-.247 17.944 3.283.048.247-17.944-3.283-.048zm1.079 1.633l22.954 8.764 1.129-3.217-22.958-8.765-1.125 3.218zm.179-93.244l-1.258 91.611 3.283.048 1.258-91.612-3.283-.047zm-23.709 98.075a1.67 1.67 0 0 0-.928.859 1.78 1.78 0 0 0-.087 1.292 1.7 1.7 0 0 0 .804.987 1.58 1.58 0 0 0 1.235.117l-1.024-3.255zm22.204 11.457a1.79 1.79 0 0 0 .116.657 1.73 1.73 0 0 0 .349.561 1.63 1.63 0 0 0 .527.38 1.58 1.58 0 0 0 .627.139 1.59 1.59 0 0 0 .63-.121 1.63 1.63 0 0 0 .537-.364c.155-.157.278-.344.364-.551a1.78 1.78 0 0 0 .133-.654l-3.283-.047zm24.28-7.548c.204.083.421.123.639.118a1.58 1.58 0 0 0 .633-.151c.2-.094.379-.228.528-.395s.264-.364.339-.578a1.79 1.79 0 0 0-.059-1.327c-.094-.206-.227-.39-.39-.542s-.354-.268-.561-.342l-1.129 3.217zM396.16 289.309c.006-.454-.161-.893-.465-1.219s-.719-.512-1.154-.518a1.61 1.61 0 0 0-1.168.485 1.75 1.75 0 0 0-.496 1.205l3.283.047zm-86.448 88.714l-23.58 8.068 1.019 3.26 23.581-8.067-1.02-3.261zm-1.134 1.609l-.247 17.944 3.288.048.247-17.944-3.288-.048zm1.079 1.633l22.959 8.764 1.129-3.222-22.958-8.765-1.13 3.223zm.179-93.245l-1.258 91.612 3.288.048 1.243-91.612-3.273-.048zm-23.704 98.071c-.205.07-.395.181-.559.328a1.7 1.7 0 0 0-.396.526 1.77 1.77 0 0 0-.173.644c-.017.225.009.45.076.664s.174.413.314.584.312.311.504.413a1.58 1.58 0 0 0 1.253.101l-1.019-3.26zm22.199 11.485c.016.441.193.858.495 1.166a1.61 1.61 0 0 0 1.127.489 1.61 1.61 0 0 0 1.141-.456c.309-.299.498-.711.525-1.151l-3.288-.048zm24.285-7.547a1.56 1.56 0 0 0 .633.103 1.57 1.57 0 0 0 .623-.158c.196-.095.372-.229.518-.395a1.75 1.75 0 0 0 .334-.571c.074-.212.107-.437.098-.662a1.77 1.77 0 0 0-.151-.65c-.091-.205-.219-.388-.378-.541s-.345-.271-.548-.348l-1.129 3.222zm-19.507-101.961a1.75 1.75 0 0 0-.494-1.165c-.302-.308-.706-.484-1.128-.49a1.61 1.61 0 0 0-1.14.457c-.31.299-.498.711-.525 1.15l3.287.048z" fill="#2c2a23"/><path d="M378.744 331.938c-.057.064-.096.143-.113.228s-.011.174.017.256.077.155.141.21.142.091.225.104c20.631 1.513 37.494-14.355 43.438-22.437.16-.21 0-.525-.242-.616l-160.915-46.6c-.238-.086-.581.133-.498.429 1.211 9.19 8.925 21.959 12.697 27.554a.46.46 0 0 0 .215.144.44.44 0 0 0 .254.002c.084-.025.158-.073.216-.14s.097-.151.111-.24c.178-1.594.649-2.468 1.02-2.769.132-.128.37-.043.457.172 2.506 7.481 19.625 21.873 32.3 30.008 8.413 5.351 12.277 7.986 13.484 10 .435.402.989.637 1.569.664 2.286-.477 8.13.869 20.512 3.738l.503.095c14.632 3.423 29.012-.234 35.423-2.788.398-.114.718.263.535.549a12.84 12.84 0 0 1-1.349 1.437z" class="D"/><path d="M323.05 329.022c-58.953-21.558-89.959-88.843-69.31-150.371s85.094-93.913 144.034-72.359 89.959 88.838 69.309 150.37-85.084 93.918-144.033 72.36z" class="D"/><path d="M339.318 276.277l-9.338-51.947 47.029 17.199-37.691 34.748z" fill="#ec662b"/><path d="M316.562 236.178c-7.751-2.834-14.523-8.004-19.459-14.856s-7.816-15.079-8.274-23.64 1.526-17.07 5.701-24.454 10.353-13.308 17.754-17.026 15.691-5.06 23.822-3.859 15.739 4.894 21.861 10.609 10.483 13.198 12.531 21.501 1.692 17.054-1.023 25.145c-3.641 10.85-11.261 19.746-21.184 24.73s-21.336 5.65-31.729 1.85z" class="C"/><path d="M344.559 152.744a41.48 41.48 0 0 0-16.673-2.466c-5.659.329-11.2 1.819-16.308 4.385s-9.68 6.156-13.458 10.566-6.686 9.556-8.559 15.14l3.086 1.127c3.498-10.422 10.818-18.967 20.35-23.754s20.495-5.427 30.478-1.776l1.084-3.222zm26.461 57.413c3.783-11.277 3.12-23.661-1.842-34.428s-13.818-19.035-24.619-22.985l-1.084 3.222c9.983 3.652 18.167 11.294 22.754 21.245s5.2 21.396 1.704 31.819l3.087 1.127zm-54.998 27.63c10.802 3.949 22.666 3.257 32.98-1.924s18.234-14.428 22.018-25.706l-3.087-1.127c-3.499 10.422-10.82 18.967-20.352 23.753s-20.497 5.425-30.48 1.772l-1.079 3.232zm1.079-3.222c-.403-.124-.836-.081-1.209.119a1.69 1.69 0 0 0-.797.957 1.77 1.77 0 0 0 .053 1.266 1.67 1.67 0 0 0 .874.88l1.079-3.222zm-27.54-54.196c-.084.215-.125.445-.121.677a1.77 1.77 0 0 0 .144.671c.091.211.223.401.386.558a1.65 1.65 0 0 0 .566.353 1.58 1.58 0 0 0 1.288-.093 1.65 1.65 0 0 0 .514-.431c.142-.179.247-.386.309-.608l-3.086-1.127zm30.52 22.975c1.716-5.116-.865-10.716-5.765-12.507s-10.264.903-11.98 6.019.865 10.715 5.765 12.507 10.264-.903 11.98-6.019z" class="B"/><path d="M312.506 196.236c.428-1.276-.548-2.795-2.181-3.392s-3.303-.046-3.731 1.231.548 2.795 2.18 3.392 3.304.046 3.732-1.231zm63.204 61.572c-7.751-2.833-14.523-8.002-19.46-14.854s-7.818-15.077-8.277-23.637 1.523-17.07 5.697-24.454 10.35-13.31 17.75-17.029 15.689-5.064 23.82-3.864 15.74 4.889 21.863 10.603 10.485 13.194 12.535 21.496 1.698 17.052-1.015 25.145c-1.802 5.373-4.599 10.324-8.234 14.568s-8.033 7.701-12.947 10.17a40.14 40.14 0 0 1-15.689 4.223 39.92 39.92 0 0 1-16.043-2.367z" class="C"/><path d="M403.704 174.374a41.48 41.48 0 0 0-16.673-2.465c-5.658.33-11.199 1.82-16.306 4.385s-9.68 6.156-13.458 10.566-6.687 9.555-8.561 15.139l3.087 1.131c1.732-5.161 4.42-9.915 7.912-13.991s7.719-7.394 12.439-9.765 9.842-3.747 15.072-4.052a38.33 38.33 0 0 1 15.409 2.278l1.079-3.226zm26.461 57.417a46.88 46.88 0 0 0 2.36-17.407c-.316-5.908-1.744-11.693-4.201-17.024s-5.897-10.107-10.122-14.05-9.153-6.981-14.502-8.936l-1.08 3.226c9.983 3.651 18.167 11.292 22.754 21.243s5.2 21.395 1.705 31.817l3.086 1.131zm-54.998 27.626c10.802 3.949 22.665 3.258 32.979-1.923s18.234-14.426 22.019-25.703l-3.086-1.131c-1.732 5.161-4.42 9.916-7.912 13.993s-7.718 7.395-12.439 9.766-9.841 3.748-15.071 4.053a38.32 38.32 0 0 1-15.411-2.278l-1.079 3.223zm1.079-3.223c-.205-.087-.426-.13-.648-.126s-.44.055-.643.151a1.64 1.64 0 0 0-.534.403 1.72 1.72 0 0 0-.338.591c-.074.218-.103.45-.088.682a1.75 1.75 0 0 0 .177.663 1.7 1.7 0 0 0 .413.536 1.62 1.62 0 0 0 .582.323l1.079-3.223zm-27.54-54.195a1.78 1.78 0 0 0 .105 1.271c.191.393.52.695.918.841a1.58 1.58 0 0 0 1.221-.057c.385-.183.686-.514.843-.924l-3.087-1.131zm30.522 22.972c1.716-5.116-.866-10.715-5.766-12.507s-10.264.904-11.98 6.02.865 10.715 5.766 12.507 10.264-.904 11.98-6.02z" class="B"/><path d="M371.649 217.863c.429-1.276-.548-2.795-2.18-3.392s-3.304-.046-3.732 1.231.548 2.795 2.181 3.392 3.303.046 3.731-1.231z" class="C"/><path d="M405.994 144.848c5.295.057 19.428 3.647 31.463 17.94l2.456-2.254c-12.662-15.037-27.687-19.032-33.887-19.094l-.032 3.408zm31.486 17.94a1.61 1.61 0 0 0 1.123.576c.432.029.858-.122 1.184-.421s.524-.721.552-1.172-.117-.897-.403-1.237l-2.456 2.254zm-31.431-21.348c-.433-.005-.85.171-1.159.487s-.485.748-.49 1.2a1.74 1.74 0 0 0 .467 1.21 1.6 1.6 0 0 0 1.15.511l.032-3.408zm-46.538-15.157c-4.161-1.957-15.633-5.203-27.398-2.119l-.796-3.313c12.657-3.318 24.898.134 29.539 2.32l-1.345 3.112zm-27.398-2.119a1.58 1.58 0 0 1-1.205-.223 1.71 1.71 0 0 1-.72-1.034 1.77 1.77 0 0 1 .168-1.265 1.65 1.65 0 0 1 .961-.791l.796 3.313zm28.743-.993a1.69 1.69 0 0 1 .802.956 1.78 1.78 0 0 1-.052 1.27c-.173.401-.487.716-.877.881s-.826.167-1.218.005l1.345-3.112z" class="B"/><path d="M421.602 68.431c0 21.482-18.19 36.032-27.326 40.577l33.604 28.546c12.853-7.561 13.31-25.983 12.656-30.824-2.396 7.529-8.482 10.063-10.251 9.767 4.184-5.36 4.216-10.946 2.743-12.411-5.418 8.702-12.643 10.268-15.587 9.853 14.513-15.82 8.843-36.915 4.161-45.508zm53.594 171.008c.265.191.709.172.791-.072 6.566-15.347-4.275-38.958-10.791-52.696-.256-.545-1.294-.382-1.234.09.846 13.739-.956 50.654-3.658 70.751-.055.162.086.391.375.501 3.781 1.738 7.567 8.984 9.35 13.424.183.425.823.477.956.076 3.379-10.387.133-27.687-2.259-36.514-.082-.391.457-.649.873-.31l5.597 4.75zM272.692 135.621c-.425.114-.832-.401-.612-.774 14.499-17.261 37.494-26.77 49.529-28.565a.44.44 0 0 1 .35-.015.46.46 0 0 1 .153.098.47.47 0 0 1 .105.151.51.51 0 0 1 .042.181c.002.063-.007.126-.028.185a.49.49 0 0 1-.094.159.47.47 0 0 1-.144.11c-13.329 8.592-48.885 46.543-63.585 67.008a.51.51 0 0 1-.29.185.49.49 0 0 1-.337-.047c-3.077-1.489-8.916 2.649-12.345 5.671-.311.344-.86-.043-.81-.477 7.513-25.272 26.676-40.018 36.781-45.054.366-.229.243-.731-.242-.726-2.895.223-5.747.866-8.473 1.91zm163.766 186.197c20.055-10.917 21.399-47.34 20.018-63.012a.48.48 0 0 0-.079-.179c-.037-.053-.085-.097-.14-.13a.44.44 0 0 0-.366-.04l-17.014 7.223-.115.124c-18.198 23.501-27.54 59.747-28.715 66.134s-1.244 9.261 11.056.645c8.711-6.206 15.378-15.82 18.441-21.262.048-.088.123-.155.213-.19s.19-.035.281-.001a.42.42 0 0 1 .214.189.44.44 0 0 1 .047.288c-.759 4.908-2.849 7.065-4.18 9.877-.361.11-.009.463.339.334z" class="D"/><path d="M407.116 338.688l2.881-2.907c.035-.027.064-.063.083-.105s.028-.088.026-.134c3.375-17.767 14.358-44.218 20.211-56.912a.41.41 0 0 0 .052-.276.39.39 0 0 0-.14-.241.36.36 0 0 0-.258-.081c-.093.007-.18.05-.244.121-19.332 17.414-23.553 46.606-23.256 60.239a.41.41 0 0 0 .059.224c.04.067.099.12.168.152s.146.041.221.027.143-.052.197-.107z" class="G"/><path d="M244.078 199.856l7.467-2.464-.809 4.898-6.658-2.434z" class="D"/><path d="M274.353 265.493l-17.316-56.888 3.05-2.028L277.6 263.24l-3.247 2.253z" class="B E"/><path d="M221.435 195.588l19.881 55.852c.325.736.79 1.398 1.364 1.944a5.76 5.76 0 0 0 1.983 1.235l29.689 10.855-17.316-56.888-35.601-12.998z" class="B E"/><path d="M257.036 208.61l-35.601-13.017 3.159-1.991 2.959 1.084 32.533 11.896-3.05 2.028z" class="B E"/><path d="M223.186 191.162l-3.16 1.991 2.822 4.869 3.155-1.99-2.817-4.87zm15.656 61.49l1.029 2.33 4.952-2.387-1.033-2.33-4.948 2.387zm2.602 3.819l2.318.85 1.806-5.375-2.322-.845-1.802 5.37zm-12.99-64.483l-2.959-1.079-1.801 5.371 2.958 1.079 1.802-5.371zm32.528 11.901l-32.533-11.896-1.802 5.37 32.534 11.892 1.801-5.366zm-17.22 53.437l29.685 10.855 1.829-5.371-29.685-10.86-1.829 5.376zm-4.92-4.674c.478 1.084 1.16 2.056 2.005 2.859a8.46 8.46 0 0 0 2.915 1.815l1.806-5.376c-.389-.142-.747-.365-1.052-.654s-.553-.64-.726-1.031l-4.948 2.387zm-19.963-56.071l19.881 55.852 5.112-1.986-19.881-55.852-5.112 1.986zm39.625 14.426l3.045-2.034-2.931-4.774-3.05 2.029 2.936 4.779zm21.683 51.364l-17.513-56.668-5.19 1.747 17.513 56.669 5.19-1.748zm-4.335 5.495l3.246-2.249-3.013-4.745-3.246 2.249 3.013 4.745zm-17.915-61.953l-35.601-13.023-1.802 5.385 35.601 13.018 1.802-5.38zm19.012 58.716l-17.316-56.888-5.199 1.728 17.321 56.884 5.194-1.724zm-38.189-12.177c.023.068.051.135.082.2l2.474-1.193-2.556.993zm-13.26-61.538c-.379-.139-.782-.189-1.182-.146s-.784.177-1.127.394l1.408 2.435.901-2.683zm37.183 14.799c-.13-.418-.35-.799-.643-1.113a2.72 2.72 0 0 0-1.049-.701l-.914 2.687 2.606-.873zm16.425 59.914a2.85 2.85 0 0 0 1.062-1.434 2.98 2.98 0 0 0 .026-1.812l-2.597.869 1.509 2.377zm-39.232-10.636c.153.346.372.656.642.913s.586.454.931.581l.914-2.687-2.487 1.193zm-19.845-61.828c-.541.344-.951.874-1.161 1.499a2.99 2.99 0 0 0 .013 1.928l2.556-.993-1.408-2.434zm53.42 75.027a2.62 2.62 0 0 0 1.24.136 2.65 2.65 0 0 0 1.17-.451l-1.504-2.386-.906 2.701z" class="B"/><path d="M259.898 241.716c5.734-1.528 8.143-2.659-3.978-10.202-7.202-4.42-15.798-6.597-21.788-7.504 2.871-.525 6.63-1.341 6.507-1.475-2.712-.043-5.222-.955-9.196.086-3.745-4.296 3.919-6.206-3.987-5.418 1.021 7.203 3.479 14.102 7.215 20.25l3.809 6.272c13.306-.816 18.386-1.184 21.418-2.009z" class="G"/><path d="M258.461 228.917c12.126 7.543 9.717 8.674 3.978 10.207h-.069c-8.308 2.211-16.802 3.573-25.363 4.067l-1.829-1.642c-4.036-3.643-7.026-8.381-8.64-13.689a31.44 31.44 0 0 1-.505-16.386c8.601-.84 10.777 2.865 17.256 8.006.247.258.101.721-.146.477-2.853-.052-5.487-1.05-9.849.272-.092.021-.173.077-.228.156s-.081.177-.072.274.052.189.121.255.158.105.252.108c5.775.515 16.443 2.587 25.094 7.895z" class="D"/><path d="M128.233 91.054c0 .28-.056.536-.056.791l-.062 11.305-.075 8.631c.001.267-.048.531-.146.778s-.24.47-.421.659a1.92 1.92 0 0 1-.632.438 1.86 1.86 0 0 1-.745.15c-.499-.024-.968-.254-1.305-.639a2.02 2.02 0 0 1-.489-1.415l.108-17.021.061-4.424.127-18.029c-.019-.472.125-.935.406-1.305a1.87 1.87 0 0 1 1.125-.71c.419-.079.852-.008 1.227.203a1.94 1.94 0 0 1 .839.957c.05.077.115.142.192.189s.162.077.251.086a33.62 33.62 0 0 1 14.449 3.441 9.82 9.82 0 0 1 3.361 2.458c2.773 3.254 2.317 7.618-1.068 10.17a11.96 11.96 0 0 1-5.024 2.079 65.5 65.5 0 0 1-11.652 1.185l-.471.025zm.066-3.932h.471c1.831-.098 3.667-.108 5.485-.324 2.156-.26 4.303-.644 6.435-1.072 1.222-.197 2.34-.827 3.169-1.784a2.47 2.47 0 0 0 .666-1.478 2.5 2.5 0 0 0-.384-1.584 5.37 5.37 0 0 0-2.481-2.099c-3.32-1.658-6.895-2.69-10.56-3.047-.908-.088-1.831 0-2.825 0l.024 11.388zm75.617 14.17c-1.24.524-2.561.805-3.898.831-2.238.082-4.453-.499-6.389-1.676-3.857-2.276-6.836-5.882-8.427-10.199-.501-1.277-.691-2.663-.551-4.035a1.95 1.95 0 0 1 .679-1.254 1.79 1.79 0 0 1 1.322-.412 1.74 1.74 0 0 1 1.174.555 1.89 1.89 0 0 1 .502 1.239c0 2.433 1.008 4.424 2.354 6.257 1.359 1.951 3.131 3.547 5.179 4.665 1.674.936 3.616 1.207 5.466.762 2.702-.683 4.119-2.379 4.383-5.259l.367-4.64a2.01 2.01 0 0 1 .536-1.318 1.85 1.85 0 0 1 1.249-.59c.233-.016.468.017.689.096a1.75 1.75 0 0 1 .601.366 1.85 1.85 0 0 1 .42.579c.101.22.16.459.173.704a20.38 20.38 0 0 1-.25 5.761 154.68 154.68 0 0 1-1.37 6.252 48.27 48.27 0 0 1-2.354 7.171c-1.742 4.223-4.769 6.833-9.081 7.698-2.039.408-4.125.575-6.196.786-.965.098-1.77-.791-1.846-1.887-.022-.504.147-.996.469-1.371s.773-.603 1.254-.635c1.342-.137 2.689-.211 4.021-.398 1.5-.173 2.956-.631 4.298-1.352 1.107-.625 2.042-1.535 2.717-2.644 1.186-1.828 1.813-3.878 2.509-6.051zM50.735 94.087l-.4 4.881 3.296.201 9.618.492c.468-.009.922.163 1.274.484a2 2 0 0 1 .633 1.252c.04.435-.065.871-.297 1.235a1.82 1.82 0 0 1-.979.76 1.92 1.92 0 0 1-.603.069l-9.807-.541-4.553-.246a5.84 5.84 0 0 1-.942-.098c-.432-.076-.819-.323-1.082-.689a1.84 1.84 0 0 1-.33-1.277l.692-8.498.617-7.476.292-3.514a1.9 1.9 0 0 1 .19-.741 1.84 1.84 0 0 1 .463-.596 1.72 1.72 0 0 1 .656-.346 1.69 1.69 0 0 1 .734-.037l11.045.983c.942.079 1.85.034 2.773.054a1.81 1.81 0 0 1 .739.112 1.87 1.87 0 0 1 .64.404 1.97 1.97 0 0 1 .439.632 2.04 2.04 0 0 1 .169.76 1.91 1.91 0 0 1-.115.708c-.082.226-.207.432-.366.608a1.76 1.76 0 0 1-.562.414c-.212.098-.44.152-.671.157l-6.671-.256-5.612-.526h-.424l-.551 6.729 4.087.152 7.844.29c.24.009.477.068.695.173s.415.255.577.44.289.402.37.638.118.487.106.738-.071.497-.175.724a1.88 1.88 0 0 1-.429.597 1.8 1.8 0 0 1-.616.378c-.227.082-.468.117-.708.101l-9.11-.339c-.937-.015-1.893.015-2.947.015zm12.476 15.561h-.546a1.75 1.75 0 0 1-.721-.133 1.81 1.81 0 0 1-.613-.418 1.9 1.9 0 0 1-.405-.636 1.96 1.96 0 0 1-.133-.751 1.98 1.98 0 0 1 .161-.746c.101-.234.247-.445.429-.619a1.82 1.82 0 0 1 .628-.393 1.76 1.76 0 0 1 .725-.103l1.883.054c.159.026.322-.006.461-.091a.72.72 0 0 0 .301-.376 201.83 201.83 0 0 0 6.205-13.787c.471-1.145 1.389-1.671 2.354-1.312a2 2 0 0 1 .792.589 2.12 2.12 0 0 1 .432.91l3.225 10.813a139.32 139.32 0 0 0 5.118 13.32 3.61 3.61 0 0 1 .32 1.209c.033.428-.081.854-.322 1.202a1.72 1.72 0 0 1-.992.695 1.7 1.7 0 0 1-1.237-.132 1.82 1.82 0 0 1-.849-.949l-3.074-7.525a.8.8 0 0 0-.302-.455.74.74 0 0 0-.513-.14c-1.097 0-2.194 0-3.296-.029l-5.546-.089a.53.53 0 0 0-.347.075.57.57 0 0 0-.232.279l-2.203 4.158a1.89 1.89 0 0 1-.446.626 1.8 1.8 0 0 1-.649.386 1.75 1.75 0 0 1-.743.082 1.76 1.76 0 0 1-.712-.235 1.85 1.85 0 0 1-.561-.514c-.151-.21-.259-.451-.317-.706a1.99 1.99 0 0 1-.019-.78 1.93 1.93 0 0 1 .282-.721 111.38 111.38 0 0 1 1.459-2.758zm9.764-11.865l-3.766 8.198h6.422l-2.655-8.178v-.02zm106.539 18.142c-5.226-.246-9.294-2.595-12.123-7.221-.199-.278-.325-.606-.367-.95a2.12 2.12 0 0 1 .126-1.016 1.85 1.85 0 0 1 .616-.88c.286-.222.629-.349.985-.363a1.73 1.73 0 0 1 1.007.22c.308.175.56.44.726.763.935 1.717 2.314 3.125 3.978 4.065 2.058 1.274 4.496 1.703 6.841 1.204 1.883-.428 3.018-1.966 2.825-3.8a3.52 3.52 0 0 0-.789-1.941c-.451-.545-1.055-.928-1.725-1.096-1.333-.413-2.717-.644-4.082-.924-1.509-.222-2.959-.757-4.266-1.573-1.497-1.042-2.561-2.394-2.73-4.345-.057-.716.032-1.437.261-2.114a5.13 5.13 0 0 1 1.066-1.818 7.88 7.88 0 0 1 3.124-2.211 7.57 7.57 0 0 1 3.75-.441c1.266.172 2.472.663 3.516 1.43a8.14 8.14 0 0 1 2.477 2.972l.25.531a1.96 1.96 0 0 1 .227.742 1.97 1.97 0 0 1-.078.775 1.93 1.93 0 0 1-.369.677 1.83 1.83 0 0 1-.599.465c-.867.491-1.804.216-2.411-.772-.169-.275-.301-.575-.471-.85a4.23 4.23 0 0 0-1.309-1.415 4.03 4.03 0 0 0-1.775-.661 3.97 3.97 0 0 0-1.871.23c-.599.226-1.139.594-1.58 1.073-.701.782-.668 1.411.109 2.128a5.12 5.12 0 0 0 2.509 1.145c1.577.349 3.178.59 4.736 1.008 1.903.458 3.565 1.661 4.643 3.362a7.59 7.59 0 0 1 1.067 3.11c.126 1.107.01 2.23-.34 3.284s-.924 2.011-1.68 2.799a7.02 7.02 0 0 1-2.682 1.753c-.53.201-1.077.35-1.634.447-.635.118-1.294.143-1.958.207zM134.58 99.203l.207 4.203h1.182l7.283.138a9.1 9.1 0 0 1 2.477.491c.4.137.741.417.963.791a1.93 1.93 0 0 1 .247 1.254c-.036.401-.191.78-.445 1.083s-.592.516-.968.608a1.26 1.26 0 0 1-.696.029c-1.055-.423-2.157-.344-3.249-.364l-6.252-.103c-.076 0-.151 0-.302.025l.17 2.629h1.412l8.64-.398c.246-.024.494.004.73.082a1.82 1.82 0 0 1 .642.372c.188.168.342.373.452.605a1.99 1.99 0 0 1 .191.74 1.89 1.89 0 0 1-.36 1.338c-.284.379-.699.626-1.156.687-1.1.163-2.209.26-3.32.29l-8.691.187c-1.322 0-2.057-.659-2.156-2.045l-.569-9.049-.231-4.453c-.08-1.912.725-2.9 2.57-2.989l5.65-.084 7.283-.084a1.84 1.84 0 0 1 1.337.562c.357.365.56.863.565 1.384a2.01 2.01 0 0 1-.538 1.396c-.35.372-.827.585-1.326.59l-10.438.123-1.304-.039zm29.773-1.558l1.168 4.021c.096.256.141.531.129.806a2.02 2.02 0 0 1-.196.791 1.93 1.93 0 0 1-.487.64 1.86 1.86 0 0 1-.694.378c-.989.324-1.996-.3-2.354-1.475l-1.233-4.271-2.03.492-2.354.565a.68.68 0 0 0-.404.199.74.74 0 0 0-.203.415l-1.883 7.127c-.123.489-.421.91-.833 1.176a1.82 1.82 0 0 1-1.38.25c-.252-.062-.489-.177-.696-.338a1.93 1.93 0 0 1-.509-.6 2.01 2.01 0 0 1-.238-.762c-.028-.268-.004-.539.073-.797l2.194-8.307 3.004-10.607a32.11 32.11 0 0 1 1.356-3.332 1.81 1.81 0 0 1 .735-.903 1.7 1.7 0 0 1 1.11-.247 1.78 1.78 0 0 1 1.06.418 1.91 1.91 0 0 1 .616.992l1.027 3.308 1.793 5.928c.062.201.095.373.386.388a1.8 1.8 0 0 1 1.163.385 1.94 1.94 0 0 1 .683 1.056 2.09 2.09 0 0 1-.082 1.226 1.98 1.98 0 0 1-.751.946l-.17.133zm-6.087-7.068l-1.304 4.827 2.617-.639-1.158-3.829c-.024-.074-.056-.142-.155-.359zm-68.511-7.412a9.14 9.14 0 0 1 4.19.983 1.81 1.81 0 0 1 .586.441 1.91 1.91 0 0 1 .374.645c.082.239.117.493.102.746s-.078.501-.186.728a1.81 1.81 0 0 1-.401.594 1.72 1.72 0 0 1-.592.382 1.67 1.67 0 0 1-.688.108c-.234-.013-.463-.076-.673-.184-2.034-.983-4.068-.742-6.097-.098a2.99 2.99 0 0 0-1.263.628 3.17 3.17 0 0 0-.861 1.151c-.334.855-.184 1.421.579 1.868l3.107 1.725 3.734 2.064a9.01 9.01 0 0 1 1.841 1.504 5.42 5.42 0 0 1 1.424 3.209 5.49 5.49 0 0 1-.821 3.431c-1.347 2.261-3.395 3.082-5.852 2.949-1.932-.153-3.764-.956-5.221-2.29a33.19 33.19 0 0 1-2.669-2.61 1.9 1.9 0 0 1-.422-.63 1.96 1.96 0 0 1 .004-1.504 1.89 1.89 0 0 1 .425-.627 1.8 1.8 0 0 1 .629-.399 1.73 1.73 0 0 1 .729-.105c.247.018.489.088.709.206a1.83 1.83 0 0 1 .572.484 15.05 15.05 0 0 0 3.168 2.895c1.135.679 2.316 1.092 3.635.664.37-.117.703-.334.966-.629s.446-.658.531-1.052a1.31 1.31 0 0 0-.03-.803c-.094-.257-.265-.476-.488-.622l-3.159-2.01-4.364-2.389c-1.436-.836-2.627-2.099-2.74-4.006-.169-2.802 1.059-4.817 3.38-6.1a11.59 11.59 0 0 1 5.843-1.347zm19.892 20.541a8.21 8.21 0 0 1-5.735-.133 10.61 10.61 0 0 1-3.997-3.18c-1.737-2.048-3.121-4.395-4.091-6.936a1.87 1.87 0 0 1-.025-1.341c.158-.434.471-.786.872-.984.355-.22.777-.292 1.18-.201a1.63 1.63 0 0 1 .995.692 6.7 6.7 0 0 1 .603 1.16c1.008 2.329 2.437 4.434 4.209 6.198 1.883 1.809 4.614 1.893 6.351.206a3.97 3.97 0 0 0 1.243-2.197l.4-1.76c.25-.934 1.003-1.391 2.01-1.244.42.035.81.238 1.089.566a1.75 1.75 0 0 1 .413 1.194c-.008.539-.071 1.077-.188 1.602l-1.733 7.063a12.56 12.56 0 0 1-2.354 4.916c-1.845 2.246-4.279 3.219-7.024 3.48-1.642.147-3.297.019-4.901-.379-.475-.091-.897-.374-1.173-.789a1.98 1.98 0 0 1-.3-1.423 1.9 1.9 0 0 1 .246-.685 1.82 1.82 0 0 1 .482-.532 1.74 1.74 0 0 1 .642-.295c.231-.053.469-.057.701-.011l3.352.353a6.83 6.83 0 0 0 4.025-1.125c1.469-.978 2.208-2.448 2.708-4.217zm20.319 29.732l1.375 1.474 2.575 2.723c.24.256.344.541.047.801s-.504.099-.73-.142l-4.501-4.66c-.196-.154-.402-.293-.616-.418v2.227c0 .29 0 .57-.353.639s-.57-.143-.565-.58l.089-6.026v-.56c-.193 0-.372.098-.471.039s-.423-.261-.423-.398c.017-.104.056-.203.116-.288a.67.67 0 0 1 .227-.204c.329-.132.67-.229 1.017-.29.078-.019.158-.019.236 0l2.636.772c.405.126.785.324 1.125.585a4.03 4.03 0 0 1 .942 1.121c.579 1.071.315 1.936-.753 2.457-.641.28-1.319.482-1.973.728zm-1.883-1.111c1.024.241 2.096.136 3.06-.3 1.088-.447 1.182-1.19.268-1.966-.083-.075-.171-.144-.263-.207a7.16 7.16 0 0 0-2.915-.904l-.155 3.377h.005zm-18.681 2.148l.376-2.655.471-2.949c.052-.314.127-.609.513-.53s.471.348.391.702l-.664 4.208-.273 2.531c-.013.128-.052.252-.112.365a.96.96 0 0 1-.241.289c-.311.172-.471-.138-.645-.393l-4.002-6.351c-.085-.133-.183-.255-.358-.491l-.16 1.44-.47 4.827c-.025.117-.074.228-.144.324a.8.8 0 0 1-.261.231c-.306.138-.537-.133-.495-.541l.471-5.023.24-2.34a1.07 1.07 0 0 1 .358-.712c.334-.187.518.177.683.427l3.973 6.134.349.507zm49.876-1.047l-2.825.201v2.561.438c.024.324-.071.565-.414.58s-.471-.246-.499-.576v-1.715-1.391c-.151-.044-.292-.044-.377-.123s-.287-.285-.292-.432.165-.403.283-.418c.367-.049.357-.285.348-.56l-.061-3.136c0-.339 0-.639.438-.644s.47.28.47.629l.052 3.234a4.66 4.66 0 0 0 .033.61l2.67-.285c.075 0 .174-.281.174-.428v-3.092c0-.359.047-.678.471-.663s.438.329.438.663v2.989a3.38 3.38 0 0 0 .155.535c.038.172.118.413.042.492-.277.349-.183.737-.179 1.116l.038 2.157c0 .3-.089.531-.405.551s-.471-.182-.494-.492l-.057-2.152c-.014-.207-.009-.413-.009-.649zm-59.466 1.779l2.679-.162c.447-.03.649.123.621.491s-.207.438-.504.453l-2.434.152c-.235 0-.409 0-.471.324a.48.48 0 0 1-.162.187c-.069.047-.147.074-.229.079-.151 0-.292-.182-.438-.275s-.254-.217-.381-.212c-.626 0-1.252.059-1.883.099-.315 0-.593-.04-.612-.428s.179-.521.532-.531l2.015-.128c.132 0 .358-.177.367-.29l.471-5.662a.74.74 0 0 0-.052-.138l-2.434-.339c-.329-.044-.607-.132-.555-.555s.339-.428.673-.384l5.447.738c.471.064.73.378.514.683a.83.83 0 0 1-.288.196c-.108.043-.223.062-.339.055-.663-.05-1.323-.168-2.038-.266l-.499 5.913zm42.075-3.155h1.473l2.152.177c.325.029.546.181.471.565s-.297.393-.603.368l-3.041-.201c-.339-.025-.471.074-.471.457v1.185h3.131a3.67 3.67 0 0 1 .838 0c.164.039.414.27.405.393a.72.72 0 0 1-.124.289.66.66 0 0 1-.234.202 3.63 3.63 0 0 1-.942.049l-3.423.153c-.409 0-.588-.162-.597-.56l-.142-5.673c0-.58.076-.727.626-.702l4.595.24c.283 0 .537.133.518.492s-.263.491-.588.457l-3.936-.241h-.278l.17 2.35zm-26.285-4.753l1.356.147c.339.03.664.108.617.551s-.424.412-.763.393l-2.1-.059c-.296.032-.582.131-.838.29-.47.25-.527.693-.131 1.032a6.06 6.06 0 0 0 1.097.634 14.05 14.05 0 0 1 2 1.15c.445.318.779.775.956 1.306a2.74 2.74 0 0 1 .024 1.643 2.86 2.86 0 0 1-.956 1.338 2.67 2.67 0 0 1-1.507.555c-.672.064-1.35-.018-1.99-.241a4.85 4.85 0 0 1-1.729-1.057c-.245-.216-.377-.467-.127-.752s.471-.197.739.025c.42.42.928.734 1.483.916a3.63 3.63 0 0 0 1.719.131c.305-.064.596-.189.856-.369.173-.1.324-.238.442-.402s.204-.354.248-.555.048-.41.01-.613a1.52 1.52 0 0 0-.229-.563c-.334-.555-.828-.984-1.412-1.224l-1.337-.6c-.347-.174-.664-.405-.942-.683a1.47 1.47 0 0 1-.41-.61c-.085-.237-.11-.493-.072-.743s.135-.485.285-.683a1.43 1.43 0 0 1 .569-.451 12.95 12.95 0 0 1 2.137-.629l.005.123zm9.51 3.445l-.405 2.949c-.106.574-.339 1.115-.681 1.578s-.782.837-1.287 1.091c-.319.179-.671.287-1.032.316a2.52 2.52 0 0 1-1.067-.143c-.343-.124-.657-.321-.923-.578a2.77 2.77 0 0 1-.622-.917 9.93 9.93 0 0 1-.748-3.765c-.038-.747.042-1.504.07-2.251 0-.354.137-.634.528-.58s.423.324.386.658a13.61 13.61 0 0 0 .216 4.424c.087.399.22.785.396 1.15.092.225.229.428.401.594a1.65 1.65 0 0 0 .598.371c.222.079.458.107.691.084a1.61 1.61 0 0 0 .664-.218c1.111-.531 1.516-1.578 1.671-2.723l.127-2.787c-.026-.21-.017-.423.029-.629.084-.182.306-.408.47-.408s.382.27.405.447c.029.44.029.882 0 1.322l.113.015zm22.612 1.303c-.028-2.546 2.241-4.631 4.496-4.11a2.01 2.01 0 0 1 1.074.564c.296.297.499.679.583 1.098.043.27.052.545-.282.624-.064.021-.132.027-.198.018a.47.47 0 0 1-.188-.069.48.48 0 0 1-.143-.144c-.038-.058-.063-.124-.074-.193a1.23 1.23 0 0 0-.449-.778 1.13 1.13 0 0 0-.841-.235c-.435-.005-.866.089-1.263.275s-.75.459-1.036.802a3.17 3.17 0 0 0-.618 1.182 3.28 3.28 0 0 0-.087 1.344c.236 2.045 1.813 3.156 3.555 2.458.433-.216.823-.516 1.149-.885.235-.231.438-.388.73-.182s.216.492 0 .762c-.393.559-.933.986-1.554 1.23s-1.297.292-1.945.141c-1.351-.241-2.354-.983-2.683-2.457l-.226-1.445zm-11.854-3.028l-2.754-.226a.76.76 0 0 1-.304-.115.81.81 0 0 1-.233-.234.4.4 0 0 1-.053-.214.4.4 0 0 1 .065-.21c.041-.062.098-.111.164-.14a.36.36 0 0 1 .21-.026c2.072.182 4.171.128 6.201.708.164.049.386.078.47.196.128.199.193.435.184.674 0 .073-.358.211-.523.177l-2.542-.61.16 3.121.207 2.193c.038.319-.037.565-.381.604s-.471-.167-.513-.491l-.353-4.837c-.019-.172-.005-.349-.005-.57z" fill="#2c2a23"/></g><defs><linearGradient id="F" x1="250" y1=".931" x2="250" y2="450.931" gradientUnits="userSpaceOnUse"><stop stop-color="#d9d9d9"/><stop offset=".725" stop-color="#d9d9d9"/><stop offset=".807" stop-color="#d9d9d9" stop-opacity=".8"/><stop offset=".92" stop-color="#d9d9d9" stop-opacity=".3"/><stop offset="1" stop-color="#d9d9d9" stop-opacity="0"/></linearGradient></defs></svg>