<svg xmlns="http://www.w3.org/2000/svg" xmlns:xlink="http://www.w3.org/1999/xlink" width="291" height="303" fill="none"><style><![CDATA[.B{stroke-linejoin:round}.C{stroke-width:5}.D{stroke:#172a3a}.E{fill:#d9fde1}.F{fill:#09bc8a}.G{stroke-linecap:round}.H{opacity:.3}.I{stroke-width:4}.J{stroke:#263238}]]></style><path d="M64.4 111.941a224.64 224.64 0 0 0-29.62-12c-14.62-4.5-31.87-.38-32.25 4.49s2.22 2.64 5.63 7.92 1.87 17.62 6.75 28.87 19.49 16.87 19.49 16.87l30-46.15z" class="B C D E"/><path d="M54.65 122.821s-22.5-14.25-35.62-19.13-13.87 2.25-13.87 2.25c2.158.793 4.011 2.248 5.292 4.157a10.89 10.89 0 0 1 1.838 6.473c0 8.42 4.21 25.86 14.44 29.46s27.92-23.21 27.92-23.21z" class="F H"/><g class="E"><path d="M215.196 138.744c5.88-2.234 8.703-9.164 6.305-15.478s-9.11-9.622-14.991-7.388-8.703 9.163-6.305 15.477 9.11 9.622 14.991 7.389z" class="B C D"/><use xlink:href="#F"/></g><mask id="A" maskUnits="userSpaceOnUse" x="53" y="258" width="52" height="42"><path d="M53.981 258.171l12.62 37.86a5.15 5.15 0 0 0 4.89 3.52h19.67c1.006.002 1.991-.292 2.832-.845a5.14 5.14 0 0 0 1.898-2.265l8.799-20.42" fill="#fff"/></mask><g mask="url(#A)" class="F"><path d="M60.311 258.171l10.44 37.86a4.43 4.43 0 0 0 1.435 2.446c.734.636 1.656 1.014 2.625 1.074h16.31c.896-.046 1.755-.37 2.458-.928s1.214-1.32 1.462-2.182l7.301-20.42" class="H"/></g><use xlink:href="#F" class="B C D G"/><use xlink:href="#G" fill="#263238"/><use xlink:href="#G" class="B C G J"/><use xlink:href="#H" class="E"/><mask id="B" maskUnits="userSpaceOnUse" x="139" y="258" width="52" height="42"><path d="M190.69 258.171l-12.62 37.86c-.342 1.026-.998 1.918-1.876 2.55a5.15 5.15 0 0 1-3.014.97h-19.67c-1.006.002-1.99-.292-2.831-.845s-1.501-1.34-1.899-2.265l-8.8-20.42" fill="#fff"/></mask><g mask="url(#B)" class="F"><path d="M181.75 258.171l-8.63 37.86c-.48 2.1-1.82 3.52-3.34 3.52h-13.45c-1.4 0-2.67-1.22-3.23-3.11l-8.36-20" class="H"/></g><use xlink:href="#H" class="B C D G"/><use xlink:href="#I" class="E"/><path d="M197.75 117.951a90.09 90.09 0 0 1 9.65 40.56c0 54.18-48.43 98.1-108.169 98.1a115.36 115.36 0 0 1-62.75-18.18c18.86 25.31 50.79 42 87 42 58 0 105-42.61 105-95.18-.06-26.31-11.8-50.08-30.73-67.3z" class="F H"/><g class="B C"><use xlink:href="#I" class="D"/><g class="G"><path d="M222.32 193.781c-2.36 19.76-11.47 37.69-25.19 51.85m23.4-82.28a86.1 86.1 0 0 1 2.4 20.21" stroke="#d9fde1"/><path d="M96.43 93.001a118.84 118.84 0 0 1 27.19-3.12c5.86-.001 11.712.427 17.51 1.28" class="J"/></g></g><use xlink:href="#J" class="E"/><use xlink:href="#J" class="B C D G"/><g class="F"><path d="M121.88 157.271l2.15.32c9.22 1.33 12.46-4.69 12.19-13.73-.37-12.75-17.24-39.75-24.37-43.5s-9.37 1.5-9.37 1.5 1 .67-2.51 12.32c-1.62 5.38-7.65 24.14-1.68 32.46 5.28 7.35 15.09 9.36 23.59 10.63zm29.87-12.92h-.14c-.131-.017-.257-.06-.371-.126a.99.99 0 0 1-.294-.26c-.08-.105-.138-.224-.172-.352s-.041-.261-.023-.392a19.79 19.79 0 0 0 .19-2.32c.2-7-5.51-17.05-14.9-26.32a1 1 0 0 1-.22-.324 1.01 1.01 0 0 1-.079-.384c-.001-.131.024-.262.074-.384s.123-.234.215-.328.203-.168.325-.22a.99.99 0 0 1 .383-.079c.132-.001.263.024.385.074a1.02 1.02 0 0 1 .327.215c9.92 9.8 15.71 20.19 15.49 27.8-.021.85-.088 1.698-.2 2.54-.033.239-.152.457-.334.615a1 1 0 0 1-.656.245zm-5.38 12.06a.99.99 0 0 1-.906-.568 1 1 0 0 1-.091-.549c.022-.188.097-.366.217-.513 1.648-2.019 2.964-4.287 3.9-6.72a1 1 0 1 1 1.87.71c-1.011 2.633-2.435 5.087-4.22 7.27a1 1 0 0 1-.77.37zm-72.822 47.551c2.957-11.853-7.351-24.632-23.025-28.543s-30.777 2.528-33.735 14.381 7.351 24.632 23.025 28.543 30.778-2.528 33.735-14.381z" class="H"/></g><path d="M72.14 201.8c2.958-11.853-7.351-24.633-23.025-28.543s-30.777 2.527-33.735 14.38 7.351 24.633 23.025 28.544 30.778-2.528 33.735-14.381z" class="B C D E"/><path d="M34.93 191.151c.18 2.68-.85 4.94-2.29 5s-2.77-2-3-4.68.85-4.95 2.3-5 2.81 1.99 2.99 4.68zm19.82 4.97c.18 2.69-.85 4.94-2.29 5s-2.77-2-3-4.69.85-4.94 2.3-5 2.78 2 2.99 4.69z" class="F"/><path d="M87.46 203.071a23.29 23.29 0 0 1-1.34 5.63c-5.74 15.51-26.52 22.22-47.05 15.54m45.04-22.64h6.37" class="B C G J"/><path d="M43.53 160.081c-.7 2.91-2.49 5-4 4.62s-2.17-3-1.46-5.94 2.49-5 4-4.63 2.17 3.03 1.46 5.95zm18.452 4.021c.704-2.921.051-5.584-1.457-5.947s-3.302 1.709-4.006 4.63-.052 5.583 1.457 5.947 3.302-1.709 4.006-4.63z" fill="#172a3a"/><use xlink:href="#K" class="E"/><mask id="C" maskUnits="userSpaceOnUse" x="89" y="268" width="53" height="32"><path d="M89.51 270.351l11 26.1a5.17 5.17 0 0 0 1.9 2.291 5.16 5.16 0 0 0 2.85.859h20a5.16 5.16 0 0 0 2.826-.846c.84-.55 1.502-1.333 1.904-2.254l12-27.73h-.52" fill="#fff"/></mask><g mask="url(#C)" class="F"><path d="M112.75 267.021c-6.34 0-13.72.83-19.69-.55l10.28 29.93a4.32 4.32 0 0 0 1.459 2.205c.705.565 1.569.896 2.471.945h16.48a4.31 4.31 0 0 0 2.443-.929 4.32 4.32 0 0 0 1.457-2.171l9.95-30.53-4 .55c-12.69 1.38-12.36.55-20.85.55z" class="H"/></g><g class="D"><g class="B"><g class="G"><use xlink:href="#K" class="C"/><path d="M288.75-136.209l-55.31 79.69s-4.73 11.28-10.55 19.65-22.14 16.74-22.14 16.74-1.45 15.64-6.18 21.1-14.92 2.19-14.92 2.19-4.37 4.73-9.1 6.91-19.28-5.82-19.28-5.82 13.09 14.19 14.91 18.92 5.1 8.73-.72 13.1-12.38-1.82-12.38-1.82 2.92 9.46-5.45 11.28-17.49-16.38-21.13-22.56-14.19-29.48-16-30.57-4.36-6.91-.72-12.37 29.46-40.39 32.37-42.88 58.6-15.7 58.6-15.7l21.11-58.22" class="I"/></g><path d="M99.58 76.291l1.45 5.46 22.56-5.46 21.11-55.31-13.83-4.73-31.29 60.04z" fill="#fff" class="I"/><path d="M106.49 2.791l31.29 11.64-15.28 69.14-36.75-11.28 20.74-69.5z" class="F I"/><path d="M105.08 22.281a10.31 10.31 0 0 0-4.35-.2l-8.52 28.55a10.21 10.21 0 0 0 4.41 2.53c6.68 1.84 14-3.59 16.34-12.12s-1.21-16.93-7.88-18.76z" fill="#22d4a2" class="I"/></g><path d="M105.246 30.234l-.153-.235c.229.219.407.446.542.672.307.515.464 1.147.389 1.914l-.093-.022-.03-.43c-.079-.673-.302-1.321-.655-1.899zm-6.444 5.284l.01-.032 1.346.914.083.054 1.617 1.108c1.102.846 1.681 1.604 1.962 2.266.267.631.329 1.326.124 2.2-.273 1.134-.808 1.877-1.464 2.325l-.03.02c.724-.61 1.166-1.422 1.364-2.243l.002-.007c.283-1.194-.091-2.22-.63-2.983-.491-.694-1.174-1.255-1.754-1.693l-1.172-.847-1.458-1.082zm-.635 9.664l.032.007-.021.011-.011-.018z" fill="#263238" class="I"/></g><mask id="D" fill="#fff"><path d="M132.32-33.599s4.37 6.55 5.1 12.38a21.16 21.16 0 0 1-3.28 14.19c-2.18 3.27-4.36 6.18-6.18 11.28s-2.18 12.37-4.73 16-4 7.27-.37 10.55 13.1 2.91 18.2-6.55 8.37-19.65 11.64-23.29 13.83-12 13.83-12 28.74-4 34.2-9.09 10.19-18.92 10.19-18.92"/></mask><path d="M132.32-33.599s4.37 6.55 5.1 12.38a21.16 21.16 0 0 1-3.28 14.19c-2.18 3.27-4.36 6.18-6.18 11.28s-2.18 12.37-4.73 16-4 7.27-.37 10.55 13.1 2.91 18.2-6.55 8.37-19.65 11.64-23.29 13.83-12 13.83-12 28.74-4 34.2-9.09 10.19-18.92 10.19-18.92" class="E"/><path d="M137.42-21.219l3.969-.495v-.002l-3.969.497zm-3.28 14.19l3.328 2.219.011-.016.01-.016-3.349-2.187zm32.39-4.01L165.979-15l-1.078.15-.854.676 2.483 3.136zm-34.21-22.56l-3.328 2.219.026.04.114.178.448.729 1.439 2.628c1.116 2.231 2.152 4.844 2.432 7.084l7.938-.994c-.45-3.59-1.964-7.168-3.215-9.669a48.75 48.75 0 0 0-1.726-3.15l-.562-.915-.165-.258-.049-.075c-.006-.009-.012-.017-.016-.023-.008-.013-.009-.014-3.336 2.206zm1.131 12.875a17.16 17.16 0 0 1-2.66 11.508l6.698 4.374c3.256-4.985 4.638-10.964 3.9-16.872l-7.938.991zm-2.639 11.476c-2.108 3.162-4.601 6.499-6.619 12.154l7.534 2.689c1.622-4.545 3.489-7.027 5.741-10.406l-6.656-4.438zm-6.619 12.154c-1.024 2.868-1.652 6.391-2.232 9.041-.658 3.008-1.26 4.945-2.004 6.004l6.546 4.599c1.806-2.57 2.659-6.084 3.273-8.893.693-3.167 1.155-5.83 1.951-8.062l-7.534-2.689zm-4.236 15.045c-1.349 1.92-2.839 4.408-3.197 7.197-.407 3.174.709 6.173 3.418 8.62l5.364-5.936c-.532-.481-.717-.825-.787-1.006-.065-.167-.099-.36-.06-.661.097-.759.607-1.906 1.808-3.616l-6.546-4.599zm.221 15.817c6.017 5.437 18.385 3.543 24.403-7.62l-7.042-3.796c-4.182 7.757-10.754 6.603-11.997 5.48l-5.364 5.936zm24.403-7.62c2.641-4.899 4.812-9.996 6.639-14.098.93-2.089 1.76-3.897 2.542-5.389.803-1.533 1.436-2.496 1.914-3.027l-5.952-5.346c-1.157 1.289-2.159 2.965-3.048 4.661-.911 1.738-1.83 3.751-2.764 5.847-1.9 4.268-3.914 8.996-6.373 13.557l7.042 3.796zm11.095-22.515c1.407-1.567 4.63-4.381 7.729-6.967l3.937-3.23 1.224-.983.334-.266.085-.068.022-.017c.006-.005.006-.005-2.477-3.141l-2.483-3.136a.86.86 0 0 0-.033.026l-.093.073-.347.277-1.258 1.01-4.038 3.313c-2.999 2.503-6.691 5.689-8.554 7.763l5.952 5.346zm10.854-14.673l.552 3.962.025-.003.066-.009.252-.036.943-.139 3.383-.531a257.18 257.18 0 0 0 10.646-1.963c3.991-.83 8.243-1.839 11.888-2.987 1.821-.574 3.558-1.203 5.067-1.891 1.45-.661 2.955-1.493 4.106-2.566l-5.456-5.852c-.214.2-.802.606-1.968 1.138-1.109.505-2.513 1.023-4.153 1.54-3.279 1.033-7.237 1.979-11.113 2.785-3.86.803-7.564 1.452-10.308 1.9l-3.277.514-.9.132-.231.033-.057.008c-.017.002-.016.002.535 3.964zm36.928-6.164c3.373-3.145 6.195-8.554 8.055-12.636.974-2.139 1.767-4.105 2.316-5.534l.64-1.714.171-.481.046-.132c.005-.016.01-.028.013-.037.006-.017.006-.017-3.779-1.312l-3.785-1.295c-.002.008-.005.015-.008.026a5.4 5.4 0 0 0-.036.101l-.148.415-.581 1.559c-.508 1.322-1.239 3.132-2.13 5.087-1.87 4.105-4.143 8.156-6.23 10.101l5.456 5.852z" fill="#172a3a" mask="url(#D)"/><path d="M153.07 34.451l-8.37-16.01m34.93-15.28s6.55-5.46 6.18-17.47" class="B D G I"/><defs ><path id="F" d="M53.981 258.171l12.62 37.86a5.15 5.15 0 0 0 4.89 3.52h19.67c1.006.002 1.991-.292 2.832-.845a5.14 5.14 0 0 0 1.898-2.265l8.799-20.42"/><path id="G" d="M148.9 258.171l-12.61 37.86c-.343 1.026-.999 1.918-1.877 2.55s-1.932.971-3.013.97h-19.65c-1.007.002-1.991-.292-2.832-.845s-1.501-1.34-1.898-2.265l-8.8-20.42"/><path id="H" d="M190.69 258.171l-12.62 37.86c-.342 1.026-.998 1.918-1.876 2.55a5.15 5.15 0 0 1-3.014.97h-19.67c-1.006.002-1.99-.292-2.831-.845s-1.501-1.34-1.899-2.265l-8.8-20.42"/><path id="I" d="M123.25 283.081c59.741 0 108.17-43.921 108.17-98.1s-48.429-98.1-108.17-98.1-108.17 43.921-108.17 98.1 48.429 98.1 108.17 98.1z"/><path id="J" d="M144.47 161.481s10.5-7.13 10.88-20.25-16.88-32.24-30.75-40.12-24-6.37-24.37-.75-5.25 12-7.12 22.87-2.63 27 12 32.25"/><path id="K" d="M89.51 270.351l11 26.1a5.17 5.17 0 0 0 1.9 2.291 5.16 5.16 0 0 0 2.85.859h20a5.16 5.16 0 0 0 2.826-.846c.84-.55 1.502-1.333 1.904-2.254l12-27.73h-.52"/></defs></svg>