<svg xmlns="http://www.w3.org/2000/svg" xmlns:xlink="http://www.w3.org/1999/xlink" width="141" height="115" fill="none"><path fill-rule="evenodd" d="M57.828 35.336a1.08 1.08 0 0 1 .581-.013l10.948 2.803c.057.014.112.034.166.057l52.635 23.067a1.09 1.09 0 0 1 .56 1.434c-.239.551-.879.803-1.428.562L68.736 40.215l-10.571-2.706-5.393 1.632 37.277 11.874a1.09 1.09 0 0 1 .706 1.367c-.181.573-.791.891-1.362.709l-40.62-12.939a1.09 1.09 0 0 1 .015-2.081l9.04-2.735z" fill="#172a3a"/><path d="M96.589 54.825l-40.059-9.166V32.962c0-2.25 1.825-4.076 4.073-4.076h31.905c2.249 0 4.073 1.826 4.073 4.076v21.862h.008z" fill="#b2c4d3"/><path d="M12.772 34.045c0-.661.534-1.197 1.192-1.197h16.838c.658 0 1.192.536 1.192 1.197s-.534 1.197-1.192 1.197H13.964c-.658 0-1.192-.536-1.192-1.197zM7.419 45.697c0-.661.534-1.197 1.192-1.197h8.419c.658 0 1.192.536 1.192 1.197s-.534 1.197-1.192 1.197H8.611c-.658 0-1.192-.536-1.192-1.197z" fill-rule="evenodd" fill="#dee7f3"/><g filter="url(#A)"><path d="M39.827 62.885l.909 9.121 68.277-8.977" fill="#e84f35"/></g><path d="M9.743 61.385c0-.661.534-1.197 1.192-1.197h16.838c.658 0 1.192.536 1.192 1.197s-.534 1.197-1.192 1.197H10.935c-.658 0-1.192-.536-1.192-1.197zm85.971 19.097c0-.661.534-1.197 1.192-1.197h16.838c.659 0 1.192.536 1.192 1.197s-.533 1.197-1.192 1.197H96.906c-.658 0-1.192-.536-1.192-1.197zm14.878-38.27c0-.661.534-1.197 1.192-1.197h16.838c.659 0 1.192.536 1.192 1.197s-.533 1.197-1.192 1.197h-16.838c-.658 0-1.192-.536-1.192-1.197z" fill-rule="evenodd" fill="#dee7f3"/><path d="M42.787 23.985a1.59 1.59 0 1 0 0-3.182 1.59 1.59 0 1 0 0 3.182z" fill="#dee7f3"/><path d="M62.457 11.797a1.591 1.591 0 1 0 0-3.182 1.591 1.591 0 1 0 0 3.182zM43.204 88.778c1.108 0 2.006-.899 2.006-2.007a2.01 2.01 0 0 0-2.006-2.008c-1.108 0-2.006.899-2.006 2.008s.898 2.007 2.006 2.007zm60.123-65.967c1.108 0 2.006-.899 2.006-2.007a2.01 2.01 0 0 0-2.006-2.008 2.01 2.01 0 0 0-2.007 2.008 2.01 2.01 0 0 0 2.007 2.007zm-14.09 50.353a1 1 0 1 0 0-2 1 1 0 1 0 0 2z" fill="#e84f35"/><g fill-rule="evenodd"><g fill="#fff"><use xlink:href="#B"/><use xlink:href="#B" y="6.06"/></g><path d="M42.082 40.812a1.08 1.08 0 0 1 .58-.012l79.332 20.393a1.09 1.09 0 0 1 .807 1.191c-.069.544-.53.953-1.076.953H35.852c-.285 0-.558-.112-.761-.313L20.796 48.896a1.09 1.09 0 0 1-.292-1.038c.092-.373.374-.67.741-.781l20.836-6.265zm.334 2.173l-18.791 5.65 12.672 12.524h76.82l-70.7-18.174z" fill="#172a3a"/></g><defs><filter id="A" x="10.518" y="46.765" width="127.804" height="67.739" filterUnits="userSpaceOnUse" color-interpolation-filters="sRGB"><feFlood flood-opacity="0" result="A"/><feColorMatrix in="SourceAlpha" values="0 0 0 0 0 0 0 0 0 0 0 0 0 0 0 0 0 0 127 0"/><feOffset dy="13.1892"/><feGaussianBlur stdDeviation="14.655"/><feColorMatrix values="0 0 0 0 0.933333 0 0 0 0 0.0855556 0 0 0 0 0.0855556 0 0 0 0.1 0"/><feBlend in2="A"/><feBlend in="SourceGraphic"/></filter><path id="B" d="M61.738 37.197c0-.441.356-.798.795-.798h27.37c.439 0 .795.357.795.798s-.356.798-.795.798h-27.37c-.439 0-.795-.357-.795-.798z"/></defs></svg>