<svg xmlns="http://www.w3.org/2000/svg" width="39" height="38" fill="none"><g stroke="#3b566e" stroke-width=".75"><path d="M16.452 31.126l-2.407.993V5.695h15.63v26.425l-2.407-.993-.143-.059-.143.059-2.764 1.141-2.186-1.127-.154-.08-.161.066-2.764 1.141-2.186-1.127-.154-.08-.161.066z"/><path d="M16.01 9.88h11.775M16.01 12.294h11.775" stroke-linecap="round"/></g><g clip-path="url(#A)"><path d="M24.053 14.97H7.087c-.426.001-.835.183-1.136.507s-.471.764-.471 1.223v10.221a1.8 1.8 0 0 0 .471 1.224 1.55 1.55 0 0 0 1.136.507h16.966c.211 0 .42-.044.616-.131s.372-.214.522-.375.268-.352.349-.562.122-.435.122-.663V16.701c-.001-.459-.171-.899-.472-1.223s-.71-.507-1.136-.507z" fill="#e84f35"/><g fill="#ff6a51"><path opacity=".81" d="M9.386 19.183a.58.58 0 0 1 .394.152c.11.1.184.238.208.391l1.309.011v-.81c-.002-.182-.071-.355-.192-.483s-.283-.198-.452-.196l-2.649-.019c-.084-.002-.167.014-.245.046a.63.63 0 0 0-.21.144.69.69 0 0 0-.142.22.73.73 0 0 0-.053.261v.268l2.033.013z"/><path opacity=".81" d="M9.987 19.925c-.025.153-.1.29-.211.389a.58.58 0 0 1-.395.149l-2.027-.013v-.19l2.029.013a.4.4 0 0 0 .292-.13c.078-.083.121-.197.121-.315s-.044-.231-.121-.315a.4.4 0 0 0-.292-.13l-2.029-.013v1.261c.002.182.071.355.192.483s.283.198.452.196l2.649.019c.084.002.167-.014.245-.046a.63.63 0 0 0 .21-.144.69.69 0 0 0 .142-.22.73.73 0 0 0 .053-.261v-.717l-1.31-.015z"/></g><g fill="#fff"><path d="M8.288 24.963h.74v-.842h-.966V22.6h1.127c.021 0 .041.004.061.013s.036.022.051.038.027.034.036.055.012.043.012.065a.18.18 0 0 1-.011.066c-.008.021-.02.04-.035.056s-.032.029-.052.037-.04.013-.061.012h-.804v.842h.643c.084.001.165.038.225.102a.36.36 0 0 1 .095.242v.842c0 .091-.034.179-.094.243a.31.31 0 0 1-.226.101h-.74a.5.5 0 0 1-.21-.051l-.242-.108a.16.16 0 0 1-.074-.065c-.018-.03-.026-.064-.024-.099a.19.19 0 0 1 .044-.122.14.14 0 0 1 .048-.037c.018-.008.038-.013.058-.012.039.002.077.012.111.03l.21.095c.024.013.051.019.078.017zm2.811.173v-.717h-.963v-1.652a.19.19 0 0 1 .012-.067.15.15 0 0 1 .036-.056c.016-.015.033-.03.053-.039s.041-.014.062-.014.042.005.062.014.037.023.051.039a.17.17 0 0 1 .036.056.18.18 0 0 1 .012.067v1.308h.639v-1.008A.18.18 0 0 1 11.11 23c.008-.021.02-.041.035-.057s.032-.029.052-.038.04-.014.061-.014.042.005.061.014.037.022.052.038.027.035.035.057a.18.18 0 0 1 .011.067v1.008a.15.15 0 0 1 .061.012.16.16 0 0 1 .052.037c.015.016.027.035.035.056s.012.043.012.066-.004.045-.012.066a.16.16 0 0 1-.036.055c-.015.015-.032.03-.051.039a.14.14 0 0 1-.062.013v.721c0 .023-.004.045-.012.066s-.02.04-.034.056c-.03.032-.071.049-.113.049a.15.15 0 0 1-.061-.013.16.16 0 0 1-.087-.094c-.007-.021-.011-.045-.01-.068zm1.456-.172h.491v-2.029h-.484c-.021.001-.042-.003-.061-.012a.17.17 0 0 1-.052-.037c-.015-.016-.027-.035-.034-.056s-.012-.043-.011-.066.004-.045.012-.066.019-.04.034-.056.032-.029.052-.038.04-.013.061-.012h.804v2.371h.32v-.715c0-.023.003-.045.011-.066s.02-.04.035-.056a.17.17 0 0 1 .051-.038c.019-.009.04-.013.062-.013s.042.004.061.013a.16.16 0 0 1 .052.037c.015.016.027.035.035.057s.012.044.011.067v.888c.001.023-.003.045-.011.066s-.02.04-.035.056a.16.16 0 0 1-.052.037c-.019.008-.04.013-.061.013h-1.289a.15.15 0 0 1-.062-.013c-.02-.009-.037-.022-.052-.038-.03-.033-.046-.078-.046-.124 0-.022.004-.044.011-.065s.02-.039.034-.055a.16.16 0 0 1 .052-.037.15.15 0 0 1 .061-.013zm2.366-2.372h.161c.042 0 .083.018.112.05s.046.076.046.121c0 .023-.004.045-.011.066s-.02.04-.034.056-.032.029-.052.037-.04.013-.061.012v1.141h1.125c.021 0 .042.004.061.013s.037.022.052.038a.17.17 0 0 1 .035.058c.008.022.012.045.011.068v.888c0 .023-.004.045-.012.066s-.02.04-.036.055c-.031.032-.072.05-.115.049h-1.282c-.021 0-.043-.005-.062-.013a.16.16 0 0 1-.053-.038c-.015-.015-.027-.034-.035-.055s-.012-.043-.012-.065v-2.373c0-.023.004-.045.012-.066s.02-.04.036-.056a.2.2 0 0 1 .052-.04c.02-.01.041-.014.063-.014zm.157 1.827v.544h.964v-.544h-.964z"/></g><path d="M17.746 21.816v4.254" stroke="#fff" stroke-width=".354" stroke-miterlimit="10" stroke-linecap="round"/></g><defs><clipPath id="A"><path fill="#fff" transform="translate(5.479 14.976)" d="M0 0h20.183v13.68H0z"/></clipPath></defs></svg>