<svg xmlns="http://www.w3.org/2000/svg" xmlns:xlink="http://www.w3.org/1999/xlink" width="101" height="102" fill="none"><style><![CDATA[.B{color-interpolation-filters:sRGB}.C{flood-opacity:0}]]></style><use xlink:href="#U" fill="url(#F)"/><use xlink:href="#U" fill="url(#G)"/><use xlink:href="#V" fill="url(#H)"/><use xlink:href="#V" fill="url(#I)"/><use xlink:href="#W" fill="url(#J)"/><use xlink:href="#W" fill="url(#K)"/><use xlink:href="#W" fill="url(#L)"/><use xlink:href="#W" fill="url(#M)"/><g filter="url(#A)"><use xlink:href="#X" fill="url(#N)"/></g><use xlink:href="#X" fill="url(#O)"/><use xlink:href="#X" fill="url(#P)"/><g filter="url(#B)"><use xlink:href="#Y" fill="url(#Q)"/><use xlink:href="#Y" fill="url(#R)"/><use xlink:href="#Y" fill="url(#S)"/><use xlink:href="#Y" fill="url(#T)"/></g><g filter="url(#C)"><use xlink:href="#Z" fill="#d0a5a5"/></g><g filter="url(#D)"><use xlink:href="#Z" x="1.97" y="-1.49" fill="#e84f35"/></g><g filter="url(#E)"><path d="M50.352 36.991c-3.819-.063-7.449 1.389-10.163 4.103-2.746 2.683-4.229 6.281-4.229 10.1 0 7.828 6.376 14.203 14.203 14.203.393 0 .771-.156 1.049-.434s.434-.656.434-1.049-.156-.771-.434-1.049-.656-.434-1.049-.434c-6.186 0-11.236-5.05-11.236-11.236 0-3.03 1.199-5.871 3.346-7.985s5.018-3.251 8.048-3.251c6.092.095 11.078 5.208 11.078 11.426v2.557c0 .561-.223 1.099-.619 1.495s-.934.619-1.495.619-1.099-.223-1.495-.619-.619-.934-.619-1.495v-9.721c0-.393-.156-.771-.434-1.049s-.655-.434-1.049-.434c-.821 0-1.547.663-1.547 1.483v.284c-1.389-1.105-3.125-1.799-5.05-1.799a8.03 8.03 0 0 0-8.017 8.017 8.03 8.03 0 0 0 8.017 8.017c2.209 0 4.229-.915 5.681-2.367.884 1.578 2.557 2.651 4.482 2.651 2.809 0 5.113-2.304 5.113-5.113v-2.557c0-7.796-6.281-14.266-14.014-14.361zm-1.231 18.811c-2.778 0-5.05-2.273-5.05-5.05s2.273-5.05 5.05-5.05 5.05 2.273 5.05 5.05-2.273 5.05-5.05 5.05z" fill="#e6e0ed"/></g><defs><filter id="A" x="6.606" y="47.863" width="87.788" height="34.796" filterUnits="userSpaceOnUse" class="B"><feFlood class="C"/><feBlend in="SourceGraphic" result="B"/><feColorMatrix in="SourceAlpha" values="0 0 0 0 0 0 0 0 0 0 0 0 0 0 0 0 0 0 127 0" result="C"/><feOffset dy="-0.75"/><feGaussianBlur stdDeviation=".75"/><feComposite in2="C" operator="arithmetic" k2="-1" k3="1"/><feColorMatrix values="0 0 0 0 0.933333 0 0 0 0 0.654902 0 0 0 0 0.654902 0 0 0 1 0"/><feBlend in2="B"/></filter><filter id="B" x="6.606" y="19.579" width="87.788" height="34.446" filterUnits="userSpaceOnUse" class="B"><feFlood class="C"/><feBlend in="SourceGraphic" result="B"/><feColorMatrix in="SourceAlpha" values="0 0 0 0 0 0 0 0 0 0 0 0 0 0 0 0 0 0 127 0" result="C"/><feOffset dy="-0.15"/><feGaussianBlur stdDeviation=".225"/><feComposite in2="C" operator="arithmetic" k2="-1" k3="1"/><feColorMatrix values="0 0 0 0 0.913725 0 0 0 0 0.686275 0 0 0 0 0.686275 0 0 0 1 0"/><feBlend in2="B" result="D"/><feColorMatrix in="SourceAlpha" values="0 0 0 0 0 0 0 0 0 0 0 0 0 0 0 0 0 0 127 0" result="C"/><feOffset dy="0.25"/><feGaussianBlur stdDeviation=".3"/><feComposite in2="C" operator="arithmetic" k2="-1" k3="1"/><feColorMatrix values="0 0 0 0 0.870588 0 0 0 0 0.858824 0 0 0 0 0.854902 0 0 0 1 0"/><feBlend in2="D"/></filter><filter id="C" x="24.789" y="29.09" width="47.188" height="47.188" filterUnits="userSpaceOnUse" class="B"><feFlood class="C"/><feBlend in="SourceGraphic"/><feGaussianBlur stdDeviation=".75"/></filter><filter id="D" x="28.108" y="28.851" width="44.588" height="44.688" filterUnits="userSpaceOnUse" class="B"><feFlood class="C"/><feBlend in="SourceGraphic" result="B"/><feColorMatrix in="SourceAlpha" values="0 0 0 0 0 0 0 0 0 0 0 0 0 0 0 0 0 0 127 0" result="C"/><feOffset dx="0.25"/><feGaussianBlur stdDeviation=".125"/><feComposite in2="C" operator="arithmetic" k2="-1" k3="1"/><feColorMatrix values="0 0 0 0 0.6625 0 0 0 0 0.174091 0 0 0 0 0.0910937 0 0 0 1 0"/><feBlend in2="B" result="D"/><feColorMatrix in="SourceAlpha" values="0 0 0 0 0 0 0 0 0 0 0 0 0 0 0 0 0 0 127 0" result="C"/><feOffset dy="-0.25"/><feGaussianBlur stdDeviation=".125"/><feComposite in2="C" operator="arithmetic" k2="-1" k3="1"/><feColorMatrix values="0 0 0 0 0.683333 0 0 0 0 0.176528 0 0 0 0 0.176528 0 0 0 1 0"/><feBlend in2="D" result="E"/><feColorMatrix in="SourceAlpha" values="0 0 0 0 0 0 0 0 0 0 0 0 0 0 0 0 0 0 127 0" result="C"/><feOffset dx="-0.15" dy="0.25"/><feGaussianBlur stdDeviation=".125"/><feComposite in2="C" operator="arithmetic" k2="-1" k3="1"/><feColorMatrix values="0 0 0 0 0.970833 0 0 0 0 0.558229 0 0 0 0 0.558229 0 0 0 1 0"/><feBlend in2="E"/></filter><filter id="E" x="35.559" y="36.739" width="28.906" height="29.058" filterUnits="userSpaceOnUse" class="B"><feFlood result="A" class="C"/><feColorMatrix in="SourceAlpha" values="0 0 0 0 0 0 0 0 0 0 0 0 0 0 0 0 0 0 127 0" result="B"/><feOffset dx="-0.15" dy="0.15"/><feGaussianBlur stdDeviation=".125"/><feComposite in2="B" operator="out"/><feColorMatrix values="0 0 0 0 0.5 0 0 0 0 0.113582 0 0 0 0 0.0479167 0 0 0 1 0"/><feBlend in2="A"/><feBlend in="SourceGraphic" result="D"/><feColorMatrix in="SourceAlpha" values="0 0 0 0 0 0 0 0 0 0 0 0 0 0 0 0 0 0 127 0" result="B"/><feOffset dy="-0.25"/><feGaussianBlur stdDeviation=".2"/><feComposite in2="B" operator="arithmetic" k2="-1" k3="1"/><feColorMatrix values="0 0 0 0 0.85 0 0 0 0 0.364792 0 0 0 0 0.364792 0 0 0 1 0"/><feBlend in2="D" result="E"/><feColorMatrix in="SourceAlpha" values="0 0 0 0 0 0 0 0 0 0 0 0 0 0 0 0 0 0 127 0" result="B"/><feOffset dx="-0.15" dy="0.15"/><feGaussianBlur stdDeviation=".15"/><feComposite in2="B" operator="arithmetic" k2="-1" k3="1"/><feColorMatrix values="0 0 0 0 0.952941 0 0 0 0 0.890196 0 0 0 0 0.893961 0 0 0 1 0"/><feBlend in2="E"/></filter><linearGradient id="F" x1="12.922" y1="54.843" x2="94.391" y2="54.253" xlink:href="#a"><stop stop-color="#e6d0d0"/><stop offset="1" stop-color="#f8e5e5"/></linearGradient><linearGradient id="G" x1="6.609" y1="54.65" x2="16.198" y2="54.65" xlink:href="#a"><stop stop-color="#d6babd"/><stop offset="1" stop-color="#dcc9dd" stop-opacity="0"/></linearGradient><linearGradient id="H" x1="34.204" y1="60.578" x2="31.799" y2="56.831" xlink:href="#a"><stop offset=".114" stop-color="#dfc3c3"/><stop offset="1" stop-color="#dfc3c3" stop-opacity="0"/></linearGradient><radialGradient id="I" cx="0" cy="0" r="1" gradientTransform="matrix(-4.771250850073658,7.1568945504158,-50.26336572253803,-33.508824915869376,38.2625,42.925)" xlink:href="#a"><stop offset=".342" stop-color="#d7a6a6"/><stop offset="1" stop-color="#dbb" stop-opacity="0"/></radialGradient><linearGradient id="J" x1="66.578" y1="61.55" x2="69.198" y2="56.831" xlink:href="#a"><stop offset=".114" stop-color="#feefef"/><stop offset="1" stop-color="#f3eafd" stop-opacity="0"/></linearGradient><linearGradient id="K" x1="63.617" y1="44.686" x2="66.973" y2="49.222" xlink:href="#a"><stop stop-color="#f7cdcd"/><stop offset="1" stop-color="#e9d9f8" stop-opacity="0"/></linearGradient><linearGradient id="L" x1="94.984" y1="62.44" x2="83.246" y2="62.44" xlink:href="#a"><stop stop-color="#f7f3fb"/><stop offset="1" stop-color="#f0e9f8" stop-opacity="0"/></linearGradient><linearGradient id="M" x1="94.984" y1="62.44" x2="91.115" y2="62.44" xlink:href="#a"><stop offset=".199" stop-color="#ebe9ed"/><stop offset="1" stop-color="#ebe9ed" stop-opacity="0"/></linearGradient><linearGradient id="N" x1="50.5" y1="88.182" x2="50.5" y2="54.054" xlink:href="#a"><stop stop-color="#f1c5c5"/><stop offset="1" stop-color="#f1dadb"/></linearGradient><linearGradient id="O" x1="23.628" y1="64.154" x2="25.067" y2="66.316" xlink:href="#a"><stop offset=".073" stop-color="#ddc2c8"/><stop offset="1" stop-color="#dfcdda" stop-opacity="0"/></linearGradient><linearGradient id="P" x1="71.271" y1="61.165" x2="70.366" y2="62.576" xlink:href="#a"><stop offset=".14" stop-color="#f8f3fd"/><stop offset="1" stop-color="#f9eaea" stop-opacity="0"/></linearGradient><linearGradient id="Q" x1="50.5" y1="19.729" x2="50.5" y2="53.779" xlink:href="#a"><stop stop-color="#e9e4e9"/><stop offset="1" stop-color="#e7dcf0"/></linearGradient><linearGradient id="R" x1="30.963" y1="41.34" x2="42.37" y2="20.872" xlink:href="#a"><stop stop-color="#e1d5e7"/><stop offset="1" stop-color="#e1d5e7" stop-opacity="0"/></linearGradient><linearGradient id="S" x1="6.609" y1="24.899" x2="15.863" y2="24.899" xlink:href="#a"><stop stop-color="#e1c1bc"/><stop offset="1" stop-color="#e9d1cd" stop-opacity="0"/></linearGradient><radialGradient id="T" cx="0" cy="0" r="1" gradientTransform="matrix(-14.428508101091913,-12.885629244112412,57.09641714985464,-63.932936590303626,86.6619,32.6159)" xlink:href="#a"><stop stop-color="#fbf9fe"/><stop offset="1" stop-color="#f0ecf1" stop-opacity="0"/></radialGradient><path id="U" d="M88.871 19.729H12.133c-3.051 0-5.523 2.473-5.523 5.524v51.882c0 3.05 2.473 5.523 5.523 5.523h76.738c3.05 0 5.523-2.473 5.523-5.523V25.253c0-3.05-2.473-5.524-5.523-5.524z"/><path id="V" d="M50.5 19.73v62.933H12.133c-1.465 0-2.87-.582-3.906-1.618s-1.618-2.441-1.618-3.906V25.25c0-3.049 2.471-5.523 5.523-5.523l38.367.003z"/><path id="W" d="M50.5 19.73v62.933h38.367c1.465 0 2.87-.582 3.906-1.618s1.618-2.441 1.618-3.906V25.25c0-1.465-.582-2.87-1.618-3.906s-2.441-1.618-3.906-1.618L50.5 19.73z"/><path id="X" d="M6.609 77.135a2.4 2.4 0 0 1 1.13-2.039l42.067-26.292a1.26 1.26 0 0 1 1.338 0l42.209 26.453c.647.404 1.041 1.114 1.041 1.878 0 1.465-.582 2.87-1.618 3.906s-2.441 1.618-3.906 1.618H12.13c-1.465 0-2.87-.582-3.906-1.618S6.606 78.6 6.606 77.135h.003z"/><path id="Y" d="M6.609 25.253a2.4 2.4 0 0 0 1.13 2.039l42.067 26.292a1.26 1.26 0 0 0 1.338 0l42.209-26.453c.319-.199.581-.476.763-.804s.278-.698.278-1.074c0-1.465-.582-2.87-1.618-3.906s-2.441-1.618-3.906-1.618H12.13c-1.465 0-2.87.582-3.906 1.618s-1.618 2.441-1.618 3.906h.003z"/><path id="Z" d="M48.382 74.778c5.86 0 11.479-2.328 15.623-6.471s6.471-9.763 6.471-15.623-2.328-11.479-6.471-15.623-9.763-6.471-15.623-6.471-11.479 2.328-15.623 6.471-6.471 9.763-6.471 15.623 2.328 11.479 6.471 15.623 9.763 6.471 15.623 6.471z"/><linearGradient id="a" gradientUnits="userSpaceOnUse"/></defs></svg>