<svg xmlns="http://www.w3.org/2000/svg" width="167" height="267" fill="none" xmlns:v="https://vecta.io/nano"><style><![CDATA[.B{fill-rule:evenodd}.C{fill:#000}.D{fill:#cb8a18}.E{fill:#ffce00}]]></style><g filter="url(#A)"><path d="M149.564 202.829s9.21 15.477 8.578 26.754-4.275 15.079-4.275 15.079 7.833 11.293 4.275 15.471-29.122-5.851-23.031-16.308-.256-28.866-5.032-33.465" fill="#fff"/><path d="M148.781 201.513a1.53 1.53 0 0 1 2.099.533l-1.252.745 1.252-.745.001.001.002.003.006.011.022.037.081.14.301.527 1.056 1.947 3.152 6.671c2.24 5.316 4.507 12.278 4.17 18.285-.325 5.795-1.427 9.738-2.491 12.275-.526 1.255-1.041 2.162-1.444 2.774l.61.983c.698 1.156 1.598 2.754 2.388 4.5.783 1.73 1.494 3.685 1.757 5.538.259 1.819.126 3.851-1.183 5.388-.826.97-2.099 1.339-3.271 1.458-1.222.126-2.644.014-4.128-.26-2.977-.548-6.467-1.796-9.63-3.51-3.143-1.704-6.116-3.95-7.905-6.581-1.84-2.703-2.477-5.932-.586-9.179 2.757-4.734 2.779-11.483 1.386-17.83-.688-3.136-1.703-6.09-2.827-8.523-1.139-2.465-2.336-4.281-3.33-5.238a1.53 1.53 0 1 1 2.124-2.206c1.394 1.342 2.782 3.553 3.986 6.159 1.219 2.639 2.304 5.804 3.039 9.152 1.452 6.621 1.602 14.305-1.732 20.028-1.154 1.982-.88 3.928.472 5.915 1.402 2.061 3.9 4.021 6.832 5.61 2.912 1.578 6.099 2.708 8.726 3.191 1.317.243 2.428.311 3.261.226.884-.091 1.188-.323 1.251-.397.47-.552.693-1.499.483-2.972-.204-1.44-.785-3.092-1.515-4.707-.724-1.6-1.56-3.087-2.219-4.179a43.33 43.33 0 0 0-.81-1.29l-.23-.347-.059-.087-.014-.02-.003-.004c-.412-.595-.352-1.395.141-1.921a2.03 2.03 0 0 0 .08-.095c.072-.089.189-.244.338-.471.299-.453.73-1.197 1.188-2.289.915-2.184 1.95-5.78 2.257-11.262.296-5.269-1.727-11.684-3.934-16.925a85.27 85.27 0 0 0-3.042-6.437l-1.013-1.868-.282-.494-.072-.124-.017-.03-.005-.007a1.53 1.53 0 0 1 .533-2.099zm3.978 42.092h0z" class="B C"/><path d="M82.753 222.849c3.415 23.008 24.767 24.682 24.767 24.682s1.509 19.49 12.672 11.766c7.855-5.436 8.111-20.276 3.631-23.908s-18.824-5.949-19.223-18.409" fill="#fff"/><path d="M104.551 215.449l.865 9.342c1.048 1.627 2.371 2.99 3.814 4.151l-4.679-13.493z" class="C"/><path d="M106.131 216.931a1.53 1.53 0 0 0-1.58-1.482c-.845.028-1.508.735-1.481 1.58.1 3.119.993 5.661 2.346 7.762l-.865-9.342 4.679 13.493c.851.684 1.744 1.299 2.647 1.856 2.076 1.282 4.264 2.3 6.157 3.181l.305.142c2.039.949 3.578 1.694 4.52 2.457.748.607 1.457 1.84 1.904 3.676.436 1.796.575 3.985.347 6.259-.463 4.608-2.376 9.162-5.79 11.525-2.532 1.752-4.152 1.732-5.209 1.274-1.185-.513-2.213-1.796-3.047-3.634-.813-1.793-1.323-3.852-1.628-5.501a33.34 33.34 0 0 1-.309-2.009l-.063-.569-.013-.146-.003-.034-.001-.006-1.527.118-.143-1.555a16.24 16.24 0 0 1-.548-.076 25.46 25.46 0 0 1-2.325-.475c-1.955-.492-4.594-1.375-7.327-2.937-5.423-3.098-11.281-8.894-12.91-19.864a1.53 1.53 0 1 0-3.029.45c1.787 12.038 8.312 18.583 14.419 22.073 3.032 1.733 5.945 2.706 8.1 3.248.953.239 1.762.395 2.374.495.066.502.161 1.133.293 1.844.326 1.763.891 4.095 1.851 6.209.938 2.069 2.38 4.21 4.618 5.179 2.365 1.024 5.12.544 8.169-1.566 4.441-3.074 6.584-8.658 7.094-13.737.257-2.569.111-5.11-.419-7.289-.52-2.137-1.458-4.121-2.95-5.331-1.299-1.052-3.233-1.959-5.156-2.854l-.266-.124c-1.924-.896-3.962-1.844-5.88-3.029-3.982-2.458-7.179-5.759-7.355-11.261z" class="B C"/><path d="M107.605 246.001l-.152-.016-.076-.009.143 1.555 1.527-.118v-.001a1.53 1.53 0 0 0-1.405-1.408h-.001-.001-.003c-.006-.001-.017-.002-.032-.003z" class="C"/><path d="M108.199 45.659L36.485 67.351a15.36 15.36 0 0 0-10.254 19.147l39.403 130.263c2.456 8.119 11.028 12.709 19.147 10.254l71.713-21.693a15.36 15.36 0 0 0 10.253-19.147L127.345 55.912a15.36 15.36 0 0 0-19.146-10.253z" fill="#fff"/><path d="M36.929 68.817a13.83 13.83 0 0 0-9.231 17.238l39.403 130.263a13.83 13.83 0 0 0 17.238 9.231l71.714-21.693a13.83 13.83 0 0 0 9.231-17.237L125.88 56.356a13.83 13.83 0 0 0-17.238-9.231L36.929 68.817zM24.766 86.941c-2.701-8.928 2.348-18.355 11.276-21.056l71.713-21.693c8.928-2.701 18.355 2.348 21.056 11.276l39.403 130.263c2.701 8.928-2.348 18.355-11.276 21.056L85.225 228.48c-8.928 2.701-18.355-2.348-21.056-11.276L24.766 86.941z" class="B C"/><path d="M116.519 170.873l-16.683 5.047c-2.868.867-4.489 3.895-3.622 6.763l6.271 20.732c.868 2.867 3.895 4.489 6.763 3.621l16.684-5.046c2.867-.868 4.489-3.895 3.621-6.763l-6.271-20.732c-.867-2.867-3.895-4.489-6.763-3.622z" fill="#edaf32"/><path d="M108.717 184.206c-1.191.36-1.865 1.618-1.505 2.81l2.034 6.723c.361 1.192 1.619 1.866 2.811 1.505l5.001-1.513c1.192-.36 1.866-1.618 1.505-2.81l-2.034-6.723c-.36-1.192-1.618-1.866-2.81-1.505l-5.002 1.513zm-2.812 3.206a3.62 3.62 0 0 1 2.417-4.514l5.002-1.513a3.62 3.62 0 0 1 4.513 2.417l2.034 6.724a3.62 3.62 0 0 1-2.417 4.513l-5.002 1.513a3.62 3.62 0 0 1-4.513-2.417l-2.034-6.723z" class="B D"/><path d="M113.248 170.998c.362-.109.743.095.852.456l2.032 6.722a3.63 3.63 0 0 1 .139 1.405c-.046.474-.186.933-.41 1.352s-.529.79-.897 1.092a3.63 3.63 0 0 1-1.246.664m-.001 0l-5.003 1.514a3.62 3.62 0 0 1-2.757-.276c-.846-.454-1.477-1.225-1.755-2.145l-2.032-6.716c-.109-.361.095-.742.456-.852s.743.095.852.456l2.032 6.717c.173.573.566 1.054 1.093 1.336a2.25 2.25 0 0 0 1.716.172l5.003-1.514h.001c.283-.086.547-.226.775-.413s.419-.418.558-.679.226-.547.255-.841 0-.592-.086-.874l-.001-.002-2.032-6.722c-.109-.361.095-.743.456-.852" class="B D"/><path d="M118.328 194.949a2.25 2.25 0 0 0-.875.086l-5.005 1.515c-.283.085-.547.225-.776.413a2.26 2.26 0 0 0-.558.679 2.25 2.25 0 0 0-.168 1.715v.001l2.032 6.723a.68.68 0 0 1-.456.851c-.361.109-.742-.095-.851-.456l-2.032-6.721c-.138-.456-.186-.933-.139-1.406a3.61 3.61 0 0 1 .41-1.352c.224-.419.529-.79.897-1.091s.791-.527 1.246-.664l5.003-1.514c.455-.138.933-.185 1.407-.138s.933.186 1.352.411.79.531 1.091.9.526.792.662 1.248l2.032 6.716a.68.68 0 0 1-.456.851c-.361.109-.742-.095-.851-.456l-2.032-6.717-.001-.002a2.25 2.25 0 0 0-.412-.776 2.24 2.24 0 0 0-.679-.56c-.261-.14-.547-.227-.841-.256z" class="B D"/><path d="M101.357 115.724l-.001.001.011-.016.062-.091.283-.391 1.176-1.426c1.052-1.172 2.603-2.661 4.603-3.95 3.939-2.541 9.627-4.336 16.955-1.313a2.16 2.16 0 0 0 2.817-1.172c.455-1.102-.07-2.363-1.171-2.817-8.901-3.671-16.075-1.462-20.94 1.675-2.403 1.55-4.24 3.319-5.475 4.694a25.35 25.35 0 0 0-1.419 1.722c-.162.217-.288.393-.375.52l-.103.151-.03.046-.01.015-.004.006-.001.002c-.001.001-.001.002 1.811 1.172l-1.812-1.17a2.16 2.16 0 0 0 .642 2.983 2.16 2.16 0 0 0 2.98-.638" class="B C"/><path d="M57.032 129.537v.001l.011-.016.062-.091.282-.391 1.173-1.426c1.05-1.172 2.598-2.66 4.595-3.949 3.934-2.541 9.621-4.338 16.962-1.317a2.16 2.16 0 0 0 2.816-1.174c.454-1.102-.072-2.363-1.174-2.816-8.91-3.667-16.083-1.458-20.945 1.682-2.401 1.55-4.235 3.319-5.468 4.695a25.29 25.29 0 0 0-1.416 1.723c-.162.217-.287.393-.375.52l-.103.151-.03.046-.01.015-.004.006-.002.002c-.001.001-.001.002 1.769 1.141l-1.77-1.139a2.16 2.16 0 0 0 .646 2.982 2.16 2.16 0 0 0 2.981-.645z" class="B C"/><path d="M70.543 55.056l63.111 15.13-19.491-59.058-43.62 43.928z" fill="url(#B)"/><path d="M82.394 43.154l16.969 18.785 16.815 4.03c.792.188-25.615-31.08-25.615-31.08l-8.168 8.265z" class="E"/><path d="M98.367 27.033l35.287 43.154-8.573-25.991-18.266-25.667-8.448 8.504z" class="E"/><path d="M114.966 21.471a10.74 10.74 0 0 0 10.736-10.736A10.74 10.74 0 0 0 114.966 0a10.74 10.74 0 0 0-10.736 10.736 10.74 10.74 0 0 0 10.736 10.736z" class="E"/><path d="M148.534 129.483s22.365 12.125 29.298 13.901c0 0 10.451-6.37 15.369-6.882 13.537-1.412-11.214 13.047-11.214 13.047s9.808-.49 1.867 3.984c-8.709 4.89-14.612.45-24.095-3.466s-12.256-4.833-12.256-4.833" fill="#fff"/><path d="M147.187 128.753a1.53 1.53 0 0 1 2.076-.616l-.729 1.346-.73 1.346a1.53 1.53 0 0 1-.617-2.076zm30.425 12.979c-1.604-.487-3.938-1.44-6.653-2.665-3.044-1.374-6.468-3.045-9.687-4.667l-8.421-4.349-2.62-1.393-.718-.386-.25-.135-.729 1.346-.73 1.346.256.139.725.389 2.636 1.403 8.473 4.375c3.238 1.631 6.705 3.324 9.805 4.723 3.068 1.385 5.876 2.528 7.753 3.009a1.53 1.53 0 0 0 1.177-.176m0 0l.006-.003.02-.013c.019-.011.047-.028.085-.051l.332-.198 1.231-.717c1.042-.597 2.481-1.397 4.068-2.212s3.312-1.637 4.923-2.282c1.639-.656 3.054-1.085 4.066-1.19.954-.1 1.607-.103 2.035-.069-.192.252-.473.573-.868.963-.726.715-1.688 1.52-2.787 2.361-2.194 1.678-4.821 3.413-6.915 4.737l-2.592 1.602-.752.451-.2.118-.05.029-.016.01h0a1.53 1.53 0 0 0 .849 2.851h.002l.015-.001c.015 0 .038-.001.069-.002.062-.003.155-.005.271-.008.235-.004.561-.005.929.006.467.014.947.047 1.37.106-.384.283-.91.622-1.616 1.02-3.973 2.23-7.212 2.32-10.617 1.423-1.753-.463-3.562-1.191-5.57-2.075l-1.994-.892-4.58-2.004-9.721-3.899-2.018-.754-.461-.164-.115-.039-.03-.01-.009-.003-.004-.002c-.001 0-.001 0-.482 1.454l.481-1.454c-.803-.265-1.669.17-1.935.973s.171 1.669.973 1.935l.003.001.02.006.094.033.426.151 1.963.733c1.863.713 4.914 1.916 9.646 3.87 1.571.649 3.022 1.303 4.429 1.937l2.08.931c2.037.897 4.027 1.707 6.024 2.233 4.094 1.079 8.161.944 12.897-1.714l.002-.002c1.036-.583 1.842-1.119 2.435-1.619.56-.472 1.088-1.042 1.322-1.734a2.23 2.23 0 0 0 .065-1.248 2.21 2.21 0 0 0-.584-1.034c-.363-.369-.814-.593-1.208-.737 2.096-1.329 4.726-3.071 6.965-4.783 1.148-.878 2.222-1.771 3.076-2.612.805-.794 1.589-1.708 1.923-2.636.178-.494.29-1.165.014-1.853-.285-.71-.858-1.131-1.415-1.365-1.008-.424-2.449-.445-4.156-.267-1.448.151-3.183.711-4.887 1.393-1.732.693-3.546 1.56-5.183 2.401s-3.122 1.666-4.192 2.279l-1.169.68" class="B C"/><path d="M50.734 154.399s-15.87 5.994-24.91-3.416.643-7.906 1.19-15.494c.569-8.083-8.339-8.693-8.664-3.063 0 0 5.772-5.265-.421-9.244s-13.804 5.88-15.904 12.307c-1.878 5.772 1.935 10.861 5.971 16.9s15.939 27.124 50.69 18.506" fill="#fff"/><path d="M12.703 121.051c1.989-.572 4.091-.418 6.053.843 1.772 1.138 2.85 2.479 3.312 3.953.143.459.221.91.247 1.348.34.011.68.051 1.014.121 3.062.64 5.541 3.6 5.211 8.28v.003a9.07 9.07 0 0 1-2.011 5.135c-.478.608-.986 1.133-1.418 1.578l-.017.018-1.061 1.162c-.267.344-.406.612-.471.852-.059.22-.078.501.034.913.248.91 1.104 2.347 3.331 4.665 4.066 4.233 9.742 5.079 14.644 4.769 2.43-.153 4.599-.588 6.163-.987a30.3 30.3 0 0 0 1.83-.524l.481-.161.078-.028c.016-.005.029-.01.039-.014l.026-.01.004-.001h.001a1.53 1.53 0 1 1 1.081 2.865l-.541-1.432.54 1.433h-.002l-.004.002-.013.004-.043.016-.152.054c-.13.046-.318.11-.557.187-.478.154-1.164.361-2.013.577-1.694.432-4.057.907-6.725 1.076-5.293.334-12.072-.527-17.045-5.704-2.293-2.386-3.616-4.29-4.078-5.981-.243-.89-.249-1.725-.037-2.514.207-.77.597-1.404 1.01-1.936.38-.489.83-.952 1.23-1.363l.07-.072c.438-.451.841-.871 1.207-1.336.701-.892 1.254-1.938 1.364-3.463.239-3.401-1.452-4.787-2.783-5.065a2.71 2.71 0 0 0-.992-.027c-.401.91-.929 1.67-1.361 2.211a11.27 11.27 0 0 1-.661.755c-.086.09-.158.161-.211.212l-.065.062-.021.019-.007.007-.003.002-.001.002c-.001 0-.001.001-1.033-1.131l1.032 1.132c-.46.419-1.128.518-1.69.251a1.53 1.53 0 0 1-.87-1.471c.106-1.843.94-3.306 2.223-4.201a4.8 4.8 0 0 1 .181-.12c.068-.428.048-.848-.079-1.254-.198-.632-.721-1.442-2.045-2.293-1.134-.728-2.306-.834-3.551-.476-1.299.374-2.689 1.263-4.057 2.553-2.744 2.587-5.037 6.435-6.012 9.417-.784 2.409-.416 4.719.711 7.252 1.009 2.268 2.557 4.57 4.306 7.173l.771 1.149.593.901c2.171 3.316 5.946 9.083 12.779 13.406 7.435 4.702 18.662 7.783 35.676 3.564a1.53 1.53 0 1 1 .737 2.972c-17.738 4.399-29.837 1.247-38.051-3.948-7.423-4.695-11.53-10.986-13.701-14.31l-.58-.883-.758-1.128c-1.73-2.571-3.445-5.12-4.572-7.651-1.319-2.964-1.919-6.084-.825-9.446l.001-.002c1.126-3.444 3.688-7.739 6.823-10.694 1.571-1.481 3.376-2.711 5.312-3.268z" class="B C"/><path d="M7.501 138.062c.393-.615 6.666 4.821 10.85-5.636l-10.85 5.636z" fill="#f2f4f7"/><path d="M18.919 131.005a1.53 1.53 0 0 1 .853 1.99c-1.107 2.767-2.412 4.636-3.855 5.82-1.472 1.208-3.004 1.635-4.395 1.651-1.351.016-2.512-.356-3.275-.636l-.468-.177-.168-.064a1.52 1.52 0 0 1-.933-.237 1.53 1.53 0 0 1-.466-2.115c.482-.754 1.275-.766 1.509-.754a2.63 2.63 0 0 1 .655.13l.632.23.295.112c.654.239 1.397.458 2.186.449.749-.009 1.594-.223 2.488-.956.922-.756 1.97-2.129 2.955-4.591a1.53 1.53 0 0 1 1.991-.852zm-10.128 7.881a1.48 1.48 0 0 1-.149.197 1.48 1.48 0 0 0 .149-.197zm-1.377.636z" class="B C"/><path d="M58.624 140.208c-.917-2.176-3.885-4.556-9.478-2.813-3.184.992-5.02 2.893-5.94 5.036-.95 2.215-1.001 4.891-.179 7.409s2.451 4.687 4.623 5.976c2.115 1.255 4.935 1.788 8.463.736l21.429-6.591 6.36-2.034 1.713-.556.442-.144.148-.049a2.91 2.91 0 0 1 3.672 1.855 2.91 2.91 0 0 1-1.855 3.672l-.848-2.581.848 2.581-.155.051-.449.146-1.727.561-6.393 2.044-21.523 6.62c-4.994 1.489-9.504.822-13.094-1.308-3.533-2.096-5.983-5.491-7.185-9.175s-1.215-7.827.363-11.506c1.609-3.75 4.793-6.813 9.556-8.297 7.999-2.493 14.314.754 16.57 6.108 1.084 2.572 1.152 5.541-.055 8.196-1.227 2.699-3.651 4.817-7.06 5.879a2.91 2.91 0 0 1-3.642-1.912 2.91 2.91 0 0 1 1.912-3.642c2.01-.626 3.029-1.709 3.494-2.732.484-1.065.493-2.337-.01-3.53z" fill="#db2121" class="B"/><path d="M92.641 133.409c.828.724.912 1.983.188 2.811-.571.652-1.155 1.477-1.582 2.339-.436.88-.643 1.665-.629 2.281a1.71 1.71 0 0 0 .661 1.376c.548.461 1.641.987 3.714 1.246l2.794.349-1.259 2.519c-.575 1.15-1.094 2.542-1.36 3.924-.27 1.403-.251 2.635.073 3.57.293.845.862 1.554 2.026 2.005 1.256.487 3.309.707 6.543.168 1.086-.181 2.112.552 2.293 1.637a1.99 1.99 0 0 1-1.638 2.293c-3.596.6-6.453.464-8.638-.383-2.278-.883-3.683-2.487-4.351-4.417-.637-1.84-.564-3.846-.22-5.627a18.3 18.3 0 0 1 .709-2.591c-1.307-.381-2.394-.924-3.251-1.645-1.432-1.205-2.043-2.76-2.079-4.334-.034-1.495.447-2.939 1.043-4.141.605-1.219 1.396-2.327 2.153-3.193a1.99 1.99 0 0 1 2.811-.187z" class="B C"/><path d="M112.465 129.114c.414.897.027 1.962-.863 2.378-1.212.567-2.392 1.957-3.181 4.007a13.52 13.52 0 0 0-.73 6.726c.347 2.277 1.318 4.316 2.987 5.732 1.65 1.401 4.171 2.354 7.937 2.12.979-.061 1.822.69 1.883 1.677s-.685 1.836-1.665 1.897c-4.486.278-7.963-.848-10.446-2.955-2.465-2.093-3.762-4.994-4.209-7.928-.445-2.925-.065-5.983.929-8.564.98-2.546 2.655-4.864 4.998-5.96a1.77 1.77 0 0 1 2.36.87z" class="B C"/></g><defs><filter id="A" x="0" y="0" width="212.781" height="266.64" filterUnits="userSpaceOnUse" color-interpolation-filters="sRGB"><feFlood flood-opacity="0" result="A"/><feColorMatrix in="SourceAlpha" values="0 0 0 0 0 0 0 0 0 0 0 0 0 0 0 0 0 0 127 0" result="B"/><feOffset dx="14" dy="4"/><feComposite in2="B" operator="out"/><feColorMatrix values="0 0 0 0 0 0 0 0 0 0 0 0 0 0 0 0 0 0 0.03 0"/><feBlend in2="A"/><feBlend in="SourceGraphic"/></filter><linearGradient id="B" x1="70.543" y1="40.655" x2="133.654" y2="40.655" gradientUnits="userSpaceOnUse"><stop stop-color="#2fbb6d"/><stop offset="1" stop-color="#3ba4a2"/></linearGradient></defs></svg>