<svg xmlns="http://www.w3.org/2000/svg" width="421" height="257" fill="none" xmlns:v="https://vecta.io/nano"><g filter="url(#A)"><path d="M151.797-1.708l54.841-17.383-14.782 49.179-40.059-31.796z" fill="#ffdc50"/></g><path d="M208 76.93L227.05 71l-3.81 21.28L208 76.93zm-208 145L19.05 216l-3.81 21.28L0 221.93zm189-34.72l10.04-5.21.71 9.43-10.75-4.22zm207.893-80.712l22.753 7.798-13.465 14.935-9.288-22.733z" fill="#2faa5f"/><path d="M222 224.82l20.18-9.82-3.3 19.73-16.88-9.91zm32-189.18L281.02 21l7.08 22.7-34.1-8.06zM65 219a6 6 0 1 0 0-12 6 6 0 1 0 0 12zm168.33-27.34a4.33 4.33 0 0 0 0-8.66 4.33 4.33 0 0 0 0 8.66z" fill="#ffdc50"/><path d="M139.28 231.56c8.439 0 15.28-6.841 15.28-15.28S147.719 201 139.28 201 124 207.841 124 216.28s6.841 15.28 15.28 15.28z" fill="#ffcf33"/><path d="M216.35 145.7a8.35 8.35 0 1 0 0-16.7 8.35 8.35 0 1 0 0 16.7z" fill="url(#C)"/><g filter="url(#B)"><path d="M184.5 311c19.054 0 34.5-15.446 34.5-34.5S203.554 242 184.5 242 150 257.446 150 276.5s15.446 34.5 34.5 34.5z" fill="#ffcf33"/></g><defs><filter id="A" x="147.797" y="-23.09" width="62.84" height="57.179" filterUnits="userSpaceOnUse" color-interpolation-filters="sRGB"><feFlood flood-opacity="0"/><feBlend in="SourceGraphic"/><feGaussianBlur stdDeviation="2"/></filter><filter id="B" x="145" y="237" width="79" height="79" filterUnits="userSpaceOnUse" color-interpolation-filters="sRGB"><feFlood flood-opacity="0"/><feBlend in="SourceGraphic"/><feGaussianBlur stdDeviation="2.5"/></filter><linearGradient id="C" x1="208.437" y1="139.773" x2="224.38" y2="134.804" gradientUnits="userSpaceOnUse"><stop stop-color="#e44f33"/><stop offset="1" stop-color="#cc321d"/></linearGradient></defs></svg>