<svg xmlns="http://www.w3.org/2000/svg" width="78" height="113" fill="none" xmlns:v="https://vecta.io/nano"><style><![CDATA[.B{fill-rule:evenodd}.C{fill:#000}.D{fill:#cb8a18}.E{fill:#ffce00}]]></style><g filter="url(#A)"><path d="M63.037 85.487s3.882 6.523 3.616 11.276-1.802 6.355-1.802 6.355 3.301 4.76 1.802 6.521-12.274-2.466-9.707-6.873-.108-12.167-2.121-14.105" fill="#fff"/><path d="M62.707 84.932c.306-.182.702-.082.885.225l-.528.314.528-.314h0l.001.001.003.004.009.016.034.059.127.222.445.821 1.329 2.811c.944 2.241 1.899 5.175 1.757 7.707-.137 2.442-.602 4.104-1.05 5.173a7.21 7.21 0 0 1-.608 1.169l.257.415c.294.487.674 1.161 1.006 1.896s.63 1.554.741 2.335c.109.766.053 1.623-.499 2.271-.348.408-.885.564-1.379.614-.515.053-1.115.006-1.74-.109-1.255-.232-2.726-.758-4.059-1.48-1.325-.718-2.578-1.665-3.332-2.773-.775-1.14-1.044-2.501-.247-3.869 1.162-1.995 1.171-4.84.584-7.515-.29-1.322-.718-2.567-1.192-3.592-.48-1.039-.984-1.804-1.403-2.208-.257-.247-.264-.656-.017-.913s.656-.264.913-.017c.587.566 1.172 1.497 1.68 2.596.514 1.112.971 2.446 1.281 3.857.612 2.791.675 6.029-.73 8.441-.486.836-.371 1.656.199 2.494.591.868 1.644 1.694 2.88 2.364 1.227.665 2.571 1.141 3.678 1.345.555.102 1.024.131 1.375.095.372-.038.501-.136.527-.167.198-.233.292-.632.204-1.253-.086-.607-.331-1.303-.639-1.984a17.25 17.25 0 0 0-.935-1.761l-.341-.544-.097-.146-.025-.037-.006-.008-.001-.002c-.174-.25-.148-.588.06-.809l.033-.04c.03-.038.08-.103.143-.199.126-.191.307-.504.501-.965.386-.92.822-2.436.952-4.746.124-2.221-.728-4.925-1.658-7.134l-1.282-2.713-.427-.787-.119-.208-.031-.052-.007-.013-.002-.003c-.182-.306-.082-.702.225-.885zm1.677 17.741h0z" class="B C"/><path d="M34.878 93.925c1.44 9.697 10.439 10.402 10.439 10.402s.636 8.215 5.341 4.96c3.311-2.292 3.419-8.546 1.531-10.077s-7.934-2.507-8.102-7.759" fill="#fff"/><path d="M44.066 90.806l.364 3.937c.442.686.999 1.26 1.608 1.749l-1.972-5.687z" class="C"/><path d="M44.731 91.431c-.011-.356-.309-.636-.666-.624s-.636.309-.624.666c.042 1.315.419 2.386.989 3.272l-.364-3.937 1.972 5.687a11 11 0 0 0 1.115.782c.875.54 1.797.969 2.595 1.34l.129.06c.859.4 1.508.714 1.905 1.036.315.255.614.776.802 1.55.184.756.242 1.679.146 2.638-.195 1.942-1.001 3.861-2.44 4.857-1.067.738-1.75.73-2.196.537-.499-.216-.933-.757-1.284-1.532-.343-.755-.558-1.623-.686-2.318l-.13-.847-.026-.24-.006-.061-.001-.014v-.003l-.643.049-.061-.655-.231-.032c-.231-.035-.569-.097-.98-.2a12.32 12.32 0 0 1-3.088-1.238c-2.286-1.306-4.755-3.748-5.441-8.372-.052-.352-.381-.596-.733-.544s-.596.381-.544.733c.753 5.074 3.503 7.833 6.077 9.304 1.278.73 2.506 1.14 3.414 1.369.402.101.743.166 1.001.209.028.211.068.477.123.777.138.743.376 1.725.78 2.616.396.873 1.003 1.775 1.947 2.183.997.432 2.158.229 3.443-.66 1.872-1.295 2.775-3.649 2.99-5.789.109-1.083.047-2.154-.176-3.072-.219-.901-.615-1.737-1.244-2.247-.547-.444-1.362-.826-2.173-1.203l-.112-.052c-.811-.377-1.67-.777-2.479-1.276-1.678-1.036-3.026-2.428-3.1-4.746z" class="B C"/><path d="M45.352 103.683l-.064-.007-.032-.004.061.655.643-.049v-.001c-.025-.316-.276-.568-.592-.593h0-.001-.001z" class="C"/><path d="M45.603 19.244l-30.225 9.143c-3.422 1.035-5.357 4.648-4.321 8.07l16.607 54.902c1.035 3.422 4.648 5.357 8.07 4.322l30.225-9.143c3.422-1.035 5.357-4.648 4.322-8.07L53.672 23.566c-1.035-3.422-4.648-5.357-8.07-4.322z" fill="#fff"/><path d="M15.564 29.005a5.83 5.83 0 0 0-3.891 7.265l16.607 54.902a5.83 5.83 0 0 0 7.265 3.891l30.225-9.143a5.83 5.83 0 0 0 3.891-7.265L53.055 23.752a5.83 5.83 0 0 0-7.265-3.891l-30.225 9.143zm-5.126 7.639a7.12 7.12 0 0 1 4.752-8.874l30.225-9.143a7.12 7.12 0 0 1 8.874 4.752l16.607 54.902a7.12 7.12 0 0 1-4.752 8.874L35.92 96.298a7.12 7.12 0 0 1-8.874-4.752L10.438 36.643z" class="B C"/><path d="M49.11 72.019l-7.032 2.127c-1.209.366-1.892 1.642-1.526 2.85l2.643 8.738c.366 1.209 1.642 1.892 2.851 1.526l7.032-2.127c1.209-.366 1.892-1.642 1.526-2.851l-2.643-8.738c-.366-1.209-1.642-1.892-2.85-1.526z" fill="#edaf32"/><path d="M45.822 77.638a.95.95 0 0 0-.634 1.184l.857 2.834a.95.95 0 0 0 1.185.634l2.108-.638a.95.95 0 0 0 .634-1.184l-.857-2.834A.95.95 0 0 0 47.93 77l-2.108.638zm-1.185 1.351c-.244-.807.212-1.658 1.019-1.902l2.108-.638c.807-.244 1.658.212 1.902 1.019l.857 2.834c.244.807-.212 1.658-1.019 1.902l-2.108.638c-.807.244-1.658-.212-1.902-1.019l-.857-2.834z" class="B D"/><path d="M47.731 72.071c.152-.046.313.04.359.192l.856 2.833c.058.192.078.393.059.593a1.52 1.52 0 0 1-.173.57c-.094.177-.223.333-.378.46s-.333.222-.525.28m0 0l-2.109.638c-.387.117-.805.075-1.162-.116s-.623-.517-.739-.904l-.856-2.831c-.046-.152.04-.313.192-.359s.313.04.359.192l.856 2.831a.95.95 0 0 0 1.184.636l2.109-.638h0a.95.95 0 0 0 .562-.46.95.95 0 0 0 .071-.723v-.001l-.856-2.833c-.046-.152.04-.313.192-.359" class="B D"/><path d="M49.872 82.166a.95.95 0 0 0-.369.036l-2.109.638c-.119.036-.23.095-.327.174a.95.95 0 0 0-.343.641.95.95 0 0 0 .036.369h0l.856 2.833c.046.152-.04.313-.192.359s-.313-.04-.359-.192l-.856-2.833c-.058-.192-.078-.393-.059-.593a1.52 1.52 0 0 1 .551-1.03c.155-.127.334-.222.525-.28l2.108-.638c.192-.058.393-.078.593-.058s.393.079.57.174.333.224.46.379a1.52 1.52 0 0 1 .279.526l.856 2.831c.046.152-.04.313-.192.359s-.313-.04-.359-.192l-.856-2.831v-.001a.95.95 0 0 0-.46-.563c-.11-.059-.23-.096-.355-.108z" class="B D"/><path d="M42.719 48.775h0l.005-.007.026-.039.119-.165.496-.601a9.74 9.74 0 0 1 1.94-1.665c1.66-1.071 4.058-1.828 7.146-.553a.91.91 0 0 0 1.187-.494.91.91 0 0 0-.494-1.187c-3.751-1.547-6.775-.616-8.825.706a11.56 11.56 0 0 0-2.308 1.978l-.598.726-.158.219-.044.064-.013.019-.004.006-.002.002-.001.001c0 0-.001.001.763.494l-.764-.493a.91.91 0 0 0 .271 1.257.91.91 0 0 0 1.256-.269" class="B C"/><path d="M24.038 54.596h0l.004-.007.026-.039.119-.165.494-.601c.443-.494 1.095-1.121 1.937-1.665 1.658-1.071 4.055-1.828 7.149-.555a.91.91 0 0 0 1.187-.495.91.91 0 0 0-.495-1.187c-3.755-1.546-6.779-.614-8.828.709-1.012.653-1.785 1.399-2.305 1.979l-.597.726-.158.219-.043.064-.013.019-.004.006-.002.002h-.001c0 0 0 .001.745.481l-.746-.48a.91.91 0 0 0 .272 1.257.91.91 0 0 0 1.256-.272z" class="B C"/><path d="M29.732 23.205l26.6 6.377L48.117 4.69 29.732 23.205z" fill="url(#B)"/><path d="M34.727 18.188l7.152 7.917 7.087 1.699c.333.079-10.796-13.099-10.796-13.099l-3.443 3.483z" class="E"/><path d="M41.459 11.394l14.872 18.188-3.613-10.955L45.02 7.809l-3.56 3.584z" class="E"/><path d="M48.455 9.05c2.499 0 4.525-2.026 4.525-4.525S50.954 0 48.455 0 43.93 2.026 43.93 4.525s2.026 4.525 4.525 4.525z" class="E"/><path d="M62.603 54.574s9.426 5.11 12.349 5.859c0 0 4.405-2.685 6.478-2.901 5.705-.595-4.726 5.499-4.726 5.499s4.134-.206.787 1.679c-3.671 2.061-6.159.19-10.156-1.461s-5.165-2.037-5.165-2.037" fill="#fff"/><path d="M62.036 54.266c.17-.313.562-.43.875-.26l-.308.567-.308.567c-.313-.17-.43-.562-.26-.875zm12.823 5.47c-.676-.205-1.66-.607-2.804-1.123l-4.083-1.967-3.549-1.833-1.104-.587-.303-.163-.105-.057c0 0 0 0-.308.567l-.308.567.108.058.306.164 1.111.591 3.571 1.844 4.133 1.991c1.293.584 2.476 1.066 3.268 1.268.169.043.347.017.496-.074m0 0l.002-.002.009-.005.036-.022.14-.084.519-.302 1.715-.932 2.075-.962c.691-.277 1.287-.457 1.714-.502.402-.042.678-.043.858-.029-.081.106-.199.242-.366.406-.306.301-.711.641-1.174.995-.925.707-2.032 1.439-2.915 1.997l-1.092.675-.317.19-.084.05-.021.012-.007.004h0c-.257.15-.378.456-.293.741s.354.475.651.461h.001.007l.029-.001.114-.003.391.002.578.045c-.162.119-.384.262-.681.43-1.675.94-3.04.978-4.475.6-.739-.195-1.501-.502-2.348-.874l-.84-.376-1.93-.844-4.097-1.644-.851-.318-.194-.069-.048-.017-.013-.004-.004-.001h-.002c0 0 0 0-.203.613l.203-.613c-.338-.112-.703.072-.815.41s.072.703.41.815h.001l.008.003.04.014.18.064.827.309 4.066 1.631 1.867.817.877.392c.859.378 1.697.72 2.539.941 1.726.455 3.44.398 5.436-.722l.001-.001c.437-.246.776-.472 1.026-.683.236-.199.459-.439.557-.731a.94.94 0 0 0 .027-.526c-.045-.184-.141-.329-.246-.436-.153-.155-.343-.25-.509-.311l2.935-2.016c.484-.37.937-.746 1.297-1.101.34-.335.67-.72.811-1.111.075-.208.122-.491.006-.781-.12-.299-.361-.477-.596-.575-.425-.179-1.032-.187-1.752-.113-.61.064-1.342.3-2.06.587-.73.292-1.494.658-2.184 1.012l-1.767.961-.493.286" class="B C"/><path d="M21.383 65.075s-6.689 2.526-10.499-1.439.271-3.332.501-6.531c.24-3.407-3.515-3.663-3.652-1.291 0 0 2.433-2.219-.178-3.896S1.739 54.396.853 57.105c-.792 2.433.816 4.578 2.517 7.123s6.718 11.432 21.364 7.8" fill="#fff"/><path d="M5.354 51.02c.838-.241 1.724-.176 2.551.355.747.48 1.201 1.045 1.396 1.666a2.37 2.37 0 0 1 .104.568c.143.005.286.022.427.051 1.291.27 2.335 1.517 2.196 3.49v.001c-.069.956-.432 1.636-.847 2.164-.201.256-.416.478-.598.665l-.007.008-.447.49c-.112.145-.171.258-.198.359-.025.093-.033.212.014.385.105.383.465.989 1.404 1.966 1.714 1.784 4.106 2.141 6.172 2.01a14.35 14.35 0 0 0 2.597-.416l.771-.221.203-.068.033-.012.028-.01.002-.001h0c.333-.126.706.042.831.376s-.042.706-.376.832l-.228-.604.227.604h-.001l-.002.001-.005.002-.018.007-.064.023-.235.079-.849.243c-.714.182-1.71.382-2.834.453-2.231.141-5.088-.222-7.184-2.404-.966-1.006-1.524-1.808-1.719-2.521-.102-.375-.105-.727-.016-1.059.087-.325.252-.592.426-.816.16-.206.35-.401.518-.575l.03-.031.509-.563c.295-.376.529-.817.575-1.459.101-1.434-.612-2.018-1.173-2.135a1.14 1.14 0 0 0-.418-.011 4.28 4.28 0 0 1-.574.932l-.278.318-.089.09-.027.026-.009.008-.003.003-.001.001-.001.001c0 0 0 0-.435-.476l.435.477c-.194.177-.475.219-.712.106s-.382-.358-.367-.62c.045-.777.396-1.393.937-1.771l.076-.051c.028-.18.02-.357-.033-.529-.083-.266-.304-.608-.862-.966-.478-.307-.972-.352-1.497-.201-.548.158-1.133.532-1.71 1.076-1.156 1.09-2.123 2.712-2.534 3.969-.33 1.016-.175 1.989.3 3.057.425.956 1.078 1.926 1.815 3.023l.325.485.25.379c.915 1.398 2.506 3.829 5.386 5.65 3.134 1.982 7.866 3.281 15.037 1.502.346-.086.696.125.782.471s-.125.696-.471.782c-7.476 1.854-12.576.525-16.037-1.664-3.128-1.979-4.86-4.63-5.775-6.031l-.245-.372-.319-.476c-.729-1.084-1.452-2.158-1.927-3.224-.556-1.249-.809-2.564-.348-3.981v-.001c.474-1.452 1.554-3.262 2.876-4.507.662-.624 1.423-1.143 2.239-1.377z" class="B C"/><path d="M3.161 58.189c.166-.259 2.809 2.032 4.573-2.375l-4.573 2.375z" fill="#f2f4f7"/><path d="M7.974 55.215c.331.132.492.508.359.839-.467 1.166-1.017 1.954-1.625 2.453-.62.509-1.266.689-1.852.696-.569.007-1.059-.15-1.38-.268l-.197-.075-.071-.027c-.134.01-.272-.022-.393-.1-.3-.192-.388-.591-.196-.891.203-.318.537-.323.636-.318a1.1 1.1 0 0 1 .276.055l.266.097.124.047c.276.101.589.193.921.189.316-.004.672-.094 1.049-.403.388-.319.83-.897 1.245-1.935.132-.331.508-.492.839-.36zm-4.269 3.322c-.02.031-.041.059-.063.083.023-.026.044-.053.063-.083zm-.581.268z" class="B C"/><path d="M24.708 59.094c-.387-.917-1.637-1.92-3.995-1.186-1.342.418-2.116 1.219-2.503 2.123-.401.934-.422 2.061-.076 3.122s1.033 1.976 1.949 2.519c.891.529 2.08.754 3.567.31l9.032-2.778 2.68-.857.722-.234.186-.061.062-.021c.643-.211 1.336.139 1.548.782s-.139 1.336-.782 1.547l-.358-1.088.358 1.088-.065.021-.189.062-.728.236-2.694.862-9.071 2.79c-2.105.628-4.006.347-5.519-.551-1.489-.883-2.522-2.315-3.028-3.867s-.512-3.299.153-4.85c.678-1.581 2.02-2.872 4.028-3.497 3.371-1.05 6.033.318 6.984 2.574.457 1.084.486 2.335-.023 3.455-.517 1.137-1.539 2.03-2.976 2.478-.646.201-1.334-.16-1.535-.806s.159-1.334.806-1.535c.847-.264 1.277-.72 1.473-1.151.204-.449.208-.985-.004-1.488z" fill="#db2121" class="B"/><path d="M39.045 56.228a.84.84 0 0 1 .079 1.185 4.76 4.76 0 0 0-.667.986c-.184.371-.271.702-.265.962a.72.72 0 0 0 .279.58c.231.194.691.416 1.565.525l1.178.147-.531 1.062c-.242.485-.461 1.072-.573 1.654-.114.591-.106 1.11.031 1.504.123.356.363.655.854.845.529.205 1.395.298 2.758.071a.84.84 0 0 1 .966.69.84.84 0 0 1-.69.966c-1.516.253-2.72.195-3.641-.162-.96-.372-1.552-1.048-1.834-1.861-.268-.776-.238-1.621-.093-2.372a7.71 7.71 0 0 1 .299-1.092c-.551-.16-1.009-.389-1.37-.693-.603-.508-.861-1.163-.876-1.827-.014-.63.188-1.239.44-1.745.255-.514.588-.981.908-1.346a.84.84 0 0 1 1.185-.079z" class="B C"/><path d="M47.401 54.418c.174.378.011.827-.364 1.002-.511.239-1.008.825-1.341 1.689a5.7 5.7 0 0 0-.307 2.835c.146.96.555 1.819 1.259 2.416.696.59 1.758.992 3.345.893a.75.75 0 0 1 .794.707c.026.416-.289.774-.702.799-1.891.117-3.356-.357-4.403-1.246-1.039-.882-1.586-2.104-1.774-3.341s-.027-2.522.392-3.609c.413-1.073 1.119-2.05 2.107-2.512.375-.175.821-.011.995.367z" class="B C"/></g><defs><filter id="A" x="0" y="0" width="89.781" height="112.696" filterUnits="userSpaceOnUse" color-interpolation-filters="sRGB"><feFlood flood-opacity="0" result="A"/><feColorMatrix in="SourceAlpha" values="0 0 0 0 0 0 0 0 0 0 0 0 0 0 0 0 0 0 127 0" result="B"/><feOffset dx="6" dy="2"/><feComposite in2="B" operator="out"/><feColorMatrix values="0 0 0 0 0 0 0 0 0 0 0 0 0 0 0 0 0 0 0.04 0"/><feBlend in2="A"/><feBlend in="SourceGraphic"/></filter><linearGradient id="B" x1="29.732" y1="17.135" x2="56.331" y2="17.135" gradientUnits="userSpaceOnUse"><stop stop-color="#2fbb6d"/><stop offset="1" stop-color="#3ba4a2"/></linearGradient></defs></svg>