<svg width="288" height="312" viewBox="0 0 288 312" fill="none" xmlns="http://www.w3.org/2000/svg">
<g filter="url(#filter0_f_1_3521)">
<path d="M8.79725 -1.70767L63.6376 -19.0904L48.8559 30.0888L8.79725 -1.70767Z" fill="#FFDC50"/>
</g>
<path d="M127 24.93L146.05 19L142.24 40.28L127 24.93Z" fill="#2FAA5F"/>
<path d="M126.091 250.547L136.743 254.353L130.319 261.294L126.091 250.547Z" fill="#2FAA5F"/>
<path d="M271.492 51.6478L294.246 59.446L280.78 74.3807L271.492 51.6478Z" fill="#2FAA5F"/>
<path d="M179 270.82L199.18 261L195.88 280.73L179 270.82Z" fill="#FFDC50"/>
<path d="M191 35.64L218.02 21L225.1 43.7L191 35.64Z" fill="#FFDC50"/>
<path d="M86 79C89.3137 79 92 76.3137 92 73C92 69.6863 89.3137 67 86 67C82.6863 67 80 69.6863 80 73C80 76.3137 82.6863 79 86 79Z" fill="#FFDC50"/>
<path d="M139.33 153.66C141.721 153.66 143.66 151.721 143.66 149.33C143.66 146.939 141.721 145 139.33 145C136.939 145 135 146.939 135 149.33C135 151.721 136.939 153.66 139.33 153.66Z" fill="#FFDC50"/>
<path d="M15.28 331.56C23.7189 331.56 30.56 324.719 30.56 316.28C30.56 307.841 23.7189 301 15.28 301C6.84109 301 0 307.841 0 316.28C0 324.719 6.84109 331.56 15.28 331.56Z" fill="#FFCF33"/>
<path d="M151.35 95.7C155.962 95.7 159.7 91.9616 159.7 87.35C159.7 82.7384 155.962 79 151.35 79C146.738 79 143 82.7384 143 87.35C143 91.9616 146.738 95.7 151.35 95.7Z" fill="url(#paint0_linear_1_3521)"/>
<g filter="url(#filter1_f_1_3521)">
<path d="M122.5 346C141.554 346 157 330.554 157 311.5C157 292.446 141.554 277 122.5 277C103.446 277 88 292.446 88 311.5C88 330.554 103.446 346 122.5 346Z" fill="#FFCF33"/>
</g>
<defs>
<filter id="filter0_f_1_3521" x="4.79724" y="-23.0905" width="62.8404" height="57.1793" filterUnits="userSpaceOnUse" color-interpolation-filters="sRGB">
<feFlood flood-opacity="0" result="BackgroundImageFix"/>
<feBlend mode="normal" in="SourceGraphic" in2="BackgroundImageFix" result="shape"/>
<feGaussianBlur stdDeviation="2" result="effect1_foregroundBlur_1_3521"/>
</filter>
<filter id="filter1_f_1_3521" x="83" y="272" width="79" height="79" filterUnits="userSpaceOnUse" color-interpolation-filters="sRGB">
<feFlood flood-opacity="0" result="BackgroundImageFix"/>
<feBlend mode="normal" in="SourceGraphic" in2="BackgroundImageFix" result="shape"/>
<feGaussianBlur stdDeviation="2.5" result="effect1_foregroundBlur_1_3521"/>
</filter>
<linearGradient id="paint0_linear_1_3521" x1="143.437" y1="89.7729" x2="159.38" y2="84.804" gradientUnits="userSpaceOnUse">
<stop stop-color="#E44F33"/>
<stop offset="1" stop-color="#CC321D"/>
</linearGradient>
</defs>
</svg>
