<svg width="61" height="21" viewBox="0 0 61 21" fill="none" xmlns="http://www.w3.org/2000/svg">
<path d="M2.07025 4.76144C1.51933 4.72265 1.04127 5.1378 1.00247 5.68872L0.370234 14.6665C0.331437 15.2174 0.746595 15.6955 1.29751 15.7343C1.84844 15.7731 2.3265 15.3579 2.36529 14.807L2.92728 6.82675L10.9075 7.38874C11.4584 7.42754 11.9365 7.01238 11.9753 6.46146C12.0141 5.91054 11.5989 5.43248 11.048 5.39368L2.07025 4.76144ZM1.24497 6.41466C6.25501 12.1838 15.2468 18.9606 25.9775 20.4464C36.8081 21.9462 49.1914 18.0261 60.7954 2.79579L59.2046 1.5837C47.9656 16.3349 36.2565 19.8507 26.2518 18.4653C16.147 17.0661 7.56038 10.6367 2.75503 5.10329L1.24497 6.41466Z" fill="black" fill-opacity="0.12"/>
<path d="M2.07025 3.5717C1.51933 3.5329 1.04127 3.94806 1.00247 4.49898L0.370234 13.4767C0.331437 14.0277 0.746595 14.5057 1.29751 14.5445C1.84844 14.5833 2.3265 14.1682 2.36529 13.6172L2.92728 5.63701L10.9075 6.199C11.4584 6.23779 11.9365 5.82264 11.9753 5.27172C12.0141 4.7208 11.5989 4.24273 11.048 4.20394L2.07025 3.5717ZM1.24497 5.22492C6.25501 10.9941 15.2468 17.7708 25.9775 19.2567C36.8081 20.7564 49.1914 16.8364 60.7954 1.60604L59.2046 0.393957C47.9656 15.1452 36.2565 18.661 26.2518 17.2756C16.147 15.8764 7.56038 9.44697 2.75503 3.91354L1.24497 5.22492Z" fill="white"/>
</svg>
