<svg xmlns="http://www.w3.org/2000/svg" width="20" height="20" fill="none" xmlns:v="https://vecta.io/nano"><path d="M10 11.667c-.236 0-.434-.08-.594-.24s-.24-.358-.24-.594.08-.434.24-.594S9.764 10 10 10s.434.08.594.24.239.358.239.594-.08.434-.239.594-.358.24-.594.24zm-3.333 0c-.236 0-.434-.08-.594-.24s-.24-.358-.24-.594.08-.434.24-.594.358-.24.594-.24.434.08.594.24.24.358.24.594-.08.434-.24.594-.358.24-.594.24zm6.667 0c-.236 0-.434-.08-.594-.24s-.24-.358-.24-.594.08-.434.24-.594.358-.24.594-.24.434.08.594.24.24.358.24.594-.08.434-.24.594-.358.24-.594.24zM10 15c-.236 0-.434-.08-.594-.24s-.24-.358-.24-.594.08-.434.24-.594.358-.24.594-.24.434.08.594.24.239.358.239.594-.08.434-.239.594-.358.24-.594.24zm-3.333 0c-.236 0-.434-.08-.594-.24s-.24-.358-.24-.594.08-.434.24-.594.358-.24.594-.24.434.08.594.24.24.358.24.594-.08.434-.24.594-.358.24-.594.24zm6.667 0c-.236 0-.434-.08-.594-.24s-.24-.358-.24-.594.08-.434.24-.594.358-.24.594-.24.434.08.594.24.24.358.24.594-.08.434-.24.594-.358.24-.594.24zM3.75 18.333c-.333 0-.625-.125-.875-.375s-.375-.542-.375-.875V4.167c0-.333.125-.625.375-.875s.542-.375.875-.375h1.354v-1.25h1.354v1.25h7.083v-1.25h1.354v1.25h1.354c.333 0 .625.125.875.375s.375.542.375.875v12.917c0 .333-.125.625-.375.875s-.542.375-.875.375H3.75zm0-1.25h12.5V8.125H3.75v8.958z" fill="#fff"/></svg>