<svg xmlns="http://www.w3.org/2000/svg" width="32" height="32" fill="none" xmlns:v="https://vecta.io/nano"><path d="M14.883 26.86c-.988-.793-10.158-9.71-10.26-9.807-.405-.405-.66-.825-.73-1.21-.072-.4.05-.75.375-1.075.303-.303.673-.463 1.07-.463.485 0 .982.23 1.398.648l4.158 3.995c.072.07.168.105.26.105.074 0 .146-.022.207-.062s.109-.099.138-.166.037-.143.023-.215-.049-.139-.1-.192l-6.638-6.855c-.665-.665-.977-1.683-.187-2.473.303-.303.673-.463 1.07-.463.485 0 .982.23 1.398.648l6.79 6.62a.38.38 0 0 0 .263.108c.095 0 .192-.038.265-.11.145-.145.147-.38.002-.527l-8.155-8.36c-.377-.378-.605-.83-.645-1.27-.038-.447.12-.862.457-1.2.303-.303.673-.463 1.07-.463.485 0 .982.23 1.397.645l8.318 8.11a.38.38 0 0 0 .262.107c.095 0 .193-.037.265-.11.145-.145.148-.38.003-.528l-6.04-6.208c-.38-.38-.607-.83-.645-1.27-.037-.448.12-.863.457-1.2.303-.302.673-.462 1.07-.462.485 0 .982.23 1.398.648l8.193 8.073c.742.513.892-.262.93-.765.043-.585-.628-2.628-.238-4.465.655-2.442 2.543-2.043 2.585-2.022 1.035.485.837 1.21.47 2.667l-.038.288c-.385 1.905 2.26 7.55 2.455 7.973 1.037 2.27 2.232 6.873-1.725 10.83-4.337 4.337-9.707 2.115-11.345.477h0z" fill="url(#A)"/><g fill="#eda600"><path d="M20.447 29.295c-2.66 0-4.922-1.273-5.815-2.155-.803-.655-5.868-5.545-9.993-9.547l-.275-.268c-.468-.467-.758-.955-.84-1.415-.095-.522.067-.995.477-1.408.375-.375.835-.572 1.335-.572.588 0 1.178.27 1.663.758l4.153 3.99-6.64-6.855c-.765-.765-1.15-2.032-.183-2.997.375-.375.835-.572 1.335-.572.587 0 1.178.27 1.662.758l6.785 6.615L5.96 7.268c-.435-.435-.702-.968-.75-1.497-.048-.565.147-1.083.565-1.5.375-.375.835-.573 1.335-.573.585 0 1.175.268 1.662.755l8.315 8.107-6.04-6.207c-.437-.437-.705-.97-.75-1.5-.047-.562.148-1.08.565-1.497.375-.375.835-.572 1.335-.572.588 0 1.178.27 1.662.757l1.803 1.768 6.185 6.082c.14.112.322.155.4.117.05-.025.105-.14.095-.383-.015-.425-.075-.953-.138-1.51-.125-1.12-.255-2.28-.092-3.045.355-1.328 1.052-1.89 1.572-2.133.715-.33 1.408-.215 1.54-.152 1.3.61 1.042 1.63.688 3.045l-.008.035-.04.292c-.26 1.28 1.075 4.817 2.41 7.7l.02.04c.893 1.95 2.5 6.953-1.8 11.252-1.978 1.973-4.117 2.645-6.048 2.645h0zM5.337 14.68a1.13 1.13 0 0 0-.805.353c-.237.237-.32.467-.27.742.055.303.277.662.625 1.013.002.002.103.1.275.265l9.955 9.515.03.027c1.38 1.38 6.508 3.83 10.815-.477 3.968-3.968 2.475-8.6 1.648-10.41l-.017-.037c-.86-1.855-2.815-6.355-2.468-8.15l.058-.375c.385-1.53.407-1.85-.245-2.165-.192-.035-1.573-.203-2.1 1.765-.133.628-.005 1.775.108 2.787.065.572.125 1.115.14 1.567.025.713-.312.985-.518 1.085-.418.203-.915.03-1.225-.23l-.033-.03c-.152-.165-3.78-3.722-6.18-6.077l-1.805-1.772c-.615-.618-1.407-.72-1.94-.187-.26.26-.377.565-.35.902.03.353.22.72.537 1.037l6.053 6.207c.137.142.214.331.213.528s-.079.386-.218.527c-.277.277-.768.283-1.053.008L8.245 4.985c-.615-.615-1.41-.718-1.94-.185-.26.26-.377.565-.35.902.032.353.223.723.537 1.035l8.158 8.365a.75.75 0 0 1-.005 1.055c-.277.277-.768.283-1.053.008L6.8 9.543c-.615-.62-1.41-.72-1.94-.187-.648.647-.303 1.45.188 1.942l6.643 6.86c.137.141.213.33.212.527s-.08.385-.219.523a.77.77 0 0 1-1.05.01l-4.158-3.995c-.35-.352-.752-.543-1.138-.543h0z"/><path d="M21.19 11.635c-1.373 2.803-1.195 6.725.865 9.873.233.425.63.217.427-.22-2.487-5.322.12-9.157.12-9.157l-1.412-.495h0z"/></g><path d="M15.793 1.125c.755-.198 1.56-.18 2.343.002.777.188 1.555.583 2.132 1.228a4.29 4.29 0 0 1 1.03 2.233c.11.808.008 1.64-.375 2.33-.045-.775-.18-1.487-.407-2.145-.117-.327-.255-.64-.422-.935s-.36-.582-.568-.82c-.422-.488-.995-.868-1.637-1.162-.645-.305-1.348-.53-2.095-.73h0z" fill="#b0bec5"/><path d="M16 3.495c.418-.265.94-.32 1.433-.232s.973.335 1.348.677a3.17 3.17 0 0 1 .802 1.24 4.04 4.04 0 0 1 .157.7c.013.24.013.48-.025.72a5.04 5.04 0 0 1-.435-.543c-.148-.167-.263-.345-.395-.507-.26-.322-.513-.615-.785-.875-.28-.253-.575-.475-.918-.668S16.46 3.645 16 3.495z" fill="#90a4ae"/><path d="M1.707 19.335c.352.69.72 1.33 1.147 1.895s.913 1.045 1.48 1.357c.275.152.603.285.923.385a6.01 6.01 0 0 0 1.002.22c.69.085 1.415.07 2.183-.047-.595.518-1.39.793-2.2.852-.82.055-1.652-.122-2.397-.543-.75-.427-1.3-1.107-1.645-1.83s-.53-1.51-.492-2.29h0z" fill="#b0bec5"/><path d="M4.07 19.043a6.26 6.26 0 0 0 .745 1.052c.26.295.54.538.845.758.31.213.65.4 1.02.588l.577.28c.202.088.407.18.622.313-.228.085-.46.135-.697.172-.235.01-.478.023-.718-.01a3.15 3.15 0 0 1-1.38-.525c-.413-.298-.755-.71-.942-1.178s-.245-.985-.073-1.45h0z" fill="#90a4ae"/><defs><radialGradient id="A" cx="0" cy="0" r="1" gradientUnits="userSpaceOnUse" gradientTransform="translate(11.0116 9.50024) rotate(-45) scale(22.752)"><stop offset=".353" stop-color="#ffca28"/><stop offset=".872" stop-color="#ffb300"/></radialGradient></defs></svg>