<svg xmlns="http://www.w3.org/2000/svg" width="30" height="24" fill="none" stroke="#0c6858" stroke-width="3" stroke-miterlimit="10" stroke-linejoin="round" xmlns:v="https://vecta.io/nano"><path d="M15 22a2 2 0 1 0 0-4 2 2 0 1 0 0 4z"/><g stroke-linecap="round"><path d="M27.728 7.272A17.95 17.95 0 0 0 15 2 17.95 17.95 0 0 0 2.272 7.272M6.04 11.04C8.336 8.744 11.496 7.328 15 7.328s6.664 1.416 8.96 3.712"/><path d="M23.96 11.04C21.664 8.744 18.504 7.328 15 7.328S8.336 8.744 6.04 11.04m3.776 3.776c1.328-1.328 3.16-2.144 5.184-2.144s3.856.824 5.184 2.144"/></g></svg>