<svg xmlns="http://www.w3.org/2000/svg" width="32" height="32" fill="none" xmlns:v="https://vecta.io/nano"><g clip-path="url(#A)"><g fill="#fff"><path d="M30.191 1.743A6.06 6.06 0 0 0 25.931 0H6.069c-1.61-.001-3.154.638-4.292 1.777S-.001 4.459 0 6.069v14.345c-.001 1.61.638 3.154 1.777 4.293s2.683 1.777 4.292 1.777h15.526c.158-.001.308.066.413.182l4.623 5.159a.55.55 0 0 0 .943-.48l-.712-4.419a.54.54 0 0 1 .402-.617c1.091-.262 2.089-.816 2.891-1.6a5.95 5.95 0 0 0 1.842-4.292V6.069c.003-1.627-.649-3.185-1.808-4.326z"/><path d="M32 6.069v14.345c-.004 1.622-.67 3.172-1.843 4.292L18.257 13.242 30.191 1.743A6.06 6.06 0 0 1 32 6.069z"/><path d="M30.191 1.743L18.257 13.242l-.342.331c-1.067 1.032-2.761 1.032-3.829 0l-.342-.331-10.34-9.964L1.81 1.743C2.945.624 4.475-.002 6.069 0h19.862a6.06 6.06 0 0 1 4.26 1.743z"/><path d="M13.743 13.242L1.81 24.739C.649 23.6-.003 22.04 0 20.414V6.069a6.06 6.06 0 0 1 1.809-4.326l1.595 1.534 10.339 9.964z"/></g><path d="M9 15s1.697 4 7 4 7-4 7-4" stroke="#e84f35" stroke-width="2" stroke-linecap="round"/><g fill="#e84f35"><circle cx="11.5" cy="10.5" r="2.5"/><circle cx="20.5" cy="10.5" r="2.5"/></g></g><defs><clipPath id="A"><path fill="#fff" d="M0 0h32v32H0z"/></clipPath></defs></svg>