<svg xmlns="http://www.w3.org/2000/svg" width="32" height="32" fill="none"><path d="M1.862 30.818c.568.615 2.905-.457 4.75-1.317 1.382-.642 6.915-2.913 9.665-4.09.742-.317 1.823-.733 2.6-1.755.69-.91 2.52-4.775-1.165-8.69-3.74-3.975-7.592-2.877-9.033-1.857-.848.6-1.538 1.953-1.848 2.64-1.31 2.905-3.177 8.228-3.937 10.32-.558 1.543-1.595 4.14-1.032 4.75z" fill="#ffc107"/><path d="M6.463 16.622c.035.435.123 1.143.422 2.505.205.935.54 1.915.813 2.563.818 1.947 1.965 2.732 3.127 3.362 1.975 1.07 3.318 1.27 3.318 1.27l-1.61.658s-.975-.203-2.305-.858C8.96 25.497 7.64 24.44 6.675 22.37c-.417-.898-.66-1.768-.8-2.457-.173-.855-.2-1.34-.2-1.34l.788-1.95zm-1.977 5.07s.2 1.623 1.54 3.67c1.57 2.395 3.763 2.787 3.763 2.787l-1.458.6s-1.627-.497-3.175-2.61c-.965-1.318-1.235-2.893-1.235-2.893l.565-1.555zm-1.388 3.845s.365 1.4 1.165 2.445c.952 1.248 2.165 1.61 2.165 1.61l-1.118.495s-.847-.177-1.775-1.352c-.705-.892-.905-1.918-.905-1.918l.468-1.28z" fill="#ff8f00"/><path opacity=".44" d="M2.49 29.093c-.05-.113-.05-.24.002-.35L8.86 15.538l1.048 3.938-6.7 9.677a.41.41 0 0 1-.717-.06z" fill="#fffde7"/><path d="M10.413 20.798c2.975 3.48 6.362 3.045 7.49 2.165s2.023-3.915-.94-7.337c-3.105-3.585-6.62-2.562-7.433-1.787s-1.848 3.768.883 6.96z" fill="url(#A)"/><path d="M20.63 22.23c-1.085-.91-1.662-.747-2.437-.425-1 .415-2.572.723-4.707 0l.643-1.547c1.268.427 2.185.22 2.978-.247 1.02-.6 2.415-1.423 4.585.4.905.76 1.832 1.265 2.512 1.035.495-.165.758-.902.89-1.49.012-.053.032-.203.047-.335.12-.918.32-2.898 1.795-3.91 1.578-1.083 3.235-1.083 3.235-1.083l.3 2.98c-.762-.113-1.293.042-1.74.29-1.685.938-.218 4.537-2.84 5.747-2.523 1.172-4.585-.85-5.26-1.415z" fill="#03a9f4"/><path d="M11.35 18.43l-1.085-.973c1.992-2.225 1.467-3.86 1.085-5.05l-.197-.685c-.17-.77-.205-1.44-.152-2.025-.765-.953-1.102-1.95-1.125-2.017-.465-1.407-.115-2.78.688-4.067C12.185 1 15.123 1 15.123 1l.98 2.623c-.745-.03-3.187.007-3.937 1.19-.947 1.49-.325 2.41-.28 2.515.183-.237.367-.427.533-.575 1.197-1.062 2.237-1.215 2.9-1.155.745.067 1.42.442 1.902 1.058.527.675.745 1.552.578 2.35-.162.777-.68 1.435-1.457 1.852-1.357.73-2.488.63-3.245.377.005.018.007.038.012.055.027.125.082.3.148.503.442 1.37 1.265 3.545-1.905 6.637zm1.838-9.382c.145.105.297.193.455.255.525.21 1.098.14 1.748-.21.383-.205.428-.425.442-.497.045-.218-.03-.495-.192-.703-.143-.183-.308-.277-.505-.298-.375-.032-.883.205-1.39.657a2.19 2.19 0 0 0-.557.795z" fill="#f44336"/><path d="M15.693 18.838l-1.553-.042s.737-4.165 3.125-4.865c.447-.13.938-.262 1.43-.335.293-.045.755-.113.982-.197.053-.393-.112-.893-.297-1.46-.145-.44-.295-.893-.375-1.387-.155-.965.103-1.818.725-2.405.76-.713 1.988-.94 3.372-.625.79.18 1.373.567 1.885.907.732.488 1.16.735 2.055.133 1.082-.73-.332-3.587-1.085-5.237l2.808-1.17c.377.825 2.2 5.07.997 7.493-.405.815-1.102 1.355-2.017 1.558-1.99.445-3.155-.33-4.005-.895-.402-.268-.755-.478-1.137-.588-2.657-.758 1.053 3.153-.685 4.91-1.043 1.052-3.59 1.33-3.755 1.37-1.64.395-2.47 2.837-2.47 2.837z" fill="#f48fb1"/><path d="M10.998 9.698c-.048.55-.07.877.072 1.592.688.505 2.185.505 2.185.505l-.148-.502c-.005-.018-.008-.037-.012-.055-1.523-.76-2.097-1.54-2.097-1.54z" fill="#c92b27"/><path d="M7.883 12.16l-2.585-1.267 1.287-1.86 2.028 1.343-.73 1.785z" fill="#ffc107"/><path d="M4.072 8.65c-1.32-.178-2.665-1.298-2.812-1.425l1.298-1.522c.393.332 1.225.89 1.783.965L4.072 8.65z" fill="#fb8c00"/><path d="M6.403 5.317l-1.9-.623c.217-.665.275-1.382.162-2.075l1.975-.317c.163 1.005.08 2.047-.237 3.015z" fill="#03a9f4"/><path d="M18.268 3.831l1.954-.427.564 2.579-1.954.428-.564-2.579z" fill="#fb8c00"/><path d="M23.115 4.443L21.74 2.99a3.18 3.18 0 0 0 .885-1.585l1.975.323c-.025.157-.277 1.573-1.485 2.715z" fill="#ffc107"/><path d="M23.879 12.145l1.747-.546.596 1.909-1.747.546-.597-1.909z" fill="#fb8c00"/><path d="M24.388 28.257l-1.988-.235c.085-.707-.442-1.575-.587-1.768l1.6-1.2c.12.157 1.162 1.6.975 3.203z" fill="#f44336"/><path d="M30.093 25.723a12.29 12.29 0 0 0-2.268-.13l-.067-2c.878-.03 1.765.02 2.633.152l-.297 1.977z" fill="#fb8c00"/><path d="M27.404 28.476l1.405-1.423 1.934 1.91-1.405 1.423-1.934-1.909z" fill="#f48fb1"/><path d="M23.276 15.834l1.445 1.652-1.652 1.445-1.445-1.652 1.652-1.445z" fill="#f44336"/><defs><linearGradient id="A" x1="18.596" y1="15.46" x2="11.154" y2="19.925" gradientUnits="userSpaceOnUse"><stop offset=".024" stop-color="#8f4700"/><stop offset="1" stop-color="#703e2d"/></linearGradient></defs></svg>