<svg xmlns="http://www.w3.org/2000/svg" width="66" height="40" fill="none" fill-rule="evenodd"><path d="M31.457 13.437h2.417l-1.489 9.465h-2.417l1.489-9.465zm-8.377 0h3.702c2.355 0 2.967 1.368 2.709 3.003-.214 1.365-1.186 2.276-2.449 2.599l2.344 3.863h-3.035l-1.758-3.716-.585 3.716h-2.417l1.489-9.465zm2.121 1.882l-.373 2.375h.699c.679 0 1.323-.535 1.429-1.187s-.361-1.188-1.042-1.188h-.713zm17.295-1.882h2.418l-1.489 9.465h-2.418l1.489-9.465zm4.255 0h5.308l-.325 2.059h-2.89l-.254 1.618h2.748l-.325 2.056h-2.748l-.262 1.674h2.89l-.323 2.059h-5.308l1.489-9.465zm-30.417 0h5.308l-.323 2.059h-2.891l-.254 1.618h2.748l-.323 2.056H17.85l-.264 1.674h2.89l-.323 2.059h-5.308l1.489-9.465zm19.37 0h5.368l-.323 2.059h-2.951l-.258 1.618h2.683l-.325 2.056h-2.683l-.587 3.732h-2.414l1.489-9.465zm17.777 0h3.151c3.754 0 4.608 2.864 4.314 4.736-.42 2.671-2.78 4.729-5.803 4.729h-3.151l1.489-9.465zm2.094 2.059h.499c1.848 0 2.57 1.314 2.371 2.583-.267 1.703-1.48 2.765-3.065 2.765h-.647l.841-5.348zM5 12.149h4.472l.531 6.876C12.963 13.858 15.97 8.885 19 4h1.458l-9.44 18.903H7.734l-.801-7.583c-.198-1.882-.575-2.68-1.934-2.884v-.287z" fill="#005198"/><path d="M6.694 8.239l3.812 1.629.332 4.285h.282l3.461-5.912v-.297H6.693l.001.294z" fill="#f8a600"/><path d="M24.323 29.682c.577 0 .971.536.877 1.193s-.639 1.193-1.216 1.193-.971-.533-.877-1.193.638-1.193 1.217-1.193zm-1.953-4.554h1.564l-.527 3.73c.447-.434.994-.704 1.604-.704 1.255 0 2.079 1.22 1.857 2.727s-1.405 2.728-2.66 2.728a1.53 1.53 0 0 1-1.365-.755l-.084.592h-1.565l1.176-8.318zm4.633 3.153h1.878l.84 2.646 1.631-2.646h1.814L28.404 36H26.59l2.008-3.255-1.594-4.464zm14.73 5.163l2.523-8.318h2.249l-2.522 8.318h-2.251zm-1.005-8.316l-2.986 5.385h-.03l-.225-5.385h-3.865l-.039.361c1.264 0 1.531.195 1.691 1.195l.757 6.759h2.332l4.714-8.315h-2.349zm14.607 7.121l-.554 1.194h-2.443l4.43-8.302h2.999l.75 8.302H58.85v.014h-.697l-.053-1.208h-2.765zm.79-1.61h1.903l-.174-3.881-1.729 3.881zm-7.257 3.041c-1.588 0-2.642-.504-3.395-.954l1.072-1.637c.676.378 1.207.815 2.427.815.394 0 .77-.102.986-.476.314-.541-.072-.831-.95-1.329l-.434-.283c-1.304-.89-1.868-1.736-1.254-3.214.392-.944 1.428-1.66 3.135-1.66 1.179 0 2.282.509 2.926 1.008l-1.232 1.446c-.628-.509-1.148-.765-1.745-.765-.474 0-.835.183-.96.43-.233.465.077.781.761 1.206l.517.329c1.582.998 1.959 2.044 1.563 3.024-.683 1.685-2.017 2.06-3.415 2.06z" fill="#005198"/></svg>