<svg xmlns="http://www.w3.org/2000/svg" width="104" height="32" fill="none"><path d="M12.99 9.272c.347-1.592.521-7.29-7.177-7.477-.345 1.593-.52 7.288 7.177 7.477zm.095 20.476c-1.727 0-3.09.752-4.363.326-2.501-.837-5.302-5.604-5.75-10.344-.403-4.28 1.251-7.019 3.31-8.18 2.675-1.51 4.803-.42 6.803-.42s4.198-1.089 6.871.42c2.06 1.161 3.713 3.9 3.31 8.18-.447 4.74-3.249 9.508-5.75 10.344-1.272.426-2.704-.326-4.431-.326z" fill="#4bdf7f"/><path d="M90.266 29.926h2.817v-5.023h1.07c.8 0 1.088.214 1.489.903l1.607 2.473c.846 1.46 2.076 1.647 3.84 1.647v-2.524h-.689c-.464 0-.74-.107-.997-.55l-1.424-2.294c-.17-.303-.656-.891-1.129-1.001v-.05c.427-.11 1.006-.566 1.337-1.214l1.028-1.79c.257-.508.528-.689 1.105-.689h.48v-2.396c-1.809 0-2.77.132-3.57 1.543l-1.54 2.462c-.448.788-.689.985-1.521.985h-1.085v-4.99h-2.818v12.508zm-13.073 0h2.866v-5.055h5.302v5.055h2.866V17.42H85.36v4.957h-5.302V17.42h-2.866v12.507zm-10.398-3.673c0-1.05.73-1.596 2.234-1.596h3.384c0 1.084-.662 3.168-3.448 3.168-1.184 0-2.17-.504-2.17-1.572zm-2.834 0c0 2.398 1.874 3.952 4.58 3.952 2.416 0 3.552-1.113 4.192-1.933.176.854.79 1.658 2.001 1.658l1.346-.011v-2.5h-.513c-.368 0-.576-.214-.576-.592v-4.911c0-3.02-2.15-4.76-5.305-4.76-3.09 0-5.177 1.871-5.306 4.53h2.77c.128-1.28 1.063-1.986 2.6-1.986 1.663 0 2.662.837 2.662 2.2v.509H68.79c-3.295 0-4.828 1.48-4.828 3.844zm-10.847-2.564c0-2.2 1.32-3.808 3.514-3.808 2.146 0 3.426 1.609 3.426 3.808 0 2.183-1.328 3.849-3.426 3.849-2.146 0-3.514-1.699-3.514-3.85zm-3.01-1.412c0 5.482 2.826 7.928 6.62 7.928 3.666 0 6.26-2.74 6.26-6.467 0-3.84-2.546-6.467-6.004-6.467-2.753 0-4.058 1.986-4.042 1.953.174-2.554 1.206-3.88 3.843-4.333l4.946-.854v-3.004l-5.027.886c-6.065 1.077-6.596 5.064-6.596 10.358zm-16.666.017l3.042-7.764 3.01 7.764h-6.052zm-6.516 7.632h3.41l1.938-4.776h8.389l1.953 4.776h3.474l-7.892-18.892h-3.379l-7.893 18.892z" fill="#0d0c22"/></svg>