<svg xmlns="http://www.w3.org/2000/svg" viewBox="0 0 1876 336"><defs><clipPath id="A"><path d="M86,187.29C47.73,254.57,0,294,0,294l80.91-49.76a108.83,108.83,0,0,0,38-37.77,108.93,108.93,0,0,0,14-51.74l3.2-95s-10.6,61-50.11,127.56"/></clipPath><clipPath id="B"><path d="M162,154.68a109.16,109.16,0,0,0,14,51.74,108.89,108.89,0,0,0,38,37.77L294.92,294s-47.75-39.38-86.05-106.66c-39.51-66.58-50.1-127.56-50.1-127.56Z"/></clipPath></defs><path d="M86,187.29C47.73,254.57,0,294,0,294l80.91-49.76a108.83,108.83,0,0,0,38-37.77,108.93,108.93,0,0,0,14-51.74l3.2-95s-10.6,61-50.11,127.56"/><g clip-path="url(#A)"><path d="M-12.915 60.446l148.652-8.233 13.348 241.011L.433 301.457z"/></g><path d="M162,154.68a109.16,109.16,0,0,0,14,51.74,108.89,108.89,0,0,0,38,37.77L294.92,294s-47.75-39.38-86.05-106.66c-39.51-66.58-50.1-127.56-50.1-127.56Z"/><g clip-path="url(#B)"><path d="M145.853 293.245l13.348-241.011 148.652 8.233-13.348 241.011z"/></g><path d="M95.68 268.33a108.88 108.88 0 0 1 51.77-13.93 109.09 109.09 0 0 1 51.77 13.87l83.71 44.9s-58-21.46-135.46-20.7C70.05 291.82 12 313.34 12 313.34zM581 266.39c-.71-.08-10.24-.28-13.32-2.44s-6.37-3.05-11.26-17.11l-49.13-145.18c-1.11-2.93-2.29-4.16-8.78-3.66-1.88 2.16-6.87 8.85-13.85 10.16.15 3.8.39 4.25-1.78 11.51L431 254.41c-5 9.44-7.85 10.65-16.55 11.43l-6.07.56h0s-2.08 0-1.81 3.93c.23 3.71 2.19 3.64 2.19 3.64l52.43-.1c4.67-.23 5-1.8 5.18-4s-1.15-3.66-4.67-3.67-13.55.3-12.52-5.56 13.21-40.35 15.53-47.26c2.53-7.55 3.75-6.3 8.17-6.41s31.83.09 36.44 0 6.62-.06 8.29 5.12l13.9 43.37c.6 2.64 3 8.83-3.51 9.68l-11.48 1.33c-1.48.15-2 2.65-1.49 4.62s1 3.06 3.07 2.92 58 .07 62.15 0c0 0 3 .1 3.34-3.68s-1.85-3.9-2.56-4m-74.73-70.85h-30.45c-4.9 0-5.05-2.46-3.89-5.34s19.91-54.87 19.91-54.87l17.9 53.56c2.46 6.65 0 6.65-3.46 6.65m999.44 70.91c-.73-.08-10.26-.28-13.35-2.44s-6.34-3.05-11.23-17.11L1432 101.66c-1.09-2.93-2.28-4.16-8.77-3.64-1.9 2.16-6.86 8.85-13.86 10.16.15 3.8.4 4.25-1.77 11.51l-51.87 134.74c-5 9.44-7.87 10.65-16.58 11.43l-6.06.56h0s-2.07 0-1.81 3.93c.24 3.71 2.19 3.64 2.19 3.64l52.42-.1c4.66-.23 5-1.8 5.22-4s-1.17-3.66-4.69-3.67-13.55.3-12.52-5.56 13.2-40.35 15.52-47.26c2.53-7.55 3.78-6.3 8.16-6.41s31.85.09 36.46 0 6.63-.06 8.29 5.12l13.9 43.37c.6 2.64 3 8.83-3.53 9.68l-11.47 1.33c-1.54.15-2 2.65-1.49 4.62s1 3.06 3.07 2.92 58 .07 62.14 0c0 0 3 .1 3.36-3.68s-1.85-3.9-2.55-4M1431 195.54h-30.45c-4.91 0-5-2.46-3.9-5.34s19.92-54.87 19.92-54.87l17.89 53.56c2.45 6.65 0 6.65-3.46 6.65m-533.59 78.91h67.46c3.19 0 2.45-4.31 2.43-4.78a2.77 2.77 0 0 0-2.46-2.86c-2.31-.27-16.1-.6-18.08-6.33s-2.4-9.35-2.44-17l.14-116.06c.24-8.5.54-16.37 12.6-17.46l8.7-.72s2.1-.32 1.48-4-2.53-3.45-3-3.44-67.23-.19-67.23-.19-2.61 0-2.61 3.69 1.34 3.65 1.34 3.65l6.82.5c5.64.38 14 2.4 14.66 10.92.9 11.71.83 36.2.83 36.2l-.09 87.28c-.86 15.4-1.49 20.3-11.72 21.84s-9.15 1.19-9.15 1.19-2.08-.09-2.06 3.77 2.22 3.83 2.43 3.83"/><path d="M881.22 208.26c-8.45-24.36-33.92-28-33.92-28s-6.29-1.8-.61-4.21c14.38-6.13 21.55-17.75 23-25.48s2.57-26.13-13-37.67-43.19-10.92-43.19-10.92-21.51-.94-64.39 2c-.52 0-2.45-.28-3.05 3.44s1.47 4 1.47 4l8.7.73c12.07 1.09 11.27 8.94 11.53 17.44s.21 106.27.16 113.92-.46 11.27-2.47 17-12.53 6.07-14.86 6.35a2.74 2.74 0 0 0-2.45 2.84c0 .46-.79 4.76 2.4 4.79h63 8.78a2.09 2.09 0 0 0 1.38-.54c13.34-.89 22.07-2.59 36.17-9.22 17.36-8.19 29.88-32 21.39-56.42m-87-88.12c0-6.86.81-7.53 5.43-8.65 5.07-1.23 10.48-.45 13.71-.08 20.66 2.33 28.3 18.74 29.18 27.69s.8 23-10 31-31.18 7.69-35.41 7.51c-2-.1-2.76-2.46-3.06-4.95l.14-16.13V120.2m54.32 132.42c-11.83 15.11-35 12.57-35 12.57-10.24-1.57-18.34-5.93-19.22-21.33-.45-8-.45-31.38-.36-51.92.14-2.54 1.06-5.41 6-5.36 25.78-.38 35.45 4.07 45.37 14s15 36.94 3.16 52.05m858.98 21.8l63.19-.06c2.99-.06 2.44-3.49 2.42-4.22s0-3.14-2.12-3.38-11.6-.64-15-2.72-5.42-5.5-5.55-17.62l.08-56.94s3.88-.71 8 3.49 57.48 63.73 59.82 67.16.9 4.89-1.28 5.28l-8.8 1.53c-1.75.26-1.1 3.33-1 3.85a3.64 3.64 0 0 0 3.72 3.55c3.37.08 62.12.08 62.12.08s2.93-.42 2.9-4.11-2.49-3.55-2.83-3.59-11.63-.41-16.7-3.8-9.22-7-16.52-14.92-57.18-65.18-60.67-69.32.71-7.1 4.3-10.51 36.66-35.42 47.51-43.39 12.81-11.64 34-15.48c2.88-.49 3.28-3.74 2.92-4.75s-.92-2.88-3-2.9-53.58 0-55.27 0a4.11 4.11 0 0 0-3.64 3.32s-.49 3.39 1.93 4.1 6.62 1.49 8.4 1.88 4.34 1.88-.49 7.3-56.39 57.23-59.39 59.2c-3.91 3.36-6.11 3.12-6.11 3.12s-.57-46.29.27-55.89 3.1-13 9.29-14.3a58.3 58.3 0 0 1 10.19-1.25s1.79-.37 1.29-4.38-3.06-3.08-3.73-3-64-.06-64-.06a3.5 3.5 0 0 0-2.37 3.24c0 2.46.45 4 2.43 4.25s9.15.8 11.91 1.39 7.71 2.81 8.15 16.23.5 114.62-.35 125.73-5 12.39-11.58 13.38l-6.61 1s-1.84.54-1.43 4.11 2.83 3.43 3.58 3.43"/><path d="M1161.58 173.58c-3.78-26.83-26-78.6-93.58-75s-91.49 51.3-91.46 93.44c0 26.87 22.76 88.64 97 85.78 77.62-3 93-69.21 88.07-104.18m-85.49 95.2c-43 1.44-65.82-37.25-69-82.28-3.14-44.35 19.93-77.36 58.3-79.1s62.38 36.37 66.12 74.77-12.41 85.16-55.44 86.61m-345.29-36.7c-9.24 21.3-24.62 35.87-50 36.66-46.08 1.44-72.33-35.64-75.73-80.67-3.36-44.35 23.2-77.93 64.28-80.71 37.81-2.55 51.29 15.63 56.88 36.95 0 0 1.86 1.63 5.9 1.48s5.48-1.88 5.48-1.88c-1.43-13.41-3.59-27.42-3.64-38.77-2.46 1-3.34.75-7.71-.56-16.44-4.89-36.94-6.92-54.13-6.07-72.4 3.56-98.06 51.29-98 93.43 0 26.87 24.41 88.64 103.92 85.78 19.74-.72 33.54-3.31 46.07-7.78a27.87 27.87 0 0 1 5.53-1.5c7.18-11.29 11.6-27.19 12.38-35.36 0 0-.58-1.76-5.13-2.16s-6 1.16-6 1.16M1302 177.06c-15.93-4.52-43.1-1.24-46.26-1.38-2-.09-2.77-2.45-3.08-5l.15-16.11v-31.08c0-6.85.82-7.53 5.45-8.66.86-.21 10 0 26.49 0 20-.06 20.72 9.66 26.19 29.2 4.19 0 12-2 12-2l-2.29-27.92-.74-8.92c-10 0-85.07-.93-112.15-.2-.52 0-2.46-.27-3 3.45s1.47 4 1.47 4l8.71.71c12.07 1.12 11.27 8.94 11.52 17.45s.23 105.2.16 112.85-.47 11.27-2.45 17-12.57 6.08-14.89 6.35a2.74 2.74 0 0 0-2.43 2.84c0 .46-.78 4.76 2.41 4.79 2.55 0 68.6-1.23 69.18-1.76 13.35-.89 22.1-2.58 36.18-9.21 17.4-8.21 30.31-32.83 21.85-57.21s-27.28-27.19-34.36-29.2m1.22 72.61c-11.84 15.11-31.09 13.79-31.09 13.79-10.25-1.57-18.37-4.26-19.22-19.66-.46-8-.46-33.32-.36-53.87.14-2.52 1-5.39 6-5.32 25.79-.39 31.54 2.83 41.45 12.75s15 37.21 3.19 52.31m389.3 20.01a2.75 2.75 0 0 0-2.45-2.86c-2.3-.27-16.11-.6-18.1-6.33s-2.38-9.36-2.43-17l.16-116c.26-8.45.53-16.37 12.59-17.46l8.7-.71s2.06-.32 1.48-4.05-2.53-3.45-3.07-3.44-67.23-.19-67.23-.19-2.61 0-2.61 3.69 1.36 3.65 1.36 3.65l6.81.5c5.65.38 14 2.39 14.64 10.93.91 11.7.87 36.19.87 36.19l.14 16.65c-.4 2.63-1.62 5.11-4.7 5.11l-84 .36a4.84 4.84 0 0 1-5.26-4.54l.18-46.69c.28-8.53.54-16.37 12.59-17.46l8.71-.71s2.08-.32 1.49-4.05-2.56-3.45-3.08-3.44-67.22-.19-67.22-.19-2.6 0-2.6 3.69 1.33 3.65 1.33 3.65l6.82.5c5.65.38 14 2.39 14.65 10.93.9 11.7.86 36.19.86 36.19l-.11 87.28c-.88 15.4-1.5 20.3-11.72 21.84s-9.15 1.19-9.15 1.19-2.07-.1-2 3.77 2.22 3.83 2.43 3.83h67.45c3.2 0 2.47-4.31 2.44-4.78a2.77 2.77 0 0 0-2.47-2.86c-2.29-.27-16.08-.6-18.07-6.33s-2.39-9.36-2.45-17v-48.06c.44-2.66 1.67-5.26 4.82-5.26l84-.36c4 0 5 2.71 5.26 4.7l-.36 49.32c-.88 15.39-1.52 20.3-11.74 21.84s-9.14 1.19-9.14 1.19-2.09-.1-2.07 3.77 2.22 3.83 2.43 3.83h67.45c3.17 0 2.48-4.31 2.44-4.78"/></svg>