<svg xmlns="http://www.w3.org/2000/svg" width="249.063" height="35.563"><path fill="#e60004" d="M0 0v35.563h8.068L14.339 0z"/><path fill="#009836" d="M17.599 0l-6.266 35.563h237.73V0z"/><g fill="#fff"><path d="M41.043 24.918a1.24 1.24 0 0 1-.86-.345l-4.619-4.418-4.756 4.42c-.363.337-.89.427-1.344.229a1.24 1.24 0 0 1-.746-1.14v-5.152c0-.349.145-.681.401-.917l6.256-5.755c.485-.445 1.232-.436 1.706.02l8.414 8.121a1.24 1.24 0 0 1 .38.906l-.013 1.544h.809v-4.403l-9.852-9.263-6.037 5.516a1.24 1.24 0 0 1-1.756-.079c-.463-.507-.428-1.294.079-1.758l6.887-6.295c.48-.438 1.217-.432 1.691.013l11.085 10.423a1.24 1.24 0 0 1 .39.906v6.183c0 .687-.556 1.244-1.243 1.244h-3.308c-.331 0-.649-.133-.883-.368a1.24 1.24 0 0 1-.36-.887l.02-2.264-7.188-6.935-4.991 4.593v1.753l3.526-3.276c.481-.448 1.23-.442 1.706.013l5.465 5.228c.497.475.515 1.262.039 1.759a1.24 1.24 0 0 1-.898.384m80.959-10.023c-.997 0-1.88.315-2.626.93l.068-.382-.035-.161-.121-.069h-2.327c-.074 0-.142.063-.158.152l-2.158 12.184.033.16.126.072h2.324c.074 0 .14-.063.157-.154l.667-3.736c.557.683 1.326 1.027 2.306 1.027 2.979 0 5.404-2.745 5.404-6.117 0-2.372-1.436-3.906-3.66-3.906m-1.787 7.492c-1.019 0-1.626-.682-1.626-1.822 0-1.729 1.163-3.137 2.597-3.137 1.008 0 1.61.662 1.61 1.773 0 1.787-1.133 3.186-2.581 3.186"/><path d="M65.133 14.996c.075 0 .144-.064.157-.153l.443-2.475-.03-.165-.127-.069h-8.443c-.075 0-.141.062-.156.151l-2.132 12.084.031.162.126.07h6.119c2.514 0 4.27-2.044 4.27-4.968 0-1.911-1.071-3.006-2.943-3.006h-3.387l.279-1.631h5.793zm-4.137 4.496c1.279 0 1.515.238 1.515.706 0 1.136-.485 1.538-1.848 1.538H58.16l.391-2.244h2.445zm11.6-4.597c-2.89 0-4.662 1.227-4.989 3.457l.035.153.123.071h2.407c.078 0 .144-.064.159-.152.156-.943.716-1.363 1.808-1.363.641 0 1.404.108 1.404.626 0 .813-.716.987-3.017 1.121-2.82.165-4.252 1.359-4.252 3.554 0 1.601 1.132 2.555 3.028 2.555 1.24 0 2.23-.346 3.168-1.104l-.034.584.043.146.117.059h2.561c.079 0 .145-.069.16-.159l.024-.202c.012-.069-.011-.136-.06-.183-.061-.062-.13-.164-.13-.445a5.17 5.17 0 0 1 .09-.755l.765-4.334c.045-.281.102-.643.102-.974 0-2.38-2.006-2.655-3.512-2.655m-2.424 7.741c-.583 0-.92-.274-.92-.755 0-.705.546-1.007 2.082-1.157.781-.079 1.342-.192 1.75-.354-.248 1.337-1.44 2.266-2.912 2.266m16.945-7.423h-2.325c-.073 0-.143.062-.156.151l-.558 3.126h-3.477l.54-3.045-.033-.162-.124-.07h-2.325c-.074 0-.142.062-.157.153l-1.592 9.003.031.162.125.071h2.327c.077 0 .141-.065.157-.154l.595-3.424h3.478l-.582 3.346.035.161.12.071h2.331c.075 0 .141-.065.156-.153l1.591-9.004-.034-.162-.123-.07zm23.494 1.858l5.146-4.59c.054-.05.075-.139.058-.215-.022-.079-.085-.132-.153-.132h-3.24l-.095.039-4.713 4.328.728-4.138-.036-.161-.12-.068h-2.52c-.076 0-.139.062-.159.152l-2.127 12.083.028.163.126.068h2.519c.077 0 .139-.062.157-.151l.72-4.11 1.333-1.188 2.579 5.354.138.095h3.088c.057 0 .111-.035.139-.098l-.002-.192-3.594-7.239zm-12.616-1.858H94.99l-.089.036-3.593 3.09.52-2.894-.034-.162-.124-.07h-2.325c-.076 0-.142.062-.155.153l-1.593 9.003.032.162.123.071h2.326c.076 0 .142-.065.153-.153l.476-2.669.89-.717 1.891 3.452.135.087h3.099c.061 0 .117-.039.143-.104.031-.062.025-.139-.008-.196l-2.986-5.19 4.219-3.55c.055-.046.082-.137.06-.215s-.083-.134-.155-.134m102.418 0h-2.327c-.072 0-.141.062-.155.153l-1.592 9.003.033.162.12.071h2.328c.074 0 .143-.065.155-.153l1.595-9.004-.035-.162-.122-.07z"/><path d="M201.076 12.223l-.124-.072h-2.325c-.076 0-.144.063-.156.154l-.374 2.146.033.159.121.071h2.326c.076 0 .14-.062.16-.149l.372-2.15-.033-.159zm10.286 3.06l-.125-.071h-8.459c-.073 0-.143.063-.155.154l-1.591 9.003.031.163.124.068h2.325c.077 0 .143-.062.157-.15l1.177-6.705h3.48l-1.161 6.624.029.163.123.068h2.326c.076 0 .144-.062.158-.15l1.592-9.005-.031-.162zm-15.643-.07h-2.327c-.073 0-.14.062-.155.151l-.556 3.126h-3.479l.542-3.045-.032-.162-.123-.07h-2.326c-.077 0-.143.062-.157.153l-1.594 9.003.034.162.124.071h2.323c.077 0 .144-.065.157-.154l.599-3.424h3.479l-.582 3.346.032.161.122.071h2.329c.076 0 .139-.065.156-.153l1.592-9.004-.034-.162-.124-.07zm33.142-.318c-3.462 0-5.882 2.523-5.882 6.137 0 2.433 1.563 3.886 4.179 3.886 3.388 0 5.849-2.592 5.849-6.169 0-2.448-1.515-3.854-4.146-3.854m-1.332 7.492c-1.035 0-1.651-.676-1.651-1.806 0-1.768 1.14-3.153 2.593-3.153 1.028 0 1.64.674 1.64 1.806-.001 1.766-1.135 3.153-2.582 3.153m-9.008-7.492c-1.003 0-1.88.315-2.622.93l.065-.382-.034-.161-.125-.069h-2.322c-.078 0-.145.063-.157.152l-2.159 12.184.031.16.123.072h2.328c.075 0 .137-.063.153-.154l.667-3.736c.556.683 1.33 1.027 2.304 1.027 2.984 0 5.407-2.745 5.407-6.117 0-2.372-1.436-3.906-3.659-3.906m-1.789 7.492c-1.016 0-1.627-.682-1.627-1.822 0-1.729 1.165-3.137 2.595-3.137 1.011 0 1.614.662 1.614 1.773 0 1.787-1.134 3.186-2.582 3.186m-59.016-7.174h-2.698l-.12.062-4.188 5.446.932-5.276-.032-.162-.125-.07h-2.228c-.072 0-.143.062-.155.153l-1.593 9.003.032.162.123.071h2.701l.117-.065 4.199-5.564-.945 5.396.035.162.123.071h2.229c.075 0 .141-.065.156-.153l1.592-9.004-.036-.162-.119-.07zm-25.611-.319c-3.269 0-5.641 2.597-5.641 6.168 0 2.413 1.471 3.856 3.938 3.856 2.252 0 4.06-1.188 5.095-3.341v-.191c-.03-.062-.083-.097-.139-.097h-2.563l-.135.09c-.399.778-1.104 1.225-1.925 1.225-.865 0-1.405-.558-1.405-1.459 0-.113.008-.217.025-.323h6.279c.074 0 .136-.059.155-.147.147-.733.21-1.314.21-1.874.002-2.52-1.381-3.907-3.894-3.907m-2.244 3.68c.315-.886 1.046-1.428 1.969-1.428.912 0 1.344.448 1.394 1.428h-3.363zm16.944-3.308l-.123-.072h-7.044c-.075 0-.144.065-.157.154l-.499 2.829c-.397 2.234-.882 2.926-1.695 3.892h-.776c-.078 0-.145.063-.157.152l-.419 2.379h7.921.003 2.415l.398-2.299-.029-.161-.126-.071h-.856l1.178-6.642-.034-.161zm-3.797 6.803h-2.897c.649-.798 1.093-1.937 1.356-3.464l.152-.879h2.168l-.779 4.343z"/><path d="M167.198 15.213h-8.11c-.076 0-.144.062-.159.151l-.385 2.146.03.163.125.071h2.693l-1.162 6.625.03.162.126.071h2.327c.074 0 .14-.065.156-.153l1.175-6.705h2.766c.074 0 .139-.062.153-.15l.389-2.149-.031-.162-.123-.07zm18.04-3.011l-.123-.069h-9.188c-.077 0-.143.062-.157.152l-.64 3.544c-.44 2.458-1.032 4.87-2.384 5.907h-.74c-.075 0-.139.064-.156.152l-.484 2.713h12.924l.472-2.632-.033-.162-.122-.071h-.996l1.661-9.373-.034-.161zm-4.474 9.534h-4.911c.835-.944 1.515-2.871 2.013-5.744l.181-.997h3.912l-1.195 6.741z"/></g></svg>