<svg xmlns="http://www.w3.org/2000/svg" width="132" height="35" fill="none"><g clip-path="url(#A)" fill="#000"><path d="M3.501 26.221H.1v-13.02h3.449v1.373c3.808-2.462 6.275-2.344 8.023.473 1.389-1.491 3.042-2.391 5.149-2.178 1.82.166 3.137 1.136 3.209 2.912.144 3.456.048 6.912.048 10.44h-3.401c-.024-.45-.072-.852-.072-1.278v-6.747c-.024-1.657-.623-2.32-2.036-2.296-1.533.024-2.658 1.041-2.658 2.391v6.51 1.373h-3.52v-4.971-2.722c0-1.018-.024-2.036-1.197-2.462-1.006-.379-2.515.095-3.209 1.042-.239.308-.335.781-.335 1.184l-.024 6.747c-.024.379-.024.781-.024 1.231zm71.152-1.42l-.12 1.373h-3.401V8.206h3.425v6.131c1.102-.497 2.084-1.184 3.161-1.397 2.898-.592 5.436 1.018 6.394 3.882.623 1.918.647 3.882 0 5.8-1.317 3.977-5.772 5.208-9.029 2.533-.096-.095-.216-.166-.431-.355zm-.072-4.758c0 .973-.048 1.657.359 2.343 1.437 1.941 4.766 1.468 5.58-.805.359-.994.383-2.273.168-3.314-.359-1.752-2.059-2.793-3.832-2.367-2.203.678-2.275 1.206-2.275 3.124v1.019zm43.635-11.837h3.376v10.392c.072.047.168.071.24.118l2.898-3.081 2.155-2.482h4.047l-5.22 5.942 5.364 7.125c-1.557 0-2.874.024-4.191-.024-.215 0-.455-.379-.647-.639l-2.921-4.166c-1.413.852-1.413.852-1.844 4.782h-3.305l.048-17.967zm-88.611 4.616c4.119-.024 7.089 2.793 7.137 6.794.048 3.977-2.922 6.936-6.969 6.983-4.095.047-7.065-2.841-7.089-6.841-.072-4.024 2.802-6.889 6.921-6.936zm3.449 6.889c0-2.225-1.365-3.788-3.377-3.811-1.988-.024-3.401 1.539-3.425 3.74-.024 2.249 1.437 3.906 3.425 3.882 1.988 0 3.377-1.586 3.377-3.811zm35.396.024c-.024 4.048-2.97 6.912-7.065 6.889s-6.993-2.935-6.969-6.983c.048-4.001 2.898-6.794 6.993-6.794 4.167-.024 7.065 2.817 7.041 6.889zm-3.616-.071c0-2.249-1.389-3.764-3.401-3.764s-3.353 1.515-3.353 3.788c0 2.249 1.365 3.835 3.329 3.859 1.988.024 3.425-1.586 3.425-3.882zm30.438 6.533l-.12-1.018c-.144.047-.263.071-.359.142-1.581 1.231-3.353 1.586-5.293 1.042-2.036-.568-3.281-2.367-3.137-4.474.144-2.06 1.581-3.527 3.76-3.788 1.796-.237 3.473.118 5.029 1.349.072-1.302.273-2.814-.996-3.501-1.799-.973-3.913-.192-5.781 1.157l-1.245-2.13c2.131-2.415 7.496-3.006 9.891-.971.671.568 1.389 1.539 1.437 2.344l.072 9.848h-3.257zm-.048-3.835c.024-1.255-1.006-2.012-2.754-2.012-1.485 0-2.515.758-2.539 1.917-.048 1.184.934 1.965 2.443 2.012 1.7.024 2.826-.734 2.85-1.917zm6.993 3.906V13.225h3.377l.192 1.326.862-.592c1.509-1.089 3.209-1.349 5.005-1.042 1.629.284 2.874 1.491 2.922 3.149.096 3.338.024 6.676.024 10.108h-3.353c-.024-.426-.048-.829-.048-1.255-.024-2.249.048-4.498-.048-6.723-.048-1.657-.886-2.344-2.514-2.296-1.772.047-2.922 1.018-2.922 2.533l.024 6.865c.024.781-.264 1.042-1.03.994-.814-.047-1.604-.024-2.491-.024zm-50.435-.071h-3.496v-7.362c0-1.041.072-2.597-1.102-3.094-1.221-.545-2.658-.015-3.664.837 0 0-.742.523-.694 1.737l-.048 7.883h-3.401v-12.95h3.425v1.042c1.437-.473 2.874-1.184 4.383-1.373 2.826-.331 4.454 1.113 4.55 3.882l.048 9.398z"/></g><defs><clipPath id="A"><path fill="#fff" transform="translate(.1 .15)" d="M0 0h130.976v34.703H0z"/></clipPath></defs></svg>