<svg xmlns="http://www.w3.org/2000/svg" width="134" height="22" fill="none" fill-rule="evenodd"><g fill="#75af26"><path d="M25.219 18.747l-3.276-.003.012-11.234 11.793.012-.012 11.234-3.276-.003.009-9.052-5.242-.005-.01 9.052zm12.989-4.08c.002-2.278 1.452-2.727 2.365-2.726.894.001 2.342.453 2.34 2.731-.001 1.412-.618 2.76-2.346 2.758-1.767-.002-2.361-1.351-2.359-2.763zm-2.875-4.064l-.012 11.121 3.018.003.004-3.804c1.011 1.063 2.659 1.144 3.057 1.144 2.879.003 4.648-1.775 4.65-4.361.003-2.696-1.742-4.398-4.581-4.401-.715-.001-2.105.111-3.257 1.281h-.06l.022-.98-2.84-.003zm18.199 7.192c-1.112 1.011-2.186 1.283-3.376 1.282-3.256-.003-3.373-2.379-3.372-3.357l.005-5.103 3.018.003-.005 4.719c-.002 1.621.573 2.102 1.685 2.103 1.906.002 2.047-1.651 2.048-2.245l.005-4.574 3.018.003-.008 8.153-3.018-.003.001-.98zm7.351-5.528l1.628.002c.854.001 1.588.129 1.587.803-.001.738-1.152.754-1.648.754l-1.569-.002.001-1.556zm-3.015-1.641l-.009 8.154 5.996.006c2.184.002 3.693-.416 3.695-2.083.001-1.284-.733-1.846-2.401-2.137v-.048c1.092-.143 2.045-.8 2.046-1.908.002-1.974-2.379-1.977-3.313-1.978l-6.015-.006zm3.012 4.722l1.847.002c1.429.001 1.726.418 1.726.964-.001.353-.199.834-1.688.833l-1.886-.002.002-1.797zm13.979.078c-.002 1.637-1.471 2.036-2.206 2.036-.555-.001-1.548-.177-1.547-.949.001-.915 1.133-1.089 1.769-1.169 1.17-.16 1.072-.112 1.986-.432l-.001.514zm-3.493-2.154c.002-1.205 1.311-1.299 1.848-1.298.338 0 1.589.018 1.628 1.076v.226c-.061.802-.855.64-3.079.911-1.827.238-3.752.687-3.755 2.547-.001.675.295 2.361 3.512 2.364 1.232.001 2.582-.302 3.376-1.105h.06l.257.804 3.176.003v-.144c-.574-.114-.615-.661-.593-1.542l.064-3.724c.02-.945-.078-3.049-4.623-3.053-1.092-.001-4.606.092-4.748 2.932l2.878.003z"/><path d="M78.197 12.284l.002-1.638 9.688.01-.002 1.638-3.336-.003-.007 6.516-3.017-.003.006-6.516-3.334-.004zm13.54 1.649l2.72.003c.793.001 2.381.083 2.38 1.431-.001 1.06-1.153 1.265-2.443 1.264l-2.659-.003.003-2.696zm.005-4.172l7.523.008.002-2.183-10.801-.011-.011 11.234 6.631.007c3.217.003 5.283-1.086 5.285-3.38.004-3.595-4.126-3.679-5.277-3.68l-3.355-.003.003-1.991zm16.053 5.698c-.002 1.637-1.471 2.036-2.206 2.036-.556-.001-1.547-.178-1.547-.95.002-.916 1.133-1.089 1.768-1.168 1.171-.161 1.072-.113 1.985-.432v.514zm-3.491-2.154c.001-1.205 1.311-1.299 1.846-1.299.339 0 1.59.018 1.628 1.076v.226c-.061.802-.855.639-3.079.911-1.827.238-3.752.687-3.754 2.547-.001.675.295 2.361 3.511 2.364 1.231.001 2.582-.302 3.376-1.105h.061l.257.804 3.176.003v-.144c-.576-.114-.616-.661-.595-1.542l.065-3.724c.02-.945-.078-3.048-4.625-3.053-1.091-.001-4.605.091-4.747 2.932l2.88.003zm10.795 5.531l-3.017-.003.008-8.153 3.018.003-.004 3.066 3.633.004.004-3.066 3.019.003-.01 8.153-3.018-.003.004-3.45-3.633-.004-.004 3.45zm14.284-8.139l3.356.003-4.154 3.815 4.342 4.339-3.533-.003-3.252-3.568h-.059l-.003 3.564-3.019-.003.009-8.154 3.018.003-.004 3.274h.059l3.24-3.271z"/></g><path d="M0 18.749l7.56.007.008-7.33-7.56-.007L0 18.749z" fill="#000"/><path d="M.029 0L.02 9.125l1.998.002c5.26.005 7.924 2.595 7.919 7.696l-.002 1.937 9.409.009.02-18.751L.029 0zm15.333 3.892L15.35 14.89l-1.543-.001c-.66-5.44-4.181-8.861-9.788-9.511l.001-1.497 11.34.011z" fill="#75af26"/></svg>