<svg xmlns="http://www.w3.org/2000/svg" viewBox="0 0 35 35" fill-rule="evenodd"><path d="M17.5.3c9.5 0 17.2 7.8 17.2 17.2 0 9.5-7.8 17.2-17.2 17.2C8 34.8.2 27.1.2 17.5.2 8.1 8 .3 17.5.3" fill="#f91f2b"/><path d="M30.6 11.5h.2c-.1.5-.3.8-.6 1.1-.4.2-.8.3-1.5.3h-.6c-2.2-.1-2.7 2.2-2.5 4 .2 1.1.6 2.2 1.2 3 .6.6 1.4 1 2.2.4.6-.5.8-1.7.8-2.3 0-1.2-.4-3-1.9-3-.4 0-.8.2-1.2.6-.2.3-.3.9-.3 1.6h-.3c-.2-1.4.5-2.6 2-2.7 1.8 0 2.9 1.4 2.9 3.2s-1.1 3.5-2.9 3.5c-1 0-1.7-.3-2.3-1.1-.6-.7-.8-1.8-.8-3.2 0-1.8.3-2.9.8-3.7.6-.8 1.3-1.2 2.4-1.2h.9c.6.1 1 0 1.2-.1.1-.1.3-.2.3-.4m-12.6 3l2.2 4.9 2-4.5.2-.4h1.7v.2h-.2c-.2 0-.5.2-.5.5v3.7 1.5a.47.47 0 0 0 .5.5h.2v.1H23h-1.2v-.2h.2c.2 0 .5-.2.5-.5v-1.5-3.3L20 21h-.1l-2.4-5.6v4.9c0 .3.2.5.4.5h.1v.2h-1.1-.6v-.2h.2c.2 0 .5-.2.5-.5v-5.1c0-.3-.1-.5-.5-.5-.3 0-.6.3-.8.7l-2.3 5.1c-.2.4-.5.6-.9.6L12 21l-.1-.7c.2.2.4.3.5.3.3.1.5 0 .6-.2l.3-.6-2.1-4.3c-.2-.4-.4-.7-.7-.7v-.2h1.2.9v.2h-.2c-.2 0-.2.3-.1.5l1.6 3.4 1.5-3.2c.2-.3 0-.6-.2-.6v-.2H18zm-9.5 4.4v-3.7-.2h-3v.3V19v1.5c0 .3.2.5.4.5h.2 0H5 3.9v-.2H4c.2 0 .4-.2.4-.5v-1.5-3.7c0-.3-.2-.5-.4-.5h-.1v-.2H5h.2 1 1.7.8.3 1.1v.2H10c-.2 0-.4.2-.4.5v3.7 1.5c0 .3.2.5.4.5h.2v.2H9.1 7.9v-.2h.2c.2 0 .4-.2.4-.5v-1.4z" fill="#fff"/></svg>