<svg width="72" height="72" viewBox="0 0 72 72" fill="none" xmlns="http://www.w3.org/2000/svg">
<g clip-path="url(#clip0_2906_57364)">
<path d="M36 72C51.7753 72 60.5449 72 66.2724 66.2724C72 60.5449 72 51.7805 72 36C72 20.2195 72 11.4551 66.2724 5.72757C60.5449 0 51.7753 0 36 0C20.2247 0 11.4551 0 5.72757 5.72757C0 11.4551 0 20.2247 0 36C0 51.7753 0 60.5449 5.72757 66.2724C11.4551 72 20.2247 72 36 72Z" fill="black"/>
<path d="M49.5207 28.8818C46.8012 28.8818 44.7828 30.9812 44.7828 33.5715C44.7828 35.6865 46.2699 37.3367 48.1525 37.825L44.2932 43.7367H47.8979L51.1788 38.235H53.6346V43.7367H56.644V28.8818H49.5207ZM49.9346 35.7218C48.6969 35.7218 47.9306 34.7504 47.9306 33.6433C47.9306 32.5361 48.6329 31.4813 49.9346 31.4813H53.6385V35.7218H49.9346Z" fill="white"/>
<path d="M33.0402 28.8818L32.0414 31.6314L36.1396 31.6079L33.7125 40.5093C33.0206 43.1048 35.7257 45.0658 38.034 43.5395L43.2838 39.978L41.7379 37.7062L36.4947 41.3383L40.0289 28.8818H33.0402Z" fill="white"/>
<path d="M38.6921 26.972C39.8423 26.972 40.7746 26.132 40.7746 25.0958C40.7746 24.0597 39.8423 23.2197 38.6921 23.2197C37.5421 23.2197 36.6097 24.0597 36.6097 25.0958C36.6097 26.132 37.5421 26.972 38.6921 26.972Z" fill="white"/>
<path d="M28.0699 40.995V25.4299H16.522V33.7373C16.522 37.6462 15.3901 40.0629 14.723 40.9885H13.3547V47.7775H16.2831V43.7642H27.2317V47.7841H30.1588V40.995H28.0699ZM19.4335 33.5663V28.1912H25.067V40.9859H17.795C18.4543 39.9075 19.4335 37.1632 19.4335 33.5663Z" fill="white"/>
</g>
<defs>
<clipPath id="clip0_2906_57364">
<rect width="72" height="72" fill="white"/>
</clipPath>
</defs>
</svg>
