<svg width="125" height="125" viewBox="0 0 125 125" fill="none" xmlns="http://www.w3.org/2000/svg">
<path fill-rule="evenodd" clip-rule="evenodd" d="M90.0499 5.05382C88.413 4.25834 86.4413 4.94039 85.6458 6.57722L83.295 11.4143L80.8094 4.25748C80.2124 2.53833 78.3347 1.6287 76.6155 2.22578C74.8964 2.82285 73.9867 4.70053 74.5838 6.41969L79.2262 19.7865L76.7805 24.8191L74.2948 17.6621C73.6977 15.943 71.82 15.0334 70.1009 15.6304C68.3817 16.2275 67.4721 18.1052 68.0692 19.8244L72.7117 33.1914L62.4929 54.2181L54.914 32.0559L60.9911 19.3255C61.7751 17.6832 61.0793 15.7162 59.4369 14.9322C57.7946 14.1482 55.8276 14.844 55.0436 16.4864L51.866 23.1429L50.2023 18.2777L56.2804 5.54503C57.0644 3.90267 56.3686 1.93572 54.7263 1.15171C53.0839 0.367699 51.117 1.06354 50.3329 2.70588L47.1542 9.36472L45.3813 4.18023C44.7924 2.45825 42.9191 1.53968 41.1971 2.12856C39.4751 2.71743 38.5565 4.59076 39.1454 6.31273L41.0204 11.7955L34.0433 8.41551C32.4054 7.62208 30.4345 8.3066 29.6411 9.94442C28.8477 11.5822 29.5322 13.5532 31.17 14.3466L44.0219 20.5726L45.7333 25.5771L38.7536 22.1958C37.1157 21.4024 35.1448 22.0869 34.3514 23.7247C33.558 25.3625 34.2425 27.3335 35.8803 28.1269L48.7349 34.3542L56.2814 56.4218L35.1209 46.138L30.5119 32.7596C29.9192 31.0389 28.0438 30.1246 26.3231 30.7174C24.6025 31.3102 23.6882 33.1856 24.2809 34.9062L26.7486 42.0692L21.9862 39.7547L17.3772 26.3762C16.7844 24.6556 14.909 23.7413 13.1884 24.334C11.4678 24.9268 10.5534 26.8022 11.1462 28.5229L13.6139 35.6859L8.64162 33.2694C7.0048 32.474 5.03302 33.156 4.23755 34.7928C3.44207 36.4297 4.12412 38.4014 5.76094 39.1969L10.697 41.5958L3.53746 44.0164C1.81343 44.5993 0.888356 46.4694 1.47124 48.1934C2.05411 49.9174 3.92422 50.8425 5.64825 50.2596L19.139 45.6985L23.8316 47.979L16.6723 50.3995C14.9483 50.9824 14.0232 52.8525 14.6061 54.5765C15.1889 56.3006 17.0591 57.2256 18.7831 56.6428L32.2736 52.0817L53.3698 62.3342L31.3249 70.0466L18.5378 63.8124C16.9019 63.0149 14.9293 63.6945 14.1318 65.3303C13.3342 66.9662 14.0138 68.9388 15.6497 69.7363L22.5691 73.1098L17.6769 74.8213L4.89239 68.5884C3.25656 67.7909 1.28393 68.4705 0.486405 70.1063C-0.311117 71.7421 0.368466 73.7147 2.0043 74.5123L8.92119 77.8845L3.38547 79.8212C1.66767 80.4221 0.7623 82.3019 1.36326 84.0197C1.96424 85.7375 3.84397 86.6428 5.56177 86.0419L10.878 84.182L7.58062 90.8478C6.77371 92.479 7.44194 94.4555 9.07317 95.2625C10.7044 96.0694 12.6809 95.4011 13.4878 93.7699L19.7693 81.0714L24.5218 79.4087L21.2255 86.0723C20.4186 87.7035 21.0869 89.68 22.7181 90.4869C24.3493 91.2938 26.3258 90.6256 27.1327 88.9944L33.4131 76.2981L55.5212 68.5636L45.2656 89.6662L31.8872 94.2752C30.1665 94.868 29.2522 96.7434 29.845 98.464C30.4377 100.185 32.3131 101.099 34.0338 100.506L41.1968 98.0385L38.8171 102.935L25.4384 107.544C23.7177 108.137 22.8034 110.012 23.3962 111.733C23.989 113.454 25.8644 114.368 27.585 113.775L34.7483 111.307L32.3859 116.168C31.5905 117.805 32.2725 119.777 33.9093 120.572C35.5462 121.368 37.5179 120.686 38.3134 119.049L40.6579 114.225L43.0783 121.384C43.6612 123.108 45.5313 124.033 47.2553 123.45C48.9794 122.867 49.9044 120.997 49.3216 119.273L44.7606 105.783L47.107 100.955L49.5275 108.114C50.1104 109.838 51.9805 110.763 53.7045 110.18C55.4286 109.597 56.3536 107.727 55.7708 106.003L51.2097 92.5127L61.4311 71.4805L69.0362 93.7191L62.9438 106.481C62.1598 108.124 62.8557 110.091 64.498 110.875C66.1404 111.659 68.1073 110.963 68.8913 109.321L72.0842 102.632L73.6792 107.296L67.6178 119.994C66.8338 121.636 67.5296 123.603 69.1719 124.387C70.8143 125.171 72.7813 124.475 73.5653 122.833L76.7272 116.209L78.5725 121.605C79.1613 123.327 81.0347 124.246 82.7566 123.657C84.4786 123.068 85.3972 121.195 84.8083 119.473L82.8433 113.727L89.8552 117.123C91.493 117.917 93.4639 117.232 94.2573 115.594C95.0508 113.957 94.3663 111.986 92.7284 111.192L79.8418 104.95L78.233 100.245L85.1806 103.611C86.8184 104.404 88.7893 103.72 89.5828 102.082C90.3762 100.444 89.6917 98.4731 88.0538 97.6797L75.2314 91.468L67.6401 69.2694L89.0185 79.659L93.7679 93.0843C94.3748 94.8 96.2577 95.6988 97.9734 95.0919C99.6891 94.4849 100.588 92.6021 99.9809 90.8864L97.4605 83.7617L102.154 86.0428L106.833 99.268C107.44 100.984 109.323 101.882 111.038 101.276C112.754 100.669 113.653 98.7857 113.046 97.07L110.596 90.1455L115.352 92.4568C116.989 93.2522 118.961 92.5702 119.756 90.9334C120.552 89.2965 119.87 87.3248 118.233 86.5293L113.17 84.0688L120.527 81.5137C122.246 80.9167 123.156 79.039 122.559 77.3198C121.962 75.6007 120.084 74.691 118.365 75.2881L104.798 80L100.304 77.8163L107.461 75.3307C109.18 74.7337 110.09 72.856 109.493 71.1368C108.896 69.4177 107.018 68.508 105.299 69.1051L91.9322 73.7475L70.4898 63.3268L92.5404 55.6125L105.538 61.8172C107.181 62.6012 109.148 61.9054 109.932 60.263C110.716 58.6207 110.02 56.6537 108.377 55.8697L101.369 52.5239L106.59 50.6971L119.316 56.7716C120.958 57.5556 122.925 56.8598 123.709 55.2175C124.493 53.5751 123.797 51.6081 122.155 50.8241L115.419 47.6085L120.574 45.8049C122.292 45.204 123.197 43.3242 122.596 41.6064C121.995 39.8886 120.115 38.9833 118.398 39.5842L113.1 41.4377L116.444 34.5343C117.238 32.8965 116.553 30.9256 114.915 30.1322C113.277 29.3387 111.306 30.0233 110.513 31.6611L104.282 44.5225L99.4557 46.2111L102.668 39.5799C103.462 37.9421 102.777 35.9712 101.139 35.1777C99.5013 34.3843 97.5304 35.0688 96.737 36.7067L90.6383 49.2959L68.438 57.0626L78.6231 36.105L92.0483 31.3557C93.764 30.7488 94.6628 28.8659 94.0558 27.1502C93.4489 25.4345 91.566 24.5357 89.8503 25.1426L82.7258 27.663L85.1372 22.7012L98.5623 17.952C100.278 17.345 101.177 15.4621 100.57 13.7464C99.963 12.0307 98.0801 11.1319 96.3644 11.7389L89.2399 14.2592L91.5733 9.4579C92.3687 7.82107 91.6867 5.8493 90.0499 5.05382Z" fill="url(#paint0_radial_9_2805)"/>
<defs>
<radialGradient id="paint0_radial_9_2805" cx="0" cy="0" r="1" gradientUnits="userSpaceOnUse" gradientTransform="translate(66.4953 61.3351) rotate(-65.8978) scale(55.2884)">
<stop stop-color="#A3E9FF"/>
<stop offset="1" stop-color="white"/>
</radialGradient>
</defs>
</svg>
