<svg width="104" height="56" viewBox="0 0 104 56" fill="none" xmlns="http://www.w3.org/2000/svg">
<path d="M39.617 37.1211C38.476 36.6984 37.2596 36.4065 36.2061 35.8281C32.5727 33.8271 30.6906 29.693 31.5125 25.7866C32.3954 21.591 35.7123 18.5195 39.928 18.0432C40.7063 17.9555 41.5031 18.0301 42.4561 18.0301C41.8446 18.9527 41.3099 19.7785 40.7434 20.5833C40.6679 20.6906 40.4363 20.709 40.2722 20.7338C36.8176 21.2599 34.4946 23.6496 34.1267 27.0587C33.7335 30.7164 36.889 34.2224 40.6282 34.416C44.6613 34.6254 48.1305 31.5029 48.0391 27.4264C48.0206 26.6019 47.6923 25.7879 47.5467 24.9609C47.5004 24.6978 47.4925 24.3628 47.6195 24.1469C48.0338 23.4402 48.5196 22.7741 49.0186 22.0307C49.9584 23.3067 50.4852 24.6546 50.7168 26.1216C51.548 31.393 47.7916 36.1971 42.7539 37.0059C42.6732 37.019 42.6004 37.0805 42.525 37.1198C41.5561 37.1211 40.5859 37.1211 39.617 37.1211Z" fill="#114C8D"/>
<path d="M104 25.4163C103.962 25.4922 103.906 25.5628 103.888 25.6427C103.306 28.2181 101.461 29.7349 98.7559 29.8252C97.8135 29.8566 96.8697 29.8304 95.8307 29.8304C95.8307 30.9664 95.8307 32.0408 95.8307 33.1165C95.8307 34.1726 95.8307 35.2287 95.8307 36.3241C94.6143 36.3241 93.4627 36.3241 92.2768 36.3241C92.2768 30.4756 92.2768 24.6625 92.2768 18.7708C93.0193 18.7708 93.7394 18.759 94.4581 18.7734C96.1285 18.8075 97.8121 18.7302 99.464 18.9239C101.804 19.1974 103.337 20.7194 103.865 22.9769C103.894 23.1012 103.954 23.2177 104 23.3368C104 24.0278 104 24.7214 104 25.4163ZM95.8704 26.827C96.6725 26.827 97.4468 26.9016 98.2 26.81C99.4905 26.6543 100.29 25.7369 100.404 24.4348C100.498 23.3525 99.8333 22.2453 98.7519 21.9875C97.8333 21.769 96.8631 21.7651 95.8704 21.6604C95.8704 23.4834 95.8704 25.1375 95.8704 26.827Z" fill="#114C8D"/>
<path d="M0 18.8088C4.76897 18.8088 9.49293 18.8088 14.246 18.8088C14.246 24.6625 14.246 30.4769 14.246 36.3254C13.0521 36.3254 11.8979 36.3254 10.6776 36.3254C10.6776 31.5121 10.6776 26.7354 10.6776 21.9247C8.28712 21.9247 5.96286 21.9247 3.56845 21.9247C3.56845 26.7132 3.56845 31.4898 3.56845 36.3149C2.34676 36.3149 1.1939 36.3149 0 36.3149C0 30.4966 0 24.6795 0 18.8088Z" fill="#114C8D"/>
<path d="M21.3816 29.8331C21.3816 32.0604 21.3816 34.1752 21.3816 36.3267C20.1877 36.3267 19.0507 36.3267 17.8621 36.3267C17.8621 30.5123 17.8621 24.6965 17.8621 18.8624C17.874 18.8519 17.9071 18.7996 17.9389 18.7996C20.3346 18.8323 22.7449 18.7302 25.1248 18.9462C27.5761 19.1686 29.3696 21.2128 29.5483 23.6456C29.6978 25.6859 29.2809 27.5389 27.4676 28.8214C26.5106 29.4993 25.408 29.7872 24.2459 29.8278C23.326 29.8579 22.4034 29.8331 21.3816 29.8331ZM21.4213 26.8453C22.1956 26.8453 22.9024 26.8872 23.6026 26.8362C24.8667 26.7446 25.686 25.9659 25.915 24.7201C26.1201 23.6011 25.596 22.5136 24.5953 22.0713C23.5775 21.6211 22.5067 21.735 21.4213 21.7821C21.4213 23.4925 21.4213 25.131 21.4213 26.8453Z" fill="#114C8D"/>
<path d="M66.4479 31.7895C66.4479 33.0668 66.4638 34.2328 66.4307 35.3962C66.4254 35.5742 66.2388 35.836 66.068 35.9079C59.9966 38.5214 53.5056 35.0704 52.7009 29.0492C52.2045 25.3404 53.2211 22.1014 56.4467 19.9342C59.4434 17.9215 62.7405 17.8403 66.0574 19.2668C66.2374 19.344 66.4241 19.6385 66.4294 19.8361C66.4651 20.9825 66.4466 22.1302 66.4466 23.448C65.0581 22.0569 63.483 21.3607 61.6127 21.5151C59.7187 21.6708 58.2375 22.5542 57.2065 24.1351C55.5427 26.6844 55.9742 30.2361 58.1727 32.1546C60.5247 34.2067 63.6193 34.0993 66.4479 31.7895Z" fill="#114C8D"/>
<path d="M73.9911 21.8946C72.6278 21.8946 71.3783 21.8946 70.0679 21.8946C70.0679 20.8555 70.0679 19.8557 70.0679 18.8153C73.8588 18.8153 77.6549 18.8153 81.4907 18.8153C81.4907 19.8138 81.4907 20.8006 81.4907 21.8593C80.2174 21.8593 78.9321 21.8593 77.5821 21.8593C77.5821 26.704 77.5821 31.4768 77.5821 36.3005C76.367 36.3005 75.2155 36.3005 73.9911 36.3005C73.9911 31.5304 73.9911 26.7577 73.9911 21.8946Z" fill="#114C8D"/>
<path d="M85.12 36.3162C85.12 30.456 85.12 24.6572 85.12 18.814C86.294 18.814 87.4456 18.814 88.6368 18.814C88.6368 24.6415 88.6368 30.456 88.6368 36.3162C87.4773 36.3162 86.3258 36.3162 85.12 36.3162Z" fill="#114C8D"/>
<path d="M36.8784 27.6148C36.7553 25.3888 38.6732 23.4362 40.9644 23.3577C43.3416 23.2753 45.3998 25.2566 45.3654 27.5926C45.3323 29.8828 43.3946 31.7961 41.1299 31.7293C41.1299 30.9624 41.1299 30.1929 41.1299 29.3933C41.3535 29.3227 41.6077 29.2677 41.8393 29.1643C42.5977 28.8241 43.0226 28.0088 42.8545 27.2484C42.6745 26.4305 42.0167 25.8521 41.2119 25.8036C40.3714 25.7539 39.5561 26.2748 39.3867 27.0888C39.2927 27.5403 39.1114 27.6449 38.6918 27.624C38.1028 27.5926 37.5111 27.6148 36.8784 27.6148Z" fill="#FFCC0B"/>
</svg>
