<svg width="100" height="44" viewBox="0 0 100 44" fill="none" xmlns="http://www.w3.org/2000/svg">
<path d="M40.442 23.252L35.4275 36.9088L34.8908 34.1338C33.6438 30.7316 30.9392 27.1646 27.7927 25.7187L32.3757 43.2507H37.7953L45.8563 23.2574H40.442V23.252Z" fill="#025EA3"/>
<path d="M44.7356 43.2667L47.94 23.2308H53.0597L49.8553 43.2667H44.7356Z" fill="#025EA3"/>
<path d="M68.4346 23.7252C67.4244 23.3212 65.8248 22.8799 63.8463 22.8799C58.7793 22.8799 55.2223 25.6017 55.1907 29.493C55.1592 32.3742 57.7374 33.985 59.6738 34.9419C61.6732 35.92 62.3415 36.5526 62.3362 37.4244C62.3152 38.7694 60.7366 39.3807 59.2686 39.3807C57.2218 39.3807 56.1326 39.0777 54.4541 38.3334L53.7911 38.0145L53.0755 42.4959C54.2752 43.054 56.4851 43.5378 58.7845 43.5644C64.1621 43.5644 67.6559 40.8745 67.698 36.7227C67.719 34.4368 66.351 32.7092 63.3938 31.2792C61.6101 30.3489 60.5051 29.7375 60.5209 28.7913C60.5209 27.962 61.447 27.0689 63.457 27.0689C65.1355 27.0423 66.3404 27.4304 67.2875 27.8397L67.7453 28.0683L68.4346 23.7252Z" fill="#025EA3"/>
<path d="M81.5628 23.252H77.6059C76.3799 23.252 75.4591 23.6029 74.9172 24.9159L67.3192 43.272H72.6967C72.6967 43.272 73.5754 40.8001 73.7753 40.2578C74.3594 40.2578 79.5843 40.2685 80.3315 40.2685C80.4894 40.9648 80.9524 43.2667 80.9524 43.2667H85.709L81.5628 23.252ZM75.2486 36.1645C75.6748 35.0163 77.2902 30.5615 77.2902 30.5615C77.2586 30.6147 77.7111 29.4026 77.969 28.6531L78.311 30.3808C78.311 30.3808 79.2949 35.1598 79.5002 36.1645C78.7056 36.1645 76.2484 36.1645 75.2486 36.1645Z" fill="#025EA3"/>
<path d="M30.7814 23.2414H22.5204L22.473 23.5869C28.8924 25.2455 33.1281 29.3229 34.8961 34.1391L33.1018 24.9319C32.7914 23.6614 31.8916 23.2839 30.7814 23.2414Z" fill="#F1A535"/>
<path d="M7.02973 18.3986H3.76743L0 1.24394L3.60958 0.632599L6.18785 14.0607L12.7493 0.813342H16.2168L7.02973 18.3986Z" fill="#025EA3"/>
<path d="M24.0147 12.7902H16.2273C16.0169 15.1771 17.1113 16.2137 18.9687 16.2137C20.5262 16.2137 21.8943 15.629 23.3728 14.6933L23.3623 17.0802C21.9153 17.9946 20.2473 18.5793 18.2847 18.5793C14.8961 18.5793 12.6546 16.623 13.3281 12.2108C13.9332 8.22912 16.664 5.81567 19.8264 5.81567C23.4675 5.81567 24.6777 8.57998 24.1516 12.0566C24.1095 12.3065 24.0411 12.6148 24.0147 12.7902ZM19.4317 7.91548C18.2268 7.91548 17.1008 8.87767 16.5693 10.8871H21.3944C21.4786 8.98399 20.8893 7.91548 19.4317 7.91548Z" fill="#025EA3"/>
<path d="M29.0871 11.2911L28.0137 18.3188H24.9987L26.8666 6.0602H29.4291V8.5215C30.4499 7.10214 31.839 5.90604 33.7385 5.80504L33.7543 8.82451C31.8548 8.95741 30.1447 9.97276 29.0871 11.2911Z" fill="#025EA3"/>
<path d="M33.7174 18.3241L35.5853 6.06552H38.6003L36.7324 18.3241H33.7174ZM37.4322 4.00824C36.4272 4.00824 35.7327 3.2959 35.8853 2.28055C36.0431 1.23862 36.9587 0.50502 37.9637 0.50502C38.9424 0.50502 39.6369 1.23862 39.4791 2.28055C39.3212 3.30122 38.4109 4.00824 37.4322 4.00824Z" fill="#025EA3"/>
<path d="M46.9508 2.71647C45.9195 2.71647 45.2986 3.17364 45.1302 4.26341L44.8566 6.06552H47.1665V8.5534H44.4777L42.9887 18.3241H40L41.4891 8.5534H39.7316L40.1105 6.06552H41.8679L42.1889 3.9604C42.6046 1.24394 44.4672 0.228592 46.9508 0.228592C47.477 0.228592 47.8716 0.281752 48.1663 0.329595L48.1873 2.81747C47.8926 2.76431 47.4507 2.71647 46.9508 2.71647Z" fill="#025EA3"/>
<path d="M46.9824 18.3241L48.8503 6.06552H51.8653L49.9974 18.3241H46.9824ZM50.6919 4.00824C49.6869 4.00824 48.9924 3.2959 49.1449 2.28055C49.3028 1.23862 50.2183 0.50502 51.2233 0.50502C52.202 0.50502 52.8966 1.23862 52.7387 2.28055C52.5861 3.30122 51.6759 4.00824 50.6919 4.00824Z" fill="#025EA3"/>
<path d="M63.5464 12.7902H55.759C55.5485 15.1771 56.643 16.2137 58.5004 16.2137C60.0579 16.2137 61.4259 15.629 62.9045 14.6933L62.894 17.0802C61.447 17.9946 59.779 18.5793 57.8164 18.5793C54.4278 18.5793 52.1863 16.623 52.8598 12.2108C53.4649 8.22912 56.1957 5.81567 59.3581 5.81567C62.9992 5.81567 64.2094 8.57998 63.6832 12.0566C63.6464 12.3065 63.578 12.6148 63.5464 12.7902ZM58.9634 7.91548C57.7585 7.91548 56.6325 8.87767 56.101 10.8871H60.9208C61.0155 8.98399 60.4209 7.91548 58.9634 7.91548Z" fill="#025EA3"/>
<path d="M72.4757 18.3241L72.4809 16.623C71.4707 17.665 70.15 18.5793 68.4662 18.5793C65.93 18.5793 64.1831 16.6762 64.8145 12.5404C65.5091 7.97395 68.3084 5.94325 71.1181 5.94325C72.2757 5.94325 73.1702 6.14526 73.8595 6.40043L74.7593 0.489069L77.8532 0L75.0645 18.3241H72.4757ZM73.4859 8.90956C72.7861 8.55339 72.2336 8.37797 71.2076 8.37797C69.6238 8.37797 68.2715 9.66975 67.8611 12.3649C67.498 14.7518 68.3347 15.8682 69.6659 15.8682C70.7709 15.8682 71.7232 15.209 72.6861 14.1936L73.4859 8.90956Z" fill="#025EA3"/>
<path d="M84.2989 18.4358C82.8729 18.4358 81.7101 18.2072 80.6262 17.8191L82.6098 4.81095L84.9461 4.44415L84.0884 10.0738C84.7724 9.45711 85.7196 8.84577 86.8824 8.84577C88.824 8.84577 90.1237 10.3077 89.6501 13.4228C89.1292 16.841 87.0403 18.4358 84.2989 18.4358ZM85.9826 10.8818C85.2197 10.8818 84.4567 11.4028 83.7832 12.0938L83.1413 16.3041C83.5885 16.4795 83.9042 16.5539 84.5514 16.5539C85.9984 16.5539 87.0087 15.6715 87.3297 13.5557C87.598 11.7696 87.0087 10.8818 85.9826 10.8818Z" fill="#025EA3"/>
<path d="M95.0276 18.8238C93.8595 21.1097 92.7072 21.8221 90.9392 21.8221C90.5393 21.8221 90.3183 21.7848 90.1184 21.7264L90.1026 19.8232C90.3973 19.8977 90.7077 19.9561 91.1497 19.9561C91.8179 19.9561 92.3967 19.6478 92.7808 18.978L93.086 18.3614L91.1497 9.21258L93.5754 8.90425L94.7014 15.5173L97.7374 9.03715H100L95.0276 18.8238Z" fill="#025EA3"/>
</svg>
