<svg xmlns="http://www.w3.org/2000/svg" width="65" height="41" fill="none" xmlns:v="https://vecta.io/nano"><rect x="9.694" y="6.787" width="45.613" height="27.756" rx="3.67" fill="#fff" stroke="#172a3a" stroke-width=".815"/><path d="M25.245 17.717c-.109.109-.273.218-.382.382-.436.436-.818.927-.927 1.581-.164.872 0 1.69.545 2.399a2.34 2.34 0 0 0 .981.818c.055 0 .109.054.163.054l-.163.436c-.327.818-.763 1.581-1.363 2.235-.109.109-.218.218-.382.327-.436.382-.927.491-1.472.327-.273-.055-.545-.164-.818-.273a2.47 2.47 0 0 0-.872-.163c-.382 0-.709.109-1.036.218-.273.109-.545.218-.818.273-.436.109-.818-.054-1.145-.273-.382-.218-.654-.545-.872-.927-.6-.872-1.09-1.799-1.363-2.835-.327-.927-.382-1.854-.273-2.78.109-.818.436-1.581 1.036-2.18a2.48 2.48 0 0 1 2.235-.818c.436 0 .818.164 1.254.273.163.055.327.109.545.109.273.055.491.055.763-.055a9.19 9.19 0 0 0 .981-.273c.491-.163 1.036-.218 1.526-.109.654.109 1.199.491 1.636.981.109.109.163.164.218.273 0-.055 0-.055 0 0zm-2.563-4.197c0 .164.054.273 0 .436-.055.763-.327 1.417-.872 1.963-.218.273-.491.436-.818.6-.273.109-.545.109-.872.163.109-1.744.927-2.835 2.562-3.162z" fill="#13130a"/><path d="M27.114 25.094h1.934v-3.607h2.043c2.465 0 3.789-1.48 3.789-3.534 0-2.038-1.308-3.534-3.763-3.534h-4.003v10.675zm1.934-5.197v-3.862h1.772c1.449 0 2.09.782 2.09 1.918s-.641 1.944-2.08 1.944h-1.783zm9.428 5.358c1.256 0 2.007-.589 2.351-1.261h.063v1.1h1.814v-5.358c0-2.116-1.725-2.752-3.253-2.752-1.684 0-2.976.751-3.393 2.21l1.762.25c.188-.547.719-1.016 1.642-1.016.876 0 1.355.448 1.355 1.235v.031c0 .542-.568.568-1.981.719-1.553.167-3.039.631-3.039 2.434 0 1.574 1.152 2.408 2.679 2.408zm.49-1.386c-.787 0-1.35-.36-1.35-1.053 0-.724.631-1.027 1.475-1.147.495-.068 1.486-.193 1.73-.391v.943c0 .891-.719 1.647-1.856 1.647zm6.359 4.227c1.47 0 2.319-.756 2.773-2.033l3.216-8.965-2.017-.011-1.85 6.046h-.083l-1.845-6.046h-2.002l2.903 8.173-.162.433c-.349.912-.902.975-1.725.735l-.438 1.47c.255.104.714.198 1.23.198z" fill="#172a3a"/></svg>