<svg xmlns="http://www.w3.org/2000/svg" width="65" height="41" fill="none" xmlns:v="https://vecta.io/nano"><path d="M45.121 6.512H19.978c-7.857 0-14.286 6.417-14.286 14.26s6.429 14.26 14.286 14.26h25.143c7.857 0 14.286-6.417 14.286-14.26s-6.429-14.26-14.286-14.26z" fill="#fff"/><path d="M45.121 7.667a12.98 12.98 0 0 1 5.093 1.034c1.564.663 2.964 1.611 4.179 2.816a13.14 13.14 0 0 1 2.821 4.171 12.91 12.91 0 0 1 1.036 5.084c0 1.761-.35 3.472-1.036 5.084a13.22 13.22 0 0 1-2.821 4.171c-1.207 1.205-2.614 2.153-4.179 2.816a12.98 12.98 0 0 1-5.093 1.034H19.978a12.98 12.98 0 0 1-5.093-1.034 13.24 13.24 0 0 1-4.178-2.816 13.14 13.14 0 0 1-2.821-4.171C7.2 24.244 6.85 22.533 6.85 20.772s.35-3.472 1.036-5.084c.664-1.562 1.614-2.959 2.821-4.171 1.207-1.205 2.614-2.153 4.179-2.816a12.98 12.98 0 0 1 5.093-1.034h25.143zm0-1.155H19.978c-7.857 0-14.286 6.417-14.286 14.26s6.429 14.26 14.286 14.26h25.143c7.857 0 14.286-6.417 14.286-14.26s-6.429-14.26-14.286-14.26zM31.305 21.784v4.314h-1.371V15.445h3.636c.921 0 1.707.307 2.35.92.657.613.986 1.362.986 2.246a2.94 2.94 0 0 1-.986 2.26c-.636.606-1.421.906-2.35.906h-2.264v.007zm0-5.027v3.715h2.293c.543 0 1-.185 1.357-.549.364-.364.55-.806.55-1.305 0-.492-.186-.927-.55-1.291-.357-.378-.807-.563-1.357-.563h-2.293v-.007zm9.186 1.813c1.014 0 1.814.271 2.4.813s.879 1.284.879 2.225V26.1h-1.307v-1.012h-.057c-.564.834-1.322 1.248-2.264 1.248-.807 0-1.479-.235-2.021-.713s-.814-1.07-.814-1.782a2.15 2.15 0 0 1 .857-1.797c.571-.449 1.336-.67 2.286-.67.814 0 1.486.15 2.007.449v-.314c0-.478-.186-.877-.564-1.212s-.821-.499-1.329-.499a2.08 2.08 0 0 0-1.814.97l-1.207-.756c.664-.963 1.65-1.44 2.95-1.44zm-1.771 5.291c0 .357.15.656.457.891a1.68 1.68 0 0 0 1.064.357c.579 0 1.093-.214 1.543-.642s.679-.927.679-1.504c-.429-.335-1.021-.506-1.786-.506-.557 0-1.021.136-1.393.399-.379.278-.564.613-.564 1.005zm12.508-5.056L46.656 29.3h-1.414l1.7-3.672-3.014-6.823h1.493l2.171 5.233h.029l2.114-5.233h1.493z" fill="#3c4043"/><path d="M25.851 20.913a7.2 7.2 0 0 0-.114-1.284h-5.749v2.353l3.311.001a2.83 2.83 0 0 1-1.229 1.895v1.527h1.971c1.151-1.063 1.81-2.635 1.81-4.491z" fill="#4285f4"/><path d="M22.072 23.877c-.549.369-1.255.585-2.081.585-1.597 0-2.951-1.074-3.436-2.521h-2.033v1.574a6.12 6.12 0 0 0 5.469 3.364c1.653 0 3.041-.543 4.052-1.477l-1.971-1.526z" fill="#34a853"/><path d="M16.362 20.774c0-.406.068-.799.191-1.169v-1.574h-2.033a6.07 6.07 0 0 0-.651 2.743c0 .987.235 1.918.651 2.743l2.033-1.574c-.124-.369-.191-.762-.191-1.169z" fill="#fabb05"/><path d="M19.99 17.085c.902 0 1.71.31 2.348.916l1.746-1.742c-1.061-.986-2.443-1.591-4.094-1.591a6.12 6.12 0 0 0-5.469 3.364l2.033 1.574c.485-1.447 1.839-2.521 3.436-2.521z" fill="#e94235"/></svg>