<svg width="32" height="33" viewBox="0 0 32 33" fill="none" xmlns="http://www.w3.org/2000/svg">
<path d="M5 14.6C5 13.1356 5.00083 12.0994 5.0691 11.2904C5.13634 10.4936 5.2636 10.0085 5.46494 9.62828C5.84014 8.91965 6.41965 8.34014 7.12828 7.96494C7.50855 7.7636 7.99358 7.63634 8.79038 7.5691C9.59945 7.50083 10.6356 7.5 12.1 7.5H19.9C21.3644 7.5 22.4006 7.50083 23.2096 7.5691C24.0064 7.63634 24.4915 7.7636 24.8717 7.96494C25.5803 8.34014 26.1599 8.91965 26.5351 9.62828C26.7364 10.0085 26.8637 10.4936 26.9309 11.2904C26.9992 12.0994 27 13.1356 27 14.6V18.9377C27 19.4813 26.999 19.6879 26.9844 19.8528C26.8135 21.7833 25.2833 23.3135 23.3528 23.4844C23.1879 23.499 22.9813 23.5 22.4377 23.5H20.5836C19.2343 23.5 18.0008 24.2623 17.3974 25.4692C16.8216 26.6207 15.1784 26.6207 14.6026 25.4692C13.9992 24.2623 12.7657 23.5 11.4164 23.5H9.56231C9.01873 23.5 8.81213 23.499 8.64715 23.4844C6.71673 23.3135 5.18655 21.7833 5.01559 19.8528C5.00098 19.6879 5 19.4813 5 18.9377V14.6Z" stroke="#64B3F7" stroke-width="2"/>
<circle cx="11" cy="13.5" r="2" fill="#64B3F7"/>
<circle cx="13" cy="18.5" r="1" fill="#64B3F7"/>
<circle cx="19" cy="18.5" r="1" fill="#64B3F7"/>
<circle cx="21" cy="13.5" r="2" fill="#64B3F7"/>
<path d="M27 10.5C29.2091 10.5 31 12.2909 31 14.5C31 16.7091 29.2091 18.5 27 18.5V10.5Z" fill="#64B3F7"/>
<path d="M5 10.5C2.79086 10.5 1 12.2909 1 14.5C1 16.7091 2.79086 18.5 5 18.5V10.5Z" fill="#64B3F7"/>
<path d="M19 18.5V18.5C19 19.0523 18.5523 19.5 18 19.5H14C13.4477 19.5 13 19.0523 13 18.5V18.5" stroke="#64B3F7" stroke-width="2"/>
</svg>
