<svg width="32" height="33" viewBox="0 0 32 33" fill="none" xmlns="http://www.w3.org/2000/svg">
<mask id="path-1-inside-1" fill="white">
<path fill-rule="evenodd" clip-rule="evenodd" d="M20.61 6.36937C20.3448 6.36937 20.0904 6.26401 19.9029 6.07648L16.7067 2.88033C16.3162 2.4898 15.683 2.4898 15.2925 2.88033L12.0964 6.07648C11.9088 6.26401 11.6545 6.36937 11.3893 6.36937L6.86936 6.36937C6.31707 6.36937 5.86936 6.81708 5.86936 7.36937L5.86936 11.8893C5.86936 12.1545 5.764 12.4088 5.57647 12.5964L2.38002 15.7928C1.98949 16.1833 1.98949 16.8165 2.38002 17.207L5.57646 20.4035C5.764 20.591 5.86936 20.8454 5.86936 21.1106L5.86936 25.6304C5.86936 26.1827 6.31707 26.6304 6.86936 26.6304L11.3892 26.6304C11.6544 26.6304 11.9087 26.7357 12.0963 26.9233L15.2925 30.1195C15.683 30.51 16.3162 30.51 16.7067 30.1195L19.903 26.9233C20.0905 26.7357 20.3449 26.6304 20.6101 26.6304L25.1304 26.6304C25.6827 26.6304 26.1304 26.1827 26.1304 25.6304L26.1304 21.1101C26.1304 20.8449 26.2357 20.5905 26.4233 20.403L29.6192 17.207C30.0097 16.8165 30.0097 16.1833 29.6192 15.7928L26.4233 12.5969C26.2357 12.4093 26.1304 12.155 26.1304 11.8898L26.1304 7.36937C26.1304 6.81708 25.6827 6.36937 25.1304 6.36937L20.61 6.36937Z"/>
</mask>
<path d="M26.4233 12.5969L25.0091 14.0111L26.4233 12.5969ZM29.6192 17.207L28.205 15.7928L29.6192 17.207ZM29.6192 15.7928L31.0334 14.3786L29.6192 15.7928ZM26.4233 20.403L27.8375 21.8172L26.4233 20.403ZM25.1304 26.6304L25.1304 28.6304L25.1304 26.6304ZM20.6101 26.6304L20.6101 28.6304L20.6101 26.6304ZM15.2925 30.1195L16.7067 28.7053L15.2925 30.1195ZM16.7067 30.1195L15.2925 28.7053L16.7067 30.1195ZM11.3892 26.6304L11.3892 28.6304L11.3892 26.6304ZM6.86936 26.6304L6.86936 28.6304L6.86936 26.6304ZM5.57646 20.4035L6.99068 18.9893L5.57646 20.4035ZM2.38002 15.7928L0.965803 14.3786L2.38002 15.7928ZM2.38002 17.207L3.79423 15.7928L2.38002 17.207ZM5.57647 12.5964L4.16225 11.1822L5.57647 12.5964ZM12.0964 6.07648L10.6821 4.66226L12.0964 6.07648ZM11.3893 6.36937L11.3893 4.36937L11.3893 6.36937ZM19.9029 6.07648L21.3171 4.66226L19.9029 6.07648ZM15.2925 2.88033L16.7067 4.29454L15.2925 2.88033ZM15.2925 4.29454L18.4887 7.49069L21.3171 4.66226L18.1209 1.46611L15.2925 4.29454ZM13.5106 7.49069L16.7067 4.29454L13.8783 1.46611L10.6821 4.66226L13.5106 7.49069ZM6.86936 8.36937L11.3893 8.36937L11.3893 4.36937L6.86936 4.36937L6.86936 8.36937ZM7.86936 11.8893L7.86936 7.36937L3.86936 7.36937L3.86936 11.8893L7.86936 11.8893ZM3.79423 17.207L6.99068 14.0106L4.16225 11.1822L0.965803 14.3786L3.79423 17.207ZM6.99068 18.9893L3.79423 15.7928L0.965802 18.6212L4.16225 21.8177L6.99068 18.9893ZM7.86936 25.6304L7.86936 21.1106L3.86936 21.1106L3.86936 25.6304L7.86936 25.6304ZM11.3892 24.6304L6.86936 24.6304L6.86936 28.6304L11.3892 28.6304L11.3892 24.6304ZM16.7067 28.7053L13.5105 25.5091L10.6821 28.3375L13.8783 31.5337L16.7067 28.7053ZM18.4887 25.5091L15.2925 28.7053L18.1209 31.5337L21.3172 28.3375L18.4887 25.5091ZM25.1304 24.6304L20.6101 24.6304L20.6101 28.6304L25.1304 28.6304L25.1304 24.6304ZM24.1304 21.1101L24.1304 25.6304L28.1304 25.6304L28.1304 21.1101L24.1304 21.1101ZM28.205 15.7928L25.0091 18.9888L27.8375 21.8172L31.0334 18.6212L28.205 15.7928ZM25.0091 14.0111L28.205 17.207L31.0334 14.3786L27.8375 11.1827L25.0091 14.0111ZM24.1304 7.36937L24.1304 11.8898L28.1304 11.8898L28.1304 7.36937L24.1304 7.36937ZM20.61 8.36937L25.1304 8.36937L25.1304 4.36937L20.61 4.36937L20.61 8.36937ZM28.1304 7.36937C28.1304 5.71252 26.7872 4.36937 25.1304 4.36937L25.1304 8.36937C24.5781 8.36937 24.1304 7.92165 24.1304 7.36937L28.1304 7.36937ZM27.8375 11.1827C28.025 11.3702 28.1304 11.6246 28.1304 11.8898L24.1304 11.8898C24.1304 12.6854 24.4465 13.4485 25.0091 14.0111L27.8375 11.1827ZM31.0334 18.6212C32.205 17.4497 32.205 15.5502 31.0334 14.3786L28.205 17.207C27.8145 16.8165 27.8145 16.1833 28.205 15.7928L31.0334 18.6212ZM28.1304 21.1101C28.1304 21.3753 28.025 21.6297 27.8375 21.8172L25.0091 18.9888C24.4464 19.5514 24.1304 20.3144 24.1304 21.1101L28.1304 21.1101ZM25.1304 28.6304C26.7872 28.6304 28.1304 27.2872 28.1304 25.6304L24.1304 25.6304C24.1304 25.0781 24.5781 24.6304 25.1304 24.6304L25.1304 28.6304ZM21.3172 28.3375C21.1296 28.525 20.8753 28.6304 20.6101 28.6304L20.6101 24.6304C19.8144 24.6304 19.0514 24.9465 18.4887 25.5091L21.3172 28.3375ZM13.8783 31.5337C15.0499 32.7053 16.9494 32.7053 18.1209 31.5337L15.2925 28.7053C15.683 28.3148 16.3162 28.3148 16.7067 28.7053L13.8783 31.5337ZM11.3892 28.6304C11.1239 28.6304 10.8696 28.525 10.6821 28.3375L13.5105 25.5091C12.9479 24.9465 12.1848 24.6304 11.3892 24.6304L11.3892 28.6304ZM3.86936 25.6304C3.86936 27.2872 5.2125 28.6304 6.86936 28.6304L6.86936 24.6304C7.42164 24.6304 7.86936 25.0781 7.86936 25.6304L3.86936 25.6304ZM4.16225 21.8177C3.97471 21.6302 3.86936 21.3758 3.86936 21.1106L7.86936 21.1106C7.86936 20.3149 7.55329 19.5519 6.99068 18.9893L4.16225 21.8177ZM0.965803 14.3786C-0.205767 15.5502 -0.205771 17.4497 0.965802 18.6212L3.79423 15.7928C4.18476 16.1833 4.18475 16.8165 3.79423 17.207L0.965803 14.3786ZM3.86936 11.8893C3.86936 11.624 3.97471 11.3697 4.16225 11.1822L6.99068 14.0106C7.55329 13.448 7.86936 12.6849 7.86936 11.8893L3.86936 11.8893ZM6.86936 4.36937C5.21251 4.36937 3.86936 5.71251 3.86936 7.36937L7.86936 7.36937C7.86936 7.92165 7.42164 8.36937 6.86936 8.36937L6.86936 4.36937ZM10.6821 4.66226C10.8697 4.47473 11.124 4.36937 11.3893 4.36937L11.3893 8.36937C12.1849 8.36937 12.948 8.0533 13.5106 7.49069L10.6821 4.66226ZM18.4887 7.49069C19.0513 8.0533 19.8143 8.36937 20.61 8.36937L20.61 4.36937C20.8752 4.36937 21.1296 4.47473 21.3171 4.66226L18.4887 7.49069ZM18.1209 1.46611C16.9494 0.294538 15.0499 0.29454 13.8783 1.46611L16.7067 4.29454C16.3162 4.68506 15.683 4.68506 15.2925 4.29454L18.1209 1.46611Z" fill="#64B3F7" mask="url(#path-1-inside-1)"/>
<path d="M12 16.5L14 18.5L19 13.5" stroke="#64B3F7" stroke-width="2" stroke-linecap="round" stroke-linejoin="round"/>
</svg>
