<svg width="32" height="33" viewBox="0 0 32 33" fill="none" xmlns="http://www.w3.org/2000/svg">
<path d="M27 8.27255V17.5C27 20.3401 25.2566 22.8534 22.9724 24.911C20.7078 26.9511 18.0696 28.3979 16.6333 29.1047C16.2162 29.3099 15.7426 29.3172 15.3237 29.1262C13.8854 28.4704 11.2606 27.1153 9.01043 25.1103C6.75157 23.0975 5 20.5504 5 17.5V8.22235C5 7.34227 5.57537 6.56583 6.41768 6.30947L14.9527 3.71185C15.3177 3.60076 15.7069 3.59639 16.0743 3.69927L25.5393 6.34945C26.404 6.59158 27 7.37679 27 8.27255Z" stroke="#64B3F7" stroke-width="2"/>
<path d="M11 15.5L15 19.5L22 12.5" stroke="#64B3F7" stroke-width="2" stroke-linecap="round" stroke-linejoin="round"/>
</svg>
