<svg width="24" height="24" viewBox="0 0 24 24" fill="none" xmlns="http://www.w3.org/2000/svg">
<path d="M11.9529 2.11483C11.6464 1.95373 11.2784 1.96264 10.98 2.13839L2.49243 7.13839C2.10386 7.36729 1.91659 7.82795 2.03522 8.26305C2.15385 8.69814 2.54902 9 3 9H21C21.46 9 21.8606 8.6862 21.9709 8.23962C22.0811 7.79303 21.8724 7.32885 21.4653 7.11483L11.9529 2.11483Z" stroke="#64B3F7" stroke-width="2" stroke-linejoin="round"/>
<rect x="6" y="12" width="2" height="7" rx="1" fill="#64B3F7"/>
<rect x="11" y="12" width="2" height="7" rx="1" fill="#64B3F7"/>
<rect x="2" y="23" width="2" height="20" rx="1" transform="rotate(-90 2 23)" fill="#64B3F7"/>
<rect x="16" y="12" width="2" height="7" rx="1" fill="#64B3F7"/>
</svg>
