<svg xmlns="http://www.w3.org/2000/svg" width="128" height="22" fill="none" xmlns:v="https://vecta.io/nano"><g clip-path="url(#A)"><path d="M11.082 22.006c6.121 0 11.082-4.926 11.082-11.003S17.203 0 11.082 0 0 4.926 0 11.003s4.962 11.003 11.082 11.003z" fill="#eb001b"/><path d="M24.469 22.006c6.121 0 11.082-4.926 11.082-11.003S30.59 0 24.469 0 13.387 4.926 13.387 11.003s4.962 11.003 11.082 11.003z" fill="#f79e1b"/><path d="M17.773 2.215c2.668 2.007 4.387 5.189 4.387 8.765s-1.718 6.763-4.387 8.77c-2.668-2.008-4.387-5.189-4.387-8.77s1.724-6.757 4.387-8.765z" fill="#ff5f00"/><path d="M34.86 18.309v.093h-.204v.527h-.099v-.527h-.204v-.093h.508zm.779 0v.62h-.099v-.51l-.182.45h-.111l-.182-.444v.505h-.099v-.62h.155l.182.444.182-.444h.155z" fill="#f79e1b"/><path d="M127.227 11.372v.093h-.205v.527h-.099v-.527h-.205v-.093h.509zm.773 0v.62h-.099v-.51l-.183.45h-.105l-.182-.444v.505h-.099v-.62h.154l.183.444.182-.444H128zm-76.488-6.96c1.696 0 2.895 1.157 2.895 2.814v4.443h-1.563V7.735c0-1.19-.619-1.854-1.657-1.854-1.005 0-1.845.658-1.845 1.87v3.922h-1.563V7.741c0-1.19-.619-1.854-1.657-1.854-1.005 0-1.845.658-1.845 1.87v3.922h-1.563V4.603h1.547v.861c.575-.834 1.458-1.048 2.188-1.048 1.088 0 1.972.477 2.464 1.262.619-1.02 1.718-1.267 2.602-1.267zm11.966.181v7.076h-1.552v-.85c-.492.625-1.227 1.031-2.238 1.031-1.994 0-3.563-1.558-3.563-3.719s1.569-3.719 3.563-3.719c1.011 0 1.746.411 2.238 1.042v-.861h1.552zM59.87 5.865c-1.337 0-2.149 1.026-2.149 2.265s.812 2.265 2.149 2.265c1.287 0 2.149-.976 2.149-2.265s-.862-2.265-2.149-2.265zm11.431-.702l-.668 1.201c-.431-.263-1.315-.603-2.199-.603-.845 0-1.348.34-1.348.839 0 .494.519.636 1.177.73l.735.11c1.552.219 2.475.878 2.475 2.09 0 1.36-1.188 2.309-3.243 2.309-.735 0-2.017-.143-3.055-.91l.724-1.157c.514.389 1.188.724 2.348.724 1.061 0 1.619-.335 1.619-.861 0-.4-.387-.664-1.232-.784l-.746-.093c-1.575-.214-2.414-.938-2.414-2.073 0-1.404 1.133-2.265 2.945-2.265 1.116 0 2.149.274 2.884.746zm6.723-.57v1.404h-2.729v3.077c0 .954.508 1.322 1.133 1.322.481 0 1.011-.214 1.436-.477l.619 1.234c-.575.384-1.293.702-2.188.702-1.613 0-2.558-.861-2.558-2.748v-3.11h-1.42V4.592h1.42V2.453h1.564v2.139h2.724zm4.795-.181c1.994 0 3.359 1.508 3.37 3.713l-.028.576h-5.265c.21 1.273 1.111 1.799 2.122 1.799.713 0 1.475-.28 2.061-.746l.773 1.102c-.867.741-1.851.998-2.928.998-2.133 0-3.646-1.476-3.646-3.719-.005-2.221 1.447-3.724 3.541-3.724zm-.028 1.371c-1.111 0-1.724.708-1.889 1.744h3.696c-.171-1.102-.818-1.744-1.806-1.744zm8.795-1.371a3.21 3.21 0 0 1 1.199.197l-.37 1.53c-.326-.17-.801-.258-1.182-.258-.989 0-1.696.697-1.696 1.898v3.889h-1.552V4.592h1.541v.795c.464-.669 1.193-.976 2.061-.976zm6.436 0c1.995 0 3.564 1.558 3.564 3.719s-1.569 3.719-3.564 3.719c-1.011 0-1.74-.406-2.232-1.026v3.796h-1.552V4.592h1.552v.839c.492-.614 1.221-1.02 2.232-1.02zm-.188 1.454c-1.287 0-2.149.976-2.149 2.265s.862 2.265 2.149 2.265c1.337 0 2.149-1.026 2.149-2.265s-.812-2.265-2.149-2.265zm12.38-1.272v7.076h-1.552v-.85c-.492.625-1.227 1.031-2.238 1.031-1.994 0-3.563-1.558-3.563-3.719s1.569-3.719 3.563-3.719c1.011 0 1.746.411 2.238 1.042v-.861h1.552zm-3.607 1.273c-1.337 0-2.149 1.026-2.149 2.265s.812 2.265 2.149 2.265c1.287 0 2.149-.976 2.149-2.265s-.862-2.265-2.149-2.265zm11.43-.702l-.668 1.201c-.431-.263-1.315-.603-2.199-.603-.845 0-1.348.34-1.348.839 0 .494.519.636 1.177.73l.734.11c1.553.219 2.475.878 2.475 2.09 0 1.36-1.187 2.309-3.242 2.309-.735 0-2.017-.143-3.056-.91l.724-1.157c.514.389 1.188.724 2.348.724 1.061 0 1.619-.335 1.619-.861 0-.4-.387-.664-1.232-.784l-.746-.093c-1.575-.214-2.414-.938-2.414-2.073 0-1.404 1.132-2.265 2.944-2.265 1.116 0 2.149.274 2.884.746zm7.387 0l-.669 1.201c-.431-.263-1.315-.603-2.199-.603-.845 0-1.348.34-1.348.839 0 .494.52.636 1.177.73l.735.11c1.552.219 2.475.878 2.475 2.09 0 1.36-1.188 2.309-3.243 2.309-.735 0-2.017-.143-3.055-.91l.724-1.157c.513.389 1.187.724 2.348.724 1.06 0 1.618-.335 1.618-.861 0-.4-.387-.664-1.232-.784l-.746-.093c-1.574-.214-2.414-.938-2.414-2.073 0-1.404 1.133-2.265 2.945-2.265 1.116 0 2.149.274 2.884.746zM44.595 15.491c.939 0 1.674.73 1.674 1.75s-.735 1.75-1.674 1.75c-.475 0-.818-.192-1.05-.483v.395h-.729v-4.997h.729v2.068c.227-.291.575-.483 1.05-.483zm-.088.686c-.602 0-1.011.461-1.011 1.064s.403 1.064 1.011 1.064c.63 0 1.011-.483 1.011-1.064s-.381-1.064-1.011-1.064zm5.652-.598l-2.646 4.734H46.7l1.199-2.09-1.481-2.644h.818l1.077 1.909 1.039-1.909h.807zm6.226-.088c.796 0 1.359.543 1.359 1.322v2.09h-.735v-1.848c0-.559-.293-.872-.779-.872-.47 0-.867.307-.867.878v1.843h-.735v-1.848c0-.559-.287-.872-.779-.872-.47 0-.867.307-.867.878v1.843h-.735v-3.324h.729v.406c.271-.395.685-.494 1.028-.494.508 0 .928.225 1.155.592.293-.472.812-.592 1.227-.592zm5.552.088v3.324h-.729v-.4c-.232.296-.575.488-1.05.488-.939 0-1.674-.729-1.674-1.75s.74-1.75 1.674-1.75c.475 0 .823.192 1.05.488v-.4h.729zm-1.696.598c-.63 0-1.011.483-1.011 1.064s.381 1.064 1.011 1.064c.602 0 1.011-.461 1.011-1.064 0-.609-.403-1.064-1.011-1.064zm5.304-.329l-.315.565c-.204-.126-.619-.285-1.033-.285-.398 0-.635.159-.635.395 0 .23.243.296.552.346l.348.055c.729.104 1.166.411 1.166.982 0 .636-.558 1.086-1.525 1.086-.348 0-.945-.066-1.436-.428l.337-.543c.243.186.558.34 1.105.34.497 0 .762-.154.762-.406 0-.186-.182-.313-.58-.367l-.348-.044c-.74-.099-1.138-.439-1.138-.976 0-.658.53-1.064 1.387-1.064.519-.005 1.005.121 1.353.346zm3.088-.269v.658h-1.282v1.448c0 .45.237.62.53.62.227 0 .475-.099.674-.225l.287.582c-.271.181-.608.329-1.028.329-.757 0-1.204-.406-1.204-1.289v-1.465h-.669v-.658h.669v-1.004h.735v1.004h1.287zm2.182-.088c.939 0 1.58.707 1.586 1.744 0 .093-.006.187-.017.269h-2.475c.099.598.519.845.994.845.337 0 .691-.132.967-.351l.365.516c-.409.345-.873.466-1.376.466-1.006 0-1.713-.697-1.713-1.75.005-1.031.685-1.739 1.668-1.739zm-.011.647c-.519 0-.812.335-.89.817h1.735c-.077-.516-.381-.817-.845-.817zm4.061-.647a1.5 1.5 0 0 1 .564.093l-.177.718c-.155-.082-.376-.121-.558-.121-.464 0-.796.324-.796.894v1.826h-.729v-3.324h.724v.373c.221-.313.563-.461.972-.461zm2.558 0c.497 0 .956.181 1.248.532l-.47.494c-.232-.219-.481-.346-.807-.346-.563 0-.989.439-.989 1.064s.425 1.064.989 1.064c.321 0 .608-.148.823-.346l.453.499c-.304.351-.751.532-1.248.532-1.066 0-1.762-.751-1.762-1.75 0-.993.696-1.744 1.762-1.744zm5.077.088v3.324h-.729v-.4c-.232.296-.575.488-1.05.488-.939 0-1.674-.729-1.674-1.75s.735-1.75 1.674-1.75c.475 0 .823.192 1.05.488v-.4h.729zm-1.69.598c-.63 0-1.011.483-1.011 1.064s.381 1.064 1.011 1.064c.602 0 1.011-.461 1.011-1.064-.006-.609-.409-1.064-1.011-1.064zm4.403-.686a1.5 1.5 0 0 1 .564.093l-.177.718c-.155-.082-.376-.121-.558-.121-.464 0-.796.324-.796.894v1.826h-.729v-3.324h.724v.373c.215-.313.558-.461.972-.461zm2.602 0c.475 0 .823.192 1.05.488v-2.073h.729v4.997h-.729v-.4c-.232.296-.575.488-1.05.488-.939 0-1.674-.729-1.674-1.75s.74-1.75 1.674-1.75zm.088.686c-.63 0-1.011.483-1.011 1.064s.381 1.064 1.011 1.064c.602 0 1.011-.461 1.011-1.064 0-.609-.403-1.064-1.011-1.064z" fill="#000"/></g><defs><clipPath id="A"><path fill="#fff" d="M0 0h128v22H0z"/></clipPath></defs></svg>