<svg width="28" height="32" viewBox="0 0 28 32" fill="none" xmlns="http://www.w3.org/2000/svg">
<path d="M17.3295 8.77616C17.424 8.62924 17.445 8.45084 17.403 8.28293L16.1857 3.21423C16.1017 2.86792 15.7449 2.64754 15.3986 2.73149L11.3373 3.70745C11.1694 3.74943 11.0225 3.85438 10.9281 4.0013C10.8336 4.14821 10.8126 4.32661 10.8546 4.49452L12.0719 9.56323C12.1139 9.73114 12.2188 9.87806 12.3658 9.9725C12.4707 10.0355 12.5861 10.067 12.7016 10.067C12.7541 10.067 12.8065 10.0565 12.859 10.046L16.9203 9.07C17.0987 9.03852 17.2351 8.93358 17.3295 8.77616ZM14.9788 7.12857L13.709 7.43291L13.9504 8.45085L13.1948 8.62925L12.2818 4.83034L13.0374 4.65194L13.2788 5.66988L14.5486 5.36554L14.3072 4.3476L15.0628 4.1692L15.9758 7.96811L15.2202 8.14651L14.9788 7.12857Z" fill="#7C9CAC"/>
<path d="M13.0689 23.2896C13.2158 22.7754 13.2473 22.2192 13.1109 21.6735C12.9115 20.8235 12.3868 20.1099 11.6417 19.6586C10.8966 19.1969 10.0256 19.0604 9.17553 19.2703C7.423 19.6901 6.34209 21.4531 6.76186 23.2056C6.89829 23.7618 7.17114 24.2551 7.52794 24.6434C7.39151 25.1576 7.36003 25.7033 7.49646 26.249C7.85326 27.7391 9.19652 28.7466 10.6657 28.7466C10.9176 28.7466 11.1694 28.7151 11.4318 28.6521C12.2818 28.4528 12.9954 27.928 13.4467 27.183C13.8979 26.4379 14.0449 25.5668 13.835 24.7168C13.709 24.1501 13.4257 23.6779 13.0689 23.2896ZM8.72428 25.4409C9.10207 25.5983 9.52184 25.6928 9.94161 25.6928C10.1935 25.6928 10.4453 25.6613 10.7077 25.5983C11.3898 25.4304 11.967 25.0526 12.3973 24.5594C12.4707 24.7063 12.5337 24.8532 12.5757 25.0106C12.7016 25.5144 12.6176 26.0391 12.3448 26.4903C12.0719 26.9416 11.6417 27.2459 11.138 27.3718C10.6342 27.4978 10.1095 27.4138 9.65827 27.141C9.20701 26.8681 8.90268 26.4379 8.77675 25.9341C8.72428 25.7662 8.71379 25.6088 8.72428 25.4409ZM11.883 22.4606C11.2744 22.2087 10.5923 22.1457 9.89963 22.3031C9.21751 22.471 8.64033 22.8488 8.21006 23.3421C8.1366 23.1951 8.07364 23.0482 8.03166 22.8908C7.7798 21.8414 8.43044 20.7815 9.47986 20.5296C9.63728 20.4876 9.7842 20.4771 9.94161 20.4771C10.8231 20.4771 11.6312 21.0858 11.8411 21.9778C11.8725 22.1352 11.883 22.2926 11.883 22.4606ZM10.2145 23.5729C10.3719 23.531 10.5188 23.5205 10.6762 23.5205C10.9386 23.5205 11.1904 23.5939 11.4318 23.6884C11.1694 24.0032 10.8126 24.2341 10.4034 24.3285C9.99408 24.423 9.56382 24.381 9.18603 24.2236C9.43789 23.8983 9.79469 23.6674 10.2145 23.5729Z" fill="#7C9CAC"/>
<path d="M7.91075 4.52888L6.64551 4.83325L7.43834 8.12899L8.70358 7.82462L7.91075 4.52888Z" fill="#7C9CAC"/>
<path d="M9.12595 9.60626L7.86084 9.91089L8.65435 13.2063L9.91946 12.9017L9.12595 9.60626Z" fill="#7C9CAC"/>
<path d="M10.3427 14.6774L9.07764 14.9822L9.87149 18.2776L11.1366 17.9728L10.3427 14.6774Z" fill="#7C9CAC"/>
<path d="M4.86338 5.26021L3.59814 5.56445L6.83192 19.0127L8.09716 18.7085L4.86338 5.26021Z" fill="#7C9CAC"/>
<path d="M25.4313 3.04645C25.3789 2.32235 25.0431 1.66121 24.4869 1.17848C23.9307 0.695743 23.2276 0.464871 22.493 0.527836L17.928 0.874147C17.2773 0.181529 16.2804 -0.164783 15.2939 0.0765843L2.10268 3.24584C0.633494 3.60264 -0.279503 5.08233 0.0773005 6.55152L5.69171 29.8907C5.85962 30.6043 6.30037 31.2024 6.93003 31.5907C7.37078 31.8636 7.85352 32 8.35724 32C8.56712 32 8.7875 31.979 8.99739 31.9265L13.5099 30.8456L24.7597 29.9431C25.4838 29.8907 26.1554 29.5444 26.6277 28.9882C27.0999 28.432 27.3308 27.7184 27.2783 26.9943L25.4313 3.04645ZM13.3105 29.5339L13.2266 29.5444V29.5549L8.69306 30.6462C8.32576 30.7407 7.93747 30.6777 7.61215 30.4783C7.28683 30.279 7.05596 29.9641 6.96151 29.5863L1.3471 6.24719C1.15821 5.48111 1.64094 4.70454 2.40702 4.51564L15.5983 1.34638C15.7137 1.3149 15.8186 1.30441 15.9341 1.30441C16.4483 1.30441 16.9205 1.58775 17.1724 2.02851L17.1934 2.23839L17.2668 2.2279C17.2878 2.28037 17.3193 2.33284 17.3403 2.39581L21.6009 20.0996V20.1835H21.6114L22.9442 25.7454C23.1331 26.5115 22.6504 27.2881 21.8843 27.477L13.3105 29.5339ZM21.0762 12.3863L18.6101 2.13345L20.3836 1.99703L21.0762 12.3863ZM22.1886 28.7363H22.1991L22.2096 28.8203L21.6954 28.8622L22.1886 28.7363ZM23.4584 28.0227C23.6158 27.8653 23.7628 27.6974 23.8782 27.5085C24.256 26.8788 24.3819 26.1442 24.2035 25.4411L22.8707 19.9002L21.6744 1.89208L22.5769 1.81862C22.9547 1.78714 23.3325 1.91307 23.6158 2.16494C23.9097 2.4168 24.0881 2.76311 24.1091 3.1409L25.956 27.0782C26.019 27.8653 25.4313 28.5579 24.6338 28.6209L23.5004 28.7153L23.4584 28.0227Z" fill="#7C9CAC"/>
<path d="M19.3095 18.4257L17.0239 18.9753L17.3282 20.2406L19.6138 19.691L19.3095 18.4257Z" fill="#7C9CAC"/>
<path d="M19.8037 20.4602L17.5181 21.0098L17.8223 22.275L20.1079 21.7254L19.8037 20.4602Z" fill="#7C9CAC"/>
<path d="M20.2861 22.487L18.0005 23.0366L18.3047 24.3019L20.5903 23.7523L20.2861 22.487Z" fill="#7C9CAC"/>
<path d="M20.7736 24.5225L18.4883 25.0728L18.7929 26.3379L21.0783 25.7876L20.7736 24.5225Z" fill="#7C9CAC"/>
</svg>
