<svg width="32" height="32" viewBox="0 0 32 32" fill="none" xmlns="http://www.w3.org/2000/svg">
<path d="M20.8125 0C20.9586 0 21.1039 0 21.25 0C21.7898 0.227449 22.0078 0.636233 21.9578 1.21384C21.9359 1.46865 21.9539 1.72658 21.9539 2.00562C22.4547 2.00562 22.9109 2.00484 23.368 2.00562C25.5031 2.01031 26.9883 3.51413 26.9859 5.65497C26.9813 9.49737 26.9867 13.3398 26.9781 17.1822C26.9773 17.4167 27.0477 17.5206 27.2664 17.6105C29.5234 18.5391 31.0109 20.1773 31.7078 22.5183C31.8406 22.9638 31.9039 23.4296 31.9992 23.8861C31.9992 24.3027 31.9992 24.7201 31.9992 25.1367C31.9477 25.4423 31.9086 25.751 31.8414 26.0543C31.0016 29.8818 27.5656 32.4017 23.6914 31.9468C20.8312 31.6115 18.825 30.0374 17.6609 27.4127C17.5102 27.0727 17.3508 26.9883 17.007 26.9891C12.5406 27 8.07344 26.9977 3.60703 26.9953C2.22656 26.9946 1.14297 26.4349 0.452344 25.2242C0.242188 24.8545 0.147656 24.4176 0 24.0111C0 17.6746 0 11.3389 0 5.00232C0.0164062 4.97653 0.040625 4.95308 0.046875 4.92494C0.438281 3.07486 1.74219 2.00953 3.62266 2.00562C4.07734 2.00484 4.53203 2.00562 5.01641 2.00562C5.01641 1.71251 5.02891 1.4538 5.01406 1.19743C4.97969 0.621382 5.19453 0.207909 5.75 0C5.89609 0 6.04141 0 6.1875 0C6.725 0.226668 6.94609 0.632325 6.89531 1.20994C6.87266 1.46396 6.89141 1.72267 6.89141 1.97904C7.96328 1.97904 8.99375 1.97904 10.0461 1.97904C10.0461 1.70548 10.0641 1.45614 10.0422 1.20994C9.99141 0.632325 10.2125 0.226668 10.75 0C10.8961 0 11.0414 0 11.1875 0C11.7422 0.207127 11.9555 0.6206 11.9234 1.19352C11.9086 1.45771 11.9211 1.72267 11.9211 1.9853C12.9945 1.9853 14.0164 1.9853 15.0625 1.9853C15.0625 1.72893 15.0805 1.49054 15.0586 1.25527C15.0055 0.675313 15.2086 0.24699 15.75 0C15.9164 0 16.0836 0 16.25 0C16.7891 0.248553 16.993 0.676095 16.9414 1.25605C16.9195 1.49913 16.9375 1.74534 16.9375 1.9853C18.0063 1.9853 19.0297 1.9853 20.0766 1.9853C20.0766 1.70782 20.0891 1.44989 20.0742 1.19274C20.0414 0.617474 20.2586 0.206346 20.8125 0ZM17.0797 25.1202C16.9867 22.8262 17.6766 20.862 19.275 19.266C20.8719 17.6723 22.8391 16.993 25.0906 17.0845C25.0906 15.3548 25.0906 13.661 25.0906 11.9532C17.3453 11.9532 9.61797 11.9532 1.875 11.9532C1.875 12.0931 1.875 12.2064 1.875 12.3206C1.875 15.9777 1.875 19.6341 1.875 23.2913C1.875 24.4989 2.49375 25.1195 3.70078 25.1202C8.03281 25.121 12.3648 25.1202 16.6969 25.1202C16.8102 25.1202 16.9227 25.1202 17.0797 25.1202ZM25.075 10.0359C25.075 8.40702 25.1008 6.81488 25.0625 5.22352C25.0469 4.58416 24.5188 4.02218 23.8781 3.94792C23.2563 3.87602 22.6203 3.93229 21.95 3.93229C21.95 4.28402 21.9672 4.64747 21.9461 5.00857C21.9133 5.57837 21.4336 5.95667 20.8734 5.87929C20.4141 5.81598 20.0992 5.43533 20.082 4.90227C20.0711 4.57243 20.0797 4.24181 20.0797 3.90103C19.0156 3.90103 17.9906 3.90103 16.9367 3.90103C16.9367 4.26213 16.9445 4.6037 16.9352 4.94526C16.9195 5.49083 16.5297 5.88163 16.0102 5.88632C15.4727 5.89101 15.0789 5.50021 15.0648 4.93667C15.0563 4.58807 15.0633 4.23947 15.0633 3.89868C13.9906 3.89868 12.9734 3.89868 11.9211 3.89868C11.9211 4.2254 11.9258 4.53492 11.9203 4.84522C11.9078 5.48536 11.5305 5.89414 10.9641 5.88711C10.4148 5.88007 10.0523 5.47285 10.0445 4.84756C10.0406 4.53726 10.0437 4.22774 10.0437 3.90728C8.97891 3.90728 7.94688 3.90728 6.88438 3.90728C6.88438 4.29574 6.9 4.65997 6.88047 5.02264C6.85234 5.54085 6.43906 5.90118 5.92188 5.88554C5.4 5.86991 5.03359 5.47129 5.01641 4.88742C5.00703 4.55915 5.01484 4.23087 5.01484 3.88149C4.51953 3.88149 4.07344 3.87992 3.62656 3.88149C2.52109 3.8854 1.87734 4.52632 1.87578 5.62761C1.87422 6.99309 1.875 8.35778 1.87578 9.72326C1.87578 9.82331 1.88594 9.92413 1.89219 10.0359C9.63047 10.0359 17.3445 10.0359 25.075 10.0359ZM24.5336 30.1366C27.6063 30.1382 30.1141 27.6339 30.1219 24.5567C30.1297 21.4881 27.6281 18.9729 24.5523 18.9549C21.4828 18.9369 18.9383 21.4771 18.9453 24.5536C18.9516 27.6261 21.4633 30.1351 24.5336 30.1366Z" fill="#7C9CAC"/>
<path d="M15.9944 16.943C15.4835 16.9407 15.0663 16.5225 15.064 16.0105C15.0616 15.4908 15.5007 15.0593 16.0202 15.071C16.5319 15.0828 16.9413 15.5072 16.9351 16.0191C16.928 16.5272 16.5022 16.9453 15.9944 16.943Z" fill="#7C9CAC"/>
<path d="M6.88487 16.0161C6.88096 16.5375 6.46534 16.9494 5.94815 16.9431C5.44268 16.9377 5.00987 16.4984 5.01768 15.9974C5.02549 15.4893 5.45831 15.0657 5.96612 15.0696C6.48174 15.0735 6.88799 15.4925 6.88487 16.0161Z" fill="#7C9CAC"/>
<path d="M10.0499 16.0238C10.0436 15.5009 10.4468 15.0797 10.9632 15.0695C11.4686 15.0601 11.9046 15.4806 11.9171 15.9902C11.9296 16.4928 11.5022 16.9336 10.9952 16.943C10.4772 16.9524 10.0561 16.5428 10.0499 16.0238Z" fill="#7C9CAC"/>
<path d="M21.9518 16.009C21.951 16.5272 21.5346 16.9454 21.0197 16.9454C20.5135 16.9446 20.0822 16.5131 20.083 16.0066C20.0838 15.5002 20.515 15.0703 21.0229 15.071C21.5393 15.0726 21.9525 15.4892 21.9518 16.009Z" fill="#7C9CAC"/>
<path d="M6.88536 21.0315C6.88458 21.5568 6.48067 21.9593 5.95411 21.9578C5.43536 21.957 5.01427 21.5388 5.01661 21.0269C5.01896 20.5274 5.46114 20.0874 5.95958 20.0881C6.47208 20.0897 6.88692 20.5118 6.88536 21.0315Z" fill="#7C9CAC"/>
<path d="M11.7398 21.0315C11.7391 21.5568 11.3352 21.9593 10.8086 21.9578C10.2899 21.957 9.86876 21.5388 9.8711 21.0269C9.87345 20.5274 10.3156 20.0874 10.8141 20.0881C11.3266 20.0897 11.7406 20.5118 11.7398 21.0315Z" fill="#7C9CAC"/>
<path d="M25.4789 23.6218C25.9406 23.6218 26.3664 23.6015 26.7899 23.6273C27.3102 23.6585 27.6602 24.079 27.6367 24.5988C27.6172 25.0357 27.3102 25.432 26.8727 25.4508C26.0422 25.4867 25.2078 25.4859 24.3774 25.4515C23.9438 25.4336 23.6305 25.0748 23.6188 24.6348C23.5977 23.8539 23.5953 23.0715 23.6188 22.2915C23.6328 21.8085 24.025 21.4583 24.4938 21.4419C24.986 21.4239 25.393 21.7467 25.45 22.2383C25.4867 22.5572 25.4735 22.8832 25.4805 23.2052C25.4813 23.3271 25.4789 23.4498 25.4789 23.6218Z" fill="#7C9CAC"/>
</svg>
