<svg width="33" height="32" viewBox="0 0 33 32" fill="none" xmlns="http://www.w3.org/2000/svg">
<path d="M32.0913 9.86001L21.4335 3.0773C21.2957 2.98965 21.1283 2.96044 20.9683 2.99452C20.8059 3.02861 20.6681 3.12355 20.5795 3.26232C20.4908 3.39866 20.4613 3.56421 20.4958 3.72246C20.5302 3.88314 20.6262 4.01948 20.7665 4.10712L30.8113 10.4979H28.9555L17.0375 2.91662C16.5773 2.62447 15.9841 2.62447 15.5238 2.91662L3.60833 10.4979H1.75247L16.2794 1.25137L18.3273 2.55386C18.6128 2.73646 18.9968 2.65368 19.1814 2.37127C19.366 2.08886 19.2823 1.70907 18.9968 1.52648L16.8628 0.167985C16.5108 -0.0559951 16.053 -0.0559951 15.6986 0.167985L0.470094 9.86001C0.0861206 10.1059 -0.086175 10.5612 0.041816 10.9945C0.169807 11.4279 0.563625 11.72 1.02144 11.72H3.17267V14.4906C3.17267 14.8728 3.41881 15.2136 3.77571 15.3427V16.0219C3.77571 16.4893 4.13507 16.8764 4.5978 16.9251V22.3226C4.5978 22.6586 4.87594 22.9337 5.21561 22.9337C5.55527 22.9337 5.83341 22.6586 5.83341 22.3226V16.3189C5.83341 15.983 5.55527 15.7078 5.21561 15.7078H5.01131V15.3987H7.93542V15.7078H7.73112C7.39145 15.7078 7.11332 15.983 7.11332 16.3189V26.3274C7.11332 26.6634 7.39145 26.9385 7.73112 26.9385H7.93542V27.3013H5.01131V26.9385H5.21561C5.55527 26.9385 5.83341 26.6634 5.83341 26.3274V25.1686C5.83341 24.8326 5.55527 24.5575 5.21561 24.5575C4.87594 24.5575 4.5978 24.8326 4.5978 25.1686V25.7212C4.13753 25.7699 3.77571 26.157 3.77571 26.6245V27.3037C3.42127 27.4327 3.17267 27.7736 3.17267 28.1558V28.913H1.71062C1.11497 28.913 0.632544 29.3926 0.632544 29.9793V30.9312C0.632544 31.5204 1.11497 31.9976 1.71062 31.9976H30.8532C31.4488 31.9976 31.9313 31.518 31.9313 30.9312V29.9793C31.9313 29.3901 31.4488 28.913 30.8532 28.913H29.3911V28.1558C29.3911 27.7736 29.145 27.4327 28.7881 27.3037V26.6245C28.7881 26.157 28.4287 25.7699 27.966 25.7212V16.9251C28.4263 16.8764 28.7881 16.4893 28.7881 16.0219V15.3427C29.1425 15.2136 29.3911 14.8728 29.3911 14.4906V11.72H31.5399C31.9977 11.72 32.3915 11.4279 32.5195 10.9945C32.6475 10.5612 32.4777 10.1059 32.0913 9.86001ZM1.86815 30.7754L1.87061 30.1376L30.6932 30.14V30.7778L1.86815 30.7754ZM5.89248 10.4979L16.1933 3.944C16.2474 3.90992 16.3164 3.90992 16.3681 3.944L26.6689 10.4979H5.89248ZM28.1531 13.7358V14.1789H24.0254V13.7358H28.1531ZM4.40828 28.913V28.5259H8.53599V28.913H4.40828ZM8.53599 13.7358V14.1789H4.40828V13.7358H8.53599ZM14.2168 14.1765V13.7334H18.3445V14.1765H14.2168ZM24.2124 16.9251V25.7212C23.7522 25.7699 23.3903 26.157 23.3903 26.6245V27.3037C23.0359 27.4327 22.7873 27.7736 22.7873 28.1558V28.913H19.5801V28.1558C19.5801 27.7736 19.334 27.4327 18.9771 27.3037V26.6245C18.9771 26.157 18.6177 25.7699 18.155 25.7212V16.9251C18.6153 16.8764 18.9771 16.4893 18.9771 16.0219V15.3427C19.3315 15.2136 19.5801 14.8728 19.5801 14.4906V13.7334H22.7898V14.4906C22.7898 14.8728 23.0359 15.2136 23.3928 15.3427V16.0219C23.3903 16.4918 23.7522 16.8789 24.2124 16.9251ZM26.7304 16.3189V26.3274C26.7304 26.6634 27.0085 26.9385 27.3482 26.9385H27.5525V27.3013H24.6284V26.9385H24.8327C25.1724 26.9385 25.4505 26.6634 25.4505 26.3274V16.3189C25.4505 15.983 25.1724 15.7078 24.8327 15.7078H24.6284V15.3987H27.5525V15.7078H27.3482C27.0061 15.7078 26.7304 15.983 26.7304 16.3189ZM18.3445 28.5259V28.913H14.2168V28.5259H18.3445ZM17.744 15.7078H17.5397C17.2 15.7078 16.9219 15.983 16.9219 16.3189V26.3274C16.9219 26.6634 17.2 26.9385 17.5397 26.9385H17.744V27.3013H14.8199V26.9385H15.0241C15.3638 26.9385 15.6419 26.6634 15.6419 26.3274V16.3189C15.6419 15.983 15.3638 15.7078 15.0241 15.7078H14.8199V15.3987H17.744V15.7078ZM9.17102 16.0219V15.3427C9.52546 15.2136 9.77405 14.8728 9.77405 14.4906V13.7334H12.9837V14.4906C12.9837 14.8728 13.2298 15.2136 13.5867 15.3427V16.0219C13.5867 16.4893 13.9461 16.8764 14.4088 16.9251V25.7212C13.9485 25.7699 13.5867 26.157 13.5867 26.6245V27.3037C13.2323 27.4327 12.9837 27.7736 12.9837 28.1558V28.913H9.77159V28.1558C9.77159 27.7736 9.52546 27.4327 9.16856 27.3037V26.6245C9.16856 26.157 8.8092 25.7699 8.34646 25.7212V16.9251C8.8092 16.8789 9.17102 16.4918 9.17102 16.0219ZM28.1531 28.913H24.0254V28.5259H28.1531V28.913ZM4.40828 12.5137V11.7225H28.1531V12.5137H4.40828Z" fill="#7C9CAC"/>
</svg>
