<svg width="35" height="32" viewBox="0 0 35 32" fill="none" xmlns="http://www.w3.org/2000/svg">
<g clip-path="url(#clip0)">
<path d="M34.0324 17.5398C33.7261 14.5292 32.3508 11.6911 30.1584 9.54765C28.285 7.71612 25.992 6.53959 23.5798 6.01611V4.36168C24.5655 4.12208 25.2974 3.25026 25.2974 2.21372C25.2974 0.992919 24.2818 0 23.033 0H18.238C16.9892 0 15.9736 0.992919 15.9736 2.21372C15.9736 3.25026 16.7062 4.12208 17.6912 4.36168V6.02067C15.2857 6.54611 13.0007 7.72133 11.1326 9.54765C10.7237 9.94742 10.3467 10.3667 10.0017 10.8023C9.98509 10.801 9.96844 10.7997 9.95113 10.7997H5.20599C4.83837 10.7997 4.54001 11.0914 4.54001 11.4508C4.54001 11.8102 4.83837 12.1019 5.20599 12.1019H9.096C8.60784 12.9014 8.21424 13.7407 7.91455 14.6047H0.665984C0.298361 14.6047 0 14.8964 0 15.2558C0 15.6152 0.298361 15.9069 0.665984 15.9069H7.53827C7.34646 16.7305 7.23591 17.5691 7.20794 18.4097H4.26229C3.89467 18.4097 3.59631 18.7014 3.59631 19.0608C3.59631 19.4202 3.89467 19.7119 4.26229 19.7119H7.22859C7.28453 20.5544 7.42372 21.393 7.64416 22.2147H3.32992C2.96229 22.2147 2.66393 22.5064 2.66393 22.8658C2.66393 23.2252 2.96229 23.5169 3.32992 23.5169H8.06972C8.72305 25.2065 9.74401 26.7899 11.1332 28.1481C13.3277 30.2935 16.2333 31.6386 19.3162 31.9362C19.7564 31.9785 20.1966 32 20.6362 32C23.2348 32 25.8009 31.2649 27.978 29.8787C28.2863 29.6828 28.3736 29.2791 28.1724 28.9776C27.972 28.6762 27.5591 28.5909 27.2507 28.7875C22.4849 31.8216 16.1028 31.1653 12.0749 27.2275C7.34913 22.6073 7.34913 15.0891 12.0749 10.469C16.8008 5.84878 24.4909 5.84878 29.2167 10.469C33.2392 14.4016 33.9139 20.6358 30.8211 25.2931C30.6206 25.5945 30.7085 25.9982 31.0169 26.1935C31.3252 26.3895 31.7381 26.3036 31.9379 26.0021C33.5902 23.5136 34.3348 20.5082 34.0324 17.5398ZM17.3056 2.21372C17.3056 1.71108 17.7238 1.30219 18.238 1.30219H23.033C23.5472 1.30219 23.9654 1.71108 23.9654 2.21372C23.9654 2.71637 23.5472 3.12525 23.033 3.12525H22.9138H18.3578H18.2386C17.7238 3.12525 17.3056 2.71637 17.3056 2.21372ZM19.0238 5.79735V4.42744H22.2478V5.79474C21.1769 5.67038 20.0941 5.67103 19.0238 5.79735Z" fill="#7C9CAC"/>
<path d="M29.6884 27.0361C29.5126 27.0361 29.3415 27.1058 29.2176 27.2269C29.0931 27.348 29.0225 27.516 29.0225 27.6872C29.0225 27.8585 29.0931 28.0264 29.2176 28.1476C29.3415 28.2693 29.5126 28.3383 29.6884 28.3383C29.8636 28.3383 30.0348 28.2693 30.1593 28.1476C30.2832 28.0264 30.3544 27.8585 30.3544 27.6872C30.3544 27.516 30.2832 27.348 30.1593 27.2269C30.0348 27.1058 29.8636 27.0361 29.6884 27.0361Z" fill="#7C9CAC"/>
<path d="M20.6463 8.74756C14.9495 8.74756 10.3149 13.2785 10.3149 18.848C10.3149 24.4175 14.9495 28.9484 20.6463 28.9484C26.3432 28.9484 30.9777 24.4175 30.9777 18.848C30.9777 13.2785 26.3432 8.74756 20.6463 8.74756ZM20.6463 27.6462C15.6841 27.6462 11.6469 23.6993 11.6469 18.848C11.6469 13.9967 15.6841 10.0497 20.6463 10.0497C25.6086 10.0497 29.6458 13.9967 29.6458 18.848C29.6458 23.6993 25.6086 27.6462 20.6463 27.6462Z" fill="#7C9CAC"/>
<path d="M24.8586 13.8084L21.5599 17.0332C21.2842 16.8998 20.9739 16.8242 20.6456 16.8242C20.3172 16.8242 20.0075 16.8998 19.7312 17.0332L18.2547 15.5898C17.9943 15.3352 17.5727 15.3352 17.313 15.5898C17.0526 15.8443 17.0526 16.2565 17.313 16.5104L18.7895 17.9539C18.6529 18.2234 18.5757 18.5268 18.5757 18.8478C18.5757 19.9632 19.5041 20.8708 20.6449 20.8708C21.7864 20.8708 22.7141 19.9632 22.7141 18.8478C22.7141 18.5268 22.6368 18.2241 22.5003 17.9539L25.7024 14.8234L25.7989 14.729C26.0593 14.4744 26.0593 14.0623 25.7989 13.8084C25.5385 13.5544 25.119 13.5544 24.8586 13.8084ZM20.6462 19.5686C20.2393 19.5686 19.909 19.245 19.909 18.8478C19.909 18.4507 20.24 18.1271 20.6462 18.1271C21.0525 18.1271 21.3835 18.4507 21.3835 18.8478C21.3835 19.245 21.0525 19.5686 20.6462 19.5686Z" fill="#7C9CAC"/>
<path d="M27.7667 18.2046H27.1494C26.7818 18.2046 26.4834 18.4963 26.4834 18.8557C26.4834 19.2151 26.7818 19.5068 27.1494 19.5068H27.7667C28.1344 19.5068 28.4327 19.2151 28.4327 18.8557C28.4327 18.4963 28.1344 18.2046 27.7667 18.2046Z" fill="#7C9CAC"/>
<path d="M14.1421 18.189H13.5254C13.1577 18.189 12.8594 18.4807 12.8594 18.8401C12.8594 19.1995 13.1577 19.4912 13.5254 19.4912H14.1421C14.5097 19.4912 14.808 19.1995 14.808 18.8401C14.808 18.4807 14.5097 18.189 14.1421 18.189Z" fill="#7C9CAC"/>
<path d="M20.6543 13.1405C21.0219 13.1405 21.3202 12.8488 21.3202 12.4894V11.8864C21.3202 11.527 21.0219 11.2354 20.6543 11.2354C20.2866 11.2354 19.9883 11.527 19.9883 11.8864V12.4894C19.9883 12.8494 20.2866 13.1405 20.6543 13.1405Z" fill="#7C9CAC"/>
<path d="M20.6377 24.5554C20.27 24.5554 19.9717 24.8471 19.9717 25.2065V25.8094C19.9717 26.1688 20.27 26.4605 20.6377 26.4605C21.0053 26.4605 21.3036 26.1688 21.3036 25.8094V25.2065C21.3036 24.8465 21.006 24.5554 20.6377 24.5554Z" fill="#7C9CAC"/>
<path d="M0.665984 22.2141C0.49083 22.2141 0.319006 22.2838 0.195133 22.4049C0.0712603 22.526 0 22.694 0 22.8652C0 23.0371 0.0712603 23.2044 0.195133 23.3255C0.319006 23.4466 0.49083 23.5163 0.665984 23.5163C0.841137 23.5163 1.01296 23.4466 1.13683 23.3255C1.26071 23.2044 1.33197 23.0364 1.33197 22.8652C1.33197 22.694 1.26071 22.526 1.13683 22.4049C1.01296 22.2838 0.841137 22.2141 0.665984 22.2141Z" fill="#7C9CAC"/>
</g>
<defs>
<clipPath id="clip0">
<rect width="34.0984" height="32" fill="white"/>
</clipPath>
</defs>
</svg>
