<svg xmlns="http://www.w3.org/2000/svg" width="102" height="31" fill="#fff"><path d="M.132 7.047h5.005V23.23H.132V7.047zm5.172-4.499c0 1.39-1.054 2.515-2.703 2.515C1.022 5.063-.033 3.937 0 2.548-.032 1.093 1.022 0 2.634 0s2.634 1.093 2.67 2.548zm54.655 17.991c0-1.793 1.222-3.091 2.977-3.091s2.944 1.265 2.944 3.091c0 1.763-1.193 3.058-2.977 3.058-1.722 0-2.944-1.294-2.944-3.058zm-45.874-9.243c.43.099.959.136 1.685.136 2.681 0 4.333-1.364 4.333-3.655 0-2.061-1.423-3.289-3.936-3.289-1.025 0-1.718.099-2.083.198v6.611zM9.091 1.125C10.645.858 12.83.66 15.905.66c3.108 0 5.326.598 6.814 1.797 1.423 1.129 2.382 2.992 2.382 5.188s-.729 4.055-2.05 5.32c-1.722 1.628-4.264 2.361-7.244 2.361-.66 0-1.258-.033-1.722-.099v8.011H9.091V1.125zm27.055 14.428c-2.645-.033-4.695.598-4.695 2.559 0 1.294.861 1.928 1.984 1.928 1.255 0 2.283-.829 2.612-1.859.066-.264.099-.565.099-.865v-1.764zm.595 7.678l-.299-1.628h-.099c-1.058 1.298-2.714 1.994-4.629 1.994-3.276 0-5.227-2.39-5.227-4.986 0-4.22 3.772-6.247 9.491-6.214v-.231c0-.865-.463-2.093-2.944-2.093-1.652 0-3.407.565-4.465 1.232l-.927-3.256c1.124-.634 3.341-1.43 6.285-1.43 5.391 0 7.109 3.193 7.109 7.014v5.654c0 1.562.066 3.058.23 3.956h-4.527v-.011zM48.385 6.977l2.415 7.978.792 3.025h.099l.726-3.025L54.4 6.977h5.391l-3.768 10.702c-2.316 6.449-3.87 9.041-5.69 10.669-1.751 1.529-3.604 2.06-4.862 2.229l-1.058-4.286c.627-.099 1.423-.4 2.181-.865.759-.4 1.587-1.195 2.083-2.027.164-.231.263-.499.263-.73 0-.165-.033-.433-.233-.832l-5.92-14.86h5.599zm35.784 11.036l.131 5.217h-4.366l-.23-2.291h-.099c-.627.997-2.148 2.658-5.063 2.658-3.272 0-5.687-2.061-5.687-7.08v-9.54h5.059v8.744c0 2.361.762 3.787 2.513 3.787 1.39 0 2.181-.964 2.513-1.76.131-.301.164-.697.164-1.096V6.977h5.059v11.036h.004zm12.632-2.46c-2.648-.033-4.698.598-4.698 2.559 0 1.294.861 1.928 1.984 1.928 1.258 0 2.283-.829 2.612-1.859a3.65 3.65 0 0 0 .102-.865v-1.764zm.598 7.678l-.299-1.628h-.099c-1.058 1.298-2.71 1.994-4.629 1.994-3.276 0-5.224-2.39-5.224-4.986 0-4.22 3.768-6.247 9.491-6.214v-.231c0-.865-.463-2.093-2.944-2.093-1.653 0-3.407.565-4.465 1.232l-.927-3.256c1.124-.634 3.341-1.43 6.281-1.43 5.391 0 7.109 3.193 7.109 7.014v5.654c0 1.562.066 3.058.23 3.956h-4.527v-.011z"/></svg>