<svg xmlns="http://www.w3.org/2000/svg" width="31" height="14" fill="none"><path d="M-88 28.316c0-9.922 0-14.883 1.305-18.898 2.637-8.115 8.998-14.476 17.113-17.113C-65.567-9-60.606-9-50.684-9h132.45c9.922 0 14.883 0 18.898 1.305a26.65 26.65 0 0 1 17.113 17.113c1.305 4.015 1.305 8.976 1.305 18.898v365.161c0 9.922 0 14.883-1.305 18.898-2.636 8.114-8.998 14.476-17.113 17.113-4.015 1.304-8.976 1.304-18.898 1.304h-132.45c-9.922 0-14.883 0-18.898-1.304-8.115-2.637-14.476-8.999-17.113-17.113C-88 408.36-88 403.399-88 393.477V28.316z" fill="#3a4245"/><path d="M-85.95 27.496c0-9.159 0-13.738 1.204-17.444 2.434-7.49 8.306-13.363 15.797-15.797 3.706-1.204 8.286-1.204 17.444-1.204H82.586c9.159 0 13.738 0 17.445 1.204a24.6 24.6 0 0 1 15.796 15.797c1.204 3.706 1.204 8.286 1.204 17.444v366.801c0 9.159 0 13.738-1.204 17.444a24.6 24.6 0 0 1-15.796 15.797c-3.707 1.204-8.286 1.204-17.445 1.204H-51.504c-9.159 0-13.738 0-17.444-1.204-7.49-2.434-13.363-8.306-15.797-15.797-1.204-3.706-1.204-8.285-1.204-17.444V27.496z" fill="#121515"/><mask id="A" mask-type="alpha" maskUnits="userSpaceOnUse" x="-80" y="0" width="191" height="411"><path d="M-79.799 28.464c0-8.842 0-13.262 1.444-16.75a18.97 18.97 0 0 1 10.264-10.27C-64.606 0-60.187 0-51.351 0h19.222 23.835 7.706C.773 0 1.453 0 2.047.184a4.1 4.1 0 0 1 2.089 1.488c.368.501.591 1.144 1.036 2.431l.846 2.446.385 1.066c1.35 3.284 4.463 5.501 8.006 5.704.263.015.553.015 1.133.015h0 0l1.133-.015c3.543-.203 6.656-2.42 8.006-5.704.1-.244.195-.518.385-1.066l.846-2.446c.445-1.286.668-1.93 1.036-2.431A4.1 4.1 0 0 1 29.035.184C29.629 0 30.309 0 31.669 0h7.706 23.835 19.222c8.837 0 13.255 0 16.74 1.444a18.97 18.97 0 0 1 10.264 10.27c1.443 3.487 1.443 7.908 1.443 16.75v353.361c0 8.842 0 13.263-1.443 16.75a18.97 18.97 0 0 1-10.264 10.27c-3.485 1.444-7.904 1.444-16.74 1.444H-51.351c-8.837 0-13.255 0-16.74-1.444a18.97 18.97 0 0 1-10.264-10.27c-1.444-3.487-1.444-7.908-1.444-16.75V28.464z" fill="#fff"/></mask><g mask="url(#A)"><rect x="-85.416" y="-9.231" width="196.644" height="424.289" rx="10.702" fill="#655cac"/></g><g clip-path="url(#clip0)" fill-rule="evenodd"><path d="M15.541 8.428a4.1 4.1 0 1 0 0-8.201 4.1 4.1 0 1 0 0 8.201z" fill="#262c2d"/><path d="M15.541 6.89c1.415 0 2.563-1.147 2.563-2.563s-1.147-2.563-2.563-2.563-2.563 1.147-2.563 2.563 1.148 2.563 2.563 2.563z" fill="#121515"/><path opacity=".4" d="M15.541 3.814c.283 0 .513-.229.513-.513s-.229-.513-.513-.513-.513.229-.513.513.229.513.513.513z" fill="#636f73"/></g></svg>