<?xml version="1.0" encoding="utf-8"?>
<!-- Generator: Adobe Illustrator 25.3.1, SVG Export Plug-In . SVG Version: 6.00 Build 0)  -->
<svg version="1.1" id="Layer_1" xmlns="http://www.w3.org/2000/svg" xmlns:xlink="http://www.w3.org/1999/xlink" x="0px" y="0px"
	 viewBox="0 0 226.2 39.5" style="enable-background:new 0 0 226.2 39.5;" xml:space="preserve">
<style type="text/css">
	.st0{fill:#FFFFFF;}
	.st1{fill:none;}
	.st2{fill:none;stroke:#FFFFFF;stroke-width:0.84;stroke-linecap:round;stroke-linejoin:round;}
</style>
<g id="Logos">
	<polygon class="st0" points="127.8,29.9 63.7,29.9 68.8,35 	"/>
	<path class="st0" d="M69.6,9.2V10c-1.1-0.8-2.4-1.2-3.7-1.2c-4.5,0-7.9,4.1-7.9,9.1s3.4,9.1,7.9,9.1c1.3,0,2.6-0.4,3.7-1.2v0.8h3.9
		V9.2H69.6z M65.9,22.9c-2.2,0-3.8-2.2-3.8-4.9s1.6-4.9,3.8-4.9s3.8,2.2,3.8,4.9S68.1,22.9,65.9,22.9z"/>
	<path class="st0" d="M101.2,9.2v10.2c0.2,1.8-1.1,3.4-2.9,3.5c-1.8,0.2-3.4-1.1-3.5-2.9c0-0.2,0-0.4,0-0.6V9.2h-3.9v10.2
		c0,4.2,2.9,7.6,7.1,7.6c1.2,0,2.4-0.4,3.4-1.1v0.6h4V9.2H101.2z"/>
	<path class="st0" d="M138.1,26.6V16.4c-0.2-1.8,1.1-3.4,2.9-3.5c1.8-0.2,3.4,1.1,3.5,2.9c0,0.2,0,0.4,0,0.6v10.2h3.9V16.4
		c0-4.2-2.9-7.6-7.1-7.6c-1.2,0-2.4,0.4-3.4,1.1V9.2h-4v17.4L138.1,26.6z"/>
	<path class="st0" d="M46.6,26.6v-6.8h2.9l5.1,6.8h5.2l-6.1-8.1c3.4-2.4,4.2-7.1,1.8-10.5c-1.4-2-3.7-3.1-6.1-3.2h-6.8v21.8H46.6z
		 M46.6,9h2.7c1.9,0,3.4,1.5,3.4,3.4c0,1.9-1.5,3.4-3.4,3.4l0,0h-2.7V9z"/>
	<path class="st0" d="M115.8,22.5c-0.4,0.3-0.8,0.4-1.3,0.4c-1.1,0-1.9-0.9-1.9-2c0,0,0-0.1,0-0.1v-7.4h3.4V9.3h-3.4V4.9h-3.9v4.3
		h-2.1v4.1h2.1v7.5c-0.1,3.3,2.5,6.1,5.8,6.2c0,0,0.1,0,0.1,0c1.4,0,2.7-0.4,3.9-1.1L115.8,22.5z"/>
	<polygon class="st0" points="83.4,17.4 90.1,9.2 84.6,9.2 79.9,15.3 79.9,3.5 75.8,3.5 75.8,26.6 79.9,26.6 79.9,19.5 85.7,26.6 
		91.2,26.6 	"/>
	<path class="st0" d="M125,8.8c-4.6,0-7.9,4-7.9,9.1c0,5.4,4.1,9.1,8.2,9.1c2.8,0,5.5-1.5,7-3.9l-3.5-2c-2.7,4-7.2,2-7.7-2h11.4
		C133.5,12.9,129.5,8.8,125,8.8z M128.4,15.7h-7.1C122.1,11.6,127.6,11.4,128.4,15.7z"/>
	<path class="st0" d="M161.2,25.1l-6.4-15.9c-0.1-0.2-0.2-0.4-0.2-0.6c0-0.2-0.1-0.5-0.1-0.7c0-0.6,0.2-1.2,0.7-1.7
		c0.5-0.4,1.1-0.7,1.8-0.7c0.5,0,0.9,0.2,1.3,0.5c0.4,0.5,0.7,1,0.9,1.6l4.3,11.7l4.2-11.5c0.2-0.6,0.5-1.2,0.9-1.7
		c0.4-0.3,0.9-0.5,1.4-0.5c0.6,0,1.2,0.2,1.7,0.6c0.4,0.4,0.6,1,0.6,1.6c0,0.3,0,0.5-0.1,0.8c-0.1,0.3-0.1,0.6-0.2,0.8L165.9,25
		c-0.2,0.6-0.5,1.1-1,1.5c-0.4,0.3-0.9,0.5-1.4,0.4c-0.5,0-1-0.1-1.3-0.4C161.7,26.1,161.4,25.7,161.2,25.1z"/>
	<path class="st0" d="M178,23.8c0.1,0.8-0.1,1.7-0.5,2.4c-0.4,0.5-1,0.8-1.6,0.8c-0.7,0-1.3-0.3-1.7-0.8c-0.4-0.7-0.6-1.6-0.5-2.4
		V15c-0.1-0.8,0.1-1.7,0.5-2.4c0.4-0.5,1-0.8,1.7-0.8c0.6,0,1.3,0.2,1.6,0.8c0.4,0.7,0.6,1.6,0.5,2.4V23.8z"/>
	<path class="st0" d="M184.6,12c0.5-0.4,1.1-0.8,1.7-1c0.6-0.2,1.3-0.3,2-0.3c2,0,3.8,0.9,5.1,2.4c1.4,1.7,2.1,3.8,2.1,5.9
		c0,2.1-0.7,4.2-2.1,5.7c-1.2,1.5-3.1,2.4-5,2.4c-0.7,0-1.4-0.1-2.1-0.4c-0.6-0.3-1.2-0.7-1.6-1.2c-0.2,0.4-0.6,0.8-1,1.1
		c-0.4,0.2-0.8,0.4-1.2,0.4c-0.7,0-1.3-0.3-1.8-0.8c-0.4-0.8-0.6-1.7-0.6-2.5V9c-0.1-0.9,0.1-1.8,0.6-2.6c0.8-1,2.2-1.1,3.2-0.3
		c0.1,0.1,0.2,0.2,0.3,0.3c0.4,0.8,0.6,1.7,0.6,2.6L184.6,12z M184.2,18.9c-0.1,1.1,0.3,2.2,0.9,3.1c1,1.3,2.9,1.6,4.2,0.6
		c0.2-0.2,0.4-0.4,0.6-0.6c0.6-0.9,1-1.9,0.9-3c0-1.1-0.3-2.2-0.9-3.1c-1-1.3-2.9-1.6-4.2-0.6c-0.2,0.2-0.4,0.4-0.6,0.6
		C184.5,16.7,184.2,17.8,184.2,18.9L184.2,18.9z"/>
	<path class="st0" d="M200.5,20.1c0.2,0.8,0.6,1.5,1.3,2c0.7,0.5,1.6,0.8,2.4,0.7c1,0,2-0.3,2.9-0.8c0.6-0.3,1.3-0.6,2-0.8
		c0.5,0,1,0.2,1.3,0.5c0.3,0.3,0.5,0.8,0.5,1.3c0,1-0.7,1.9-2.1,2.7c-1.5,0.8-3.2,1.2-4.9,1.2c-2.1,0.1-4.2-0.8-5.7-2.3
		c-1.5-1.6-2.4-3.7-2.3-5.9c-0.1-2.2,0.7-4.3,2.2-5.9c2.9-3.1,7.8-3.2,10.9-0.2c0,0,0,0,0.1,0.1c1.4,1.4,2.2,3.4,2.2,5.4
		c0.1,0.5-0.1,1.1-0.5,1.5c-0.5,0.3-1.2,0.5-1.8,0.4L200.5,20.1z M200.3,17.4h6.8c0-0.9-0.4-1.7-1-2.3c-0.6-0.6-1.4-0.9-2.3-0.9
		c-0.8,0-1.7,0.3-2.3,0.8C200.9,15.7,200.5,16.5,200.3,17.4L200.3,17.4z"/>
	<path class="st0" d="M212.6,23.5v-9.3c-0.1-0.9,0.1-1.8,0.6-2.5c0.4-0.6,1.1-0.9,1.7-0.8c0.4,0,0.9,0.1,1.2,0.4
		c0.4,0.3,0.8,0.7,1,1.1c0.4-0.5,0.9-0.9,1.5-1.2c0.5-0.3,1.1-0.4,1.6-0.4c0.6,0,1.2,0.2,1.7,0.7c0.4,0.4,0.7,1,0.7,1.6
		c0,0.9-0.9,1.7-2.5,2.3c-0.6,0.2-1.1,0.4-1.4,0.5c-0.5,0.2-0.9,0.5-1.2,0.9c-0.2,0.6-0.3,1.2-0.3,1.8v4.8c0.1,0.9-0.1,1.8-0.6,2.5
		c-0.4,0.6-1.1,0.9-1.8,0.8c-0.7,0.1-1.3-0.3-1.7-0.8C212.8,25.3,212.6,24.4,212.6,23.5z"/>
	<path class="st0" d="M173.5,8c0-0.6,0.3-1.3,0.7-1.7c0.5-0.5,1.1-0.7,1.7-0.7c0.6,0,1.2,0.2,1.7,0.7c0.5,0.4,0.7,1.1,0.7,1.7
		c0,1.3-1.1,2.4-2.4,2.4c0,0,0,0,0,0c-0.6,0-1.3-0.2-1.7-0.7C173.7,9.3,173.5,8.6,173.5,8z"/>
	<rect x="42.4" y="4.9" class="st1" width="180.2" height="25"/>
	<path class="st0" d="M30.7,4.6c-0.8-0.8-4.1-3.2-11.5-3.2c0,0-8.7-0.5-13,3.4C3.8,7.2,3,10.6,2.9,14.9s-0.2,12.3,7.6,14.5l0,0v3.3
		c0,0,0,1.4,0.8,1.6c1.1,0.3,1.7-0.7,2.7-1.8c0.6-0.6,1.3-1.5,1.9-2.2c3.3,0.3,6.6,0.1,9.8-0.7c1.1-0.4,7.1-1.1,8.1-9.2
		C34.9,12.2,33.4,7,30.7,4.6z M31.6,19.9c-0.8,6.7-5.8,7.1-6.7,7.4c-2.8,0.7-5.6,0.9-8.5,0.7c0,0-3.4,4-4.4,5.1
		c-0.1,0.1-0.3,0.2-0.5,0.2c-0.2-0.1-0.2-0.3-0.2-0.6s0-5.5,0-5.5l0,0C4.8,25.4,5.2,18.6,5.3,15S6,8.5,8,6.5c3.6-3.3,11-2.8,11-2.8
		c6.3,0,9.3,1.9,9.9,2.5C31.3,8.3,32.5,13,31.6,19.9L31.6,19.9z"/>
	<path class="st2" d="M22.2,14.7c0.1-1.3-0.9-2.5-2.2-2.6c-0.1,0-0.2,0-0.3,0"/>
	<path class="st2" d="M24.4,15.4c0.1-1.4-0.4-2.8-1.3-3.8c-1-1-2.4-1.6-3.9-1.7"/>
	<path class="st2" d="M26.6,16.3c0.1-2.3-0.8-4.6-2.4-6.3c-1.6-1.5-3.7-2.4-5.8-2.3"/>
	<path class="st0" d="M19.8,20.3c0.3,0,0.7-0.1,0.9-0.3l0.6-0.8c0.4-0.5,1.2-0.6,1.7-0.2c0.5,0.3,1,0.6,1.5,1
		c0.5,0.4,1.4,1.1,1.4,1.1c0.5,0.4,0.6,1,0.3,1.5l0,0c-0.3,0.6-0.8,1.1-1.3,1.6l0,0c-0.4,0.3-0.8,0.6-1.3,0.6c-0.1,0-0.1,0-0.2,0
		c-0.2,0-0.4,0-0.6-0.1l0,0c-1.2-0.4-2.4-1-3.6-1.7c-1.1-0.6-2.1-1.2-3-2c-0.5-0.4-0.9-0.8-1.3-1.2l0,0l0,0l0,0l0,0h-0.1
		c-0.4-0.4-0.8-0.9-1.2-1.4c-0.7-0.9-1.4-1.9-2-3c-0.7-1.1-1.2-2.3-1.7-3.6l0,0C10,11.8,10,11.6,10,11.4c0-0.1,0-0.1,0-0.2
		c0.1-0.5,0.3-0.9,0.6-1.3l0,0C11,9.4,11.5,8.8,12,8.4l0,0c0.5-0.3,1.2-0.2,1.6,0.3c0,0,0.8,1,1.1,1.4s0.8,1.1,1,1.5
		c0.3,0.6,0.2,1.3-0.2,1.7L14.7,14c-0.2,0.2-0.4,0.6-0.3,0.9C15.1,17.5,17.2,19.5,19.8,20.3z"/>
</g>
</svg>
