<svg xmlns="http://www.w3.org/2000/svg" width="250" height="250"><path d="M0 0h250v250H0z" fill="#fff"/><path d="M0 0h10v10H0zm10 0h10v10H10zm10 0h10v10H20zm10 0h10v10H30zm10 0h10v10H40zm10 0h10v10H50zm10 0h10v10H60zm40 0h10v10h-10zm20 0h10v10h-10zm10 0h10v10h-10zm20 0h10v10h-10zm10 0h10v10h-10zm20 0h10v10h-10zm10 0h10v10h-10zm10 0h10v10h-10zm10 0h10v10h-10zm10 0h10v10h-10zm10 0h10v10h-10zm10 0h10v10h-10zM0 10h10v10H0zm60 0h10v10H60zm20 0h10v10H80zm20 0h10v10h-10zm50 0h10v10h-10zm30 0h10v10h-10zm60 0h10v10h-10zM0 20h10v10H0zm20 0h10v10H20zm10 0h10v10H30zm10 0h10v10H40zm20 0h10v10H60zm60 0h10v10h-10zm20 0h10v10h-10zm40 0h10v10h-10zm20 0h10v10h-10zm10 0h10v10h-10zm10 0h10v10h-10zm20 0h10v10h-10zM0 30h10v10H0zm20 0h10v10H20zm10 0h10v10H30zm10 0h10v10H40zm20 0h10v10H60zm20 0h10v10H80zm10 0h10v10H90zm10 0h10v10h-10zm20 0h10v10h-10zm10 0h10v10h-10zm20 0h10v10h-10zm10 0h10v10h-10zm20 0h10v10h-10zm20 0h10v10h-10zm10 0h10v10h-10zm10 0h10v10h-10zm20 0h10v10h-10zM0 40h10v10H0zm20 0h10v10H20zm10 0h10v10H30zm10 0h10v10H40zm20 0h10v10H60zm30 0h10v10H90zm40 0h10v10h-10zm10 0h10v10h-10zm10 0h10v10h-10zm10 0h10v10h-10zm20 0h10v10h-10zm20 0h10v10h-10zm10 0h10v10h-10zm10 0h10v10h-10zm20 0h10v10h-10zM0 50h10v10H0zm60 0h10v10H60zm20 0h10v10H80zm10 0h10v10H90zm20 0h10v10h-10zm10 0h10v10h-10zm20 0h10v10h-10zm10 0h10v10h-10zm10 0h10v10h-10zm20 0h10v10h-10zm60 0h10v10h-10zM0 60h10v10H0zm10 0h10v10H10zm10 0h10v10H20zm10 0h10v10H30zm10 0h10v10H40zm10 0h10v10H50zm10 0h10v10H60zm20 0h10v10H80zm20 0h10v10h-10zm20 0h10v10h-10zm20 0h10v10h-10zm20 0h10v10h-10zm20 0h10v10h-10zm10 0h10v10h-10zm10 0h10v10h-10zm10 0h10v10h-10zm10 0h10v10h-10zm10 0h10v10h-10zm10 0h10v10h-10zM90 70h10v10H90zm10 0h10v10h-10zm10 0h10v10h-10zm30 0h10v10h-10zm10 0h10v10h-10zm10 0h10v10h-10zM0 80h10v10H0zm10 0h10v10H10zm10 0h10v10H20zm10 0h10v10H30zm10 0h10v10H40zm20 0h10v10H60zm10 0h10v10H70zm10 0h10v10H80zm10 0h10v10H90zm20 0h10v10h-10zm20 0h10v10h-10zm10 0h10v10h-10zm10 0h10v10h-10zm10 0h10v10h-10zm10 0h10v10h-10zm20 0h10v10h-10zm20 0h10v10h-10zm20 0h10v10h-10zM10 90h10v10H10zm60 0h10v10H70zm10 0h10v10H80zm20 0h10v10h-10zm20 0h10v10h-10zm10 0h10v10h-10zm20 0h10v10h-10zm10 0h10v10h-10zm30 0h10v10h-10zm20 0h10v10h-10zM0 100h10v10H0zm20 0h10v10H20zm30 0h10v10H50zm10 0h10v10H60zm10 0h10v10H70zm10 0h10v10H80zm20 0h10v10h-10zm50 0h10v10h-10zm30 0h10v10h-10zm30 0h10v10h-10zm10 0h10v10h-10zm10 0h10v10h-10zm10 0h10v10h-10zM10 110h10v10H10zm20 0h10v10H30zm20 0h10v10H50zm20 0h10v10H70zm50 0h10v10h-10zm20 0h10v10h-10zm10 0h10v10h-10zm10 0h10v10h-10zm10 0h10v10h-10zm10 0h10v10h-10zm50 0h10v10h-10zm10 0h10v10h-10zM10 120h10v10H10zm10 0h10v10H20zm40 0h10v10H60zm10 0h10v10H70zm10 0h10v10H80zm10 0h10v10H90zm10 0h10v10h-10zm20 0h10v10h-10zm10 0h10v10h-10zm10 0h10v10h-10zm10 0h10v10h-10zm10 0h10v10h-10zm20 0h10v10h-10zm10 0h10v10h-10zm10 0h10v10h-10zm10 0h10v10h-10zm10 0h10v10h-10zM0 130h10v10H0zm30 0h10v10H30zm10 0h10v10H40zm10 0h10v10H50zm20 0h10v10H70zm10 0h10v10H80zm10 0h10v10H90zm50 0h10v10h-10zm20 0h10v10h-10zm10 0h10v10h-10zm20 0h10v10h-10zM0 140h10v10H0zm20 0h10v10H20zm20 0h10v10H40zm20 0h10v10H60zm10 0h10v10H70zm20 0h10v10H90zm10 0h10v10h-10zm10 0h10v10h-10zm10 0h10v10h-10zm30 0h10v10h-10zm10 0h10v10h-10zm10 0h10v10h-10zm20 0h10v10h-10zm10 0h10v10h-10zm30 0h10v10h-10zm10 0h10v10h-10zM0 150h10v10H0zm20 0h10v10H20zm60 0h10v10H80zm10 0h10v10H90zm10 0h10v10h-10zm10 0h10v10h-10zm40 0h10v10h-10zm20 0h10v10h-10zm20 0h10v10h-10zm10 0h10v10h-10zM0 160h10v10H0zm30 0h10v10H30zm10 0h10v10H40zm10 0h10v10H50zm10 0h10v10H60zm10 0h10v10H70zm30 0h10v10h-10zm10 0h10v10h-10zm10 0h10v10h-10zm10 0h10v10h-10zm10 0h10v10h-10zm10 0h10v10h-10zm10 0h10v10h-10zm10 0h10v10h-10zm10 0h10v10h-10zm10 0h10v10h-10zm10 0h10v10h-10zm20 0h10v10h-10zm10 0h10v10h-10zm10 0h10v10h-10zM80 170h10v10H80zm10 0h10v10H90zm30 0h10v10h-10zm30 0h10v10h-10zm10 0h10v10h-10zm40 0h10v10h-10zm10 0h10v10h-10zm20 0h10v10h-10zM0 180h10v10H0zm10 0h10v10H10zm10 0h10v10H20zm10 0h10v10H30zm10 0h10v10H40zm10 0h10v10H50zm10 0h10v10H60zm20 0h10v10H80zm20 0h10v10h-10zm60 0h10v10h-10zm20 0h10v10h-10zm20 0h10v10h-10zm10 0h10v10h-10zm10 0h10v10h-10zm10 0h10v10h-10zm10 0h10v10h-10zM0 190h10v10H0zm60 0h10v10H60zm40 0h10v10h-10zm20 0h10v10h-10zm20 0h10v10h-10zm20 0h10v10h-10zm40 0h10v10h-10zm10 0h10v10h-10zm20 0h10v10h-10zm10 0h10v10h-10zM0 200h10v10H0zm20 0h10v10H20zm10 0h10v10H30zm10 0h10v10H40zm20 0h10v10H60zm20 0h10v10H80zm10 0h10v10H90zm10 0h10v10h-10zm20 0h10v10h-10zm10 0h10v10h-10zm10 0h10v10h-10zm10 0h10v10h-10zm10 0h10v10h-10zm10 0h10v10h-10zm10 0h10v10h-10zm10 0h10v10h-10zm10 0h10v10h-10zm20 0h10v10h-10zM0 210h10v10H0zm20 0h10v10H20zm10 0h10v10H30zm10 0h10v10H40zm20 0h10v10H60zm20 0h10v10H80zm10 0h10v10H90zm20 0h10v10h-10zm20 0h10v10h-10zm10 0h10v10h-10zm10 0h10v10h-10zm20 0h10v10h-10zm10 0h10v10h-10zm20 0h10v10h-10zm10 0h10v10h-10zm10 0h10v10h-10zm10 0h10v10h-10zm10 0h10v10h-10zM0 220h10v10H0zm20 0h10v10H20zm10 0h10v10H30zm10 0h10v10H40zm20 0h10v10H60zm20 0h10v10H80zm20 0h10v10h-10zm50 0h10v10h-10zm10 0h10v10h-10zm50 0h10v10h-10zm10 0h10v10h-10zm20 0h10v10h-10zM0 230h10v10H0zm60 0h10v10H60zm20 0h10v10H80zm10 0h10v10H90zm10 0h10v10h-10zm40 0h10v10h-10zm10 0h10v10h-10zm10 0h10v10h-10zm20 0h10v10h-10zm10 0h10v10h-10zm10 0h10v10h-10zm10 0h10v10h-10zm30 0h10v10h-10zM0 240h10v10H0zm10 0h10v10H10zm10 0h10v10H20zm10 0h10v10H30zm10 0h10v10H40zm10 0h10v10H50zm10 0h10v10H60zm20 0h10v10H80zm20 0h10v10h-10zm30 0h10v10h-10zm10 0h10v10h-10zm30 0h10v10h-10zm20 0h10v10h-10zm10 0h10v10h-10zm10 0h10v10h-10zm10 0h10v10h-10zm10 0h10v10h-10zm10 0h10v10h-10z"/></svg>