<svg xmlns="http://www.w3.org/2000/svg" width="162" height="48" fill="none"><path d="M.209 11.062h7.919v25.404H.209V11.062zM8.394 4c0 2.181-1.668 3.948-4.277 3.948C1.617 7.948-.051 6.181.001 4-.051 1.715 1.617 0 4.168 0s4.167 1.715 4.225 4zm86.481 28.241c0-2.814 1.934-4.852 4.71-4.852s4.658 1.986 4.658 4.852c0 2.768-1.888 4.8-4.71 4.8-2.724 0-4.658-2.032-4.658-4.8z" fill="#e84f35"/><path d="M22.287 17.732c.681.155 1.518.213 2.667.213 4.242 0 6.857-2.141 6.857-5.738 0-3.235-2.251-5.163-6.228-5.163-1.622 0-2.719.155-3.296.311v10.377zM14.385 1.767c2.459-.42 5.916-.731 10.782-.731 4.918 0 8.427.938 10.782 2.82C38.2 5.628 39.718 8.552 39.718 12c0 3.442-1.154 6.365-3.244 8.351-2.724 2.555-6.747 3.707-11.463 3.707-1.045 0-1.991-.052-2.724-.155v12.576h-7.902V1.767zm42.809 22.647c-4.185-.052-7.428.938-7.428 4.017 0 2.032 1.362 3.027 3.14 3.027 1.986 0 3.613-1.301 4.133-2.918.104-.414.156-.886.156-1.358v-2.768zm.941 12.052l-.473-2.555h-.156c-1.674 2.037-4.294 3.131-7.324 3.131-5.183 0-8.271-3.752-8.271-7.827 0-6.625 5.968-9.807 15.018-9.755v-.363c0-1.358-.733-3.286-4.658-3.286-2.615 0-5.391.886-7.065 1.934l-1.466-5.111c1.778-.996 5.287-2.245 9.945-2.245 8.531 0 11.249 5.013 11.249 11.01v8.875c0 2.452.104 4.8.364 6.21h-7.163v-.017zm18.426-25.513l3.821 12.524 1.252 4.748h.156l1.149-4.748 3.14-12.524h8.531l-5.962 16.8c-3.665 10.124-6.124 14.193-9.004 16.748-2.77 2.4-5.703 3.235-7.694 3.499l-1.674-6.728c.993-.155 2.251-.627 3.452-1.358 1.201-.627 2.511-1.876 3.296-3.183.26-.363.416-.783.416-1.145 0-.259-.052-.679-.369-1.306l-9.368-23.327h8.86zm56.621 17.323l.207 8.19h-6.909l-.363-3.597h-.156c-.993 1.565-3.4 4.173-8.011 4.173-5.178 0-8.999-3.235-8.999-11.114V10.953h8.006V24.68c0 3.706 1.206 5.945 3.977 5.945 2.199 0 3.451-1.514 3.976-2.763.208-.472.26-1.093.26-1.721V10.953h8.006v17.324h.006zm19.987-3.862c-4.19-.052-7.434.938-7.434 4.017 0 2.032 1.362 3.027 3.14 3.027 1.991 0 3.613-1.301 4.132-2.918a5.68 5.68 0 0 0 .162-1.358v-2.768zm.947 12.052l-.474-2.555h-.156c-1.673 2.037-4.288 3.131-7.324 3.131-5.183 0-8.266-3.752-8.266-7.827 0-6.625 5.963-9.807 15.019-9.755v-.363c0-1.358-.733-3.286-4.658-3.286-2.615 0-5.391.886-7.065 1.934l-1.466-5.111c1.778-.996 5.287-2.245 9.939-2.245 8.531 0 11.25 5.013 11.25 11.01v8.875c0 2.452.104 4.8.363 6.21h-7.162v-.017z" fill="#fff"/></svg>