<svg xmlns="http://www.w3.org/2000/svg" xmlns:xlink="http://www.w3.org/1999/xlink" width="234" height="62" fill="none"><style><![CDATA[.B{fill:#33b8c1}.C{fill:#f6c048}.D{fill:#d9271c}]]></style><g clip-path="url(#A)"><g fill="#fff"><path d="M17.193 53.514v6.725h-.854v-3.057h-3.717v3.057h-.854v-6.725h.854v2.911h3.717v-2.911h.854zm5.109 0h.721l2.754 6.725h-.912l-.797-1.951h-2.799l-.784 1.971h-.944l2.761-6.744zm1.575 4.093l-1.211-3.134-1.275 3.108 2.486.025zm9.505 2.632h-5.247v-6.725h.854v5.969h3.239v-5.969h.854v5.969h1.046v2.543h-.746V60.24zm3.188 0v-6.725h.854v6.725h-.854zm6.626.051a2.91 2.91 0 0 1-1.275-.292 3.12 3.12 0 0 1-1.001-.763c-.277-.325-.493-.698-.638-1.1a3.69 3.69 0 0 1-.223-1.271 3.38 3.38 0 0 1 .242-1.271c.144-.4.36-.771.638-1.093a3.19 3.19 0 0 1 1.007-.75 2.94 2.94 0 0 1 1.275-.28c.443-.002.88.1 1.275.299a3.23 3.23 0 0 1 1.001.782 3.58 3.58 0 0 1 .638 1.093 3.65 3.65 0 0 1 .223 1.271 3.38 3.38 0 0 1-.242 1.271 3.48 3.48 0 0 1-.638 1.087c-.284.312-.626.567-1.007.75a2.92 2.92 0 0 1-1.275.267zm-2.308-3.413a3.05 3.05 0 0 0 .166.992 2.74 2.74 0 0 0 .472.845 2.27 2.27 0 0 0 .733.591 2.03 2.03 0 0 0 .95.216 1.97 1.97 0 0 0 .969-.235 2.46 2.46 0 0 0 .727-.604 2.73 2.73 0 0 0 .453-.845 2.93 2.93 0 0 0 .159-.96 3.06 3.06 0 0 0-.166-.985 2.75 2.75 0 0 0-.491-.845c-.202-.242-.452-.441-.733-.585a2.06 2.06 0 0 0-.931-.216 2 2 0 0 0-.969.229 2.29 2.29 0 0 0-.727.597c-.202.25-.357.534-.459.839a2.97 2.97 0 0 0-.153.966zm13.534-3.363v6.725h-.854v-3.057H49.85v3.057h-.854v-6.725h.854v2.911h3.717v-2.911h.854zm5.102 0h.727l2.754 6.725h-.931l-.803-1.97h-2.824l-.791 1.97h-.912l2.78-6.725zm1.581 4.093l-1.211-3.134-1.275 3.108 2.487.025zm5.961-2.218l-.287 2.237a6.55 6.55 0 0 1-.446 1.526 2.21 2.21 0 0 1-.638.877 1.54 1.54 0 0 1-.924.28l-.153-.826a1.51 1.51 0 0 0 .383-.07.85.85 0 0 0 .332-.223 1.73 1.73 0 0 0 .287-.451 4.2 4.2 0 0 0 .249-.744l.204-1.1.166-1.538.147-1.843h3.577v6.725h-.873v-5.962h-1.913l-.108 1.112zm5.954-1.875h.854V56h1.441a2.83 2.83 0 0 1 .886.134 2.1 2.1 0 0 1 .721.407 1.8 1.8 0 0 1 .478.636c.242.589.242 1.249 0 1.837a1.82 1.82 0 0 1-.485.636 2.23 2.23 0 0 1-.72.407 2.85 2.85 0 0 1-.873.133h-2.295l-.006-6.674zm.854 5.988h1.441a1.37 1.37 0 0 0 .566-.075c.181-.065.347-.167.486-.3.241-.28.365-.642.344-1.011a1.4 1.4 0 0 0-.357-1.004 1.38 1.38 0 0 0-.481-.295 1.39 1.39 0 0 0-.559-.08h-1.441v2.765zm11.644-5.988v6.725h-.854v-3.057h-3.711v3.057h-.861v-6.725h.861v2.911h3.711v-2.911h.854zm3.933 5.41l3.902-5.428h.701v6.725H93.2v-5.333l-3.825 5.333h-.765v-6.706h.854l-.013 5.409zm8.538 0l3.902-5.428h.701v6.725h-.854v-5.333l-3.826 5.333h-.771v-6.706h.854l-.006 5.409zm3.474-7.373c.002.16-.035.317-.107.46a1.01 1.01 0 0 1-.307.36 2 2 0 0 1-1.03.286c-.363 0-.719-.099-1.029-.286a1.03 1.03 0 0 1-.305-.361 1.02 1.02 0 0 1-.11-.459h.478a.55.55 0 0 0 .082.256.56.56 0 0 0 .192.189 1.13 1.13 0 0 0 .675.197 1.08 1.08 0 0 0 .638-.184.71.71 0 0 0 .2-.198.72.72 0 0 0 .106-.26h.516zm10.763 8.739a2.89 2.89 0 0 1-1.275-.292c-.384-.184-.727-.443-1.008-.763a3.65 3.65 0 0 1-.637-1.1 3.54 3.54 0 0 1-.23-1.271 3.52 3.52 0 0 1 .242-1.271 3.74 3.74 0 0 1 .67-1.093 3.27 3.27 0 0 1 1.014-.75 2.92 2.92 0 0 1 1.275-.28 2.78 2.78 0 0 1 1.275.299c.382.192.722.458 1.001.782a3.58 3.58 0 0 1 .638 1.093c.227.607.284 1.265.165 1.902a3.57 3.57 0 0 1-.841 1.715 3.37 3.37 0 0 1-1.008.75 2.95 2.95 0 0 1-1.281.28zm-2.334-3.413a3.05 3.05 0 0 0 .166.992c.103.309.263.595.472.845a2.25 2.25 0 0 0 .727.591 2.06 2.06 0 0 0 .95.216 1.92 1.92 0 0 0 .969-.235c.281-.149.529-.355.727-.604a2.73 2.73 0 0 0 .459-.845 3.13 3.13 0 0 0 .153-.96 2.9 2.9 0 0 0-.166-.985c-.103-.309-.263-.595-.472-.845a2.5 2.5 0 0 0-.733-.585 2.08 2.08 0 0 0-.937-.216 2.04 2.04 0 0 0-.969.229 2.44 2.44 0 0 0-.727.597 2.81 2.81 0 0 0-.459.839c-.106.311-.16.638-.16.966zm13.561-3.363v6.725h-.854v-3.057h-3.717v3.057h-.855v-6.725h.855v2.911h3.717v-2.911h.854zm4.782 1.875a21.86 21.86 0 0 1-.281 2.237c-.089.524-.239 1.036-.446 1.526-.139.339-.357.64-.638.877a1.53 1.53 0 0 1-.924.28l-.153-.826c.13-.007.259-.03.383-.07a.85.85 0 0 0 .331-.223 1.58 1.58 0 0 0 .281-.451 4.23 4.23 0 0 0 .248-.744c.089-.362.157-.73.204-1.1l.166-1.538.153-1.843h3.57v6.725h-.854v-5.962h-1.913l-.127 1.112zm7.989-1.875h.72l2.755 6.725h-.912l-.797-1.97h-2.831l-.784 1.97h-.893l2.742-6.725zm1.581 4.093l-1.218-3.134-1.275 3.108 2.493.025zm5.093 1.317l3.909-5.428h.701v6.725h-.854v-5.333l-3.826 5.333h-.771v-6.706h.854l-.013 5.409zm3.481-7.373c0 .159-.037.317-.109.459a1.03 1.03 0 0 1-.305.361 2 2 0 0 1-1.03.286 1.99 1.99 0 0 1-1.029-.286 1 1 0 0 1-.307-.36c-.072-.143-.109-.3-.108-.46h.504a.55.55 0 0 0 .079.258.54.54 0 0 0 .195.187 1.12 1.12 0 0 0 .676.197 1.09 1.09 0 0 0 .637-.184c.156-.108.264-.272.3-.458h.497zm9.628 1.963v6.725h-.848v-3.057h-3.711v3.057h-.854v-6.725h.854v2.911h3.711v-2.911h.848zm2.856 4.52v-.757h2.806v.757h-2.806zm6.497-1.589h.855l2.212-2.93h.982l-2.404 3.248 2.621 3.477h-.976l-2.34-3.038h-.95v3.038h-.854v-6.725h.854v2.93zm6.511 3.794v-6.725h.854v6.725h-.854zm9.352-6.725v6.725h-.855v-3.057h-3.71v3.057h-.861v-6.725h.861v2.911h3.71v-2.911h.855zm5.814 6.776a2.9 2.9 0 0 1-1.275-.292 3.12 3.12 0 0 1-1.001-.763c-.277-.325-.493-.698-.637-1.1a3.7 3.7 0 0 1-.224-1.271c-.001-.435.081-.867.243-1.271.153-.402.38-.773.669-1.093.283-.314.625-.569 1.008-.75a2.94 2.94 0 0 1 1.275-.28 2.81 2.81 0 0 1 1.275.299 3.29 3.29 0 0 1 .994.782c.276.324.492.694.638 1.093a3.65 3.65 0 0 1 .223 1.271c.002.435-.08.867-.242 1.271a3.49 3.49 0 0 1-.638 1.087 3.28 3.28 0 0 1-1.007.75 2.92 2.92 0 0 1-1.301.267zm-2.308-3.413a3.05 3.05 0 0 0 .166.992 2.75 2.75 0 0 0 .472.845 2.27 2.27 0 0 0 .733.591 2.03 2.03 0 0 0 .95.216 1.97 1.97 0 0 0 .969-.235 2.46 2.46 0 0 0 .727-.604 2.73 2.73 0 0 0 .453-.845 2.93 2.93 0 0 0 .159-.96 3.03 3.03 0 0 0-.166-.985 2.74 2.74 0 0 0-.478-.845c-.202-.242-.452-.441-.733-.585a2.06 2.06 0 0 0-.931-.216 2 2 0 0 0-.969.229 2.29 2.29 0 0 0-.727.597c-.202.25-.357.534-.459.839-.112.31-.173.636-.178.966h.012zm12.746-2.6h-2.327v5.962h-.854v-5.962h-2.327v-.763h5.508v.763zm6.988 5.206v.756h-4.578v-6.725h4.495v.763h-3.641v2.174h3.188v.712h-3.188v2.32h3.724zm4.636-5.969h.72l2.754 6.725h-.911l-.797-1.97h-2.831l-.784 1.97h-.912l2.761-6.725zm1.574 4.093l-1.211-3.108-1.275 3.108h2.486zm8.468-3.33h-2.327v5.962h-.854v-5.962h-2.327v-.763h5.508v.763zm2.41 5.962v-6.725h2.811a1.78 1.78 0 0 1 .823.191 2.04 2.04 0 0 1 .638.489 2.42 2.42 0 0 1 .42.693c.1.253.153.514.153.782a2.3 2.3 0 0 1-.542 1.494 2.02 2.02 0 0 1-.637.483c-.252.122-.53.183-.81.178h-2.015v2.415h-.841zm.854-3.178h1.964a1.1 1.1 0 0 0 .484-.108c.144-.072.268-.177.364-.305a1.5 1.5 0 0 0 .236-.445 1.74 1.74 0 0 0 .089-.54c-.001-.189-.035-.376-.102-.553a1.37 1.37 0 0 0-.268-.445 1.1 1.1 0 0 0-.389-.292 1.08 1.08 0 0 0-.472-.102h-1.912l.006 2.79z"/><use xlink:href="#B"/><use xlink:href="#C"/><use xlink:href="#D"/><use xlink:href="#E"/><use xlink:href="#F"/><use xlink:href="#G"/><use xlink:href="#H"/><use xlink:href="#I"/></g><g class="B"><use xlink:href="#J"/><use xlink:href="#K" opacity=".5"/></g><use xlink:href="#L" fill="#fff"/><g class="D"><use xlink:href="#M"/><use xlink:href="#N"/></g><use xlink:href="#O" class="C"/><use xlink:href="#P" class="D"/><use xlink:href="#Q" class="B"/><use xlink:href="#R" class="C"/><use xlink:href="#S" class="B"/><use xlink:href="#T" class="C"/><use xlink:href="#U" class="B"/><g class="D"><use xlink:href="#V"/><use xlink:href="#W"/><use xlink:href="#X"/></g><use xlink:href="#Y" class="C"/><use xlink:href="#Z" fill="#2d3945"/><use xlink:href="#a" class="B"/><path d="M212.338 42.702H24.253a21.4 21.4 0 0 1-14.633-6.49c-3.849-3.972-6.001-9.28-6.001-14.803S5.771 10.578 9.62 6.605A21.4 21.4 0 0 1 24.253.115h188.086a21.4 21.4 0 0 1 14.632 6.49c3.849 3.973 6.001 9.28 6.001 14.804s-2.152 10.831-6.001 14.804a21.4 21.4 0 0 1-14.632 6.49z" fill="#fff"/><g class="D"><use xlink:href="#B"/><use xlink:href="#C"/><use xlink:href="#D"/><use xlink:href="#E"/><use xlink:href="#F"/><use xlink:href="#G"/><use xlink:href="#H"/><use xlink:href="#I"/></g><g class="B"><use xlink:href="#J"/><use xlink:href="#K" opacity=".5"/></g><use xlink:href="#L" fill="#fff"/><g class="D"><use xlink:href="#M"/><use xlink:href="#N"/></g><use xlink:href="#O" class="C"/><use xlink:href="#P" class="D"/><use xlink:href="#Q" class="B"/><use xlink:href="#R" class="C"/><use xlink:href="#S" class="B"/><use xlink:href="#T" class="C"/><use xlink:href="#U" class="B"/><g class="D"><use xlink:href="#V"/><use xlink:href="#W"/><use xlink:href="#X"/></g><use xlink:href="#Y" class="C"/><use xlink:href="#Z" fill="#2d3945"/><use xlink:href="#a" class="B"/></g><defs><clipPath id="A"><path fill="#fff" transform="translate(.279)" d="M0 0h233.238v62H0z"/></clipPath><path id="B" d="M66.652 16.247c-.191.254-.383.515-.574.578-.233.137-.501.204-.771.191-.328-.002-.653-.066-.956-.191l-1.09-.451a7.4 7.4 0 0 0-1.275-.451 6.6 6.6 0 0 0-1.658-.191 3.7 3.7 0 0 0-2.053.515c-.223.162-.403.376-.525.623a1.7 1.7 0 0 0-.176.795 1.43 1.43 0 0 0 .446 1.093 6.74 6.74 0 0 0 1.218.769l1.728.636 1.983.636a18.53 18.53 0 0 1 1.983.833 6.57 6.57 0 0 1 1.728 1.227 5 5 0 0 1 1.218 1.735c.33.772.483 1.608.446 2.447.017 1.105-.201 2.201-.638 3.216a7.19 7.19 0 0 1-1.855 2.511c-.917.736-1.957 1.304-3.073 1.678-2.143.609-4.394.739-6.593.381-.782-.13-1.552-.323-2.302-.578-.703-.248-1.387-.548-2.047-.896-.594-.284-1.137-.665-1.607-1.125l1.6-2.574c.165-.294.408-.538.701-.706.326-.2.708-.292 1.09-.261.378-.015.754.075 1.084.261l1.026.578c.438.217.887.41 1.345.578a5.42 5.42 0 0 0 1.83.216 4.24 4.24 0 0 0 1.339-.197c.325-.094.63-.247.899-.451a1.59 1.59 0 0 0 .51-.636 1.65 1.65 0 0 0 .128-.775c.008-.213-.027-.425-.104-.624a1.57 1.57 0 0 0-.342-.533 3.28 3.28 0 0 0-1.218-.769c-.557-.244-1.136-.438-1.728-.578l-1.983-.636c-.708-.248-1.326-.521-1.964-.826-.639-.332-1.222-.761-1.728-1.271a5.82 5.82 0 0 1-1.211-1.907c-.329-.862-.483-1.78-.453-2.701a7.28 7.28 0 0 1 .58-2.835c.392-.925.985-1.751 1.734-2.422a7.79 7.79 0 0 1 2.875-1.614 12.85 12.85 0 0 1 4.029-.578c.829-.008 1.656.088 2.461.286a10.87 10.87 0 0 1 2.174.636c.656.245 1.279.569 1.855.966.542.341 1.037.751 1.473 1.22l-1.562 2.174z"/><path id="C" d="M68.188 11.48h5.566c.429-.011.851.102 1.218.324a2.14 2.14 0 0 1 .701.833l2.302 10.494.516 2.32.383 2.25.638-2.25c.191-.769.446-1.545.708-2.32l2.895-10.494a1.62 1.62 0 0 1 .637-.833c.331-.242.739-.357 1.148-.324h3.073c.429-.01.851.103 1.218.324a2.14 2.14 0 0 1 .701.833l2.748 10.494.638 2.32.574 2.25.446-2.25.58-2.32 2.429-10.494a1.64 1.64 0 0 1 .638-.833 1.74 1.74 0 0 1 1.154-.324h5.311l-7.23 23.366h-5.63a1.04 1.04 0 0 1-.772-.254 1.98 1.98 0 0 1-.51-.903l-3.328-11.632c-.178-.506-.327-1.022-.446-1.545-.137-.508-.243-1.024-.319-1.544l-.319 1.544a12.84 12.84 0 0 1-.453 1.545L82.08 33.644a1.44 1.44 0 0 1-.523.848 1.45 1.45 0 0 1-.95.308h-5.183L68.188 11.48z"/><path id="D" d="M115.088 10.774a12.64 12.64 0 0 1 4.221.705c1.23.433 2.346 1.137 3.264 2.06a10.08 10.08 0 0 1 2.175 3.35c.527 1.443.786 2.971.765 4.507.015.425-.006.85-.064 1.271-.035.272-.122.535-.255.776-.054.096-.127.18-.215.247s-.188.115-.295.141c-.247.084-.505.127-.765.127h-13.313a6.53 6.53 0 0 0 1.792 4.246 5.1 5.1 0 0 0 1.728 1.006 5.11 5.11 0 0 0 1.982.266 5.32 5.32 0 0 0 2.111-.324c.532-.161 1.047-.373 1.536-.636.447-.261.899-.451 1.276-.636.372-.208.791-.319 1.217-.324.244-.014.487.032.71.132a1.5 1.5 0 0 1 .565.446l2.047 2.543c-.653.786-1.43 1.46-2.302 1.996a13.05 13.05 0 0 1-2.55 1.22 9.77 9.77 0 0 1-2.627.585 17.77 17.77 0 0 1-2.493.191c-1.549.01-3.088-.253-4.546-.776-1.394-.515-2.66-1.327-3.71-2.377-1.116-1.118-1.985-2.456-2.551-3.928a14.29 14.29 0 0 1-.899-5.473c-.003-1.517.258-3.022.772-4.449a9.96 9.96 0 0 1 2.302-3.668 11.32 11.32 0 0 1 3.583-2.511c1.468-.465 2.999-.705 4.539-.712zm.128 4.824c-.575-.033-1.151.054-1.691.254a4.17 4.17 0 0 0-1.446.909 6 6 0 0 0-1.473 3.28h8.639a6.55 6.55 0 0 0-.191-1.608 3.81 3.81 0 0 0-.727-1.437c-.341-.422-.77-.766-1.256-1.01-.576-.282-1.214-.416-1.855-.388z"/><path id="E" d="M139.463 10.774c1.439-.007 2.869.232 4.227.705 1.228.433 2.342 1.137 3.258 2.06a11.21 11.21 0 0 1 2.181 3.35c.527 1.443.786 2.971.765 4.507a7.4 7.4 0 0 1-.064 1.271c-.035.272-.122.535-.255.776-.054.096-.127.18-.214.247a.81.81 0 0 1-.296.141c-.249.084-.509.127-.771.127h-13.39c.192 1.907.829 3.35 1.792 4.246.504.446 1.091.787 1.728 1.006s1.311.308 1.983.266c.718.035 1.436-.075 2.11-.324a8.59 8.59 0 0 0 1.537-.636c.446-.261.892-.451 1.275-.636.37-.207.787-.318 1.211-.324.244-.013.487.032.709.133a1.51 1.51 0 0 1 .566.445l1.983 2.543a9.47 9.47 0 0 1-2.301 1.996 13.14 13.14 0 0 1-2.551 1.22 9.73 9.73 0 0 1-2.62.585 17.92 17.92 0 0 1-2.499.191c-1.568.003-3.125-.259-4.604-.776a10.2 10.2 0 0 1-3.71-2.377 11.3 11.3 0 0 1-2.551-3.928c-.675-1.744-1-3.604-.956-5.473-.006-1.516.253-3.022.765-4.449a9.98 9.98 0 0 1 2.308-3.668 12.02 12.02 0 0 1 3.583-2.511c1.561-.45 3.176-.69 4.801-.712zm.128 4.824c-.574-.032-1.149.055-1.688.255s-1.03.509-1.443.908a5.96 5.96 0 0 0-1.473 3.28h8.64c.003-.542-.062-1.082-.192-1.608-.147-.512-.387-.992-.707-1.418a4.08 4.08 0 0 0-1.276-1.03c-.578-.283-1.218-.417-1.861-.388z"/><path id="F" d="M174.077 29.373c-.203-.452-.483-.865-.829-1.22-.762-.74-1.783-1.154-2.847-1.154a4.09 4.09 0 0 0-2.847 1.154 3.19 3.19 0 0 0-.835 1.22c-.21.489-.319 1.016-.319 1.548s.109 1.059.319 1.548c.185.463.47.88.835 1.22a3.44 3.44 0 0 0 1.276.839c.509.202 1.051.31 1.6.318a3.87 3.87 0 0 0 1.536-.318c.475-.197.908-.481 1.276-.839.38-.347.665-.784.828-1.271.198-.492.306-1.015.319-1.545a3.87 3.87 0 0 0-.312-1.5z"/><path id="G" d="M207.479 34.845h-6.338l-9.002-23.366h5.738c.429-.011.852.101 1.218.324a2.14 2.14 0 0 1 .701.833l3.188 10.494.771 2.511c.255.839.383 1.608.574 2.447l.574-2.447c.191-.839.516-1.672.771-2.511l3.329-10.494a1.47 1.47 0 0 1 .701-.833 1.72 1.72 0 0 1 1.154-.324h5.509l-8.888 23.366z"/><path id="H" d="M163.199 29.309a1.98 1.98 0 0 0-.446-.515 1.28 1.28 0 0 0-.702-.191c-.179.004-.355.048-.516.127l-.383.197c-.064.064-.191.064-.319.127-.141.057-.294.079-.446.064-.319 0-.516-.064-.637-.324-.198-.282-.288-.624-.256-.966V17.792h5.184v-5.218h-5.184V6.719h-5.61v.064c-.433.102-.819.345-1.097.69a1.99 1.99 0 0 0-.44 1.217v19.501a7.42 7.42 0 0 0 .453 2.708c.257.8.696 1.53 1.284 2.132s1.307 1.06 2.101 1.339c.903.328 1.859.481 2.819.451 1.104.014 2.205-.138 3.264-.451a9.92 9.92 0 0 0 2.875-1.411l.319-.261-2.263-3.388z"/><path id="I" d="M189.945 29.309a1.96 1.96 0 0 0-.446-.515c-.213-.131-.459-.198-.708-.191a1.2 1.2 0 0 0-.51.127l-.383.197c-.063.064-.191.064-.319.127a.96.96 0 0 1-.452.064c-.319 0-.51-.064-.638-.324a1.45 1.45 0 0 1-.255-.966V17.792h5.184v-5.218h-5.184V6.719h-5.63v.064a1.99 1.99 0 0 0-1.098.689 1.98 1.98 0 0 0-.438 1.218v19.501a7.55 7.55 0 0 0 .446 2.708 5.47 5.47 0 0 0 1.289 2.13 5.49 5.49 0 0 0 2.103 1.34 7.58 7.58 0 0 0 2.818.451 11.07 11.07 0 0 0 3.265-.451c1.028-.312 2-.788 2.875-1.411l.319-.261-2.238-3.388z"/><path id="J" d="M21.906.407a21.29 21.29 0 0 0-11.802 3.569C6.61 6.303 3.887 9.611 2.279 13.481A21.12 21.12 0 0 0 1.07 25.718a21.16 21.16 0 0 0 5.814 10.844c2.971 2.962 6.756 4.979 10.877 5.796s8.392.398 12.274-1.205a21.23 21.23 0 0 0 9.534-7.801c2.334-3.483 3.58-7.578 3.58-11.767 0-5.617-2.238-11.004-6.222-14.976S27.54.407 21.906.407zm7.651 20.41l-11.476 6.325c-.956.515-1.728-.064-1.728-1.271l-.128-11.588c0-1.227.771-1.869 1.728-1.354l11.515 6.051c.969.483 1.033 1.322.089 1.837z"/><path id="K" d="M23.82.025A21.47 21.47 0 0 0 8.663 6.285c-4.02 4.008-6.278 9.443-6.278 15.111s2.258 11.103 6.278 15.111a21.47 21.47 0 0 0 15.157 6.259c11.84 0 20.543-9.592 20.543-21.37S35.685.025 23.82.025zm7.683 20.595l-11.508 6.312c-.956.515-1.728-.064-1.792-1.271l-.121-11.67c0-1.22.771-1.869 1.728-1.354l11.661 6.121c.95.515 1.014 1.348.057 1.862h-.026z"/><path id="L" d="M42.945 16.437c-.771-3.604-4.801-10.621-7.358-11.715-2.436-1.03-3.711-2.771-4.673-2.962S25.814-.235 24.328.089s-3.583-.197-4.801-.064-7.651 1.608-11.323 4.952C4.748 8.155 3.741 9.871 3.741 9.871s-6.459 12.872-1.6 14.423c1.275.381 1.09 1.157 1.154 2.504 0 1.996-.574 2.256.893 3.413s3.009-1.03 4.291.261-1.218 4.119 2.238 6.051 2.901-3.026 5.324-2.193.319 4.316 3.137 4.507 1.792-3.54 3.456-3.28.701 2.962 4.157 2.314 1.154-3.604 3.009-4.182 2.55 3.178 6.267-.451.191-3.54 1.026-4.958 1.6 1.03 2.684-2.25.128-2.059 0-3.604 3.902-2.384 3.169-5.988z"/><path id="M" d="M36.257 27.313h-2.62a.44.44 0 0 1-.324-.128.44.44 0 0 1-.098-.148c-.022-.055-.033-.115-.031-.175v-.706a.44.44 0 0 1 .033-.174c.022-.055.056-.105.098-.147s.092-.075.148-.098a.45.45 0 0 1 .174-.033h2.62a.44.44 0 0 1 .32.131.44.44 0 0 1 .127.321v.706c-.064.197-.255.451-.446.451z"/><path id="N" d="M36.901 19.463c-.091.003-.182-.019-.261-.064l-.574-.388c-.05-.024-.094-.059-.127-.104s-.055-.096-.064-.151a.49.49 0 0 1 .064-.324l1.345-2.32a.44.44 0 0 1 .574-.191l.574.388a.35.35 0 0 1 .13.103c.034.044.058.096.068.151 0 .133 0 .261-.07.324l-1.352 2.32c0 .191-.178.254-.306.254z"/><path id="O" d="M33.186 14.632c-.035.004-.07.001-.103-.01s-.063-.029-.089-.053l-.574-.388c-.096-.071-.163-.176-.187-.293a.48.48 0 0 1 .059-.342l1.345-2.295a.44.44 0 0 1 .574-.191l.574.388c.05.024.094.059.127.104s.055.096.064.15a.49.49 0 0 1-.064.324l-1.339 2.384c-.127.095-.255.223-.389.223z"/><path id="P" d="M29.665 9.096c-.035.004-.07.001-.103-.01s-.063-.029-.088-.053c-.114-.05-.205-.141-.255-.254l-.893-2.574c-.032-.048-.049-.104-.049-.162s.017-.114.049-.162c.05-.114.141-.204.255-.254l.637-.261c.255-.064.51 0 .574.261l.899 2.574c.064.254 0 .515-.255.578l-.638.254c-.006.064-.07.064-.134.064z"/><path id="Q" d="M26.017 10.062l-.127.127a.53.53 0 0 1-.319.07l-2.62-.712c-.127 0-.191-.127-.255-.191a.71.71 0 0 1-.064-.324l.191-.636a.42.42 0 0 1 .186-.27.42.42 0 0 1 .156-.06c.056-.009.113-.007.168.006l2.62.712c.128 0 .198.127.261.191a.71.71 0 0 1 .064.324l-.198.636c0 .044 0 .127-.064.127z"/><path id="R" d="M19.624 5.428c-.108-.003-.211-.043-.293-.114s-.136-.168-.153-.274l-.128-.706c-.017-.112.006-.227.064-.324.024-.05.06-.093.104-.127s.096-.055.151-.064l2.55-.578a.48.48 0 0 1 .319.064.35.35 0 0 1 .198.254l.108.699c.023.119.003.243-.057.348s-.155.187-.268.23l-2.55.578-.045.013z"/><path id="S" d="M27.237 31.502c-.035.004-.07.001-.103-.01s-.063-.029-.088-.053l-.574-.388c-.096-.071-.163-.176-.187-.293a.48.48 0 0 1 .059-.342l1.339-2.32a.44.44 0 0 1 .58-.191l.574.381c.05.026.093.063.126.108s.055.098.065.153a.5.5 0 0 1-.064.324l-1.32 2.307c-.153.261-.28.324-.408.324z"/><path id="T" d="M8.172 14.829l-2.308-1.163c-.1-.054-.175-.144-.21-.252s-.029-.224.019-.327l.319-.636c.02-.055.052-.105.095-.146a.39.39 0 0 1 .322-.106.39.39 0 0 1 .163.061l2.302 1.157c.1.054.175.144.21.252s.029.224-.019.327l-.319.636c-.051.101-.139.178-.247.215s-.225.03-.327-.018z"/><path id="U" d="M8.428 26.284c-.064-.064-.128-.127-.128-.191l-.319-.636a.53.53 0 0 1-.015-.351c.035-.115.108-.216.207-.285l2.365-1.271c.1-.046.209-.068.319-.064a.88.88 0 0 1 .255.191l.319.636c.07.134.07.261 0 .324-.05.096-.114.184-.191.261l-2.365 1.271c-.1.046-.209.068-.319.064-.035.032-.08.05-.128.051z"/><path id="V" d="M11.431 10.386c-.089.003-.178-.019-.255-.063l-.574-.388c-.097-.071-.163-.176-.187-.293a.48.48 0 0 1 .059-.342l1.345-2.32a.44.44 0 0 1 .574-.191l.574.388c.05.024.094.059.127.104s.055.096.064.151c.017.112-.006.227-.064.324l-1.339 2.314c-.064.133-.134.197-.261.197 0 .121-.064.121-.064.121z"/><path id="W" d="M9.793 20.944c-.036.033-.079.058-.125.072s-.096.019-.144.013a.34.34 0 0 1-.137-.048c-.041-.026-.077-.06-.104-.101l-2.04-1.742c-.084-.081-.137-.19-.148-.306s.018-.233.084-.329l.446-.515c.087-.08.201-.125.319-.127.128 0 .261 0 .325.127l2.047 1.735a1.45 1.45 0 0 1 .191.324.5.5 0 0 1-.064.324l-.446.515c-.166.057-.166.057-.204.057z"/><path id="X" d="M12.203 32.595a.48.48 0 0 1-.275-.091c-.08-.058-.14-.139-.171-.233l-.689-2.638c-.018-.059-.023-.121-.017-.182s.025-.12.055-.174.07-.101.118-.139.104-.067.163-.083l.638-.191a.48.48 0 0 1 .319.064c.128.063.191.127.191.254l.701 2.638a.49.49 0 0 1-.064.324c-.064.127-.127.191-.255.191l-.638.197c.064.064-.013.064-.077.064z"/><path id="Y" d="M20.842 33.949a.49.49 0 0 1-.453-.324l-.637-2.638c-.018-.059-.025-.121-.019-.182s.025-.121.054-.175a.46.46 0 0 1 .283-.222l.637-.197a.48.48 0 0 1 .319.064c.05.026.093.063.126.108a.36.36 0 0 1 .065.153l.701 2.638c.017.112-.006.227-.064.324-.064.127-.127.191-.255.191l-.637.197c-.057.064-.057.064-.121.064z"/><path id="Z" d="M31.719 18.561l-14.785-7.723c-1.211-.636-2.238.127-2.238 1.742l.128 14.804c0 1.608 1.026 2.314 2.244 1.672l14.664-8.047c1.262-.706 1.199-1.799-.013-2.447z"/><path id="a" d="M31.719 18.561l-14.785-7.723c-1.211-.636-2.238.127-2.238 1.742v1.99l14.779 7.596 2.181-1.22c1.339-.642 1.275-1.735.064-2.384z"/></defs></svg>