<svg xmlns="http://www.w3.org/2000/svg" width="41" height="44" fill="none" xmlns:v="https://vecta.io/nano"><style><![CDATA[.B{fill:#e84f35}.C{stroke-miterlimit:10}.D{stroke-linejoin:round}.E{fill:#dee7f3}.F{stroke-linecap:round}.G{stroke-width:.228}]]></style><path d="M11.474 21.184l2.09 1.99a.61.61 0 0 0 .54.154l2.826-.594c.488-.102.882.4.666.85l-1.248 2.604c-.086.178-.078.388.02.56l1.438 2.504c.248.432-.108.962-.602.896l-2.862-.382c-.196-.026-.394.046-.526.192l-1.936 2.14c-.334.37-.948.196-1.038-.296l-.52-2.84c-.036-.194-.166-.36-.346-.44l-2.634-1.18c-.456-.204-.48-.842-.04-1.08l2.54-1.372a.6.6 0 0 0 .312-.466l.308-2.87a.6.6 0 0 1 1.012-.37z" class="E"/><g filter="url(#A)" class="B"><path d="M31.874 19.613H9.325c-.788 0-1.422.476-1.422 1.064V33.26c0 .589.637 1.064 1.422 1.064h22.549c.788 0 1.422-.476 1.422-1.064V20.677c.003-.588-.637-1.064-1.422-1.064z"/></g><path d="M33.464 18.71H7.508c-.288 0-.522-.222-.522-.493v-5.518c0-.274.234-.493.522-.493h25.956c.288 0 .522.222.522.493v5.518c0 .271-.234.493-.522.493z" class="B"/><g stroke="#172a3a" class="C D"><g stroke-width=".614"><path d="M19.341 9.237s-3.202-4.338-5.034-4.338S8.815 9.237 9.96 10.97s7.056 1.085 9.035 1.085m1.748-2.818s3.427-4.338 5.386-4.338 5.873 4.338 4.65 6.072-6.014 1.085-9.285 1.085" class="F"/><path d="M19.456 9.456c-1.373.087-.687 1.988-.343 2.928h2.175c.228-.216.571-1.105.571-2.06 0-1.194-.687-.868-2.403-.868z"/><path d="M23.46 32.305V12.202h-5.948v20.68" class="F"/></g><path d="M11.062 10.898s-.952-1.295 1.333-.663 2.556 1.788 6.603 1.823m2.498 0s3.712.144 5.807-.998 2.746-1.021 2.538-.162" stroke-width=".656" class="F"/></g><path d="M5.788 6.357l.746.71c.052.048.124.07.192.054l1.008-.212c.174-.036.314.142.238.304l-.446.928c-.03.064-.028.138.008.2l.512.894c.088.154-.038.344-.214.32l-1.02-.136c-.07-.01-.14.016-.188.068l-.692.764c-.12.132-.338.07-.37-.106l-.186-1.014c-.012-.07-.058-.128-.124-.158l-.94-.422c-.162-.072-.17-.3-.014-.386l.906-.49c.062-.034.104-.096.112-.166l.11-1.024c.02-.172.234-.25.362-.128zm32.461 9.476l.112.746c.008.052.04.096.086.118l.678.332c.118.058.118.224.002.282l-.676.336c-.046.024-.078.068-.086.118l-.106.748c-.018.13-.176.182-.268.088l-.53-.538c-.036-.036-.088-.054-.14-.044l-.744.13c-.128.022-.228-.112-.166-.228l.348-.67c.024-.046.024-.1 0-.146l-.354-.666c-.062-.116.036-.25.166-.23l.744.124c.052.008.104-.008.14-.046l.524-.542a.16.16 0 0 1 .27.088z" class="E"/><g stroke="#ff7062" class="C G"><path d="M4.154 24.916a1.85 1.85 0 1 0 0-3.7 1.85 1.85 0 0 0 0 3.7z"/><path d="M4.154 25.034a1.97 1.97 0 0 1-1.968-1.968 1.97 1.97 0 0 1 1.968-1.968 1.97 1.97 0 0 1 1.968 1.968 1.97 1.97 0 0 1-1.968 1.968zm0-3.7c-.956 0-1.732.778-1.732 1.732s.778 1.732 1.732 1.732 1.732-.778 1.732-1.732-.776-1.732-1.732-1.732z"/></g><g fill="#172a3a"><path d="M17.754 3.64c-.066 0-.118-.054-.118-.118l.008-1.308c0-.064.054-.116.118-.116s.118.054.116.118l-.008 1.308c0 .064-.052.116-.116.116z"/><path d="M18.412 2.99l-1.31-.008c-.064 0-.118-.054-.116-.118s.054-.116.118-.116l1.308.008c.064 0 .118.054.116.118s-.052.116-.116.116z"/></g><g stroke="#dee7f3" class="C G"><path d="M35.152 33.06c.66 0 1.196-.535 1.196-1.196s-.535-1.196-1.196-1.196-1.196.535-1.196 1.196.535 1.196 1.196 1.196z"/><path d="M35.152 33.178c-.724 0-1.314-.59-1.314-1.314s.59-1.314 1.314-1.314 1.314.59 1.314 1.314-.59 1.314-1.314 1.314zm0-2.394a1.08 1.08 0 0 0-1.078 1.078 1.08 1.08 0 0 0 1.078 1.078 1.08 1.08 0 0 0 1.078-1.078 1.08 1.08 0 0 0-1.078-1.078z"/></g><g class="E"><path d="M35.254 26.01c-.028.016-.064.02-.098.008l-1.076-.39c-.062-.022-.092-.09-.07-.15s.09-.092.15-.07l1.076.39c.062.022.092.09.07.15-.01.028-.028.05-.052.062zM34.028 7.606l2.354-1.696.314 2.766-2.668-1.07z"/><path d="M36.836 8.858l-3.05-1.222 2.69-1.938.36 3.16zM34.27 7.576l2.286.916-.268-2.368-2.018 1.452z"/></g><path d="M31.338 33.31c-.042.016-.094.006-.126-.028l-.972-1.018c-.046-.048-.044-.122.004-.166s.122-.044.166.004l.972 1.018c.046.048.044.122-.004.166-.012.01-.026.02-.04.024z" class="B"/><path d="M8.036 37.384c-.054-.038-.066-.11-.028-.164l.472-.672c.038-.054.11-.066.164-.028s.066.11.028.164l-.472.672c-.036.054-.11.066-.164.028z" fill="#172a3a"/><g class="B"><path d="M29.366 38.478a.24.24 0 0 1-.242-.244l.016-2.696c0-.134.11-.24.242-.24a.24.24 0 0 1 .242.244l-.016 2.696c0 .132-.108.24-.242.24z"/><path d="M30.722 37.14l-2.696-.016a.24.24 0 0 1-.24-.244c0-.134.11-.24.242-.24l2.698.016a.24.24 0 0 1 .24.244c-.002.132-.11.24-.244.24z"/></g><defs><filter id="A" x="1.339" y="16.002" width="38.522" height="27.84" filterUnits="userSpaceOnUse" color-interpolation-filters="sRGB"><feFlood flood-opacity="0" result="A"/><feColorMatrix in="SourceAlpha" values="0 0 0 0 0 0 0 0 0 0 0 0 0 0 0 0 0 0 127 0"/><feOffset dy="2.95398"/><feGaussianBlur stdDeviation="3.282"/><feColorMatrix values="0 0 0 0 0.933333 0 0 0 0 0.0855556 0 0 0 0 0.0855556 0 0 0 0.1 0"/><feBlend in2="A"/><feBlend in="SourceGraphic"/></filter></defs></svg>