<svg xmlns="http://www.w3.org/2000/svg" width="43" height="47" fill="none" xmlns:v="https://vecta.io/nano"><path d="M33.496 19.89H15.338a.8.8 0 0 1-.798-.798V6.096a.8.8 0 0 1 .798-.798h18.158a.8.8 0 0 1 .798.798v12.996c0 .44-.355.798-.798.798z" fill="#dee7f3"/><g filter="url(#A)"><path d="M22.746 17.062l-1.3-1.687c-.542-.698-1.369-1.107-2.246-1.107H9.971c-.849 0-1.533.69-1.533 1.545v1.792 1.113V33.92c0 .622.497 1.122 1.113 1.122h24.286c.616 0 1.113-.5 1.113-1.122V18.729c0-.622-.497-1.122-1.113-1.122H23.85a1.39 1.39 0 0 1-1.105-.545z" fill="#e84f35"/></g><path d="M11.942 12.632V9.236a.8.8 0 0 1 .798-.798h18.158a.8.8 0 0 1 .798.798v6.73" stroke="#172a3a" stroke-width=".751" stroke-miterlimit="10" stroke-linecap="round" stroke-linejoin="round"/><path d="M25.543 12.275h3.913v.639h-3.913v-.639zm0 .94h3.913v.636h-3.913v-.636zm.968 2.493c-.315-.114-.554-.278-.718-.494s-.247-.474-.247-.775v-.006c0-.196.046-.375.131-.534a1.4 1.4 0 0 1 .375-.432l1.13.119c-.236.054-.415.131-.537.23s-.184.25-.184.449v.003a.61.61 0 0 0 .312.554c.207.131.5.196.874.196a2.64 2.64 0 0 0 .855-.136c.27-.091.514-.227.727-.403l.494.721a2.76 2.76 0 0 1-.599.375 3.27 3.27 0 0 1-.701.227c-.25.051-.511.077-.781.077-.437-.006-.815-.06-1.13-.17zm1.437-3.197c.011-.003.02-.006.034-.011.116-.037.216-.082.298-.136a.57.57 0 0 0 .193-.202.6.6 0 0 0 .068-.298v-.003c0-.23-.097-.412-.29-.537s-.468-.19-.823-.19a2 2 0 0 0-.656.116c-.224.077-.446.193-.659.344l-.449-.744c.182-.128.372-.23.568-.315a3.56 3.56 0 0 1 .596-.193c.202-.043.403-.068.605-.068.429 0 .795.06 1.099.176s.537.287.696.511.238.494.238.809v.003a1.19 1.19 0 0 1-.29.806l-1.252-.057c.003-.006.014-.008.023-.011z" fill="#e84f35"/><defs><filter id="A" x=".535" y="9.922" width="42.317" height="36.578" filterUnits="userSpaceOnUse" color-interpolation-filters="sRGB"><feFlood flood-opacity="0" result="A"/><feColorMatrix in="SourceAlpha" values="0 0 0 0 0 0 0 0 0 0 0 0 0 0 0 0 0 0 127 0"/><feOffset dy="3.55609"/><feGaussianBlur stdDeviation="3.951"/><feColorMatrix values="0 0 0 0 0.933333 0 0 0 0 0.0855556 0 0 0 0 0.0855556 0 0 0 0.1 0"/><feBlend in2="A"/><feBlend in="SourceGraphic"/></filter></defs></svg>