<svg xmlns="http://www.w3.org/2000/svg" width="45" height="40" fill="none" xmlns:v="https://vecta.io/nano"><path d="M31.535 35.631H13.083c-.723 0-1.311-.443-1.311-.989V21.336c0-.545.585-.988 1.311-.988h18.452c.723 0 1.311.443 1.311.988v13.309c-.003.543-.591.986-1.311.986z" fill="#ebf1f7"/><path d="M33.625 30.85H11.216c-.878 0-1.59-.537-1.59-1.201V13.488c0-.663.712-1.201 1.59-1.201h22.409c.878 0 1.59.537 1.59 1.201v16.161c-.003.663-.714 1.201-1.59 1.201z" fill="#dee7f3"/><g filter="url(#A)"><path d="M35.132 25.994H9.736c-.996 0-1.802-.61-1.802-1.362V6.319c0-.752.806-1.362 1.802-1.362h25.396c.997 0 1.802.61 1.802 1.362v18.315c-.003.749-.811 1.359-1.802 1.359z" fill="#e84f35"/></g><path d="M29.381 10.488h3.701v.604h-3.701v-.604zm0 .889h3.701v.602h-3.701v-.602zm.916 2.358c-.298-.107-.524-.263-.68-.467s-.234-.448-.234-.733v-.005c0-.185.043-.354.123-.505s.201-.287.355-.408l1.069.113c-.223.051-.392.124-.508.218a.52.52 0 0 0-.175.424v.003c0 .228.097.4.295.524s.473.185.827.185a2.5 2.5 0 0 0 .809-.129c.255-.086.486-.215.688-.381l.467.682c-.172.14-.36.26-.567.355s-.427.166-.663.215a3.68 3.68 0 0 1-.739.072c-.416-.005-.773-.056-1.069-.161zm1.356-3.024c.011-.003.019-.005.032-.011.11-.035.204-.078.282-.129a.54.54 0 0 0 .183-.191.57.57 0 0 0 .064-.282v-.003a.57.57 0 0 0-.274-.508c-.185-.121-.443-.18-.779-.18a1.89 1.89 0 0 0-.62.11c-.215.073-.422.183-.623.325l-.424-.704c.172-.121.352-.218.537-.298s.373-.14.564-.183a2.77 2.77 0 0 1 .572-.064c.406 0 .752.056 1.039.167s.508.271.658.483.226.467.226.765v.003c0 .298-.091.551-.274.763l-1.184-.054c.003-.005.013-.008.021-.011z" fill="#fff"/><path d="M10.341 19.179h12.613m-12.613 3.602h9.033" stroke="#fff" stroke-width="1.786" stroke-miterlimit="10" stroke-linecap="round"/><path d="M18.283 7.184v10.048l-4.123-2.388-4.123 2.388V4.498" stroke="#172a3a" stroke-width=".751" stroke-miterlimit="10" stroke-linecap="round" stroke-linejoin="round"/><path d="M14.16 8.468l.876 1.773 1.953.282-1.413 1.378.333 1.947-1.749-.919-1.746.919.333-1.947-1.413-1.378 1.953-.282.873-1.773z" fill="#fff"/><defs><filter id="A" x=".459" y=".846" width="43.95" height="35.987" filterUnits="userSpaceOnUse" color-interpolation-filters="sRGB"><feFlood flood-opacity="0" result="A"/><feColorMatrix in="SourceAlpha" values="0 0 0 0 0 0 0 0 0 0 0 0 0 0 0 0 0 0 127 0"/><feOffset dy="3.36382"/><feGaussianBlur stdDeviation="3.738"/><feColorMatrix values="0 0 0 0 0.933333 0 0 0 0 0.0855556 0 0 0 0 0.0855556 0 0 0 0.1 0"/><feBlend in2="A"/><feBlend in="SourceGraphic"/></filter></defs></svg>