<svg xmlns="http://www.w3.org/2000/svg" width="47" height="40" fill="none" xmlns:v="https://vecta.io/nano"><style><![CDATA[.B{stroke-miterlimit:10}.C{stroke-linecap:round}.D{stroke:#fff}.E{stroke-width:1.686}]]></style><path d="M31.557 34.856H15.836c-.617 0-1.116-.377-1.116-.841V22.677c0-.466.499-.841 1.116-.841h15.721c.617 0 1.116.378 1.116.841v11.337c0 .466-.502.841-1.116.841z" fill="#ebf1f7"/><path d="M35.583 26.522v2.375c-.003.615-.663 1.113-1.477 1.113H13.291c-.817 0-1.477-.499-1.477-1.116v-2.373" stroke="#172a3a" stroke-width=".751" stroke-linejoin="round" class="B C"/><g filter="url(#A)"><path d="M36.648 5.298H10.746A2.46 2.46 0 0 0 8.29 7.749v14.492c0 1.356 1.103 2.451 2.456 2.451h25.902c1.359 0 2.456-1.1 2.456-2.451V7.749a2.46 2.46 0 0 0-2.456-2.451z" fill="#e84f35"/><path d="M12.396 16.975h3.537" class="B C D E"/><path d="M18.519 16.975h3.537" class="B C D E"/><path d="M24.645 16.975h3.535" class="B C D E"/><path d="M30.768 16.975h3.535" class="B C D E"/><path opacity=".81" d="M14.257 11.259a.93.93 0 0 1 .919.774l2.001.014.005-1.146c.003-.528-.439-.96-.984-.965l-4.042-.027c-.545-.003-.989.423-.992.952l-.003.38 3.095.019z" fill="#ff6a51"/><path opacity=".81" d="M15.173 12.313c-.07.434-.458.766-.925.763l-3.095-.019v-.278l3.098.019a.64.64 0 0 0 .652-.626c0-.345-.291-.634-.647-.634l-3.098-.019-.005 1.788c-.003.528.439.96.984.965l4.041.027c.545.003.989-.423.992-.952l.003-1.016-2.001-.019z" fill="#ff6a51"/></g><defs><filter id="A" x=".786" y="1.171" width="45.821" height="34.4" filterUnits="userSpaceOnUse" color-interpolation-filters="sRGB"><feFlood flood-opacity="0" result="A"/><feColorMatrix in="SourceAlpha" values="0 0 0 0 0 0 0 0 0 0 0 0 0 0 0 0 0 0 127 0"/><feOffset dy="3.37659"/><feGaussianBlur stdDeviation="3.752"/><feColorMatrix values="0 0 0 0 0.933333 0 0 0 0 0.0855556 0 0 0 0 0.0855556 0 0 0 0.1 0"/><feBlend in2="A"/><feBlend in="SourceGraphic"/></filter></defs></svg>