<svg width="61" height="12" viewBox="0 0 61 12" fill="none" xmlns="http://www.w3.org/2000/svg">
<g clip-path="url(#clip0_857_3578)">
<path fill-rule="evenodd" clip-rule="evenodd" d="M58.7209 3.8677C59.5478 3.8677 60.2181 3.16514 60.2181 2.29841C60.2181 1.43175 59.5478 0.729123 58.7209 0.729123C57.894 0.729123 57.2237 1.43168 57.2237 2.29841C57.2237 3.16507 57.894 3.8677 58.7209 3.8677ZM58.7209 4.09686C59.6685 4.09686 60.4367 3.29166 60.4367 2.29843C60.4367 1.3052 59.6685 0.5 58.7209 0.5C57.7733 0.5 57.0051 1.3052 57.0051 2.29843C57.0051 3.29166 57.7733 4.09686 58.7209 4.09686ZM0.328125 0.781188C0.328125 1.66353 0.947432 2.25911 1.48516 2.73623C2.14435 3.32115 3.33706 3.64291 5.32298 3.74507C7.30889 3.84723 10.0989 3.92385 10.7812 3.83446C11.4634 3.74507 12.3359 3.68293 12.6142 3.98402C12.6767 4.05167 12.7222 4.12814 12.7644 4.19896C12.8426 4.33039 12.9093 4.44235 13.0514 4.44235C14.1446 3.06735 14.0214 1.61776 13.3355 1.32062C13.1533 1.24168 11.7271 1.2589 9.87882 1.28122C6.61873 1.32059 2.04524 1.37581 0.667823 0.947246C0.604839 0.927649 0.552369 0.864506 0.506232 0.808976C0.437413 0.726153 0.382677 0.660283 0.328125 0.781188ZM15.9415 1.30975C15.9415 1.57843 12.6081 9.61063 12.2281 10.2576C12.1292 10.4259 11.9995 10.5597 11.8988 10.6635C11.6046 10.9669 11.5568 11.0162 13.2406 10.9307L14.3304 10.9299L15.136 9.00604C15.5791 7.9477 16.331 6.44242 16.331 6.44242L16.5823 8.63417C16.5823 8.63417 16.7378 10.6402 17.0123 11.2276C17.0691 11.3492 17.7268 11.458 18.0429 11.2996C20.6399 7.18038 21.209 6.63987 21.209 6.63987C21.209 6.63987 20.8691 9.20232 20.7636 9.91691C20.6985 10.3574 20.6399 10.9299 20.6399 10.9299L22.0044 10.9313H23.0836L23.4166 7.29073C23.5997 5.28831 23.8098 3.11691 23.8836 2.4651C24.0272 1.19872 23.9646 1.19975 23.218 1.21233C23.1397 1.21365 23.0538 1.21509 22.9599 1.21521C22.6465 1.21564 22.4425 1.22101 22.2532 1.32067C21.9969 1.45556 21.7677 1.76319 21.3311 2.46515C19.777 4.96366 18.9272 6.09453 18.744 6.1001C18.5609 6.10565 18.163 2.80594 18.163 2.80594C18.163 2.80594 18.0204 1.54328 17.8336 1.32074C17.7356 1.20406 17.5873 1.2072 17.3317 1.21261C17.2717 1.21388 17.2058 1.21528 17.1332 1.21528C17.055 1.21528 16.9704 1.21439 16.8833 1.21348C16.4422 1.20887 15.9415 1.20354 15.9415 1.30975ZM35.1841 1.41497C30.2993 2.67062 28.76 11.13 33.4153 11.1355C34.1192 11.1363 36.5155 10.9598 36.7908 10.6445C37.0662 10.3291 37.2118 10.0329 37.3765 9.48244C37.9633 7.52052 37.908 7.57456 37.4499 8.02219C37.2809 8.18726 37.0573 8.40582 36.7908 8.5966C35.0905 9.8143 32.9997 9.039 32.9997 7.1908C32.9997 4.41069 36.166 2.46664 38.0512 3.86777C38.2267 4.05763 38.3817 4.42636 38.4744 4.64677C38.5227 4.76163 38.5541 4.83623 38.5625 4.82429C38.6558 4.6922 39.2544 2.12846 39.2544 1.9275C39.2544 1.28656 36.8319 0.991418 35.1841 1.41497ZM24.9774 2.46506V3.49748H26.1946C26.254 3.49748 26.3097 3.49729 26.3618 3.49711C26.7905 3.49564 26.9733 3.49501 26.9733 3.60877C26.9733 3.95211 25.1593 10.1247 24.8911 10.8248C24.8374 10.965 25.1999 10.9554 25.7334 10.9413C25.9171 10.9364 26.121 10.9311 26.335 10.9311H27.5778L27.7289 10.0327C27.7852 9.78465 27.902 9.34603 28.0389 8.83205C28.1666 8.35266 28.3118 7.80761 28.4415 7.29047C28.7105 6.2188 29.0335 4.92671 29.1591 4.41906C29.183 4.32288 29.2036 4.23533 29.2223 4.15565C29.3753 3.50574 29.4047 3.38043 30.0621 3.38043H31.3088C31.7223 2.9723 32.4764 2.05939 32.7859 1.68471L32.8672 1.58634C32.7329 1.49634 30.6638 1.49634 28.7353 1.49634H24.9774V2.46506ZM40.676 1.64714C40.676 1.64714 40.3911 2.90747 39.4211 6.92412C39.2517 7.62571 38.9587 8.54999 38.7577 9.1842C38.6678 9.46759 38.5962 9.6933 38.5624 9.81499C38.248 10.947 38.4422 10.9457 40.207 10.934C40.4045 10.9327 40.6218 10.9312 40.8602 10.9312C44.1634 10.9312 45.4697 10.0162 45.6572 7.57126C45.7805 5.96017 44.4582 5.35765 43.5601 5.2427C42.6621 5.12778 42.1627 5.07846 42.1627 5.07846C42.1627 5.07846 42.429 3.68545 42.5559 3.57641C42.6827 3.46733 43.419 3.46733 44.3242 3.46733C44.7471 3.46733 45.0694 3.47979 45.3171 3.48937C46.0503 3.51771 46.1286 3.52074 46.2213 3.10004C46.2685 2.88615 46.4121 2.4071 46.5145 2.06528C46.5606 1.91131 46.5985 1.78494 46.6153 1.7236C46.7418 1.26274 40.676 1.64714 40.676 1.64714ZM47.9324 4.42175C48.3785 6.2305 48.832 8.06947 48.7653 8.29992C48.6921 8.55299 48.4374 8.86525 48.1544 9.21223C48.044 9.34753 47.9293 9.4882 47.8194 9.63264C47.414 10.1652 46.7106 10.9313 46.7106 10.9313H49.7622C49.7622 10.9313 50.6081 9.51673 52.1204 7.35612C52.9943 6.10748 54.2525 4.33085 54.916 3.40815C55.2241 2.97964 55.5495 2.55084 55.8096 2.20792C56.1097 1.81235 56.3231 1.53098 56.3231 1.49658H53.5258C53.0091 2.36579 51.6964 4.26232 51.1034 5.04855C51.0633 5.07003 51.0317 5.09391 51.0046 5.1144C50.9229 5.17622 50.882 5.20719 50.7688 5.04855C50.6359 4.86225 50.5257 4.38255 50.3908 3.79537C50.3402 3.57544 50.2862 3.34041 50.2262 3.1001L49.8265 1.49665H48.5949C47.4982 1.49665 47.1931 1.50852 47.3108 1.82828C47.4645 2.52499 47.6974 3.46922 47.9324 4.42175ZM43.4229 7.44249C43.8106 8.22679 42.7435 9.29854 41.534 9.29854C41.277 9.29854 41.1546 9.22319 41.2212 8.93155L41.4745 7.82089C41.4745 7.82089 41.6954 7.03755 41.8142 6.82395C42.0521 6.54801 43.1468 6.88432 43.4229 7.44249ZM3.86731 8.08799C3.86731 8.47257 4.10769 8.89841 4.50418 9.30232C4.59267 9.39238 4.68537 9.49427 4.78292 9.60138C5.12627 9.97854 5.52977 10.4218 6.02118 10.6535C6.75423 10.9991 7.42444 11.0468 8.53398 11.0468C9.64359 11.0468 10.7124 10.8416 10.7369 10.0377C10.7399 9.9375 10.7504 9.84042 10.7605 9.7474C10.8311 9.09449 10.8804 8.63737 8.19133 8.63414C7.84127 8.63372 7.5221 8.63523 7.23173 8.63654C6.01652 8.64218 5.30485 8.64548 4.9403 8.49959C4.78595 8.43779 4.61181 8.3513 4.44941 8.27065C4.13653 8.11535 3.86731 7.98163 3.86731 8.08799ZM59.2369 1.29494H58.0651V3.18735L58.2838 3.18723V2.41304H59.164C59.191 2.48558 59.2271 2.59305 59.2598 2.71216C59.3057 2.87896 59.3416 3.05623 59.3416 3.18737H59.5602C59.5602 3.02283 59.5171 2.82017 59.4699 2.64871C59.437 2.52892 59.4004 2.41838 59.3708 2.33818C59.3944 2.3181 59.4216 2.2929 59.4491 2.26293C59.5246 2.18062 59.6138 2.05 59.6215 1.88193C59.6285 1.72933 59.587 1.58861 59.521 1.48379C59.458 1.38404 59.3572 1.29494 59.2369 1.29494ZM58.2838 2.18387V1.52412H59.2369C59.2519 1.52412 59.2946 1.54043 59.3385 1.6101C59.3792 1.67472 59.4078 1.76745 59.4031 1.87101C59.3991 1.9591 59.3507 2.03946 59.2914 2.10411C59.2628 2.13534 59.2342 2.16002 59.2128 2.17683L59.2036 2.18387H58.2838Z" fill="#12A654"/>
<path fill-rule="evenodd" clip-rule="evenodd" d="M2.89636 6.11057C2.55856 5.71648 2.40271 5.51839 2.11307 5.01573C1.82344 4.51309 2.1526 4.38279 2.71754 4.80316C2.88982 4.9898 4.25467 5.04952 7.49764 5.0969C8.24046 5.10774 8.88286 5.09438 9.43252 5.08295C10.1016 5.06904 10.6334 5.05797 11.0419 5.0969C12.6459 5.24975 12.4795 5.8207 11.9551 7.1033C11.8664 7.3205 11.7955 7.5192 11.7352 7.68833C11.5291 8.2661 11.4459 8.49944 11.1914 7.94979C10.9266 7.37792 9.91941 7.40164 8.8296 7.42722C8.56507 7.4334 8.29569 7.43973 8.0309 7.43774C7.69901 7.43519 7.34179 7.44447 6.98091 7.45396C5.8675 7.48304 4.71919 7.51309 4.17248 7.19736C3.48653 6.80124 3.27362 6.55203 2.95091 6.17436C2.93308 6.15351 2.91495 6.13227 2.89636 6.11057Z" fill="#ED1C24"/>
</g>
<defs>
<clipPath id="clip0_857_3578">
<rect width="61" height="11" fill="white" transform="translate(0 0.5)"/>
</clipPath>
</defs>
</svg>
