<svg width="42" height="27" viewBox="0 0 42 27" fill="none" xmlns="http://www.w3.org/2000/svg">
<rect x="6.3929" y="4.62581" width="28.7753" height="17.7485" rx="3.70312" fill="white" stroke="black" stroke-width="0.822917"/>
<path d="M16.1553 11.5857C16.0858 11.6566 15.9815 11.7275 15.912 11.8338C15.634 12.1172 15.3907 12.4362 15.3212 12.8614C15.217 13.4283 15.3212 13.9598 15.6687 14.4205C15.8425 14.6685 16.051 14.8457 16.2943 14.952C16.329 14.952 16.3638 14.9874 16.3986 14.9874C16.3638 15.0937 16.329 15.1646 16.2943 15.2709C16.0858 15.8024 15.8078 16.2985 15.4255 16.7237C15.356 16.7945 15.2865 16.8654 15.1822 16.9363C14.9042 17.1843 14.5914 17.2552 14.2439 17.1489C14.0701 17.1134 13.8964 17.0426 13.7226 16.9717C13.5488 16.9008 13.3403 16.8654 13.1666 16.8654C12.9233 16.8654 12.7148 16.9363 12.5063 17.0071C12.3325 17.078 12.1587 17.1489 11.985 17.1843C11.707 17.2552 11.4637 17.1489 11.2552 17.0071C11.0119 16.8654 10.8381 16.6528 10.6991 16.4048C10.3169 15.8378 10.0041 15.2354 9.83032 14.5622C9.6218 13.9598 9.58705 13.3574 9.65655 12.7551C9.72606 12.2235 9.93458 11.7275 10.3169 11.3377C10.6991 10.9125 11.1857 10.7353 11.7417 10.8062C12.0197 10.8062 12.263 10.9125 12.541 10.9834C12.6453 11.0188 12.7495 11.0542 12.8885 11.0542C13.0623 11.0897 13.2013 11.0897 13.3751 11.0188C13.5488 10.9834 13.7921 10.9125 14.0006 10.8416C14.3134 10.7353 14.6609 10.6999 14.9737 10.7708C15.3907 10.8416 15.7383 11.0897 16.0163 11.4086C16.0858 11.4794 16.1205 11.5149 16.1553 11.5857C16.1553 11.5503 16.1553 11.5503 16.1553 11.5857Z" fill="#13130A"/>
<path d="M14.522 8.85742C14.522 8.96372 14.5568 9.03459 14.522 9.14089C14.4873 9.63697 14.3135 10.0622 13.966 10.4165C13.827 10.5937 13.6532 10.7 13.4447 10.8063C13.271 10.8772 13.0972 10.8772 12.8887 10.9126C12.9582 9.77871 13.4795 9.07003 14.522 8.85742Z" fill="#13130A"/>
<path d="M18.5488 16.7498H19.6287V14.6961H20.7697C22.1464 14.6961 22.8857 13.8533 22.8857 12.684C22.8857 11.5236 22.1551 10.6719 20.7842 10.6719H18.5488V16.7498ZM19.6287 13.791V11.5919H20.6183C21.4275 11.5919 21.7855 12.037 21.7855 12.684C21.7855 13.331 21.4275 13.791 20.6241 13.791H19.6287Z" fill="black"/>
<path d="M24.8934 16.8418C25.5949 16.8418 26.014 16.5064 26.2061 16.1236H26.2411V16.7498H27.254V13.699C27.254 12.4941 26.2905 12.132 25.4377 12.132C24.4976 12.132 23.7757 12.5594 23.5429 13.3903L24.5267 13.5328C24.6315 13.2212 24.9283 12.9541 25.4435 12.9541C25.9325 12.9541 26.2003 13.2093 26.2003 13.6574V13.6752C26.2003 13.9839 25.883 13.9987 25.0943 14.0848C24.2269 14.1797 23.3973 14.4439 23.3973 15.4707C23.3973 16.367 24.0406 16.8418 24.8934 16.8418ZM25.167 16.0524C24.7275 16.0524 24.4132 15.8476 24.4132 15.4529C24.4132 15.0404 24.7653 14.8683 25.2369 14.8C25.5134 14.7614 26.0664 14.6902 26.2032 14.5774V15.1146C26.2032 15.6221 25.8015 16.0524 25.167 16.0524Z" fill="black"/>
<path d="M28.7181 18.4592C29.5389 18.4592 30.0133 18.0289 30.2666 17.3018L32.0625 12.1973L30.936 12.1914L29.9027 15.6339H29.8562L28.8258 12.1914H27.7081L29.3293 16.8448L29.2391 17.0911C29.0441 17.6104 28.7356 17.6461 28.2757 17.5095L28.0312 18.3464C28.1738 18.4058 28.4299 18.4592 28.7181 18.4592Z" fill="black"/>
</svg>
