<svg width="43" height="27" viewBox="0 0 43 27" fill="none" xmlns="http://www.w3.org/2000/svg">
<g clip-path="url(#clip0_712_7427)">
<path d="M18.2345 8.11007L13.5411 19.2529H10.5766L8.45984 10.3601C8.33131 9.81274 8.21646 9.61174 7.80675 9.38144C7.13765 9.00498 6.02912 8.6522 5.05273 8.43317L5.12312 8.11007H9.89562C10.5035 8.11007 11.0452 8.52578 11.1735 9.246L12.268 15.6941L15.2888 8.11007H18.2345ZM29.7498 15.6147C29.8018 12.6741 25.8351 12.5118 25.8801 11.1978C25.8943 10.7982 26.2701 10.3735 27.0822 10.2645C27.4842 10.2108 28.5929 10.1689 29.8403 10.7629L30.3649 8.4003C29.6929 8.14839 28.8283 7.90625 27.7475 7.90625C24.9757 7.90625 23.004 9.42107 22.9593 11.5894C22.9192 13.1942 24.3183 14.0886 25.3742 14.6223C26.459 15.1683 26.8208 15.5185 26.8102 16.0069C26.792 16.7549 25.9242 17.0846 25.1168 17.0976C23.7066 17.1201 22.8936 16.7057 22.246 16.3935L21.7054 18.8354C22.3559 19.1444 23.562 19.4139 24.8162 19.4271C27.7626 19.4271 29.7097 17.9318 29.7498 15.6145M37.0214 19.2528H39.6152L37.5006 8.11007H35.1068C34.5684 8.11007 34.1101 8.43167 33.902 8.92721L29.5552 19.2528H32.4995L33.107 17.588H36.7048L37.0214 19.2528ZM33.9448 15.3045L35.4775 11.1207L36.2711 15.3045H33.9448ZM22.242 8.11007L19.7733 19.2529H16.9683L19.4381 8.11007H22.242Z" fill="#1434CB"/>
</g>
<defs>
<clipPath id="clip0_712_7427">
<rect width="34.5625" height="11.5208" fill="white" transform="translate(5.05273 7.90625)"/>
</clipPath>
</defs>
</svg>
