<svg width="330" height="57" viewBox="0 0 330 57" fill="none" xmlns="http://www.w3.org/2000/svg">
<rect y="0.500244" width="330" height="56" rx="8" fill="black"/>
<rect y="0.500244" width="330" height="56" rx="8" stroke="black"/>
<path d="M148.142 21.8013C146.805 21.8013 145.727 22.6099 145.031 22.6099C144.301 22.6099 143.324 21.8462 142.167 21.8462C139.966 21.8462 137.731 23.6768 137.731 27.1021C137.731 29.2471 138.562 31.5044 139.584 32.9756C140.449 34.1997 141.224 35.2104 142.324 35.2104C143.414 35.2104 143.896 34.4917 145.255 34.4917C146.625 34.4917 146.94 35.188 148.142 35.188C149.343 35.188 150.141 34.0986 150.893 33.0205C151.724 31.7739 152.083 30.561 152.095 30.5049C152.027 30.4824 149.736 29.5503 149.736 26.9224C149.736 24.6538 151.533 23.6431 151.634 23.5645C150.455 21.8462 148.647 21.8013 148.142 21.8013ZM147.524 20.3525C148.063 19.6899 148.445 18.7915 148.445 17.8818C148.445 17.7583 148.434 17.6348 148.411 17.5337C147.535 17.5674 146.457 18.1177 145.817 18.8701C145.323 19.4429 144.851 20.3525 144.851 21.2622C144.851 21.397 144.874 21.543 144.885 21.5879C144.941 21.5991 145.031 21.6104 145.121 21.6104C145.918 21.6104 146.929 21.0713 147.524 20.3525Z" fill="white"/>
<path d="M156.509 18.8027V35.0083H159.407V29.6963H162.922C166.201 29.6963 168.492 27.4951 168.492 24.2832C168.492 21.0151 166.28 18.8027 163.045 18.8027H156.509ZM159.407 21.2285H162.282C164.371 21.2285 165.55 22.2954 165.55 24.2832C165.55 26.2148 164.337 27.293 162.27 27.293H159.407V21.2285Z" fill="white"/>
<path d="M173.929 33.0205C172.693 33.0205 171.806 32.4028 171.806 31.3696C171.806 30.3701 172.536 29.8086 174.097 29.7075L176.871 29.5278V30.5049C176.871 31.9312 175.613 33.0205 173.929 33.0205ZM173.109 35.2104C174.715 35.2104 176.062 34.5142 176.747 33.3237H176.938V35.0083H179.622V26.6191C179.622 24.0137 177.848 22.4751 174.692 22.4751C171.772 22.4751 169.74 23.8564 169.515 26.0239H172.143C172.401 25.1929 173.277 24.7437 174.558 24.7437C176.062 24.7437 176.871 25.4175 176.871 26.6191V27.6523L173.704 27.8433C170.717 28.0229 169.043 29.3032 169.043 31.5269C169.043 33.7729 170.739 35.2104 173.109 35.2104Z" fill="white"/>
<path d="M182.723 39.4668C185.474 39.4668 186.788 38.4561 187.833 35.4014L192.269 22.7222H189.327L186.463 32.313H186.272L183.397 22.7222H180.342L184.733 35.0645L184.587 35.6035C184.228 36.7378 183.565 37.187 182.386 37.187C182.195 37.187 181.78 37.1758 181.622 37.1421V39.4219C181.802 39.4556 182.555 39.4668 182.723 39.4668Z" fill="white"/>
</svg>
