<svg width="43" height="27" viewBox="0 0 43 27" fill="none" xmlns="http://www.w3.org/2000/svg">
<path d="M29.3896 4.30029H13.3611C8.35212 4.30029 4.25391 8.47142 4.25391 13.5695C4.25391 18.6675 8.35212 22.8386 13.3611 22.8386H29.3896C34.3986 22.8386 38.4968 18.6675 38.4968 13.5695C38.4968 8.47142 34.3986 4.30029 29.3896 4.30029Z" fill="white"/>
<path d="M29.3896 5.05109C30.5144 5.05109 31.6072 5.27819 32.6363 5.72311C33.6336 6.15413 34.5261 6.77052 35.3002 7.55377C36.0697 8.33701 36.6753 9.25003 37.0988 10.265C37.536 11.3124 37.7591 12.4247 37.7591 13.5695C37.7591 14.7142 37.536 15.8265 37.0988 16.8739C36.6753 17.8889 36.0697 18.7973 35.3002 19.5851C34.5306 20.3684 33.6336 20.9848 32.6363 21.4158C31.6072 21.8607 30.5144 22.0878 29.3896 22.0878H13.3611C12.2363 22.0878 11.1435 21.8607 10.1144 21.4158C9.11712 20.9848 8.22462 20.3684 7.45051 19.5851C6.68096 18.8019 6.07533 17.8889 5.65185 16.8739C5.21471 15.8265 4.99158 14.7142 4.99158 13.5695C4.99158 12.4247 5.21471 11.3124 5.65185 10.265C6.07533 9.25003 6.68096 8.34165 7.45051 7.55377C8.22007 6.77052 9.11712 6.15413 10.1144 5.72311C11.1435 5.27819 12.2363 5.05109 13.3611 5.05109H29.3896ZM29.3896 4.30029H13.3611C8.35212 4.30029 4.25391 8.47142 4.25391 13.5695C4.25391 18.6675 8.35212 22.8386 13.3611 22.8386H29.3896C34.3986 22.8386 38.4968 18.6675 38.4968 13.5695C38.4968 8.47142 34.3986 4.30029 29.3896 4.30029Z" fill="#3C4043"/>
<path d="M20.5833 17.0312H19.709V10.1072H22.0268C22.6142 10.1072 23.1151 10.3065 23.5249 10.705C23.9438 11.1036 24.1533 11.5902 24.1533 12.1649C24.1533 12.7535 23.9438 13.2402 23.5249 13.6341C23.1196 14.028 22.6187 14.2227 22.0268 14.2227H20.5833V17.0312ZM20.5833 10.9599V13.3746H22.045C22.391 13.3746 22.6825 13.2541 22.9101 13.0177C23.1424 12.7813 23.2608 12.494 23.2608 12.1696C23.2608 11.8498 23.1424 11.5671 22.9101 11.3307C22.6825 11.0851 22.3956 10.9646 22.045 10.9646H20.5833V10.9599Z" fill="#3C4043"/>
<path d="M26.439 12.1373C27.0856 12.1373 27.5956 12.3134 27.969 12.6657C28.3424 13.0179 28.5291 13.4999 28.5291 14.1117V17.0314H27.6958V16.3733H27.6594C27.2996 16.9156 26.817 17.1844 26.2159 17.1844C25.7013 17.1844 25.2733 17.0314 24.9272 16.7209C24.5812 16.4104 24.4081 16.0257 24.4081 15.5623C24.4081 15.071 24.5903 14.6817 24.9546 14.3944C25.3188 14.1024 25.8061 13.9587 26.4117 13.9587C26.9308 13.9587 27.3588 14.056 27.6913 14.2507V14.0468C27.6913 13.7362 27.5729 13.4767 27.3315 13.2589C27.0902 13.0411 26.8079 12.9345 26.4846 12.9345C25.9973 12.9345 25.6103 13.143 25.328 13.5648L24.5584 13.0735C24.9819 12.4478 25.6103 12.1373 26.439 12.1373ZM25.3097 15.5762C25.3097 15.8079 25.4054 16.0026 25.6012 16.1555C25.7924 16.3084 26.0201 16.3872 26.2796 16.3872C26.6485 16.3872 26.9763 16.2482 27.2632 15.9701C27.5501 15.692 27.6958 15.3676 27.6958 14.9922C27.4226 14.7744 27.0446 14.6632 26.5574 14.6632C26.2022 14.6632 25.9063 14.7512 25.6695 14.9227C25.4281 15.1035 25.3097 15.3213 25.3097 15.5762Z" fill="#3C4043"/>
<path d="M33.283 12.2902L30.3687 19.1123H29.4671L30.5509 16.7255L28.6293 12.2902H29.581L30.9653 15.692H30.9835L32.3313 12.2902H33.283Z" fill="#3C4043"/>
<path d="M17.1067 13.6618C17.1067 13.3717 17.0812 13.0941 17.0339 12.8271H13.3691V14.3566L15.4797 14.357C15.3941 14.8659 15.1186 15.2997 14.6965 15.5889V16.5812H15.9528C16.6864 15.8901 17.1067 14.8687 17.1067 13.6618Z" fill="#4285F4"/>
<path d="M14.6969 15.5886C14.3472 15.8287 13.8969 15.9691 13.37 15.9691C12.3523 15.9691 11.4889 15.2711 11.1797 14.3303H9.88379V15.3536C10.5258 16.6504 11.8455 17.5402 13.37 17.5402C14.4237 17.5402 15.3089 17.1875 15.9532 16.5804L14.6969 15.5886Z" fill="#34A853"/>
<path d="M11.0575 13.5715C11.0575 13.3073 11.1007 13.052 11.1795 12.8119V11.7886H9.88358C9.61811 12.3248 9.46875 12.9301 9.46875 13.5715C9.46875 14.2129 9.61856 14.8182 9.88358 15.3544L11.1795 14.3311C11.1007 14.091 11.0575 13.8357 11.0575 13.5715Z" fill="#FABB05"/>
<path d="M13.37 11.1729C13.9451 11.1729 14.4601 11.3745 14.8668 11.7685L15.9801 10.6362C15.3039 9.99528 14.4223 9.60181 13.37 9.60181C11.8459 9.60181 10.5258 10.4916 9.88379 11.7884L11.1797 12.8117C11.4889 11.8709 12.3523 11.1729 13.37 11.1729Z" fill="#E94235"/>
</svg>
