<svg width="93" height="16" viewBox="0 0 93 16" fill="none" xmlns="http://www.w3.org/2000/svg">
<g id="mtsbu 1" clip-path="url(#clip0_665_4074)">
<path id="Vector" fill-rule="evenodd" clip-rule="evenodd" d="M89.525 4.89847C90.7857 4.89847 91.8076 3.87657 91.8076 2.61587C91.8076 1.35527 90.7857 0.33327 89.525 0.33327C88.2644 0.33327 87.2425 1.35517 87.2425 2.61587C87.2425 3.87647 88.2644 4.89847 89.525 4.89847ZM89.525 5.2318C90.9698 5.2318 92.1409 4.0606 92.1409 2.6159C92.1409 1.1712 90.9698 0 89.525 0C88.0803 0 86.9092 1.1712 86.9092 2.6159C86.9092 4.0606 88.0803 5.2318 89.525 5.2318ZM0.5 0.409C0.5 1.6924 1.44419 2.5587 2.264 3.2527C3.269 4.10349 5.0874 4.5715 8.1151 4.7201C11.1428 4.8687 15.3965 4.98015 16.4367 4.85013C17.4768 4.7201 18.807 4.62971 19.2312 5.06766C19.3265 5.16606 19.3959 5.27729 19.4602 5.3803C19.5795 5.57147 19.6812 5.73433 19.8978 5.73433C21.5645 3.73433 21.3767 1.62583 20.3309 1.19363C20.0531 1.07881 17.8788 1.10386 15.0609 1.13632C10.0906 1.19358 3.1179 1.27391 1.0179 0.65054C0.921876 0.622035 0.84188 0.53019 0.77154 0.44942C0.66662 0.32895 0.58317 0.233139 0.5 0.409ZM24.304 1.17782C24.304 1.56863 19.222 13.2518 18.6426 14.1928C18.4918 14.4376 18.2941 14.6322 18.1405 14.7833C17.692 15.2246 17.6191 15.2963 20.1862 15.1719L21.8478 15.1707L23.0759 12.3724C23.7515 10.833 24.8979 8.64352 24.8979 8.64352L25.2809 11.8315C25.2809 11.8315 25.518 14.7494 25.9365 15.6037C26.0232 15.7806 27.0259 15.9389 27.5077 15.7085C31.4671 9.71692 32.3348 8.93072 32.3348 8.93072C32.3348 8.93072 31.8166 12.6579 31.6557 13.6973C31.5565 14.338 31.4671 15.1707 31.4671 15.1707L33.5474 15.1728H35.1927L35.7004 9.87742C35.9796 6.96482 36.3 3.80642 36.4124 2.85832C36.6313 1.01632 36.536 1.01782 35.3977 1.03612C35.2783 1.03803 35.1474 1.04013 35.0042 1.0403C34.5264 1.04093 34.2153 1.04874 33.9267 1.1937C33.536 1.3899 33.1865 1.83736 32.5209 2.8584C30.1515 6.4926 28.856 8.1375 28.5767 8.1456C28.2975 8.15368 27.6908 3.3541 27.6908 3.3541C27.6908 3.3541 27.4734 1.5175 27.1886 1.1938C27.0392 1.02409 26.8132 1.02865 26.4235 1.03652C26.332 1.03837 26.2315 1.0404 26.1208 1.0404C26.0017 1.0404 25.8726 1.03911 25.7399 1.03779C25.0673 1.03109 24.304 1.02333 24.304 1.17782ZM53.641 1.33087C46.1938 3.15727 43.8469 15.4619 50.9444 15.4699C52.0175 15.471 55.6709 15.2143 56.0907 14.7556C56.5105 14.2969 56.7325 13.8661 56.9836 13.0654C57.8782 10.2117 57.7939 10.2903 57.0955 10.9414C56.8379 11.1815 56.4969 11.4994 56.0907 11.7769C53.4984 13.5481 50.3108 12.4204 50.3108 9.73207C50.3108 5.68827 55.138 2.86057 58.0123 4.89857C58.2798 5.17473 58.5161 5.71107 58.6574 6.03167C58.731 6.19873 58.7789 6.30724 58.7918 6.28987C58.934 6.09774 59.8466 2.36867 59.8466 2.07637C59.8466 1.14409 56.1533 0.71479 53.641 1.33087ZM38.08 2.85827V4.35997H39.9357C40.0263 4.35997 40.1113 4.35969 40.1907 4.35943C40.8443 4.35729 41.123 4.35638 41.123 4.52185C41.123 5.02125 38.3574 13.9995 37.9485 15.0178C37.8666 15.2218 38.4193 15.2078 39.2327 15.1873C39.5127 15.1802 39.8235 15.1725 40.1499 15.1725H42.0446L42.275 13.8657C42.3608 13.5049 42.5389 12.8669 42.7476 12.1193C42.9422 11.422 43.1636 10.6292 43.3614 9.87705C43.7715 8.31825 44.2639 6.43885 44.4554 5.70045C44.4918 5.56055 44.5232 5.4332 44.5518 5.31731C44.785 4.37199 44.8299 4.18971 45.8321 4.18971H47.7328C48.3633 3.59607 49.513 2.26821 49.9848 1.72321L50.1088 1.58013C49.904 1.44922 46.7495 1.44922 43.8093 1.44922H38.08V2.85827ZM62.014 1.66857C62.014 1.66857 61.5796 3.50177 60.1007 9.34417C59.8425 10.3647 59.3958 11.7091 59.0893 12.6316C58.9523 13.0438 58.8432 13.3721 58.7916 13.5491C58.3122 15.1956 58.6084 15.1938 61.2989 15.1767C61.6001 15.1748 61.9313 15.1727 62.2948 15.1727C67.3309 15.1727 69.3224 13.8418 69.6082 10.2855C69.7963 7.94207 67.7802 7.06567 66.4111 6.89847C65.042 6.73132 64.2806 6.65958 64.2806 6.65958C64.2806 6.65958 64.6866 4.63338 64.88 4.47478C65.0733 4.31612 66.1959 4.31612 67.576 4.31612C68.2207 4.31612 68.7121 4.33424 69.0897 4.34817C70.2076 4.3894 70.327 4.39381 70.4683 3.78187C70.5402 3.47077 70.7591 2.77397 70.9153 2.27677C70.9856 2.05281 71.0433 1.86901 71.069 1.77978C71.2618 1.10944 62.014 1.66857 62.014 1.66857ZM73.077 5.70437C73.7571 8.33527 74.4485 11.0101 74.3469 11.3453C74.2353 11.7134 73.847 12.1676 73.4155 12.6723C73.2472 12.8691 73.0723 13.0737 72.9047 13.2838C72.2867 14.0585 71.2143 15.1727 71.2143 15.1727H75.8667C75.8667 15.1727 77.1564 13.1152 79.462 9.97254C80.7944 8.15634 82.7126 5.57214 83.7242 4.23004C84.1939 3.60675 84.6899 2.98304 85.0865 2.48424C85.544 1.90887 85.8694 1.49961 85.8694 1.44957H81.6047C80.8169 2.71387 78.8156 5.47247 77.9115 6.61607C77.8503 6.64732 77.8022 6.68205 77.7609 6.71185C77.6363 6.80178 77.5739 6.84682 77.4014 6.61607C77.1987 6.34509 77.0307 5.64735 76.825 4.79327C76.7479 4.47336 76.6656 4.13151 76.5741 3.78197L75.9647 1.44967H74.087C72.4151 1.44967 71.9498 1.46694 72.1293 1.93204C72.3637 2.94544 72.7188 4.31887 73.077 5.70437ZM66.2018 10.0982C66.793 11.239 65.166 12.7979 63.3221 12.7979C62.9302 12.7979 62.7437 12.6883 62.8452 12.2641L63.2314 10.6486C63.2314 10.6486 63.5681 9.50917 63.7493 9.19847C64.1119 8.7971 65.7809 9.28628 66.2018 10.0982ZM5.8958 11.0371C5.8958 11.5965 6.26228 12.2159 6.86677 12.8034C7.00168 12.9344 7.14301 13.0826 7.29174 13.2384C7.8152 13.787 8.43037 14.4317 9.17957 14.7687C10.2972 15.2715 11.319 15.3409 13.0106 15.3409C14.7023 15.3409 16.3318 15.0424 16.3691 13.8731C16.3737 13.7273 16.3897 13.5861 16.4051 13.4508C16.5127 12.5011 16.588 11.8362 12.4882 11.8315C11.9545 11.8309 11.4679 11.8331 11.0252 11.835C9.17247 11.8432 8.08747 11.848 7.53167 11.6358C7.29636 11.5459 7.03086 11.4201 6.78327 11.3028C6.30625 11.0769 5.8958 10.8824 5.8958 11.0371ZM90.3118 1.15627H88.5252V3.90887L88.8586 3.9087V2.7826H90.2006C90.2418 2.88811 90.2968 3.04444 90.3467 3.21769C90.4166 3.46031 90.4713 3.71815 90.4713 3.9089H90.8047C90.8047 3.66957 90.7389 3.37479 90.667 3.12539C90.6168 2.95116 90.561 2.79037 90.5159 2.67372C90.5519 2.64451 90.5933 2.60785 90.6352 2.56426C90.7503 2.44454 90.8864 2.25454 90.8981 2.01008C90.9087 1.78812 90.8455 1.58343 90.7448 1.43097C90.6489 1.28588 90.4952 1.15627 90.3118 1.15627ZM88.8586 2.44927V1.48963H90.3118C90.3346 1.48963 90.3997 1.51335 90.4666 1.61469C90.5287 1.70868 90.5723 1.84357 90.5651 1.9942C90.559 2.12232 90.4853 2.23922 90.3949 2.33325C90.3512 2.37868 90.3076 2.41457 90.275 2.43902L90.261 2.44927H88.8586Z" fill="#12A654"/>
<path id="Vector_2" fill-rule="evenodd" clip-rule="evenodd" d="M4.41624 8.16103C3.90124 7.5878 3.66363 7.29967 3.22204 6.56853C2.78048 5.83742 3.28232 5.64789 4.14361 6.25934C4.40628 6.53082 6.48711 6.61768 11.4313 6.6866C12.5638 6.70237 13.5432 6.68294 14.3812 6.66631C15.4013 6.64607 16.212 6.62998 16.8348 6.6866C19.2803 6.90892 19.0266 7.7394 18.2271 9.605C18.0918 9.92092 17.9838 10.21 17.8918 10.456C17.5777 11.2964 17.4508 11.6358 17.0628 10.8363C16.6591 10.0045 15.1235 10.039 13.462 10.0762C13.0587 10.0852 12.648 10.0944 12.2443 10.0915C11.7383 10.0878 11.1937 10.1013 10.6435 10.1151C8.94601 10.1574 7.19531 10.2011 6.36181 9.74182C5.31601 9.16564 4.99141 8.80315 4.49941 8.25382C4.47223 8.22348 4.44459 8.19259 4.41624 8.16103Z" fill="#ED1C24"/>
</g>
<defs>
<clipPath id="clip0_665_4074">
<rect width="93" height="16" fill="white"/>
</clipPath>
</defs>
</svg>
