<svg width="29" height="17" viewBox="0 0 29 17" fill="none" xmlns="http://www.w3.org/2000/svg">
<g id="mastercard">
<g id="Group 3">
<path id="Vector" d="M9.37164 16.8961C14.0469 16.8961 17.837 13.2118 17.837 8.66691C17.837 4.12207 14.0469 0.437744 9.37164 0.437744C4.69634 0.437744 0.90625 4.12207 0.90625 8.66691C0.90625 13.2118 4.69634 16.8961 9.37164 16.8961Z" fill="#EB001B"/>
<path id="Vector_2" d="M19.5962 16.8961C24.2716 16.8961 28.0616 13.2118 28.0616 8.66691C28.0616 4.12207 24.2716 0.437744 19.5962 0.437744C14.9209 0.437744 11.1309 4.12207 11.1309 8.66691C11.1309 13.2118 14.9209 16.8961 19.5962 16.8961Z" fill="#F79E1B"/>
<path id="Vector_3" d="M14.4816 2.09497C16.5198 3.5964 17.8323 5.97572 17.8323 8.65041C17.8323 11.3251 16.5198 13.7085 14.4816 15.2099C12.4433 13.7085 11.1309 11.3292 11.1309 8.65041C11.1309 5.97162 12.4475 3.5964 14.4816 2.09497Z" fill="#FF5F00"/>
</g>
</g>
</svg>
