<svg width="30" height="27" viewBox="0 0 30 27" fill="none" xmlns="http://www.w3.org/2000/svg">
<g id="fastPay">
<g id="Group 6374">
<path id="Vector" d="M13.42 22.7184C12.3613 22.3182 11.2326 22.0419 10.2549 21.4942C6.88355 19.5996 5.13706 15.6852 5.89977 11.9865C6.71897 8.0139 9.79682 5.1057 13.7086 4.65467C14.4308 4.57165 15.1702 4.64228 16.0545 4.64228C15.487 5.51585 14.9908 6.29773 14.4652 7.05978C14.3952 7.16139 14.1802 7.17874 14.0279 7.20228C10.8224 7.7004 8.66688 9.96302 8.32545 13.1909C7.96067 16.6542 10.8887 19.9738 14.3583 20.1572C18.1006 20.3554 21.3197 17.3989 21.235 13.5391C21.2178 12.7585 20.9132 11.9877 20.7781 11.2046C20.7351 10.9555 20.7277 10.6383 20.8456 10.4339C21.2301 9.76476 21.6808 9.13405 22.1438 8.43024C23.0159 9.63837 23.5047 10.9147 23.7196 12.3037C24.4909 17.2948 21.0053 21.8436 16.3308 22.6094C16.2559 22.6218 16.1883 22.68 16.1183 22.7172C15.2193 22.7184 14.319 22.7184 13.42 22.7184Z" fill="#114C8D"/>
<path id="Vector_2" d="M10.8792 13.7173C10.765 11.6095 12.5447 9.76078 14.6707 9.68643C16.8765 9.60837 18.7863 11.4844 18.7544 13.6962C18.7237 15.8646 16.9256 17.6762 14.8242 17.613C14.8242 16.8869 14.8242 16.1583 14.8242 15.4012C15.0318 15.3343 15.2676 15.2823 15.4825 15.1844C16.1863 14.8622 16.5805 14.0902 16.4245 13.3703C16.2575 12.5959 15.6471 12.0482 14.9003 12.0023C14.1204 11.9552 13.3639 12.4484 13.2067 13.2191C13.1195 13.6466 12.9512 13.7458 12.5619 13.7259C12.0153 13.6962 11.4663 13.7173 10.8792 13.7173Z" fill="#FFCC0B"/>
</g>
</g>
</svg>
