<svg width="62" height="25" viewBox="0 0 62 25" fill="none" xmlns="http://www.w3.org/2000/svg">
<path d="M28.9508 12.1728V19.2488H26.6899V1.77515H32.6834C34.2024 1.77515 35.4977 2.27807 36.5574 3.28392C37.6408 4.28977 38.1824 5.51784 38.1824 6.96813C38.1824 8.4535 37.6408 9.68157 36.5574 10.6757C35.5095 11.6699 34.2142 12.1611 32.6834 12.1611H28.9508V12.1728ZM28.9508 3.92719V10.0208H32.7306C33.6255 10.0208 34.3791 9.71666 34.9678 9.12017C35.5683 8.52368 35.8745 7.79853 35.8745 6.97982C35.8745 6.1728 35.5683 5.45936 34.9678 4.86287C34.3791 4.24298 33.6372 3.93889 32.7306 3.93889H28.9508V3.92719Z" fill="white"/>
<path d="M44.0935 6.89795C45.7656 6.89795 47.0844 7.34239 48.0499 8.23128C49.0155 9.12017 49.4983 10.3365 49.4983 11.8804V19.2488H47.3434V17.588H47.2492C46.319 18.9564 45.0708 19.6348 43.5165 19.6348C42.1859 19.6348 41.0791 19.2488 40.1842 18.4652C39.2893 17.6816 38.8418 16.7108 38.8418 15.5412C38.8418 14.3015 39.3128 13.319 40.2548 12.5938C41.1968 11.857 42.4567 11.4944 44.0228 11.4944C45.3652 11.4944 46.4721 11.7401 47.3316 12.2313V11.7167C47.3316 10.933 47.0255 10.2781 46.4014 9.72835C45.7773 9.17865 45.0473 8.90964 44.2112 8.90964C42.9513 8.90964 41.9504 9.43596 41.2204 10.5003L39.2304 9.26052C40.3255 7.68157 41.9504 6.89795 44.0935 6.89795ZM41.1733 15.5763C41.1733 16.1611 41.4205 16.6523 41.9269 17.0383C42.4214 17.4243 43.0102 17.6231 43.6814 17.6231C44.6351 17.6231 45.4829 17.2722 46.2248 16.5705C46.9666 15.8687 47.3434 15.05 47.3434 14.1026C46.6369 13.5529 45.6596 13.2722 44.3996 13.2722C43.4812 13.2722 42.7158 13.4944 42.1035 13.9272C41.4794 14.3833 41.1733 14.933 41.1733 15.5763Z" fill="white"/>
<path d="M61.7914 7.28394L54.2554 24.5003H51.9239L54.7264 18.4769L49.7573 7.28394H52.2183L55.7979 15.8687H55.845L59.3305 7.28394H61.7914Z" fill="white"/>
<path d="M19.9584 10.7458C19.9584 10.0137 19.8925 9.31309 19.77 8.6394H10.2935V12.499L15.7512 12.5002C15.5298 13.7844 14.8174 14.8792 13.7259 15.609V18.1131H16.9746C18.8716 16.3692 19.9584 13.7914 19.9584 10.7458Z" fill="#4285F4"/>
<path d="M13.727 15.609C12.8227 16.2149 11.6581 16.5693 10.2958 16.5693C7.66403 16.5693 5.43147 14.8079 4.63195 12.4336H1.28076V15.0161C2.94105 18.2886 6.35346 20.5342 10.2958 20.5342C13.0205 20.5342 15.3096 19.6441 16.9758 18.112L13.727 15.609Z" fill="#34A853"/>
<path d="M4.31633 10.5177C4.31633 9.85106 4.42819 9.20661 4.6319 8.60077V6.01831H1.28072C0.594228 7.37153 0.208008 8.89901 0.208008 10.5177C0.208008 12.1364 0.595406 13.6639 1.28072 15.0171L4.6319 12.4347C4.42819 11.8288 4.31633 11.1844 4.31633 10.5177Z" fill="#FABB05"/>
<path d="M10.2958 4.46515C11.7829 4.46515 13.1147 4.97392 14.1662 5.96807L17.0452 3.11077C15.2966 1.49323 13.017 0.500244 10.2958 0.500244C6.35464 0.500244 2.94105 2.74585 1.28076 6.01837L4.63195 8.60082C5.43147 6.22655 7.66403 4.46515 10.2958 4.46515Z" fill="#E94235"/>
</svg>
