<svg xmlns="http://www.w3.org/2000/svg" width="32" height="20" fill="none"><path fill-rule="evenodd" d="M31.102 9.424L23.588.653c-.158-.26-.445-.434-.772-.434-.499 0-.903.404-.903.902a.9.9 0 0 0 .292.664l6.807 8.244-6.731 8.087h-.734-2.174l6.361-7.394.013-.013c.177-.194.256-.422.252-.646.004-.224-.075-.451-.252-.646h-.001L18.138.667a.91.91 0 0 0-.782-.448h-5.335c-.499 0-.903.404-.903.902 0 .151.021.308.103.419l7.07 8.555-6.025 7.222c-.036.036-.555.775-1.468.775H3.602c-.979 0-1.79-.763-1.79-1.777V3.797c0-.882.812-1.788 1.812-1.788h4.477c.528 0 .903-.36.903-.887a.88.88 0 0 0-.903-.919L3.58.22C1.439.22 0 1.985 0 3.779v12.537c0 1.932 1.705 3.577 3.58 3.577h7.194a3.62 3.62 0 0 0 .994-.138l.126-.038a3.9 3.9 0 0 0 1.706-1.121l6.781-7.895c.321-.364.363-.891.005-1.284h-.001L13.96 2.009h2.227.734l6.703 8.054-7.054 8.501c-.002.003.002.01.012.021-.066.125-.103.268-.103.419 0 .498.404.902.903.902h5.335c.33 0 .619-.178.777-.442l7.601-8.742.013-.013c.358-.393.315-.921-.005-1.284z" fill="#000"/></svg>