<svg xmlns="http://www.w3.org/2000/svg" width="29" height="27" fill="none"><style><![CDATA[.B{color-interpolation-filters:sRGB}.C{flood-opacity:0}]]></style><use href="#P" fill="url(#G)"/><use href="#P" fill="url(#H)"/><use href="#P" fill="url(#I)"/><use href="#P" fill="url(#J)"/><use href="#P" fill="url(#K)"/><use href="#P" fill="url(#L)"/><use href="#P" fill="url(#M)" fill-opacity=".6"/><g filter="url(#A)"><path d="M13.908 7.658v6.823c0 .905 1.096 1.334 1.66.627 1.745-2.19 3.153-4.851 1.582-7.025-.602-.834-1.756-1.368-2.699-1.198-.352.063-.543.415-.543.774" fill="#fa1c56"/></g><g filter="url(#B)"><path d="M25.242 11.148c1.767-1.718 2.045-4.298.62-5.763s-4.011-1.261-5.778.457-2.045 4.298-.62 5.763 4.012 1.261 5.779-.457z" fill="url(#N)"/></g><g filter="url(#C)"><path d="M21.416 3.538c.928.117 1.7.053 1.724-.142s-.708-.448-1.635-.564-1.7-.053-1.724.142.708.448 1.635.564z" fill="#ff7383"/></g><g filter="url(#D)"><path d="M7.392 3.42c.839-.01 1.518-.13 1.516-.267s-.683-.241-1.522-.231-1.518.13-1.516.267.683.241 1.522.23z" fill="#ff93ba" fill-opacity=".5"/></g><g filter="url(#E)"><path d="M12.845 7.08l.313 10.25C6.283 10.642 4.96 5.946 7.595 4.892c2.5-1 4.5.625 5.25 2.188z" fill="url(#O)"/></g><g filter="url(#F)"><path d="M12.345 6.48a1.28 1.28 0 0 1-1.125-1.15c.48.5.95.542 1.125.5v.65z" fill="#ff7383"/></g><defs><filter id="A" x="11.908" y="4.853" width="7.923" height="12.608" filterUnits="userSpaceOnUse" class="B"><feFlood class="C"/><feBlend in="SourceGraphic"/><feGaussianBlur stdDeviation="1"/></filter><filter id="B" x="17.053" y="2.906" width="11.219" height="11.176" filterUnits="userSpaceOnUse" class="B"><feFlood class="C"/><feBlend in="SourceGraphic"/><feGaussianBlur stdDeviation=".75"/></filter><filter id="C" x="17.78" y=".773" width="7.361" height="4.823" filterUnits="userSpaceOnUse" class="B"><feFlood class="C"/><feBlend in="SourceGraphic"/><feGaussianBlur stdDeviation="1"/></filter><filter id="D" x="4.37" y="1.421" width="6.038" height="3.499" filterUnits="userSpaceOnUse" class="B"><feFlood class="C"/><feBlend in="SourceGraphic"/><feGaussianBlur stdDeviation=".75"/></filter><filter id="E" x="3.333" y="1.584" width="12.825" height="18.746" filterUnits="userSpaceOnUse" class="B"><feFlood class="C"/><feBlend in="SourceGraphic"/><feGaussianBlur stdDeviation="1.5"/></filter><filter id="F" x="10.22" y="4.33" width="3.125" height="3.15" filterUnits="userSpaceOnUse" class="B"><feFlood class="C"/><feBlend in="SourceGraphic"/><feGaussianBlur stdDeviation=".5"/></filter><radialGradient id="G" cx="0" cy="0" r="1" gradientTransform="translate(13.883 2.75165) rotate(90) scale(22.9845 24.4021)" href="#Q"><stop stop-color="#fc0000"/><stop offset=".528" stop-color="#ff3b79"/><stop offset="1" stop-color="#f724b3"/></radialGradient><radialGradient id="H" cx="0" cy="0" r="1" gradientTransform="matrix(-14.878661365343946,15.192527836585375,-28.457045608612617,-27.86914393858092,21.025,8.48065)" href="#Q"><stop offset=".798" stop-color="#c82092" stop-opacity="0"/><stop offset=".908" stop-color="#c82092"/></radialGradient><radialGradient id="I" cx="0" cy="0" r="1" gradientTransform="matrix(-21.189702915836566,-8.277287680066904,11.701142665755487,-29.954708166090292,17.997,14.9066)" href="#Q"><stop offset=".41" stop-color="#b91d43" stop-opacity="0"/><stop offset=".834" stop-color="#b91d43"/></radialGradient><radialGradient id="J" cx="0" cy="0" r="1" gradientTransform="matrix(1.2123513452839136e-15,19.7992,-19.7992,1.2123513452839136e-15,13.56,10.9336)" href="#Q"><stop offset=".671" stop-color="#ff7af2" stop-opacity="0"/><stop offset=".934" stop-color="#ffbce6"/></radialGradient><linearGradient id="K" x1="15.745" y1="13.251" x2="23.758" y2="22.787" href="#Q"><stop offset=".694" stop-color="#ff7af2" stop-opacity="0"/><stop offset=".934" stop-color="#ffbce6"/></linearGradient><linearGradient id="L" x1="14.752" y1="13.648" x2="5.349" y2="24.243" href="#Q"><stop offset=".694" stop-color="#ff7af2" stop-opacity="0"/><stop offset=".934" stop-color="#ffbce6"/></linearGradient><radialGradient id="M" cx="0" cy="0" r="1" gradientTransform="matrix(-16.597952087666812,4.566228165074205,-4.822356679021414,-17.528963121083276,16.347,10.0136)" href="#Q"><stop offset=".802" stop-color="#ff73a6" stop-opacity="0"/><stop offset="1" stop-color="#ff93ba"/></radialGradient><radialGradient id="N" cx="0" cy="0" r="1" gradientTransform="translate(25.7715 5.29881) rotate(128.737) scale(7.29137 9.69562)" href="#Q"><stop stop-color="#ff7383"/><stop offset="1" stop-color="#ff7383" stop-opacity="0"/></radialGradient><radialGradient id="O" cx="0" cy="0" r="1" gradientTransform="translate(14.345 10.9577) rotate(-135.591) scale(12.6861 22.52)" href="#Q"><stop stop-color="#ff6274"/><stop offset="1" stop-color="#ff6274" stop-opacity="0"/></radialGradient><path id="P" d="M13.217 26.32a1.73 1.73 0 0 0 1.71-.023c3.584-2.047 9.81-6.761 12.255-12.884 3.59-7.973-4.838-14.337-10.662-9.76-.608.478-1.372 1.025-1.897 1.542-.238.234-.657.258-.904.034-.69-.63-1.771-1.436-2.465-1.905-4.965-3.36-14 1.069-10.146 10.52 1.412 4.242 8.14 10.26 12.109 12.476z"/><linearGradient id="Q" gradientUnits="userSpaceOnUse"/></defs></svg>