<svg xmlns="http://www.w3.org/2000/svg" width="103" height="33" fill="none"><g clip-path="url(#A)"><path d="M97.495 1.779H5.078A4.09 4.09 0 0 0 .989 5.868v21.264a4.09 4.09 0 0 0 4.089 4.089h92.417a4.09 4.09 0 0 0 4.09-4.089V5.868a4.09 4.09 0 0 0-4.09-4.089z" fill="#fff" stroke="#000" stroke-width="1.636"/><g fill="#000"><path d="M89.701 15.143c0 .419.164.785.492 1.096.342.3.868.449 1.577.449s1.268-.186 1.675-.557c.42-.383.63-.881.63-1.492v-1.618h-.354c-.184.419-.487.761-.907 1.025-.42.252-1.018.377-1.794.377-.591 0-1.143-.096-1.655-.288a4.24 4.24 0 0 1-1.32-.845c-.368-.359-.657-.791-.867-1.294s-.316-1.061-.316-1.672v-.216a3.96 3.96 0 0 1 .355-1.672 3.9 3.9 0 0 1 .986-1.348c.433-.383.952-.683 1.556-.899.617-.216 1.301-.324 2.05-.324a5.83 5.83 0 0 1 1.912.306 4.63 4.63 0 0 1 1.556.863 3.88 3.88 0 0 1 1.025 1.312 3.72 3.72 0 0 1 .375 1.672v4.584c0 .683-.125 1.294-.375 1.833a3.97 3.97 0 0 1-1.025 1.366c-.433.371-.945.659-1.537.863a5.98 5.98 0 0 1-1.892.288 6.69 6.69 0 0 1-1.872-.252c-.578-.18-1.084-.431-1.517-.755a3.84 3.84 0 0 1-1.005-1.204c-.236-.467-.355-1.001-.355-1.6h2.602zm2.069-7.01c-.67 0-1.222.186-1.655.557-.433.359-.65.845-.65 1.456s.217 1.102.65 1.474c.434.359.986.539 1.655.539s1.222-.18 1.655-.539c.433-.372.65-.863.65-1.474s-.217-1.097-.65-1.456c-.434-.371-.986-.557-1.655-.557zm-12.701 7.01c0 .419.164.785.493 1.096.342.3.867.449 1.577.449s1.268-.186 1.675-.557c.42-.383.631-.881.631-1.492v-1.618h-.354c-.184.419-.487.761-.907 1.025-.42.252-1.018.377-1.793.377-.591 0-1.143-.096-1.655-.288-.499-.204-.939-.485-1.32-.845-.368-.359-.657-.791-.867-1.294s-.315-1.061-.315-1.672v-.216a3.96 3.96 0 0 1 .355-1.672 3.91 3.91 0 0 1 .985-1.348c.434-.383.953-.683 1.557-.899.617-.216 1.301-.324 2.049-.324.683 0 1.321.102 1.912.306a4.63 4.63 0 0 1 1.556.863 3.88 3.88 0 0 1 1.025 1.312 3.72 3.72 0 0 1 .375 1.672v4.584c0 .683-.125 1.294-.375 1.833s-.591.995-1.025 1.366a4.67 4.67 0 0 1-1.537.863c-.578.192-1.209.288-1.892.288a6.69 6.69 0 0 1-1.872-.252 4.99 4.99 0 0 1-1.517-.755 3.85 3.85 0 0 1-1.005-1.204c-.237-.467-.355-1.001-.355-1.6h2.601zm2.069-7.01c-.67 0-1.222.186-1.655.557-.434.359-.65.845-.65 1.456s.217 1.102.65 1.474c.433.359.985.539 1.655.539s1.222-.18 1.655-.539c.433-.372.65-.863.65-1.474s-.217-1.097-.65-1.456c-.433-.371-.985-.557-1.655-.557zM60.853 18.705v7.773h-4.03V5.868h8.366c1.099 0 2.056.177 2.87.53.814.334 1.486.785 2.015 1.354a5.19 5.19 0 0 1 1.221 1.914c.285.707.427 1.433.427 2.179v.707c0 .765-.142 1.521-.427 2.267a5.78 5.78 0 0 1-1.221 1.973c-.529.569-1.201 1.031-2.015 1.384s-1.771.53-2.87.53h-4.336zm0-3.71h3.939c.896 0 1.598-.236 2.107-.707.529-.471.794-1.08.794-1.825v-.353c0-.746-.265-1.354-.794-1.825-.509-.471-1.211-.707-2.107-.707h-3.939v5.417zM40.264 5.868h4.03v16.9h9.709v3.71h-13.74V5.868zm-16.863 0h13.496v3.71h-9.465v4.711h9.099v3.71h-9.099v4.77h9.832v3.71H23.401V5.868zm-17.505 0h4.03v8.421h6.9V5.868h4.03v20.61h-4.03v-8.48h-6.9v8.48h-4.03V5.868z"/></g><path d="M76.231 23.861v2.453h20.446v-2.453H76.231z" fill="#c9e647"/><path d="M76.231 21.407v2.454h20.446v-2.454H76.231z" fill="#0f38a9"/></g><defs><clipPath id="A"><path fill="#fff" transform="translate(.171 .961)" d="M0 0h102.231v31.078H0z"/></clipPath></defs></svg>