<svg xmlns="http://www.w3.org/2000/svg" width="112" height="33" fill="none"><path d="M.145 7.735h5.499v17.209H.145V7.735zm5.684-4.784c0 1.478-1.158 2.675-2.97 2.675-1.736 0-2.894-1.197-2.858-2.675C-.035 1.404 1.123.242 2.895.242s2.894 1.162 2.934 2.71zm60.056 19.132c0-1.907 1.343-3.287 3.271-3.287s3.235 1.345 3.235 3.287c0 1.875-1.311 3.252-3.271 3.252-1.892 0-3.235-1.376-3.235-3.252z" fill="#e84f35"/><path d="M15.477 12.254c.473.105 1.054.144 1.852.144 2.946 0 4.762-1.45 4.762-3.887 0-2.191-1.563-3.497-4.325-3.497-1.126 0-1.888.105-2.289.211v7.03zM9.99 1.439c1.707-.285 4.108-.495 7.487-.495 3.415 0 5.852.636 7.487 1.91 1.563 1.201 2.617 3.181 2.617 5.517s-.802 4.312-2.253 5.657c-1.892 1.731-4.686 2.511-7.96 2.511-.726 0-1.383-.035-1.892-.105v8.519H9.99V1.439zm29.729 15.342c-2.906-.035-5.159.636-5.159 2.721 0 1.376.946 2.051 2.181 2.051 1.379 0 2.509-.881 2.87-1.977.072-.281.108-.6.108-.92v-1.875zm.653 8.164l-.329-1.731h-.108c-1.162 1.38-2.982 2.121-5.087 2.121-3.599 0-5.744-2.542-5.744-5.302 0-4.488 4.145-6.644 10.429-6.608v-.246c0-.92-.509-2.226-3.235-2.226-1.816 0-3.744.6-4.906 1.31L30.376 8.8c1.235-.674 3.672-1.521 6.906-1.521 5.924 0 7.812 3.396 7.812 7.458v6.012c0 1.661.072 3.252.253 4.207h-4.974v-.012zM53.167 7.661l2.653 8.484.87 3.217h.108l.798-3.216 2.181-8.484h5.924l-4.14 11.381c-2.545 6.858-4.253 9.615-6.253 11.346a10.35 10.35 0 0 1-5.343 2.371l-1.163-4.56c.689-.105 1.563-.425 2.397-.92.834-.425 1.744-1.271 2.289-2.156.18-.246.289-.53.289-.776 0-.175-.036-.46-.257-.885L47.014 7.661h6.153zm39.321 11.736l.144 5.548h-4.798l-.252-2.437h-.108c-.689 1.06-2.361 2.827-5.563 2.827-3.595 0-6.249-2.191-6.249-7.529V7.661h5.56v9.299c0 2.511.838 4.028 2.762 4.028 1.527 0 2.397-1.025 2.762-1.871.144-.32.18-.741.18-1.166V7.661h5.56v11.735h.004zm13.881-2.616c-2.91-.035-5.163.636-5.163 2.721 0 1.376.946 2.051 2.18 2.051 1.383 0 2.51-.881 2.87-1.977a3.77 3.77 0 0 0 .113-.92v-1.875zm.657 8.164l-.329-1.731h-.108c-1.162 1.38-2.978 2.121-5.087 2.121-3.599 0-5.739-2.542-5.739-5.302 0-4.488 4.141-6.644 10.429-6.608v-.246c0-.92-.509-2.226-3.235-2.226-1.815 0-3.743.6-4.906 1.31L97.033 8.8c1.234-.674 3.672-1.521 6.902-1.521 5.925 0 7.813 3.396 7.813 7.458v6.012c0 1.661.072 3.252.252 4.207h-4.974v-.012z" fill="#fff"/></svg>