<svg xmlns="http://www.w3.org/2000/svg" width="51" height="19" fill="none"><g clip-path="url(#A)" fill-rule="evenodd" fill="#b4bfc9"><path d="M47.765 7.196c0-.543.428-.985.941-.985.528 0 .941.442.941.985s-.414.985-.941.985c-.514.014-.941-.429-.941-.985zm.941.771c.4 0 .711-.342.711-.757s-.328-.757-.711-.757c-.4 0-.714.342-.714.757s.314.757.714.757zm-.13-.328h-.2v-.871h.355c.072 0 .156 0 .214.042.072.042.1.128.1.214 0 .1-.058.186-.142.214l.155.387h-.214l-.128-.342h-.142v.356zm0-.484h.114c.042 0 .086 0 .114-.014s.042-.058.042-.1c0-.028-.014-.072-.042-.086s-.086-.014-.114-.014h-.1l-.014.214zM34.306.618l-.255 1.684c-.555-.301-.969-.415-1.411-.415-1.169 0-1.994 1.199-1.994 2.897 0 1.172.555 1.884 1.466 1.884.386 0 .811-.128 1.338-.401l-.269 1.77c-.583.173-.955.228-1.397.228-1.694 0-2.749-1.286-2.749-3.339 0-2.766 1.452-4.709 3.546-4.709.269 0 .514.028.711.086l.655.173.358.142zm-5.229 1.154c-.042-.014-.1-.014-.155-.014-.514 0-.811.27-1.297 1.027l.142-.957h-1.425l-.969 6.295h1.58c.569-3.854.711-4.511 1.466-4.511h.114c.142-.757.328-1.314.597-1.828l-.053-.011zm-9.416 6.267c-.428.142-.769.214-1.125.214-.797 0-1.238-.484-1.238-1.386a4.26 4.26 0 0 1 .042-.57l.1-.615.072-.501.683-4.297h1.566l-.186.927h.811l-.228 1.528h-.797l-.414 2.627-.028.256c0 .328.172.47.542.47.186 0 .314-.014.428-.058l-.228 1.405zm-6.209-4.224c0 .799.369 1.341 1.197 1.756.627.314.741.415.741.698 0 .387-.286.57-.897.57a3.99 3.99 0 0 1-1.411-.256l-.214 1.455.072.014.286.058.414.056.869.058c1.652 0 2.421-.671 2.421-2.098 0-.857-.314-1.369-1.111-1.756-.655-.314-.728-.387-.728-.685 0-.342.255-.515.769-.515.314 0 .728.042 1.125.1l.228-1.455c-.414-.072-1.025-.128-1.383-.128-1.783-.003-2.394.955-2.38 2.126zm33.402 4.297h-1.497l.072-.615c-.428.484-.883.698-1.452.698-1.155 0-1.908-1.041-1.908-2.613 0-2.098 1.169-3.868 2.563-3.868.614 0 1.069.27 1.511.857l.342-2.212h1.552l-1.183 7.753zM44.533 6.64c.741 0 1.252-.871 1.252-2.126 0-.799-.3-1.241-.841-1.241-.711 0-1.225.885-1.225 2.112 0 .827.272 1.255.814 1.255zM24.648 7.984a5.19 5.19 0 0 1-1.625.256c-1.752 0-2.677-.971-2.677-2.827 0-2.171 1.169-3.754 2.749-3.754 1.297 0 2.122.899 2.122 2.299 0 .456-.058.913-.2 1.556h-3.132c-.014.1-.014.142-.014.2 0 .743.469 1.113 1.383 1.113.555 0 1.069-.128 1.638-.401l-.244 1.558zm-.883-3.757c.014-.128.014-.242.014-.314 0-.515-.269-.813-.741-.813-.5 0-.855.401-.997 1.127h1.724zM7.127 8.112H5.561l.897-5.952-2.021 5.952h-1.07l-.128-5.911-.955 5.911H.818L2.042.373h2.263l.058 4.798L5.902.373h2.449L7.127 8.112zm4.059-2.8l-.355-.028c-.897 0-1.338.328-1.338.957 0 .387.228.643.569.643.627 0 1.097-.643 1.125-1.572zm1.141 2.8h-1.311l.028-.657c-.4.529-.925.757-1.652.757-.855 0-1.438-.699-1.438-1.714 0-1.542 1.025-2.427 2.763-2.427.186 0 .414.014.641.042a2.04 2.04 0 0 0 .058-.415c0-.415-.269-.57-1.011-.57a4.7 4.7 0 0 0-1.311.186l-.2.072-.142.042.214-1.414c.783-.242 1.311-.342 1.88-.342 1.352 0 2.066.643 2.066 1.842 0 .314-.028.543-.128 1.255l-.314 2.24-.058.401-.042.314-.028.228-.017.159zm24.697-2.8l-.355-.028c-.897 0-1.352.328-1.352.957 0 .387.228.643.569.643.641 0 1.111-.643 1.139-1.572zm1.141 2.8h-1.311l.028-.657c-.4.529-.925.757-1.652.757-.855 0-1.438-.698-1.438-1.714 0-1.542 1.025-2.427 2.763-2.427a5.68 5.68 0 0 1 .641.042c.042-.214.056-.301.056-.415 0-.415-.269-.57-1.011-.57-.442 0-.955.072-1.311.186l-.228.058-.142.042L34.775 2c.783-.242 1.311-.342 1.88-.342 1.352 0 2.066.643 2.066 1.842 0 .314-.028.543-.128 1.255l-.328 2.226-.042.401-.042.314-.028.214.011.2z"/><path d="M42.567 1.772c-.042-.014-.1-.014-.155-.014-.514 0-.811.27-1.297 1.027l.142-.957h-1.425l-.969 6.295h1.58c.569-3.854.711-4.511 1.466-4.511h.114c.142-.757.341-1.314.597-1.828l-.053-.011zm-6.609 12.462c0 1.428-.441 2.271-1.139 2.271-.514.014-.811-.557-.811-1.4 0-.999.455-2.14 1.169-2.14.58 0 .78.612.78 1.269zm1.552.014c0-1.583-.783-2.827-2.252-2.827-1.694 0-2.791 1.5-2.791 3.712 0 1.583.655 2.883 2.249 2.883 1.611.003 2.793-1.141 2.793-3.768zm-4.545-3.924l-.241 1.684c-.528-.3-.897-.415-1.311-.415-1.097 0-1.866 1.199-1.866 2.897 0 1.172.514 1.884 1.366 1.884.369 0 .769-.128 1.252-.401l-.255 1.77c-.542.173-.897.228-1.311.228-1.58 0-2.577-1.286-2.577-3.339 0-2.769 1.366-4.711 3.318-4.711.256 0 .469.028.655.086l.597.172c.203.059.244.072.372.145zm-9.728 1.141c-.042-.014-.1-.014-.155-.014-.483 0-.755.27-1.211 1.027l.142-.957h-1.324l-.9 6.298h1.466c.528-3.854.669-4.511 1.366-4.511.042 0 .042 0 .114.014a6.81 6.81 0 0 1 .555-1.828l-.053-.028zm19.202 6.295h-1.397l.072-.615c-.4.484-.828.698-1.366.698-1.069 0-1.78-1.041-1.78-2.613 0-2.098 1.097-3.868 2.394-3.868.569 0 1.011.27 1.411.871l.328-2.212h1.452l-1.114 7.739zm-2.18-1.483c.697 0 1.169-.871 1.169-2.126 0-.799-.269-1.227-.783-1.227-.669 0-1.139.871-1.139 2.112-.003.827.253 1.241.752 1.241zM9.448 17.732a4.51 4.51 0 0 1-1.511.256c-1.638 0-2.494-.971-2.494-2.827 0-2.157 1.097-3.754 2.563-3.754 1.211 0 1.98.885 1.98 2.299 0 .456-.058.913-.186 1.556H6.885c-.014.1-.014.142-.014.2 0 .729.442 1.099 1.297 1.099.528 0 .997-.128 1.524-.401l-.244 1.572zm-.825-3.754l.014-.314c0-.515-.255-.813-.697-.813-.469 0-.797.401-.941 1.127h1.624zm18.319 3.754a4.51 4.51 0 0 1-1.511.256c-1.652 0-2.507-.971-2.507-2.827 0-2.157 1.097-3.754 2.563-3.754 1.211 0 1.994.885 1.994 2.299 0 .456-.058.913-.186 1.556h-2.918c-.014.1-.014.142-.014.2 0 .729.442 1.099 1.297 1.099.528 0 .997-.128 1.524-.401l-.242 1.572zm-.827-3.754c.014-.128.014-.242.014-.314 0-.515-.255-.813-.697-.813-.469 0-.797.401-.941 1.127h1.624zm21.336 3.754a4.62 4.62 0 0 1-1.51.256c-1.638 0-2.508-.971-2.508-2.827 0-2.157 1.097-3.754 2.577-3.754 1.211 0 1.98.885 1.98 2.299 0 .456-.056.913-.186 1.556h-2.921c-.014.1-.014.142-.014.2 0 .729.442 1.099 1.297 1.099.528 0 .997-.128 1.524-.401l-.239 1.572zm-.825-3.754l.014-.314c0-.515-.256-.813-.697-.813-.469 0-.797.401-.941 1.127h1.624zM5.091 11.751c-.286-.2-.683-.356-1.225-.356-.597 0-1.069.128-1.069.757 0 1.113 2.166.698 2.166 3.097 0 2.185-1.424 2.755-2.721 2.755-.569 0-1.238-.186-1.724-.415l.355-1.6c.3.27.883.456 1.383.456.469 0 1.183-.128 1.183-.943 0-1.272-2.166-.799-2.166-3.028 0-2.043 1.269-2.641 2.494-2.641.683 0 1.338.1 1.71.356l-.386 1.561zm8.658 5.981c-.3.142-.711.242-1.311.242-1.283 0-2.08-1.286-2.08-2.855 0-2.056 1.155-3.682 2.849-3.682.369 0 .941.156 1.383.415l-.328 1.5c-.314-.214-.642-.342-.983-.342-.783 0-1.352.729-1.352 2.012 0 .743.414 1.355 1.055 1.355.386 0 .655-.086.983-.27l-.217 1.625zm5.501-1.584l-.186 1.628h-1.411l.114-1.013h-.014c-.441.685-.897 1.158-1.71 1.158-.883 0-1.366-.943-1.366-2.157 0-.429.028-.657.114-1.313l.4-2.911h1.58l-.428 2.928c-.042.314-.1.629-.1.957 0 .37.172.743.597.712.642 0 1.025-.785 1.139-1.714l.441-2.883h1.524l-.694 4.608zm29.67 1.556h-.244V16.66h-.341v-.228h.927v.228h-.342v1.044zm1.58 0h-.228v-1.058l-.214 1.058h-.228l-.214-1.058v1.058h-.228v-1.272h.355l.2.999h.014l.2-.999h.342v1.272z"/></g><defs><clipPath id="A"><path fill="#fff" transform="translate(.518 .217)" d="M0 0h49.982v17.802H0z"/></clipPath></defs></svg>