<svg xmlns="http://www.w3.org/2000/svg" width="46" height="19" fill="none"><g fill="#b4bfc9"><path d="M31.031 10.328l.454.139c-.03.132-.076.24-.144.326a.59.59 0 0 1-.242.194.86.86 0 0 1-.371.07 1.08 1.08 0 0 1-.447-.078.7.7 0 0 1-.295-.287c-.083-.132-.129-.31-.129-.52 0-.279.076-.496.22-.651s.356-.225.621-.225a.83.83 0 0 1 .492.132c.121.085.212.217.265.403l-.454.101c-.015-.054-.03-.093-.053-.116a.31.31 0 0 0-.106-.093.29.29 0 0 0-.136-.031.29.29 0 0 0-.265.147c-.045.07-.068.186-.068.333 0 .186.03.318.083.388s.136.108.235.108.174-.031.22-.085c.061-.07.099-.147.121-.256z"/><path d="M31.667 10.172c0-.279.076-.496.227-.651s.364-.233.636-.233c.28 0 .492.078.644.225.151.155.227.364.227.644 0 .202-.03.364-.098.488a.71.71 0 0 1-.288.295.93.93 0 0 1-.462.108 1.06 1.06 0 0 1-.47-.093.74.74 0 0 1-.303-.295c-.083-.139-.114-.287-.114-.488zm.515 0c0 .171.03.295.091.372s.144.116.258.116.197-.039.258-.108c.06-.078.091-.209.091-.395 0-.163-.03-.279-.098-.349-.061-.078-.151-.109-.258-.109a.3.3 0 0 0-.25.116c-.061.062-.091.186-.091.357zm1.485-.853h.674l.258 1.039.258-1.039h.674v1.706h-.424V9.723l-.326 1.303h-.379l-.326-1.303v1.303h-.424V9.319h.015zm2.196 0h.856c.189 0 .326.047.417.14s.136.217.136.388-.053.31-.151.403c-.099.101-.258.147-.462.147h-.28v.636h-.515V9.319zm.515.729h.129c.098 0 .167-.016.212-.054.038-.039.061-.078.061-.132a.19.19 0 0 0-.053-.14c-.038-.039-.098-.054-.197-.054h-.144v.38h-.008zm1.167-.729h.515v1.287h.803v.419h-1.318V9.319zm1.575 0h.515v1.706h-.515V9.319zm1.909 1.419h-.583l-.083.279h-.523l.629-1.706h.56l.629 1.706h-.538l-.091-.279zm-.106-.364l-.182-.612-.182.612h.364zm.894-1.055h.477l.629.946v-.946h.485v1.706h-.485l-.621-.938v.938h-.485V9.319zm1.817 0h1.568v.419h-.523v1.287h-.515V9.738h-.523v-.419h-.008zm-18.799 2.598l1.492-.481-.485-1.101c-.356.457-.712 1.047-1.007 1.582zm-.508-5.032L21.404.217 0 1.457l5.93 16.561 11.414-3.683c-.727-1.07-.992-2.341-.151-2.962.939-.698 2.355.109 3.257 1.248.871-1.489 3.317-4.954 3.878-5.737z"/></g><path d="M20.738 5.035c.894 0 1.621-.698 1.621-1.566s-.727-1.566-1.621-1.566-1.621.698-1.621 1.566c0 .861.727 1.566 1.621 1.566zm-1.326.675h2.651v7.094h-2.651V5.71zm-1.31 2.069c.023.008.038 0 .038-.023V5.957c0-.023-.015-.047-.038-.062 0 0-.348-.233-1.409-.295-.053-.031-.985-.039-1.235 0-3.863.318-4.007 3.179-4.007 3.303v.698c0 .085 0 3.008 4.007 3.264.394.031 1.159 0 1.235 0 .924 0 1.56-.287 1.56-.287.023-.008.038-.031.038-.054v-1.683c0-.023-.015-.031-.03-.015 0 0-.288.233-1.545.364-.356.039-.53.023-.659 0-1.787-.31-1.871-1.644-1.871-1.644 0-.023-.008-.062-.008-.078v-.512c0-.023 0-.062.008-.078 0 0 .121-1.434 1.871-1.589h.659a3.9 3.9 0 0 1 1.386.488zM4.09 12.781c0 .023.015.039.038.039H6.71c.023 0 .038-.015.038-.039v-2.062c0-.023.015-.039.038-.039 0 0 4.128.302 4.128-2.528 0-2.241-2.59-2.481-3.439-2.442H4.128c-.023 0-.038.016-.038.039v7.032zm2.613-3.675V7.253h.636s.916.039.992.682a1.59 1.59 0 0 1 0 .38c-.121.752-.916.791-.916.791h-.712z" fill="#172a3a"/><g fill="#b4bfc9"><path d="M20.813 16.227c.212 0 .379 0 .651-.124.939-.504 4.113-8.436 7.46-10.878a.24.24 0 0 0 .061-.062c.023-.031.023-.062.023-.062s0-.163-.492-.163c-2.976-.085-6.074 6.311-7.703 8.839-.023.031-.129 0-.129 0s-1.091-1.318-2.037-1.822c-.023-.008-.129-.047-.242-.039-.076 0-.515.093-.719.31-.242.264-.235.411-.235.729a.55.55 0 0 0 .045.186c.235.419 1.288 1.907 2.159 2.729.129.101.333.357 1.159.357zm8.991-13.396h2.477c.492 0 .886.07 1.182.202.303.14.553.333.742.581a2.37 2.37 0 0 1 .424.884c.091.333.136.69.136 1.07 0 .589-.068 1.047-.197 1.372s-.311.597-.545.822c-.235.217-.485.364-.75.442a3.73 3.73 0 0 1-.992.147h-2.477v-5.52zm1.666 1.248v3.016h.409c.348 0 .598-.039.742-.116s.265-.217.348-.411.129-.519.129-.961c0-.589-.091-.985-.28-1.202s-.492-.326-.932-.326h-.417z"/><path d="M35.227 6.529l1.591-.101c.038.264.106.465.212.605.174.225.417.333.735.333.235 0 .424-.054.553-.171s.197-.248.197-.395c0-.14-.061-.271-.182-.388s-.409-.217-.856-.318c-.735-.171-1.25-.395-1.568-.675s-.47-.636-.47-1.07c0-.287.083-.55.242-.806s.401-.45.727-.597.765-.217 1.325-.217c.689 0 1.219.132 1.575.395.364.264.576.682.644 1.256l-1.575.093c-.045-.248-.129-.426-.265-.543s-.318-.171-.553-.171c-.197 0-.341.039-.439.124a.39.39 0 0 0-.144.31.31.31 0 0 0 .121.24c.076.07.265.14.56.202.727.163 1.25.326 1.568.488s.545.372.689.613a1.58 1.58 0 0 1 .212.822c0 .357-.099.682-.288.977-.189.302-.462.527-.803.682s-.78.233-1.303.233c-.916 0-1.553-.178-1.909-.543-.348-.364-.545-.822-.598-1.38zm5.324 0l1.591-.101c.038.264.106.465.212.605.174.225.416.333.735.333.235 0 .424-.054.553-.171s.197-.248.197-.395a.53.53 0 0 0-.182-.388c-.122-.117-.409-.217-.856-.318-.735-.171-1.25-.395-1.568-.675a1.38 1.38 0 0 1-.47-1.07c0-.287.083-.55.242-.806s.401-.45.727-.597.765-.217 1.325-.217c.689 0 1.219.132 1.575.395.364.264.576.682.644 1.256l-1.575.093c-.045-.248-.129-.426-.265-.543s-.318-.171-.553-.171c-.197 0-.341.039-.439.124a.39.39 0 0 0-.144.31.31.31 0 0 0 .121.24c.076.07.265.14.56.202.727.163 1.25.326 1.568.488s.545.372.689.613a1.58 1.58 0 0 1 .212.822c0 .357-.099.682-.288.977-.189.302-.462.527-.803.682s-.78.233-1.303.233c-.916 0-1.553-.178-1.909-.543s-.553-.822-.598-1.38z"/></g></svg>