<svg xmlns="http://www.w3.org/2000/svg" width="45" height="10" fill="#b4bfc9"><path d="M17.767 9.251c-.481-.176-.993-.297-1.437-.537-1.531-.832-2.324-2.55-1.978-4.174a4.05 4.05 0 0 1 3.546-3.219c.328-.036.664-.005 1.065-.005l-.722 1.061c-.032.045-.129.052-.198.063-1.456.219-2.434 1.212-2.589 2.629-.166 1.521 1.164 2.978 2.739 3.058 1.699.087 3.161-1.211 3.122-2.906-.008-.343-.146-.681-.207-1.025-.02-.109-.023-.249.031-.338.175-.294.379-.571.59-.88.396.53.618 1.091.715 1.701.35 2.191-1.233 4.188-3.355 4.525-.034.005-.065.031-.096.047h-1.225zm27.127-4.865c-.016.032-.04.061-.047.094-.245 1.071-1.022 1.701-2.162 1.739l-1.233.002v1.366V8.92h-1.497V1.623l.919.001 2.109.063c.986.114 1.632.746 1.854 1.685.012.052.037.1.057.15v.864zm-3.425.586c.338 0 .664.031.982-.007.544-.065.881-.446.929-.987.04-.45-.24-.91-.696-1.017-.387-.091-.796-.092-1.214-.136v2.148zM1.074 1.639h6.002V8.92H5.573V2.934H2.578v5.982H1.074V1.639zm9.009 4.582V8.92H8.601V1.66c.005-.004.019-.026.032-.026l3.028.061c1.033.092 1.788.942 1.864 1.954.063.848-.113 1.618-.877 2.152-.403.282-.868.401-1.357.418l-1.207.002zm.017-1.242l.919-.004c.533-.038.878-.362.974-.88.087-.465-.134-.917-.556-1.101-.429-.187-.88-.14-1.337-.12v2.105zm18.972 2.056l-.007 1.499c-.002.074-.081.183-.153.213-2.558 1.086-5.293-.348-5.632-2.851-.209-1.542.219-2.888 1.578-3.789 1.263-.837 2.652-.87 4.049-.277a.32.32 0 0 1 .157.237l.007 1.501c-.585-.578-1.249-.868-2.037-.804a2.35 2.35 0 0 0-1.857 1.089c-.701 1.06-.519 2.536.407 3.334.991.853 2.295.808 3.487-.152zm3.178-4.113h-1.653v-1.28h4.813v1.265h-1.647V8.91H32.25V2.922zm4.689 5.994V1.641h1.482v7.276h-1.482zM16.613 5.3c-.052-.925.756-1.737 1.722-1.77 1.002-.034 1.869.789 1.854 1.76-.014.952-.83 1.747-1.785 1.72v-.971c.094-.029.201-.052.299-.095.32-.141.499-.48.428-.796-.076-.34-.353-.58-.692-.601-.354-.021-.698.196-.769.534-.04.188-.116.231-.293.223l-.764-.004z"/></svg>