<svg xmlns="http://www.w3.org/2000/svg" width="32" height="33" fill="none"><path d="M17.371 2.784l2.919.031.259.009.949.04c1.419.067 2.387.291 3.236.62a6.5 6.5 0 0 1 2.363 1.537c.678.667 1.203 1.473 1.537 2.363.329.849.553 1.817.62 3.237l.04.949.008.259.031 2.917.001.995v1.747l-.031 2.917-.008.259-.04.949c-.067 1.42-.293 2.387-.621 3.237a6.51 6.51 0 0 1-1.537 2.363 6.55 6.55 0 0 1-2.363 1.537c-.849.329-1.817.553-3.236.62l-.949.04-.259.008-2.919.031-.995.001h-1.745c-.973.003-1.946-.007-2.919-.031l-.259-.008-.949-.041c-1.419-.067-2.387-.291-3.237-.62-.89-.334-1.696-.859-2.361-1.537a6.54 6.54 0 0 1-1.539-2.363c-.329-.849-.553-1.817-.62-3.237l-.04-.949-.007-.259-.033-2.917v-2.741l.029-2.917.009-.259.04-.949c.067-1.42.291-2.387.62-3.237.335-.891.861-1.697 1.541-2.363a6.53 6.53 0 0 1 2.36-1.537c.851-.329 1.817-.553 3.237-.62l.949-.04.259-.008 2.917-.031 2.741-.001zM16 9.451c-1.768 0-3.464.702-4.714 1.953s-1.953 2.946-1.953 4.714.702 3.464 1.953 4.714 2.946 1.953 4.714 1.953 3.464-.702 4.714-1.953 1.953-2.946 1.953-4.714-.702-3.464-1.953-4.714S17.768 9.451 16 9.451zm0 2.667a4 4 0 0 1 2.829 1.171 4 4 0 0 1 1.172 2.828 4 4 0 0 1-1.171 2.829 4 4 0 0 1-2.828 1.172 4 4 0 0 1-4-4 4 4 0 0 1 4-4m7-4.667c-.442 0-.866.176-1.178.488s-.488.736-.488 1.179.176.866.488 1.178.736.488 1.178.488.866-.176 1.178-.488.488-.736.488-1.178-.176-.866-.488-1.179-.736-.488-1.178-.488z" fill="#fff"/></svg>