<svg xmlns="http://www.w3.org/2000/svg" width="32" height="33" fill="none"><path d="M25.333 4.118c.707 0 1.386.281 1.886.781S28 6.077 28 6.784v18.667c0 .707-.281 1.386-.781 1.886s-1.178.781-1.886.781H6.667c-.707 0-1.386-.281-1.886-.781S4 26.158 4 25.451V6.784c0-.707.281-1.386.781-1.886s1.178-.781 1.886-.781h18.667zm-.667 20.667v-7.067c0-1.153-.458-2.258-1.273-3.074s-1.921-1.273-3.074-1.273c-1.133 0-2.453.693-3.093 1.733v-1.48h-3.72v11.16h3.72v-6.573c0-1.027.827-1.867 1.853-1.867.495 0 .97.197 1.32.547s.547.825.547 1.32v6.573h3.72zM9.173 11.531a2.24 2.24 0 0 0 2.24-2.24c0-1.24-1-2.253-2.24-2.253-.598 0-1.171.237-1.593.66s-.66.996-.66 1.593c0 1.24 1.013 2.24 2.253 2.24zm1.853 13.253v-11.16H7.333v11.16h3.693z" fill="#fff"/></svg>