<svg xmlns="http://www.w3.org/2000/svg" width="186" height="35" fill="none"><g clip-path="url(#A)"><path d="M168.5 33.295H19.629c-9.312 0-16.801-7.261-16.801-16.28C2.823 7.995 10.316.734 19.629.734h148.979c9.312 0 16.801 7.26 16.801 16.28-.107 8.918-7.601 16.28-16.909 16.28z" fill="#fff"/><g fill="#344150"><path d="M17.805 1.043C8.498 1.043.897 8.202.897 17.121S8.39 33.3 17.698 33.3s16.801-7.26 16.801-16.179c.112-8.918-7.489-16.077-16.694-16.077zm5.992 15.555l-9.098 4.771c-.751.416-1.389 0-1.389-1.039l-.107-8.817c0-.933.644-1.45 1.39-1.039l9.098 4.665c.858.416.858 1.039.107 1.45v.01z"/><path opacity=".5" d="M19.307.734c-9.42 0-17.021 7.26-17.021 16.28s7.601 16.28 17.016 16.28 16.27-7.261 16.27-16.28S28.614.734 19.302.734h.005zm5.992 15.657l-9.098 4.872c-.751.416-1.389 0-1.389-1.039l-.107-8.918c0-.933.644-1.45 1.389-1.039l9.205 4.665c.751.416.751 1.141 0 1.45v.01z"/></g><path d="M34.398 13.283c-.644-2.799-3.852-8.087-5.777-8.918s-2.998-2.074-3.744-2.282c-.751-.101-4.066-1.557-5.246-1.242-1.175.309-2.891-.208-3.852 0-.965 0-6.099 1.141-8.991 3.63-2.677 2.489-3.53 3.732-3.53 3.732s-5.139 9.851-1.175 10.992c.965.309.858.933.858 1.972 0 1.557-.429 1.658.751 2.591s2.355-.831 3.423.208c.965.933-.965 3.113 1.819 4.563s2.355-2.282 4.281-1.658.214 3.321 2.462 3.422c2.248.208 1.389-2.697 2.784-2.489 1.282.208.536 2.282 3.315 1.764 2.784-.517.858-2.697 2.355-3.214 1.497-.416 2.033 2.383 4.924-.309 2.891-2.799.215-2.697.751-3.838.644-1.039 1.282.832 2.14-1.658s.107-1.557 0-2.697 2.999-1.866 2.462-4.563l-.01-.005z" fill="#fff"/><g fill="#d42117"><path d="M29.046 21.476h-2.033c-.215 0-.322-.208-.322-.309v-.517c0-.208.107-.309.322-.309h2.033c.215 0 .322.208.322.309v.517c0 .208-.107.309-.322.309zm.535-5.912h-.214l-.429-.309c-.107 0-.107-.101-.107-.208v-.309l1.073-1.764c.107-.208.322-.208.429-.101l.429.309c.107 0 .107.101.107.208v.309l-1.073 1.764s-.107.101-.215.101z"/></g><path d="M26.69 11.828h-.215l-.429-.309c-.214-.101-.214-.309-.107-.517l1.073-1.764c.107-.208.322-.208.429-.101l.429.309c.107 0 .107.101.214.208v.309l-1.073 1.764c-.107.101-.215.101-.322.101z" fill="#ebba31"/><path d="M23.911 7.68h-.107c-.107 0-.107-.101-.214-.208L22.839 5.5v-.309c0-.101.107-.101.215-.208l.536-.208c.214-.101.429 0 .429.208l.751 1.972c.107.208 0 .416-.215.416l-.536.309h-.107z" fill="#d42117"/><path d="M21.019 8.41l-.107.101c-.107 0-.214.101-.322 0l-2.033-.517c-.107 0-.215-.101-.215-.208s-.107-.208 0-.208l.107-.517c0-.208.215-.309.429-.208l2.033.517c.107 0 .215.101.215.208.107 0 .107.101.107.208l-.107.517c-.107 0-.107.101-.107.101v.005z" fill="#31b8c5"/><path d="M15.881 4.78c-.107 0-.322-.101-.322-.309l-.107-.517v-.309c0-.101.107-.101.215-.101l2.033-.416h.215c.107 0 .107.101.107.208l.107.517c0 .208-.107.416-.215.416l-2.033.517h0V4.78z" fill="#ebba31"/><path d="M21.979 24.691h-.215l-.536-.309c-.215-.101-.215-.309-.107-.517l1.073-1.764c.107-.208.322-.208.429-.101l.429.309c.107 0 .107.101.107.208v.309l-1.073 1.764c.107.101 0 .101-.107.101z" fill="#31b8c5"/><path d="M6.783 12.035l-1.819-.933c-.215-.101-.215-.309-.107-.416l.215-.517c.107-.208.322-.208.536-.101l1.819.933c.215.101.215.309.107.416l-.215.416c-.107.208-.322.309-.536.208v-.005z" fill="#ebba31"/><path d="M6.998 20.746l-.107-.101-.215-.517c-.107-.208 0-.416.107-.517l1.819-1.039c.107 0 .215-.101.322 0 .107 0 .215.101.215.208l.215.517v.309a.23.23 0 0 1-.215.208l-1.819 1.039c0-.101-.107 0-.322-.101h0v-.005z" fill="#31b8c5"/><g fill="#d42117"><path d="M9.459 8.613h-.215l-.429-.309C8.6 8.203 8.6 7.995 8.6 7.787l1.073-1.764c.107-.208.322-.208.429-.101l.429.309c.107 0 .107.101.107.208v.309L9.566 8.512c.107 0 0 .101-.107.101zM8.07 16.705c-.107.101-.322.101-.429 0l-1.604-1.349c-.107-.101-.215-.309-.107-.517l.322-.416c.072-.068.143-.101.215-.101.107 0 .215 0 .215.101l1.604 1.349c.072.068.107.137.107.208 0 .101 0 .208-.107.208l-.215.517h0zm2.033 8.812c-.107 0-.322-.101-.322-.309l-.644-1.972c0-.208.107-.416.215-.416l.536-.101h.215c.107 0 .107.101.215.208l.536 1.972v.309c0 .101-.107.101-.215.208l-.536.101z"/></g><path d="M16.845 26.556c-.107 0-.322-.101-.322-.309l-.536-1.972c0-.208.107-.416.214-.416l.536-.101h.215c.107 0 .107.101.215.208l.536 1.972v.309c0 .101-.107.101-.215.208l-.644.101h0z" fill="#ebba31"/><path d="M25.513 14.839L13.846 8.927c-.966-.517-1.711.101-1.711 1.349l.107 11.301c0 1.242.858 1.764 1.819 1.242l11.453-6.12c.965-.517.965-1.349 0-1.866v.005z" fill="#31b8c5"/><path d="M25.513 14.839L13.846 8.927c-.966-.517-1.711.101-1.711 1.349v1.557l11.667 5.805 1.711-.933c.965-.517.965-1.349 0-1.866z" fill="#344150"/><g fill="#e52713"><path d="M53.125 13.075c-.107.208-.322.416-.429.416-.107.101-.322.101-.644.101-.215 0-.536-.101-.751-.208-.215-.101-.536-.208-.858-.309l-1.073-.309c-.429-.101-.858-.208-1.282-.208-.751 0-1.175.101-1.604.416-.322.208-.536.624-.536 1.039 0 .309.107.624.322.832s.536.416.965.624.858.309 1.389.517c.536.101 1.073.309 1.604.517l1.604.624c.536.208.965.517 1.389.933.429.309.751.831.966 1.349s.322 1.141.322 1.866c0 .832-.215 1.658-.536 2.383s-.858 1.349-1.497 1.972c-.644.517-1.497.933-2.462 1.242s-2.033.416-3.315.416c-.644 0-1.282-.101-1.926-.208s-1.282-.309-1.819-.416c-.536-.208-1.175-.416-1.604-.725-.536-.309-.965-.517-1.282-.831l1.282-1.972a1.25 1.25 0 0 1 .536-.517c.214-.101.536-.208.858-.208s.644.101.858.208.536.309.858.416c.322.208.644.309 1.073.416s.858.208 1.497.208c.429 0 .751 0 1.073-.101s.536-.208.751-.309.322-.309.429-.517.107-.416.107-.517c0-.309-.107-.624-.322-.832s-.536-.416-.965-.624-.858-.309-1.389-.416-1.073-.309-1.604-.517l-1.604-.624c-.536-.309-.966-.624-1.39-.933-.429-.416-.751-.831-.965-1.45s-.322-1.242-.322-2.074c0-.725.107-1.45.429-2.18s.751-1.242 1.389-1.764a7.74 7.74 0 0 1 2.248-1.242c.858-.309 1.926-.416 3.213-.416.644 0 1.282.101 1.926.208.644.101 1.175.309 1.711.517s1.073.416 1.497.725l1.175.933-1.282 1.556-.01-.005zm1.287-3.63H58.8c.429 0 .751.101.965.309s.429.416.536.624l1.819 7.985c.107.624.322 1.242.429 1.764l.322 1.658c.215-.517.322-1.141.536-1.658l.536-1.764 2.248-7.985a1.09 1.09 0 0 1 .536-.624c.215-.208.536-.309.966-.309h2.462c.429 0 .751.101.965.309s.429.416.536.624l2.248 7.985.536 1.764a10.51 10.51 0 0 1 .429 1.764l.322-1.764c.107-.624.322-1.141.429-1.764l1.926-7.985a1.09 1.09 0 0 1 .536-.624c.215-.208.536-.309.965-.309h4.174l-5.67 17.837h-4.495c-.215 0-.429-.101-.644-.208s-.322-.416-.429-.725l-2.57-8.817-.322-1.141-.322-1.141-.322 1.141-.322 1.242-2.569 8.711c-.215.624-.536.933-1.175.933H60.1L54.433 9.44l-.02.005zm37.139-.518a11.13 11.13 0 0 1 3.315.517c.965.416 1.926.933 2.569 1.557.751.725 1.282 1.556 1.711 2.591s.644 2.18.644 3.422v.933c0 .208-.107.416-.215.624-.107.101-.215.208-.429.309-.107.101-.322.101-.644.101H87.909c.214 1.45.644 2.591 1.389 3.214.751.624 1.711 1.039 2.891 1.039a6.49 6.49 0 0 0 1.604-.208c.429-.107.858-.309 1.282-.517.322-.208.644-.309.965-.517.322-.101.644-.208.966-.208.429 0 .751.208.965.416l1.604 1.866c-.536.624-1.175 1.141-1.819 1.557s-1.282.725-2.033.933c-.644.208-1.389.416-2.033.416-.644.101-1.389.101-1.926.101a10.69 10.69 0 0 1-3.637-.624c-1.175-.416-2.14-1.039-2.999-1.764-.858-.832-1.497-1.764-2.033-3.007-.536-1.141-.751-2.591-.751-4.147 0-1.141.215-2.282.644-3.422.429-1.039 1.073-1.972 1.819-2.799s1.711-1.45 2.891-1.866c1.175-.309 2.462-.517 3.852-.517zm.107 3.63c-1.073 0-1.819.309-2.462.832-.644.624-.965 1.45-1.175 2.489h6.85c0-.416-.107-.832-.215-1.242s-.322-.725-.536-1.039-.536-.517-.966-.725-.965-.309-1.497-.309v-.005zm19.156-3.63c1.175 0 2.355.208 3.315.517.966.416 1.926.933 2.57 1.557.751.725 1.282 1.556 1.711 2.591s.644 2.18.644 3.422v.933c0 .208-.108.416-.215.624-.107.101-.215.208-.429.309-.107.101-.322.101-.644.101h-10.594c.214 1.45.643 2.591 1.389 3.214a4.42 4.42 0 0 0 2.891 1.039 6.49 6.49 0 0 0 1.604-.208 3.99 3.99 0 0 0 1.175-.517c.322-.208.644-.309.966-.517.322-.101.643-.208.965-.208.429 0 .751.208.966.416l1.604 1.866a8.44 8.44 0 0 1-1.819 1.557c-.643.416-1.282.725-2.033.933-.644.208-1.389.416-2.033.416-.644.101-1.39.101-1.926.101a10.69 10.69 0 0 1-3.637-.624c-1.175-.416-2.14-1.039-2.999-1.764-.858-.832-1.496-1.764-2.033-3.007-.536-1.141-.751-2.591-.751-4.147 0-1.141.215-2.282.644-3.422.429-1.039 1.073-1.972 1.819-2.799.751-.832 1.711-1.45 2.891-1.866 1.282-.309 2.569-.517 3.959-.517zm.107 3.63c-1.073 0-1.818.309-2.462.832-.644.624-.966 1.45-1.175 2.489h6.85c0-.416-.107-.832-.214-1.242s-.322-.725-.537-1.039-.536-.517-.965-.725-.858-.309-1.497-.309v-.005zm27.293 10.577c-.107-.309-.429-.725-.644-.933-.321-.309-.643-.517-.965-.624-.751-.309-1.711-.309-2.462 0-.429.208-.751.416-.966.624-.321.309-.536.624-.643.933-.215.309-.215.725-.215 1.141s.107.832.215 1.141c.214.416.429.725.643.933.322.309.644.517.966.624.429.101.858.208 1.282.208s.858-.101 1.282-.208c.429-.101.751-.309.966-.624.321-.309.536-.624.643-.933.215-.416.215-.725.215-1.141-.107-.416-.107-.831-.322-1.141h.005zm26.436 4.148h-5.031l-7.172-17.837h4.602c.429 0 .751.101.966.309s.429.416.536.624l2.569 7.985.644 1.866c.215.624.322 1.242.429 1.866.107-.624.322-1.242.429-1.866l.644-1.866 2.677-7.985a1.09 1.09 0 0 1 .536-.624c.215-.208.536-.309.966-.309h4.388l-7.172 17.837h-.011zm-34.997-4.254c-.107-.208-.214-.309-.322-.416a.85.85 0 0 0-.536-.208c-.214 0-.322 0-.429.101-.107 0-.215.102-.322.102s-.107.101-.215.101h-.321a.82.82 0 0 1-.537-.208c-.107-.208-.214-.416-.214-.725v-7.676h4.066v-3.838h-4.066V5.814h-4.496c-.751.208-1.175.725-1.175 1.45v14.932c0 .725.108 1.45.322 2.074s.537 1.141 1.073 1.658c.429.416.966.831 1.604 1.039.644.208 1.39.309 2.248.309s1.711-.101 2.569-.309 1.604-.624 2.248-1.141l.214-.208-1.711-2.591zm21.082 0c-.107-.208-.215-.309-.322-.416a.82.82 0 0 0-.536-.208c-.215 0-.322 0-.429.101-.108 0-.215.102-.322.102s-.107.101-.215.101h-.322a.82.82 0 0 1-.536-.208c-.107-.208-.214-.416-.214-.725v-7.676h4.066v-3.838h-4.066V5.814h-4.496c-.751.208-1.175.725-1.175 1.45v14.932c0 .725.108 1.45.322 2.074s.537 1.141 1.073 1.658c.429.416.965.831 1.604 1.039s1.389.309 2.248.309a10.84 10.84 0 0 0 2.569-.309c.858-.208 1.604-.624 2.248-1.141l.214-.208-1.711-2.591z"/></g></g><defs><clipPath id="A"><path fill="#fff" transform="translate(.574 .734)" d="M0 0h184.834v33.532H0z"/></clipPath></defs></svg>