<svg xmlns="http://www.w3.org/2000/svg" width="80" height="81" fill="none"><path fill-rule="evenodd" d="M65.923 14.884a5 5 0 0 1 5.036.682 5 5 0 0 1 1.838 4.738l-7.56 45.857c-.733 4.423-5.587 6.96-9.643 4.757-3.393-1.843-8.433-4.683-12.967-7.647-2.267-1.483-9.21-6.233-8.357-9.613.733-2.89 12.4-13.75 19.067-20.207 2.617-2.537 1.423-4-1.667-1.667-7.673 5.793-19.993 14.603-24.067 17.083-3.593 2.187-5.467 2.56-7.707 2.187-4.087-.68-7.877-1.733-10.97-3.017-4.18-1.733-3.977-7.48-.003-9.153l57-24z" fill="#fff"/></svg>