<svg xmlns="http://www.w3.org/2000/svg" width="42" height="19" fill="#b4bfc9"><path d="M17.093 9.718l-2.049 5.581-.219-1.134c-.51-1.39-1.615-2.848-2.9-3.439l1.873 7.164h2.215l3.294-8.17h-2.212v-.002zm1.754 8.179l1.309-8.187h2.092l-1.309 8.187h-2.092zm9.684-7.985a5.12 5.12 0 0 0-1.875-.345c-2.071 0-3.524 1.112-3.537 2.702-.013 1.177 1.041 1.835 1.832 2.227.817.4 1.09.658 1.088 1.014-.009.55-.654.799-1.254.799a4.16 4.16 0 0 1-1.967-.428l-.271-.13-.292 1.831c.49.228 1.393.426 2.333.437 2.197 0 3.625-1.099 3.642-2.796.009-.934-.55-1.64-1.759-2.224-.729-.38-1.18-.63-1.174-1.017 0-.339.378-.704 1.2-.704a3.63 3.63 0 0 1 1.565.315l.187.093.282-1.775zm5.364-.194h-1.617c-.501 0-.877.143-1.099.68l-3.105 7.501h2.197l.441-1.232 2.679.004.254 1.225h1.944l-1.694-8.179zm-2.58 5.276l.834-2.29c-.013.022.172-.473.277-.78l.14.706.486 2.363h-1.737z"/><path d="M13.145 9.714H9.769l-.019.141c2.623.678 4.354 2.344 5.076 4.312l-.733-3.762c-.127-.519-.495-.673-.948-.691zM3.439 7.735H2.106L.567.725l1.475-.25 1.054 5.487L5.776.549h1.417L3.439 7.735zm6.941-2.292H7.197c-.086.975.361 1.399 1.12 1.399.636 0 1.195-.239 1.8-.621l-.004.975c-.591.374-1.273.613-2.075.613-1.385 0-2.301-.799-2.025-2.602.247-1.627 1.363-2.613 2.655-2.613 1.488 0 1.982 1.13 1.767 2.55l-.056.3zM8.507 3.451c-.492 0-.953.393-1.17 1.214h1.972c.034-.778-.206-1.214-.802-1.214zm3.945 1.379l-.439 2.872h-1.232l.763-5.009h1.047v1.006c.417-.58.985-1.069 1.761-1.11l.007 1.234a2.74 2.74 0 0 0-1.907 1.008zm1.893 2.875l.763-5.009h1.232l-.763 5.009h-1.232zm1.518-5.85c-.411 0-.695-.291-.632-.706a.86.86 0 0 1 .849-.726c.4 0 .684.3.619.726-.065.417-.436.706-.836.706zm3.889-.528c-.421 0-.675.187-.744.632l-.112.736h.944v1.017h-1.099l-.608 3.993h-1.221l.608-3.993h-.718l.155-1.017h.718l.131-.86c.17-1.11.931-1.525 1.946-1.525.215 0 .376.022.497.041l.009 1.017a2.97 2.97 0 0 0-.505-.041zm.013 6.378l.763-5.009h1.232l-.763 5.009h-1.232zm1.516-5.85c-.411 0-.695-.291-.632-.706a.86.86 0 0 1 .849-.726c.4 0 .684.3.619.726-.062.417-.434.706-.836.706zm5.252 3.588h-3.182c-.086.975.361 1.399 1.12 1.399.636 0 1.195-.239 1.8-.621l-.004.975c-.591.374-1.273.613-2.075.613-1.385 0-2.301-.799-2.025-2.602.247-1.627 1.363-2.613 2.655-2.613 1.488 0 1.982 1.13 1.767 2.55l-.056.3zM24.66 3.451c-.492 0-.953.393-1.17 1.214h1.97c.039-.778-.204-1.214-.8-1.214zm5.522 4.254l.002-.695c-.413.426-.953.799-1.64.799-1.036 0-1.75-.778-1.492-2.468.284-1.866 1.428-2.696 2.576-2.696.473 0 .839.083 1.12.187l.368-2.416 1.264-.2-1.14 7.488h-1.058zm.413-3.847a1.79 1.79 0 0 0-.931-.217c-.647 0-1.2.528-1.367 1.629-.148.975.194 1.432.737 1.432.452 0 .841-.269 1.234-.684l.327-2.159zm4.419 3.892a4.32 4.32 0 0 1-1.501-.252l.811-5.316.955-.15-.35 2.3c.279-.252.666-.502 1.142-.502.793 0 1.324.597 1.131 1.87-.213 1.397-1.066 2.048-2.187 2.048zm.688-3.087c-.312 0-.623.213-.899.495l-.262 1.72a1.35 1.35 0 0 0 .576.102c.591 0 1.004-.361 1.135-1.225.11-.73-.131-1.093-.55-1.093zm3.695 3.246c-.477.934-.948 1.225-1.671 1.225a1.11 1.11 0 0 1-.335-.039l-.006-.778a1.65 1.65 0 0 0 .428.054c.273 0 .51-.126.666-.4l.125-.252-.791-3.738.991-.126.46 2.702 1.241-2.648h.925l-2.032 3.999z"/></svg>