<svg xmlns="http://www.w3.org/2000/svg" width="69" height="81" fill="none"><g clip-path="url(#A)"><path d="M10.694 5.118c-5.358 0-9.714 4.484-9.714 10v50c0 5.516 4.356 10 9.714 10h48.571c5.358 0 9.714-4.484 9.714-10v-50c0-5.516-4.356-10-9.714-10H10.694zM55.79 18.243L40.034 36.774l18.533 25.219H44.057L32.703 46.696 19.695 61.993h-7.21l16.848-19.828-17.774-23.922h14.875L36.71 32.227l11.87-13.984h7.21zm-5.737 39.313L24.264 22.446h-4.296l26.077 35.109h3.992.015z" fill="#fff"/></g><defs><clipPath id="A"><path fill="#fff" transform="translate(.98 .118)" d="M0 0h68v80H0z"/></clipPath></defs></svg>