<svg xmlns="http://www.w3.org/2000/svg" width="59" height="57" fill="none"><path d="M11.168 36.003L.922 16.13c-1.72-5.517 15.75-12.329 19.776-9.283l10.326 20.461c-.769 1.702-3.476 6.225-8.155 10.696s-9.102.141-11.702-2.001z" fill="#ffb7ab"/><path d="M28.459 21.53l4.803 7.177-20.654 9.091-4.803-7.655 20.654-8.612z" fill="#fff"/><path d="M32.898 26.011c9.29 7.655 18.137-2.737 24.862 7.464L19.18 55.349 9.362 34.939l23.536-8.928z" fill="#e84f35"/><path d="M40.189 35.474c.605-2.679 1.47-5.253 2.584-7.76.25-.564 1.076-.076.826.479a40.81 40.81 0 0 0-2.488 7.54c-.134.593-1.057.335-.922-.258zm-3.132-1.052l2.815-6.411c.25-.565 1.076-.077.826.479l-2.815 6.41c-.24.574-1.066.086-.826-.479z" fill="#dbecf5"/><rect x="21" width="35.396" height="24.097" rx="2.902" fill="#fff"/><path d="M42.698 4.855h-8.002v14.38h8.002V4.855z" fill="#ff5f00"/><path d="M35.204 12.049a9.13 9.13 0 0 1 3.493-7.189c-1.349-1.06-2.969-1.72-4.675-1.903s-3.429.118-4.972.868-2.844 1.919-3.755 3.373-1.393 3.136-1.393 4.851.483 3.397 1.393 4.852 2.211 2.623 3.755 3.373 3.266 1.051 4.972.868 3.326-.842 4.675-1.902a9.13 9.13 0 0 1-3.493-7.191h0z" fill="#eb001b"/><path d="M52.823 17.719h-.058v-.292l-.104.254H52.6l-.104-.254v.29h-.058v-.356h.089l.104.254.104-.254h.089v.358zm.254-.363h.046l.041.015.035.023a.14.14 0 0 1 .026.03l-.048.033c-.01-.016-.024-.029-.041-.038s-.038-.014-.058-.013-.034-.003-.051 0a.12.12 0 0 0-.041.025c-.011.012-.02.026-.025.041-.013.034-.013.07 0 .104.006.015.014.029.025.041s.026.02.041.025a.11.11 0 0 0 .051 0c.017-.003.039-.004.056-.013s.032-.022.043-.038l.046.033c-.008.011-.017.022-.028.03l-.033.023-.041.015h-.046c-.026.001-.052-.004-.076-.013s-.042-.022-.058-.038-.03-.037-.038-.058c-.018-.047-.018-.1 0-.147.009-.022.022-.042.038-.058s.036-.029.058-.038c.027 0 .054.005.079.015h0zm.417-5.307a9.15 9.15 0 0 1-1.393 4.852c-.91 1.455-2.212 2.624-3.755 3.373s-3.267 1.05-4.973.867-3.326-.843-4.675-1.903c1.089-.856 1.969-1.948 2.574-3.193s.92-2.612.92-3.997-.315-2.752-.92-3.997-1.486-2.337-2.574-3.193a9.14 9.14 0 0 1 4.676-1.903c1.706-.183 3.43.118 4.973.868a9.15 9.15 0 0 1 3.755 3.374 9.14 9.14 0 0 1 1.392 4.853z" fill="#f79e1b"/><path fill="#fff" d="M19 54.579l38.33-21.408.899 1.61-38.33 21.408z"/></svg>