<svg xmlns="http://www.w3.org/2000/svg" width="40" height="40" fill="none"><path d="M8.86 29.767c-.011-.019-.013-.044-.021-.065-.627-1.842-1.86-3.424-2.9-5.051l-3.656-6.003c-.134-.452-.278-1.076.066-1.535.091-.112.204-.207.331-.28a1.16 1.16 0 0 1 .407-.141c.426-.07.847.003 1.186.207.406.227.784.491 1.129.791.434.356 2.797 2.735 3.491 3.61.656.832 2.297 2.553 1.958.291-.231-1.539-2.06-6.885-2.409-8.184-.232-.838-.594-1.827-.07-2.721.069-.168.179-.323.32-.451a1.32 1.32 0 0 1 .49-.279 1.19 1.19 0 0 1 .544-.041c.176.029.337.1.468.207.546.336.922.9 1.237 1.42.639 1.059 2.062 5.627 2.527 6.665.344.773 1.581 2.446 1.58.477-.003-2.809-.738-5.394-.99-8.134-.104-1.131-.144-2.382.36-3.513.349-.782 1.275-1.826 2.202-1.381.353.202.627.5.792.861a6.6 6.6 0 0 1 .511 1.294c.947 3.209 1.174 6.711 1.635 10.06.164 1.188 1.064 1.37 1.354.04.654-3.015.104-5.982 1.071-9.024.241-.761.761-1.827 1.745-1.814.699.013 1.123.498 1.33 1.064.224.605.264 1.292.348 1.936.093.892.128 1.795.106 2.704l-.046 3.562c-.041 1.242-.168 2.604.105 3.794.093.398.234.993.438 1.631.24-.039.473-.134.678-.275.923-.642 1.537-1.618 2.341-2.379.961-.909 2.121-2.053 3.307-2.675.59-.311 1.294-.456 1.862-.239 1.029.393 1.137 1.629.779 2.594-.062.167-.135.332-.205.49-1.503 1.589-2.794 3.425-4.051 5.16-.972 1.344-1.249 3.108-1.93 4.562-1.705 3.647-6.522 6.506-10.43 7.168-1.809.309-3.611.14-5.203-.488-2.736-1.075-3.924-3.35-4.782-5.918z" fill="#ffa727"/><g style="mix-blend-mode:multiply" opacity=".51"><path d="M15.545 31.64c.044-.891.031-1.839.466-2.71s1.256-1.581 2.012-2.206c1.793-1.479 3.875-2.46 5.968-3.413l1.608-.748c.505-.219.978-.51 1.4-.864.027-.016.104-.015.078.024-.457.678-1.372 1.059-2.081 1.428l-3.167 1.53c-1.004.505-1.968 1.093-2.878 1.756-.83.615-1.715 1.342-2.296 2.183-.308.455-.514.957-.601 1.469l-.219 1.556c-.03.133-.296.128-.292-.007z" fill="#f2c8aa"/></g><g style="mix-blend-mode:multiply" opacity=".51"><path d="M9.634 23.608c.646-.682 1.488-1.215 2.307-1.672a27.24 27.24 0 0 1 2.693-1.282c1.749-.74 3.523-1.417 5.369-1.718 1.022-.192 2.049-.204 3.029-.038l-2.703.276c-.868.145-1.731.357-2.579.635l-2.573.962-2.626 1.164a13.11 13.11 0 0 0-2.644 1.785c-.113.105-.412.035-.273-.113z" fill="#f2c8aa"/></g><path d="M17.038 24.192a.67.67 0 0 1-.027.206.91.91 0 0 1-.162.299.99.99 0 0 1-.267.229.67.67 0 0 1-.302.093c-.106.002-.205-.034-.277-.1-.041-.037-.075-.081-.099-.131a.34.34 0 0 1-.02-.064l-.021-.035a.45.45 0 0 1-.018-.346c.045-.136.128-.261.241-.361s.242-.163.383-.186a.59.59 0 0 1 .362.064.39.39 0 0 1 .18.186.47.47 0 0 1 .027.146zm3.372-1.125a.61.61 0 0 1-.025.205.88.88 0 0 1-.17.307.96.96 0 0 1-.27.227c-.093.055-.197.087-.3.092a.39.39 0 0 1-.277-.1c-.043-.036-.077-.08-.101-.13-.009-.021-.015-.042-.018-.065-.009-.011-.015-.022-.021-.035a.45.45 0 0 1-.02-.345c.045-.136.13-.262.243-.362a.76.76 0 0 1 .383-.186c.129-.017.256.006.36.065a.37.37 0 0 1 .18.186.41.41 0 0 1 .036.141zm1.391.881c-.113-.075-.265.118-.223.216.172.333.289.694.347 1.072.035.358-.008.728-.126 1.087-.229.661-.671 1.26-1.259 1.707-1.193.932-3.01 1.457-4.282.802a1.92 1.92 0 0 1-.875-.874 3.6 3.6 0 0 1-.281-1.435c-.001-.073-.097-.019-.105.035-.134.898.036 1.853.778 2.381a2.92 2.92 0 0 0 1.15.448c.421.07.864.056 1.301-.041 1.581-.311 3.176-1.321 3.803-2.817a2.99 2.99 0 0 0 .238-1.321c-.014-.428-.094-1.001-.465-1.258z" fill="#231f20"/></svg>