<svg xmlns="http://www.w3.org/2000/svg" width="59" height="58" fill="none"><path d="M12.938 42.928c-.016-.028-.02-.063-.031-.094-.916-2.656-2.717-4.938-4.236-7.284-1.852-2.854-3.627-5.765-5.34-8.657-.195-.651-.406-1.552.096-2.215.133-.161.298-.299.483-.403a1.71 1.71 0 0 1 .594-.204c.623-.101 1.237.005 1.732.299.593.327 1.145.709 1.649 1.14.634.513 4.085 3.944 5.098 5.205.959 1.2 3.355 3.681 2.86.42-.338-2.219-3.008-9.929-3.519-11.803-.339-1.209-.868-2.635-.102-3.924a1.79 1.79 0 0 1 .468-.65c.207-.184.453-.322.716-.402s.536-.101.794-.059a1.45 1.45 0 0 1 .683.299c.797.485 1.347 1.297 1.806 2.048.933 1.527 3.011 8.115 3.69 9.612.502 1.115 2.309 3.528 2.307.688-.004-4.051-1.078-7.78-1.447-11.73-.151-1.632-.211-3.436.526-5.066.51-1.128 1.862-2.634 3.215-1.992.515.291.915.721 1.156 1.242a9.44 9.44 0 0 1 .746 1.865c1.384 4.627 1.715 9.679 2.388 14.508.239 1.713 1.554 1.976 1.977.058.955-4.347.151-8.626 1.564-13.014.352-1.097 1.111-2.635 2.548-2.616 1.02.019 1.639.719 1.943 1.534.327.873.386 1.864.508 2.792.135 1.286.187 2.588.155 3.899l-.067 5.137c-.06 1.791-.246 3.756.153 5.472.136.575.342 1.431.639 2.353a2.48 2.48 0 0 0 .99-.396c1.347-.926 2.245-2.334 3.419-3.431 1.403-1.311 3.098-2.96 4.829-3.858.862-.448 1.89-.658 2.719-.345 1.502.566 1.661 2.349 1.138 3.741-.091.241-.198.479-.299.707-2.194 2.291-4.08 4.939-5.916 7.442-1.419 1.938-1.823 4.482-2.818 6.58-2.49 5.26-9.524 9.383-15.232 10.338-2.642.445-5.274.202-7.598-.703-3.995-1.55-5.73-4.831-6.983-8.535z" fill="#ffa727"/><g style="mix-blend-mode:multiply" opacity=".51"><path d="M22.701 45.63c.065-1.285.045-2.652.68-3.907s1.834-2.281 2.939-3.181c2.618-2.134 5.658-3.548 8.715-4.922l2.348-1.079c.737-.315 1.428-.736 2.045-1.246.04-.024.152-.022.114.035-.667.978-2.004 1.527-3.039 2.059-1.523.781-3.102 1.432-4.625 2.207-1.466.729-2.873 1.577-4.202 2.533-1.213.887-2.505 1.936-3.353 3.149-.45.656-.75 1.38-.878 2.119-.139.747-.16 1.494-.319 2.244-.044.192-.433.185-.426-.01z" fill="#f2c8aa"/></g><g style="mix-blend-mode:multiply" opacity=".51"><path d="M14.069 34.046c.944-.983 2.173-1.751 3.37-2.411a39.98 39.98 0 0 1 3.932-1.849c2.553-1.067 5.145-2.044 7.84-2.477 1.492-.276 2.993-.295 4.424-.055l-3.947.399a25.88 25.88 0 0 0-3.767.915l-3.757 1.387-3.835 1.679a19.17 19.17 0 0 0-3.862 2.574c-.165.151-.602.051-.398-.163z" fill="#f2c8aa"/></g><path d="M24.881 34.888c.003.099-.01.199-.039.298-.049.154-.129.3-.237.431a1.44 1.44 0 0 1-.39.329.98.98 0 0 1-.442.134.59.59 0 0 1-.405-.144.61.61 0 0 1-.144-.189.41.41 0 0 1-.029-.092l-.03-.051c-.075-.15-.085-.328-.026-.499.065-.196.188-.376.352-.52a1.13 1.13 0 0 1 .559-.269.88.88 0 0 1 .529.092.57.57 0 0 1 .263.268.67.67 0 0 1 .039.211zm4.924-1.623a.87.87 0 0 1-.037.296 1.25 1.25 0 0 1-.248.443 1.44 1.44 0 0 1-.395.327c-.136.079-.287.125-.439.132s-.3-.048-.405-.144a.57.57 0 0 1-.147-.187.43.43 0 0 1-.027-.093c-.013-.015-.023-.032-.03-.051a.64.64 0 0 1-.029-.497c.066-.196.189-.378.355-.522a1.13 1.13 0 0 1 .559-.269.86.86 0 0 1 .526.094.53.53 0 0 1 .263.268.59.59 0 0 1 .052.203zm2.032 1.272c-.165-.108-.387.17-.325.311.251.48.422 1.001.506 1.546.052.516-.011 1.05-.184 1.568-.334.953-.98 1.817-1.839 2.461-1.743 1.344-4.396 2.102-6.253 1.156a2.79 2.79 0 0 1-1.278-1.26c-.276-.644-.416-1.346-.411-2.07-.001-.105-.142-.028-.153.05-.196 1.294.053 2.672 1.136 3.433.493.325 1.064.545 1.679.646a5.06 5.06 0 0 0 1.9-.059c2.309-.448 4.638-1.905 5.554-4.063.264-.62.382-1.271.347-1.905-.021-.617-.137-1.444-.68-1.814z" fill="#231f20"/><g clip-path="url(#A)"><path d="M38.281 53.204c4.021 0 7.281-3.18 7.281-7.102S42.302 39 38.281 39 31 42.18 31 46.102s3.26 7.102 7.281 7.102z" fill="#eb001b"/><path d="M47.076 53.204c4.021 0 7.281-3.18 7.281-7.102S51.097 39 47.076 39s-7.281 3.18-7.281 7.102 3.26 7.102 7.281 7.102z" fill="#f79e1b"/><path d="M42.677 40.43c1.753 1.296 2.882 3.349 2.882 5.657s-1.129 4.365-2.882 5.661c-1.753-1.296-2.882-3.349-2.882-5.661s1.133-4.362 2.882-5.657z" fill="#ff5f00"/></g><defs><clipPath id="A"><path fill="#fff" transform="translate(31 39)" d="M0 0h23.357v14.204H0z"/></clipPath></defs></svg>