<svg xmlns="http://www.w3.org/2000/svg" width="200" height="25" fill="#e84f35"><path d="M10.221 3.324l.026 1.569c0 4.734-.291 9.495-.291 14.255 0 .878.026 1.755.053 2.633.026.452.159.904.159 1.356 0 .532-.185.931-.766.931-.502 0-1.48-.399-1.48-1.011 0-1.862.132-3.723.132-5.558 0-1.17-.159-2.34-.159-3.511 0-2.926.159-5.851.159-8.777 0-.266 0-.479-.317-.479-.608 0-1.295.106-1.902.186 0 .319-.026.638-.026.957 0 2.66.211 5.319.211 7.979s-.053 9.043-3.726 9.043c-.661 0-2.193-.372-2.193-1.223 0-.452.898-1.41 1.348-1.41.238 0 .423.133.661.133.211 0 .449-.08.634-.186.951-.505 1.004-2.048 1.083-3.005.159-1.543.211-3.112.211-4.681 0-1.144-.026-2.314-.053-3.457-.026-1.729-.211-3.484-.211-5.186 0-.239-.026-.585.238-.718.211-.293.581-.319.898-.319 1.163 0 2.299.027 3.461-.133.423-.053.819-.213 1.242-.213.476 0 .581.399.608.824zm7.15 17.846h-.026a.77.77 0 0 0 .423.106c.185 0 .344-.106.555-.106.238 0 .238.638.238.798v.133c0 .904-.449.931-1.189.984l-3.039.133c-.74 0-.661-1.41-.661-1.915h.238c.502 0 1.215.16 1.215-.612 0-.638-.053-1.303-.106-1.942-.37-4.947-.74-9.894-.793-14.84-.37.053-.713.186-1.057.186-.449 0-.476-.691-.476-1.011 0-.745.079-1.197.951-1.197.396 0 .793.08 1.189.08a21.69 21.69 0 0 0 2.642-.16c.053.559.159 1.09.159 1.649 0 .239-.026.479-.344.479-.291 0-.581-.106-.872-.106-.343 0-.396.372-.396.665 0 .931.211 1.862.317 2.793.264 2.739.291 5.479.344 8.218.026 1.037-.026 5.053.687 5.665zm9.051-19.494c.37.186.555.718.555 1.09 0 .532-.37 1.011-.925 1.011-.423 0-.819-.319-1.11-.319-.264 0-.264.346-.264.532 0 .213.026.399.053.585.264 2.34.211 4.681.317 7.048l.449 7.341c.053.452.053.878.053 1.33l.026 1.41c.053.399.211.798.211 1.223 0 .745-.74.798-1.321.798-.978 0-.925-.426-.925-1.277l.079-1.888v-.08l-.687-15.771c0-.638.079-1.303-.766-1.303-.476 0-.925.293-1.4.293-.634 0-.687-.559-.687-1.037 0-.319.053-1.383.502-1.383.238 0 .476.133.74.186.74.106 1.559.16 2.325.16.608 0 1.215-.106 1.823-.106.317 0 .661.027.951.16zm6.109 20.133c.978-.106 1.955-.16 2.933-.16.317 0 1.4 0 1.559.266.079.106.238 1.064.238 1.197 0 .293-.423.399-.634.399l-3.038.106c-.476.053-.925.186-1.4.186-.132 0-.238 0-.343-.08l-.053-1.223c0-.718.106-.612.74-.692zm1.585-20.426c4.175 1.17 4.254 6.622 4.254 10.16 0 3.005-.106 8.564-4.28 8.564-4.148 0-3.858-7.154-3.858-9.947 0-.904-.053-1.809-.053-2.713 0-2.021.079-6.223 2.906-6.223a3.45 3.45 0 0 1 1.031.16zm1.929 13.324c.185-.851.185-1.729.185-2.58 0-1.649.026-8.697-2.352-8.697-.291 0-.555.133-.793.293-.845.585-.766 2.021-.819 2.926-.106 1.809-.291 3.59-.291 5.399 0 1.463.106 5.931 2.219 5.931 1.717 0 1.612-2.074 1.85-3.271zm23.324 5.719c.159.053.159.346.159.479 0 .505-.159.984-.159 1.489 0 .532.132 1.037.132 1.569 0 .558-.132.904-.74.904-.317 0-.634-.106-.951-.106-.106 0-.185.027-.291.053-.026 0-.026-.106-.026-.106-.026-.133-.026-.266-.026-.399-.053-.585-.053-1.17-.053-1.782l-4.492-.213c-.898 0-1.77.133-2.642.133h-.132l-.053 1.729c0 .133 0 .293-.053.426 0 .027 0 .053-.026.053l-1.242.053c-.608 0-.713-.346-.713-.904 0-.505.106-1.037.106-1.569 0-.479-.185-1.383.185-1.755.158-.399.634-.346 1.004-.346l.502.027c.343-1.33.423-2.766.581-4.122L52.156 1.33C52.314.106 52.42.16 53.715.16c.423 0 .634.133.793.532.423.904.317 2.5.502 3.537l.713 3.457c.819 3.165 1.136 6.383 1.717 9.574l.661 3.085c.423-.027.872-.053 1.268.08zm-6.685-.053l3.382.053c-.185-1.782-.66-3.564-1.004-5.346l-.845-5-.529-2.846c-.079-.479.026-1.09-.159-1.543 0-.053 0-.133-.053-.133-.079 0-.132.505-.132.559l-.211 1.941c-.476 4.069-1.03 8.165-1.347 12.234.317.027.608.08.898.08zm11.094 1.436c.978-.106 1.955-.16 2.933-.16.317 0 1.4 0 1.559.266.079.106.238 1.064.238 1.197 0 .293-.423.399-.634.399l-3.039.106c-.476.053-.925.186-1.4.186-.132 0-.238 0-.344-.08l-.053-1.223c0-.718.106-.612.74-.692zm1.585-20.426c4.175 1.17 4.254 6.622 4.254 10.16 0 3.005-.106 8.564-4.28 8.564-4.148 0-3.858-7.154-3.858-9.947 0-.904-.053-1.809-.053-2.713 0-2.021.079-6.223 2.906-6.223a3.45 3.45 0 0 1 1.031.16zm1.929 13.324c.185-.851.185-1.729.185-2.58 0-1.649.026-8.697-2.352-8.697-.291 0-.555.133-.793.293-.845.585-.766 2.021-.819 2.926-.106 1.809-.291 3.59-.291 5.399 0 1.463.106 5.931 2.22 5.931 1.717 0 1.612-2.074 1.849-3.271zm11.594-1.223c.978 1.144 1.268 4.574 1.268 6.117 0 .931-.159 1.862-.74 2.58-.581.745-1.823 1.755-2.748 1.915-.238.319-3.276.559-3.726.559-.555 0-.713-.027-.713-.638 0-.505.132-1.011.132-1.516l.053-12.899-.053-6.09c0-.559-.106-1.144-.106-1.702 0-.798.106-1.436 1.057-1.436.819 0 1.612.239 2.431.239.793 0 1.4-.16 1.4.904 0 .479 0 1.888-.687 1.888-.66 0-1.295-.479-1.982-.479-.528 0-.476.372-.476.798 0 1.064.211 2.128.211 3.191l.079 4.867c.026.239.026.745.344.745.343 0 .66-.16 1.004-.16.238 0 .423.053.634.08 1.031.186 1.876.16 2.616 1.037zm-.634 5.186v-.479c0-3.883-1.982-3.298-2.167-3.59-.396-.027-.766-.266-1.189-.266-.661 0-.713.691-.713 1.197 0 .851.238 1.675.264 2.527l.053 2.207c0 .479-.132.984-.132 1.463 0 .293.079.612.423.612.291 0 .819-.186 1.11-.266 1.665-.585 2.246-1.676 2.352-3.404zm-1.268-4.442h-.026.026zm1.85 4.096v-.319.319zM84.117.053L84.778 0c2.589 0 3.805 2.5 3.805 4.814 0 1.888-.846 4.122-2.722 4.92-.713.293-1.691-.053-1.691 1.037l.159 6.543-.053 4.601.053 2.42c0 .319 0 .665-.396.665-.264 0-.529-.106-.793-.16-.581-.16-.793-.08-.793-.851 0-.479.079-.957.079-1.436 0-6.25-.291-12.527-.291-18.777 0-.904-.132-1.782-.132-2.686 0-.931.581-1.011 1.374-1.011.238 0 .476.027.74-.027zm.925 8.059c1.215-.505 1.612-2.021 1.612-3.218 0-1.543-.555-3.191-2.352-3.191-.291 0-.37.957-.37 1.197 0 .691.132 1.356.132 2.021 0 .612-.291 3.324.476 3.324.159 0 .344-.08.502-.133zm12.141-6.516c.528-.213 1.11-.239 1.665-.346.106.213.106.452.106.691l-.132 3.378-.053 5.133-.026 11.17c0 .372.053.718.053 1.064 0 .559-.581.612-1.004.612-.581 0-1.189.133-1.189-.665 0-.718.106-1.436.132-2.154l.159-8.936c.079-.691.238-1.41.238-2.128 0-.133-.053-.293-.079-.426-.291.399-.396 1.33-.502 1.809l-.819 2.766-2.193 8.138c-.132.558-.132 1.729-.687 2.048h-.185c-.238 0-1.532-.08-1.638-.213s-.106-.319-.106-.452l.079-1.675-.159-5.665V4.628c0-.612-.132-1.223-.132-1.835 0-1.25.449-1.037 1.427-1.17.185-.027.37-.08.555-.08.238 0 .37.293.37.505 0 .452-.158.878-.158 1.303l-.159 14.521c.291-.346.449-1.569.581-2.048a38.79 38.79 0 0 1 .713-2.5c.634-1.755 1.083-3.59 1.612-5.372.476-1.676 1.083-3.351 1.163-5.106v-.133c0-.426-.079-.878.37-1.117zm11.904-.665l-1.03 5.691c-.476 2.128-1.163 4.362-1.163 6.543 0 1.782.634 3.511.978 5.239l.898 5.691c-.555-.053-1.109.027-1.638-.133-.713-.186-.581-.16-.66-.878l-.503-3.138-.528-2.952c0-.239 0-1.543-.264-1.543-.291 0-.238 1.676-.291 1.968l-.555 2.872c-.185 1.064-.105 2.287-.555 3.245-.211.452-.079.319-.581.426-.502.133-1.03.08-1.559.133.291-3.777 2.008-7.447 2.008-11.25 0-1.968-.74-3.83-1.03-5.745-.264-1.915-.581-3.83-.899-5.745.397 0 .793-.053 1.189-.053.767 0 .846-.08 1.057.612.317.957.265 1.941.423 2.926.264 1.702.344 3.457.846 5.106.053.16.105.319.132.505.053-.08.158-.479.158-.505.212-.638.159-1.33.291-1.968.343-1.862.74-3.697.978-5.559.052-.426-.027-1.117.449-1.356.29-.133.74-.133 1.057-.133h.792zm18.553 1.17c.106.665.132 1.33.132 2.021l-.211 5.239.211 4.601-.158 4.415.105 3.298c0 .505.106 1.649-.66 1.649-.212 0-.423-.08-.634-.133-.529-.133-.714-.053-.714-.771 0-.559.106-1.117.106-1.702l-.079-3.138-.159-11.569.026-2.074c0-.426 0-.638-.475-.638-1.348 0-2.695.399-4.069.372v.984V6.33l.158 10.186.106 4.707c.079.558.211 1.09.211 1.649 0 .133-.079.559-.026.665-.106.319-1.374.372-1.665.372h-.079c-.608-.133-.423-.106-.502-.665a8.68 8.68 0 0 1-.079-1.17l.106-2.766-.106-17.074c0-.665.502-1.117 1.162-1.117l5.628.213c.819 0 1.506-.319 1.665.771zm10.616 1.223l.026 1.569c0 4.734-.29 9.495-.29 14.255a85.64 85.64 0 0 0 .053 2.633c.026.452.158.904.158 1.356 0 .532-.185.931-.766.931-.502 0-1.48-.399-1.48-1.011 0-1.862.132-3.723.132-5.558 0-1.17-.158-2.34-.158-3.511 0-2.926.158-5.851.158-8.777 0-.266 0-.479-.317-.479-.607 0-1.294.106-1.902.186 0 .319-.027.638-.027.957 0 2.66.212 5.319.212 7.979s-.053 9.043-3.726 9.043c-.66 0-2.193-.372-2.193-1.223 0-.452.899-1.41 1.348-1.41.238 0 .423.133.66.133.212 0 .45-.08.634-.186.952-.505 1.005-2.048 1.084-3.005.158-1.543.211-3.112.211-4.681a147.64 147.64 0 0 0-.053-3.457c-.026-1.729-.211-3.484-.211-5.186 0-.239-.026-.585.238-.718.211-.293.581-.319.898-.319 1.163 0 2.299.027 3.461-.133.423-.053.82-.213 1.242-.213.476 0 .582.399.608.824zm7.758.373c1.004 6.037 1.506 14.229 2.351 19.628.027.266-.079.558-.238.771-.554-.133-1.083.027-1.638.027-.872 0-.687-1.516-.687-2.128 0-.559-.317-2.261-.317-2.819 0-1.064-.053-.904-1.321-.904-.158 0-.343.027-.475.08-.608.266-.582.931-.608 1.489-.053 1.091-.185 2.181-.185 3.298 0 .399.053 1.09-.502 1.09-.185 0-.37-.053-.529-.08-.555-.08-1.136.08-1.136-.692 0-.399.185-.718.264-1.09.318-1.356.397-2.793.529-4.202l1.77-14.362c.053-.505.053-2.58.397-2.819.264-.186 1.03-.213 1.373-.213.661 0 .952.16.952.878 0 .691-.106 1.356 0 2.048zm-.661 12.42v-.186c0-2.42-.634-4.734-.872-7.181v-.027c-.74 3.777-.898 4.628-.898 7.021 0 .718.581.851 1.189.851.185 0 .396-.053.555-.16 0-.106 0-.213.026-.319zm11.039-14.441c.37.186.555.718.555 1.09 0 .532-.37 1.011-.925 1.011-.423 0-.819-.319-1.11-.319-.264 0-.264.346-.264.532 0 .213.027.399.053.585.264 2.34.211 4.681.317 7.048l.449 7.341c.053.452.053.878.053 1.33l.027 1.41c.052.399.211.798.211 1.223 0 .745-.74.798-1.321.798-.978 0-.925-.426-.925-1.277l.079-1.888v-.08l-.687-15.771c0-.638.08-1.303-.766-1.303-.475 0-.925.293-1.4.293-.634 0-.687-.559-.687-1.037 0-.319.053-1.383.502-1.383.238 0 .475.133.74.186.739.106 1.559.16 2.325.16.607 0 1.215-.106 1.823-.106.317 0 .66.027.951.16zm6.426-1.091l.396.027c.793 0 1.401-.16 1.401.904 0 .479 0 1.888-.687 1.888s-1.295-.479-1.982-.479c-.396 0-.476.186-.476.532 0 1.17.212 2.314.212 3.457l.079 4.867c0 .239.026.745.344.745.343 0 .66-.16 1.004-.16.951 0 .766.133.845.904.027.293.132.559.132.851 0 .266-.238.479-.502.479-.423 0-.792-.266-1.215-.266-.661 0-.714.691-.714 1.197 0 .851.238 1.675.265 2.527l.052 2.181c0 .505-.132 1.011-.132 1.489 0 .293.08.612.423.612.529 0 1.004-.319 1.559-.319.291 0 .343.133.343.425l.027 1.356c0 .479-.396.479-.74.532-1.004.16-2.034.319-3.039.319-.554 0-.713-.027-.713-.638 0-.505.159-1.011.159-1.516l.026-12.899-.053-6.09c0-.585-.105-1.144-.105-1.702 0-.771.105-1.436 1.056-1.436.687 0 1.348.16 2.035.213zm15.515 11.755c2.167 1.303 2.59 4.016 2.59 6.33 0 .718-.08 3.697-.238 4.202-.132.372-.951.665-1.295.665s-.475-.319-.528-.612c-.159-1.037-.053-2.181-.08-3.245-.026-1.489-.158-3.085-.554-4.521-.37-1.383-1.797-1.596-3.039-1.622l-.026 1.809.317 6.995c0 .585-.74 1.037-1.295 1.037-.581 0-.661-.532-.661-1.011 0-.399.08-.824.08-1.223l-.291-7.58c-1.03.106-1.929.399-2.272 1.489-.423 1.436-.608 3.005-.661 4.495-.053 1.064.027 2.207-.185 3.245-.053.293-.185.585-.528.585s-1.163-.319-1.269-.692c-.132-.426-.132-2.553-.132-3.112 0-2.394.132-5.293 2.141-6.915-2.167-1.277-2.59-3.989-2.59-6.33 0-.691.053-3.697.212-4.176.132-.372.951-.665 1.321-.665.317 0 .449.319.502.585.185 1.037.079 2.207.079 3.271.026 1.489.158 3.059.555 4.495.37 1.277 1.559 1.543 2.721 1.622l-.422-8.777c0-.372.052-.824.554-.824.925 0 1.533.08 1.533 1.117 0 .585-.106 1.17-.106 1.782l.027.293.317 6.41c1.109-.053 2.193-.319 2.563-1.516.449-1.41.607-3.005.687-4.495.026-1.037-.027-2.207.158-3.245.053-.293.212-.585.529-.585.37 0 1.189.346 1.294.718.132.426.106 2.527.106 3.112 0 2.367-.106 5.266-2.114 6.888zm9.313 8.83h-.027a.77.77 0 0 0 .423.106c.185 0 .344-.106.555-.106.238 0 .238.638.238.798v.133c0 .904-.449.931-1.189.984l-3.039.133c-.74 0-.66-1.41-.66-1.915h.237c.502 0 1.216.16 1.216-.612 0-.638-.053-1.303-.106-1.942-.37-4.947-.74-9.894-.793-14.84-.369.053-.713.186-1.056.186-.45 0-.476-.691-.476-1.011 0-.745.079-1.197.951-1.197.396 0 .793.08 1.189.08a21.68 21.68 0 0 0 2.642-.16c.053.559.159 1.09.159 1.649 0 .239-.026.479-.344.479-.29 0-.581-.106-.871-.106-.344 0-.397.372-.397.665 0 .931.212 1.862.317 2.793.264 2.739.291 5.479.344 8.218.026 1.037-.027 5.053.687 5.665zm8.205-10.026c2.114.745 3.25 2.819 3.25 4.867 0 3.192-1.321 6.117-5.549 6.117-.66 0-.634-.532-.66-1.064l-.291-3.404-.634-8.989-.396-4.149c0-1.09.026-1.622 1.242-1.622 2.853 0 5.628 1.303 5.628 4.521 0 1.676-.846 3.351-2.59 3.723zm.476 7.926c1.136-1.782 1.479-5.824-1.691-6.782h-.08c-.026.053-.026.106-.026.186 0 2.154 0 7.048.502 7.048.423 0 1.136-.106 1.295-.452zm-2.748-13.564c0 1.17.317 4.149.581 4.149 1.136 0 2.352-.745 2.325-2.713-.026-1.223-1.347-2.42-2.536-2.42-.423 0-.37.691-.37.984z"/></svg>