<svg xmlns="http://www.w3.org/2000/svg" width="47" height="29" fill="none" xmlns:v="https://vecta.io/nano"><path d="M29.598 3.238H17.071v22.513h12.527V3.238z" fill="#ff5f00"/><path d="M17.866 14.501c-.002-2.168.49-4.308 1.437-6.258s2.326-3.659 4.031-4.997c-2.112-1.66-4.649-2.692-7.32-2.979s-5.369.184-7.785 1.358S3.776 4.63 2.351 6.907.17 11.817.17 14.503s.756 5.318 2.181 7.596 3.462 4.107 5.878 5.281 5.114 1.645 7.785 1.358 5.207-1.319 7.32-2.979c-1.706-1.339-3.085-3.048-4.032-4.999s-1.439-4.091-1.436-6.26z" fill="#eb001b"/><path d="M45.45 23.377h-.091v-.457l-.163.398H45.1l-.163-.398v.453h-.091v-.557h.139l.163.398.163-.398h.139v.561zm.398-.569h.072l.064.024.056.036c.015.014.029.03.04.048l-.075.052c-.016-.025-.038-.045-.064-.06s-.06-.021-.091-.02c-.026-.005-.053-.005-.08 0s-.045.022-.064.04-.031.04-.04.064a.23.23 0 0 0 0 .163c.009.024.023.045.04.064a.19.19 0 0 0 .064.04.21.21 0 0 0 .08 0 .18.18 0 0 0 .088-.02c.027-.014.05-.034.068-.059l.072.052a.24.24 0 0 1-.044.048l-.052.036-.064.024h-.072a.32.32 0 0 1-.119-.02c-.038-.014-.065-.034-.091-.06s-.046-.057-.06-.091c-.029-.074-.029-.156 0-.231a.27.27 0 0 1 .06-.091c.026-.026.057-.046.091-.06.042-.001.084.008.123.024zm.652-8.307a14.32 14.32 0 0 1-2.181 7.596c-1.425 2.277-3.463 4.107-5.879 5.281a14.32 14.32 0 0 1-7.785 1.357c-2.671-.287-5.208-1.32-7.32-2.98a14.31 14.31 0 0 0 4.03-4.999c.947-1.95 1.44-4.09 1.44-6.258s-.492-4.308-1.44-6.258a14.33 14.33 0 0 0-4.03-4.999C25.447 1.58 27.984.548 30.656.261s5.37.184 7.786 1.358 4.454 3.005 5.879 5.283 2.18 4.911 2.18 7.597z" fill="#f79e1b"/></svg>