<svg xmlns="http://www.w3.org/2000/svg" width="50" height="40" fill="none"><path d="M7.109 39.893v-2.618c0-.988-.659-1.653-1.718-1.662-.302-.019-.603.04-.873.171s-.498.328-.661.572c-.148-.237-.361-.431-.615-.562s-.54-.194-.828-.182a1.5 1.5 0 0 0-.725.149c-.224.109-.414.272-.552.473v-.524h-.95v4.182h.96v-2.316c0-.726.42-1.11 1.069-1.11s.95.393.95 1.102v2.325h.96v-2.316c0-.726.438-1.11 1.069-1.11s.96.393.96 1.102v2.325h.956zm14.198-4.179h-1.552v-1.267h-.96v1.267h-.886v.831h.886v1.904c0 .971.392 1.548 1.516 1.548a2.31 2.31 0 0 0 1.188-.323l-.265-.779c-.255.145-.544.226-.841.236-.474 0-.631-.279-.631-.698v-1.889h1.552l-.007-.831zm8.105-.105c-.232-.006-.461.047-.664.155s-.371.266-.487.458v-.508h-.941v4.179h.95V37.55c0-.698.31-1.075.932-1.075a1.61 1.61 0 0 1 .595.105l.292-.857a2.11 2.11 0 0 0-.677-.113zm-12.253.436a3.38 3.38 0 0 0-1.782-.436c-1.106 0-1.824.508-1.824 1.337 0 .682.531 1.102 1.507 1.232l.447.061c.52.07.768.201.768.436 0 .323-.347.508-.996.508a2.4 2.4 0 0 1-1.459-.436l-.429.707a3.25 3.25 0 0 0 1.892.543c1.26 0 1.992-.569 1.992-1.363 0-.735-.576-1.119-1.525-1.25l-.447-.061c-.411-.052-.741-.131-.741-.41 0-.305.31-.489.832-.489a2.91 2.91 0 0 1 1.361.358l.405-.737zm25.455-.436c-.232-.006-.461.047-.664.155s-.371.266-.488.458v-.508h-.941v4.179h.95V37.55c0-.698.31-1.075.932-1.075a1.61 1.61 0 0 1 .595.105l.292-.857a2.11 2.11 0 0 0-.677-.113zm-12.242 2.194c0 1.267.923 2.194 2.329 2.194.57.027 1.131-.151 1.571-.499l-.45-.733c-.329.239-.729.371-1.142.375-.759 0-1.315-.534-1.315-1.337a1.27 1.27 0 0 1 1.315-1.337c.413.004.813.136 1.142.375l.456-.735c-.44-.348-1-.526-1.571-.499-1.406 0-2.33.927-2.33 2.194l-.005.002zm8.898 0v-2.095h-.95v.508c-.162-.2-.372-.36-.612-.467a1.72 1.72 0 0 0-.767-.146 2.14 2.14 0 0 0-2.189 2.194c0 1.276.96 2.194 2.189 2.194a1.72 1.72 0 0 0 .767-.146c.24-.107.45-.267.612-.467v.506h.95v-2.082zm-3.535 0c0-.735.502-1.337 1.324-1.337.786 0 1.315.578 1.315 1.337s-.529 1.337-1.315 1.337c-.823 0-1.324-.604-1.324-1.337zm-11.467-2.194c-1.277 0-2.174.892-2.174 2.194 0 1.328.932 2.194 2.238 2.194a2.73 2.73 0 0 0 1.791-.587l-.465-.674a2.14 2.14 0 0 1-1.277.436c-.613 0-1.169-.27-1.306-1.023h3.249l.018-.349c0-1.302-.85-2.194-2.074-2.194v.002zm-.018.813c.613 0 1.005.367 1.106 1.014h-2.266c.1-.604.483-1.014 1.16-1.014zm23.839 1.381v-3.769h-.95v2.185c-.162-.2-.372-.36-.612-.467a1.72 1.72 0 0 0-.767-.146 2.14 2.14 0 0 0-2.189 2.194c0 1.276.96 2.194 2.189 2.194a1.72 1.72 0 0 0 .767-.145c.24-.106.45-.266.612-.466v.506h.95v-2.088zm-3.535 0c0-.735.502-1.337 1.324-1.337.786 0 1.315.578 1.315 1.337s-.529 1.337-1.315 1.337c-.823 0-1.324-.604-1.324-1.337zm-32.088 0v-2.095h-.95v.508c-.162-.2-.372-.36-.612-.467a1.72 1.72 0 0 0-.767-.146 2.14 2.14 0 0 0-2.189 2.194c0 1.276.96 2.194 2.189 2.194a1.72 1.72 0 0 0 .767-.146c.24-.107.45-.267.612-.467v.506h.95v-2.082zm-3.535 0c0-.735.502-1.337 1.324-1.337.786 0 1.315.578 1.315 1.337s-.529 1.337-1.315 1.337c-.825 0-1.326-.602-1.326-1.337h.002zm40.266 2.095h-.051v-.199l-.075.175h-.044l-.064-.175v.199h-.042v-.244h.064l.075.175.075-.175h.064l-.002.244zm.171-.244c.019 0 .037.003.055.009s.03.014.042.024.021.024.027.038.01.033.009.051-.003.034-.009.051-.015.028-.027.038-.026.019-.042.024-.037.003-.055 0h-.102v-.244l.102.009zm-.06.037v.175h.06c.013.002.026.002.038 0s.02-.009.027-.017.013-.017.017-.027.002-.023 0-.035.002-.023 0-.035-.009-.019-.016-.026-.017-.014-.027-.017-.026-.002-.038 0l-.06-.017z" fill="#231f20"/><path d="M29.614 3.058H17.087v22.513h12.527V3.058z" fill="#ff5f00"/><path d="M17.881 14.321c-.002-2.168.49-4.308 1.437-6.258s2.326-3.659 4.031-4.997C21.238 1.406 18.701.374 16.03.087s-5.369.184-7.785 1.358S3.792 4.45 2.367 6.727.186 11.636.186 14.323s.756 5.318 2.181 7.595 3.462 4.107 5.878 5.282 5.114 1.645 7.785 1.358 5.208-1.319 7.32-2.979c-1.706-1.339-3.085-3.048-4.032-4.999s-1.438-4.091-1.436-6.26z" fill="#eb001b"/><path d="M45.465 23.197h-.091v-.457l-.163.398h-.095l-.163-.398v.453h-.092v-.557H45l.163.398.163-.398h.139v.561zm.398-.569h.072l.064.024.056.036c.016.014.029.03.04.048l-.076.052c-.016-.025-.038-.045-.064-.06s-.06-.021-.092-.02c-.026-.005-.053-.005-.08 0s-.045.022-.064.04a.19.19 0 0 0-.04.064.23.23 0 0 0 0 .163.19.19 0 0 0 .04.064c.018.017.04.031.064.04s.053.005.08 0c.031.001.061-.006.088-.02s.05-.034.067-.059l.072.052c-.012.018-.027.034-.044.048l-.052.036-.064.024h-.072a.32.32 0 0 1-.119-.02c-.038-.014-.065-.034-.091-.06s-.046-.057-.06-.091a.32.32 0 0 1 0-.231.27.27 0 0 1 .06-.091c.026-.026.057-.046.091-.06a.29.29 0 0 1 .123.024zm.653-8.307a14.32 14.32 0 0 1-8.061 12.877c-2.416 1.174-5.114 1.644-7.786 1.357a14.32 14.32 0 0 1-7.32-2.98 14.31 14.31 0 0 0 4.03-4.999c.947-1.95 1.44-4.09 1.44-6.258s-.492-4.308-1.44-6.258a14.33 14.33 0 0 0-4.03-4.999C25.461 1.4 27.998.368 30.67.081s5.37.184 7.786 1.358 4.454 3.005 5.879 5.283 2.181 4.911 2.18 7.597z" fill="#f79e1b"/></svg>