<svg xmlns="http://www.w3.org/2000/svg" width="56" height="56" fill="none"><g filter="url(#A)"><path d="M48.136 15H8.17A3.17 3.17 0 0 0 5 18.17v25.903a3.17 3.17 0 0 0 3.17 3.17h39.966a3.17 3.17 0 0 0 3.17-3.17V18.17a3.17 3.17 0 0 0-3.17-3.17z" fill="#e84f35"/></g><path d="M19.5 15v-3.5a3 3 0 0 1 3-3h11a3 3 0 0 1 3 3V16" stroke="#ff6a51" stroke-width="3"/><path d="M23.412 30.314L7.795 25.383A4 4 0 0 1 5 21.569V19a4 4 0 0 1 4-4h38a4 4 0 0 1 4 4v2.728a4 4 0 0 1-2.596 3.745l-12.725 4.772a4 4 0 0 1-1.404.255h-9.658a4 4 0 0 1-1.205-.186z" fill="#ff6a51"/><path fill="#d9d9d9" d="M26 27h6v6h-6z"/><defs><filter id="A" x="2.045" y="13.523" width="53.693" height="39.63" filterUnits="userSpaceOnUse" color-interpolation-filters="sRGB"><feFlood flood-opacity="0" result="A"/><feColorMatrix in="SourceAlpha" values="0 0 0 0 0 0 0 0 0 0 0 0 0 0 0 0 0 0 127 0"/><feOffset dx="0.738683" dy="2.21605"/><feGaussianBlur stdDeviation="1.847"/><feColorMatrix values="0 0 0 0 0.933333 0 0 0 0 0.0855556 0 0 0 0 0.0855556 0 0 0 0.2 0"/><feBlend in2="A"/><feBlend in="SourceGraphic"/></filter></defs></svg>