<svg xmlns="http://www.w3.org/2000/svg" width="56" height="57" fill="none"><style><![CDATA[.B{color-interpolation-filters:sRGB}.C{flood-opacity:0}]]></style><g filter="url(#A)"><path d="M6.905 6.159C10.076.985 20.76 9.61 24.984 13.587a3.04 3.04 0 0 1 .915 1.79l.134.937c.203 1.42-.583 2.777-1.977 3.112-4.57 1.098-12.852 2.107-15.894 2.436C4.475 22.26 5.427 8.57 6.905 6.159z" fill="#ffd2d2" fill-opacity=".7"/></g><g filter="url(#B)"><path d="M47.335 4.938C41.965.926 34.723 10.241 31.071 14.02c-.197.204-.363.433-.49.686-.695 1.382-.063 3.037 1.414 3.499 4.594 1.437 12.311 3.349 15.34 3.656 4.715.477 2.474-15.075 0-16.923z" fill="#ffd2d2" fill-opacity=".7"/></g><path d="M28.253 13.068c-1.474 0-3.379.465-3.686.698 0 .698-.921 5.583 3.686 5.583 3.686 0 3.993-3.722 3.686-5.583-.614-.233-2.212-.698-3.686-.698z" fill="#ffd1d1" fill-opacity=".8"/><g filter="url(#C)"><path d="M43.652 18.372H12.864a3.17 3.17 0 0 0-3.17 3.17v25.903a3.17 3.17 0 0 0 3.17 3.17h30.788a3.17 3.17 0 0 0 3.17-3.17V21.543a3.17 3.17 0 0 0-3.17-3.17z" fill="#e84f35"/></g><path fill="#fee" d="M23.372 18.372h9.771v32.243h-9.771z"/><defs><filter id="A" x=".57" y="-.474" width="30.52" height="27.369" filterUnits="userSpaceOnUse" class="B"><feFlood class="C"/><feGaussianBlur stdDeviation="2.512"/><feComposite in2="SourceAlpha" operator="in"/><feBlend in="SourceGraphic"/></filter><filter id="B" x="25.273" y="-1.07" width="29.845" height="27.967" filterUnits="userSpaceOnUse" class="B"><feFlood class="C"/><feGaussianBlur stdDeviation="2.512"/><feComposite in2="SourceAlpha" operator="in"/><feBlend in="SourceGraphic"/></filter><filter id="C" x="6.739" y="16.895" width="44.516" height="39.63" filterUnits="userSpaceOnUse" class="B"><feFlood result="A" class="C"/><feColorMatrix in="SourceAlpha" values="0 0 0 0 0 0 0 0 0 0 0 0 0 0 0 0 0 0 127 0"/><feOffset dx="0.738683" dy="2.21605"/><feGaussianBlur stdDeviation="1.847"/><feColorMatrix values="0 0 0 0 0.933333 0 0 0 0 0.0855556 0 0 0 0 0.0855556 0 0 0 0.2 0"/><feBlend in2="A"/><feBlend in="SourceGraphic"/></filter></defs></svg>