<svg xmlns="http://www.w3.org/2000/svg" width="51" height="48" fill="none"><path d="M28.614 0c-5.935 0-8.831 3.314-9.538 4.971C17.915 3.314 14.383 0 9.538 0 5.45 0 0 3.107 0 11.806 0 19.107 14.837 32 19.076 32S38 18.952 38 11.806C38 7.301 36.032 0 28.614 0z" fill="#e84f35"/><g filter="url(#A)"><path d="M41.532 18.934c-4.722-2.264-8.152-.937-9.277.01-.361-1.659-2.047-5.439-5.901-7.287-3.252-1.559-8.644-1.358-11.597 5.026-2.479 5.358 4.949 20.481 8.322 22.098s19.487-2.358 21.913-7.602c1.529-3.306 2.442-9.415-3.461-12.245z" fill="#f0f5fa" fill-opacity=".5" shape-rendering="crispEdges"/></g><defs><filter id="A" x="10.26" y="6.845" width="39.876" height="40.3" filterUnits="userSpaceOnUse" color-interpolation-filters="sRGB"><feFlood flood-opacity="0"/><feGaussianBlur stdDeviation="2"/><feComposite in2="SourceAlpha" operator="in" result="B"/><feColorMatrix in="SourceAlpha" values="0 0 0 0 0 0 0 0 0 0 0 0 0 0 0 0 0 0 127 0" result="C"/><feOffset dy="4"/><feGaussianBlur stdDeviation="2"/><feComposite in2="C" operator="out"/><feColorMatrix values="0 0 0 0 0.941667 0 0 0 0 0.470833 0 0 0 0 0.470833 0 0 0 0.25 0"/><feBlend in2="B"/><feBlend in="SourceGraphic"/></filter></defs></svg>