<svg xmlns="http://www.w3.org/2000/svg" width="42" height="42" fill="none"><path fill="#fff" d="M0 0h42v42H0z"/><g fill="#e84f35"><path d="M20.546 17.136c-7.955 0-9.773 5.682-10.455 7.955-.944 2.5-4.091 2.045-4.773 5.909-1.03 5.836 5.909 10 8.864 10s3.636-1.364 6.364-1.364S23.046 41 27.137 41c6.591 0 9.091-6.591 8.864-10s-3.182-3.182-4.546-5.455-2.5-8.409-10.909-8.409z"/><ellipse cx="5.773" cy="16" rx="4.773" ry="5.909"/><ellipse cx="15.318" cy="6.909" rx="4.773" ry="5.909"/><ellipse cx="27.137" cy="6.909" rx="4.773" ry="5.909"/><ellipse cx="36.682" cy="16.455" rx="4.773" ry="5.909"/></g></svg>