<svg xmlns="http://www.w3.org/2000/svg" width="56" height="56" fill="none"><style><![CDATA[.B{fill-opacity:.8}.C{fill:#ffd578}.D{color-interpolation-filters:sRGB}.E{flood-opacity:0}]]></style><circle cx="27.769" cy="10.121" r="6.48" fill="#ffce94" stroke="#ffc076" stroke-width="1.282"/><path d="M25.742 7.731c.316-1.531 3.787-1.837 3.787.616 0 1.84-3.787 1.533-3.787 3.679 0 2.453 3.472 2.146 3.787 1.227m-4.103-3.066h4.103" stroke="#ffa727" stroke-width="1.191" stroke-linecap="round"/><g filter="url(#A)" class="B"><path d="M38 22.075H18v-3.75h20v3.75z" fill="#c8d9ef"/></g><g filter="url(#B)" class="B"><path d="M39.592 14.576H16.406c-.501 0-.907.406-.907.907v1.936c0 .501.406.907.907.907h23.186c.501 0 .907-.406.907-.907v-1.936c0-.501-.406-.907-.907-.907z" fill="#dee7f3"/></g><rect x="23" y="45.826" width="13.75" height="3.75" rx=".907" class="C"/><rect x="25.502" y="40.826" width="13.75" height="3.75" rx=".907" fill="#ffa727"/><rect x="24.25" y="35.826" width="13.75" height="3.75" rx=".907" class="C"/><rect x="15.499" y="48.674" width="13.75" height="3.532" rx=".907" transform="rotate(290.882 15.499 48.674)" fill="#ffa727"/><rect x="22.079" y="25.826" width="13.75" height="3.75" rx=".907" transform="rotate(24.889 22.079 25.826)" class="C"/><g filter="url(#C)" class="B"><path d="M40.278 22.075H15.722A2.72 2.72 0 0 0 13 24.797v24.557a2.72 2.72 0 0 0 2.722 2.722h24.557A2.72 2.72 0 0 0 43 49.354V24.797a2.72 2.72 0 0 0-2.722-2.722z" fill="url(#D)"/></g><defs><filter id="A" x="12.873" y="13.198" width="30.254" height="14.004" filterUnits="userSpaceOnUse" class="D"><feFlood class="E"/><feGaussianBlur stdDeviation="2.563"/><feComposite in2="SourceAlpha" operator="in"/><feBlend in="SourceGraphic"/></filter><filter id="B" x="10.372" y="9.449" width="35.254" height="14.004" filterUnits="userSpaceOnUse" class="D"><feFlood class="E"/><feGaussianBlur stdDeviation="2.563"/><feComposite in2="SourceAlpha" operator="in"/><feBlend in="SourceGraphic"/></filter><filter id="C" x="10.437" y="19.512" width="35.127" height="35.127" filterUnits="userSpaceOnUse" class="D"><feFlood class="E"/><feGaussianBlur stdDeviation="1.282"/><feComposite in2="SourceAlpha" operator="in"/><feBlend in="SourceGraphic"/></filter><linearGradient id="D" x1="43.227" y1="48.834" x2="19.615" y2="20.13" gradientUnits="userSpaceOnUse"><stop stop-color="#dee7f3"/><stop offset=".62" stop-color="#dee7f3" stop-opacity=".49"/><stop offset=".964" stop-color="#dee7f3"/></linearGradient></defs></svg>