<svg xmlns="http://www.w3.org/2000/svg" xmlns:xlink="http://www.w3.org/1999/xlink" width="54" height="46" fill="none"><g filter="url(#A)"><path d="M38.564 2.194L6.085 14.761c-1.698.656-2.545 2.57-1.889 4.267l7.031 18.175c.657 1.701 2.571 2.541 4.269 1.885l32.479-12.567a3.3 3.3 0 0 0 1.889-4.267L42.833 4.079a3.3 3.3 0 0 0-4.269-1.885z" fill="#e84f35"/></g><g filter="url(#B)"><path d="M43.648 10.721L9.351 16.764c-1.793.315-2.994 2.028-2.679 3.821l3.38 19.192a3.3 3.3 0 0 0 3.823 2.676l34.297-6.043a3.3 3.3 0 0 0 2.679-3.821l-3.38-19.192a3.3 3.3 0 0 0-3.823-2.676z" fill="#f9b6b6" fill-opacity=".5"/></g><g fill-rule="evenodd" fill="#ffe7e6"><use xlink:href="#C"/><use xlink:href="#C" x="8.107" y="-1.425"/><use xlink:href="#C" x="16.216" y="-2.851"/><path d="M43.809 26.622a.55.55 0 0 1-.444.634l-4.682.826a.55.55 0 0 1-.634-.444.55.55 0 0 1 .444-.634l4.682-.826a.55.55 0 0 1 .634.444z"/></g><g opacity=".81" fill="#ffd578"><path d="M15.389 23.837c.619-.105 1.207.251 1.398.81l2.651-.447-.261-1.52c-.12-.702-.808-1.17-1.528-1.047l-5.363.904c-.723.124-1.212.79-1.091 1.491l.086.505 4.109-.696z"/><path d="M16.848 25.018c.006.592-.427 1.121-1.046 1.227l-4.106.699-.065-.369 4.109-.699c.474-.08.796-.52.715-.982s-.535-.771-1.005-.689l-4.106.699.41 2.369c.12.702.808 1.17 1.528 1.047l5.359-.906c.724-.121 1.212-.79 1.092-1.491l-.233-1.347-2.651.444z"/></g><defs><filter id="A" x=".5" y="1.276" width="53.061" height="44.288" filterUnits="userSpaceOnUse" color-interpolation-filters="sRGB"><feFlood flood-opacity="0" result="A"/><feColorMatrix in="SourceAlpha" values="0 0 0 0 0 0 0 0 0 0 0 0 0 0 0 0 0 0 127 0"/><feOffset dy="2.77921"/><feGaussianBlur stdDeviation="1.737"/><feColorMatrix values="0 0 0 0 0.933333 0 0 0 0 0.0855556 0 0 0 0 0.0855556 0 0 0 0.16 0"/><feBlend in2="A"/><feBlend in="SourceGraphic"/></filter><filter id="B" x="2.622" y="6.671" width="52.281" height="39.832" filterUnits="userSpaceOnUse" color-interpolation-filters="sRGB"><feFlood flood-opacity="0"/><feGaussianBlur stdDeviation="2"/><feComposite in2="SourceAlpha" operator="in"/><feBlend in="SourceGraphic"/></filter><path id="C" d="M19.483 30.906a.55.55 0 0 1-.444.634l-4.683.826a.55.55 0 0 1-.634-.444.55.55 0 0 1 .444-.634l4.683-.826a.55.55 0 0 1 .634.444z"/></defs></svg>