<svg width="25" height="25" viewBox="0 0 25 25" fill="none" xmlns="http://www.w3.org/2000/svg">
<g clip-path="url(#clip0_4_7586)">
<path d="M6.36356 2.25439L6.36356 6.18623" stroke="#3B566E" stroke-miterlimit="10" stroke-linecap="round" stroke-linejoin="round"/>
<path d="M18.6363 2.25439L18.6363 6.18614" stroke="#3B566E" stroke-miterlimit="10" stroke-linecap="round" stroke-linejoin="round"/>
<path d="M20.1 21.3306H4.9C3.85 21.3306 3 20.4806 3 19.4306V6.23057C3 5.18057 3.85 4.33057 4.9 4.33057H20.1C21.15 4.33057 22 5.18057 22 6.23057V19.4306C22 20.4806 21.15 21.3306 20.1 21.3306Z" stroke="#3B566E" stroke-miterlimit="10" stroke-linecap="round" stroke-linejoin="round"/>
<path d="M6.5 14.3306C6.77614 14.3306 7 14.1067 7 13.8306C7 13.5544 6.77614 13.3306 6.5 13.3306C6.22386 13.3306 6 13.5544 6 13.8306C6 14.1067 6.22386 14.3306 6.5 14.3306Z" fill="#3B566E" stroke="#3B566E" stroke-miterlimit="10" stroke-linecap="round" stroke-linejoin="round"/>
<path d="M10.5 14.3306C10.7761 14.3306 11 14.1067 11 13.8306C11 13.5544 10.7761 13.3306 10.5 13.3306C10.2239 13.3306 10 13.5544 10 13.8306C10 14.1067 10.2239 14.3306 10.5 14.3306Z" fill="#3B566E" stroke="#3B566E" stroke-miterlimit="10" stroke-linecap="round" stroke-linejoin="round"/>
<path d="M14.5 14.3306C14.7761 14.3306 15 14.1067 15 13.8306C15 13.5544 14.7761 13.3306 14.5 13.3306C14.2239 13.3306 14 13.5544 14 13.8306C14 14.1067 14.2239 14.3306 14.5 14.3306Z" fill="#3B566E" stroke="#3B566E" stroke-miterlimit="10" stroke-linecap="round" stroke-linejoin="round"/>
<path d="M18.5 14.3306C18.7761 14.3306 19 14.1067 19 13.8306C19 13.5544 18.7761 13.3306 18.5 13.3306C18.2239 13.3306 18 13.5544 18 13.8306C18 14.1067 18.2239 14.3306 18.5 14.3306Z" fill="#3B566E" stroke="#3B566E" stroke-miterlimit="10" stroke-linecap="round" stroke-linejoin="round"/>
<path d="M6.5 10.3306C6.77614 10.3306 7 10.1067 7 9.83057C7 9.55442 6.77614 9.33057 6.5 9.33057C6.22386 9.33057 6 9.55442 6 9.83057C6 10.1067 6.22386 10.3306 6.5 10.3306Z" fill="#3B566E" stroke="#3B566E" stroke-miterlimit="10" stroke-linecap="round" stroke-linejoin="round"/>
<path d="M10.5 10.3306C10.7761 10.3306 11 10.1067 11 9.83057C11 9.55442 10.7761 9.33057 10.5 9.33057C10.2239 9.33057 10 9.55442 10 9.83057C10 10.1067 10.2239 10.3306 10.5 10.3306Z" fill="#3B566E" stroke="#3B566E" stroke-miterlimit="10" stroke-linecap="round" stroke-linejoin="round"/>
<path d="M14.5 10.3306C14.7761 10.3306 15 10.1067 15 9.83057C15 9.55442 14.7761 9.33057 14.5 9.33057C14.2239 9.33057 14 9.55442 14 9.83057C14 10.1067 14.2239 10.3306 14.5 10.3306Z" fill="#3B566E" stroke="#3B566E" stroke-miterlimit="10" stroke-linecap="round" stroke-linejoin="round"/>
<path d="M18.5 10.3306C18.7761 10.3306 19 10.1067 19 9.83057C19 9.55442 18.7761 9.33057 18.5 9.33057C18.2239 9.33057 18 9.55442 18 9.83057C18 10.1067 18.2239 10.3306 18.5 10.3306Z" fill="#3B566E" stroke="#3B566E" stroke-miterlimit="10" stroke-linecap="round" stroke-linejoin="round"/>
<path d="M6.5 18.3306C6.77614 18.3306 7 18.1067 7 17.8306C7 17.5544 6.77614 17.3306 6.5 17.3306C6.22386 17.3306 6 17.5544 6 17.8306C6 18.1067 6.22386 18.3306 6.5 18.3306Z" fill="#3B566E" stroke="#3B566E" stroke-miterlimit="10" stroke-linecap="round" stroke-linejoin="round"/>
<path d="M10.5 18.3306C10.7761 18.3306 11 18.1067 11 17.8306C11 17.5544 10.7761 17.3306 10.5 17.3306C10.2239 17.3306 10 17.5544 10 17.8306C10 18.1067 10.2239 18.3306 10.5 18.3306Z" fill="#3B566E" stroke="#3B566E" stroke-miterlimit="10" stroke-linecap="round" stroke-linejoin="round"/>
<path d="M14.5 18.3306C14.7761 18.3306 15 18.1067 15 17.8306C15 17.5544 14.7761 17.3306 14.5 17.3306C14.2239 17.3306 14 17.5544 14 17.8306C14 18.1067 14.2239 18.3306 14.5 18.3306Z" fill="#3B566E" stroke="#3B566E" stroke-miterlimit="10" stroke-linecap="round" stroke-linejoin="round"/>
</g>
<defs>
<clipPath id="clip0_4_7586">
<rect width="24" height="24" fill="white" transform="translate(0.5 0.830566)"/>
</clipPath>
</defs>
</svg>
