<svg width="25" height="25" viewBox="0 0 25 25" fill="none" xmlns="http://www.w3.org/2000/svg">
<path d="M21.6741 17.7865L4.74206 19.2805C3.64406 19.3765 2.67206 18.5665 2.57606 17.4625L1.78406 8.49853C1.68806 7.40053 2.49806 6.42853 3.60206 6.33253L20.5341 4.83853C21.6381 4.74253 22.6041 5.55253 22.7001 6.65653L23.4921 15.6205C23.5881 16.7185 22.7781 17.6905 21.6741 17.7865Z" stroke="#3B566E" stroke-miterlimit="10" stroke-linecap="round" stroke-linejoin="round"/>
<path d="M22.9701 17.2885L22.6641 20.4805C22.5621 21.5785 21.5841 22.3885 20.4861 22.2805L3.56006 20.6665C2.46206 20.5645 1.65206 19.5865 1.76006 18.4885L2.25807 13.2925" stroke="#3B566E" stroke-miterlimit="10" stroke-linecap="round" stroke-linejoin="round"/>
<path d="M5.21001 13.2146L7.34601 13.0286" stroke="#3B566E" stroke-miterlimit="10" stroke-linecap="round" stroke-linejoin="round"/>
<path d="M9.48194 12.8366L11.6119 12.6506" stroke="#3B566E" stroke-miterlimit="10" stroke-linecap="round" stroke-linejoin="round"/>
<path d="M13.7481 12.4646L15.8841 12.2726" stroke="#3B566E" stroke-miterlimit="10" stroke-linecap="round" stroke-linejoin="round"/>
<path d="M18.0201 12.0866L20.1501 11.9006" stroke="#3B566E" stroke-miterlimit="10" stroke-linecap="round" stroke-linejoin="round"/>
<path d="M17.426 15.1527L20.414 14.8887" stroke="#3B566E" stroke-miterlimit="10" stroke-linecap="round" stroke-linejoin="round"/>
<path d="M5.47407 16.2027L6.47006 16.1187" stroke="#3B566E" stroke-miterlimit="10" stroke-linecap="round" stroke-linejoin="round"/>
<path d="M7.63388 8.82849L5.49788 9.02049" stroke="#3B566E" stroke-miterlimit="10" stroke-linecap="round" stroke-linejoin="round"/>
</svg>
