<svg width="119" height="33" viewBox="0 0 119 33" fill="none" xmlns="http://www.w3.org/2000/svg">
<g clip-path="url(#clip0_4_7566)">
<path d="M30.5 16.8247H0.5V28.8309H30.5V16.8247Z" fill="#F6D728"/>
<path d="M30.5 4.83057H0.5V16.8368H30.5V4.83057Z" fill="#75AAFA"/>
</g>
<g clip-path="url(#clip1_4_7566)">
<path d="M62.8246 16.8306L52.8246 16.8306" stroke="#172A3A" stroke-miterlimit="10" stroke-linecap="round" stroke-linejoin="round"/>
<path d="M57.8246 21.8306L63.8246 16.8306L57.8246 11.8306" stroke="#172A3A" stroke-miterlimit="10" stroke-linecap="round" stroke-linejoin="round"/>
</g>
<path opacity="0.5" d="M102.5 30.164C109.864 30.164 115.833 24.1944 115.833 16.8306C115.833 9.46685 109.864 3.49731 102.5 3.49731C95.1362 3.49731 89.1667 9.46685 89.1667 16.8306C89.1667 24.1944 95.1362 30.164 102.5 30.164Z" fill="#5F95E6"/>
<path d="M97.9329 13.4264C97.6836 10.6478 95.5409 8.05842 94.4996 7.11175L93.9263 6.61842C96.3257 4.59812 99.3629 3.49237 102.5 3.49709C105.452 3.49709 108.18 4.45709 110.388 6.07842C110.7 7.02642 110.105 9.00642 109.481 9.95309C109.254 10.2958 108.742 10.7224 108.18 11.1264C106.913 12.0371 105.313 12.4864 104.5 14.1638C104.296 14.586 104.257 15.0687 104.389 15.5184C104.469 15.8118 104.522 16.1304 104.522 16.4411C104.525 17.4478 103.506 18.1744 102.5 18.1638C99.8809 18.1358 98.1663 16.0251 97.9329 13.4264ZM104.416 25.1984C105.733 22.7157 110.124 22.7157 110.124 22.7157C114.7 22.6678 115.318 19.8891 115.732 18.4851C115.367 21.3933 114.055 24.1005 111.998 26.1885C109.941 28.2764 107.254 29.629 104.352 30.0371C103.921 29.1304 103.412 27.0904 104.416 25.1984Z" fill="#09BC8A"/>
<defs>
<clipPath id="clip0_4_7566">
<rect x="0.5" y="4.83057" width="30" height="24" rx="2.625" fill="white"/>
</clipPath>
<clipPath id="clip1_4_7566">
<rect width="24" height="24" fill="white" transform="translate(46.5 4.83057)"/>
</clipPath>
</defs>
</svg>
