<svg width="119" height="33" viewBox="0 0 119 33" fill="none" xmlns="http://www.w3.org/2000/svg">
<path opacity="0.5" d="M16.5 30.164C23.8638 30.164 29.8334 24.1944 29.8334 16.8306C29.8334 9.46685 23.8638 3.49731 16.5 3.49731C9.13622 3.49731 3.16669 9.46685 3.16669 16.8306C3.16669 24.1944 9.13622 30.164 16.5 30.164Z" fill="#5F95E6"/>
<path d="M11.9329 13.4264C11.6836 10.6478 9.54094 8.05842 8.4996 7.11175L7.92627 6.61842C10.3257 4.59812 13.3629 3.49237 16.4996 3.49709C19.4516 3.49709 22.1796 4.45709 24.3876 6.07842C24.6996 7.02642 24.1049 9.00642 23.4809 9.95309C23.2543 10.2958 22.7423 10.7224 22.1796 11.1264C20.9129 12.0371 19.3129 12.4864 18.4996 14.1638C18.2963 14.586 18.2569 15.0687 18.3889 15.5184C18.4689 15.8118 18.5223 16.1304 18.5223 16.4411C18.5249 17.4478 17.5063 18.1744 16.4996 18.1638C13.8809 18.1358 12.1663 16.0251 11.9329 13.4264ZM18.4156 25.1984C19.7329 22.7157 24.1236 22.7158 24.1236 22.7158C28.6996 22.6678 29.3183 19.8891 29.7316 18.4851C29.3671 21.3933 28.055 24.1005 25.9981 26.1885C23.9412 28.2764 21.254 29.629 18.3516 30.0371C17.9209 29.1304 17.4116 27.0904 18.4156 25.1984Z" fill="#09BC8A"/>
<g clip-path="url(#clip0_4_7605)">
<path d="M64.8247 16.8306L54.8247 16.8306" stroke="#172A3A" stroke-miterlimit="10" stroke-linecap="round" stroke-linejoin="round"/>
<path d="M59.8247 21.8306L65.8247 16.8306L59.8247 11.8306" stroke="#172A3A" stroke-miterlimit="10" stroke-linecap="round" stroke-linejoin="round"/>
</g>
<g clip-path="url(#clip1_4_7605)">
<path d="M118.5 16.8247H88.5V28.8309H118.5V16.8247Z" fill="#F6D728"/>
<path d="M118.5 4.83057H88.5V16.8368H118.5V4.83057Z" fill="#75AAFA"/>
</g>
<defs>
<clipPath id="clip0_4_7605">
<rect width="24" height="24" fill="white" transform="translate(48.5 4.83057)"/>
</clipPath>
<clipPath id="clip1_4_7605">
<rect x="88.5" y="4.83057" width="30" height="24" rx="2.625" fill="white"/>
</clipPath>
</defs>
</svg>
