<svg width="24" height="24" viewBox="0 0 24 24" fill="none" xmlns="http://www.w3.org/2000/svg">
<g id="men" clip-path="url(#clip0_387_1588)">
<g id="profile user male man 2">
<path id="Vector" d="M2.5 21.5V21.13C2.5 19.53 3.45 18.09 4.92 17.46L9.5 15.5V14.5L8.88 13.88C8 13 7.5 11.8 7.5 10.54V5.97997C7.5 4.91997 8.06 3.92997 8.98 3.39997C9.78 2.92997 11 3.49997 10.5 2.49997C9.98 1.45997 14.22 2.92997 15.02 3.39997C15.94 3.93997 16.5 4.91997 16.5 5.97997V10.55C16.5 11.8 16 13 15.12 13.89L14.5 14.5V15.5L19.08 17.46C20.55 18.09 21.5 19.53 21.5 21.13V21.5" stroke="#172A3A" stroke-miterlimit="10" stroke-linecap="round" stroke-linejoin="round"/>
</g>
</g>
<defs>
<clipPath id="clip0_387_1588">
<rect width="24" height="24" fill="white"/>
</clipPath>
</defs>
</svg>
