<svg xmlns="http://www.w3.org/2000/svg" width="19" height="19" fill="none"><g clip-path="url(#A)"><g clip-path="url(#B)"><path fill-rule="evenodd" d="M.5 9.55c0 4.475 3.25 8.195 7.5 8.95V12H5.75V9.5H8v-2C8 5.25 9.449 4 11.5 4c.649 0 1.35.1 1.999.199v2.3h-1.15c-1.1 0-1.35.55-1.35 1.25V9.5h2.4L13 12h-2v6.5c4.25-.755 7.5-4.475 7.5-8.95 0-4.978-4.05-9.05-9-9.05s-9 4.073-9 9.05z" fill="#1877f2"/></g></g><defs><clipPath id="A"><path fill="#fff" transform="translate(.5 .5)" d="M0 0h18v18H0z"/></clipPath><clipPath id="B"><path fill="#fff" transform="translate(.5 .5)" d="M0 0h18v18H0z"/></clipPath></defs></svg>