<svg xmlns="http://www.w3.org/2000/svg" width="19" height="19" fill="none"><g clip-path="url(#A)"><g clip-path="url(#B)"><path d="M18.08 7.787h-.705V7.75H9.5v3.5h4.945c-.721 2.038-2.66 3.5-4.945 3.5a5.25 5.25 0 0 1 0-10.5 5.22 5.22 0 0 1 3.483 1.33l2.475-2.475A8.71 8.71 0 0 0 9.5.75C4.668.75.75 4.668.75 9.5s3.918 8.75 8.75 8.75 8.75-3.918 8.75-8.75a8.81 8.81 0 0 0-.17-1.714z" fill="#ffc107"/><path d="M1.759 5.428l2.875 2.108C5.411 5.61 7.295 4.25 9.5 4.25c1.338 0 2.556.505 3.483 1.33l2.475-2.475A8.71 8.71 0 0 0 9.5.75c-3.361 0-6.275 1.897-7.741 4.677z" fill="#ff3d00"/><path d="M9.5 18.251c2.26 0 4.314-.865 5.866-2.271l-2.708-2.292A5.21 5.21 0 0 1 9.5 14.751c-2.276 0-4.208-1.451-4.936-3.476L1.71 13.473c1.448 2.834 4.389 4.778 7.79 4.778z" fill="#4caf50"/><path d="M18.08 7.786h-.705V7.75H9.5v3.5h4.945a5.27 5.27 0 0 1-1.788 2.437l.001-.001 2.708 2.292c-.192.174 2.884-2.103 2.884-6.478a8.81 8.81 0 0 0-.17-1.714z" fill="#1976d2"/></g></g><defs><clipPath id="A"><path fill="#fff" transform="translate(.5 .5)" d="M0 0h18v18H0z"/></clipPath><clipPath id="B"><path fill="#fff" transform="translate(.5 .5)" d="M0 0h18v18H0z"/></clipPath></defs></svg>