<svg xmlns="http://www.w3.org/2000/svg" width="17" height="19" fill="none"><path d="M13.876 10.041c-.009-1.557.698-2.731 2.127-3.597-.799-1.142-2.007-1.77-3.601-1.891-1.508-.119-3.159.877-3.763.877-.639 0-2.099-.836-3.248-.836C3.02 4.631.5 6.481.5 10.244c0 1.112.204 2.261.611 3.444.545 1.557 2.509 5.373 4.557 5.312 1.071-.025 1.829-.758 3.223-.758 1.353 0 2.053.758 3.248.758 2.067-.03 3.843-3.498 4.361-5.06-2.772-1.304-2.623-3.818-2.623-3.898zm-2.406-6.965C12.631 1.701 12.526.45 12.492 0c-1.026.059-2.211.696-2.886 1.48-.744.84-1.181 1.879-1.087 3.051 1.108.085 2.12-.484 2.953-1.455z" fill="#fff"/></svg>