<svg xmlns="http://www.w3.org/2000/svg" width="32" height="32" fill="none"><path d="M27.44 13.714h-.94v-.048h-10.5v4.667h6.593c-.962 2.717-3.547 4.667-6.593 4.667a7 7 0 1 1 0-14c1.784 0 3.408.673 4.644 1.773l3.3-3.3c-2.084-1.942-4.871-3.139-7.944-3.139A11.67 11.67 0 0 0 4.334 15.999a11.67 11.67 0 0 0 11.667 11.667 11.67 11.67 0 0 0 11.667-11.667c0-.782-.081-1.546-.227-2.285z" fill="#ffc107"/><path d="M5.68 10.568l3.833 2.811c1.037-2.568 3.549-4.381 6.488-4.381 1.784 0 3.408.673 4.644 1.773l3.3-3.3c-2.084-1.942-4.871-3.139-7.944-3.139-4.481 0-8.367 2.53-10.322 6.236z" fill="#ff3d00"/><path d="M16 27.665c3.014 0 5.752-1.153 7.822-3.029l-3.611-3.055C19 22.502 17.521 23 16 22.998c-3.034 0-5.611-1.935-6.582-4.635l-3.805 2.931c1.931 3.778 5.852 6.371 10.386 6.371z" fill="#4caf50"/><path d="M27.44 13.716h-.94v-.048H16v4.667h6.593c-.46 1.293-1.289 2.423-2.384 3.25l.002-.001 3.611 3.055c-.255.232 3.845-2.804 3.845-8.637 0-.782-.08-1.546-.227-2.285z" fill="#1976d2"/></svg>