<svg xmlns="http://www.w3.org/2000/svg" width="28" height="28" fill="none"><path d="M25.44 11.715h-.94v-.049h-10.5v4.667h6.593C19.632 19.05 17.047 21 14.001 21a7 7 0 1 1 0-14c1.784 0 3.408.673 4.644 1.773l3.3-3.3c-2.084-1.942-4.871-3.139-7.944-3.139A11.67 11.67 0 0 0 2.334 14a11.67 11.67 0 0 0 11.667 11.667A11.67 11.67 0 0 0 25.667 14c0-.782-.081-1.546-.227-2.285z" fill="#ffc107"/><path d="M3.68 8.569l3.833 2.811C8.55 8.813 11.062 7 14.001 7c1.784 0 3.408.673 4.644 1.773l3.3-3.3c-2.084-1.942-4.871-3.139-7.944-3.139-4.481 0-8.367 2.53-10.322 6.236z" fill="#ff3d00"/><path d="M14 25.667c3.014 0 5.752-1.153 7.822-3.029l-3.611-3.056A6.95 6.95 0 0 1 14 21c-3.034 0-5.611-1.935-6.582-4.635l-3.804 2.931C5.544 23.075 9.465 25.667 14 25.667z" fill="#4caf50"/><path d="M25.44 11.715h-.94v-.048H14v4.667h6.593c-.46 1.293-1.289 2.423-2.384 3.25l.002-.001 3.611 3.055c-.255.232 3.845-2.804 3.845-8.637 0-.782-.08-1.546-.227-2.285z" fill="#1976d2"/></svg>