<svg xmlns="http://www.w3.org/2000/svg" width="147" height="108" fill="none"><path d="M60.822 82.594L50.535 97.453l14.859 10.287 10.286-14.859-14.859-10.287z" fill="#e84f35"/><path d="M116.137 96.119l29.904-12.728s3.44 15.888-8.744 20.52c-12.176 4.632-21.16-7.792-21.16-7.792z" fill="#dee7f3"/><path d="M98.816 57.729c1.732 0 3.136-1.404 3.136-3.136s-1.404-3.136-3.136-3.136-3.136 1.404-3.136 3.136 1.404 3.136 3.136 3.136z" fill="#09bc8a"/><path d="M59.578 21.471c5.876 0 10.64-4.764 10.64-10.64S65.454.191 59.578.191s-10.64 4.764-10.64 10.64 4.764 10.64 10.64 10.64z" fill="#dee7f3"/><path d="M103.734.43l-8.882 7.523 7.522 8.882 8.883-7.523L103.734.43z" fill="#e84f35"/><path d="M60.551 60.937l5.352-9.48 6.792 7.8-12.144 1.68zM54.616 48.12c-.184 0-.36-.056-.512-.184l-8.88-7.12c-.352-.288-.416-.808-.128-1.16.28-.36.8-.416 1.16-.128l8.88 7.12c.352.288.416.808.128 1.16a.83.83 0 0 1-.648.312zm26.119-29.494c-.048 0-.096-.008-.144-.016-.448-.08-.744-.512-.664-.96l.976-5.504c.08-.448.512-.744.96-.664s.744.512.664.96l-.976 5.504c-.08.4-.424.68-.816.68z" fill="#dee7f3"/><path d="M115.065 57.022c-.336 0-.648-.2-.768-.536l-4.4-11.6a.83.83 0 0 1 .48-1.064.83.83 0 0 1 1.064.48l4.4 11.6a.83.83 0 0 1-.48 1.064c-.096.04-.2.056-.296.056z" fill="#e4e4ef"/><path d="M110.662 93.889c-.232 0-.472-.096-.632-.296-.296-.352-.248-.872.104-1.16l4.4-3.696c.352-.296.872-.248 1.16.104.296.352.248.872-.104 1.16l-4.4 3.696c-.152.128-.344.192-.528.192zM10.032 9.313a.83.83 0 0 1-.584-.24L3.576 3.201a.83.83 0 0 1 0-1.168.83.83 0 0 1 1.168 0l5.872 5.872a.83.83 0 0 1 0 1.168c-.16.16-.368.24-.584.24z" fill="#dee7f3"/><path d="M27.536 54.706c-.32 0-.624-.192-.76-.504-.176-.416.016-.904.432-1.08l5.688-2.424c.416-.176.904.016 1.08.432s-.016.904-.432 1.08l-5.688 2.424c-.104.056-.216.072-.32.072z" fill="#e4e4ef"/><path d="M38.015 13.13c-.456 0-.824-.368-.824-.824V.929c0-.456.368-.824.824-.824s.824.368.824.824v11.376a.83.83 0 0 1-.824.824z" fill="#dee7f3"/><path d="M.137 56.36c0-1.584.32-3.088.912-4.464a11.38 11.38 0 0 1 2.52-3.68l.24-.232c2.024-1.856 4.72-2.992 7.68-2.992l1.536.064.24.024c1.336.136 2.584.432 3.72.92l.28.128c1.736.8 3.176 2.056 4.16 3.848.904 1.648 1.416 3.76 1.416 6.392a11.36 11.36 0 0 1-11.352 11.368C5.217 67.728.137 63.592.137 56.36z" fill="#e4e4ef"/><g stroke="#172a3a" stroke-width="2.587"><path d="M92.479 85.57l-5.512-36.136c-1.736-7.032 3.68-8.992 5.824-3.712 1.776 4.368 5.656 12.816 6.952 15.608 2.672-5.704 2.712-29.312 3.792-35.4.856-4.784 7.024-4.592 6.936.048-.12 5.896.584 19.968.368 23.016 1.224-3.432 3.392-22.896 4.528-27.192 1.208-4.584 8.24-4.136 7.288 1.704-.896 5.472-2.6 23.432-2.992 26.608 1.552-3.056 5.024-19.128 6.344-22.584 1.408-3.688 9.032-3.848 7.328 3.176-1.736 7.136-4.976 16.216-5.96 21.872-.064.376.472.528.616.176l6.328-15.392c.768-1.984 7.152-2.608 5.968 3.792-1.584 8.552-8.232 31.696-12.16 47.368M59.489 85.57l5.512-36.136c1.736-7.032-3.68-8.992-5.824-3.712-1.776 4.368-5.656 12.816-6.952 15.608-2.672-5.704-2.712-29.312-3.792-35.4-.856-4.784-7.024-4.592-6.936.048.12 5.896-.584 19.968-.368 23.016-1.224-3.432-3.392-22.896-4.528-27.192-1.208-4.584-8.24-4.136-7.288 1.704.896 5.472 2.6 23.432 2.992 26.608-1.552-3.056-5.024-19.128-6.344-22.584-1.408-3.688-9.032-3.848-7.328 3.176 1.736 7.136 4.976 16.216 5.96 21.872.064.376-.472.528-.616.176l-6.328-15.392c-.768-1.984-7.152-2.608-5.968 3.792 1.584 8.552 8.232 31.696 12.16 47.368" stroke-miterlimit="10" stroke-linecap="round" stroke-linejoin="round"/><path d="M36.535 75.391c1.2-5.333 6-14.32 15.6-14m48.002 0c4.266.933 13.52 5.2 16.4 14.8" stroke-linecap="round"/></g></svg>