<svg xmlns="http://www.w3.org/2000/svg" width="160" height="111" fill="none"><style><![CDATA[.B{stroke-miterlimit:10}.C{stroke-linecap:round}.D{stroke-width:2.462}.E{stroke-linejoin:round}.F{stroke-width:2.705}]]></style><path d="M101.811 58.834L55.718 44.21l10.258-3.091L78.4 44.287l59.727 26.072" stroke="#172a3a" class="B C D E"/><path d="M109.604 61.969L64.146 51.608V37.257c0-2.543 2.07-4.606 4.622-4.606h36.204c2.552 0 4.622 2.063 4.622 4.606v24.711h.009z" fill="#b2c4d3"/><path d="M34.953 38.481H15.845m3.48 13.17H9.771" stroke="#dee7f3" class="B C F"/><g filter="url(#A)"><path d="M45.194 71.078l1.031 10.309 77.477-10.146" fill="#e84f35"/></g><path d="M31.516 69.383H12.409m116.663 21.586h-19.108m35.99-43.257h-19.107" stroke="#dee7f3" class="B C F"/><path d="M48.553 27.111a1.8 1.8 0 0 0 1.804-1.798 1.8 1.8 0 1 0-3.608 0 1.8 1.8 0 0 0 1.804 1.798z" fill="#dee7f3"/><path d="M70.874 13.335a1.8 1.8 0 0 0 1.804-1.798 1.804 1.804 0 1 0-3.608 0 1.8 1.8 0 0 0 1.804 1.798zm-21.848 87.01c1.257 0 2.277-1.016 2.277-2.269s-1.019-2.269-2.277-2.269-2.277 1.016-2.277 2.269 1.019 2.269 2.277 2.269zm68.224-74.561c1.257 0 2.277-1.016 2.277-2.269s-1.02-2.269-2.277-2.269-2.277 1.016-2.277 2.269 1.02 2.269 2.277 2.269zm-15.989 56.914a1.13 1.13 0 1 0 0-2.261c-.626 0-1.134.506-1.134 1.13s.508 1.13 1.134 1.13z" fill="#e84f35"/><g class="B"><path d="M70.959 42.044h31.058m-31.058 6.85h31.058" stroke="#fff" stroke-width="1.804" class="C"/><path d="M48.106 47.31l90.021 23.05H40.683L24.463 54.391l23.644-7.081z" stroke="#172a3a" class="D E"/></g><defs><filter id="A" x="27.157" y="61.158" width="114.581" height="46.382" filterUnits="userSpaceOnUse" color-interpolation-filters="sRGB"><feFlood flood-opacity="0" result="A"/><feColorMatrix in="SourceAlpha" values="0 0 0 0 0 0 0 0 0 0 0 0 0 0 0 0 0 0 127 0"/><feOffset dy="8.11642"/><feGaussianBlur stdDeviation="9.018"/><feColorMatrix values="0 0 0 0 0.933333 0 0 0 0 0.0855556 0 0 0 0 0.0855556 0 0 0 0.1 0"/><feBlend in2="A"/><feBlend in="SourceGraphic"/></filter></defs></svg>