<svg xmlns="http://www.w3.org/2000/svg" width="178" height="168" fill="none"><g fill="#ed9257"><path d="M137.548 78.553c2.379-6.139 7.664-16.598 10.886-14.901 2.907 1.525-.508 5.712-.508 5.712l1.301 4.909-11.679 4.279z"/><path d="M79.072 103.567c-13.397 21.041 16.06 49.623 46.116 37.233 19.17-7.898 23.48-49.064 27.688-51.737 7.583-4.828 12.99-5.753 10.988-11.16 0 0 1.89-2.053-1.555-5.204 0 0 1.484-3.263-2.806-3.954-4.299-.701-20.196 4.005-22.758 11.526s-7.349 34.782-24.14 33.136c-9.433-.925-7.227-7.725-17.239-16.731l-16.293 6.891z"/></g><path d="M115.217 125.248c-.671-3.903-1.118-7.867-1.636-11.811-.326-.01-.651-.01-.976-.041-9.433-.925-7.227-7.725-17.239-16.73l-16.293 6.901c-12.228 19.191 11.801 42.711 38.929 37.304l-2.785-15.623z" fill="#dee7f3"/><path d="M160.632 71.733a24.63 24.63 0 0 0-8.152 2.104c-.6.264-.082 1.149.508.874 2.429-1.098 4.981-1.748 7.633-1.972.661-.041.661-1.057.011-1.006zm1.778 4.452a14.56 14.56 0 0 0-8.233 2.938c-.518.386-.01 1.271.509.874a13.71 13.71 0 0 1 7.724-2.795c.651-.03.661-1.047 0-1.016z" fill="#e84f35"/><g fill="#f7a964"><path d="M78.564 85.322c-.793 5.458-5.794 7.369-9.514 6.637-3.456-.691-5.011-4.615-2.409-8.111.874-1.179 2.216-2.297 4.127-3.232 0 0 1.626-.142 3.405.153 2.297.376 4.838 1.484 4.391 4.554z"/><path d="M89.166 66.345c5.113 6.332 7.074 14.22-1.677 19.719-5.956 3.751-14.525 2.694-19.424-3.812-4.899-6.495-4.157-15.328 1.677-19.719 5.824-4.391 14.921-1.758 19.424 3.812z"/></g><path d="M80.821 73.705c.561 0 1.016-.455 1.016-1.016s-.455-1.017-1.016-1.017-1.016.455-1.016 1.017.455 1.016 1.016 1.016zm8.497-2.003a23.81 23.81 0 0 0-5.407-4.086c-.569-.315-1.098.559-.518.874 1.921 1.057 3.659 2.368 5.204 3.923.457.468 1.179-.244.722-.712zM73.97 84.347c-2.338-.508-4.757.62-5.794 2.795-.274.59.59 1.108.874.518.834-1.758 2.724-2.755 4.645-2.338.64.132.915-.844.274-.976zm4.361-21.722c-1.677 2.836-11.262 10.683-5.987 15.125 1.342 1.128 2.572 1.413 1.83 3.019-.986 1.514-3.405-.153-3.405-.153-1.911.935-3.253 2.053-4.127 3.232-9.046.142-7.349-8.579-5.387-10.967 0 0-3.639-10.49 4.838-11.039 0 0 3.934-12.035 10.022-9.951 7.979 2.724 2.216 10.734 2.216 10.734z" fill="#172a3a"/><path d="M79.987 94.47c-10.358 2.622-18.519 7.644-24.832 16.538.468.579.701 1.351.478 2.276-2.5 10.256-17.391 54.898-17.34 54.715H95.5C99 165 119.354 84.509 79.987 94.47z" fill="#dee7f3"/><path d="M102.634 118.112c-.397 0-.722-.305-.763-.701 0-.061-.488-5.936-1.219-9.687-.082-.416.193-.813.599-.894a.77.77 0 0 1 .895.6c.752 3.832 1.23 9.605 1.24 9.849a.77.77 0 0 1-.702.823c-.01.01-.03.01-.05.01z" fill="#172a3a"/><path d="M55.146 111.008c-15.338 22.26 19.19 50.049 53.607 36.937 21.945-8.355 28.085-44.683 31.663-48.982 6.241-7.501 14.352-10.398 12.055-16.131 0 0 .924-3.822-2.725-5.133.285-1.779-2.683-3.903-5.376-1.738-1.586 1.281-3.609 3.618-9.555 4.086-6.038.468-10.927 3.608-12.685 9.189-2.551 8.091-9.321 31.154-28.613 32.17-20.38 1.077-23.5-10.906-23.5-10.906l-14.871.508z" fill="#f7a964"/><path d="M75.983 138.259c2.307-5.825 4.401-11.903 7.135-17.605-11.1-2.551-13.092-10.144-13.092-10.144l-14.881.508c-9.514 13.813.163 29.741 17.097 36.724l3.74-9.483z" fill="#dee7f3"/><g fill="#e84f35"><path d="M144.877 82.304c-1.545-2.785-5.377.295-5.794 2.694-3.12-.498-6.139.986-7.562 3.893-.285.59.589 1.098.874.508 1.311-2.673 4.117-4.035 7.024-3.334.294.071.67-.153.64-.488-.081-.884 3.253-5.601 4.056-1.83.152.691-.682 2.501-.966 3.049-.884 1.667-2.186 2.887-3.802 3.822-.569.325-.05 1.21.509.874 2.449-1.403 6.82-5.946 5.021-9.189z"/><path d="M148.689 78.563c-1.922.468-3.578 1.565-4.707 3.202-.366.539.427 1.179.793.64.966-1.403 2.369-2.419 4.035-2.826.631-.153.519-1.169-.121-1.016zm2.165 3.609c-3.405.041-5.713 3.263-7.908 5.468-.458.468.254 1.179.721.722 1.932-1.941 4.198-5.133 7.187-5.164.65-.02.66-1.037 0-1.026z"/></g><path d="M70.534 148.494c-.112 0-.234-.02-.335-.081-6.027-2.989-10.825-6.587-16.06-15.287a.77.77 0 0 1 .254-1.047.77.77 0 0 1 1.047.254c5.072 8.416 9.504 11.77 15.44 14.708a.76.76 0 0 1 .346 1.016.76.76 0 0 1-.691.437z" fill="#172a3a"/><path d="M45.76 33.502L38.185 36.4l2.897 7.576 7.576-2.897-2.897-7.576z" fill="#3b566e"/><path d="M10.433 84.224l15.145-18.54s8.894 9.91 1.016 18.164-16.161.376-16.161.376zm19.292-1.646l11.669-5.59-1.108 13.722-10.561-8.132z" fill="#dee7f3"/><path d="M90.731 10.177L88.312.226l10.439 3.1-8.02 6.851z" fill="#e84f35"/><path d="M60.004 10.726a5.35 5.35 0 0 0 5.346-5.346A5.35 5.35 0 0 0 60.004.033a5.35 5.35 0 0 0-5.346 5.346 5.35 5.35 0 0 0 5.346 5.347z" fill="#b2c4d3"/><path d="M135.83 58.753c3.559 0 6.445-2.885 6.445-6.444s-2.886-6.444-6.445-6.444-6.444 2.885-6.444 6.444 2.885 6.444 6.444 6.444zm-105.984.538l20.105-8.335-1.616 22.301-18.489-13.966z" fill="#e84f35"/><path d="M57.341 54.697a.77.77 0 0 1-.579-.264.76.76 0 0 1 .091-1.077l5.316-4.513a.765.765 0 1 1 .986 1.169l-5.316 4.513c-.152.112-.325.173-.498.173zM7.535 76.947a.76.76 0 0 1-.386-.102L1.05 73.227a.76.76 0 0 1-.264-1.047.76.76 0 0 1 1.047-.264l6.099 3.619a.76.76 0 0 1 .264 1.047c-.152.234-.407.366-.661.366zm21.457-35.403a.77.77 0 0 1-.762-.762V36.93a.77.77 0 0 1 .762-.762.77.77 0 0 1 .762.762v3.852a.76.76 0 0 1-.762.762zm-18.56 58.191a.75.75 0 0 1-.732-.549c-.112-.407.122-.823.518-.945l8.03-2.307c.407-.112.823.112.945.518.112.407-.122.823-.518.945l-8.03 2.307a.77.77 0 0 1-.213.031zm37.253-16.364a.76.76 0 0 1-.752-.681.77.77 0 0 1 .681-.844l5.082-.539a.78.78 0 0 1 .844.681.77.77 0 0 1-.681.844l-5.082.539h-.092zm37.761-58.09a.75.75 0 0 1-.549-.234l-3.608-3.812c-.285-.305-.275-.793.03-1.078s.793-.274 1.077.03L86.005 24c.285.305.275.793-.03 1.077a.8.8 0 0 1-.529.203zm6.962 16.263h-4.686a.77.77 0 0 1-.762-.762.77.77 0 0 1 .762-.762h4.686a.77.77 0 0 1 .762.762.77.77 0 0 1-.762.762zm39.062 23.002a.71.71 0 0 1-.478-.173l-2.084-1.687a.76.76 0 0 1-.111-1.067.76.76 0 0 1 1.067-.112l2.084 1.687a.76.76 0 0 1 .111 1.067c-.152.193-.366.285-.589.285zm6.078-31.682c-.152 0-.305-.041-.437-.142-.345-.244-.427-.722-.183-1.067l2.867-4.025c.244-.346.721-.427 1.067-.183s.427.722.183 1.067l-2.866 4.025a.77.77 0 0 1-.631.325zm-37.283-7.695c-.193 0-.386-.071-.539-.224a.77.77 0 0 1 0-1.077l7.41-7.41a.77.77 0 0 1 1.078 0c.295.295.295.783 0 1.077l-7.41 7.41a.76.76 0 0 1-.539.224zm3.7 3.71c-.193 0-.386-.071-.539-.224a.77.77 0 0 1 0-1.077l7.41-7.41a.77.77 0 0 1 1.078 0 .77.77 0 0 1 0 1.078l-7.41 7.41a.76.76 0 0 1-.539.224z" fill="#b2c4d3"/><path d="M9.192 48.212c-.193 0-.386-.071-.539-.224L.37 39.704a.77.77 0 0 1 0-1.078.77.77 0 0 1 1.077 0l8.284 8.284a.77.77 0 0 1 0 1.078c-.152.152-.346.224-.539.224z" fill="#f0f5fa"/><path d="M164.913 1.018l-.199.198-7.682 8.34c-1.218 1.322-1.133 3.381.189 4.599.926.853 2.213 1.067 3.32.665l1.274.848a3.05 3.05 0 0 0 4.228-.849c.431-.647.582-1.398.482-2.112l1.693 1.127a3.05 3.05 0 0 0 4.228-.849c.511-.768.628-1.682.4-2.506l.266.178a3.05 3.05 0 0 0 3.38-5.077L168.876.511a3.05 3.05 0 0 0-3.963.506zm-62.419 18.184l.287.043 11.565 2.213c1.854.355 2.941 2.115 2.427 3.932-.359 1.266-1.4 2.226-2.627 2.571l-.725 1.585a3.46 3.46 0 0 1-4.253 1.78c-.752-.273-1.313-.795-1.629-1.432l-.933 2.04a3.46 3.46 0 0 1-4.254 1.78c-.891-.324-1.515-.998-1.779-1.8l-.171.374a3.46 3.46 0 0 1-4.253 1.78c-1.628-.592-2.364-2.35-1.643-3.925l4.138-9.044c.662-1.447 2.322-2.237 3.85-1.898z" fill="#e84f35" fill-rule="evenodd"/><path d="M154.642 3.111l-41.255 11.23a2 2 0 0 0-1.405 2.455l7.359 27.034a2 2 0 0 0 2.455 1.405l41.255-11.23a2 2 0 0 0 1.405-2.455l-7.359-27.034a2 2 0 0 0-2.455-1.404z" fill="#dee7f3"/><path d="M137.5 20L121 44.5l43-12L137.5 20z" fill="#c2d0e2"/><path d="M139 27l-18-6 28-6.5L139 27z" fill="#dee7f3"/><path d="M114.841 18.837l21.784 8.095a4 4 0 0 0 4.652-1.431l12.697-17.845" stroke="#172a3a" stroke-width="2" stroke-linecap="round" stroke-linejoin="round"/></svg>