<svg width="43" height="14" viewBox="0 0 43 14" fill="none" xmlns="http://www.w3.org/2000/svg">
<g clip-path="url(#clip0_25_4904)">
<path d="M16.1056 0.730107L10.4021 13.3036H6.79972L4.22744 3.26906C4.07125 2.65139 3.93169 2.42458 3.43381 2.16471C2.62072 1.73992 1.27366 1.34185 0.0871582 1.09469L0.172689 0.730107H5.97219C6.71091 0.730107 7.36913 1.19919 7.5251 2.01188L8.8551 9.28789L12.5259 0.730107H16.1056ZM30.0988 9.19823C30.162 5.88008 25.3416 5.69694 25.3963 4.21423C25.4136 3.76337 25.8703 3.28411 26.8571 3.16117C27.3456 3.10055 28.6929 3.05328 30.2088 3.72352L30.8463 1.0576C30.0297 0.773349 28.979 0.500122 27.6656 0.500122C24.2973 0.500122 21.9013 2.20943 21.8471 4.65618C21.7983 6.46702 23.4984 7.4762 24.7816 8.0784C26.0998 8.69459 26.5395 9.0897 26.5266 9.64082C26.5045 10.4849 25.4499 10.8569 24.4688 10.8715C22.7551 10.8969 21.7673 10.4293 20.9802 10.0771L20.3233 12.8324C21.1138 13.1811 22.5795 13.4853 24.1035 13.5001C27.684 13.5001 30.05 11.8129 30.0988 9.19802M38.9352 13.3034H42.0872L39.5175 0.730107H36.6086C35.9543 0.730107 35.3973 1.093 35.1445 1.65217L29.8623 13.3034H33.4402L34.1785 11.425H38.5504L38.9352 13.3034ZM35.1965 8.84827L37.059 4.12732L38.0234 8.84827H35.1965ZM20.9754 0.730107L17.9754 13.3036H14.5669L17.5681 0.730107H20.9754Z" fill="#1434CB"/>
</g>
<defs>
<clipPath id="clip0_25_4904">
<rect width="42" height="13" fill="white" transform="translate(0.0871582 0.500122)"/>
</clipPath>
</defs>
</svg>
