<svg xmlns="http://www.w3.org/2000/svg" xmlns:xlink="http://www.w3.org/1999/xlink" width="175" height="406" fill="none"><path d="M86.372 306.117l-4.287 1.779-.696 4.004-3.333-2.896-4.725.681 2.233-3.568-2.233-3.578 4.725.681 3.333-2.896.696 4.004 4.287 1.789zm55.464 71.098l-3.176 1.325-.505 2.963-2.48-2.149-3.49.511 1.649-2.65-1.649-2.641 3.49.502 2.48-2.14.505 2.963 3.176 1.316zM26.565 265.329l-4.287 1.789-.696 3.994-3.344-2.896-4.714.691 2.222-3.578-2.222-3.579 4.714.682 3.344-2.887.696 3.995 4.287 1.789zm84.621 12.163l-3.456 1.439-.55 3.218-2.694-2.329-3.793.549 1.796-2.877-1.796-2.878 3.793.549 2.694-2.328.55 3.218 3.456 1.439zM85.744 389.113l-3.457 1.439-.561 3.218-2.682-2.328-3.805.549 1.796-2.878-1.796-2.877 3.805.549 2.682-2.329.561 3.218 3.457 1.439zm-73.006-79.977l-1.504 34.759c-.292 6.711 5.926 12.343 13.872 12.589 7.957.246 14.635-4.998 14.927-11.7l.224-5.282c.09-1.959-1.74-3.616-4.063-3.682-2.334-.076-4.287 1.467-4.366 3.427l-.224 5.159c-.112 2.537-2.637 4.515-5.645 4.43-3.008-.095-5.353-2.225-5.252-4.762l1.493-34.635c.09-2.13-1.841-3.938-4.366-4.071h-.135c-2.626-.142-4.871 1.572-4.972 3.787l.011-.019z" fill="#d5e6fa"/><path d="M39.505 347.605c-1.56 4.743-6.431 8.273-12.301 8.803-1.537-2.006-2.031-4.846-1.425-7.601.067 0 .123.01.191.01 3.008.094 5.533-1.893 5.645-4.43l.034-.72c2.009 1.875 4.815 3.086 7.867 3.919l-.011.019zm-27.092-30.878l.325-7.591c.101-2.215 2.346-3.929 4.972-3.787h.135c2.525.142 4.456 1.941 4.366 4.071l-.269 6.314c-3.412-.701-6.835-.597-9.528.984v.009zm8.989 11.577l-.539 12.457c-3.906.265-7.396 2.225-9.517 4.998-.079-.605-.135-1.221-.101-1.855l.64-14.814c2.604-1.297 6.15-1.458 9.517-.776v-.01z" fill="#ff5266"/><path d="M112.915 301.772l14.466-23.76s-1.975 5.017 1.246 8.898c0 0-7.519 5.424-4.04 10.498 0 0-7.969.35-11.683 4.364h.011z" fill="#01b262"/><path d="M112.915 301.772l14.466-23.76s-3.681 4.279-9.304 4.326c0 0-.852 8.321-7.766 8.879 0 0 4.299 5.67 2.593 10.555h.011z" fill="#11ce74"/><path d="M112.959 301.63l29.618 9.456s-6.128-1.089-10.336 2.045c0 0-7.239-5.699-12.817-2.206 0 0-1.313-6.635-6.465-9.295z" fill="#01b262"/><path d="M112.96 301.63l29.617 9.456s-5.454-2.603-6.139-7.308c0 0-9.899.228-11.335-5.509 0 0-6.195 4.241-12.143 3.361z" fill="#11ce74"/><g fill="#ff5266"><use xlink:href="#B"/><use xlink:href="#B" x="10.067" y="3.862"/><path d="M105.811 303.712c-1.403 2.3-.326 5.121 2.401 6.304s6.072.275 7.475-2.025.325-5.121-2.402-6.305-6.072-.274-7.474 2.026z"/></g><path d="M105.407 296.972c-.887 1.458-.202 3.247 1.526 3.995s3.85.17 4.736-1.287.202-3.247-1.526-3.995-3.85-.17-4.736 1.287zm9.652 3.796c-.887 1.458-.202 3.247 1.526 3.995s3.849.17 4.736-1.287.202-3.247-1.526-3.995-3.85-.17-4.736 1.287zm-7.846 3.436c-.886 1.458-.202 3.247 1.527 3.995s3.849.17 4.736-1.287.202-3.247-1.527-3.995-3.849-.17-4.736 1.287z" fill="#f89"/><path d="M47.712 268.419L43.088 242s1.852 5.045 7.16 6.617c0 0-2.368 8.102 3.962 10.516 0 0-6.229 4.194-6.487 9.286h-.011z" fill="#01b262"/><path d="M47.712 268.419L43.088 242s-.045 5.282-4.579 8.084c0 0 5.05 7.184-.191 11.028 0 0 7.407 2.499 9.394 7.307z" fill="#11ce74"/><path d="M47.656 268.277l30.605-6.844s-5.746 2.121-6.992 6.74c0 0-9.82-1.079-11.941 4.496 0 0-5.645-4.751-11.672-4.392z" fill="#01b262"/><path d="M47.656 268.277l30.605-6.844s-6.229.559-10.033-2.934c0 0-7.89 5.036-13.019 1.089 0 0-2.11 6.484-7.553 8.689z" fill="#11ce74"/><g fill="#ff5266"><path d="M36.781 268.93c.449 2.556 3.266 4.326 6.307 3.948 3.03-.379 5.129-2.755 4.68-5.32-.449-2.556-3.266-4.326-6.307-3.947s-5.129 2.754-4.68 5.319z"/><path d="M47.633 267.141c.449 2.556 3.266 4.326 6.307 3.948 3.03-.379 5.129-2.755 4.68-5.32-.449-2.556-3.266-4.326-6.307-3.948-3.03.379-5.129 2.755-4.68 5.32z"/><path d="M43.279 273.483c.449 2.556 3.266 4.326 6.307 3.948 3.03-.379 5.129-2.755 4.68-5.32-.449-2.556-3.266-4.326-6.307-3.947-3.03.378-5.129 2.754-4.68 5.319z"/></g><path d="M38.296 268.202c.281 1.618 2.076 2.745 3.995 2.499 1.919-.237 3.255-1.752 2.963-3.37s-2.076-2.745-3.995-2.499c-1.919.236-3.255 1.751-2.963 3.37zm10.471-1.648c.28 1.619 2.076 2.746 3.995 2.499 1.919-.236 3.255-1.751 2.963-3.369-.281-1.619-2.076-2.746-3.995-2.499-1.919.236-3.255 1.751-2.963 3.369zm-4.018 6.646c.281 1.618 2.076 2.745 3.995 2.499 1.919-.237 3.255-1.752 2.963-3.37-.281-1.619-2.076-2.745-3.995-2.499-1.919.236-3.255 1.751-2.963 3.37z" fill="#f89"/><g fill="#d5e6fa"><use xlink:href="#C"/><path d="M95.71 215.954c-.931 0-1.695-.643-1.695-1.429s.763-1.429 1.695-1.429 1.695.643 1.695 1.429-.763 1.429-1.695 1.429zm28.416 32.913c-2.222 0-4.029-1.524-4.029-3.398s1.807-3.398 4.029-3.398 4.029 1.524 4.029 3.398-1.807 3.398-4.029 3.398zm16.442 11.634c-.64 0-1.167-.445-1.167-.985s.527-.984 1.167-.984 1.167.445 1.167.984-.527.985-1.167.985z"/><use xlink:href="#C" x="-58.539" y="16.641"/><path d="M30.381 299.14c-1.762 0-3.176-1.202-3.176-2.679s1.425-2.678 3.176-2.678 3.176 1.202 3.176 2.678-1.425 2.679-3.176 2.679zM18.08 217.743c-1.762 0-3.176-1.202-3.176-2.678s1.425-2.679 3.176-2.679 3.176 1.202 3.176 2.679-1.425 2.678-3.176 2.678zm1.168 158.847c-1.111 0-2.02-.757-2.02-1.704s.898-1.704 2.02-1.704 2.02.758 2.02 1.704-.898 1.704-2.02 1.704zm-.629 14.672c-.763 0-1.38-.521-1.38-1.164s.617-1.165 1.38-1.165 1.38.521 1.38 1.165-.617 1.164-1.38 1.164zm34.14.89c-.875 0-1.594-.596-1.594-1.344s.707-1.344 1.594-1.344 1.594.596 1.594 1.344-.707 1.344-1.594 1.344zm47.934-34.522c-1.111 0-2.02-.758-2.02-1.704s.898-1.704 2.02-1.704 2.02.757 2.02 1.704-.898 1.704-2.02 1.704zm55.991-14.842c-.763 0-1.38-.521-1.38-1.165s.617-1.164 1.38-1.164 1.381.521 1.381 1.164-.618 1.165-1.381 1.165z"/><path d="M58.562 218.501c-2.245 0-4.052-1.534-4.052-3.418s1.818-3.417 4.052-3.417 4.051 1.534 4.051 3.417-1.818 3.418-4.051 3.418zm6.576 65.835c-2.245 0-4.051-1.534-4.051-3.417s1.818-3.418 4.051-3.418 4.052 1.534 4.052 3.418-1.818 3.417-4.052 3.417zM44.14 324.405c-2.245 0-4.051-1.534-4.051-3.417s1.818-3.418 4.051-3.418 4.051 1.534 4.051 3.418-1.818 3.417-4.051 3.417zm82.714 7.686c-2.245 0-4.052-1.533-4.052-3.417s1.818-3.417 4.052-3.417 4.051 1.533 4.051 3.417-1.818 3.417-4.051 3.417zm32.456 38.639c-2.244 0-4.051-1.533-4.051-3.417s1.818-3.417 4.051-3.417 4.052 1.533 4.052 3.417-1.818 3.417-4.052 3.417zm-49.426 10.546c-1.941-.947-2.603-3.039-1.481-4.676s3.603-2.196 5.544-1.25 2.604 3.039 1.482 4.676-3.603 2.196-5.545 1.25zm-67.136-10.46c-1.942-.947-2.604-3.039-1.481-4.676s3.603-2.197 5.544-1.25 2.604 3.039 1.482 4.676-3.603 2.196-5.544 1.25z" style="mix-blend-mode:overlay"/></g><defs ><path id="B" d="M103.667 296.831c-1.403 2.3-.325 5.121 2.402 6.304s6.071.274 7.474-2.026.326-5.121-2.401-6.304-6.072-.275-7.475 2.026z"/><path id="C" d="M83.836 268.187c0 .789.759 1.429 1.695 1.429s1.695-.64 1.695-1.429-.759-1.429-1.695-1.429-1.695.639-1.695 1.429z"/></defs></svg>