<svg xmlns="http://www.w3.org/2000/svg" xmlns:xlink="http://www.w3.org/1999/xlink" width="200" height="490" fill="none"><path d="M100.882 369.652l4.893 2.145.795 4.827 3.804-3.492 5.392.822-2.549-4.302 2.549-4.313-5.392.821-3.804-3.492-.795 4.827-4.893 2.157zM37.581 455.36l3.625 1.598.576 3.571 2.831-2.59 3.984.616-1.883-3.195 1.883-3.184-3.984.605-2.831-2.579-.576 3.572-3.625 1.586zm131.56-134.878l4.893 2.157.795 4.816 3.817-3.492 5.379.833-2.536-4.314 2.536-4.313-5.379.822-3.817-3.481-.795 4.816-4.893 2.156zm-96.579 14.663l3.945 1.735.628 3.879 3.074-2.807 4.329.662-2.049-3.469 2.049-3.469-4.329.662-3.074-2.807-.628 3.88-3.945 1.734zM101.6 469.703l3.945 1.735.641 3.879 3.061-2.807 4.342.662-2.049-3.469 2.049-3.469-4.342.662-3.061-2.807-.641 3.88-3.945 1.734zm-19.348-14.308l21.104-15.501c4.075-2.992 5.391-8.859 2.944-13.116s-7.726-5.281-11.801-2.289l-3.209 2.354c-1.191.878-1.579 2.595-.86 3.839s2.263 1.546 3.454.668l3.134-2.298c1.538-1.137 3.544-.747 4.464.866.93 1.606.429 3.835-1.114 4.961L79.349 450.32c-1.296.949-1.732 2.804-.995 4.18a.44.44 0 0 1 .038.077c.773 1.434 2.522 1.798 3.863.81l-.003.008z" fill="#d5e6fa"/><path d="M96.341 423.45c3.321-1.402 6.995-.531 9.229 2.279-.693 1.738-2.214 3.332-4.041 4.305-.02-.034-.031-.074-.051-.108-.93-1.607-2.928-1.994-4.464-.866l-.433.319c.454-1.929.265-3.955-.24-5.929zm-9.475 28.563l-4.606 3.385c-1.342.988-3.091.624-3.863-.811-.016-.023-.029-.055-.038-.076-.737-1.377-.301-3.231.995-4.181l3.829-2.815c.691 2.11 1.868 3.839 3.684 4.498zm3.928-10.091l7.559-5.557c1.43 1.907 3.726 2.805 6.062 2.614-.332.328-.682.64-1.062.923l-8.996 6.611c-1.614-.751-2.868-2.515-3.563-4.591z" fill="#ff5266"/><path d="M156.112 309.236l15.629 27.045c3.019 5.222.687 12.156-5.192 15.489-5.888 3.338-13.103 1.804-16.117-3.41l-2.372-4.111c-.885-1.523-.199-3.562 1.522-4.532 1.726-.982 3.84-.527 4.716 1.001l2.321 4.013c1.143 1.973 3.869 2.549 6.098 1.294 2.225-1.263 3.102-3.883 1.968-5.86l-15.569-26.953c-.956-1.658-.257-3.858 1.589-4.96l.101-.053c1.918-1.15 4.323-.674 5.323 1.047l-.017-.01z" fill="#d5e6fa"/><path d="M152.005 350.395c3.152 3.155 8.292 4.04 12.932 2.143.32-2.202-.492-4.656-2.097-6.607-.051.027-.089.057-.14.083-2.225 1.263-4.955.68-6.098-1.293l-.325-.559c-.731 2.283-2.338 4.355-4.288 6.223l.016.01zm7.519-35.251l-3.412-5.909c-1-1.721-3.404-2.197-5.322-1.047l-.101.053c-1.842 1.11-2.545 3.302-1.589 4.961l2.836 4.914c2.276-1.904 4.896-3.173 7.584-2.98l.004.008zm-1.94 12.755l5.601 9.693a11.06 11.06 0 0 1 9.25.216c-.194-.512-.408-1.024-.698-1.515l-6.66-11.527c-2.501-.003-5.239 1.269-7.489 3.141l-.004-.008z" fill="#ff5266"/><path d="M70.589 364.414l-16.511-28.641s2.254 6.047-1.422 10.726c0 0 8.582 6.538 4.611 12.655 0 0 9.094.422 13.334 5.26h-.013z" fill="#01b262"/><path d="M70.589 364.414l-16.511-28.642s4.201 5.158 10.618 5.215c0 0 .974 10.031 8.864 10.704 0 0-4.906 6.835-2.959 12.723h-.013z" fill="#11ce74"/><path d="M70.539 364.243l-33.803 11.4s6.994-1.313 11.797 2.464c0 0 8.262-6.869 14.628-2.658 0 0 1.499-8 7.378-11.206z" fill="#01b262"/><path d="M70.539 364.243l-33.803 11.4s6.225-3.138 7.006-8.81c0 0 11.298.274 12.937-6.641 0 0 7.071 5.112 13.859 4.051z" fill="#11ce74"/><g fill="#ff5266"><path d="M81.144 358.458c1.601 2.773.371 6.173-2.741 7.599s-6.93.331-8.531-2.442-.371-6.173 2.741-7.599 6.93-.331 8.531 2.442z"/><path d="M69.654 363.113c1.601 2.773.371 6.174-2.741 7.6s-6.93.331-8.531-2.442-.371-6.173 2.741-7.6 6.93-.331 8.531 2.442z"/><path d="M78.697 366.753c1.601 2.773.371 6.174-2.741 7.6s-6.93.331-8.531-2.442-.371-6.173 2.741-7.6 6.93-.33 8.531 2.442z"/></g><path d="M79.159 358.629c1.012 1.757.231 3.914-1.742 4.815s-4.393.206-5.405-1.552-.23-3.914 1.742-4.815 4.394-.206 5.405 1.552zm-11.016 4.576c1.012 1.757.231 3.914-1.742 4.815s-4.393.205-5.405-1.552-.231-3.914 1.742-4.815 4.393-.206 5.405 1.552zm8.953 4.142c1.012 1.757.231 3.914-1.742 4.815s-4.393.206-5.405-1.552-.23-3.914 1.742-4.815 4.394-.205 5.405 1.552z" fill="#f89"/><path d="M169.881 449.579l5.277-31.848s-2.114 6.082-8.172 7.976c0 0 2.702 9.768-4.522 12.678 0 0 7.109 5.055 7.404 11.194h.013z" fill="#01b262"/><path d="M169.881 449.579l5.277-31.848s.051 6.367 5.226 9.745c0 0-5.764 8.661.218 13.294 0 0-8.454 3.012-10.721 8.809z" fill="#11ce74"/><path d="M169.944 449.408l-34.929-8.25s6.558 2.556 7.98 8.124c0 0 11.207-1.301 13.628 5.421 0 0 6.443-5.729 13.321-5.295z" fill="#01b262"/><path d="M169.944 449.408l-34.929-8.25s7.109.673 11.451-3.538c0 0 9.004 6.071 14.858 1.313 0 0 2.408 7.816 8.62 10.475z" fill="#11ce74"/><g fill="#ff5266"><path d="M182.357 450.195c-.513 3.081-3.728 5.215-7.199 4.758-3.458-.456-5.854-3.32-5.341-6.412.512-3.081 3.727-5.215 7.198-4.759s5.854 3.321 5.342 6.413z"/><path d="M169.97 448.038c-.512 3.081-3.727 5.215-7.198 4.759-3.459-.457-5.854-3.321-5.342-6.413.513-3.081 3.728-5.215 7.199-4.758 3.458.456 5.854 3.32 5.341 6.412z"/><path d="M174.941 455.684c-.513 3.081-3.728 5.215-7.199 4.758-3.458-.456-5.854-3.32-5.341-6.413.512-3.081 3.727-5.215 7.198-4.758 3.459.456 5.854 3.32 5.342 6.413z"/></g><path d="M180.627 449.317c-.32 1.951-2.369 3.309-4.56 3.012-2.19-.285-3.714-2.111-3.381-4.062s2.37-3.309 4.56-3.013c2.19.286 3.714 2.111 3.381 4.063zm-11.951-1.986c-.32 1.951-2.369 3.309-4.56 3.013-2.19-.286-3.714-2.112-3.381-4.063.32-1.951 2.369-3.309 4.56-3.012 2.19.285 3.714 2.111 3.381 4.062zm4.587 8.011c-.321 1.951-2.37 3.309-4.56 3.012-2.191-.285-3.715-2.111-3.382-4.062.32-1.952 2.37-3.309 4.56-3.013 2.19.286 3.715 2.111 3.382 4.063z" fill="#f89"/><g fill="#d5e6fa"><path d="M103.778 323.928c0 .952-.866 1.723-1.934 1.723s-1.934-.771-1.934-1.723.866-1.723 1.935-1.723 1.934.771 1.934 1.723zm-13.552-62.966c1.063 0 1.934-.776 1.934-1.723s-.871-1.723-1.934-1.723-1.934.776-1.934 1.723.871 1.723 1.934 1.723zm-32.432 39.676c2.536 0 4.598-1.837 4.598-4.096s-2.062-4.097-4.598-4.097-4.598 1.838-4.598 4.097 2.062 4.096 4.598 4.096zm-18.765 14.025c.73 0 1.332-.537 1.332-1.187s-.602-1.187-1.332-1.187-1.332.537-1.332 1.187.602 1.187 1.332 1.187zm131.56 29.326c0 .951-.866 1.723-1.934 1.723s-1.935-.772-1.935-1.723.866-1.723 1.935-1.723 1.934.771 1.934 1.723z"/><use xlink:href="#B"/><use xlink:href="#B" x="14.039" y="-98.123"/><path d="M177.493 454.607c1.268 0 2.305-.913 2.305-2.054s-1.024-2.054-2.305-2.054-2.306.913-2.306 2.054 1.025 2.054 2.306 2.054zm.718 17.687c.871 0 1.575-.628 1.575-1.404s-.704-1.403-1.575-1.403-1.576.627-1.576 1.403.705 1.404 1.576 1.404zm-38.966 1.073c.999 0 1.819-.719 1.819-1.621s-.807-1.62-1.819-1.62-1.819.719-1.819 1.62.807 1.621 1.819 1.621zM84.539 431.75c1.268 0 2.306-.912 2.306-2.054s-1.025-2.054-2.306-2.054-2.306.913-2.306 2.054 1.025 2.054 2.306 2.054zm-63.903-17.892c.871 0 1.575-.627 1.575-1.403s-.704-1.404-1.575-1.404-1.576.628-1.576 1.404.704 1.403 1.576 1.403z"/><use xlink:href="#C" style="mix-blend-mode:overlay"/><path d="M125.117 343.395c2.562 0 4.624-1.848 4.624-4.119s-2.075-4.119-4.624-4.119-4.624 1.848-4.624 4.119 2.075 4.119 4.624 4.119z" style="mix-blend-mode:overlay"/><use xlink:href="#C" x="16.459" y="127.666" style="mix-blend-mode:overlay"/><path d="M54.681 400.964c2.562 0 4.624-1.849 4.624-4.12s-2.075-4.119-4.624-4.119-4.624 1.849-4.624 4.119 2.075 4.12 4.624 4.12z" style="mix-blend-mode:overlay"/><use xlink:href="#C" x="-114.985" y="183.511" style="mix-blend-mode:overlay"/><path d="M74.048 460.255c2.216-1.141 2.972-3.662 1.691-5.637s-4.112-2.647-6.328-1.506-2.972 3.663-1.691 5.637 4.112 2.648 6.328 1.506zm76.623-12.609c2.216-1.141 2.971-3.663 1.691-5.637s-4.112-2.647-6.328-1.506-2.972 3.663-1.691 5.637 4.112 2.647 6.328 1.506z" style="mix-blend-mode:overlay"/></g><defs ><path id="B" d="M164.786 361.242c2.011 0 3.625-1.449 3.625-3.229s-1.627-3.23-3.625-3.23-3.625 1.45-3.625 3.23 1.627 3.229 3.625 3.229z"/><path id="C" d="M132.623 264.032c2.562 0 4.624-1.849 4.624-4.119s-2.075-4.12-4.624-4.12-4.624 1.849-4.624 4.12 2.075 4.119 4.624 4.119z"/></defs></svg>