<svg xmlns="http://www.w3.org/2000/svg" width="100" height="34" fill="none"><g clip-path="url(#A)"><g clip-path="url(#B)" fill-rule="evenodd" fill="#2c80e5"><path d="M23.606 3.641a51.94 51.94 0 0 1 14.275 2 6.09 6.09 0 0 1 2.381 1.305c.686.609 1.228 1.367 1.585 2.216a19.68 19.68 0 0 1 0 15.233c-.357.849-.898 1.606-1.585 2.215s-1.5 1.056-2.381 1.305a51.93 51.93 0 0 1-28.551 0 6.09 6.09 0 0 1-2.381-1.305 6.14 6.14 0 0 1-1.584-2.216c-1.012-2.41-1.534-5-1.534-7.617s.521-5.207 1.534-7.617A6.14 6.14 0 0 1 6.95 6.946a6.09 6.09 0 0 1 2.381-1.305 51.94 51.94 0 0 1 14.276-2zm0-3.348A55.25 55.25 0 0 0 8.423 2.42a9.43 9.43 0 0 0-3.67 2.017c-1.059.94-1.895 2.107-2.447 3.414A22.96 22.96 0 0 0 .5 16.779a22.94 22.94 0 0 0 1.807 8.928 9.51 9.51 0 0 0 2.447 3.414c1.058.939 2.312 1.629 3.67 2.017a55.23 55.23 0 0 0 30.365 0 9.43 9.43 0 0 0 3.669-2.017 9.52 9.52 0 0 0 2.447-3.414c1.192-2.823 1.807-5.86 1.807-8.928s-.615-6.105-1.807-8.928a9.52 9.52 0 0 0-2.447-3.414 9.43 9.43 0 0 0-3.669-2.017A55.27 55.27 0 0 0 23.606.293zM11.378 11.744H9.616a.79.79 0 0 0-.785.79v6.81a.79.79 0 0 0 .785.791h1.762a.79.79 0 0 0 .785-.791v-6.81a.79.79 0 0 0-.785-.79zm26.006 0h-1.336c-.551 0-.998.45-.998 1.005v6.381c0 .555.447 1.005.998 1.005h1.336c.551 0 .998-.45.998-1.005v-6.38c0-.555-.447-1.005-.998-1.005zm-6.497 5.035h-1.67c-.459 0-.831.375-.831.837v1.507a1.03 1.03 0 0 1-.076.388 1.01 1.01 0 0 1-.218.329c-.093.094-.204.169-.326.22a1 1 0 0 1-.385.077h-7.549a1 1 0 0 1-.71-.297 1.01 1.01 0 0 1-.218-.328c-.051-.123-.077-.255-.076-.387V17.57a.79.79 0 0 0-.785-.791h-1.716c-.459 0-.83.375-.83.837v1.683c0 .462.372.837.83.837h1.496a1 1 0 0 1 .385.077c.122.051.233.126.326.22s.167.206.218.329a1.02 1.02 0 0 1 .076.388v1.507c0 .462.372.837.831.837h7.897c.459 0 .831-.375.831-.837V21.15a1.02 1.02 0 0 1 .076-.388 1.01 1.01 0 0 1 .218-.329c.093-.094.204-.169.326-.22a1 1 0 0 1 .385-.077h1.496c.459 0 .831-.375.831-.837v-1.683c0-.462-.373-.837-.831-.837zm43.275-1.509v7.38a.64.64 0 0 1-.184.449c-.118.119-.278.186-.445.186H71.46c-.167 0-.327-.067-.445-.186s-.184-.28-.184-.449v-7.146c0-.914-.313-2.471-2.17-2.471-1.865 0-2.402 1.524-2.402 2.94v6.678c0 .083-.016.166-.048.243a.65.65 0 0 1-.136.206.63.63 0 0 1-.204.138.62.62 0 0 1-.241.048h-2.073a.63.63 0 0 1-.445-.186c-.118-.119-.184-.28-.184-.449v-7.146c0-2.108-1.378-2.471-2.169-2.471-.641 0-2.428.238-2.428 2.94v6.678c0 .083-.016.166-.048.243a.63.63 0 0 1-.34.343.62.62 0 0 1-.241.048h-2.074a.64.64 0 0 1-.241-.048.63.63 0 0 1-.34-.344.65.65 0 0 1-.048-.243V10.908a.63.63 0 0 1 .629-.634H57.7a.63.63 0 0 1 .629.634v.745c.775-1.162 1.971-1.743 3.59-1.743 1.585 0 2.755.624 3.513 1.874.861-1.25 2.144-1.874 3.849-1.874 2.715 0 4.882 1.808 4.882 5.36zm8.338 4.983a8.94 8.94 0 0 0 .958.012.62.62 0 0 1 .245.044.63.63 0 0 1 .209.136.62.62 0 0 1 .14.207.64.64 0 0 1 .049.246v1.809a.64.64 0 0 1-.167.431.63.63 0 0 1-.413.202c-1.984.162-3.405-.073-4.262-.707-.939-.694-1.408-1.934-1.408-3.721v-4.778c0-.083-.016-.166-.048-.243a.65.65 0 0 0-.136-.206.63.63 0 0 0-.204-.138.62.62 0 0 0-.241-.048h-.989c-.083 0-.164-.016-.241-.048a.63.63 0 0 1-.34-.343.64.64 0 0 1-.048-.242v-1.959a.63.63 0 0 1 .629-.634h.989c.167 0 .327-.067.445-.186s.184-.28.184-.448V7.647a.63.63 0 0 1 .63-.634h2.073c.347 0 .63.284.63.634V9.64a.63.63 0 0 0 .629.634h1.66a.63.63 0 0 1 .629.634v1.959c0 .168-.066.329-.184.448s-.278.186-.445.186h-1.66c-.083 0-.164.016-.241.048a.62.62 0 0 0-.204.138.63.63 0 0 0-.136.206.64.64 0 0 0-.048.243v4.778c0 1.213.863 1.3 1.317 1.34zm3.18-3.473c0-3.843 2.774-6.87 6.276-6.87 1.808 0 3.211.634 4.21 1.899v-.901a.63.63 0 0 1 .63-.634h2.072a.63.63 0 0 1 .63.634V22.65a.64.64 0 0 1-.048.243.65.65 0 0 1-.136.206.63.63 0 0 1-.204.137.62.62 0 0 1-.241.048h-2.072a.63.63 0 0 1-.445-.186c-.118-.119-.184-.28-.184-.449v-.901c-.999 1.266-2.402 1.899-4.21 1.899-3.624 0-6.276-3.151-6.276-6.868zm6.897 3.668c1.924 0 3.59-1.346 3.59-3.668 0-2.375-1.681-3.67-3.59-3.67-2.175 0-3.565 1.606-3.565 3.67 0 2.142 1.468 3.668 3.565 3.668z"/></g></g><defs><clipPath id="A"><path fill="#fff" transform="translate(.5 .293)" d="M0 0h99v33H0z"/></clipPath><clipPath id="B"><path fill="#fff" transform="translate(.5 .293)" d="M0 0h99v32.972H0z"/></clipPath></defs></svg>