<svg width="32" height="32" viewBox="0 0 32 32" fill="none" xmlns="http://www.w3.org/2000/svg">
<rect width="32" height="32" rx="16" fill="#172A3A"/>
<path fill-rule="evenodd" clip-rule="evenodd" d="M19.2149 8.78322C19.3467 8.64983 19.5603 8.64983 19.6921 8.78322L23.0327 12.1647C23.1645 12.2981 23.1645 12.5144 23.0327 12.6478L14.8543 20.9263C14.8113 20.9699 14.7573 21.0009 14.6983 21.016L10.2301 22.1574C10.1149 22.1868 9.99294 22.1527 9.90893 22.0677C9.82493 21.9827 9.79128 21.8592 9.82035 21.7426L10.9479 17.2197C10.9628 17.1599 10.9934 17.1053 11.0365 17.0618L19.2149 8.78322ZM19.4535 9.50783L11.5795 17.4782L10.613 21.355L14.4429 20.3766L22.3169 12.4063L19.4535 9.50783Z" fill="white"/>
<path fill-rule="evenodd" clip-rule="evenodd" d="M11.1021 16.9954C11.2339 16.862 11.4475 16.862 11.5793 16.9954L14.9199 20.3769C15.0517 20.5103 15.0517 20.7266 14.9199 20.86C14.7881 20.9934 14.5745 20.9934 14.4427 20.86L11.1021 17.4785C10.9703 17.3451 10.9703 17.1288 11.1021 16.9954Z" fill="white"/>
</svg>
