<svg xmlns="http://www.w3.org/2000/svg" width="49" height="48" fill="none" stroke="#7c9cac"><path d="M29.946 7.998a5.98 5.98 0 0 1-1.764 4.249l-4.234-.015-4.234.015-.172-.179c-.988-1.069-1.592-2.499-1.592-4.07A6 6 0 0 1 23.948 2a6 6 0 0 1 5.999 5.998z" stroke-width="1.951"/><path d="M22.457 5.844c.271-1.316 3.257-1.58 3.257.53 0 1.582-3.257 1.318-3.257 3.164 0 2.109 2.986 1.846 3.257 1.055m-3.529-2.637h3.529" stroke-width="1.281" stroke-linecap="round"/><g stroke-width="1.951"><path d="M34.372 19.2H14.424c-1.616 0-2.926 1.31-2.926 2.926v19.947c0 1.616 1.31 2.926 2.926 2.926h19.947c1.616 0 2.926-1.31 2.926-2.926V22.126c0-1.616-1.31-2.926-2.926-2.926z"/><path d="M32.999 19.2h-17.2v-3.225h17.2V19.2z"/><path d="M34.171 12.749H14.622c-.539 0-.975.437-.975.976v1.274c0 .539.437.975.975.975h19.549c.539 0 .976-.437.976-.975v-1.274c0-.539-.437-.976-.976-.976z"/></g><g stroke-width=".975"><rect x="20.1" y="39.625" width="11.825" height="3.225" rx=".975"/><rect x="22.246" y="35.325" width="11.825" height="3.225" rx=".975"/><rect x="21.17" y="31.025" width="11.825" height="3.225" rx=".975"/><rect x="13.647" y="42.074" width="11.825" height="3.037" rx=".975" transform="rotate(290.882 13.647 42.074)"/><rect x="19.305" y="22.425" width="11.825" height="3.225" rx=".975" transform="rotate(24.889 19.305 22.425)"/></g></svg>