<svg xmlns="http://www.w3.org/2000/svg" width="69" height="20" fill="none"><path d="M.089 4.609h3.388v10.585H.089V4.609zm3.502-2.942c0 .909-.714 1.645-1.83 1.645C.692 3.312-.022 2.576 0 1.667-.022.715.692 0 1.783 0s1.783.715 1.808 1.667zM40.59 13.434c0-1.173.827-2.022 2.015-2.022s1.993.827 1.993 2.022c0 1.153-.808 2-2.015 2-1.166 0-1.993-.847-1.993-2z" fill="#e84f35"/><path d="M9.535 7.388c.291.065.649.089 1.141.089 1.815 0 2.934-.892 2.934-2.391 0-1.348-.963-2.151-2.664-2.151-.694 0-1.163.065-1.41.13v4.324zM6.155.736C7.207.561 8.686.432 10.768.432c2.104 0 3.605.391 4.613 1.175.963.739 1.612 1.957 1.612 3.393s-.494 2.652-1.388 3.48c-1.166 1.065-2.887 1.544-4.904 1.544-.447 0-.852-.022-1.166-.065v5.24h-3.38V.736zm18.315 9.436c-1.79-.022-3.178.391-3.178 1.674 0 .847.583 1.261 1.343 1.261.85 0 1.546-.542 1.768-1.216.044-.173.067-.369.067-.566v-1.153zm.402 5.022l-.203-1.065h-.067c-.716.849-1.837 1.305-3.134 1.305-2.218 0-3.539-1.564-3.539-3.261 0-2.76 2.553-4.086 6.425-4.065v-.151c0-.566-.314-1.369-1.993-1.369-1.119 0-2.306.369-3.023.806l-.627-2.129c.761-.415 2.262-.935 4.255-.935 3.65 0 4.813 2.089 4.813 4.588v3.698c0 1.022.044 2 .155 2.588H24.87v-.007zm7.883-10.631l1.635 5.218.536 1.978h.067l.491-1.978 1.343-5.218h3.65l-2.551 7c-1.568 4.218-2.62 5.914-3.852 6.978A6.38 6.38 0 0 1 30.782 20l-.716-2.803c.425-.065.963-.261 1.477-.566.514-.261 1.074-.782 1.41-1.326.111-.151.178-.326.178-.477 0-.108-.022-.283-.158-.544l-4.008-9.719h3.79zm24.225 7.219l.089 3.412h-2.956l-.156-1.499h-.067c-.425.652-1.454 1.739-3.428 1.739-2.215 0-3.85-1.348-3.85-4.631v-6.24h3.425v5.719c0 1.544.516 2.477 1.701 2.477.941 0 1.477-.631 1.701-1.151.089-.197.111-.456.111-.717V4.563h3.425v7.218h.002zm8.551-1.61c-1.793-.022-3.181.391-3.181 1.674 0 .847.583 1.261 1.343 1.261.852 0 1.546-.542 1.768-1.216.044-.173.069-.369.069-.566v-1.153zm.405 5.022l-.203-1.065h-.067c-.716.849-1.835 1.305-3.134 1.305-2.218 0-3.536-1.564-3.536-3.261 0-2.76 2.551-4.086 6.425-4.065v-.151c0-.566-.314-1.369-1.993-1.369-1.119 0-2.306.369-3.023.806l-.627-2.129c.761-.415 2.262-.935 4.252-.935 3.65 0 4.813 2.089 4.813 4.588v3.698c0 1.022.045 2 .156 2.588h-3.064v-.007z" fill="#7c9cac"/></svg>