<svg xmlns="http://www.w3.org/2000/svg" width="68" height="24" fill="#d2dce0" fill-rule="evenodd"><path d="M63.846 9.411c0-.732.578-1.328 1.272-1.328.713 0 1.272.597 1.272 1.328s-.559 1.328-1.272 1.328c-.694.019-1.272-.578-1.272-1.328zm1.272 1.039c.54 0 .961-.461.961-1.021s-.443-1.021-.961-1.021c-.54 0-.964.462-.964 1.021s.424 1.021.964 1.021zm-.176-.443h-.27V8.833h.48c.098 0 .21 0 .289.056.098.056.135.173.135.289 0 .135-.079.251-.191.289l.21.522h-.289l-.173-.462h-.191v.48zm0-.653h.154c.056 0 .116 0 .154-.019s.056-.079.056-.135c0-.038-.019-.098-.056-.116a.45.45 0 0 0-.154-.019h-.135l-.019.289zM45.659.54l-.345 2.27c-.751-.405-1.31-.559-1.906-.559-1.58 0-2.694 1.617-2.694 3.906 0 1.58.751 2.54 1.981 2.54.522 0 1.096-.173 1.809-.54l-.364 2.387c-.788.233-1.291.308-1.888.308-2.289 0-3.715-1.734-3.715-4.503 0-3.73 1.962-6.349 4.792-6.349.364 0 .694.038.961.116l.886.233.484.191zm-7.066 1.558c-.056-.019-.135-.019-.21-.019-.694 0-1.096.364-1.752 1.385l.191-1.291h-1.925l-1.31 8.488h2.135c.769-5.197.961-6.083 1.981-6.083h.154c.191-1.021.443-1.771.807-2.465l-.071-.015zm-12.724 8.45c-.578.191-1.039.289-1.52.289-1.077 0-1.674-.653-1.674-1.869a5.79 5.79 0 0 1 .056-.769l.135-.829.098-.675.923-5.794h2.116l-.251 1.25h1.096l-.308 2.06h-1.077l-.559 3.542-.038.345c0 .443.233.634.732.634.251 0 .424-.019.578-.079l-.308 1.895zm-8.391-5.696c0 1.077.499 1.809 1.617 2.368.848.424 1.002.559 1.002.942 0 .522-.387.769-1.212.769-.634 0-1.212-.098-1.906-.345l-.289 1.963.098.019.386.079.559.075 1.175.079c2.233 0 3.272-.904 3.272-2.829 0-1.156-.424-1.846-1.501-2.368-.886-.424-.983-.522-.983-.923 0-.462.345-.694 1.039-.694.424 0 .983.056 1.52.135l.308-1.962a13.01 13.01 0 0 0-1.869-.173c-2.409-.004-3.234 1.287-3.216 2.867zm45.137 5.793h-2.023l.097-.829c-.578.653-1.193.942-1.962.942-1.561 0-2.578-1.403-2.578-3.523 0-2.829 1.58-5.216 3.463-5.216.829 0 1.445.364 2.041 1.156l.462-2.983h2.098l-1.599 10.454zM59.478 8.66c1.002 0 1.692-1.174 1.692-2.867 0-1.077-.405-1.674-1.137-1.674-.961 0-1.655 1.193-1.655 2.848 0 1.114.368 1.692 1.099 1.692zm-26.87 1.813a7.03 7.03 0 0 1-2.195.345c-2.368 0-3.617-1.31-3.617-3.812 0-2.927 1.58-5.062 3.715-5.062 1.752 0 2.867 1.212 2.867 3.099 0 .615-.079 1.231-.27 2.098h-4.233c-.019.135-.019.191-.019.27 0 1.002.634 1.501 1.869 1.501.75 0 1.445-.173 2.214-.54l-.33 2.101zm-1.193-5.066c.019-.173.019-.326.019-.424 0-.694-.364-1.096-1.002-1.096-.675 0-1.156.54-1.347 1.52h2.33zM8.931 10.646H6.814L8.026 2.62l-2.732 8.026H3.85l-.173-7.97-1.291 7.97H.405L2.06.21h3.058l.079 6.469L7.276.21h3.31L8.931 10.646zm5.486-3.775l-.48-.038c-1.212 0-1.809.443-1.809 1.291 0 .522.308.867.769.867.848 0 1.482-.867 1.52-2.12zm1.542 3.775h-1.771l.037-.886c-.54.713-1.249 1.021-2.233 1.021-1.156 0-1.944-.942-1.944-2.311 0-2.079 1.385-3.272 3.734-3.272.251 0 .559.019.867.056.056-.289.079-.405.079-.559 0-.559-.364-.769-1.366-.769-.597 0-1.291.098-1.771.251l-.27.098-.191.056.289-1.906c1.058-.326 1.771-.462 2.54-.462 1.827 0 2.792.867 2.792 2.484 0 .424-.037.732-.173 1.692l-.424 3.021-.079.54-.056.424-.037.308-.022.214zm33.373-3.775l-.48-.038c-1.212 0-1.827.443-1.827 1.291 0 .522.308.867.769.867.867 0 1.501-.867 1.538-2.12zm1.542 3.775h-1.771l.038-.886c-.54.713-1.25 1.021-2.233 1.021-1.156 0-1.944-.942-1.944-2.311 0-2.079 1.385-3.272 3.733-3.272a7.69 7.69 0 0 1 .867.056c.056-.289.075-.405.075-.559 0-.559-.364-.769-1.366-.769-.597 0-1.291.098-1.771.251l-.308.079-.191.056.289-1.906c1.058-.326 1.771-.462 2.54-.462 1.827 0 2.792.867 2.792 2.484 0 .424-.038.732-.173 1.692l-.443 3.002-.056.54-.056.424-.038.289.015.27zm5.948-8.548c-.056-.019-.135-.019-.21-.019-.694 0-1.096.364-1.752 1.385l.191-1.291h-1.925l-1.31 8.488h2.135c.769-5.197.961-6.083 1.981-6.083h.154c.191-1.021.462-1.771.807-2.465l-.071-.015zm-8.931 16.803c0 1.925-.597 3.062-1.538 3.062-.694.019-1.096-.751-1.096-1.887 0-1.347.615-2.886 1.58-2.886.784 0 1.054.826 1.054 1.711zm2.098.019c0-2.135-1.058-3.812-3.043-3.812-2.289 0-3.771 2.022-3.771 5.006 0 2.135.886 3.887 3.039 3.887 2.176.004 3.775-1.538 3.775-5.081zm-6.143-5.291l-.327 2.27c-.713-.405-1.212-.559-1.771-.559-1.482 0-2.522 1.617-2.522 3.906 0 1.58.694 2.54 1.846 2.54.499 0 1.039-.173 1.692-.54l-.345 2.387c-.732.233-1.212.308-1.771.308-2.135 0-3.482-1.734-3.482-4.503 0-3.734 1.846-6.353 4.484-6.353.345 0 .634.037.886.116l.807.233c.274.079.33.098.503.195zm-13.144 1.538c-.056-.019-.135-.019-.21-.019-.653 0-1.021.364-1.636 1.385l.191-1.291h-1.79l-1.216 8.492h1.981c.713-5.197.904-6.082 1.846-6.082a.56.56 0 0 1 .154.019 9.13 9.13 0 0 1 .75-2.465l-.071-.038zm25.947 8.488h-1.887l.097-.829c-.54.653-1.118.942-1.846.942-1.445 0-2.405-1.403-2.405-3.523 0-2.829 1.482-5.216 3.234-5.216.769 0 1.366.364 1.906 1.174l.443-2.983h1.962l-1.505 10.435zm-2.946-2c.942 0 1.58-1.174 1.58-2.867 0-1.077-.364-1.655-1.058-1.655-.904 0-1.538 1.174-1.538 2.848-.004 1.114.341 1.674 1.017 1.674zm-41.635 1.963c-.675.233-1.328.345-2.041.345-2.214 0-3.37-1.31-3.37-3.812 0-2.908 1.482-5.062 3.463-5.062 1.636 0 2.675 1.193 2.675 3.099 0 .615-.079 1.231-.251 2.098h-3.94c-.019.135-.019.191-.019.27 0 .983.597 1.482 1.752 1.482.713 0 1.347-.173 2.06-.54l-.33 2.12zm-1.114-5.062l.019-.424c0-.694-.345-1.096-.942-1.096-.634 0-1.077.54-1.272 1.52h2.195zm24.754 5.062a6.11 6.11 0 0 1-2.041.345c-2.233 0-3.388-1.31-3.388-3.812 0-2.908 1.482-5.062 3.463-5.062 1.636 0 2.694 1.193 2.694 3.099 0 .615-.079 1.231-.251 2.098H32.24c-.019.135-.019.191-.019.27 0 .983.597 1.482 1.752 1.482.713 0 1.347-.173 2.06-.54l-.326 2.12zm-1.118-5.062c.019-.173.019-.326.019-.424 0-.694-.345-1.096-.942-1.096-.634 0-1.077.54-1.272 1.52h2.195zm28.832 5.062a6.27 6.27 0 0 1-2.041.345c-2.214 0-3.388-1.31-3.388-3.812 0-2.908 1.482-5.062 3.482-5.062 1.636 0 2.675 1.193 2.675 3.099 0 .615-.075 1.231-.251 2.098h-3.947c-.019.135-.019.191-.019.27 0 .983.597 1.482 1.752 1.482.713 0 1.347-.173 2.06-.54l-.323 2.12zm-1.114-5.062l.019-.424c0-.694-.345-1.096-.942-1.096-.634 0-1.077.54-1.272 1.52h2.195zM6.18 15.553c-.386-.27-.923-.48-1.655-.48-.807 0-1.445.173-1.445 1.021 0 1.501 2.927.942 2.927 4.176 0 2.946-1.925 3.715-3.677 3.715-.769 0-1.674-.251-2.33-.559l.48-2.158c.405.364 1.193.615 1.869.615.634 0 1.599-.173 1.599-1.272 0-1.715-2.927-1.077-2.927-4.082 0-2.754 1.715-3.561 3.37-3.561.923 0 1.809.135 2.311.48l-.522 2.105zm11.7 8.064c-.405.191-.961.326-1.771.326-1.733 0-2.81-1.734-2.81-3.85 0-2.773 1.561-4.964 3.85-4.964.499 0 1.272.21 1.869.559l-.443 2.023c-.424-.289-.867-.462-1.328-.462-1.058 0-1.827.983-1.827 2.713 0 1.002.559 1.827 1.426 1.827.522 0 .886-.116 1.328-.364l-.293 2.191zm7.433-2.135l-.251 2.195h-1.906l.154-1.366h-.019c-.597.923-1.212 1.561-2.311 1.561-1.193 0-1.846-1.272-1.846-2.908 0-.578.038-.886.154-1.771l.54-3.925h2.135l-.578 3.947c-.056.424-.135.848-.135 1.291 0 .499.233 1.002.807.961.867 0 1.385-1.058 1.538-2.311l.597-3.887h2.06l-.938 6.214zm40.094 2.098h-.33v-1.407h-.462v-.308h1.253v.308h-.462v1.407zm2.135 0h-.308v-1.426l-.289 1.426h-.308l-.289-1.426v1.426h-.308v-1.715h.48l.27 1.347h.019l.27-1.347h.462v1.715z"/></svg>