<svg xmlns="http://www.w3.org/2000/svg" width="62" height="24" fill="none"><g fill="#d2dce0"><path d="M42.044 13.631l.613.188c-.041.178-.102.324-.194.439s-.194.209-.327.261a1.16 1.16 0 0 1-.5.094c-.245 0-.439-.031-.602-.104-.153-.073-.286-.199-.398-.387-.112-.178-.174-.418-.174-.7 0-.376.102-.669.296-.878s.48-.303.837-.303c.286 0 .5.063.664.178s.286.293.357.544l-.613.136c-.02-.073-.041-.125-.072-.157a.42.42 0 0 0-.143-.126c-.061-.031-.123-.042-.184-.042a.39.39 0 0 0-.357.199c-.061.094-.092.251-.092.45 0 .251.041.429.112.523s.184.146.317.146.235-.042.296-.115a.72.72 0 0 0 .163-.345z"/><path d="M42.901 13.422c0-.376.102-.669.306-.878s.49-.314.858-.314c.378 0 .664.104.868.303.204.209.306.491.306.868 0 .272-.041.491-.133.659a.96.96 0 0 1-.388.397c-.163.094-.378.146-.623.146a1.44 1.44 0 0 1-.633-.125c-.163-.084-.296-.209-.409-.397s-.153-.387-.153-.659zm.694 0c0 .23.041.397.123.502a.41.41 0 0 0 .347.157c.153 0 .266-.052.347-.146.082-.104.123-.282.123-.533 0-.22-.041-.376-.133-.47-.082-.105-.204-.146-.347-.146s-.255.052-.337.157c-.082.084-.123.251-.123.481zm2.002-1.15h.909l.347 1.401.347-1.401h.909v2.3h-.572v-1.756l-.439 1.756h-.511l-.439-1.756v1.756h-.572v-2.3h.02zm2.962 0h1.154c.255 0 .439.063.562.188s.184.293.184.523-.072.418-.204.544c-.133.136-.347.199-.623.199h-.378v.857h-.694v-2.31zm.694.983h.174c.133 0 .225-.021.286-.073.051-.052.082-.105.082-.178s-.02-.136-.071-.188-.133-.073-.266-.073h-.194v.512h-.01zm1.572-.983h.694v1.735h1.082v.565h-1.777v-2.3zm2.124 0h.694v2.3h-.694v-2.3zm2.574 1.913h-.786l-.112.376h-.705l.848-2.3h.756l.848 2.3h-.725l-.123-.376zm-.143-.491l-.245-.826-.245.826h.49zm1.205-1.422h.643l.847 1.275v-1.275h.654v2.3h-.654l-.837-1.265v1.265h-.654v-2.3zm2.45 0h2.114v.565h-.705v1.735h-.694v-1.735h-.705v-.565h-.01zm-25.344 3.502l2.011-.648-.653-1.484c-.48.617-.96 1.411-1.358 2.132zm-.684-6.784L29.066 0 .209 1.672 8.204 24l15.388-4.965c-.98-1.442-1.338-3.157-.204-3.993 1.266-.941 3.176.146 4.391 1.683 1.174-2.007 4.472-6.679 5.228-7.735z"/></g><path d="M28.167 6.496c1.205 0 2.185-.941 2.185-2.111s-.98-2.112-2.185-2.112-2.185.941-2.185 2.112c0 1.16.98 2.111 2.185 2.111zm-1.787.909h3.574v9.564H26.38V7.406zm-1.767 2.792c.031.011.051 0 .051-.031V7.741c0-.031-.02-.063-.051-.084 0 0-.47-.314-1.899-.397-.072-.042-1.327-.052-1.664 0-5.208.429-5.402 4.286-5.402 4.453v.941c0 .115 0 4.056 5.402 4.401.531.042 1.562 0 1.664 0 1.246 0 2.104-.387 2.104-.387.031-.01.051-.042.051-.073v-2.268c0-.031-.02-.042-.041-.021 0 0-.388.314-2.083.491-.48.052-.715.031-.888 0-2.41-.418-2.522-2.216-2.522-2.216 0-.031-.01-.084-.01-.104v-.69c0-.031 0-.084.01-.104 0 0 .163-1.934 2.522-2.143h.888a5.26 5.26 0 0 1 1.869.658zm-18.89 6.742c0 .031.02.052.051.052h3.482c.031 0 .051-.021.051-.052v-2.78c0-.031.02-.052.051-.052 0 0 5.565.408 5.565-3.408 0-3.021-3.492-3.345-4.636-3.293H5.774c-.031 0-.051.021-.051.052v9.481zm3.523-4.955V9.486h.858s1.236.052 1.338.92c.02.063.02.491 0 .512-.163 1.014-1.236 1.066-1.236 1.066h-.96z" fill="#fff"/><path d="M28.269 21.585c.286 0 .511 0 .878-.167 1.266-.679 5.545-11.373 10.058-14.665.031-.021.061-.052.082-.084.031-.042.031-.084.031-.084s0-.22-.664-.22c-4.013-.115-8.189 8.509-10.385 11.916-.031.042-.174 0-.174 0s-1.47-1.777-2.747-2.456c-.031-.01-.174-.063-.327-.052-.102 0-.694.125-.97.418-.327.355-.317.554-.317.982 0 .031.02.178.061.251.316.564 1.736 2.571 2.91 3.68.174.136.449.481 1.562.481zM40.39 3.522h3.339c.664 0 1.195.094 1.593.272a2.61 2.61 0 0 1 1.001.784 3.21 3.21 0 0 1 .572 1.192c.122.449.184.93.184 1.443 0 .794-.092 1.411-.266 1.85a3.08 3.08 0 0 1-.735 1.108c-.316.293-.654.491-1.011.596a5.04 5.04 0 0 1-1.338.199H40.39V3.522zm2.246 1.683v4.066h.551c.47 0 .807-.052 1.001-.157s.357-.293.47-.554.174-.7.174-1.296c0-.794-.123-1.328-.378-1.62s-.664-.439-1.256-.439h-.562zm5.065 3.304l2.144-.136c.051.355.143.627.286.815.235.303.562.449.991.449.316 0 .572-.073.745-.23s.266-.335.266-.533c0-.188-.082-.366-.245-.523s-.551-.293-1.154-.429c-.991-.23-1.685-.533-2.114-.909s-.633-.857-.633-1.443a2.01 2.01 0 0 1 .327-1.087c.215-.345.541-.606.98-.805s1.031-.293 1.787-.293c.929 0 1.644.178 2.124.533.49.355.776.92.868 1.693l-2.124.125c-.061-.334-.174-.575-.357-.732s-.429-.23-.745-.23c-.266 0-.459.052-.592.167s-.194.251-.194.418a.42.42 0 0 0 .163.324c.102.094.357.188.756.272.98.22 1.685.439 2.114.659s.735.502.929.826.286.7.286 1.108a2.39 2.39 0 0 1-.388 1.317c-.255.408-.623.711-1.082.92s-1.052.314-1.756.314c-1.236 0-2.093-.24-2.573-.732-.47-.491-.735-1.108-.807-1.861zm7.178 0l2.144-.136c.051.355.143.627.286.815.235.303.562.449.99.449.317 0 .572-.073.745-.23s.265-.335.265-.533c0-.188-.082-.366-.245-.523s-.551-.293-1.154-.429c-.99-.23-1.685-.533-2.114-.909-.419-.376-.633-.857-.633-1.443a2.01 2.01 0 0 1 .327-1.087c.215-.345.541-.606.98-.805s1.031-.293 1.787-.293c.929 0 1.644.178 2.124.533.49.355.776.92.868 1.693l-2.124.125c-.061-.334-.174-.575-.357-.732s-.429-.23-.745-.23c-.265 0-.459.052-.592.167s-.194.251-.194.418a.42.42 0 0 0 .163.324c.102.094.357.188.756.272.98.22 1.685.439 2.114.659s.735.502.929.826.286.7.286 1.108a2.39 2.39 0 0 1-.388 1.317c-.255.408-.623.711-1.082.92s-1.052.314-1.756.314c-1.236 0-2.093-.24-2.573-.732s-.745-1.108-.807-1.861z" fill="#d2dce0"/></svg>