<svg xmlns="http://www.w3.org/2000/svg" width="56" height="24" fill="#d2dce0"><path d="M23.11 12.81l-2.762 7.524-.296-1.529c-.687-1.874-2.177-3.839-3.91-4.636l2.525 9.659h2.986l4.441-11.015H23.11v-.003zm2.366 11.026l1.765-11.038h2.82l-1.765 11.038h-2.82zm13.055-10.765c-.557-.223-1.438-.466-2.528-.466-2.791 0-4.751 1.499-4.768 3.643-.017 1.587 1.403 2.475 2.47 3.002 1.101.539 1.47.887 1.467 1.368-.012.741-.881 1.078-1.69 1.078-1.128 0-1.728-.167-2.652-.577l-.365-.176-.394 2.469c.661.308 1.878.574 3.145.589 2.962 0 4.887-1.482 4.91-3.769.012-1.259-.742-2.211-2.371-2.999-.983-.512-1.591-.849-1.583-1.371 0-.457.51-.949 1.617-.949.925-.015 1.589.199 2.11.425l.252.126.38-2.393zm7.233-.261h-2.18c-.675 0-1.183.193-1.481.917l-4.186 10.112h2.962l.594-1.66 3.612.006.342 1.652h2.62L45.764 12.81zm-3.478 7.114l1.125-3.087c-.017.029.232-.639.374-1.051l.188.952.655 3.186h-2.342z"/><path d="M17.788 12.804h-4.551l-.026.19c3.536.914 5.87 3.16 6.844 5.813l-.988-5.072c-.171-.7-.667-.908-1.278-.931zM4.703 10.136H2.906L.83.685 2.819.349l1.42 7.398L7.854.448h1.91l-5.061 9.688zm9.357-3.09H9.77c-.116 1.315.487 1.886 1.51 1.886.858 0 1.612-.322 2.426-.838L13.7 9.409a5.13 5.13 0 0 1-2.797.826c-1.867 0-3.102-1.078-2.731-3.508.333-2.194 1.838-3.523 3.58-3.523 2.006 0 2.673 1.523 2.383 3.438l-.075.404zM11.535 4.36c-.664 0-1.284.53-1.577 1.637h2.658c.046-1.048-.278-1.637-1.081-1.637zm5.319 1.861l-.591 3.872h-1.661l1.029-6.753h1.412v1.356c.562-.782 1.328-1.441 2.374-1.497l.009 1.663c-1.046.073-1.989.633-2.571 1.359zm2.551 3.874l1.029-6.753h1.661l-1.029 6.753h-1.661zm2.046-7.887c-.554 0-.936-.392-.852-.952a1.16 1.16 0 0 1 1.145-.978c.539 0 .922.404.835.978-.087.562-.588.952-1.128.952zm5.245-.711c-.568 0-.91.252-1.003.852l-.151.993h1.273v1.371h-1.481l-.82 5.383h-1.647l.82-5.383h-.968l.209-1.371h.968l.177-1.16C24.302.685 25.328.126 26.696.126a3.95 3.95 0 0 1 .67.056l.012 1.371c-.162-.029-.406-.056-.681-.056zm.017 8.598l1.029-6.753h1.661l-1.029 6.753h-1.661zm2.044-7.887c-.554 0-.936-.392-.852-.952A1.16 1.16 0 0 1 29.05.278c.539 0 .922.404.835.978-.084.562-.585.952-1.128.952zm7.082 4.838h-4.29c-.116 1.315.487 1.886 1.51 1.886.858 0 1.612-.322 2.426-.838l-.006 1.315c-.797.504-1.716.826-2.797.826-1.867 0-3.102-1.078-2.731-3.508.333-2.194 1.838-3.523 3.58-3.523 2.006 0 2.673 1.523 2.383 3.438l-.075.404zM33.314 4.36c-.664 0-1.284.53-1.577 1.637h2.655c.052-1.048-.275-1.637-1.078-1.637zm7.444 5.735l.003-.937c-.557.574-1.284 1.078-2.212 1.078-1.397 0-2.36-1.048-2.012-3.327.383-2.516 1.925-3.634 3.473-3.634.638 0 1.131.111 1.51.252L42.016.27 43.72 0l-1.536 10.095h-1.426zm.556-5.187a2.42 2.42 0 0 0-1.255-.293c-.873 0-1.617.712-1.844 2.196-.2 1.315.261 1.93.994 1.93.609 0 1.134-.363 1.664-.923l.441-2.911zm5.957 5.248c-.786 0-1.426-.126-2.023-.34l1.093-7.166 1.287-.202-.472 3.101c.377-.34.899-.677 1.539-.677 1.07 0 1.786.805 1.525 2.522-.287 1.883-1.438 2.762-2.948 2.762zm.928-4.162c-.42 0-.841.287-1.212.668l-.354 2.319a1.82 1.82 0 0 0 .777.138c.797 0 1.354-.486 1.531-1.652.148-.984-.177-1.473-.742-1.473zm4.983 4.377c-.644 1.259-1.278 1.652-2.252 1.652a1.51 1.51 0 0 1-.452-.053l-.009-1.049a2.2 2.2 0 0 0 .577.073c.368 0 .687-.17.899-.539l.168-.34-1.067-5.04 1.336-.17.62 3.643 1.673-3.57h1.246l-2.739 5.392z"/></svg>