<svg xmlns="http://www.w3.org/2000/svg" width="14" height="14" fill="none"><g clip-path="url(#A)"><rect width="14" height="14" rx="1.615" fill="#fff"/><path d="M10.77 11.308h.538m-2.154 0H8.077V9.692m1.615 0h1.615V8.077h-.538m-2.692 0h1.077M2.693 9.692c0-.502 0-.753.082-.951.109-.264.319-.473.583-.583.198-.082.449-.082.951-.082s.753 0 .951.082c.264.109.473.319.583.583.082.198.082.449.082.951s0 .753-.082.95a1.08 1.08 0 0 1-.583.583c-.198.082-.449.082-.951.082s-.753 0-.951-.082c-.131-.054-.249-.133-.349-.233s-.179-.219-.233-.349c-.082-.198-.082-.449-.082-.951zm5.385-5.385c0-.502 0-.753.082-.951.109-.264.319-.473.583-.583.198-.082.449-.082.951-.082s.753 0 .951.082c.264.109.473.319.583.583.082.198.082.449.082.951s0 .753-.082.95c-.054.131-.133.249-.233.35a1.08 1.08 0 0 1-.349.234c-.198.082-.449.082-.951.082s-.753 0-.951-.082c-.131-.054-.249-.133-.349-.233s-.179-.219-.233-.349c-.082-.198-.082-.449-.082-.951zm-5.385 0c0-.502 0-.753.082-.951.109-.264.319-.473.583-.583.198-.082.449-.082.951-.082s.753 0 .951.082c.264.109.473.319.583.583.082.198.082.449.082.951s0 .753-.082.95c-.054.131-.133.249-.233.35s-.219.179-.349.234c-.198.082-.449.082-.951.082s-.753 0-.951-.082c-.131-.054-.249-.133-.349-.233s-.179-.219-.233-.349c-.082-.198-.082-.449-.082-.951z" stroke="#000" stroke-width="1.077" stroke-linecap="round" stroke-linejoin="round"/></g><defs><clipPath id="A"><rect width="14" height="14" rx="1.615" fill="#fff"/></clipPath></defs></svg>