<svg xmlns="http://www.w3.org/2000/svg" width="16" height="16" fill="#fff"><path d="M13.838 11.307c-.275-.784-.916-1.182-1.535-1.566-.538-.335-1.047-.651-1.379-1.219C10.007 6.949 9.503 6 8.002 6s-2.007.949-2.925 2.522c-.333.569-.844.886-1.383 1.221-.619.385-1.258.781-1.534 1.564a2.44 2.44 0 0 0-.159.884C2 13.464 3.014 14.5 4.138 14.5s2.603-.567 3.868-.567 2.723.567 3.861.567S14 13.464 14 12.191a2.45 2.45 0 0 0-.162-.884zM2.25 9C3.217 9 4 7.993 4 6.75S3.217 4.5 2.25 4.5.5 5.507.5 6.75 1.284 9 2.25 9zm3.5-3C6.717 6 7.5 4.993 7.5 3.75S6.717 1.5 5.75 1.5 4 2.507 4 3.75 4.784 6 5.75 6zm4.5 0C11.217 6 12 4.993 12 3.75s-.784-2.25-1.75-2.25S8.5 2.507 8.5 3.75 9.284 6 10.25 6zm3.5 3c.966 0 1.75-1.007 1.75-2.25s-.784-2.25-1.75-2.25S12 5.507 12 6.75 12.784 9 13.75 9z"/></svg>