<svg xmlns="http://www.w3.org/2000/svg" xmlns:xlink="http://www.w3.org/1999/xlink" width="32" height="32" fill="none" xmlns:v="https://vecta.io/nano"><style><![CDATA[.B{color-interpolation-filters:sRGB}.C{flood-opacity:0}]]></style><path d="M15.868 29.875c.979 0 1.773-.794 1.773-1.773s-.794-1.773-1.773-1.773-1.773.794-1.773 1.773.794 1.773 1.773 1.773z" fill="url(#F)"/><use xlink:href="#V" fill="url(#G)"/><use xlink:href="#V" fill="url(#H)"/><use xlink:href="#V" fill="url(#I)"/><use xlink:href="#V" fill="url(#J)"/><g filter="url(#A)"><use xlink:href="#W" fill="url(#K)"/><use xlink:href="#W" fill="url(#L)"/></g><path d="M17.462 10.281a3.33 3.33 0 0 0 3.328-3.328 3.33 3.33 0 0 0-3.328-3.328 3.33 3.33 0 0 0-3.328 3.328 3.33 3.33 0 0 0 3.328 3.328z" fill="url(#M)"/><g filter="url(#B)"><path d="M15.479 22.966c-.035-2.172-.208-3.602-.472-4.598-.303-1.147-.728-1.72-1.178-2.173l-.005-.006-.006-.005c-.434-.41-.735-.942-.863-1.525s-.079-1.192.141-1.747.603-1.031 1.097-1.366 1.078-.514 1.675-.514 1.181.179 1.675.515.877.811 1.098 1.366.27 1.163.141 1.747-.429 1.114-.863 1.525l-.006.005-.006.006c-.441.446-.872.98-1.179 2.118-.266.985-.44 2.42-.475 4.651l1.001-.03c.036-2.168.206-3.496.44-4.36.252-.937.577-1.325.918-1.67.578-.549.977-1.258 1.148-2.036s.104-1.59-.192-2.33-.806-1.374-1.465-1.821-1.438-.686-2.234-.686-1.575.239-2.235.686-1.17 1.081-1.465 1.821-.362 1.551-.192 2.33.57 1.487 1.148 2.036c.333.337.662.758.917 1.72.232.879.4 2.204.437 4.31l1 .032" fill="#ffad55"/></g><g filter="url(#C)"><path d="M16.8791 22.739C16.8791 17.968 17.6101 17.206 18.3941 16.415C18.9007 15.9358 19.2519 15.3157 19.4022 14.6347C19.5525 13.9538 19.495 13.2434 19.2372 12.5955C18.9793 11.9476 18.5329 11.3919 17.9558 11.0005C17.3787 10.6091 16.6975 10.3998 16.0001 10.3998C15.3028 10.3998 14.6215 10.6091 14.0444 11.0005C13.4673 11.3919 13.0209 11.9476 12.7631 12.5955C12.5052 13.2434 12.4477 13.9538 12.598 14.6347C12.7483 15.3157 13.0995 15.9358 13.6061 16.415C14.3901 17.206 15.1171 18.576 15.1171 22.739" stroke="url(#N)" stroke-width=".25"/></g><g filter="url(#D)"><path d="M18.631 24.152l-5.672.889c-.292.046-.491.319-.446.611s.319.491.611.446l5.672-.889c.292-.046.491-.32.446-.611s-.32-.491-.611-.446z" fill="#7e6693"/></g><g filter="url(#E)"><path d="M18.631 26.523l-5.672.889c-.292.046-.491.319-.446.611s.319.491.611.446l5.672-.889c.292-.046.491-.319.446-.611s-.32-.491-.611-.446z" fill="#7e6693"/></g><use xlink:href="#X" fill="url(#O)"/><use xlink:href="#X" fill="url(#P)"/><use xlink:href="#X" fill="url(#Q)"/><use xlink:href="#X" fill="url(#R)"/><use xlink:href="#X" y="-2.377" fill="url(#S)"/><use xlink:href="#X" y="-2.377" fill="url(#P)"/><use xlink:href="#X" y="-2.377" fill="url(#T)"/><path d="M19.36 23.883l-7.131 1.117a.55.55 0 0 0 .171 1.089l7.131-1.117a.55.55 0 0 0-.171-1.089z" fill="url(#U)"/><defs><filter id="A" x="7.258" y="1.993" width="17.546" height="21.126" filterUnits="userSpaceOnUse" class="B"><feFlood class="C"/><feBlend in="SourceGraphic" result="B"/><feColorMatrix in="SourceAlpha" values="0 0 0 0 0 0 0 0 0 0 0 0 0 0 0 0 0 0 127 0" result="C"/><feOffset dx="0.25" dy="0.15"/><feGaussianBlur stdDeviation=".5"/><feComposite in2="C" operator="arithmetic" k2="-1" k3="1"/><feColorMatrix values="0 0 0 0 0.992157 0 0 0 0 0.666667 0 0 0 0 0.309804 0 0 0 1 0"/><feBlend in2="B"/></filter><filter id="B" x="11.884" y="10.032" width="8.218" height="12.934" filterUnits="userSpaceOnUse" class="B"><feFlood class="C"/><feBlend in="SourceGraphic" result="B"/><feColorMatrix in="SourceAlpha" values="0 0 0 0 0 0 0 0 0 0 0 0 0 0 0 0 0 0 127 0" result="C"/><feOffset dx="0.25"/><feGaussianBlur stdDeviation=".25"/><feComposite in2="C" operator="arithmetic" k2="-1" k3="1"/><feColorMatrix values="0 0 0 0 1 0 0 0 0 0.572549 0 0 0 0 0.254902 0 0 0 1 0"/><feBlend in2="B"/></filter><filter id="C" x="12.141" y="10.025" width="7.718" height="12.964" filterUnits="userSpaceOnUse" class="B"><feFlood class="C"/><feBlend in="SourceGraphic"/><feGaussianBlur stdDeviation=".125"/></filter><filter id="D" x="12.256" y="23.895" width="7.242" height="2.459" filterUnits="userSpaceOnUse" class="B"><feFlood class="C"/><feBlend in="SourceGraphic"/><feGaussianBlur stdDeviation=".125"/></filter><filter id="E" x="12.256" y="26.266" width="7.242" height="2.459" filterUnits="userSpaceOnUse" class="B"><feFlood class="C"/><feBlend in="SourceGraphic"/><feGaussianBlur stdDeviation=".125"/></filter><radialGradient id="F" cx="0" cy="0" r="1" gradientTransform="translate(16.3372 29.11) rotate(96.6541) scale(0.943858 2.18614)" xlink:href="#Y"><stop offset=".268" stop-color="#ac90c6"/><stop offset="1" stop-color="#8e6aaa"/></radialGradient><linearGradient id="G" x1="19.297" y1="25.802" x2="12.516" y2="25.802" xlink:href="#Y"><stop stop-color="#cdc2d1"/><stop offset="1" stop-color="#947c8d"/></linearGradient><linearGradient id="H" x1="12.181" y1="26.313" x2="13.837" y2="26.313" xlink:href="#Y"><stop stop-color="#8a7b88"/><stop offset="1" stop-color="#8a7b88" stop-opacity="0"/></linearGradient><radialGradient id="I" cx="0" cy="0" r="1" gradientTransform="matrix(0.019639653476767875,0.8246401638819882,-3.6713789386542564,0.0874376646871545,17.3051,22.64)" xlink:href="#Y"><stop offset=".229" stop-color="#ede2eb"/><stop offset="1" stop-color="#c8bccb" stop-opacity="0"/></radialGradient><linearGradient id="J" x1="17.462" y1="28.891" x2="17.462" y2="27.625" xlink:href="#Y"><stop stop-color="#7e5f9e"/><stop offset="1" stop-color="#7e5f9e" stop-opacity="0"/></linearGradient><radialGradient id="K" cx="0" cy="0" r="1" gradientTransform="translate(19.5562 8.1261) rotate(138.066) scale(9.91369 8.17473)" xlink:href="#Y"><stop offset=".286" stop-color="#ffec87"/><stop offset="1" stop-color="#ffcd4b"/></radialGradient><radialGradient id="L" cx="0" cy="0" r="1" gradientTransform="matrix(-12.312450823194139,-7.812513189520128,7.514572688989186,-11.84289926250738,20.4932,13.438)" xlink:href="#Y"><stop offset=".622" stop-color="#ffb239" stop-opacity="0"/><stop offset="1" stop-color="#ffb239"/></radialGradient><linearGradient id="M" x1="16.298" y1="8.027" x2="19.72" y2="5.361" xlink:href="#Y"><stop stop-color="#fff" stop-opacity="0"/><stop offset=".594" stop-color="#fff"/></linearGradient><linearGradient id="N" x1="19.72" y1="10.997" x2="15.714" y2="20.54" xlink:href="#Y"><stop stop-color="#ffbf5c"/><stop offset="1" stop-color="#ffbf5c" stop-opacity="0"/></linearGradient><linearGradient id="O" x1="15.697" y1="26.844" x2="15.963" y2="28.032" xlink:href="#Y"><stop stop-color="#b1969a"/><stop offset="1" stop-color="#dad2e2"/></linearGradient><linearGradient id="P" x1="16.822" y1="27.75" x2="16.697" y2="26.969" xlink:href="#Y"><stop stop-color="#8a68a9"/><stop offset="1" stop-color="#dec2e3" stop-opacity="0"/></linearGradient><linearGradient id="Q" x1="11.685" y1="28.094" x2="14.415" y2="27.516" xlink:href="#Y"><stop stop-color="#958387"/><stop offset="1" stop-color="#958387" stop-opacity="0"/></linearGradient><radialGradient id="R" cx="0" cy="0" r="1" gradientTransform="matrix(0.12499946353291888,0.8281333433164507,-4.901587409270068,0.739851621195189,18.5553,26.7681)" xlink:href="#Y"><stop offset=".127" stop-color="#fcf0fc"/><stop offset="1" stop-color="#e5c9e3" stop-opacity="0"/></radialGradient><linearGradient id="S" x1="15.697" y1="26.845" x2="15.963" y2="28.032" xlink:href="#Y"><stop stop-color="#b1969a"/><stop offset="1" stop-color="#dad2e2"/></linearGradient><linearGradient id="T" x1="11.685" y1="28.095" x2="14.415" y2="27.516" xlink:href="#Y"><stop stop-color="#958387"/><stop offset="1" stop-color="#958387" stop-opacity="0"/></linearGradient><radialGradient id="U" cx="0" cy="0" r="1" gradientTransform="translate(18.5553 24.3911) rotate(81.4165) scale(0.837513 4.95709)" xlink:href="#Y"><stop offset=".127" stop-color="#fcf0fc"/><stop offset="1" stop-color="#e5c9e3" stop-opacity="0"/></radialGradient><path id="V" d="M18.047 22.172h-4.281a1.25 1.25 0 0 0-1.25 1.25v4.219a1.25 1.25 0 0 0 1.25 1.25h4.281a1.25 1.25 0 0 0 1.25-1.25v-4.219a1.25 1.25 0 0 0-1.25-1.25z"/><path id="W" d="M15.767 22.969h.054l2.347-.117c.55-.1.621-.375.719-.805.602-2.654 1.612-3.674 2.288-4.356l.286-.296.74-.825a8.65 8.65 0 0 0 1.652-9.34 8.65 8.65 0 0 0-7.908-5.237A8.65 8.65 0 0 0 7.99 7.158a8.65 8.65 0 0 0 1.567 9.355l.792.882.286.296c.675.682 1.686 1.703 2.288 4.356.098.43.169.705.719.805.511.093 1.546.114 2.07.116l.055.001z"/><path id="X" d="M19.36 26.26l-7.131 1.117a.55.55 0 0 0 .171 1.089l7.131-1.117a.55.55 0 0 0-.171-1.089z"/><linearGradient id="Y" gradientUnits="userSpaceOnUse"/></defs></svg>