<svg xmlns="http://www.w3.org/2000/svg" width="26" height="29" fill="none"><g fill="#7c9cac"><path d="M20.331 6.915v20.622A1.46 1.46 0 0 1 18.875 29H1.982a1.46 1.46 0 0 1-1.456-1.464V6.915a1.46 1.46 0 0 1 1.456-1.464h16.892a1.46 1.46 0 0 1 1.456 1.464z"/><path d="M20.331 6.915v20.179H3.592a1.46 1.46 0 0 1-1.456-1.464V5.451h16.739a1.46 1.46 0 0 1 1.456 1.464z"/></g><path d="M24.536 23.1l-16.165 4.93c-.77.235-1.583-.203-1.816-.975L.603 7.319c-.234-.773.201-1.591.97-1.826l.314-.096L17.739.564c.77-.235 1.582.202 1.816.976l5.818 19.286.135.448c.233.773-.201 1.59-.971 1.825z" fill="#f0f5fa"/><path d="M25.373 20.826L9.522 25.659c-.77.235-1.583-.203-1.816-.975L1.888 5.398 17.739.564c.77-.235 1.582.202 1.816.976l5.818 19.286z" fill="#fff"/><g fill-rule="evenodd" fill="#3b566e"><path d="M12.205 8.725c-.651.035-1.446.401-2.047 1.08a.73.73 0 1 1-1.095-.97c.83-.938 1.978-1.513 3.063-1.571 1.118-.06 2.236.448 2.665 1.714.331.976.171 1.777-.301 2.424-.399.547-1.006.951-1.483 1.268l-.067.044c-.546.364-.937.639-1.165.965-.179.255-.284.578-.087 1.158.155.458.407.694.67.815.28.128.645.156 1.047.061.842-.2 1.557-.858 1.695-1.568a.73.73 0 0 1 1.436.28c-.274 1.41-1.541 2.414-2.793 2.711-.644.153-1.354.139-1.995-.154-.657-.301-1.172-.866-1.447-1.675-.336-.991-.19-1.805.274-2.468.406-.579 1.032-.996 1.519-1.321l.033-.022c.552-.368.946-.638 1.18-.958.18-.246.283-.546.098-1.092-.173-.509-.583-.756-1.201-.723z"/><path d="M9.107 13.45a.73.73 0 0 1 .458-.928l5.326-1.806a.73.73 0 1 1 .47 1.385l-5.326 1.806a.73.73 0 0 1-.928-.458z"/></g><path d="M21.224 17.639a.43.43 0 0 0-.537-.289l-12.29 3.749c-.228.069-.357.312-.287.54a.43.43 0 0 0 .413.308.42.42 0 0 0 .125-.019l12.289-3.748c.227-.071.356-.312.286-.541zm.717 2.378a.43.43 0 0 0-.537-.289L9.115 23.477c-.228.07-.357.312-.288.541.057.187.227.308.413.308a.42.42 0 0 0 .125-.019l12.289-3.748c.227-.071.357-.312.287-.542z" fill="#dee7f3"/><path d="M7.262 3.759l-.825.252c-.255-.764-.975-1.317-1.821-1.317a1.93 1.93 0 0 0-1.921 1.931v5.011c0 .623.504 1.129 1.123 1.129s1.123-.507 1.123-1.129V4.636a.34.34 0 0 0-.038-.157c-.057-.113-.173-.19-.309-.19-.19 0-.346.156-.346.348v4.3c0 .239-.193.433-.431.433s-.431-.194-.431-.433V4.636c0-.669.542-1.215 1.208-1.215a1.21 1.21 0 0 1 1.137.804c.046.128.071.267.071.411v4.999c0 1.1-.891 1.996-1.986 1.996s-1.985-.896-1.985-1.996V4.625c0-1.543 1.248-2.798 2.783-2.798a2.79 2.79 0 0 1 2.647 1.932z" fill="#e84f35"/></svg>