<svg xmlns="http://www.w3.org/2000/svg" width="121" height="120" fill="none"><circle cx="60.5" cy="60" r="60" fill="#f0f5fa"/><path d="M31.583 72.371l11.783 11.783c-.769.796-1.688 1.431-2.705 1.868s-2.11.667-3.217.676-2.204-.201-3.228-.62-1.954-1.038-2.737-1.82-1.401-1.713-1.82-2.737-.63-2.121-.62-3.228.239-2.2.676-3.217 1.072-1.936 1.867-2.705zm36.946 22.188L65.588 97.5 18.5 50.413l2.942-2.942 4.592.654c3.142.45 7.037-.508 8.654-2.125l16.188-16.183a24.97 24.97 0 0 1 35.146.167 24.97 24.97 0 0 1 .167 35.146L70 81.317c-1.617 1.617-2.575 5.513-2.125 8.654l.654 4.588z" fill="url(#A)"/><circle cx="85.48" cy="75.607" r="15.318" fill="#e84f35"/><path d="M90.074 74.182v2.256c0 1.212-.108 2.235-.325 3.069s-.528 1.504-.935 2.012-.898.877-1.473 1.108c-.569.224-1.213.335-1.931.335-.569 0-1.094-.071-1.575-.213s-.914-.369-1.301-.681c-.379-.318-.704-.732-.975-1.24s-.478-1.124-.62-1.849-.213-1.572-.213-2.54v-2.256c0-1.213.108-2.229.325-3.048.224-.82.539-1.477.945-1.971a3.44 3.44 0 0 1 1.463-1.077c.576-.217 1.219-.325 1.931-.325a5.57 5.57 0 0 1 1.585.213c.488.136.921.356 1.3.66.379.298.701.698.965 1.199.271.495.478 1.101.62 1.819s.213 1.561.213 2.53zm-1.89 2.561v-2.876c0-.664-.041-1.246-.122-1.748-.075-.508-.186-.942-.335-1.301s-.339-.65-.569-.874a2.01 2.01 0 0 0-.782-.488 2.81 2.81 0 0 0-.986-.163c-.447 0-.843.085-1.189.254-.346.163-.637.423-.874.782-.23.359-.406.83-.528 1.412s-.183 1.29-.183 2.124v2.876c0 .664.037 1.25.112 1.758.081.508.2.948.356 1.321.156.366.346.667.569.904s.481.413.772.528c.298.108.627.163.986.163.461 0 .864-.088 1.209-.264s.633-.45.864-.823c.237-.379.413-.864.528-1.453.115-.596.173-1.307.173-2.134z" fill="#fff"/><defs><linearGradient id="A" x1="55.917" y1="22.67" x2="55.917" y2="97.5" gradientUnits="userSpaceOnUse"><stop stop-color="#ffc063"/><stop offset="1" stop-color="#e8961e"/></linearGradient></defs></svg>