<svg xmlns="http://www.w3.org/2000/svg" width="218" height="213" fill="none" xmlns:v="https://vecta.io/nano"><style><![CDATA[.B{fill:#e84f35}.C{fill-opacity:.5}.D{fill:#ffd578}.E{fill:#f7a964}.F{fill:#172a3a}.G{fill:#ff6a51}.H{fill-opacity:.7}.I{stroke-linecap:round}]]></style><path d="M177.147 124.788c-2.28-5.175-6.636-9.05-11.375-11.946-2.623-1.606-5.583-2.674-8.062-4.476-3.896-2.835-4.927-6.851-5.85-11.386-1.242-6.121-11.058-5.482-9.799.731.064.344.143.682.218 1.03-.259.033-.537.083-.8.164-1.461.079-2.994.814-4.6 2.427-.286.283-.542.589-.791.91-2.516-.751-5.792.199-6.768 3.459-6.704 22.351 12.792 47.969 37.045 42.662 10.646-2.327 15.022-13.972 10.782-23.576z" class="F"/><g fill="#ffad64"><path d="M140.46 110.842c5.139 4.25 11.169 1.906 13.904-1.786 2.531-3.429.742-8.207-4.421-9.234-1.741-.354-3.852-.256-6.313.45 0 0-1.573 1.203-2.927 2.905-1.743 2.209-3.132 5.273-.243 7.666z"/><path d="M137.055 116.402c-12.31 2.174-18.442-6.166-17.496-16.32.415-4.509 1.272-9.358 4.051-13.034 2.526-3.381 6.087-5.804 10.286-6.181 8.786-.803 16.625 6.516 17.496 16.32-.001.037.002.063.001.1.798 9.766-5.993 17.636-14.338 19.115z"/></g><path d="M125.114 108.91c1.833.646 5.801-.958 7.768-3.732" stroke="#172a3a" class="I"/><path d="M144.771 84.341c-3.05-2.499-6.867-3.906-10.897-3.482-5.483.581-11.892 1.864-14.255 4.361s-.689 6.233 1.687 6.117c7.53-1.234 16.136-3.314 23.465-6.996zm-13.008 15.796c.638.224 1.337-.111 1.562-.75s-.109-1.339-.747-1.563-1.336.111-1.562.75.11 1.339.747 1.564zm-9.606-.194c.638.225 1.337-.111 1.562-.749s-.109-1.339-.747-1.563-1.337.111-1.562.75.109 1.338.747 1.563zm1.604 5.05c.13-2.753.638-5.458 1.532-8.065.253-.753 1.434-.386 1.17.363-.863 2.519-1.362 5.092-1.482 7.749-.022.797-1.253.747-1.22-.046z" class="F"/><path d="M143.784 106.218c1.682-2.354 4.767-3.322 7.465-2.21.721.304.368 1.48-.364 1.172-2.171-.889-4.667-.258-6.054 1.68-.466.653-1.509.001-1.047-.642z" class="B"/><path d="M146.889 100.144c-3.332 3.283-21.96-14.736-21.202-15.447 2.268-2.123 5.048-3.557 8.198-3.834 8.786-.803 20.008 6.21 17.768 19.474-.001.037-3.4-.591-4.764-.193z" class="F"/><path d="M160.318 65.137l-25.34 15.787c.152 1.907 1.658 6.517 6.47 9.696s8.601 3.65 9.894 3.487l8.976-28.971z" class="D"/><mask id="A" maskUnits="userSpaceOnUse" x="134" y="65" width="27" height="30" mask-type="alpha"><path d="M160.318 65.137l-25.34 15.787c.152 1.907 1.658 6.517 6.47 9.696s8.601 3.65 9.894 3.487l8.976-28.971z" class="D"/></mask><g mask="url(#A)" class="B"><path transform="rotate(343.611 136.393 73.402)" d="M136.393 73.402h6.994v29.67h-6.994z"/><path transform="rotate(343.611 145.765 64.346)" d="M145.765 64.346h6.994v29.67h-6.994z"/></g><ellipse cx="31.335" cy="32.318" rx="16.966" ry="19.323" transform="rotate(359.906 31.335 32.318)" class="B"/><ellipse cx="23.658" cy="67.07" rx="16.966" ry="19.323" transform="rotate(334.355 23.658 67.07)" class="D"/><ellipse cx="119.924" cy="50.969" rx="16.966" ry="19.323" transform="rotate(10.716 119.924 50.969)" class="B"/><ellipse cx="64.303" cy="21.121" rx="18.354" ry="20.904" transform="rotate(0.683 64.303 21.121)" fill="#ffa727"/><ellipse cx="46.157" cy="47.794" rx="20.982" ry="23.896" transform="rotate(334.355 46.157 47.794)" fill="#f3625e"/><ellipse cx="96.977" cy="30.951" rx="20.982" ry="23.896" transform="rotate(8.061 96.977 30.951)" class="D"/><ellipse cx="73.469" cy="44.888" rx="19.052" ry="21.698" transform="rotate(359.426 73.469 44.888)" fill="#09bc8a"/><ellipse cx="103.74" cy="64.963" rx="19.233" ry="22.147" transform="rotate(7.176 103.74 64.963)" class="G"/><path d="M87.752 188.553c3.181-7.12 5.345-14.492 6.38-22.182-3.405-1.556-7.228-3.661-11.942-3.837 0 0-9.138-4.272-12.925-.042-1.556 1.736.706 4.214.706 4.214s-1.023 2.046-.948 3.007c.171 2.451 2.146 4.478 2.146 4.478-1.286 3.254 2.538 7.615 13.46 13.068.976.494 2.03.916 3.122 1.294z" class="E"/><path d="M120.808 131.405c-6.576 7.576-7.742 31.472-20.514 35.196-3.582 1.72-7.174-.508-11.551-2.492.237 7.684-2.369 15.351-5.866 22.675 12.81 8.007 37.93 1.524 37.93 1.524s4.057-66.167.001-56.903z" fill="#cb4a34"/><g class="E"><path d="M201.728 106.653s.933-1.353-.724-2.852-3.873-.133-3.873-.133 1.836-2.868-1.03-4.061-6.827 5.893-11.074 16.891 3.806 18.404-1.44 27.729c-1.139 4.621-23.312-11.074-35.552-18.65.563 6.3 12.148 27.249 15.154 32.638 4.079 1.748 14.57 12.239 24.478 7.576 18.25-10.75 15.224-40.326 14.041-44.991-.814-3.211 2.383-9.229 2.788-11 .654-2.89-2.768-3.147-2.768-3.147z"/><path d="M184.219 128.131c-2.182-13.398-5.574-22.044-3.044-23.888 3.819-1.57 4.688 6.627 5.404 9.452 0 0 6.491-.836 7.655 5.061 1.157 5.908-10.015 9.375-10.015 9.375z"/></g><path d="M186 111l1 3c1.5 1.167 4.7 3.9 5.5 5.5" stroke="#ff6a51" class="I"/><path d="M197.485 102.683c-2.065 2.082-2.853 3.217-4.146 5.846-.279.564.561 1.064.841.501 1.26-2.561 1.986-3.62 3.995-5.647.438-.453-.243-1.155-.69-.7zm3.759 4.002c-1.592 2.404-2.577 4.463-3.262 7.27-.147.61.785.877.932.266.664-2.731 1.612-4.7 3.158-7.043.351-.521-.488-1.012-.828-.493z" class="G"/><path d="M120.5 204.5c21.124 2 40-5 53.5-16-.594-10.654-17.805-13.384-10.228-50.684-4.661-10.202-10.258-17.706-22.148-18.65-13.988-1.111-37.301 23.895-28.164 41.58 5.56 25.085 8.392 33.916 7.04 43.754z" class="B"/><path d="M77.514 175.699c1.748 2.332 0 8.16-2.332 12.822-3.139 6.277 2.332 8.743 2.332 13.405s-2.332 7.577-2.332 11.074m2.332-38.466c3.108 4.079 8.393 13.055 4.662 16.319s-1.554 11.462 0 15.153" stroke="#000"/><path d="M70.51 154.12c-2.93 3.368 5.688 6.693 5.688 6.693s0 2.179-1.072 2.179l1.748 1.748-2.799 13.646c7.628-.209 5.408 1.012 7.229-1.081.849-.977 2.639-3.39 2.011-6.486 2.63-1.62 4.654-4.604 4.654-4.604C85.701 155.5 72.66 151.649 70.51 154.12z" class="E"/><g stroke="#000"><path d="M76.348 164.043l9.909-54.785m-9.909 54.785l-19.816-59.448m19.816 58.282l-2.331-68.773"/><path d="M76.348 162.877L64.692 92.356"/><path d="M76.348 162.877l-8.159-73.435m8.159 73.435l8.742-74.601"/></g><path d="M80.416 163.748c-.583-.583-2.331-1.748-2.331-1.748s-1.259-.583-2.331-.583h-5.245l4.195 15.394c7.628-.209 5.408 1.012 7.229-1.081.849-.977 2.639-3.39 2.011-6.486 2.63-1.62 4.654-4.604 4.654-4.604-4.088-2.928-6.03-3.363-8.179-.892z" class="E"/><path d="M72.283 170.89c-.738.084-.665 1.244.081 1.168 2.541-.293 5.345-.248 7.764.682 1.019.392 2.986 1.238 1.795 2.998-.532.789-1.985.808-2.787.789-1.167-.026-2.206-.235-3.379-.112-.746.077-.665 1.245.081 1.168 1.952-.202 4.092.624 5.935-.322 1.308-.67 2.015-2.032 1.429-3.454-1.45-3.502-7.911-3.267-10.919-2.917zm3.596-9.942c-.751.011-.662 1.17.081 1.168 2.998-.019 5.144 2.451 4.747 5.412-2.519-1.651-6.904-1.742-9.355-1.696-.751.011-.67 1.179.081 1.168 2.822-.048 10.62-.078 10.007 4.41-.105.742 1.042.968 1.139.218.203-1.477-.229-2.578-1.038-3.406.152-.069.259-.192.294-.409.564-3.774-2.165-6.889-5.956-6.865z" class="G"/><ellipse cx="76.348" cy="72.54" rx="20.982" ry="23.896" class="B"/><ellipse cx="48.488" cy="87.426" rx="20.982" ry="23.896" transform="rotate(334.355 48.488 87.426)" fill="#ffa727"/><ellipse cx="93.287" cy="91.885" rx="18.202" ry="20.73" transform="rotate(14.332 93.287 91.885)" fill="#64b3f7"/><path d="M160.275 161.711c-5.129-4.662-11.462-22.147-13.988-30.307-1.943-3.108 2.914-9.441 7.577-7.576 13.987 5.595 19.816 16.901 24.478 19.816 2.798 1.748 2.914-7.577 5.246-9.908.582 1.748 3.7 4.193 8.742 6.994 5.245 2.914 9.908 4.079 11.074 2.914-3.497 7.771-6.412 22.293-17.485 25.061-6.994 1.748-19.233-1.166-25.644-6.994z" class="B"/><g fill="#fff"><circle cx="67.023" cy="35.822" r="4.663" class="C"/><circle cx="92.667" cy="18.337" r="4.663" fill-opacity=".3"/><circle cx="67.023" cy="62.632" r="3.497" class="C"/><circle cx="100.497" cy="57.497" r="3.497" class="C"/><circle cx="90.919" cy="80.699" r="2.914" class="C"/><circle cx="35.55" cy="81.282" r="4.663" class="C"/><circle cx="35.55" cy="40.485" r="4.663" class="C"/><circle cx="12.238" cy="61.466" r="2.331" class="H"/><circle cx="12.237" cy="68.46" r="1.166" class="H"/><circle cx="14.569" cy="73.123" r="1.166" class="H"/><circle cx="58.863" cy="12.509" r="4.663" class="C"/><circle cx="37.882" cy="50.975" r="2.331" fill-opacity=".3"/></g></svg>