<svg xmlns="http://www.w3.org/2000/svg" width="54" height="17" fill="none"><path d="M.07 3.923h2.651v8.997H.07V3.923zm2.74-2.501c0 .773-.559 1.398-1.432 1.398A1.33 1.33 0 0 1 0 1.422C-.017.613.542.006 1.396.006S2.791.613 2.81 1.422zm28.956 10.002c0-.997.647-1.718 1.577-1.718s1.56.703 1.56 1.718c0 .98-.632 1.7-1.577 1.7-.912 0-1.56-.719-1.56-1.7z" fill="#e84f35"/><path d="M7.462 6.286c.228.055.508.075.893.075 1.42 0 2.296-.758 2.296-2.032 0-1.146-.754-1.828-2.085-1.828-.543 0-.91.055-1.103.11v3.675zM4.816.631C5.64.482 6.797.372 8.426.372c1.647 0 2.822.332 3.61.999.754.628 1.262 1.663 1.262 2.884s-.387 2.254-1.086 2.958c-.912.905-2.259 1.313-3.838 1.313a6.45 6.45 0 0 1-.912-.055v4.454H4.816V.631zM19.15 8.652c-1.401-.018-2.487.332-2.487 1.423 0 .72.456 1.072 1.051 1.072.665 0 1.21-.461 1.384-1.033.035-.147.052-.314.052-.481v-.98zm.315 4.268l-.159-.905h-.052c-.561.722-1.438 1.109-2.453 1.109-1.735 0-2.769-1.329-2.769-2.772 0-2.346 1.998-3.473 5.028-3.455v-.128c0-.481-.245-1.164-1.56-1.164-.875 0-1.805.314-2.365.685l-.491-1.81c.595-.353 1.77-.795 3.33-.795 2.856 0 3.767 1.775 3.767 3.899v3.143c0 .868.035 1.7.122 2.199h-2.398v-.006zm6.169-9.036l1.279 4.435.419 1.682h.052l.385-1.682 1.051-4.435h2.856l-1.996 5.95c-1.227 3.586-2.05 5.027-3.015 5.932-.928.85-1.909 1.146-2.576 1.239l-.56-2.383c.332-.055.754-.222 1.156-.481.402-.222.841-.665 1.103-1.127.087-.128.139-.277.139-.406a1.05 1.05 0 0 0-.124-.463l-3.136-8.262h2.966zm18.958 6.136l.07 2.901h-2.313l-.122-1.274h-.052c-.332.554-1.138 1.478-2.682 1.478-1.733 0-3.013-1.146-3.013-3.936V3.884h2.68v4.861c0 1.313.404 2.106 1.332 2.106.736 0 1.156-.536 1.331-.978.07-.167.087-.387.087-.609v-5.38h2.68v6.136h.002zm6.693-1.368c-1.403-.018-2.489.332-2.489 1.423 0 .72.456 1.072 1.051 1.072a1.46 1.46 0 0 0 1.384-1.033c.035-.147.054-.314.054-.481v-.98zm.317 4.268l-.158-.905h-.052c-.56.722-1.436 1.109-2.452 1.109-1.735 0-2.767-1.329-2.767-2.772 0-2.346 1.996-3.473 5.029-3.455v-.128c0-.481-.245-1.164-1.56-1.164-.875 0-1.805.314-2.365.685l-.491-1.81c.595-.353 1.77-.795 3.328-.795 2.856 0 3.767 1.775 3.767 3.899v3.143c0 .868.035 1.7.122 2.199h-2.398v-.006z" fill="#7b9aa9"/></svg>