<svg xmlns="http://www.w3.org/2000/svg" width="79" height="23" fill="none"><g clip-path="url(#A)"><path fill-rule="evenodd" d="M18.264 12.063c.487-2.393 2.252-3.558 3.552-3.759.405-.053.817-.079 1.255 0 1.091.3 1.272.764.886 1.33-.822.941-1.586 1.936-2.228 3.044-.414.707-.772 1.682-.923 3.666-.056 2.042-.981 3.638-2.542 4.91v-9.191zm-3.106 10.761c-1.34.314-2.605.215-3.798-.26l2.646-4.076h1.152v4.336zm-6.349-1.935l2.059-3.023c-.759-.345-1.348-.831-1.761-1.456s-.62-1.433-.62-2.422c0-.665.14-1.247.421-1.744s.637-.902 1.069-1.22a3.93 3.93 0 0 1 1.379-.608c.54-.132 1.16-.197 1.86-.197h2.959l-.135-.951-1.462-7.983c-.308-1.619-2.572-1.832-2.549.099.01.797.197 1.582.295 2.374.187 1.213.182 2.49.074 3.802-.329 1.403-1.863-1.486-2.02-1.758-.974-1.695-1.706-3.72-2.781-4.343-.877-.387-1.964.313-1.687 1.541.053.481.963 2.009 1.905 3.809l1.334 2.814c.188.57-.036.623-.406.497-1.799-1.08-3.243-2.693-5.171-4.363-.922-.798-2.533.711-1.699 1.802 1.42 1.859 3.23 3.124 4.801 4.586.845.786.448 1.45-.801 1.193-1.561-.321-3.005-1.113-4.567-1.839a.89.89 0 0 0-.69-.025c-.62.257-.711.893-.541 1.603.122.512.485.884 1.01 1.093 1.109.444 2.13.826 3.188 1.429.783.445 1.841 1.356 2.302 2.125.591.986 1.043 1.942 1.724 2.659l.511.506zm6.349-4.755h-.984c-.469 0-.845-.021-1.131-.063s-.535-.147-.748-.323a1.57 1.57 0 0 1-.441-.584c-.106-.237-.16-.506-.16-.803 0-.288.051-.552.151-.788s.244-.428.433-.575c.247-.194.5-.305.762-.338s.635-.048 1.118-.048h1.002v3.523h-.002z" fill="#56ccf2"/></g><g clip-path="url(#B)"><path fill-rule="evenodd" d="M76.401 21.826l-.476.403a3.16 3.16 0 0 1-.567.355c-.23.114-.456.203-.677.264s-.524.091-.92.091c-.736 0-1.346-.248-1.829-.745s-.729-1.121-.729-1.875c0-.619.125-1.123.369-1.501s.601-.686 1.064-.909c.469-.228 1.029-.387 1.679-.476l2.1-.207v-.046c0-.458-.171-.777-.506-.952s-.843-.264-1.517-.264c-.307 0-.663.055-1.07.166s-.809.253-1.198.426h-.221v-2.02c.257-.073.672-.162 1.246-.264a10.05 10.05 0 0 1 1.733-.15c1.433 0 2.478.239 3.134.718S79 16.049 79 17.031v5.679h-2.599v-.884zm0-1.292v-1.745l-1.059.116c-.271.03-.535.093-.795.189a1.11 1.11 0 0 0-.526.36c-.125.162-.187.378-.187.647 0 .392.105.661.312.809s.517.221.925.221c.225 0 .456-.052.692-.157a2.25 2.25 0 0 0 .638-.44zm-5.647-4.344h-3.922v6.519h-2.599v-8.33h6.521v1.811zm-10.551 2.373c0-.492-.041-.902-.125-1.228s-.196-.59-.339-.788c-.153-.207-.326-.353-.522-.433s-.415-.121-.663-.121c-.232 0-.447.036-.633.107s-.364.207-.524.41c-.148.194-.269.455-.358.79s-.134.759-.134 1.264.043.92.127 1.232.196.563.33.749.312.332.522.421a1.75 1.75 0 0 0 .695.134 1.68 1.68 0 0 0 .638-.134c.216-.089.387-.221.517-.399.155-.212.271-.467.353-.765.075-.303.116-.715.116-1.241zm2.66-.016c0 1.371-.376 2.449-1.125 3.237s-1.811 1.182-3.184 1.182c-1.362 0-2.421-.396-3.177-1.182s-1.132-1.868-1.132-3.237c0-1.383.378-2.467 1.132-3.25s1.813-1.175 3.177-1.175 2.426.396 3.18 1.182 1.13 1.87 1.13 3.243zm-9.983 4.162h-2.553v-5.227l-1.697 3.465h-1.105l-1.697-3.465v5.227h-2.478v-8.33h2.827l1.938 3.854 1.936-3.854h2.829v8.33zm-13.56-4.146c0-.492-.041-.902-.125-1.228s-.196-.59-.339-.788c-.153-.207-.326-.353-.522-.433s-.415-.121-.663-.121c-.232 0-.447.036-.633.107s-.364.207-.524.41c-.148.194-.269.455-.358.79s-.134.759-.134 1.264.043.92.127 1.232.196.563.33.749a1.23 1.23 0 0 0 .522.421c.207.089.442.134.695.134a1.68 1.68 0 0 0 .638-.134c.216-.089.387-.221.517-.399a2.33 2.33 0 0 0 .353-.765c.075-.303.116-.715.116-1.241zm2.658-.016c0 1.371-.376 2.449-1.125 3.237s-1.811 1.182-3.184 1.182c-1.362 0-2.421-.396-3.178-1.182s-1.132-1.868-1.132-3.237c0-1.383.378-2.467 1.132-3.25s1.815-1.175 3.18-1.175 2.426.396 3.18 1.182 1.128 1.87 1.128 3.243zm-9.993 4.162h-2.599V16.22h-2.644v6.489h-2.599v-8.33h7.842v8.33z" fill="#56ccf2"/></g><defs><clipPath id="A"><path fill="#fff" d="M0 0h24.144v23.006H0z"/></clipPath><clipPath id="B"><path fill="#fff" transform="translate(24.144 14.122)" d="M0 0h54.856v8.845H0z"/></clipPath></defs></svg>