<svg xmlns="http://www.w3.org/2000/svg" width="101" height="66" fill="none"><g clip-path="url(#A)"><circle cx="58.975" cy="40" r="40" fill="#e3f2fe"/><g fill="#f4a13f"><path d="M67.654 63.198c.119 3.037-2.048 11.279-2.048 11.279-2.825-7.544-7.589-4.878-10.114-1.174l-.967-.724c3.351-4.807 6.649-10.378 6.856-13.875l.83 3.39s.786-3.907 0-10.573c-.512-4.313-1.519-8.502-2.168-10.93.194-.194.375-.411.53-.64.309-.45.521-.989.649-1.616.243-.075.552-.194.887-.371.102 1.598.415 4.485 1.36 7.483 1.422 4.498 4.066 14.713 4.181 17.746l.004.005z"/><path d="M56.533 97.905c.08 2.6-.667 3.072-1.258 6.622s-.079 8.122 0 10.175c.035.923-.402 2.132-.693 3.253-2.64.437-9.633 1.311-14.785-.666-4.609-1.77-7.395-4.525-8.613-5.969a20.6 20.6 0 0 1 .804-2.847c1.479-4.141-.15-3.699 1.183-7.628s6.741-19.371 6.445-25.198-8.432-5.593-9.704.415c0 0-1.417-23.189 3.788-29.105 4.154-4.715 6.472-10.264 7.244-12.316.397.463.821.795 1.13 1.006-.053.64.009 1.218.181 1.73 0 0-6.821 10.489-7.571 16.285s2.525 14.431 2.525 14.431l1.205-2.525s4.472 11.08 8.931 16.404c0 0 3.616-4.269 7.183-9.394l.967.724c-.19.282-.371.57-.534.861-2.327 4.101 1.497 21.136 1.576 23.741h-.004z"/><path d="M53.933 19.252h-.013c-.375.106-.949.556-1.528 2.15-.967 2.662-.984 3.902-2.6 4.807s-4.41 1.183-5.911 4.141c-1.042 2.062-1.7 3.832-1.806 5.288-.309-.208-.737-.539-1.13-1.007-.402-.455-.768-1.037-.976-1.761-.609-2.106.751-6.013 1.934-9.624l-.455-.455c.274-3.253-1.611-10.012 1.112-11.742 2.053.062 6.247 3.841 6.247 3.841s3.47-.04 5.876.353v.04c2.419.278 5.743 1.262 5.743 1.262s5.077-2.499 7.064-1.982c2.137 2.415-1.519 8.388-2.15 11.592l-.561.313c.155 3.797.397 7.924-.768 9.782-.53.848-1.254 1.386-1.898 1.717a5.14 5.14 0 0 1-.887.371c.296-1.43.159-3.311-.287-5.58-.64-3.253-3.249-4.286-4.556-5.598s-.989-2.516-1.187-5.341c-.19-2.644-1.139-2.596-1.263-2.574v.004z"/><path d="M41.443 22.797l-.057.455c-.57 3.293-5.13 4.671-5.404 3.509s-2.64-7.668-2.878-8.242.905-1.536 2.878-2.997 4.379-4.158 6.313-4.454c.079-.013.172-.018.261-.013-2.724 1.726-.839 8.485-1.113 11.743zm23.897 3.359c.631-3.205 4.287-9.178 2.15-11.592a1.68 1.68 0 0 1 .238.079c1.779.812 3.355 4.07 4.852 6.008 1.497 1.947 2.335 3.183 1.951 3.668s-4.437 6.096-5.024 7.147c-.583 1.042-4.587-1.532-4.238-4.856a11.64 11.64 0 0 1 .066-.455h.004z"/></g><g fill="#ffe09a"><path d="M62.215 51.526c.786 6.666 0 10.573 0 10.573l-.83-3.39c-.208 3.492-3.505 9.063-6.856 13.875-3.567 5.125-7.183 9.394-7.183 9.394-4.455-5.324-8.931-16.404-8.931-16.404l-1.205 2.525s-3.271-8.635-2.525-14.431 7.571-16.285 7.571-16.285c.57 1.695 2.11 2.958 3.152 3.311.375.128 1.249-.137 2.216-.53.402.623 1.324 1.505 3.346 1.594 1.682.075 2.777-.349 3.439-.764.918.728 1.801 1.32 2.23 1.298.931-.048 2.371-.622 3.404-1.686.649 2.424 1.655 6.617 2.168 10.93l.005-.009z"/><path d="M61.226 38.34c-.128.631-.335 1.166-.649 1.616a4.91 4.91 0 0 1-.53.64c-1.033 1.064-2.472 1.638-3.404 1.686-.428.022-1.311-.569-2.229-1.298-1.453-1.148-2.998-2.649-2.998-2.649s-2.048 1.117-3.788 1.819c-.967.393-1.841.653-2.216.53-1.042-.353-2.583-1.616-3.152-3.311-.177-.517-.234-1.095-.181-1.731.106-1.461.764-3.231 1.806-5.288 1.501-2.958 4.296-3.236 5.911-4.141s1.633-2.15 2.6-4.807c.578-1.594 1.152-2.044 1.528-2.15h.013c.124-.022 1.073-.066 1.263 2.574.199 2.825-.119 4.026 1.188 5.342s3.92 2.34 4.556 5.598c.442 2.269.583 4.15.287 5.58l-.004-.009z"/></g><path d="M55.032 33.498c.464.247.728.781.583 1.285-.221.803-1.038 1.951-3.717 2.671-.247.066-.512.049-.751-.062-.843-.384-2.795-1.501-2.953-3.633-.04-.561.362-1.064.918-1.174 1.183-.247 3.43-.415 5.916.909l.004.004z" fill="#473220"/><path d="M54.414 40.985c-.658.415-1.757.839-3.439.764-2.022-.084-2.945-.971-3.346-1.594 1.739-.702 3.788-1.819 3.788-1.819l2.998 2.649z" fill="#ffe09a"/><g fill="#473220"><path d="M51.359 42.088c-.128 0-.261 0-.397-.009-2.225-.093-3.214-1.135-3.607-1.744-.053-.084-.066-.185-.035-.278s.102-.168.19-.208a42.68 42.68 0 0 0 3.752-1.801c.128-.071.287-.048.389.053a46.78 46.78 0 0 0 2.971 2.627c.084.066.132.172.124.278s-.062.203-.155.261c-.614.384-1.66.821-3.232.821zM48.154 40.3c.472.53 1.32 1.055 2.839 1.121 1.294.057 2.216-.194 2.83-.486l-2.459-2.19-3.21 1.554z"/><path d="M45.765 41.042c-.137 0-.274-.009-.406-.035-1.139-.194-2.344-1.682-2.477-1.85a.33.33 0 0 1 .053-.464.33.33 0 0 1 .463.053c.322.406 1.32 1.483 2.071 1.611.905.155 1.982-.477 1.991-.486a.33.33 0 0 1 .455.115c.093.154.044.357-.115.455-.044.026-1.015.605-2.035.605v-.004zm11.024 1.58c-.066 0-.128 0-.19-.013-1.32-.168-2.388-1.355-2.437-1.408a.331.331 0 1 1 .495-.441c.009.009.953 1.051 2.026 1.192.883.11 2.569-1.126 3.148-1.611a.332.332 0 0 1 .428.508c-.225.19-2.15 1.77-3.47 1.77v.004zM41.448 23.128h-.026a.33.33 0 0 1-.3-.358c.08-.971-.035-2.291-.163-3.686-.296-3.28-.631-7.001 1.426-8.308.155-.097.358-.053.459.101s.053.358-.102.459c-1.717 1.09-1.399 4.595-1.121 7.69l.163 3.801c-.013.172-.159.305-.331.305l-.004-.004zm23.892 3.36s-.044 0-.066-.004c-.181-.035-.296-.207-.26-.389.199-1.011.684-2.273 1.196-3.607 1.113-2.896 2.375-6.18 1.029-7.699-.119-.137-.11-.344.026-.468a.33.33 0 0 1 .468.027c1.611 1.823.274 5.306-.905 8.379l-1.166 3.501a.33.33 0 0 1-.327.269l.004-.009z"/><path d="M42 23.481c-.035 0-.075-.004-.115-.018a.33.33 0 0 1-.199-.424 15.19 15.19 0 0 1 4.119-6.092.331.331 0 1 1 .441.494 14.45 14.45 0 0 0-3.938 5.823c-.049.133-.177.216-.313.216H42zm22.585 3.068s-.035 0-.053-.004c-.181-.031-.3-.203-.274-.38a11.79 11.79 0 0 0-1.285-7.584.332.332 0 0 1 .583-.318 12.45 12.45 0 0 1 1.36 8.012.33.33 0 0 1-.327.278l-.004-.005zm-16.233-1.554c-.234.803-.958 1.302-1.616 1.113s-1.002-.998-.773-1.801.958-1.302 1.616-1.113 1.002.998.773 1.801zm12.22.826c0 .839-.556 1.514-1.241 1.514s-1.241-.68-1.241-1.514.556-1.514 1.241-1.514 1.241.68 1.241 1.514z"/></g></g><g fill="#56ccf2"><path fill-rule="evenodd" d="M24.86 17.467c.031-2.979 1.892-4.787 3.416-5.333.477-.159.969-.286 1.516-.294 1.388.103 1.714.617 1.379 1.384-.773 1.32-1.465 2.69-1.983 4.167-.335.943-.541 2.195-.263 4.604.407 2.457-.34 4.585-1.929 6.474L24.86 17.467zm-1.249 13.609c-1.545.69-3.095.868-4.646.579l2.248-5.499 1.391-.27 1.008 5.19zm-8.117-.828l1.784-4.101c-.997-.235-1.821-.678-2.465-1.33s-1.081-1.569-1.311-2.754c-.155-.796-.121-1.525.103-2.186s.559-1.229 1.007-1.711c.394-.415.899-.766 1.524-1.052s1.355-.508 2.2-.673l3.573-.694-.384-1.107-3.622-9.213c-.748-1.866-3.531-1.59-3.054.716.197.952.605 1.847.908 2.772.508 1.408.799 2.938.973 4.534-.071 1.756-2.595-1.342-2.848-1.631-1.57-1.801-2.924-4.053-4.368-4.547-1.149-.258-2.299.835-1.679 2.241.176.564 1.63 2.179 3.185 4.112l2.264 3.055c.36.638.101.755-.375.691-2.423-.871-4.543-2.463-7.259-4.01-1.299-.739-2.893 1.445-1.633 2.555 2.147 1.893 4.626 2.983 6.863 4.363 1.203.742.878 1.63-.689 1.616-1.96-.019-3.888-.628-5.943-1.13-.274-.068-.602-.024-.838.132-.689.453-.65 1.236-.281 2.046.266.585.792.944 1.474 1.072 1.443.271 2.764.49 4.182.963 1.048.349 2.538 1.191 3.274 2.004.943 1.042 1.71 2.08 2.7 2.779l.734.486zm6.562-7.181l-1.188.231c-.567.11-1.025.173-1.381.19s-.68-.051-.978-.212c-.262-.139-.486-.338-.668-.596s-.31-.568-.379-.923c-.067-.345-.067-.673 0-.978s.195-.57.389-.79a1.9 1.9 0 0 1 .842-.584c.308-.101.755-.206 1.339-.32l1.209-.235.819 4.217h-.003z"/><path d="M72.39 48.596l4.384.299c1.27 1.614 2.986 2.903 5.056 3.657 5.915 2.154 12.459-.893 14.613-6.81s-.895-12.461-6.811-14.615-12.459.893-14.614 6.812a11.36 11.36 0 0 0-.161 7.325l-2.47 3.328.002.004z"/></g><path d="M77.938 46.235c.328 1.455 1.755 2.093 2.134 2.179s1.861-.28 3.087.154 2.149 1.65 2.499 1.817 1.863.57 3.029-.359 2.101-2.326.745-4.086-1.218-2.124-1.333-4.106-1.679-2.509-1.679-2.509-1.552-.568-2.885.901-1.453 1.84-3.615 2.358-2.31 2.195-1.985 3.649l.003.001zm12.36-4.509c-1.137 1.154-1.154 2.414-.386 3.168s2.026.72 3.163-.437 1.438-2.703.673-3.457-2.309-.43-3.447.727l-.003-.001zM88.192 36.1c-1.053 1.514-.828 2.929.179 3.625s2.409.415 3.459-1.1 1.09-3.308.087-4.005-2.67-.036-3.723 1.478l-.001.003zm-6.101 2.731c.161 1.615-.616 2.604-1.688 2.709s-2.026-.71-2.187-2.325.576-3.008 1.648-3.114 2.069 1.116 2.228 2.727l-.001.003zm5.17-3.061c-.131 1.838-1.194 2.798-2.414 2.711s-2.136-1.189-2.004-3.026 1.226-3.258 2.446-3.173 2.102 1.648 1.969 3.488l.003.001z" fill="#fff"/><path d="M87.546 45.127l-.58 1.593-1.996-.727-.727 1.995-1.59-.579.727-1.995-1.996-.727.58-1.593 1.996.727.726-1.993 1.59.579-.726 1.993 1.996.727z" fill="#56ccf2"/><defs><clipPath id="A"><rect x="18.975" width="66" height="66" rx="33" fill="#fff"/></clipPath></defs></svg>