<svg xmlns="http://www.w3.org/2000/svg" width="23" height="21" fill="none"><path fill-rule="evenodd" d="M17.4 11.011c.463-2.185 2.145-3.248 3.384-3.432.386-.049.779-.072 1.196 0 1.04.274 1.212.698.844 1.214-.783.859-1.511 1.768-2.123 2.779-.394.645-.735 1.536-.88 3.346-.053 1.864-.935 3.321-2.422 4.482v-8.39zm-2.959 9.823c-1.276.287-2.481.196-3.617-.238l2.521-3.721h1.097v3.958zm-6.048-1.767l1.961-2.76c-.723-.315-1.284-.758-1.677-1.329s-.59-1.308-.59-2.211c0-.607.133-1.138.401-1.592a3.52 3.52 0 0 1 1.018-1.114c.361-.249.797-.435 1.314-.555s1.105-.18 1.772-.18h2.819l-.129-.868-1.393-7.288c-.293-1.478-2.45-1.672-2.428.091.009.728.187 1.444.281 2.167.178 1.107.173 2.273.071 3.471-.313 1.28-1.775-1.356-1.924-1.605-.928-1.547-1.625-3.396-2.649-3.965-.835-.354-1.871.286-1.607 1.407.05.439.918 1.834 1.814 3.477l1.27 2.569c.179.52-.034.569-.387.454-1.714-.986-3.09-2.459-4.926-3.983-.878-.729-2.413.649-1.619 1.645 1.353 1.697 3.077 2.852 4.574 4.186.805.717.427 1.323-.763 1.089-1.487-.293-2.863-1.016-4.351-1.679a.88.88 0 0 0-.657-.022c-.59.235-.677.816-.516 1.464.116.468.462.807.962.998 1.057.405 2.029.754 3.037 1.305.745.406 1.754 1.238 2.193 1.94.563.9.993 1.773 1.642 2.427l.487.462zm6.048-4.341h-.937c-.447 0-.805-.02-1.078-.058s-.51-.134-.712-.295a1.44 1.44 0 0 1-.42-.533 1.72 1.72 0 0 1-.152-.733c0-.263.048-.504.144-.719a1.29 1.29 0 0 1 .412-.525c.236-.177.476-.279.726-.309s.604-.044 1.065-.044h.954v3.216h-.002z" fill="#56ccf2"/></svg>