<svg xmlns="http://www.w3.org/2000/svg" width="116" height="35" fill="none"><g clip-path="url(#A)"><path fill-rule="evenodd" d="M26.819 17.996c.714-3.514 3.306-5.224 5.216-5.52.595-.078 1.2-.116 1.843 0 1.602.441 1.868 1.122 1.301 1.953-1.207 1.382-2.329 2.843-3.272 4.47-.607 1.038-1.134 2.47-1.356 5.382-.082 2.998-1.441 5.342-3.733 7.21V17.996zm-4.561 15.801c-1.967.461-3.825.315-5.576-.382l3.885-5.984h1.691v6.367zm-9.323-2.842l3.023-4.439c-1.115-.506-1.98-1.219-2.585-2.138s-.91-2.103-.91-3.556c0-.976.205-1.831.618-2.561a5.58 5.58 0 0 1 1.57-1.791c.556-.4 1.228-.699 2.025-.893s1.704-.29 2.732-.29h4.345l-.199-1.396c-.478-3.16-1.447-6.981-2.148-11.722-.452-2.378-3.776-2.69-3.742.146.014 1.171.289 2.323.433 3.486.275 1.781.267 3.657.109 5.583-.483 2.06-2.736-2.182-2.966-2.581-1.43-2.489-2.505-5.462-4.084-6.378-1.287-.569-2.884.459-2.477 2.263.078.707 1.415 2.95 2.797 5.592.693 1.324 1.301 2.857 1.958 4.132.276.837-.053.915-.596.73-2.641-1.586-4.763-3.954-7.593-6.406C3.89 7.562 1.525 9.778 2.749 11.38c2.085 2.73 4.742 4.588 7.05 6.733 1.241 1.154.658 2.129-1.175 1.752-2.292-.472-4.413-1.635-6.707-2.701-.306-.143-.7-.166-1.012-.036-.91.378-1.043 1.312-.795 2.354.179.752.713 1.298 1.483 1.605 1.629.652 3.127 1.213 4.682 2.099 1.149.654 2.703 1.991 3.38 3.121.868 1.448 1.531 2.851 2.531 3.904.247.26.497.506.75.743zm9.323-6.983h-1.444c-.689 0-1.241-.031-1.662-.093s-.786-.216-1.098-.475c-.275-.224-.492-.511-.648-.857a2.87 2.87 0 0 1-.235-1.179 2.93 2.93 0 0 1 .222-1.157c.146-.348.359-.628.635-.845.363-.285.734-.448 1.12-.497s.932-.071 1.641-.071h1.47v5.172h-.003z" fill="#56ccf2"/></g><g clip-path="url(#B)"><path fill-rule="evenodd" d="M112.184 32.331l-.699.592c-.207.171-.485.344-.833.522-.338.167-.669.298-.993.388s-.769.134-1.351.134c-1.081 0-1.977-.364-2.686-1.094-.716-.729-1.07-1.646-1.07-2.753 0-.91.184-1.649.541-2.204.362-.562.883-1.007 1.562-1.335.689-.334 1.512-.569 2.465-.699l3.084-.304v-.067c0-.672-.251-1.14-.742-1.398s-1.238-.388-2.228-.388c-.451 0-.973.08-1.572.244a12.37 12.37 0 0 0-1.759.625h-.325v-2.967c.378-.107.987-.238 1.83-.388a14.75 14.75 0 0 1 2.545-.221c2.104 0 3.639.351 4.602 1.053S116 23.849 116 25.29v8.338h-3.816v-1.298zm0-1.896v-2.562l-1.555.171c-.398.044-.786.137-1.168.278a1.63 1.63 0 0 0-.772.528c-.184.238-.274.555-.274.95 0 .575.153.97.458 1.187s.759.325 1.358.325c.331 0 .669-.077 1.016-.231s.653-.371.937-.645zm-8.291-6.378h-5.76v9.572h-3.816V21.397h9.576v2.659zm-15.492 3.485c0-.722-.06-1.324-.184-1.803-.12-.485-.288-.866-.498-1.157-.224-.304-.478-.518-.766-.636s-.609-.177-.973-.177a2.63 2.63 0 0 0-.93.157c-.278.104-.535.304-.769.602-.217.284-.395.669-.525 1.161s-.197 1.114-.197 1.856c0 .749.064 1.351.187 1.809s.288.826.485 1.1c.204.281.458.488.766.619a2.57 2.57 0 0 0 1.02.197c.304 0 .619-.067.936-.197s.569-.324.759-.585c.227-.311.398-.686.518-1.124.11-.445.171-1.05.171-1.823zm3.907-.023c0 2.013-.552 3.595-1.652 4.753s-2.659 1.736-4.676 1.736c-2 0-3.555-.582-4.666-1.736s-1.662-2.743-1.662-4.753c0-2.03.555-3.622 1.662-4.773s2.662-1.726 4.666-1.726c2.01 0 3.562.582 4.669 1.736s1.659 2.746 1.659 4.763zm-14.659 6.111h-3.749v-7.676l-2.492 5.087h-1.622l-2.492-5.087v7.676h-3.639V21.397h4.151l2.846 5.659 2.843-5.659h4.154v12.231zm-19.91-6.087c0-.722-.06-1.324-.184-1.803-.12-.485-.288-.866-.498-1.157-.224-.304-.478-.518-.766-.636s-.609-.177-.973-.177a2.63 2.63 0 0 0-.93.157c-.278.104-.535.304-.769.602-.217.284-.395.669-.525 1.161s-.197 1.114-.197 1.856c0 .749.064 1.351.187 1.809s.288.826.485 1.1c.204.281.458.488.766.619a2.58 2.58 0 0 0 1.02.197c.304 0 .619-.067.937-.197s.569-.324.759-.585c.227-.311.398-.686.518-1.124.11-.445.171-1.05.171-1.823zm3.903-.023c0 2.013-.552 3.595-1.652 4.753s-2.659 1.736-4.676 1.736c-2 0-3.555-.582-4.666-1.736s-1.662-2.743-1.662-4.753c0-2.03.555-3.622 1.662-4.773s2.666-1.726 4.669-1.726c2.01 0 3.562.582 4.669 1.736s1.656 2.746 1.656 4.763zm-14.673 6.111h-3.816V24.1h-3.883v9.529h-3.816V21.397h11.515v12.231z" fill="#56ccf2"/></g><defs><clipPath id="A"><path fill="#fff" transform="translate(0 .283)" d="M0 0h35.452v33.78H0z"/></clipPath><clipPath id="B"><path fill="#fff" transform="translate(35.453 21.019)" d="M0 0h80.548v12.987H0z"/></clipPath></defs></svg>