<svg xmlns="http://www.w3.org/2000/svg" width="82" height="77" fill="none"><path fill-rule="evenodd" d="M62.034 40.461c1.652-7.907 7.646-11.754 12.064-12.421 1.376-.176 2.776-.261 4.263 0 3.707.991 4.321 2.525 3.01 4.394-2.791 3.11-5.387 6.397-7.567 10.058-1.404 2.335-2.622 5.558-3.136 12.11-.19 6.746-3.333 12.019-8.634 16.222V40.461zM51.485 76.012c-4.55 1.037-8.846.709-12.897-.861l8.986-13.465h3.911v14.325zm-21.564-6.394l6.993-9.987c-2.579-1.139-4.579-2.744-5.98-4.81-1.401-2.06-2.105-4.733-2.105-8.002 0-2.197.474-4.119 1.429-5.762.948-1.643 2.162-2.98 3.631-4.031 1.286-.899 2.841-1.573 4.683-2.01 1.835-.437 3.94-.652 6.318-.652H54.94l-.46-3.142c-1.106-7.11-3.347-15.707-4.967-26.375-1.045-5.35-8.735-6.052-8.656.328.032 2.634.668 5.226 1.002 7.843.636 4.006.618 8.228.251 12.562-1.117 4.634-6.328-4.909-6.86-5.808-3.308-5.6-5.793-12.29-9.446-14.35-2.977-1.28-6.67 1.033-5.729 5.092.18 1.591 3.272 6.637 6.468 12.583 1.602 2.98 3.01 6.429 4.529 9.296.639 1.883-.122 2.06-1.379 1.643-6.109-3.569-11.015-8.898-17.563-14.413C9 16.984 3.53 21.971 6.361 25.575c4.824 6.143 10.969 10.322 16.306 15.15 2.87 2.596 1.523 4.789-2.719 3.943-5.301-1.062-10.207-3.678-15.512-6.076-.708-.321-1.62-.374-2.342-.081-2.105.85-2.414 2.952-1.839 5.297.413 1.693 1.649 2.92 3.43 3.611 3.768 1.467 7.233 2.73 10.829 4.722 2.658 1.471 6.253 4.479 7.819 7.021 2.008 3.259 3.541 6.415 5.854 8.785.571.585 1.149 1.139 1.735 1.672zm21.564-15.711h-3.34c-1.595 0-2.87-.07-3.843-.208-.977-.127-1.817-.487-2.539-1.069-.636-.504-1.139-1.15-1.498-1.929s-.542-1.672-.542-2.652c0-.952.172-1.823.514-2.603s.83-1.414 1.469-1.901c.84-.642 1.699-1.009 2.59-1.118s2.155-.159 3.796-.159h3.401v11.638h-.007z" fill="#56ccf2"/></svg>