<svg xmlns="http://www.w3.org/2000/svg" xmlns:xlink="http://www.w3.org/1999/xlink" width="64" height="61" fill="none" xmlns:v="https://vecta.io/nano"><g clip-path="url(#A)"><path d="M46.809 17.521c0-.514-1.819-11.754-2.326-11.754h-9.038c-.507 0-2.325 11.243-2.325 11.754l1.41 8.994c0 .514.412.928.915.928h9.041c.507 0 .915-.418.915-.928l1.41-8.994h-.003z" fill="#435b72"/><g fill="#355168"><path d="M44.81 6.52c.725 3.218 1.727 9.505 1.727 9.885l-1.41 8.994c0 .514-.412.928-.916.928H35.17c-.298 0-.562-.146-.728-.371l.086.558c0 .514.412.928.916.928h9.041c.507 0 .915-.417.915-.928l1.41-8.994c0-.433-1.29-8.474-2-11z"/><path d="M44.686 6.125l-.611-.358h-8.076c-.273.146-.541.305-.796.48-.688 2.15-2.083 10.826-2.083 11.277l.276 1.769c1.598 1.91 3.978 3.122 6.642 3.122s4.869-1.125 6.464-2.916l.31-1.975c0-.458-1.45-9.477-2.123-11.396l-.003-.003z"/></g><path d="M40.039 19.841c1.31 0 2.372-3.928 2.372-8.773s-1.062-8.773-2.372-8.773-2.372 3.928-2.372 8.773 1.062 8.773 2.372 8.773z" fill="#435b72"/><path d="M43.059 20.656c4.51-1.691 6.814-6.769 5.147-11.342S41.53 2.404 37.02 4.094s-6.814 6.769-5.147 11.342 6.675 6.91 11.185 5.219z" fill="#5a6f81"/><path d="M46.069 17.511a8.01 8.01 0 0 0 1.843-5.134c0-1.788-.578-3.436-1.558-4.766H33.717a8.03 8.03 0 0 0-1.558 4.766c0 1.956.694 3.745 1.843 5.134h12.067z" fill="#c9ced1"/><g fill="#100f0d"><use xlink:href="#B"/><use xlink:href="#C"/><path d="M39.276 9.171h-.789a.37.37 0 0 0-.369.374v1.545a.37.37 0 0 0 .369.374h.789a.37.37 0 0 0 .369-.374V9.545a.37.37 0 0 0-.369-.374zm1.712 0h-.789a.37.37 0 0 0-.369.374v1.545a.37.37 0 0 0 .369.374h.789a.37.37 0 0 0 .369-.374V9.545a.37.37 0 0 0-.369-.374zm1.711 0h-.79a.37.37 0 0 0-.369.374v1.545a.37.37 0 0 0 .369.374h.79a.37.37 0 0 0 .369-.374V9.545a.37.37 0 0 0-.369-.374z"/></g><path d="M44.733 8.978h-.919c-.239 0-.433.197-.433.439v1.801c0 .243.194.439.433.439h.919c.239 0 .433-.197.433-.439V9.417c0-.243-.194-.439-.433-.439z" fill="#e84f35"/><g fill="#5a6f81"><path d="M37.913 12.296c0 .131-.104.237-.233.237h-2.746c-.129 0-.233-.106-.233-.237s.105-.237.233-.237h2.746c.129 0 .233.106.233.237zm3.68 0c0 .131-.104.237-.234.237h-2.746c-.129 0-.233-.106-.233-.237s.104-.237.233-.237h2.746c.129 0 .234.106.234.237zm.455-3.95a.3.3 0 0 1-.295.302H38.26c-.163 0-.295-.134-.295-.302a.3.3 0 0 1 .295-.302h3.493c.163 0 .295.134.295.302z"/><use xlink:href="#D"/><path d="M37.809 13.925c0 .305-.243.551-.544.551h-.621c-.301 0-.544-.246-.544-.551s.243-.551.544-.551h.621c.301 0 .544.246.544.551z"/><use xlink:href="#E"/><path d="M42.472 13.925c0 .305-.243.551-.544.551h-.621c-.301 0-.544-.246-.544-.551s.243-.551.544-.551h.621c.301 0 .544.246.544.551zm2.331 0c0 .305-.243.551-.544.551h-.62c-.301 0-.544-.246-.544-.551s.243-.551.544-.551h.62c.301 0 .544.246.544.551zm.934 2.287c0 .436-.347.788-.777.788h-3.886c-.43 0-.777-.352-.777-.788s.347-.788.777-.788h3.886c.43 0 .777.352.777.788z"/></g></g><path d="M52.813 32.67l1.615 1.318 2.909-4.954c1.336.525 2.593-1.538 3.089-3.275.773-2.704-1.933-4.201-1.933-4.201s2.862.106 3.012-1.386c.137-1.363-4.266-2.159-8.231 1.708-2.135 2.081-3.793 4.516-5.274 6.687 1.683 1.239 3.261 2.846 4.813 4.104z" fill="#f7a964"/><path d="M62.118 20.287l-10.761 1.936c-1.019.184-.736 1.773.285 1.585l10.761-1.936c.51-.092 1.565-.692 1.495-1.086s-1.264-.593-1.779-.499z" fill="#172a3a"/><path d="M51.436 30.125l-2.594-2.792c-2.432 3.509-4.299 6.656-6.758 7.089-3.74.659-8.004-2.335-17.237-8.789l-.224 11.965c8.136 8.715 15.126 10.962 20.743 7.855 3.845-2.127 7.491-8.92 9.718-12.49-1.293-.853-2.55-1.749-3.648-2.838z" fill="#e84f35"/><path d="M52.112 25.298c1.652-1.928 5.79-4.522 6.347-3.167s-1.991 1.927-1.991 1.927-.83 4.433-1.714 4.723c-.878.288-2.642-3.482-2.642-3.482z" fill="#f7a964"/><g fill="#2a170c"><path d="M55.892 22.225c-1.247.465-2.304 1.239-3.113 2.295-.156.205.141.478.298.269.767-1.001 1.754-1.739 2.939-2.184.244-.089.119-.469-.124-.38zm.07 2.748a5.13 5.13 0 0 0 2.387-1.636c.163-.201-.135-.47-.298-.269a4.75 4.75 0 0 1-2.434 1.599c-.132.037-.167.19-.105.301a3.52 3.52 0 0 1-.361 3.981c-.163.201.133.474.298.269.998-1.234 1.183-2.832.513-4.244z"/><path d="M58.254 28.444c-.437-.108-.738-.614-.587-1.053.015-.04.012-.079.006-.115.28-.227.519-.531.713-.82.313-.46.597-.983.869-1.474.198-.354-.095-.559-.299-.269-.402.571-1.544 3.509-2.576 2.141-.156-.206-.496.009-.339.221.326.43.744.622 1.205.458-.046.586.321 1.159.929 1.311.252.062.33-.334.079-.399z"/></g><path d="M52.974 34.854c-1.369-.693-4.653-3.177-5.608-4.511-.103-.142-.068-.342.072-.441s.342-.068.441.072c.955 1.334 4.538 4.002 5.596 4.415.164.059.244.246.181.408s-.246.244-.408.181a3.07 3.07 0 0 1-.273-.124z" fill="#fff"/><path d="M32.842 56.846c.544-3.205-.942-16.982-2.699-22.972-.824-2.8-1.108-5.486-3.424-7.069-1.328-.909-2.96-1.517-4.942-1.717-9.13-.928-17.147 3.235-17.611 18.165l-.374 11.551C13.374 61.339 25.28 62 32.842 56.846z" fill="#e84f35"/><path d="M30.683 36.819c-.17 0-.325-.115-.364-.289l-1.083-4.657c-.045-.2.08-.404.28-.449s.404.08.449.28l1.083 4.657c.045.2-.08.404-.28.449-.03.01-.06.01-.085.01z" fill="#fff"/><g fill="#f7a964"><path d="M16.046 20.729c-1.601 2.185-4.207 1.864-5.655.689-1.337-1.097-1.111-3.156.825-4.075.649-.312 1.49-.487 2.535-.454 0 0 .737.316 1.438.852.907.693 1.754 1.759.856 2.988z"/><path d="M25.011 14.933c.63 3.949-.2 7.796-5.264 8.174-3.447.254-6.92-2.176-7.551-6.12s1.724-7.605 5.264-8.174 6.921 2.172 7.551 6.12z"/></g><path d="M19.778 16.239a.5.5 0 0 0 .63-.318.5.5 0 0 0-.318-.63.5.5 0 0 0-.63.318.5.5 0 0 0 .318.63zm4.067 1.054c-.325-1.074-.793-2.079-1.409-3.017-.175-.268-.601-.009-.427.259a11.17 11.17 0 0 1 1.353 2.899c.093.309.575.168.483-.141zm-9.566 1.956c-.901-.759-2.208-.826-3.161-.12-.256.189.001.62.259.427.765-.568 1.816-.569 2.551.056.249.203.598-.155.351-.363zm6.89-8.422c-1.376.845-7.345 2.04-6.078 5.184.321.799.791 1.206.097 1.735-.778.433-1.438-.851-1.438-.851-1.04-.032-1.881.143-2.535.454-1.953-2.928-1.215-5.413.191-5.996 0 0 .286-7.195 4.089-5.481 0 0 2.924-5.822 7.216-1.999s-1.541 6.955-1.541 6.955z" fill="#172a3a"/><path d="M16.825 20.43c-1.631-.269-2.418.725-1.934 1.209 3.143 3.143-1.934 3.627.967 7.979s7.254.441 9.188-1.251c1.547-1.354.403-2.698-.242-2.859.161-.403.629-.725.242-1.693s-1.209-.967-1.693-.967c.242-.441-.242-1.692-1.209-1.692s-2.176.967-3.143 1.692c-.242-.887-.967-2.218-2.176-2.418z" fill="#f7a964"/><path d="M14.89 20.914c.645-.484 2.224-1.064 3.385.484m.726 1.45c.242 0 1.934-2.176 3.385-1.693 1.323.441 1.128 1.451.967 1.693m-1.693 1.934l1.209-1.209m1.209 2.66l.725-.725" stroke="#172a3a" stroke-width=".734" stroke-linecap="round"/><path d="M.866 47.512c-3.627-7.979 5.078-17.893 8.704-20.311.774 2.321-2.66 5.078-2.176 8.946l3.385-4.11 3.869-4.836 5.561 4.836c-1.128 3.466-4.836 10.639-7.496 14.024-2.901 3.692-9.822 5.908-11.848 1.451z" fill="#e84f35"/><path d="M15.616 27.926l4.836 4.352c-1.29 2.982-4.546 9.623-7.254 12.332m-8.946-6.529c.532-.242 1.488-.751 2.418-1.412m5.319-5.6L8.362 35.18c-.464.541-1.073 1.049-1.693 1.49m-2.418-1.006l2.418 1.006" stroke="#fff" stroke-width="1.468" stroke-linecap="round"/><defs><clipPath id="A"><path fill="#fff" transform="translate(31.333 2.296)" d="M0 0h17.409v25.147H0z"/></clipPath><path id="B" d="M35.857 9.171h-.789a.37.37 0 0 0-.369.374v1.545a.37.37 0 0 0 .369.374h.789a.37.37 0 0 0 .369-.374V9.545a.37.37 0 0 0-.369-.374z"/><path id="C" d="M37.569 9.171h-.79a.37.37 0 0 0-.369.374v1.545a.37.37 0 0 0 .369.374h.79a.37.37 0 0 0 .369-.374V9.545a.37.37 0 0 0-.369-.374z"/><path id="D" d="M35.477 13.925c0 .305-.243.551-.544.551h-.621c-.301 0-.544-.246-.544-.551s.243-.551.544-.551h.621c.301 0 .544.246.544.551z"/><path id="E" d="M40.14 13.925c0 .305-.243.551-.544.551h-.62c-.301 0-.544-.246-.544-.551s.243-.551.544-.551h.62c.301 0 .544.246.544.551z"/></defs></svg>