<svg width="25" height="25" viewBox="0 0 25 25" fill="none" xmlns="http://www.w3.org/2000/svg">
<path d="M12.5 19V17" stroke="#7C9CAC" stroke-miterlimit="10" stroke-linecap="round" stroke-linejoin="round"/>
<path d="M12.5 17C13.0523 17 13.5 16.5523 13.5 16C13.5 15.4477 13.0523 15 12.5 15C11.9477 15 11.5 15.4477 11.5 16C11.5 16.5523 11.9477 17 12.5 17Z" stroke="#7C9CAC" stroke-miterlimit="10" stroke-linecap="round" stroke-linejoin="round"/>
<path d="M19 11H6C4.9 11 4 11.9 4 13V20C4 21.1 4.9 22 6 22H19C20.1 22 21 21.1 21 20V13C21 11.9 20.1 11 19 11Z" stroke="#7C9CAC" stroke-miterlimit="10" stroke-linecap="round" stroke-linejoin="round"/>
<path d="M7 11V8.5C7 5.46 9.46 3 12.5 3C15.54 3 18 5.46 18 8.5V11" stroke="#7C9CAC" stroke-miterlimit="10" stroke-linecap="round" stroke-linejoin="round"/>
</svg>
