<svg width="400" height="56" viewBox="0 0 400 56" fill="none" xmlns="http://www.w3.org/2000/svg">
<rect width="400" height="56" rx="8" fill="black"/>
<rect width="400" height="56" rx="8" stroke="black"/>
<path d="M183.142 21.301C181.805 21.301 180.727 22.1096 180.031 22.1096C179.301 22.1096 178.324 21.3459 177.167 21.3459C174.966 21.3459 172.731 23.1765 172.731 26.6018C172.731 28.7468 173.562 31.0042 174.584 32.4753C175.449 33.6995 176.224 34.7102 177.324 34.7102C178.414 34.7102 178.896 33.9915 180.255 33.9915C181.625 33.9915 181.94 34.6877 183.142 34.6877C184.343 34.6877 185.141 33.5984 185.893 32.5203C186.724 31.2737 187.083 30.0608 187.095 30.0046C187.027 29.9822 184.736 29.05 184.736 26.4221C184.736 24.1536 186.533 23.1428 186.634 23.0642C185.455 21.3459 183.647 21.301 183.142 21.301ZM182.524 19.8523C183.063 19.1897 183.445 18.2913 183.445 17.3816C183.445 17.2581 183.434 17.1345 183.411 17.0334C182.535 17.0671 181.457 17.6174 180.817 18.3699C180.323 18.9426 179.851 19.8523 179.851 20.762C179.851 20.8967 179.874 21.0427 179.885 21.0876C179.941 21.0989 180.031 21.1101 180.121 21.1101C180.918 21.1101 181.929 20.571 182.524 19.8523Z" fill="white"/>
<path d="M191.509 18.3025V34.5081H194.407V29.196H197.922C201.201 29.196 203.492 26.9949 203.492 23.783C203.492 20.5149 201.28 18.3025 198.045 18.3025H191.509ZM194.407 20.7283H197.282C199.371 20.7283 200.55 21.7952 200.55 23.783C200.55 25.7146 199.337 26.7927 197.27 26.7927H194.407V20.7283Z" fill="white"/>
<path d="M208.929 32.5203C207.693 32.5203 206.806 31.9026 206.806 30.8694C206.806 29.8699 207.536 29.3083 209.097 29.2073L211.871 29.0276V30.0046C211.871 31.4309 210.613 32.5203 208.929 32.5203ZM208.109 34.7102C209.715 34.7102 211.062 34.0139 211.747 32.8235H211.938V34.5081H214.622V26.1189C214.622 23.5134 212.848 21.9749 209.692 21.9749C206.772 21.9749 204.74 23.3562 204.515 25.5237H207.143C207.401 24.6926 208.277 24.2434 209.558 24.2434C211.062 24.2434 211.871 24.9172 211.871 26.1189V27.1521L208.704 27.343C205.717 27.5227 204.043 28.803 204.043 31.0266C204.043 33.2727 205.739 34.7102 208.109 34.7102Z" fill="white"/>
<path d="M217.723 38.9666C220.474 38.9666 221.788 37.9558 222.833 34.9011L227.269 22.2219H224.327L221.463 31.8127H221.272L218.397 22.2219H215.342L219.733 34.5642L219.587 35.1033C219.228 36.2375 218.565 36.6868 217.386 36.6868C217.195 36.6868 216.78 36.6755 216.622 36.6418V38.9216C216.802 38.9553 217.555 38.9666 217.723 38.9666Z" fill="white"/>
</svg>
