<svg width="400" height="56" viewBox="0 0 400 56" fill="none" xmlns="http://www.w3.org/2000/svg">
<rect width="400" height="56" rx="8" fill="black"/>
<path d="M197.951 27.6726V34.7486H195.69V17.2749H201.683C203.202 17.2749 204.498 17.7778 205.557 18.7837C206.641 19.7895 207.182 21.0176 207.182 22.4679C207.182 23.9533 206.641 25.1813 205.557 26.1755C204.509 27.1696 203.214 27.6609 201.683 27.6609H197.951V27.6726ZM197.951 19.4269V25.5205H201.731C202.625 25.5205 203.379 25.2164 203.968 24.6199C204.568 24.0234 204.874 23.2983 204.874 22.4796C204.874 21.6726 204.568 20.9591 203.968 20.3626C203.379 19.7427 202.637 19.4386 201.731 19.4386H197.951V19.4269Z" fill="white"/>
<path d="M213.093 22.3977C214.766 22.3977 216.084 22.8421 217.05 23.731C218.015 24.6199 218.498 25.8363 218.498 27.3802V34.7486H216.343V33.0878H216.249C215.319 34.4562 214.071 35.1345 212.517 35.1345C211.186 35.1345 210.079 34.7486 209.184 33.9649C208.289 33.1813 207.842 32.2106 207.842 31.041C207.842 29.8012 208.313 28.8188 209.255 28.0936C210.197 27.3568 211.457 26.9942 213.023 26.9942C214.365 26.9942 215.472 27.2398 216.332 27.731V27.2164C216.332 26.4328 216.025 25.7778 215.401 25.2281C214.777 24.6784 214.047 24.4094 213.211 24.4094C211.951 24.4094 210.95 24.9357 210.22 26L208.23 24.7603C209.325 23.1813 210.95 22.3977 213.093 22.3977ZM210.173 31.0761C210.173 31.6609 210.421 32.1521 210.927 32.538C211.421 32.924 212.01 33.1228 212.681 33.1228C213.635 33.1228 214.483 32.772 215.225 32.0702C215.967 31.3685 216.343 30.5497 216.343 29.6024C215.637 29.0527 214.66 28.772 213.4 28.772C212.481 28.772 211.716 28.9942 211.103 29.4269C210.479 29.8831 210.173 30.4328 210.173 31.0761Z" fill="white"/>
<path d="M230.791 22.7837L223.255 40.0001H220.924L223.726 33.9767L218.757 22.7837H221.218L224.798 31.3685H224.845L228.33 22.7837H230.791Z" fill="white"/>
<path d="M188.958 26.2456C188.958 25.5134 188.892 24.8128 188.77 24.1392H179.293V27.9988L184.751 28C184.53 29.2842 183.817 30.3789 182.726 31.1087V33.6128H185.975C187.872 31.869 188.958 29.2912 188.958 26.2456Z" fill="#4285F4"/>
<path d="M182.727 31.1088C181.823 31.7146 180.658 32.069 179.296 32.069C176.664 32.069 174.431 30.3076 173.632 27.9333H170.281V30.5158C171.941 33.7883 175.353 36.0339 179.296 36.0339C182.021 36.0339 184.31 35.1439 185.976 33.6117L182.727 31.1088Z" fill="#34A853"/>
<path d="M173.316 26.0175C173.316 25.3508 173.428 24.7064 173.632 24.1005V21.5181H170.281C169.594 22.8713 169.208 24.3988 169.208 26.0175C169.208 27.6362 169.595 29.1637 170.281 30.5169L173.632 27.9344C173.428 27.3286 173.316 26.6841 173.316 26.0175Z" fill="#FABB05"/>
<path d="M179.296 19.9649C180.783 19.9649 182.115 20.4737 183.166 21.4678L186.045 18.6105C184.297 16.993 182.017 16 179.296 16C175.355 16 171.941 18.2456 170.281 21.5181L173.632 24.1006C174.431 21.7263 176.664 19.9649 179.296 19.9649Z" fill="#E94235"/>
</svg>
