<svg width="289" height="87" viewBox="0 0 289 87" fill="none" xmlns="http://www.w3.org/2000/svg">
<path d="M0.373607 19.9308H14.5318V65.7032H0.373607V19.9308ZM15.0065 7.20703C15.0065 11.1372 12.0242 14.3207 7.35984 14.3207C2.89154 14.3207 -0.0907653 11.1372 0.00210921 7.20703C-0.0907653 3.09021 2.89154 0 7.45271 0C12.0139 0 14.9033 3.09021 15.0065 7.20703Z" fill="#E84F35"/>
<path d="M169.623 58.0914C169.623 53.0205 173.08 49.3496 178.044 49.3496C183.007 49.3496 186.371 52.9272 186.371 58.0914C186.371 63.0792 182.997 66.7398 177.951 66.7398C173.08 66.7398 169.623 63.0792 169.623 58.0914Z" fill="#E84F35"/>
<path d="M39.846 31.9491C41.0637 32.2291 42.56 32.3328 44.6136 32.3328C52.1983 32.3328 56.873 28.4752 56.873 21.994C56.873 16.1662 52.8484 12.6923 45.7384 12.6923C42.8386 12.6923 40.8779 12.9723 39.846 13.2523V31.9491ZM25.7188 3.18318C30.1148 2.42618 36.2961 1.86621 44.9954 1.86621C53.7875 1.86621 60.0617 3.55649 64.272 6.94743C68.2966 10.1413 71.0106 15.4092 71.0106 21.6207C71.0106 27.8219 68.9467 33.0898 65.2111 36.6674C60.3403 41.2716 53.1477 43.3455 44.7167 43.3455C42.8489 43.3455 41.1566 43.2522 39.846 43.0655V65.7236H25.7188V3.18318Z" fill="#7B9AA9"/>
<path d="M102.257 43.9886C94.7758 43.8952 88.9763 45.6788 88.9763 51.2267C88.9763 54.8872 91.4117 56.6812 94.5901 56.6812C98.14 56.6812 101.05 54.3376 101.979 51.4237C102.165 50.6771 102.257 49.8268 102.257 48.9764V43.9886ZM103.939 65.703L103.093 61.0988H102.815C99.822 64.7697 95.137 66.74 89.7193 66.74C80.4525 66.74 74.9316 59.9788 74.9316 52.637C74.9316 40.7013 85.6019 34.9668 101.783 35.0601V34.4068C101.783 31.9596 100.472 28.4857 93.455 28.4857C88.7803 28.4857 83.8166 30.0826 80.824 31.9699L78.2029 22.7615C81.3813 20.9675 87.6555 18.7173 95.9832 18.7173C111.235 18.7173 116.096 27.7494 116.096 38.5548V54.545C116.096 58.9626 116.281 63.1935 116.746 65.7341H103.939V65.703Z" fill="#7B9AA9"/>
<path d="M136.879 19.7339L143.711 42.2986C144.454 45.0259 145.393 48.4065 145.95 50.8537H146.229C146.879 48.4065 147.632 44.9326 148.282 42.2986L153.896 19.7339H169.148L158.488 50.0034C151.935 68.2439 147.539 75.5754 142.39 80.1796C137.437 84.5038 132.194 86.0075 128.634 86.4845L125.642 74.3621C127.416 74.0822 129.666 73.2318 131.813 71.9149C133.959 70.7845 136.301 68.5343 137.705 66.1803C138.169 65.527 138.448 64.7701 138.448 64.1168C138.448 63.6501 138.355 62.8931 137.787 61.7628L121.039 19.7339H136.879Z" fill="#7B9AA9"/>
<path d="M238.112 50.9471C238.112 56.9616 238.298 61.8561 238.483 65.7033H226.131L225.481 59.2222H225.202C223.427 62.0428 219.124 66.7403 210.879 66.7403C201.622 66.7403 194.791 60.9125 194.791 46.7162V19.7339H209.104V44.4659C209.104 51.1441 211.261 55.1779 216.214 55.1779C220.146 55.1779 222.385 52.4507 223.324 50.2004C223.696 49.3501 223.788 48.2302 223.788 47.0998V19.7339H238.101V50.9471H238.112Z" fill="#7B9AA9"/>
<path d="M273.849 43.9886C266.357 43.8952 260.558 45.6788 260.558 51.2267C260.558 54.8872 262.993 56.6812 266.171 56.6812C269.732 56.6812 272.631 54.3376 273.56 51.4237C273.746 50.6771 273.849 49.8268 273.849 48.9764V43.9886ZM275.541 65.703L274.695 61.0988H274.417C271.424 64.7697 266.749 66.74 261.321 66.74C252.054 66.74 246.544 59.9788 246.544 52.637C246.544 40.7013 257.204 34.9668 273.395 35.0601V34.4068C273.395 31.9596 272.084 28.4857 265.067 28.4857C260.393 28.4857 255.429 30.0826 252.436 31.9699L249.815 22.7615C252.994 20.9675 259.268 18.7173 267.585 18.7173C282.837 18.7173 287.698 27.7494 287.698 38.5548V54.545C287.698 58.9626 287.883 63.1935 288.348 65.7341H275.541V65.703Z" fill="#7B9AA9"/>
</svg>
