<svg xmlns="http://www.w3.org/2000/svg" width="21" height="5" fill="none"><g clip-path="url(#A)" fill="#000"><path d="M1.029 4.277H0V.121h1.044v.438C2.197-.227 2.943-.189 3.473.71c.42-.476.921-.763 1.559-.695.551.053.95.363.971.929l.014 3.332H4.988l-.022-.408V1.715c-.007-.529-.188-.74-.616-.733-.464.008-.805.332-.805.763v2.078.438H2.479V2.675v-.869c0-.325-.007-.65-.362-.786-.304-.121-.761.03-.971.332a.67.67 0 0 0-.101.378l-.007 2.153-.007.393zM8.931 0c1.247-.008 2.146.892 2.16 2.169.014 1.269-.884 2.214-2.11 2.229-1.24.015-2.139-.907-2.146-2.184C6.815.929 7.685.015 8.931 0zm1.044 2.199c0-.71-.413-1.209-1.022-1.216-.602-.008-1.029.491-1.037 1.194-.007.718.435 1.247 1.037 1.239.602 0 1.022-.506 1.022-1.216zm10.715.007c-.007 1.292-.899 2.206-2.139 2.199s-2.117-.937-2.11-2.229c.014-1.277.877-2.169 2.117-2.169 1.262-.007 2.139.9 2.132 2.199zm-1.095-.023c0-.718-.421-1.201-1.029-1.201s-1.015.484-1.015 1.209c0 .718.413 1.224 1.008 1.232.602.008 1.037-.506 1.037-1.239zm-3.951 2.086h-1.058v-2.35c0-.332.022-.829-.334-.988-.37-.174-.805-.005-1.109.267 0 0-.225.167-.21.554l-.014 2.516H11.89V.136h1.037v.332c.435-.151.87-.378 1.327-.438.856-.106 1.348.355 1.377 1.239l.014 3z"/></g><defs><clipPath id="A"><path fill="#fff" d="M0 0h21v5H0z"/></clipPath></defs></svg>