<svg xmlns="http://www.w3.org/2000/svg" width="18" height="18" fill="none"><path d="M16 17h1m-4 0h-2v-3m3 0h3v-3h-1m-5 0h2M1 14c0-.932 0-1.398.152-1.766a2 2 0 0 1 1.082-1.082C2.602 11 3.068 11 4 11s1.398 0 1.766.152a2 2 0 0 1 1.082 1.082C7 12.602 7 13.068 7 14s0 1.398-.152 1.765a2 2 0 0 1-1.082 1.083C5.398 17 4.932 17 4 17s-1.398 0-1.766-.152a2 2 0 0 1-1.082-1.082C1 15.398 1 14.932 1 14zM11 4c0-.932 0-1.398.152-1.766a2 2 0 0 1 1.082-1.082C12.602 1 13.068 1 14 1s1.398 0 1.766.152a2 2 0 0 1 1.082 1.082C17 2.602 17 3.068 17 4s0 1.398-.152 1.765a2 2 0 0 1-1.082 1.083C15.398 7 14.932 7 14 7s-1.398 0-1.766-.152a2 2 0 0 1-1.082-1.082C11 5.398 11 4.932 11 4zM1 4c0-.932 0-1.398.152-1.766a2 2 0 0 1 1.082-1.082C2.602 1 3.068 1 4 1s1.398 0 1.766.152a2 2 0 0 1 1.082 1.082C7 2.602 7 3.068 7 4s0 1.398-.152 1.765a2 2 0 0 1-1.082 1.083C5.398 7 4.932 7 4 7s-1.398 0-1.766-.152a2 2 0 0 1-1.082-1.082C1 5.398 1 4.932 1 4z" stroke="#000" stroke-width="2" stroke-linecap="round" stroke-linejoin="round"/></svg>