<svg xmlns="http://www.w3.org/2000/svg" width="21" height="5" fill="none"><g clip-path="url(#A)" fill="#2722ff"><path d="M5.811.827c.657 0 1.044.4 1.029.993H4.635C4.766 1.196 5.2.827 5.81.827zm.124 2.857c-.727 0-1.268-.52-1.338-1.257h2.861c.317-1.304-.387-2.28-1.647-2.28-1.067 0-1.941.952-1.941 2.121 0 1.209.889 2.121 2.065 2.121.889 0 1.57-.472 1.879-1.193l-.596-.384c-.186.52-.634.872-1.284.872zM10.318.147c-.518 0-.951.248-1.261.592V.267h-.696v4.002h.696V2.164c0-.704.464-1.313 1.222-1.313.634 0 1.013.416 1.013 1.017v2.401h.696V1.804c0-1.065-.642-1.657-1.67-1.657zm8.043.68c.657 0 1.044.4 1.029.993h-2.204c.132-.624.565-.993 1.175-.993zm.124 3.562c.889 0 1.57-.472 1.879-1.193l-.595-.384c-.186.52-.634.872-1.284.872-.727 0-1.268-.52-1.338-1.257h2.861c.317-1.305-.387-2.281-1.647-2.281-1.067 0-1.941.952-1.941 2.121 0 1.209.889 2.121 2.065 2.121zM14.242.834c.449 0 .835.12 1.276.48l.021-.069.371-1.05-.572-.193-.104.427c-.281-.152-.619-.275-.983-.275-.936 0-1.454.448-1.454 1.121 0 .664.565.993 1.438 1.281.712.224.913.44.913.648 0 .336-.317.528-.766.528a1.52 1.52 0 0 1-1.338-.768l-.534.456c.325.544.974.977 1.841.977 1.021 0 1.516-.56 1.516-1.265 0-.464-.302-.848-1.454-1.241-.518-.184-.897-.288-.897-.632 0-.248.162-.424.727-.424zM1.732.832c.449 0 .835.12 1.276.48l.021-.069L3.4.193 2.828 0l-.105.427C2.442.274 2.105.151 1.74.151.804.151.286.599.286 1.272c0 .664.565.993 1.438 1.281.712.224.913.44.913.648 0 .336-.317.528-.766.528a1.52 1.52 0 0 1-1.338-.768L0 3.417c.325.544.974.977 1.841.977 1.021 0 1.516-.56 1.516-1.265 0-.464-.302-.848-1.454-1.241-.518-.184-.897-.288-.897-.632 0-.248.162-.424.727-.424z"/></g><defs><clipPath id="A"><path fill="#fff" d="M0 0h21v5H0z"/></clipPath></defs></svg>