<svg xmlns="http://www.w3.org/2000/svg" width="124" height="32" fill="none"><path d="M14.614 7.064l-3.069-5.45H5.367l4.262 5.45h4.985zm7.821 2.686H17.02v1.564c-1.695-1.115-3.678-1.793-5.803-1.793C5.02 9.521 0 14.556 0 20.76a11.23 11.23 0 0 0 11.217 11.237c2.124 0 4.108-.678 5.803-1.8v1.565h5.415V9.749zM11.217 26.766c-3.31 0-5.997-2.692-5.997-6.008s2.687-6.008 5.997-6.008a6.001 6.001 0 0 1 5.998 6.008c-.007 3.316-2.688 6.008-5.998 6.008z" fill="#00d352"/><path d="M73.595 9.754H68.18v1.564c-1.695-1.115-3.678-1.793-5.803-1.793-6.198 0-11.217 5.035-11.217 11.238A11.23 11.23 0 0 0 62.377 32c2.125 0 4.108-.678 5.803-1.8v1.565h5.415V9.754zM62.385 26.77c-3.311 0-5.998-2.692-5.998-6.008s2.687-6.008 5.997-6.008a6 6 0 0 1 5.998 6.008c-.007 3.316-2.688 6.008-5.998 6.008zM37.611 9.928c-2.063 0-3.993.645-5.648 1.699a6.294 6.294 0 0 1 1.641-3.263c2.124-2.007 5.274-2.108 8.517-2.416 1.153-.115 2.372-.229 3.619-.437V0c-1.3.275-2.68.396-4.135.55-9.394.974-15.311 4.41-15.633 16.494-.067 2.625.214 6.129 1.521 8.559 1.803 3.598 5.662 6.39 10.125 6.39 6.198 0 11.218-4.618 11.218-10.827S43.81 9.928 37.612 9.928zm0 16.843a5.799 5.799 0 0 1-5.796-5.807c0-3.202 2.593-5.806 5.796-5.806a5.803 5.803 0 0 1 5.797 5.806 5.799 5.799 0 0 1-5.797 5.807zm55.518-8.519h-9.81V9.754h-5.415v22.018h5.415v-8.499h9.81v8.499h5.414V9.754h-5.414v8.498zm21.046 2.101l9.167-10.6h-6.815l-8.195 9.56v-9.56h-5.414v22.019h5.414V21.575l8.785 10.197h6.882l-9.824-11.419z" fill="#000"/></svg>