<svg xmlns="http://www.w3.org/2000/svg" width="187.7" height="44.8" fill-rule="evenodd"><path d="M43.6 27.5L22.1 9 .6 27.5a21.57 21.57 0 0 1-.6-5.1C0 10 9.9 0 22.1 0s22.1 10 22.1 22.4a21.57 21.57 0 0 1-.6 5.1m57.4 7.6c3.5 0 5.2-.2 6.4-.5 2.4-.7 4-2.3 4.8-4.8.3-.8.4-1.5.4-2.2 0-2.3-.9-4.4-2.6-5.9-1.6-1.4-3.6-2-6-2h-4.1c-.5.1-1 .3-1.2.7s-.4.8-.5 1.3v19.6h2.8v-6.2m7.2-12.3c.8 1.3 1.3 3.1 1.3 4.9 0 1.7-.4 3.1-1.3 4.4-1 1.4-2.3 2.1-3.9 2.1H101V21.1a.47.47 0 0 1 .5-.5h2.7c1.7-.1 3.1.7 4 2.2zm-20 12.7c2.3 0 4.2-.7 5.7-2.2s2.3-3.4 2.3-5.8c0-2.3-.8-4.2-2.3-5.6-1.5-1.5-3.4-2.2-5.6-2.2-2.3 0-4.2.7-5.6 2.2-1.5 1.5-2.2 3.4-2.2 5.7s.7 4.2 2.3 5.7c1.3 1.5 3.2 2.2 5.4 2.2m4.1-3.4c-1 1.7-2.3 2.6-4 2.6s-3-.8-4-2.3c-.8-1.4-1.3-3-1.3-4.8 0-1.9.4-3.5 1.2-4.9 1-1.6 2.3-2.4 4-2.4 1.6 0 2.9.7 3.9 2.2.9 1.3 1.3 2.9 1.3 4.6.1 2-.3 3.6-1.1 5zm-19.5-7.5l5.5-5h-1.2l-6.7 6.1v-6.1h-2.8v15.5l2.8-.1v-8.2l.5-.5 6.9 8.8h3.1l-8.1-10.5zM56.2 13l-9.8 22.1h1l2.8-6.3h10l2.8 6.3h3L56.2 13zm-5.5 14.9l4.6-10.3 4.5 10.3h-9.1zm63.8 6.3l5-12.3c.1-.2.3-.4.5 0l4.9 12.3h-10.4zm-2.4-.3c0 .5.1.8.1 1 0 .6 0 1-.1 1.2h.2c.3-.3.6-.5 1.1-.7a19.71 19.71 0 0 1 1.5-.3h2.5 5.8 3.2c.5 0 1 .1 1.4.3.4.1.7.4.9.7h.2c0-.3-.1-.7-.1-1.2 0-.4 0-.7.1-1h-1l-5.5-13.1c-.1-.3-.3-.6-.5-.8s-.4-.4-.6-.5c-.5-.2-.9-.2-1.4 0-.2.1-.3.2-.5.4s-.3.4-.5.6l-5.8 13.3h-1z" fill="#c00"/><path d="M5.4 37.1l16.7-23 16.7 23c-4.1 4.7-10 7.7-16.7 7.7s-12.7-3-16.7-7.7M172 19.6h-2.8V26h-8.1v-6.4h-2.8v15.5h2.8v-8.2h8.1v8.2h2.8V19.6zM152.1 21h0c-.2-.4-.4-.7-.6-.9a3.04 3.04 0 0 0-.7-.5c-.4-.1-.7-.1-1.1 0-.2.1-.4.2-.6.4-.4.4-.6.9-.8 1.5l-4.5 13.6h1.1l1.2-3.7h6.8l1.2 3.7h2.7L152.1 21zm-5.7 9.4l3-9c0-.1.2-.3.3 0l2.8 9h-6.1zM131 21.7c.1-.5.2-.9.5-1.3.3-.5.8-.7 1.4-.8h7.8v.9h-6.6c-.2 0-.3.1-.3.4v5.6h1.2 1.2c2 0 3.5.2 4.5.7 1.5.7 2.2 1.9 2.2 3.7 0 1.3-.5 2.4-1.6 3.2-1 .7-2.1 1.1-3.5 1.1H131V21.8v-.1h0m5.9 5.8c1 0 1.9.3 2.6.9a3.04 3.04 0 0 1 1.1 2.4 3.04 3.04 0 0 1-1.1 2.4c-.7.6-1.6.9-2.6.9h-3v-6.6h3zm42.8-2.9l5.5-5H184l-6.7 6v-6.1h-2.8V35l2.8-.1v-8.2l.5-.5 6.9 8.8h3.1l-8.1-10.4z" fill="#999"/></svg>