<svg width="157" height="64" viewBox="0 0 157 64" fill="none" xmlns="http://www.w3.org/2000/svg">
<g clip-path="url(#clip0_1026_1487)">
<g clip-path="url(#clip1_1026_1487)">
<path fill-rule="evenodd" clip-rule="evenodd" d="M25.2551 22.3112C24.2248 22.3112 21.4952 22.473 20.0799 22.6963L19.4047 26.4933C20.506 26.2669 22.7252 26.1791 23.2686 26.1791C25.0021 26.1791 25.5386 26.866 25.5386 27.864C25.5386 28.1764 25.3838 29.2058 25.3838 29.2058C24.1531 29.0816 23.1126 29.0195 22.419 29.0195C17.784 29.0195 15.9871 31.0783 15.5458 34.0422C15.4817 34.4788 15.4507 34.8841 15.4507 35.2592C15.4507 37.5978 16.7435 39.0336 19.5188 39.0336C20.7413 39.0336 22.107 38.5048 23.8703 37.7119L23.7049 38.5964H28.757L30.521 28.7372C30.6782 27.8326 30.7087 26.8967 30.7087 26.4294C30.7087 23.6523 29.1958 22.3112 25.2551 22.3112ZM24.3421 35.0716C23.2712 35.5396 22.5775 35.6952 21.9783 35.6952C20.9689 35.6952 20.5593 35.1651 20.5593 34.4481C20.5593 34.3233 20.5593 34.1978 20.5897 34.0422C20.7165 33.1998 21.1895 32.3573 22.7024 32.3573C23.3022 32.3573 23.9325 32.4201 24.7847 32.5455L24.3421 35.0716Z" fill="#02142E"/>
<path fill-rule="evenodd" clip-rule="evenodd" d="M36.3956 38.5964H31.3415L35.4407 15.5113H40.4859L36.3956 38.5964Z" fill="#02142E"/>
<path fill-rule="evenodd" clip-rule="evenodd" d="M49.7392 34.8508C48.6385 35.0779 47.7445 35.1651 47.2005 35.1651C45.467 35.1651 44.9305 34.4788 44.9305 33.4802C44.9305 33.1678 44.9787 32.8052 45.0421 32.4301L46.0845 26.5404H51.2166L51.9001 22.6725H46.7706L47.4839 18.6308H42.4387L39.9487 32.6064C39.7902 33.5122 39.7592 34.4481 39.7592 34.9161C39.7592 37.6925 41.2727 39.0336 45.214 39.0336C46.2443 39.0336 47.6488 38.8712 49.0646 38.6479L49.7392 34.8508Z" fill="#02142E"/>
<path fill-rule="evenodd" clip-rule="evenodd" d="M81.5584 39.0337C80.076 39.0337 77.1441 38.752 74.0848 37.9729L78.0578 15.5113H83.1036L81.6212 23.8719C83.0409 23.1229 84.6197 22.3112 86.2594 22.3112C89.5374 22.3112 91.3344 24.2771 91.3344 27.7712C91.3344 28.458 91.302 29.6436 91.1124 30.8286C90.3237 36.1324 87.6124 39.0337 81.5584 39.0337ZM86.0362 28.9881C86.0362 27.1784 85.2474 26.4921 83.8284 26.4921C83.0409 26.4921 82.1785 26.7311 81.0119 27.3239L79.6658 34.9236C80.3284 35.0792 81.4012 35.1651 82.0004 35.1651C84.3026 35.1651 85.4693 33.8233 85.91 30.8286C86.0362 30.0482 86.0362 29.4247 86.0362 28.9881Z" fill="#02142E"/>
<path fill-rule="evenodd" clip-rule="evenodd" d="M117.256 38.5964L119.129 28.0654C119.155 27.9292 119.176 27.6771 119.176 27.5209C119.176 26.6163 118.639 26.1791 117.505 26.1791C116.811 26.1791 116.055 26.3353 114.572 27.0215L112.495 38.5964H107.449L110.296 22.6725H115.328L115.178 23.525C117.416 22.5269 118.545 22.3112 119.996 22.3112C123.118 22.3112 124.347 23.7464 124.347 26.2104C124.347 26.7098 124.284 27.396 124.221 27.8326L122.31 38.5964H117.256Z" fill="#02142E"/>
<path fill-rule="evenodd" clip-rule="evenodd" d="M142.287 22.6725H136.289L131.489 29.7026L134.004 15.5113H128.927L124.86 38.5964H129.914L131.244 31.0921L134.383 38.5964H139.766L136.599 31.0137L142.287 22.6725Z" fill="#02142E"/>
<path fill-rule="evenodd" clip-rule="evenodd" d="M101.436 22.3112C100.405 22.3112 97.6775 22.473 96.2604 22.6963L95.587 26.4933C96.6864 26.2669 98.9056 26.1791 99.4497 26.1791C101.184 26.1791 101.72 26.866 101.72 27.864C101.72 28.1764 101.564 29.2058 101.564 29.2058C100.335 29.0816 99.2943 29.0195 98.6013 29.0195C93.9657 29.0195 92.1675 31.0783 91.7268 34.0422C91.6634 34.4788 91.6324 34.8841 91.6324 35.2592C91.6324 37.5978 92.9246 39.0336 95.6992 39.0336C96.9217 39.0336 98.2874 38.5048 100.053 37.7119L99.8865 38.5964H104.939L106.701 28.7372C106.86 27.8326 106.891 26.8967 106.891 26.4294C106.891 23.6523 105.377 22.3112 101.436 22.3112ZM100.524 35.0716C99.4516 35.5396 98.7585 35.6952 98.1587 35.6952C97.1493 35.6952 96.741 35.1651 96.741 34.4481C96.741 34.3233 96.741 34.1978 96.772 34.0422C96.8982 33.1998 97.3712 32.3573 98.8847 32.3573C99.4826 32.3573 100.114 32.4201 100.965 32.5455L100.524 35.0716Z" fill="#02142E"/>
<path fill-rule="evenodd" clip-rule="evenodd" d="M54.8777 34.4418L54.0503 39.0336L64.7304 33.7487L65.6295 28.7623L54.8777 34.4418Z" fill="#9DABAF"/>
<path fill-rule="evenodd" clip-rule="evenodd" d="M71.2093 25.7224L57.6664 18.6308L56.631 24.4697L70.2747 30.9823L71.2093 25.7224Z" fill="#9DABAF"/>
<path fill-rule="evenodd" clip-rule="evenodd" d="M74.5044 44.1919C75.3059 44.1919 75.6495 44.5997 75.6495 45.2345C75.6495 46.1535 75.2888 47.1383 73.9946 47.1383C73.1634 47.1383 72.7633 46.7306 72.7633 45.927C72.7633 45.774 72.7798 45.513 72.8197 45.247C73.0721 43.6148 73.6446 43.1161 74.6528 42.9568C75.077 42.8947 75.3858 42.8614 75.7643 42.7648L75.77 43.1619C75.4149 43.2572 75.0649 43.2855 74.6756 43.3476C73.8507 43.49 73.5705 43.8293 73.41 44.4698C73.8228 44.2948 74.2064 44.1919 74.5044 44.1919ZM75.1918 45.264C75.1918 44.7935 74.9451 44.5545 74.4296 44.5545C74.1145 44.5545 73.8628 44.6235 73.3473 44.8155C73.2953 45.0532 73.2902 45.2188 73.2553 45.4158C73.2211 45.6033 73.2211 45.8191 73.2211 45.9145C73.2211 46.4583 73.4671 46.7758 74.046 46.7758C75.0136 46.7758 75.1918 45.8862 75.1918 45.264Z" fill="#02142E"/>
<path fill-rule="evenodd" clip-rule="evenodd" d="M76.2405 47.0599L76.7446 44.2371H77.1909L76.6869 47.0599H76.2405ZM76.8187 43.5916L76.9506 42.8664H77.4319L77.3 43.5916H76.8187Z" fill="#02142E"/>
<path fill-rule="evenodd" clip-rule="evenodd" d="M79.5515 47.0599L79.9858 44.5997H78.8407L78.7944 44.8606C78.549 46.2488 78.251 46.7601 77.655 47.1446L77.4141 46.8272C77.9131 46.5098 78.1591 46.1303 78.3886 44.8499L78.4977 44.2371H80.5019L79.9978 47.0599H79.5515Z" fill="#02142E"/>
<path fill-rule="evenodd" clip-rule="evenodd" d="M81.8018 45.2345C82.0427 45.1893 82.2773 45.1674 82.4555 45.1674C83.2341 45.1674 83.5093 45.5186 83.5093 45.944C83.5093 46.0173 83.503 46.0738 83.4922 46.1535C83.4117 46.6804 83.0686 47.1383 82.1575 47.1383C81.888 47.1383 81.4987 47.0932 81.0403 46.9746L81.5329 44.2371H81.98L81.8018 45.2345ZM81.7333 45.6096L81.5387 46.6973C81.7967 46.7601 82.0142 46.7757 82.1974 46.7757C82.7415 46.7757 82.9767 46.5273 83.0338 46.1535C83.0445 46.0958 83.0445 46.0569 83.0445 46.0054C83.0445 45.7225 82.8505 45.5299 82.3864 45.5299C82.2031 45.5299 81.9971 45.5469 81.7333 45.6096Z" fill="#02142E"/>
<path fill-rule="evenodd" clip-rule="evenodd" d="M87.8969 47.0599H84.1515L84.6499 44.2371H85.0963L84.6607 46.6973H85.8635L86.2991 44.2371H86.7455L86.3105 46.6973H87.5127L87.9489 44.2371H88.3953L87.8969 47.0599Z" fill="#02142E"/>
<path fill-rule="evenodd" clip-rule="evenodd" d="M91.392 46.6177L91.4262 46.9803C90.8885 47.1164 90.4878 47.1383 90.2348 47.1383C89.4048 47.1383 88.9978 46.7758 88.9978 46.0908C88.9978 45.9891 89.0098 45.8129 89.0326 45.6485C89.181 44.6404 89.7485 44.1587 90.6076 44.1587C91.4097 44.1587 91.7014 44.567 91.7014 45.1674C91.7014 45.3204 91.69 45.5299 91.6671 45.6485L91.65 45.7457H89.4733C89.4625 45.8474 89.4625 45.949 89.4625 46.0224C89.4625 46.5274 89.7085 46.7758 90.3153 46.7758C90.6305 46.7758 90.8936 46.7538 91.392 46.6177ZM89.5367 45.3876H91.2493C91.255 45.3142 91.255 45.2408 91.255 45.1736C91.255 44.7766 91.0768 44.5219 90.5499 44.5219C89.9546 44.5219 89.6565 44.9014 89.5367 45.3876Z" fill="#02142E"/>
<path fill-rule="evenodd" clip-rule="evenodd" d="M95.5786 47.0599L95.8018 45.7846H94.313L94.0892 47.0599H93.6429L94.1406 44.2371H94.5876L94.3815 45.422H95.8709L96.077 44.2371H96.5234L96.0256 47.0599H95.5786Z" fill="#02142E"/>
<path fill-rule="evenodd" clip-rule="evenodd" d="M97.063 47.0599L97.5671 44.2371H98.0134L97.5094 47.0599H97.063ZM97.6413 43.5916L97.7731 42.8664H98.2544L98.1225 43.5916H97.6413Z" fill="#02142E"/>
<path fill-rule="evenodd" clip-rule="evenodd" d="M100.225 45.6203L98.7242 47.1057L98.2372 46.9915L99.6981 45.5362L98.8561 44.2371H99.3773L100.225 45.6203ZM100.661 44.2371H101.107L100.603 47.0599H100.157L100.661 44.2371ZM102.344 44.2371H102.911L101.594 45.5927L102.562 47.0085L102.081 47.0881L101.056 45.5751L102.344 44.2371Z" fill="#02142E"/>
<path fill-rule="evenodd" clip-rule="evenodd" d="M106.543 47.0599L106.979 44.5997H105.49L105.054 47.0599H104.608L105.105 44.2371H107.488L106.99 47.0599H106.543Z" fill="#02142E"/>
<path fill-rule="evenodd" clip-rule="evenodd" d="M108.273 48.1935H107.827L108.532 44.2371H108.95L108.915 44.4184C109.265 44.2666 109.573 44.1587 109.917 44.1587C110.53 44.1587 110.914 44.4309 110.914 45.1391C110.914 45.2922 110.902 45.4503 110.874 45.6485C110.708 46.7538 110.215 47.1383 109.471 47.1383C109.15 47.1383 108.835 47.048 108.503 46.8837L108.273 48.1935ZM108.572 46.5274C108.909 46.6911 109.156 46.7758 109.437 46.7758C109.975 46.7758 110.289 46.5161 110.416 45.6485C110.438 45.4735 110.45 45.3374 110.45 45.2063C110.45 44.7032 110.204 44.5219 109.774 44.5219C109.494 44.5219 109.248 44.6059 108.881 44.7703L108.572 46.5274Z" fill="#02142E"/>
<path fill-rule="evenodd" clip-rule="evenodd" d="M112.77 47.1383C111.98 47.1383 111.568 46.7883 111.568 46.0393C111.568 45.9208 111.579 45.7909 111.602 45.6485C111.751 44.6342 112.307 44.1587 113.223 44.1587C114.013 44.1587 114.426 44.5156 114.426 45.269C114.426 45.3876 114.42 45.513 114.397 45.6485C114.243 46.6635 113.687 47.1383 112.77 47.1383ZM112.032 45.9941C112.032 46.5041 112.272 46.7758 112.828 46.7758C113.498 46.7758 113.824 46.3799 113.939 45.6485C113.956 45.5299 113.968 45.4158 113.968 45.3142C113.968 44.7985 113.727 44.5219 113.165 44.5219C112.496 44.5219 112.169 44.9171 112.06 45.6485C112.043 45.774 112.032 45.8925 112.032 45.9941Z" fill="#02142E"/>
<path fill-rule="evenodd" clip-rule="evenodd" d="M116.747 44.1587C116.947 44.1587 117.233 44.1919 117.611 44.2779L117.473 44.6793C117.165 44.567 116.889 44.5219 116.706 44.5219C116.037 44.5219 115.698 44.8562 115.584 45.6485C115.561 45.8016 115.555 45.9772 115.555 46.0393C115.555 46.5443 115.824 46.7758 116.368 46.7758C116.551 46.7758 116.832 46.7306 117.176 46.6177L117.182 47.0198C116.786 47.1057 116.494 47.1383 116.294 47.1383C115.51 47.1383 115.091 46.8103 115.091 46.1083C115.091 46.0224 115.097 45.8242 115.125 45.6485C115.286 44.6172 115.802 44.1587 116.747 44.1587Z" fill="#02142E"/>
<path fill-rule="evenodd" clip-rule="evenodd" d="M120.642 44.2371L120.579 44.5997H119.559L119.125 47.0599H118.678L119.113 44.5997H118.093L118.156 44.2371H120.642Z" fill="#02142E"/>
<path fill-rule="evenodd" clip-rule="evenodd" d="M121.994 47.1383C121.203 47.1383 120.791 46.7883 120.791 46.0393C120.791 45.9208 120.802 45.7909 120.825 45.6485C120.975 44.6342 121.53 44.1587 122.446 44.1587C123.236 44.1587 123.649 44.5156 123.649 45.269C123.649 45.3876 123.643 45.513 123.621 45.6485C123.465 46.6635 122.91 47.1383 121.994 47.1383ZM121.255 45.9941C121.255 46.5041 121.495 46.7758 122.051 46.7758C122.721 46.7758 123.047 46.3799 123.162 45.6485C123.179 45.5299 123.191 45.4158 123.191 45.3142C123.191 44.7985 122.95 44.5219 122.389 44.5219C121.719 44.5219 121.392 44.9171 121.283 45.6485C121.266 45.774 121.255 45.8925 121.255 45.9941Z" fill="#02142E"/>
<path fill-rule="evenodd" clip-rule="evenodd" d="M127.489 44.1919C128.292 44.1919 128.635 44.5997 128.635 45.2345C128.635 46.1535 128.274 47.1383 126.98 47.1383C126.149 47.1383 125.748 46.7306 125.748 45.927C125.748 45.774 125.765 45.513 125.805 45.247C126.057 43.6148 126.63 43.1161 127.638 42.9568C128.062 42.8947 128.371 42.8614 128.749 42.7648L128.755 43.1619C128.401 43.2572 128.051 43.2855 127.661 43.3476C126.836 43.49 126.556 43.8293 126.395 44.4698C126.808 44.2948 127.191 44.1919 127.489 44.1919ZM128.177 45.264C128.177 44.7935 127.93 44.5545 127.415 44.5545C127.1 44.5545 126.848 44.6235 126.332 44.8155C126.281 45.0532 126.275 45.2188 126.24 45.4158C126.207 45.6033 126.207 45.8191 126.207 45.9145C126.207 46.4583 126.452 46.7758 127.032 46.7758C127.999 46.7758 128.177 45.8862 128.177 45.264Z" fill="#02142E"/>
<path fill-rule="evenodd" clip-rule="evenodd" d="M130.468 45.3656C130.663 45.3656 130.886 45.3876 131.179 45.4221L131.218 45.178C131.23 45.1159 131.235 45.008 131.235 44.9516C131.235 44.7076 131.104 44.5219 130.669 44.5219C130.451 44.5219 130.096 44.5953 129.729 44.7076L129.718 44.3061C130.193 44.2045 130.537 44.1587 130.737 44.1587C131.459 44.1587 131.688 44.4937 131.688 44.8888C131.688 44.9798 131.677 45.0877 131.665 45.1674L131.333 47.0599H130.909L130.938 46.9069C130.543 47.0882 130.284 47.1383 129.998 47.1383C129.403 47.1383 129.156 46.8504 129.156 46.4709C129.156 46.4025 129.162 46.3348 129.173 46.2664C129.259 45.7784 129.586 45.3656 130.468 45.3656ZM129.631 46.272C129.626 46.3178 129.621 46.3567 129.621 46.3975C129.621 46.624 129.775 46.7758 130.124 46.7758C130.405 46.7758 130.646 46.7086 130.972 46.5556L131.109 45.7784C130.835 45.7457 130.646 45.7282 130.445 45.7282C129.844 45.7282 129.683 45.9659 129.631 46.272Z" fill="#02142E"/>
<path fill-rule="evenodd" clip-rule="evenodd" d="M134.306 47.0599L134.53 45.7846H133.041L132.818 47.0599H132.371L132.868 44.2371H133.316L133.109 45.422H134.599L134.805 44.2371H135.251L134.753 47.0599H134.306Z" fill="#02142E"/>
<path fill-rule="evenodd" clip-rule="evenodd" d="M136.237 47.0599H135.791L136.295 44.2371H136.741L136.237 47.0599ZM137.749 47.0881L136.684 45.5519L138.024 44.2371H138.637L137.228 45.5814L138.265 47.0317L137.749 47.0881Z" fill="#02142E"/>
</g>
</g>
<defs>
<clipPath id="clip0_1026_1487">
<rect width="128" height="33.2468" fill="white" transform="translate(15 15)"/>
</clipPath>
<clipPath id="clip1_1026_1487">
<rect width="127.446" height="33.2468" fill="white" transform="translate(15 15)"/>
</clipPath>
</defs>
</svg>
