<svg xmlns="http://www.w3.org/2000/svg" width="289.271" height="171.963" viewBox="0 0 216.953 128.972" preserveAspectRatio="xMidYMid meet" fill="#009839"><path d="M88.098 10.772c-6.2 5.9-11.3 11.4-11.2 12.2 0 1.8 1.9 4 3.5 4 .6 0 5.5-4.1 11-9 5.4-5 10.2-8.9 10.6-8.8.5.2 7.5 6.6 15.8 14.3l15 14 .1 7.2c0 5.8-.3 7.3-1.5 7.3-1 0-1.5-1-1.5-3.3 0-1.7-.4-3.7-.8-4.2-2-2.9-28.1-27.5-29.1-27.5-.6 0-6.1 4.6-12.1 10.1l-11.1 10.2.3 10.6c.3 10.3.4 10.6 2.7 10.9 1.8.3 3.9-1.1 8.5-5.5 10-9.7 8.5-9.6 17.5-1.4 4.4 3.9 8.6 7.1 9.4 7.1 2.3 0 4.1-2.8 3.1-4.8-1.3-2.4-19-19.2-20.3-19.2-.6 0-3.9 2.6-7.4 5.7-5.8 5.4-6.2 5.6-6.5 3.4-.4-2.5 4.4-8.2 12.1-14.3l3.7-3 11.5 10.7 11.4 10.7.3 5.2.3 5.1h8 8l.3-12.1.3-12.2-18-17.1c-12.8-12.2-18.6-17.1-20.3-17.1-1.5 0-6 3.6-13.6 10.8zm-12.7 61.4l-1.5 8.8-1.6 8.2c-.5 1.6.3 1.8 6.4 1.8 5.3 0 7.2-.4 8.4-1.8 4.7-5.2 2.4-11.2-4.2-11.2-2.9 0-4-.4-4-1.5 0-1.2 1.3-1.5 5.5-1.5 5.2 0 5.5-.1 5.5-2.5s-.2-2.5-7-2.5c-6.4 0-7 .2-7.5 2.2zm9.3 12.5c-.2 1.2-1.4 1.9-3.6 2.1-2.7.3-3.2 0-3.2-1.7s.6-2.1 3.6-2.1c2.8 0 3.5.3 3.2 1.7zm13.2-9c-1.7.6-4 3.2-4 4.5 0 1.2 3.8 1 4.5-.2.3-.6 1.8-1 3.2-1 2.1 0 2.4.2 1.3 1.5-.7.8-2.7 1.5-4.4 1.5-3.7 0-6.1 1.6-7 4.6-1 3.4 2 5.7 6.3 5l5.7-.6c1.7 0 2.3-.8 2.8-3.8l1.2-6.3c.9-4.6-4-7.2-9.6-5.2zm4 10.8c-1.3 1.6-6 2.1-6 .7 0-1.5 1.3-2.2 4.3-2.2 2.5 0 2.8.2 1.7 1.5zm9.4-6.8l-1.4 7.5c-.7 3.5-.6 3.8 1.5 3.8 1.8 0 2.4-.6 2.7-2.8.2-2.1.9-2.8 3.1-3 2.4-.3 2.7 0 2.7 2.7 0 2.4.5 3.1 1.9 3.1s2.1-1.2 3-5.7c1.6-8 1.4-9.3-.9-9.3-1.5 0-2 .7-2 2.5 0 2.2-.4 2.5-3.4 2.5s-3.3-.2-2.8-2.5c.3-2 0-2.5-1.6-2.5s-2.3.8-2.8 3.7zm18 0l-1.4 7.5c-.7 3.5-.6 3.8 1.5 3.8 1.7 0 2.5-.7 2.7-2.2.4-3.1 2.3-3.3 3.6-.3.8 1.7 2 2.5 3.7 2.5 3 0 3.1-.1.3-4.9l-2.2-3.8 3.5-3.1c3.2-3 3.3-3.1 1.1-3.2-1.3 0-3.7.9-5.3 2.1l-2.9 2v-2c0-1.4-.6-2.1-2-2.1s-2.1.9-2.6 3.7zm-127.8 32c-2.1 11.3-2 12.3.4 12.3 1.4 0 2.1-.9 2.6-3.5 1.1-5.9 3-6.3 5.3-1.1 1.6 3.7 2.5 4.6 4.5 4.6 1.4 0 2.6-.2 2.6-.5s-1.1-2.8-2.5-5.5-2.5-5.5-2.5-6.2 1.9-2.9 4.3-5l4.2-3.7-3.1-.1c-2.1 0-3.9.9-5.9 3-1.6 1.6-3.3 3-3.8 3s-.7-1.4-.5-3c.4-2.6.1-3-1.8-3-2 0-2.3.9-3.8 8.7zm119.4-7.2c0 4.2-2.5 11.9-4.6 14.2-4.4 4.7-3.5 5.3 8.6 5.3h11v-2.5c0-1.4-.4-2.5-.9-2.5s-.5-2.1 0-4.8c.5-2.6 1.1-6.2 1.4-8l.6-3.2h-8.1c-6.3 0-8 .3-8 1.5zm9.9 7.7l-.9 5.5c0 .8-1.5 1.3-4.1 1.3-3.2 0-4-.3-3.6-1.4.3-.8 1.1-3.3 1.7-5.5 1-3.8 1.4-4.1 4.4-4.1h3.3l-.8 4.2zm28.8-8.5c-1.4 1.3-.6 3.3 1.2 3.3 1.6 0 3.1-1.8 3.1-3.6 0-.7-3.6-.5-4.3.3zm-139.1 13.3c-2 11.2-2 12 .3 12 1.4 0 2.1-.8 2.3-2.8.2-1.8.8-2.6 1.8-2.3 7.3 2.1 14.5-6.4 10.9-12.8-1.3-2.3-2.2-2.6-7.6-2.8l-6.1-.2-1.6 8.9zm10.9-1.6c0 3.2-2.3 5.3-4.9 4.3-1.9-.7-2.1-4.8-.4-6.5.7-.7 2.2-1.1 3.3-1 1.5.2 2 1.1 2 3.2zm10.8-5.9c-2.8 2-4.5 7.8-3.3 11.1 1.9 4.8 10.5 5 13.1.3.8-1.6.6-1.9-1.4-1.9-1.2 0-2.8.5-3.4 1.1-1.3 1.3-4.3.5-4.3-1.1 0-.6 2.4-1 5.5-1h5.5v-3.4c0-1.9-.7-4.2-1.6-5-2-2-7.3-2.1-10.1-.1zm6.7 3c1.1 1.3.8 1.5-2 1.5s-3.1-.2-2-1.5c.7-.8 1.6-1.5 2-1.5s1.3.7 2 1.5zm10.5.1c-.3 2.5-1.4 5.3-2.4 6.3s-2 2.5-2.4 3.4c-.6 1.5.3 1.7 8.1 1.7h8.7l.1-8 .2-8h-5.8-5.8l-.7 4.6zm7.3 3.1c-.3 3.3-.7 3.8-3.1 4.1-2.5.3-2.6.1-1.8-2l1.5-4.1c.3-.9 1.3-1.7 2.1-1.7 1.3 0 1.5.9 1.3 3.7zm9.7-6.5c-.5 1.5-2.5 12.7-2.5 14 0 .4 1 .8 2.3.8 1.7 0 3.4-1.4 5.6-4.6 1.8-2.5 3.4-4.4 3.6-4.2s0 2.2-.5 4.6c-.7 4-.6 4.3 1.4 4 1.6-.2 2.2-1.3 2.8-4.8l1.3-7.8c.5-2.9.3-3.2-1.8-3.2-1.7 0-3.3 1.3-5.6 4.5-1.8 2.5-3.4 4.5-3.6 4.5-.3 0-.2-2 .2-4.5.5-3.8.3-4.5-1.1-4.5-.9 0-1.9.6-2.1 1.2zm16.5.8c0 1.3.7 2 2 2 2.2 0 2.4 1.1 1.1 7.7-.8 4-.7 4.3 1.4 4.3 1.9 0 2.3-.8 3.1-5.7s1.2-5.8 3.4-6.3c1.4-.3 2.6-1.4 2.8-2.3.3-1.5-.6-1.7-6.7-1.7-6.4 0-7.1.2-7.1 2zm46.6 3.1l-1.3 8c-.5 2.4-.2 2.9 1.5 2.9 1.4 0 2.1-.9 2.6-3 .5-2.6 1-3 3.7-3 3 0 3.1.2 2.6 3-.5 2.5-.3 3 1.3 3 1 0 2.1-.8 2.4-1.8.4-1.5 2.6-13 2.6-13.9 0-.2-.9-.3-2-.3-1.5 0-2.2.9-2.6 3-.5 2.5-1.1 3-3.5 3-2.6 0-2.9-.4-2.9-3 0-2.3-.5-3-1.9-3-1.5 0-2 1-2.5 5.1zm19-3.4c-.4 1.6-2.6 13.1-2.6 14 0 .2.9.3 1.9.3 2.1 0 2.6-1.1 3.6-8l1.1-6.3c.4-1.2 0-1.7-1.5-1.7-1.1 0-2.2.8-2.5 1.7zm8-.5c-.5 1.7-2.6 12.9-2.6 14 0 .4.9.8 1.9.8 1.6 0 2.2-1.1 3.2-6 1.1-5.7 1.3-6 4.1-6 3 0 3 0 2.3 4.6-.3 2.6-.9 5.3-1.2 6.1-.4 1.1 0 1.4 1.8 1.1 2.4-.3 2.9-1.6 4.4-11.5l.6-4.3h-7.1c-4.8 0-7.2.4-7.4 1.2zm17.9.2c-.2.6-.9 4.2-1.5 8.1l-1.7 9.2c-.4 1.9-.1 2.3 1.6 2.3 1.6 0 2.3-.8 2.7-2.9.5-2.5.9-2.8 2.8-2.2 5.1 1.9 10.6-3.2 10.6-9.8 0-4.5-2.2-6-8.6-6-3.2.1-5.7.6-5.9 1.3zm10 4.6c.9 2.8-1.2 6-3.9 6-3.1 0-4.1-2.7-2.1-5.6 1.9-2.9 5.1-3.1 6-.4zm9.4-3.1c-2 2.1-2.9 3.9-2.9 6.3 0 4.2.8 5.4 4.3 6.7 3.4 1.3 9-.7 10.6-3.7 1.9-3.5 1.4-10-.8-11.2-3.7-1.9-8.1-1.2-11.2 1.9zm8.8 2.7c1 2.7-1.4 6.4-4.2 6.4-2.4 0-3-.9-2.5-4 .5-3.8 5.5-5.6 6.7-2.4z"/></svg>