<svg xmlns="http://www.w3.org/2000/svg" width="260" height="47" fill="none"><g fill="#034ea2"><path d="M52.317 6.414H67.45v3.531h-9.872V37.04h-5.26V6.414zm32.428 8.791v21.907h-5.261V18.448h-4.54l-.721 11.602c-.144 2.522-.721 4.396-1.801 5.621s-2.378 1.874-3.891 1.874c-.793 0-1.441-.072-1.946-.216l-.865-.216V34.95c.793 0 1.441-.36 2.09-1.081s1.009-1.946 1.153-3.747l.865-14.845h14.917v-.072zm13.332 2.378c-.505 0-.937.144-1.369.36s-.793.721-1.081 1.369-.576 1.513-.721 2.594a31.59 31.59 0 0 0-.288 4.18c0 1.657.072 3.099.288 4.18.144 1.081.432 2.018.721 2.594.288.648.721 1.081 1.081 1.369.432.216.865.36 1.369.36s.937-.144 1.369-.36.793-.721 1.081-1.369.576-1.513.72-2.594.289-2.522.289-4.18-.072-3.099-.289-4.18c-.144-1.081-.432-2.018-.72-2.594-.288-.649-.721-1.081-1.081-1.369-.432-.216-.865-.36-1.369-.36zm0-2.882c1.441 0 2.666.216 3.747.649s2.018 1.081 2.738 1.946c.721.937 1.297 2.09 1.658 3.531s.576 3.171.576 5.261-.216 3.819-.576 5.261-.937 2.594-1.658 3.531-1.657 1.585-2.738 1.946c-1.081.432-2.306.649-3.747.649s-2.666-.216-3.747-.649-2.018-1.081-2.738-1.946c-.721-.937-1.297-2.09-1.657-3.531s-.576-3.171-.576-5.261.216-3.819.576-5.26.937-2.594 1.657-3.531a5.67 5.67 0 0 1 2.738-1.946c1.081-.432 2.306-.649 3.747-.649zm17.943 12.106c0 1.513.072 2.811.288 3.819s.433 1.802.793 2.378c.288.577.721 1.009 1.153 1.297.432.216.865.36 1.297.36s.865-.144 1.297-.36.793-.649 1.081-1.297c.289-.576.577-1.369.793-2.378s.288-2.306.288-3.819-.072-2.738-.288-3.675c-.216-1.009-.504-1.73-.865-2.378-.36-.576-.865-1.009-1.369-1.225-.576-.216-1.153-.36-1.802-.36s-1.225.072-1.657.288c-.432.144-.721.36-1.009.649v6.702zm0-9.656c.433-.288 1.009-.576 1.658-.793s1.441-.288 2.306-.288c2.594 0 4.684.865 6.125 2.522s2.162 4.396 2.162 8.215-.721 6.558-2.234 8.215-3.675 2.522-6.486 2.522c-2.882 0-5.044-.865-6.557-2.522s-2.234-4.396-2.234-8.215v-7.206c0-2.45.216-4.54.648-6.197s1.081-3.027 2.018-4.035 2.09-1.802 3.603-2.234c1.441-.504 3.243-.793 5.405-.865l5.26-.216.216 2.162c-.792.288-1.657.649-2.738.865a23.68 23.68 0 0 1-3.387.649c-1.009.144-1.873.288-2.594.649-.721.288-1.297.721-1.802 1.297-.432.577-.792 1.297-1.009 2.234-.288.793-.36 1.946-.36 3.243zm28.248-1.946h5.045l-4.18 22.339c-.576 3.099-1.513 5.333-2.81 6.702s-2.955 2.09-5.045 2.09c-.864 0-1.657-.072-2.45-.288-.72-.144-1.369-.36-1.945-.649v-2.162h2.882c.576 0 1.081-.072 1.513-.216s.865-.432 1.153-.865c.361-.432.649-1.009.937-1.73s.505-1.657.793-2.81c-1.297 0-2.45-.504-3.459-1.441-1.009-1.009-1.658-2.234-2.018-3.819l-3.963-17.079h5.044l3.963 17.079c.072.36.217.648.289.865.144.216.216.36.36.432.144.144.288.216.432.216l3.459-18.664zm17.728 2.594c-.649 0-1.297.144-1.802.36s-1.009.721-1.369 1.297a7.29 7.29 0 0 0-.865 2.594c-.216 1.081-.288 2.45-.288 4.036 0 1.657.144 3.027.36 4.107s.505 1.946.937 2.594.937 1.081 1.513 1.297a5.92 5.92 0 0 0 2.018.36h4.828v2.162c-.648.216-1.513.432-2.522.649-1.009.144-2.09.288-3.171.288-1.513 0-2.882-.216-4.035-.649a7.31 7.31 0 0 1-2.883-1.946c-.792-.937-1.369-2.09-1.729-3.531s-.577-3.171-.577-5.261.217-3.819.577-5.26.937-2.594 1.657-3.531a5.67 5.67 0 0 1 2.739-1.946c1.081-.432 2.306-.649 3.747-.649 1.081 0 2.162.072 3.171.288 1.008.144 1.873.36 2.522.649v2.162h-4.828v-.072zm20.754 3.964V34.23h2.378c1.657 0 2.954-.505 3.747-1.441.865-.937 1.297-2.522 1.297-4.684 0-2.306-.432-3.963-1.297-4.9s-2.09-1.441-3.747-1.441h-2.378zm0-3.531h2.378c3.603 0 6.269.793 7.854 2.378s2.451 4.108 2.451 7.494c0 3.171-.793 5.549-2.451 7.062-1.585 1.513-4.251 2.306-7.854 2.306-1.658 0-3.099-.072-4.252-.216a25.59 25.59 0 0 1-3.387-.649V6.413h16.43v3.531H182.75v8.287zm26.951 8.287h-2.378c-.361 0-.793.072-1.153.144a4.3 4.3 0 0 0-1.081.649c-.288.288-.577.721-.793 1.225s-.288 1.153-.288 1.874c0 .793.072 1.369.288 1.874s.433.937.793 1.225c.288.288.648.504 1.081.649.36.144.792.144 1.153.144.576 0 1.009-.072 1.441-.288.432-.144.721-.36.937-.648v-6.846zm-4.18 10.953c-.937 0-1.801-.072-2.594-.288a6.11 6.11 0 0 1-2.162-1.081c-.576-.504-1.081-1.225-1.441-2.162s-.577-2.09-.577-3.531.217-2.594.577-3.531a5.32 5.32 0 0 1 1.513-2.162c.649-.504 1.369-.865 2.306-1.081.865-.216 1.802-.288 2.883-.288.648 0 1.297.072 1.945.144l1.802.288v-1.73c0-1.729-.432-2.883-1.225-3.531-.793-.576-1.946-.865-3.387-.865h-4.396v-2.162c.649-.216 1.513-.432 2.45-.649 1.009-.144 1.874-.288 2.811-.288 1.513 0 2.81.072 3.891.288s2.018.576 2.81 1.081 1.298 1.297 1.73 2.306c.36 1.009.576 2.234.576 3.747v14.917h-3.747l-.648-1.297h-.217c-.432.432-1.08.865-1.873 1.225-.793.505-1.802.649-3.027.649zm20.322-.432h-5.189V15.205h5.189v9.152h5.909v-9.152h5.26V37.04h-5.26v-9.368h-5.909v9.368zm26.879-11.53c.792.144 1.513.576 2.234 1.153.72.648 1.225 1.585 1.513 2.882l.865 3.531c.144.432.36.865.864 1.225.433.36 1.009.577 1.802.577v2.162c-.216.072-.504.144-.865.216-.576.144-1.225.216-2.017.216-1.442 0-2.523-.36-3.387-1.009-.793-.649-1.37-1.585-1.658-2.666l-1.081-4.18c-.216-.793-.504-1.369-.937-1.802s-.936-.649-1.441-.649h-.648v9.873h-5.261V15.205h5.261v8.72h.648c.288 0 .649-.144.937-.432s.649-.937 1.081-1.946l1.297-3.315c.432-1.081 1.009-1.946 1.73-2.594s1.729-.937 3.098-.937c.361 0 .721 0 1.081.072l.937.144.865.216v2.162c-.793 0-1.297.144-1.658.432s-.576.576-.72.865l-1.081 2.883c-.433 1.225-.937 2.162-1.514 2.738-.504.576-1.153.937-1.801 1.153v.144h-.144zm-246.453.577a2.92 2.92 0 0 1-2.955 2.954A2.97 2.97 0 0 1 .36 26.087a2.92 2.92 0 0 1 2.955-2.955 2.97 2.97 0 0 1 2.955 2.955zm1.658 5.764a2.74 2.74 0 0 1-2.738 2.738 2.74 2.74 0 0 1-2.738-2.738 2.74 2.74 0 0 1 2.738-2.738 2.74 2.74 0 0 1 2.738 2.738zm-2.45-12.178a2.74 2.74 0 0 1-2.738 2.738A2.74 2.74 0 0 1 0 19.673a2.74 2.74 0 0 1 2.738-2.738c1.441 0 2.738 1.225 2.738 2.738z"/><use href="#B"/><path d="M6.702 13.908a2.43 2.43 0 0 1-2.45 2.45 2.43 2.43 0 0 1-2.45-2.45 2.43 2.43 0 0 1 2.45-2.45c1.369-.072 2.45 1.081 2.45 2.45z"/><use href="#B" y="-11.601"/><path d="M15.998 40.138a2.4 2.4 0 0 1-2.378 2.378 2.4 2.4 0 0 1-2.378-2.378 2.4 2.4 0 0 1 2.378-2.378 2.4 2.4 0 0 1 2.378 2.378zM9.873 9.008a2.4 2.4 0 0 1-2.378 2.378 2.4 2.4 0 0 1-2.378-2.378A2.4 2.4 0 0 1 7.495 6.63c1.369 0 2.378 1.081 2.378 2.378z"/><use href="#C"/><use href="#C" x="-7.639" y="-36.391"/><path d="M24.79 42.517c0 .937-.793 1.73-1.73 1.73s-1.729-.793-1.729-1.73c0-1.009.793-1.73 1.729-1.73.937-.072 1.73.721 1.73 1.73zM16.791 3.243c0 .937-.793 1.729-1.73 1.729s-1.729-.793-1.729-1.729.793-1.729 1.729-1.729 1.73.793 1.73 1.729zm-5.117 11.962c0 1.009-.793 1.729-1.729 1.729-1.009 0-1.729-.793-1.729-1.729s.793-1.729 1.729-1.729c.937-.072 1.729.721 1.729 1.729zm4.54 8.648c0 .937-.793 1.729-1.729 1.729s-1.73-.793-1.73-1.729c0-1.009.793-1.729 1.73-1.729.937-.072 1.729.721 1.729 1.729zm-1.441 9.728c0 1.009-.793 1.729-1.729 1.729-1.009 0-1.729-.793-1.729-1.729 0-1.009.793-1.73 1.729-1.73s1.729.793 1.729 1.73zM21.259 2.09c0 .937-.793 1.729-1.73 1.729S17.8 3.027 17.8 2.09c0-1.009.793-1.729 1.73-1.729.937-.072 1.73.721 1.73 1.729zm7.998 39.85c0 .793-.649 1.513-1.513 1.513s-1.513-.648-1.513-1.513.649-1.513 1.513-1.513 1.513.721 1.513 1.513zM25.51 1.513c0 .865-.649 1.513-1.513 1.513s-1.513-.649-1.513-1.513S23.132 0 23.997 0s1.513.649 1.513 1.513zm-9.584 13.836c0 .865-.649 1.513-1.513 1.513s-1.513-.649-1.513-1.513.649-1.513 1.513-1.513c.865.072 1.513.721 1.513 1.513zm3.891-.072c0 .793-.649 1.369-1.369 1.369-.793 0-1.441-.649-1.441-1.369 0-.793.649-1.441 1.441-1.441.721.072 1.369.649 1.369 1.441z"/><use href="#D"/><path d="M18.376 31.275c0 .793-.649 1.441-1.441 1.441s-1.441-.649-1.441-1.441.649-1.369 1.441-1.369c.793-.072 1.441.576 1.441 1.369z"/><use href="#D" x="12.755" y="17.655"/><path d="M29.257 2.09c0 .793-.649 1.441-1.441 1.441s-1.441-.649-1.441-1.441.648-1.441 1.441-1.441 1.441.649 1.441 1.441zm7.206 36.608c0 .649-.504 1.153-1.153 1.153s-1.153-.504-1.153-1.153.504-1.153 1.153-1.153c.649.072 1.153.576 1.153 1.153z"/><use href="#E"/><use href="#E" x="-10.161" y="11.746"/><path d="M24.862 22.051c0 .648-.504 1.153-1.153 1.153s-1.153-.505-1.153-1.153.504-1.153 1.153-1.153c.649.072 1.153.576 1.153 1.153zm1.008 6.702c0 .648-.504 1.153-1.153 1.153s-1.153-.505-1.153-1.153.504-1.153 1.153-1.153 1.153.504 1.153 1.153z"/><use href="#E" x="-10.666" y="26.591"/><path d="M36.031 5.333c0 .649-.504 1.153-1.081 1.153-.649 0-1.153-.504-1.153-1.153s.504-1.153 1.153-1.153c.576.072 1.081.504 1.081 1.153zm2.162 1.945c0 .576-.432 1.009-1.009 1.009s-1.009-.432-1.009-1.009.432-1.009 1.009-1.009c.577.072 1.009.504 1.009 1.009zm-12.395 7.135c0 .577-.432 1.009-1.009 1.009s-1.009-.432-1.009-1.009.432-1.009 1.009-1.009 1.009.432 1.009 1.009z"/><use href="#F"/><use href="#F" x="-1.009" y="7.278"/><path d="M28.609 13.332a.83.83 0 0 1-.865.865c-.504 0-.865-.432-.865-.865 0-.504.432-.865.865-.865.432-.072.865.36.865.865z"/><use href="#G"/><path d="M39.562 9.945c0 .432-.36.721-.721.721-.432 0-.721-.36-.721-.721 0-.432.36-.721.721-.721s.721.36.721.721zm-8.431 2.234c0 .432-.36.721-.721.721-.432 0-.721-.36-.721-.721 0-.432.36-.721.721-.721.432-.072.721.288.721.721z"/><use href="#G" x="-6.198" y="-15.709"/><path d="M31.491 28.753c0 .432-.36.721-.721.721-.432 0-.721-.36-.721-.721 0-.432.36-.721.721-.721.36-.072.721.288.721.721zm2.09-18.16c0 .36-.288.649-.649.649s-.648-.288-.648-.649.288-.649.648-.649a.7.7 0 0 1 .649.649zm2.45 9.152c0 .36-.288.648-.649.648s-.649-.288-.649-.648.288-.649.649-.649c.36-.072.649.216.649.649zm-1.801 9.008c0 .36-.288.649-.649.649s-.648-.288-.648-.649.288-.649.648-.649c.36-.072.649.288.649.649z"/></g><defs ><path id="B" d="M11.674 36.535a2.43 2.43 0 0 1-2.45 2.45 2.43 2.43 0 0 1-2.45-2.45 2.43 2.43 0 0 1 2.45-2.45c1.297 0 2.45 1.081 2.45 2.45z"/><path id="C" d="M20.538 41.724a2.09 2.09 0 0 1-2.09 2.09 2.09 2.09 0 0 1-2.09-2.09 2.09 2.09 0 0 1 2.09-2.09 2.09 2.09 0 0 1 2.09 2.09z"/><path id="D" d="M20.538 23.132c0 .793-.649 1.441-1.441 1.441s-1.441-.648-1.441-1.441.649-1.441 1.441-1.441 1.441.649 1.441 1.441z"/><path id="E" d="M33.005 3.243c0 .649-.504 1.153-1.153 1.153s-1.153-.504-1.153-1.153.505-1.153 1.153-1.153c.649.072 1.153.576 1.153 1.153z"/><path id="F" d="M29.618 21.475c0 .576-.432 1.009-1.009 1.009s-1.009-.432-1.009-1.009.432-1.009 1.009-1.009 1.009.432 1.009 1.009z"/><path id="G" d="M38.77 36.175c0 .432-.36.721-.721.721-.432 0-.721-.36-.721-.721 0-.432.36-.721.721-.721.432 0 .721.288.721.721z"/></defs></svg>