<svg xmlns="http://www.w3.org/2000/svg" width="246" height="39" fill="none"><path d="M191.295 31.303v1.764h-.155c-.117-.425-.221-.708-.364-.888-.104-.18-.286-.322-.52-.412-.103-.052-.337-.09-.623-.09h-.506v4.982c0 .335.039.553.065.631a.4.4 0 0 0 .207.206c.104.064.26.09.442.09h.221v.18h-3.429v-.18h.234a1.32 1.32 0 0 0 .468-.09c.077-.039.143-.129.194-.232.039-.077.039-.283.039-.605v-4.982h-.467c-.416 0-.753.09-.935.283-.286.27-.468.618-.559 1.12h-.169v-1.764h5.857v-.013zm3.715 4.621h-2.312l-.26.644c-.091.193-.13.373-.13.515 0 .18.052.322.195.412.091.051.312.09.65.09v.18h-2.169v-.18a1.09 1.09 0 0 0 .571-.283c.143-.142.325-.463.559-.978l2.35-5.175h.091l2.35 5.304c.209.515.39.837.533.953a.6.6 0 0 0 .455.167v.18h-3.143v-.18h.13c.246 0 .428-.039.519-.09.091-.039.117-.142.117-.232 0-.052-.026-.09-.026-.18 0 0-.052-.142-.143-.335l-.337-.811zm-.156-.335l-.987-2.24-.987 2.24h1.974zm7.805-4.428l.039 2.137h-.195c-.091-.515-.325-.978-.675-1.3a1.75 1.75 0 0 0-1.195-.463c-.325 0-.572.064-.753.232-.182.18-.286.373-.286.605 0 .142.013.283.091.373a1.49 1.49 0 0 0 .441.463l1.065.553c.754.373 1.273.708 1.533 1.03.259.348.402.747.402 1.172 0 .502-.234.978-.649 1.39-.428.373-.948.554-1.597.554-.208 0-.416 0-.598-.051-.169-.039-.402-.142-.675-.232-.143-.064-.286-.09-.377-.09a.46.46 0 0 0-.272.09c-.091.039-.156.142-.234.283h-.169v-2.42h.169c.143.657.415 1.21.844 1.545.377.36.818.554 1.273.554.363 0 .649-.09.883-.283a.91.91 0 0 0 .299-.695c0-.142-.027-.283-.105-.425a1.81 1.81 0 0 0-.376-.412c-.182-.142-.467-.283-.896-.515-.598-.283-1.026-.502-1.273-.747a1.95 1.95 0 0 1-.61-.656c-.13-.283-.195-.554-.195-.837 0-.502.195-.978.559-1.3.376-.373.843-.554 1.441-.554.208 0 .403.013.623.09.143.013.338.103.52.193.22.09.376.154.467.154s.143-.013.195-.064c.039-.039.091-.18.13-.373h.156zm7.208 2.124l.116 1.365h-.116c-.118-.335-.26-.605-.442-.759-.273-.258-.61-.399-1.026-.399-.558 0-.987.232-1.273.695-.233.373-.376.785-.376 1.3 0 .412.09.811.233 1.159.182.335.377.605.65.747a1.34 1.34 0 0 0 .792.232c.182 0 .325 0 .481-.052a1.4 1.4 0 0 0 .454-.18v-1.249a1.87 1.87 0 0 0-.039-.425c-.052-.09-.091-.142-.182-.18a1.72 1.72 0 0 0-.376-.039v-.116h1.727v.116h-.091c-.156 0-.286.039-.325.18-.052.064-.091.232-.091.464v1.352a2.49 2.49 0 0 1-.714.283 4 4 0 0 1-.831.09c-.844 0-1.507-.283-1.922-.798a2.18 2.18 0 0 1-.519-1.442c0-.373.09-.747.285-1.107.234-.425.52-.747.935-.94.312-.193.715-.283 1.13-.283l.429.013c.13.051.324.09.558.18.13.052.221.077.26.077.026 0 .065-.026.104-.077.013-.026.039-.09.039-.206h.13zm6.584 4.493h-1.195l-1.48-2.047h-.273-.091-.091v1.262c0 .283.013.463.091.502.065.09.195.142.364.142h.155v.142h-1.883v-.142h.156c.182 0 .325-.051.416-.167.039-.064.051-.206.051-.476v-2.845c0-.27-.012-.412-.09-.502-.065-.09-.208-.142-.377-.142h-.156v-.09h1.611c.467 0 .831 0 1.038.09.221.051.416.18.572.373.169.18.234.399.234.657 0 .283-.078.515-.247.708-.182.18-.468.322-.831.412l.935 1.262c.195.283.376.476.519.566.143.103.338.167.598.167v.129h-.026zm-3.143-2.266c.039 0 .052 0 .091.013.039 0 .052.013.091.013.415 0 .727-.09.948-.27.208-.18.324-.412.324-.695s-.09-.515-.272-.682a.97.97 0 0 0-.676-.258 2.52 2.52 0 0 0-.506.039v1.841zm6.857-2.227a2.03 2.03 0 0 1 1.506.644c.429.451.623.965.623 1.609 0 .695-.194 1.223-.623 1.674-.428.425-.934.657-1.545.657a2.05 2.05 0 0 1-1.545-.657c-.416-.412-.611-.979-.611-1.661 0-.695.234-1.275.715-1.686.402-.373.909-.579 1.48-.579zm-.052.258c-.403 0-.74.142-.974.412-.286.373-.429.888-.429 1.583 0 .734.143 1.262.468 1.674.234.283.532.425.935.425s.753-.142 1.026-.463c.247-.335.39-.837.39-1.545 0-.747-.143-1.3-.429-1.673-.234-.27-.572-.412-.987-.412zm6.961-.051v-.09h1.558v.09h-.155a.48.48 0 0 0-.416.232c-.052.039-.052.232-.052.464v1.764c0 .464-.052.785-.143 1.03-.091.232-.272.463-.506.644a2.22 2.22 0 0 1-1.052.245c-.494 0-.858-.09-1.104-.232-.247-.18-.428-.412-.519-.695-.078-.193-.105-.528-.105-1.069V34.15c0-.232-.038-.412-.117-.502-.065-.09-.194-.142-.376-.142h-.156v-.09h1.922v.09h-.168c-.182 0-.325.064-.39.18-.078.09-.091.232-.091.463v1.918a5.19 5.19 0 0 0 .039.592c.039.232.091.386.182.515.065.142.194.232.35.322a1.83 1.83 0 0 0 .559.09c.299 0 .558-.039.792-.18.234-.129.377-.283.468-.463s.129-.528.129-.991V34.15c0-.257-.039-.412-.091-.502-.091-.09-.22-.142-.389-.142h-.169v-.013zm4.351 2.239v1.262c0 .283.025.463.077.502.079.09.208.142.377.142h.169v.142h-1.883v-.142h.156c.182 0 .324-.051.415-.167.052-.064.052-.206.052-.476v-2.845c0-.27-.013-.412-.091-.502s-.194-.142-.376-.142h-.156v-.09h1.61a4.24 4.24 0 0 1 .935.09 1.55 1.55 0 0 1 .585.425c.156.18.233.412.233.695 0 .335-.116.657-.35.863s-.572.348-1.026.348c-.091 0-.195 0-.338-.039-.13-.013-.246-.051-.389-.064zm0-.193c.103 0 .207.051.298.051h.234a.82.82 0 0 0 .572-.232c.181-.18.272-.412.272-.695a1.12 1.12 0 0 0-.13-.515.85.85 0 0 0-.324-.373.88.88 0 0 0-.481-.142c-.13 0-.273.039-.428.09v1.815h-.013z" fill="#2b2a29"/><path d="M18.15 1C29.583 1 35.3 8.65 35.3 17.425s-5.717 16.425-17.15 16.425S1 26.199 1 17.425 6.717 1 18.15 1zm0 7.65c-5.534 0-8.461 3.735-8.461 8.775s2.927 8.775 8.461 8.775 8.461-3.735 8.461-8.775S23.684 8.65 18.15 8.65z" fill="url(#B)"/><path d="M29.003 25.934c-1.138 0-2.149-.62-2.149-2.055 0-1.41 1.011-2.03 2.149-2.03 1.159 0 2.149.62 2.149 2.03 0 1.435-.991 2.055-2.149 2.055zm11.15-14.819c3.222 0 5.163 1.16 5.163 3.67 0 1.595-.777 2.655-2.19 3.15 1.58.455 2.779 1.575 2.779 3.585 0 3.295-3.201 4.105-6.006 4.105h-6.403v-14.51h6.657zm-.127 8.475h-2.653v3.025h2.653c1.179 0 1.961-.375 1.961-1.515s-.782-1.51-1.961-1.51zm-.229-5.47h-2.403v2.675l2.403.02c1.032 0 1.621-.52 1.621-1.35s-.589-1.345-1.621-1.345zm6.449 11.505l5.793-14.515h4.213l5.793 14.515H58.04l-.844-2.28h-6.108l-.844 2.28h-3.999zm6.007-5.39h3.791l-1.519-4.19c-.127-.35-.254-.705-.381-1.47-.127.765-.254 1.12-.381 1.47l-1.509 4.19zm11.418 5.389v-14.51h3.689l5.772 8.335c-.061-.685-.086-1.595-.086-2.405v-5.93h3.897v14.515h-3.689l-5.773-8.315c.061.685.086 1.595.086 2.385v5.93H63.67v-.005zm16.27 0v-14.51h3.897v5.495h1.854l3.349-5.495h4.32l-4.635 7.07 4.849 7.445h-4.32l-3.582-5.6h-1.835v5.6h-3.897v-.005z" fill="#111"/><path d="M106.733 5.106h-1.368v24.637h1.368V5.106z" fill="#828a99"/><mask id="A" maskUnits="userSpaceOnUse" x="117" y="7" width="117" height="20"><path d="M233.681 7.844H117.994v18.478h115.687V7.844z" fill="#fff"/></mask><g mask="url(#A)"><path fill-rule="evenodd" d="M126.09 12.013c0 2.3-1.815 4.169-4.048 4.169s-4.048-1.867-4.048-4.169 1.813-4.169 4.048-4.169 4.048 1.863 4.048 4.169zm9.841 0c0-2.305-1.812-4.169-4.046-4.169s-4.045 1.864-4.045 4.169 1.812 4.169 4.045 4.169 4.046-1.868 4.046-4.169zm-9.841 10.139c0-2.302-1.815-4.166-4.048-4.166s-4.048 1.864-4.048 4.166 1.813 4.169 4.048 4.169 4.048-1.866 4.048-4.169zm9.841 0c0-2.302-1.812-4.166-4.046-4.166s-4.045 1.864-4.045 4.166 1.812 4.169 4.045 4.169 4.046-1.866 4.046-4.169zm55.468-13.975h-6.143l-.002 17.796h6.279c.891 0 1.702-.119 2.439-.355s1.368-.58 1.897-1.031a4.67 4.67 0 0 0 1.232-1.634c.29-.638.436-1.369.436-2.189a4.78 4.78 0 0 0-.228-1.513c-.155-.46-.366-.857-.631-1.198a4.02 4.02 0 0 0-.923-.85c-.343-.231-.706-.392-1.088-.488v-.045a4.72 4.72 0 0 0 .882-.546c.283-.219.533-.479.747-.778s.383-.644.505-1.031.185-.823.185-1.313c0-.724-.119-1.382-.359-1.974s-.588-1.1-1.058-1.527-1.048-.752-1.745-.98-1.507-.343-2.425-.343zm1.392 6.749c-.497.372-1.164.558-1.992.558h-2.097v-4.281h2.395c.69 0 1.271.164 1.74.494s.702.867.702 1.61c0 .71-.249 1.248-.748 1.62zm.491 7.371c-.444.434-1.211.65-2.3.65l-2.28.002v-4.572h2.557c.506 0 .927.065 1.267.2.334.134.612.312.828.533s.367.468.459.746.138.557.138.842c0 .631-.223 1.164-.669 1.598zm12.949 2.083l-.049.018c-.552.74-1.191 1.242-1.919 1.512s-1.436.4-2.123.4a5.76 5.76 0 0 1-1.427-.188c-.49-.128-.935-.335-1.342-.629s-.737-.674-.989-1.148-.378-1.057-.378-1.753c0-.331.047-.697.137-1.1s.306-.786.645-1.149c.333-.364.84-.684 1.515-.96s1.583-.452 2.732-.53l3.055-.191v-.569c0-.727-.203-1.268-.611-1.623-.402-.357-.974-.532-1.711-.532-.69 0-1.225.163-1.607.489s-.591.766-.624 1.324h-3.167a4.89 4.89 0 0 1 .33-1.459 3.89 3.89 0 0 1 .933-1.376c.427-.417.987-.762 1.676-1.031s1.556-.404 2.596-.404c.737 0 1.428.076 2.07.225s1.211.383 1.704.697.877.722 1.162 1.219.427 1.091.427 1.786v7.047c0 .317.015.593.044.831l.112.689h-3.191v-1.594zm-2.899-3.439l2.76-.259-.003 1.112c0 .364-.096.675-.278.934a2.26 2.26 0 0 1-.688.641c-.275.165-.572.287-.887.366a3.52 3.52 0 0 1-.86.118c-.278 0-.539-.024-.792-.07a1.99 1.99 0 0 1-.656-.238 1.33 1.33 0 0 1-.446-.439c-.115-.181-.173-.406-.173-.674 0-.442.146-.783.44-1.018s.817-.395 1.583-.475zm14.839-2.371c0-.443-.058-.814-.173-1.114s-.271-.54-.471-.721a1.82 1.82 0 0 0-.666-.392c-.245-.078-.5-.118-.758-.118-.673 0-1.202.265-1.585.794s-.575 1.208-.575 2.045v6.907h-3.303V13.803h3.163v1.596h.056c.49-.741 1.024-1.247 1.608-1.514a4.46 4.46 0 0 1 1.881-.404c.705 0 1.318.111 1.835.334a3.59 3.59 0 0 1 1.298.91c.342.386.594.836.757 1.349a5.52 5.52 0 0 1 .241 1.645v8.257h-3.307v-7.403l-.001-.001zm7.898 1.439l.048.004 3.496 5.96h4.068l-4.114-6.679 3.951-5.484-3.836-.009-3.565 5.332-.048.001V8.177h-3.302v17.796h3.302V20.01zM142.93 8.177h-3.445v17.796h3.445V8.177zm10.577 16.096l.052-.01.001 1.71h3.161V8.177h-3.304v7.296h-.044c-.553-.757-1.122-1.278-1.714-1.563s-1.268-.427-2.035-.427c-.858 0-1.625.175-2.297.522s-1.247.816-1.712 1.409-.828 1.269-1.083 2.035a7.72 7.72 0 0 0-.377 2.426c0 .849.132 1.665.401 2.437a6.61 6.61 0 0 0 1.127 2.047c.481.592 1.061 1.066 1.735 1.42s1.424.532 2.253.532a4.88 4.88 0 0 0 2.137-.473c.657-.316 1.224-.835 1.699-1.562zm-.161-5.677a4.7 4.7 0 0 1 .184 1.323 5.07 5.07 0 0 1-.193 1.42 3.59 3.59 0 0 1-.576 1.158 2.74 2.74 0 0 1-.918.78c-.362.19-.779.285-1.253.285-.491 0-.919-.098-1.288-.295s-.679-.459-.929-.791-.443-.712-.576-1.146-.196-.887-.196-1.361c0-.454.063-.901.185-1.335a3.52 3.52 0 0 1 .55-1.147 2.94 2.94 0 0 1 .908-.806c.361-.206.778-.307 1.253-.307.522 0 .968.098 1.344.295s.69.46.942.791a3.41 3.41 0 0 1 .563 1.135zm8.075 3.32a3.82 3.82 0 0 1-.242-1.059l8.642-.002v-.944c0-.976-.149-1.863-.448-2.662s-.713-1.471-1.241-2.033-1.164-.989-1.905-1.286c-.746-.302-1.559-.452-2.449-.452s-1.704.153-2.447.452a5.3 5.3 0 0 0-1.908 1.29c-.529.561-.942 1.236-1.24 2.035s-.448 1.684-.448 2.661.148 1.858.448 2.64a5.99 5.99 0 0 0 1.24 2.011c.529.561 1.163.991 1.908 1.291s1.557.45 2.447.45c1.393 0 2.6-.318 3.617-.957s1.728-1.581 2.126-2.827l-3.216-.26c-.23.474-.556.834-.976 1.079a2.74 2.74 0 0 1-1.391.366c-.446 0-.832-.082-1.163-.249s-.603-.382-.826-.64-.397-.564-.528-.902zm4.862-4.145c.12.307.198.613.227.911h-5.331c.046-.345.134-.679.265-.995a2.56 2.56 0 0 1 .54-.827c.231-.236.505-.424.826-.566s.697-.214 1.128-.214c.396 0 .749.08 1.054.238s.567.359.783.613.383.533.508.84zm12.463 6.627l.051-.018.001 1.593h3.191l-.114-.689c-.027-.238-.042-.514-.042-.831v-7.047c0-.695-.143-1.291-.429-1.786s-.67-.901-1.162-1.219-1.058-.547-1.703-.697a9.19 9.19 0 0 0-2.069-.224c-1.042 0-1.907.138-2.595.404s-1.248.614-1.678 1.031-.739.879-.931 1.376-.302.984-.334 1.459h3.17c.033-.558.238-.997.622-1.324s.918-.489 1.608-.489c.735 0 1.306.177 1.711.534s.607.895.607 1.623v.569l-3.053.191c-1.149.078-2.06.255-2.732.53s-1.18.596-1.518.96-.55.745-.642 1.149-.138.769-.138 1.1c0 .696.127 1.278.379 1.753a3.29 3.29 0 0 0 .988 1.148c.407.294.854.501 1.344.629s.966.188 1.424.188c.691 0 1.397-.133 2.124-.4s1.367-.773 1.92-1.512zm-2.849-3.457l2.756-.259v1.112c0 .364-.093.675-.278.934s-.412.474-.69.64a3.27 3.27 0 0 1-.882.366c-.314.079-.601.118-.863.118a4.39 4.39 0 0 1-.791-.07c-.254-.048-.473-.127-.655-.238s-.334-.256-.449-.439-.171-.406-.171-.674c0-.442.145-.783.436-1.018s.82-.395 1.587-.475z" fill="url(#C)"/></g><defs><linearGradient id="B" x1="5.868" y1="5.34" x2="30.035" y2="29.902" gradientUnits="userSpaceOnUse"><stop stop-color="#5a308d"/><stop offset=".071" stop-color="#42338c"/><stop offset=".664" stop-color="#cc2d78"/><stop offset="1" stop-color="#e9af30"/></linearGradient><linearGradient id="C" x1="117.994" y1="17.082" x2="233.681" y2="17.082" gradientUnits="userSpaceOnUse"><stop stop-color="#0093d4"/><stop offset=".604" stop-color="#2b2a29"/></linearGradient></defs></svg>