<svg xmlns="http://www.w3.org/2000/svg" width="138" height="30.5"><defs><path d="M0 0h138v30.5H0V0z" id="A"/><clipPath id="B"><use href="#A"/></clipPath><path id="C" d="M128.442 18.655l-3.126 3.074c-.174.173-.272.408-.273.653v2.979.369h-3.455V4.102h3.458v13.64l7.053-6.898c.211-.183.485-.28.765-.272h3.425.315l.029.071-5.869 5.737c.685 1.404 1.732 3.224 2.788 4.368.462.487.957.941 1.483 1.359.869.709 1.871.81 2.965.535v3.059c-2.076.535-4.018.381-5.634-1.407-1.311-1.327-3.681-5.243-3.909-5.651"/></defs><g clip-path="url(#B)"><g opacity=".4"><path d="M7.757 0C3.477 0 .007 3.399.007 7.593v15.172c-.053 2.746 1.413 5.306 3.832 6.694a7.89 7.89 0 0 0 7.834 0c2.419-1.388 3.884-3.948 3.832-6.694V7.585C15.501 3.394 12.033 0 7.757 0" fill="#ff3a00"/></g><g fill="#ff4d00"><path d="M15.494 7.742a7.75 7.75 0 0 1-4.779 7.167c-2.896 1.201-6.23.539-8.446-1.679A7.75 7.75 0 0 1 .592 4.78C1.793 1.883 4.621-.004 7.756 0c2.054 0 4.025.817 5.477 2.27A7.75 7.75 0 0 1 15.5 7.75m21.214 13.846a1.09 1.09 0 0 1 .824-1.055l7.049-2.128c1.916-.626 2.88-2.157 2.88-3.818 0-2.226-1.53-4.028-4.339-4.028H33.6v3.018h9.194c.819 0 1.207.482 1.207 1.088a1.02 1.02 0 0 1-.75 1.017l-6.842 2.104c-2.227.807-3.161 2.211-3.161 3.872 0 2.223 1.456 4.028 4.339 4.028h9.529v-3.021h-9.164c-.747 0-1.237-.485-1.237-1.076h0zM51.638 5.568c-.001-.824.496-1.567 1.259-1.883a2.05 2.05 0 0 1 2.228.44 2.03 2.03 0 0 1 .444 2.22c-.316.761-1.061 1.258-1.888 1.258a2.04 2.04 0 0 1-2.043-2.033"/><path d="M51.95 10.566h3.464v15.138H51.95V10.566z" fill-rule="evenodd"/><path d="M25 5.568c-.001-.824.496-1.568 1.26-1.884a2.05 2.05 0 0 1 2.228.441 2.03 2.03 0 0 1 .442 2.221c-.317.761-1.063 1.257-1.89 1.256-1.127 0-2.04-.91-2.04-2.033"/><g fill-rule="evenodd"><path d="M25.296 10.566h3.464v15.138h-3.464V10.566zm41.057 14.866c-.89-.375-1.483-.754-1.815-1.147l-.498-.556h-.151V25.7h-3.467V4.082h3.467v8.473h.151c.216-.312.481-.586.786-.813a5.34 5.34 0 0 1 1.014-.695 7.97 7.97 0 0 1 3.464-.783 8.25 8.25 0 0 1 5.75 2.137c1.557 1.434 2.346 3.349 2.346 5.745s-.798 4.303-2.346 5.734c-1.572 1.416-3.632 2.174-5.75 2.116-1.014.023-2.02-.172-2.951-.573m7.444-7.297c.051-1.271-.438-2.505-1.346-3.399-.907-.875-2.103-1.312-3.585-1.312-1.498 0-2.693.437-3.6 1.312-1.815 1.918-1.815 4.913 0 6.83.907.887 2.103 1.312 3.6 1.312s2.669-.437 3.585-1.312a4.55 4.55 0 0 0 1.361-3.422m8.782 5.746c-1.56-1.419-2.342-3.334-2.346-5.745s.778-4.323 2.346-5.734c1.564-1.42 3.618-2.181 5.733-2.125a7.4 7.4 0 0 1 2.966.573 4.94 4.94 0 0 1 1.815 1.162l.486.556h.166v-1.989h3.464v15.123H93.76v-1.974h-.166a3.07 3.07 0 0 1-.774.798c-.312.266-.651.499-1.011.695a8.03 8.03 0 0 1-3.482.777c-2.115.056-4.169-.705-5.733-2.125m1.239-5.745a4.55 4.55 0 0 0 1.37 3.437c.908.887 2.103 1.312 3.6 1.312s2.669-.437 3.603-1.312c1.815-1.918 1.815-4.913 0-6.83-.925-.887-2.12-1.312-3.603-1.312s-2.711.431-3.6 1.306c-.916.893-1.411 2.131-1.361 3.408"/></g><path d="M113.925 25.701v-7.658c0-1.552-.409-2.713-1.242-3.482s-1.919-1.147-3.283-1.147c-1.436 0-2.557.423-3.328 1.283-.799.928-1.215 2.124-1.165 3.346v7.658h-3.464V10.566h3.464v2.441h.213c.074-.165.137-.331.742-.949.302-.321.641-.604 1.011-.845a7.73 7.73 0 0 1 3.834-.949c1.952 0 3.555.572 4.811 1.717 1.257 1.162 1.877 2.882 1.877 5.172v8.547h-3.47z"/><use href="#C"/><use href="#C"/></g></g></svg>