<svg xmlns="http://www.w3.org/2000/svg" width="232" height="21" fill="none" fill-rule="evenodd"><g fill="#000"><path d="M15.208 15.689V8.389c0-2.071-1.109-3.054-2.97-3.054-1.548 0-2.887.92-3.473 1.841-.377-1.151-1.318-1.841-2.803-1.841-1.548 0-2.887.962-3.305 1.569V5.585H0v10.104h2.657V8.891c.397-.565 1.171-1.192 2.092-1.192 1.088 0 1.506.669 1.506 1.611v6.38h2.678V8.87c.377-.544 1.151-1.171 2.092-1.171 1.088 0 1.506.669 1.506 1.611v6.38h2.678zm7.301.251c-3.326 0-5.334-2.427-5.334-5.313 0-2.866 2.008-5.292 5.334-5.292 3.347 0 5.355 2.427 5.355 5.292 0 2.887-2.008 5.313-5.355 5.313zm0-2.364c1.653 0 2.594-1.36 2.594-2.95 0-1.569-.941-2.929-2.594-2.929s-2.573 1.36-2.573 2.929c0 1.59.92 2.95 2.573 2.95zm16.798 2.113V8.556c0-1.966-1.067-3.221-3.284-3.221-1.653 0-2.887.795-3.535 1.569V5.585H29.83v10.104h2.657V8.891c.439-.607 1.255-1.192 2.301-1.192 1.13 0 1.862.481 1.862 1.883v6.108h2.657zm7.322.251c-3.326 0-5.334-2.427-5.334-5.313 0-2.866 2.008-5.292 5.334-5.292 3.347 0 5.355 2.427 5.355 5.292 0 2.887-2.008 5.313-5.355 5.313zm0-2.364c1.653 0 2.594-1.36 2.594-2.95 0-1.569-.941-2.929-2.594-2.929s-2.573 1.36-2.573 2.929c0 1.59.92 2.95 2.573 2.95zm9.978-1.13c.439.649 1.422 1.13 2.28 1.13 1.548 0 2.573-1.171 2.573-2.929s-1.025-2.95-2.573-2.95c-.858 0-1.841.502-2.28 1.171v3.577zm0 3.242H53.95V1.736h2.657v5.146a3.89 3.89 0 0 1 3.117-1.548c2.573 0 4.477 2.008 4.477 5.313 0 3.368-1.925 5.293-4.477 5.293-1.213 0-2.322-.544-3.117-1.548v1.297zm18.325 0h-2.657v-1.046c-.69.816-1.883 1.297-3.201 1.297-1.611 0-3.514-1.088-3.514-3.347 0-2.364 1.904-3.263 3.514-3.263 1.339 0 2.531.439 3.201 1.234v-1.36c0-1.025-.879-1.694-2.217-1.694-1.088 0-2.092.397-2.95 1.192l-1.004-1.778c1.234-1.088 2.824-1.59 4.414-1.59 2.301 0 4.414.92 4.414 3.828v6.527zm-4.79-1.548c.858 0 1.694-.293 2.134-.879v-1.255c-.439-.586-1.276-.879-2.134-.879-1.046 0-1.904.544-1.904 1.527 0 .941.858 1.485 1.904 1.485zm16.902 1.548V8.556c0-1.966-1.067-3.221-3.284-3.221-1.652 0-2.887.795-3.535 1.569V5.585h-2.657v10.104h2.657V8.891c.439-.607 1.255-1.192 2.301-1.192 1.13 0 1.862.481 1.862 1.883v6.108h2.657zm12.509 0l-4.121-5.523 3.996-4.581h-3.263l-3.828 4.498V1.736h-2.657v13.953h2.657v-2.594l1.213-1.297 2.678 3.891h3.326z"/><path opacity=".25" d="M224.227 3.645h2.177v6.922h.123l2.83-3.325 2.007-.005-3.105 3.635L232 15.417h-2.507l-3.058-4.231h-.031v4.231h-2.177V3.645zm-103.462.526v6.455c0 2.199.651 3.401 2.474 3.401 1.747 0 2.445-1.457 2.445-3.274V4.172h2.057v6.984c0 2.84-1.859 4.449-4.565 4.449-3.098 0-4.709-1.497-4.709-4.561V4.172h2.298zm11.784 4.158c.737-.77 1.762-1.139 2.79-1.139 1.908 0 2.917 1.025 2.917 3.048v5.171h-2.165v-4.928c0-1.125-.504-1.864-1.632-1.864-1.059 0-1.892.691-1.892 2.009v4.783H130.4V7.382h2.149v.948zm8.253 7.08V7.382h2.168v8.028h-2.168zm-.212-10.436a1.27 1.27 0 0 1 1.257-1.237c.748 0 1.333.611 1.333 1.237 0 .689-.502 1.348-1.302 1.348-.768 0-1.288-.659-1.288-1.348zm7.175 10.436l-3.468-8.062h2.297l2.114 5.815h.033l2.178-5.815h2.033l-3.672 8.062h-1.515zm11.637-4.976c.085-1.224-.356-2.056-1.429-2.056-1.244 0-1.801.979-1.778 2.056h3.207zm-3.243 1.156c-.049 1.511 1.027 2.632 2.38 2.632.803 0 1.647-.273 2.187-.643l.619 1.125c-1.108.642-2.268.9-3.196.9-2.462 0-4.303-1.72-4.303-4.369 0-2.474 1.824-4.045 4.156-4.045 2.543 0 3.604 2.006 3.444 4.399h-5.287zm9.541-2.795h.031l.441-.626c.242-.355.732-.978 1.4-.978.49 0 1.013.257 1.47.721l-.818 1.477c-.358-.179-.587-.273-1.025-.273-.75 0-1.483.594-1.483 2.327v3.967h-2.175V7.382h2.159v1.413zm9.128.096c-.487-.353-.994-.513-1.387-.513-.487 0-.978.272-.978.818 0 .642.784 1.013 1.696 1.668 1.161.855 1.5 1.689 1.5 2.424 0 1.128-1.256 2.316-3.047 2.316-1.126 0-1.957-.387-2.721-.916l.684-1.11c.486.388 1.186.77 1.772.77.624 0 1.176-.322 1.176-.995 0-.755-.849-1.171-1.629-1.718-.93-.625-1.564-1.236-1.564-2.23 0-1.271 1.236-2.216 2.833-2.216.901 0 1.778.223 2.369.739l-.704.961zm6.177 2.249c-1.058.337-1.596.931-1.596 1.845 0 .708.457 1.19.982 1.19.861 0 1.987-1.061 1.825-3.42l-1.211.385zm.688 3.501c-.588.482-1.338.964-2.085.964-1.274 0-2.336-.964-2.336-2.441 0-1.527 1.128-2.377 3.02-2.924l1.924-.562c-.114-.737-.784-1.202-1.481-1.202-.933 0-1.585.337-2.156.819l-.703-1.012c1.013-.818 2.006-1.091 3.129-1.091 1.504 0 3.346.479 3.346 2.986v3.274c0 .643.08 1.4.343 1.959h-2.298c-.167-.274-.214-.737-.214-1.171l-.489.402zm5.088.77V3.609h2.17V15.41h-2.17zm21.374-4.271c-1.061.337-1.599.931-1.599 1.845 0 .708.455 1.19.979 1.19.86 0 1.988-1.061 1.828-3.42l-1.208.385zm.68 3.501c-.583.482-1.335.964-2.085.964-1.271 0-2.333-.964-2.333-2.441 0-1.527 1.126-2.377 3.02-2.924l1.926-.562c-.119-.737-.784-1.202-1.489-1.202-.927 0-1.581.337-2.151.819l-.702-1.012a4.67 4.67 0 0 1 3.134-1.091c1.497 0 3.338.479 3.338 2.986v3.274c0 .643.081 1.4.341 1.959h-2.295c-.161-.274-.215-.737-.215-1.171l-.489.402zm7.241-6.311c.735-.77 1.763-1.139 2.789-1.139 1.907 0 2.918 1.025 2.918 3.048v5.171h-2.168v-4.928c0-1.125-.506-1.864-1.631-1.864-1.061 0-1.892.691-1.892 2.009v4.783h-2.168V7.382h2.152v.948zm-19.215 5.728h1.174c1.272 0 2.237-.657 2.237-1.908 0-1.318-.996-1.879-2.251-1.879h-1.16v3.787zm0-5.168h.721c1.323 0 2.22-.834 2.22-1.88 0-.994-.754-1.426-1.748-1.426h-1.193v3.306zm-2.296 6.55V4.202h4.126c1.922 0 3.277.866 3.277 2.392 0 1.797-1.483 2.538-2.282 2.746v.032c1.419.065 2.999 1.027 2.999 2.745 0 1.942-1.649 3.324-4.335 3.324h-3.785z"/></g><path opacity=".5" d="M108.506 0h.436v20.919h-.436V0z" fill="#1a1a1a"/></svg>