<svg width="157" height="64" viewBox="0 0 157 64" fill="none" xmlns="http://www.w3.org/2000/svg">
<path d="M87.6615 40.7199C90.7281 40.7199 94.763 40.3386 94.763 35.9568C94.763 33.3366 93.0172 31.9555 90.6808 31.622C93.1347 31.3602 94.3853 29.8836 94.3853 27.6685C94.3853 23.5008 90.7045 23.239 87.6378 23.239H81.999V40.7199H87.6615ZM85.2785 26.0734H87.6142C89.5721 26.0734 90.8464 26.2875 90.8464 28.1452C90.8464 29.8598 89.5248 30.288 87.8263 30.288H85.2785V26.0734ZM85.2785 33.1224H87.5196C89.5248 33.1224 91.2241 33.5037 91.2241 35.4801C91.2241 37.552 89.6904 37.8616 87.6615 37.8616H85.2785V33.1224Z" fill="#292B5B"/>
<path d="M115.156 36.9342C115.156 39.4973 117.252 40.9079 119.488 40.9079C121.794 40.9079 123.099 39.8264 123.542 39.0502L123.658 40.7199H126.663V33.5247C126.663 29.5038 124.613 27.6461 120.723 27.6461C119.372 27.6461 117.252 28.1402 116.274 28.8687V31.5728C117.229 30.9616 119.116 30.4443 120.466 30.4443C122.493 30.4443 123.565 31.3146 123.518 33.1485C122.563 32.8663 121.562 32.7253 120.583 32.7253C117.438 32.7253 115.156 34.183 115.156 36.9342ZM118.324 36.8401C118.324 35.6175 119.419 34.8413 121.119 34.8413C121.911 34.8413 122.726 35.0062 123.542 35.3824C123.471 37.2633 121.818 38.5091 120.257 38.5091C119.279 38.5091 118.324 38.0157 118.324 36.8401Z" fill="#292B5B"/>
<path d="M106.359 40.7199C109.426 40.7199 113.46 40.3386 113.46 35.9568C113.46 33.3366 111.714 31.9555 109.379 31.622C111.833 31.3602 113.083 29.8836 113.083 27.6685C113.083 23.5008 109.402 23.239 106.335 23.239H100.696V40.7199H106.359ZM103.976 26.0734H106.311C108.27 26.0734 109.544 26.2875 109.544 28.1452C109.544 29.8598 108.223 30.288 106.524 30.288H103.976V26.0734ZM103.976 33.1224H106.217C108.223 33.1224 109.921 33.5037 109.921 35.4801C109.921 37.552 108.388 37.8616 106.359 37.8616H103.976V33.1224Z" fill="#292B5B"/>
<path d="M132.497 40.7199V33.6686C132.497 31.9063 133.334 30.3314 135.407 30.3314C137.153 30.3314 138.154 31.295 138.154 33.9746V40.7199H141.251V33.4335C141.251 29.485 139.295 27.6519 136.431 27.6519C134.801 27.6519 133.381 28.287 132.497 29.5328L132.403 27.84H129.4V40.7199H132.497Z" fill="#292B5B"/>
<path d="M147.106 40.7198V36.6535L148.549 35.1965L152.344 40.7198H156L150.668 33.058L155.814 27.84H151.879L147.106 32.964V22.4584H143.986V40.7198H147.106Z" fill="#292B5B"/>
<path d="M78.9825 23.2831H65.757V26.2361H70.7049V40.908H74.0346V26.2361H78.9825V23.2831Z" fill="#292B5B"/>
<path d="M54.0723 35.2891L49.8382 23.2831H46.4368L43.244 40.9072H46.573L48.5897 29.0966L53.0023 40.9072H55.143L59.5556 29.0966L61.5723 40.9072H64.9005L61.7084 23.2831H58.3071L54.0723 35.2891Z" fill="#292B5B"/>
<path fill-rule="evenodd" clip-rule="evenodd" d="M2 41.975C2 43.7807 3.47635 45.302 5.27807 45.2796H12.6412L16.6567 30.1419C17.0179 28.7131 18.3008 27.6569 19.8287 27.6569H35.9181V22.1495C35.9181 20.3315 34.4625 18.8564 32.6644 18.8456H10.5335C9.00551 18.8456 7.72266 19.9025 7.36074 21.3306L2.11897 41.0902C2.04085 41.384 2 41.6704 2 41.975Z" fill="#00B1EB"/>
<path fill-rule="evenodd" clip-rule="evenodd" d="M35.9181 36.4683V27.6569H19.8288C18.3008 27.6569 17.018 28.7131 16.6568 30.1419L12.6412 45.2796H18.4599H24.2843L25.9607 38.9532C26.3219 37.5245 27.6054 36.4683 29.1327 36.4683H35.9181Z" fill="#06639B"/>
<path fill-rule="evenodd" clip-rule="evenodd" d="M35.9181 36.4683H29.152H29.1326C27.6054 36.4683 26.3218 37.5245 25.9606 38.9532L24.2843 45.2796H27.189C29.0065 45.2796 30.8283 45.2796 32.6443 45.2796C34.4525 45.2796 35.9181 43.8002 35.9181 41.9757V36.4683Z" fill="#292B5B"/>
</svg>
