<svg xmlns="http://www.w3.org/2000/svg" width="132.01" height="28" viewBox="12.813 21 132.013 28" fill="none"><style><![CDATA[.B{fill-rule:evenodd}.C{fill:#52ae30}]]></style><g clip-path="url(#B)"><mask id="A" maskUnits="userSpaceOnUse" x="131" y="21" width="14" height="22" mask-type="alpha"><path d="M144.825 42.403V21.054h-13.566v21.348l13.566.001z" fill="#fff"/></mask><g mask="url(#A)" class="B C"><path d="M138.719 34.207l4.115 7.901-.161.213-2.946.081-.214-.162c-.685-1.88-3.689-7.792-3.689-7.792l-1.592 7.74-.187.16-2.679.054-.107-.162 2.643-11.436 1.816-9.109.187-.16 2.893-.481.159.188c-.534 1.85-3.052 12.829-3.052 12.829 1.903-1.682 5.07-5.036 5.494-5.491l.292-.161h3.054l.08.241c-.755.602-2.152 1.877-2.655 2.331l-3.451 3.215v.001z"/></g><g fill="#006648"><path d="M54.107 30.705c-1.248 0-2.662.639-3.476 4.542-.905 4.341.901 4.617 1.777 4.617.797 0 2.492-.438 3.336-4.593.592-2.909.121-4.566-1.636-4.566v-.001zm6.2 4.567c-1.141 6.567-5.192 7.406-8.622 7.406-3.385 0-6.503-2.353-5.621-7.44.69-3.975 3.028-7.655 8.717-7.373 3.967.196 6.3 2.939 5.526 7.407z"/><path d="M68.947 42.114l-.212.214c-.85.162-1.848.294-2.389.294-2.005 0-4.946-.305-3.703-5.409l1.446-6.029-1.858.054-.16-.213.77-2.707.186-.133h1.752l.77-3.455.184-.186 4.355-1.126.158.161-1.169 4.66 2.709-.054.105.187-.822 2.679-.211.187-2.443-.054-1.191 4.974c-.75 3.128-.355 2.97.396 3.268.642.256 1.484-.072 1.962-.232l.161.135-.797 2.785h-.001z" class="B"/><path d="M76.402 39.437a4.84 4.84 0 0 0 3.556-1.046c1.061-.91 2.018-2.785 2.018-4.821 0-2.251-1.433-2.518-1.964-2.518-.769 0-1.355.402-1.913.776l-1.698 7.609h0zm2.15-10.26c.691-.482 1.832-1.286 3.557-1.286 2.655 0 4.433 2.008 4.433 5.41 0 1.929-.663 4.206-2.044 5.893-2.628 3.242-5.946 3.214-8.76 3.214l-1.511 6.402-.186.133c-.611 0-1.196-.024-1.805-.024l-2.681.08-.132-.189s.934-2.839 2.099-7.72c1.223-5.121 2.365-11.122 2.465-12.345l.186-.186 4.54-.748.158.186-.317 1.179h0z"/></g><g class="C"><path d="M90.021 40.266c1.504.072 3.717.027 5.442-1.151 1.965-1.369 2.895-3.751 2.895-5.466 0-2.436-1.462-3.374-3.161-3.374-1.353 0-2.308.59-3.159 1.126l-2.017 8.867h-.001zm-3.238 1.955l2.49-10.924 1.944-9.595.211-.187 2.894-.508.132.189-.743 2.972-1.223 5.142c1.117-.616 2.178-1.206 3.877-1.206 2.627 0 4.831 1.796 4.831 5.172 0 1.365-.425 3.936-2.203 6-2.389 2.758-5.335 2.946-8.76 3.081h-1.46l-1.858.027-.133-.162h0zm26.683-11.785c-.399 0-.795-.026-1.196-.026-.875 0-2.601.053-4.168 1.124-2.787 1.927-2.838 5.385-2.838 5.519 0 1.286.69 3.347 3.104 3.347.716 0 1.903-.17 3.186-1.313l1.912-8.651h0zm1.963 3.401l-1.644 8.332-.187.186-2.495.054-.134-.185.187-1.072c-.451.374-1.619 1.365-3.877 1.365-2.706 0-4.909-1.929-4.909-5.277 0-2.114 1.007-4.419 2.122-5.759 2.469-2.92 5.894-3.081 8.336-3.081l3.663.026.132.214-1.194 5.196h0z"/><g class="B"><path d="M128.577 42.195l-.213.159-2.707.082-.108-.188 2.045-9.724c.018-1.606-.981-2.143-2.23-2.143-1.645 0-2.733.832-3.53 1.421l-2.152 10.393-.184.159-2.708.082-.132-.188s.804-3.278 1.531-6.687l1.256-6.705.185-.189a26.36 26.36 0 0 0 2.814-.482l.133.186-.372 1.367c1.036-.697 2.364-1.633 4.566-1.633.876 0 3.743.239 3.743 3.482 0 1.937-1.678 8.715-1.937 10.607z"/></g></g><path d="M12.813 34.229c0-7.301 5.863-13.222 13.097-13.229v4.779c-4.618.009-8.358 3.79-8.358 8.45 0 4.667 3.749 8.45 8.373 8.45 4.597 0 8.374-3.749 8.374-8.481l4.739.004c0 7.335-5.871 13.259-13.113 13.259s-13.111-5.925-13.111-13.231z" fill="#006648" class="B"/><path d="M20.141 34.229c0-3.241 2.604-5.869 5.815-5.869s5.817 2.628 5.817 5.869-2.604 5.867-5.816 5.867-5.816-2.626-5.816-5.867" class="B C"/><path d="M29.989 26.797c0-1.857 1.493-3.364 3.334-3.364s3.332 1.508 3.332 3.364-1.493 3.362-3.332 3.362a3.35 3.35 0 0 1-3.334-3.362" fill="#00674a" class="B"/></g><defs><clipPath id="B"><path fill="#fff" transform="translate(12.813 21)" d="M0 0h132.3v28H0z"/></clipPath></defs></svg>