<svg xmlns="http://www.w3.org/2000/svg" width="800.14" height="144.299" viewBox="0 0 1560.273 144.299"><path d="M62.742 49.333h.164v-.496l-.164-12.023c-.25-1.895-.25-3.871-.332-6.016 0-2.387-.082-4.859-.41-7 0-3.129-.66-6.426-1.316-9.719l-.414-2.227v-.246l-.164-.164c-.492-.496-.66-1.07-.824-1.812-.164-.578-.328-1.234-.656-1.812-.824-1.484-2.059-2.883-3.211-4.203-.332-.492-.66-.656-.906-.82-.164-.168-.332-.25-.496-.414l-.246-.246h-.164l-.164-.082c-.988-.824-1.977-1.152-3.047-1.484-.332-.492-.906-.492-1.316-.574v-.332h-.578l-2.633-.492h-.414l-.246.246c-.082.082-.082.164-.66 0l-.824-.246h-.328l-.164.082c-.082 0-.164-.082-.328-.164l-1.07-.332v.496c-.578 0-.988.082-1.402.246h-3.375l.164.66c-.738-.164-1.234.328-1.562.574 0 0-.082.082-.164.082a1.92 1.92 0 0 0-1.152.578c-.168.082-.25.164-.414.164h-.246l-.164.25c-.246.246-.988.656-1.402.82l-.902.414.246.164s-.328.164-.414.246h-.82v.66h-.082l-.496-.246-.328.41c-.496.742-1.234 1.484-1.977 2.227-.824.902-1.73 1.809-2.387 2.883l-.164.328.164.328s-.578.332-.66.824c-.328.328-.41.824-.492 1.152v.25c-.332.41-.414.906-.496 1.152 0 .246 0 .41-.164.574l-.41.496.164.164-.164.824v.246l-.25.164v.414c.164.824 0 1.648 0 2.473-.082.82-.246 1.645-.164 2.551-.328.496-.246 1.07-.164 1.484v.41l-.41.332.328.492s0 .988-.082 1.648c-.164.574-.328 1.234-.164 1.895l-.164.164c0 .082-.168.246-.086.496v.656l-.328.66v.246l.496.414v1.07.824l-.332.656.332.414v.082c0 .328 0 .824.328 1.234v.164l-.66.168.414.906v.246c0 .246-.164.824.082 1.234-.246.578 0 1.07 0 1.402v.328c-.578.66-.332 1.48-.164 1.977a1.72 1.72 0 0 0-.168 1.234l-.82.25.82.906s0 .41.086.656c.082.164.246.246.328.332h-.246v.164l.328.742c-.082.574 0 .988.246 1.316 0 .082-.082.246-.164.328l-.328.332.328.492s.164.824 0 1.566c-.164.66-.328 1.48 0 2.223l-.492.496.574.41c-.164.328-.41.824 0 1.402v1.152c0 .66-.164 1.48.164 2.305v.824l-.082-.082c-.082.328 0 .578 0 .824h-.246l.164.66c.164.574.164 1.316.164 2.059 0 1.48 0 3.129 1.316 4.363l.25.25h.41c.988-.414.988-1.402 1.07-1.895v-.332-.164-.164c-.41-1.316-.246-3.129 0-4.613 0-.41 0-.824.082-1.152v-.164-.164c-.246-.578-.246-1.074-.164-1.648 0-.578.164-1.152 0-1.812.246-2.801.082-6.18 0-9.062l-.082-3.539c-.164-1.402-.082-2.887 0-4.285v-3.871c.328-1.402.246-2.719.246-4.035v-1.895-.168c.332-.41.414-.82.246-1.152.168-.492.168-.988.168-1.48 0-.332 0-.66.082-.988v-.168-.164c-.082-.246 0-.656.082-.988.082-.41.164-.988 0-1.48.492-1.074.656-2.391.738-3.625v-.414s0-.492-.246-.738c0-.578.246-1.074.66-1.648.41-.66.824-1.32.988-2.309v-.164l.164-.164c.246-.164.574-.496.574-.988v-.246c.496-.414.742-.906.988-1.32.414-.656.66-1.07 1.402-1.316h.328v-.496c.082-.41.496-.656 1.07-.988.41-.246.906-.574 1.234-.988.496 0 .742-.082.906-.246.578-.164 1.07-.492 1.398-.824.66-.492.824-.574 1.238-.41l.41.164.246-.246c.164 0 .578-.168.742-.496.164 0 .328-.082.492-.164.332-.082.414-.164.578 0 .164.082.328.164.66.082h.492.66c1.891-.328 3.621-.578 5.105.246l.492.332.328-.496s.164.164.164.246c.414.414 1.07 1.156 2.059.988.25.168.496.332.66.496.082 0 .246.082.246.164l.164.246c.332.414.906.578 1.484.578 1.152 1.234 2.305 2.801 2.305 3.543v.656h.492c.168.906.414 1.98 1.156 2.719-.168.496 0 .988 0 1.238v.246l-.168.492.414.414h.082c0 .492.164.906.328 1.234 0 .082.082.164.082.246v.25c-.738 1.152.082 1.813.496 2.141 0 0 .082 0 .164.082-.328.246-.328.496-.328.906v.496l.246.328c0 .082 0 .246.164.41l-.246.25-.164.574.328.496.246.164s.082.492.164.66v.082.246c-.328 1.07-.574 2.555.082 3.707-.328.41-.246.906-.164 1.234v.332l-.164.656s.246 0 .41.164v.168l-.164.82h.25v.742c0 .414 0 .66-.168.906v.164c-.164.742 0 1.402.25 1.977 0 .086 0 .25.082.332-.082.164-.25.328-.25.574v.168l-.164.164v.41s.332.414.496.414h-.082v.574.164h-.414l.164.578c-.082.164-.246.496-.082.824l-.246.492s0 .332.328.414c-.246.906.414 1.566.824 1.977.164.164.246.328.332.41h-.332l.246.824s-.082.164-.164.25l-.492.246.164.742v.164.824c-.246.164-.41.492-.492.906v.656h.41c0 .164-.082.25-.082.414 0 .246-.082.41-.246.574v.082l.902.496-.246.66c0 .082 0 .246-.082.246h-.824v.906a1.79 1.79 0 0 0 .082.492c0 .168 0 .332.086.496v.906.492h-.086l.086.578v.742.41l-.578.332.742.82c-.082.25-.164.496-.164.742h-.578l.906 1.152s.164.332.164.496c-.41.328-.41.906-.41 1.152v.332l.246.328s-.246.246-.328.41v.66h-.906l.738.742-.656.246.574.496v1.813s.164.574.414.738c0 0 .738.25 1.07.164v.742l.906-.246c.656-.164 1.152-.246 1.645-.082l.742.164v-.742c.41-2.719.328-5.27.246-7.742l.164-7c.164-.496 0-.824-.164-1.07" fill="#0057a1"/><path d="M165.168-16.401c-1.152-.656-2.801-1.07-3.953-.574-7.328-.66-14.246-.578-21.656-.496h-.492-11.363l-30.875-.66c-7.246-.164-15.234-.164-22.973.168-5.762 0-11.363.164-17.043.328-5.93.164-20.172.164-28.57.246h-7.164c-.988 0-2.223 1.484-2.223 2.555 0 .66.328 1.316 1.398 1.48.824.086 5.93.086 15.234.086h9.469c2.551 0 3.703 0 4.281-.086 6.996-.656 13.996-.656 20.828-.574h.578l13.504-.164c.988.246 1.977 0 2.883-.164h.164c.41-.086.906-.168 1.316-.25 1.07.25 2.223.25 3.457.25s2.473 0 3.543.246h.164c.988-.414 1.895-.164 2.797 0h.168c.492.082.902.164 1.316.164 8.809-.246 18.605 0 30.793.988l5.766.66c5.102-.496 10.371-.082 15.559.246h.082c3.871.246 7.492.578 11.117.492h.246l1.895-1.562h.082c.66-1.07.41-2.473-.41-3.297" fill="#ebbd00"/><path d="M114.035 49.333h.164v-.496l-.164-12.023c-.246-1.895-.246-3.871-.328-6.016 0-2.387-.082-4.859-.414-7 0-3.129-.656-6.426-1.316-9.719l-.41-2.227v-.246l-.164-.164c-.496-.496-.66-1.07-.824-1.812-.164-.578-.328-1.234-.66-1.812-.82-1.484-2.059-2.883-3.211-4.203-.246-.492-.574-.656-.906-.82-.164-.168-.328-.25-.492-.414l-.246-.246h-.164l-.25-.082c-.988-.824-1.977-1.152-3.047-1.484-.328-.492-.902-.492-1.316-.574v-.332h-.574l-2.637-.492h-.41l-.25.246c-.082.082-.164.164-.656 0l-.824-.246h-.328l-.164.082-.332-.164-1.07-.332v.496c-.574 0-.988.082-1.398.246h-3.375l.164.66c-.742-.164-1.316.328-1.566.574 0 0-.082.082-.164.082a1.93 1.93 0 0 0-1.152.578c-.164.082-.246.164-.41.164h-.246l-.168.25c-.246.246-.988.656-1.398.82l-.906.414.164.164s-.328.164-.41.246h-.906v.66h-.082l-.492-.246-.332.41c-.492.742-1.234 1.484-1.977 2.227-.82.902-1.727 1.809-2.387 2.883l-.246.328.164.328s-.578.332-.66.824c-.328.328-.41.824-.492 1.152v.25c-.328.41-.41.906-.496 1.152 0 .246 0 .41-.164.574l-.41.496.164.164-.164.824v.246l-.328.164v.414c.164.824 0 1.648 0 2.473-.082.82-.25 1.645-.168 2.551-.328.496-.246 1.07-.164 1.484v.41l-.41.332.328.492s0 .988-.082 1.648c-.164.574-.41 1.234-.164 1.895l-.164.164c0 .082-.164.246-.164.496v.656l-.332.66v.246l.496.414v1.07c0 .41.082.656 0 .824l-.328.656.328.414s0 .906.328 1.316v.164l-.656.168.41.906v.246c0 .246-.164.824.082 1.234-.246.578 0 1.07 0 1.402v.328c-.66.66-.328 1.48-.164 1.977-.246.41-.246.988-.164 1.234l-.824.25.824.906a2.64 2.64 0 0 0 .082.656c.082.164.246.246.328.332h-.246v.164l.328.742c0 .574 0 .988.246 1.316 0 .082-.082.246-.164.328l-.328.332.328.492s.164.824 0 1.566c-.164.66-.41 1.48 0 2.223l-.492.496.574.41c-.164.328-.41.824 0 1.402v1.152c0 .66-.164 1.48.164 2.305v.824l-.082-.082c-.082.328 0 .578.082.824h-.246l.164.66c.168.574.168 1.316.168 2.059 0 1.48 0 3.129 1.316 4.363l.246.25h.328c.988-.414.988-1.402 1.07-1.895v-.332-.164-.164c-.41-1.316-.246-3.129 0-4.613 0-.41 0-.824.082-1.152v-.164-.164c-.246-.578-.164-1.074-.164-1.648s.164-1.152 0-1.812c.246-2.801.082-6.18 0-9.062l-.082-3.539c-.164-1.402-.164-2.887 0-4.285v-3.871c.328-1.402.328-2.719.246-4.035v-1.895-.168c.332-.41.414-.82.25-1.152.164-.492.164-.988.164-1.48 0-.332 0-.66.082-.988v-.168-.164c-.082-.246 0-.656 0-.988.082-.41.246-.988 0-1.48.492-1.074.66-2.391.742-3.625v-.414s0-.492-.25-.738c0-.578.332-1.074.66-1.648.41-.66.824-1.32.988-2.309v-.164l.164-.164c.246-.164.578-.496.578-.988v-.246c.492-.414.738-.906.988-1.32.41-.656.656-1.07 1.398-1.316h.328l.082-.496c.082-.41.496-.656 1.07-.988.414-.246.906-.574 1.234-.988.496 0 .824-.082.906-.246.578-.164.988-.492 1.402-.824.574-.492.82-.574 1.234-.41l.41.164.246-.246a1 1 0 0 0 .742-.496c.164 0 .328-.082.496-.164.328-.082.41-.164.574 0 .082.082.328.164.66.082h.492.66c1.895-.328 3.621-.578 5.105.246l.574.332.332-.496.246.246c.41.414 1.07 1.156 2.059.988.246.168.492.332.656.496.082 0 .168.082.25.164l.164.246c.328.414.906.578 1.48.578 1.152 1.234 2.305 2.801 2.305 3.543v.656h.496c.164.906.41 1.98 1.152 2.719-.164.496 0 .988 0 1.238v.246l-.164.492.492.414h.082c0 .492.164.906.332 1.234 0 .082.082.164.164.246l-.164.25c-.578 1.152.246 1.813.574 2.141 0 0 .082 0 .164.082-.328.246-.246.496-.328.906v.496l.246.328a.53.53 0 0 0 .164.41l-.246.25-.164.574.328.496.25.164s.082.492.164.66v.082.246c-.246 1.07-.578 2.555.082 3.707-.328.41-.246.906-.164 1.234v.332l-.164.656s.246 0 .41.164v.168l-.164.82h.246v.742c0 .414 0 .66-.164.906v.164c-.164.742 0 1.402.246 1.977 0 .086 0 .25.082.332-.082.164-.246.328-.246.574v.168l-.164.164.164.41s.246.414.41.414h-.082v.574.164h-.41l.246.578c-.082.164-.246.496-.082.824l-.328.492s0 .332.328.414c-.246.906.41 1.566.824 1.977.164.164.246.328.328.41h-.328l.246.824s-.164.164-.164.25l-.578.246.164.742v.164s-.082.656 0 .824h.086a1.83 1.83 0 0 0-.496.906v.656h.496c0 .164-.086.25-.168.414 0 .246-.082.41-.246.574v.082l.906.496-.246.66c0 .082 0 .246-.082.246h-.824v.906l.164.492c0 .168 0 .332.082.496v.906.492h-.082v.578.742.41l-.574.332.738.82s-.164.496-.164.824h-.492l.902 1.156s.168.328.168.492c-.414.328-.414.906-.496 1.152v.332l.246.328s-.328.246-.328.41c-.082.25-.082.414 0 .66h-.906l.742.742-.66.246.578.496v1.813s.164.574.41.738c.332.25.742.25 1.07.168v.738l.824-.246c.66-.164 1.152-.246 1.648-.082l.738.164v-.742c.414-2.715.332-5.27.25-7.742l.164-7c.246-.496 0-.824-.164-1.07" fill="#006828"/><path d="M164.426 50.239h.164v-.496l-.164-12.023c-.246-1.895-.246-3.875-.328-6.016 0-2.387-.082-4.859-.414-7 0-3.133-.656-6.508-1.316-9.719l-.41-2.227v-.164l-.168-.164c-.492-.496-.656-1.07-.82-1.812-.164-.578-.332-1.152-.66-1.73-.824-1.484-2.059-2.883-3.211-4.199-.246-.496-.578-.66-.906-.824-.164-.082-.328-.25-.492-.332l-.25-.246h-.164l-.164-.082c-.988-.824-1.977-1.152-3.047-1.484-.328-.492-.906-.492-1.316-.574V.813h-.578l-2.715-.492h-.41l-.25.246c-.082.164-.082.164-.656 0l-.824-.246h-.328l-.168.082c-.082 0-.164-.082-.328-.164l-1.07-.328v.492c-.574 0-.988.082-1.398.246h-3.375l.164.66c-.742-.164-1.32.246-1.566.496l-.164.164c-.574.082-.906.328-1.152.492-.164.164-.246.164-.41.164h-.25l-.164.25c-.246.328-.988.656-1.398.824l-.906.41.164.164s-.328.164-.41.246h-.906v.66h-.082l-.496-.164-.328.41c-.492.742-1.234 1.484-1.977 2.227-.824.906-1.727 1.813-2.387 2.883l-.164.328.164.328s-.578.332-.66.824c-.328.332-.41.824-.492 1.156v.246c-.328.41-.414.906-.496 1.234 0 .246 0 .414-.164.496l-.41.492.164.164s-.164.66-.164.906v.25l-.246.164v.41c.164.824 0 1.648 0 2.473a8.42 8.42 0 0 0-.168 2.555c-.328.492-.246 1.07-.164 1.48v.414l-.41.328.246.492s0 .988-.082 1.566c-.164.578-.41 1.234-.164 1.895l-.164.164c0 .082-.164.25-.164.496v.656l-.332.66v.246l.496.414v1.07c.082.41.082.66 0 .742l-.332.656.332.414v.164c0 .246 0 .824.328 1.234v.25l-.66.164.414.906v.246c0 .246-.164.824 0 1.234-.164.578 0 1.074 0 1.402v.328c-.66.66-.332 1.484-.164 1.977-.25.414-.25.988-.168 1.32l-.82.246.82.824s0 .41.086.66c.082.164.246.246.328.246h-.246v.164l.328.742c0 .574 0 .988.246 1.316 0 0-.164.246-.164.332l-.328.328.328.492s.164.824 0 1.566c-.164.66-.328 1.484 0 2.141l-.492.496.574.41c-.164.25-.41.824 0 1.402v1.152c0 .66-.164 1.484.164 2.305l-.164.824v.66l-.246.164.164.578c.164.574.164 1.316.164 2.059 0 1.484 0 3.129 1.316 4.367l.25.246h.41c.988-.414.988-1.402 1.07-1.895v-.332-.164-.164c-.41-1.316-.246-3.047 0-4.613 0-.41 0-.824.082-1.152v-.164-.164c-.246-.578-.164-1.07-.164-1.648s.164-1.152 0-1.812c.246-2.801.082-6.18 0-9.062l-.082-3.457c-.164-1.484-.164-2.965-.082-4.367v-3.871c.328-1.398.246-2.719.246-4.035v-1.895-.164c.328-.414.41-.824.246-1.238.164-.492.164-.988.164-1.48 0-.332 0-.66.086-.988v-.168-.164c-.086-.328 0-.656.082-.988.082-.41.164-.988 0-1.48.492-1.07.656-2.391.738-3.625V17.7s0-.492-.246-.738c0-.578.328-1.074.66-1.648.41-.66.82-1.32.988-2.309v-.164l.164-.164c.246-.246.656-.492.574-.988v-.246c.496-.414.742-.906.988-1.32.414-.656.66-1.07 1.402-1.316h.328l.082-.496c.082-.41.492-.656 1.07-.988.41-.246.906-.574 1.234-.988.496 0 .742-.082.988-.246.578-.164.988-.492 1.398-.824.578-.492.824-.574 1.238-.41l.41.164.246-.246c.164 0 .496-.164.742-.496.164 0 .328-.082.492-.164.332-.082.414-.082.578 0 .164 0 .328.164.66.082h.492.66c1.891-.328 3.621-.578 5.105.246l.574.332.328-.496s.168.164.168.246c.41.414 1.07 1.156 2.055.988.25.168.414.332.66.496.082 0 .164.082.246.164l.168.246c.246.414.902.578 1.48.578 1.152 1.234 2.305 2.801 2.305 3.543v.656h.496c.164.906.41 1.98 1.152 2.719-.164.496 0 .988 0 1.238v.246l-.164.492.492.496h.082c0 .496.164.906.328 1.234a.82.82 0 0 0 .082.25v.246c-.738 1.152.086 1.813.496 2.059 0 0 .082 0 .164.082-.246.246-.246.496-.328.906v.496l.246.328a.53.53 0 0 0 .164.41l-.246.25-.164.574.328.496.246.164s.082.492.164.66v.082.328c-.246 1.07-.574 2.555.086 3.707-.332.41-.25.906-.168 1.234v.332l-.164.656s.246 0 .414.082v.25l-.168.824h.25v.738c0 .414 0 .66-.164.906v.164c-.168.742 0 1.402.328 1.98 0 .082.082.164.082.328-.082.164-.246.328-.246.578v.164l-.164.164v.41s.328.332.492.414h-.082v.574.168h-.41l.246.574c-.082.164-.246.496-.082.824l-.332.496s0 .328.332.41c-.25.906.41 1.566.82 1.977.168.164.25.328.332.414h-.332l.25.902s-.164.168-.164.25l-.578.246.164.742v.164s-.082.66 0 .824h.082c-.164.164-.41.492-.492.906v.66h.41c0 .164 0 .246-.082.41 0 .246-.082.41-.246.578l.906.492s-.25.496-.25.66c0 .082 0 .246-.082.246h-.82v.906l.164.496v.574.824.496h-.082v.574.742.492l-.578.332.742.824c-.082.246-.164.492-.164.738h-.578l.906 1.074s.164.328.164.492c-.41.328-.41.906-.492 1.152v.414l.246.246c-.164.164-.246.246-.328.41-.082.25-.082.414 0 .66h-.906l.738.742-.656.164.574.496v1.813s.168.574.414.738c0 0 .738.25 1.07.168v.738l.906-.246c.656-.164 1.152-.246 1.563-.082l.742.164v-.742c.41-2.633.328-5.27.328-7.742l.164-7.082c.25-.414 0-.824-.164-1.07M9.715-58.823h165.168v165.238H9.715zM0 116.22h184.68V-68.542H0zm0 0" fill="#eb680a"/><path d="M238.117 143.321h10.703v53.457h-10.703zm22.313 14h9.715v5.355h.164c3.215-4.531 7.578-6.262 12.93-6.262 9.305 0 13.418 6.59 13.418 15.488v24.875h-10.289v-21.086c0-4.859 0-11.367-6.672-11.367-7.41 0-9.055 8.07-9.055 13.098v19.273h-10.293v-39.457zm50.226 7.496h-7.574v-7.496h7.574v-7.906l10.289-3.297v11.203h9.141v7.496h-9.141v18.371c0 3.375.906 6.508 4.859 6.508 1.813 0 3.625-.414 4.695-1.07l.328 8.07c-2.141.578-4.527.906-7.574.906-8.07 0-12.434-4.941-12.434-12.77v-20.016zm58.457 29.657c-3.785 2.059-8.066 3.129-13.586 3.129-13.008 0-20.582-7.496-20.582-20.43 0-11.367 6.008-20.84 18.277-20.84 14.574 0 18.773 10.051 18.773 23.809h-27.254c.496 6.34 4.859 9.965 11.281 9.965 4.938 0 9.223-1.812 13.09-3.953zm-6.914-21.336c-.332-4.941-2.637-9.227-8.316-9.227s-8.645 3.957-9.141 9.227zm42.239-7.578c-3.129-1.07-5.434-1.648-9.223-1.648-2.719 0-6.012.988-6.012 4.367 0 6.262 17.867 2.305 17.867 16.555 0 9.227-8.152 12.852-16.547 12.852-3.871 0-7.906-.66-11.613-1.648l.578-8.402c3.211 1.648 6.586 2.637 10.129 2.637 2.633 0 6.75-.988 6.75-4.859 0-7.742-17.867-2.473-17.867-16.723 0-8.484 7.41-12.273 15.48-12.273 4.773 0 7.984.742 11.195 1.484l-.656 7.742zm13.171-6.176c3.953-1.812 9.305-2.969 13.668-2.969 12.023 0 16.961 4.945 16.961 16.641v5.023c0 3.957 0 7.004.164 9.887 0 2.965.25 5.766.496 8.813h-9.059c-.41-2.059-.41-4.695-.492-5.93h-.164c-2.391 4.363-7.492 6.836-12.187 6.836-7 0-13.75-4.199-13.75-11.695 0-5.934 2.801-9.309 6.75-11.285s8.977-2.309 13.258-2.309h5.68c0-6.34-2.797-8.484-8.891-8.484-4.363 0-8.727 1.648-12.187 4.285l-.328-8.812zm12.023 30.723c3.129 0 5.598-1.398 7.16-3.543 1.648-2.223 2.141-5.023 2.141-8.07h-4.445c-4.609 0-11.363.742-11.363 6.836 0 3.379 2.801 4.859 6.508 4.859zm79.7-36.985c-3.375-1.484-7.078-2.309-10.867-2.309s-8.398 1.648-8.398 7.414c0 9.227 23.383 5.355 23.383 23.313 0 11.695-9.223 16.145-20.008 16.145-5.844 0-8.398-.742-13.668-2.059l.988-9.637c3.707 1.977 7.906 3.293 12.105 3.293s9.469-2.059 9.469-6.918c0-10.215-23.387-5.93-23.387-23.641 0-11.945 9.223-16.309 18.691-16.309 4.613 0 8.895.574 12.762 1.895l-.988 8.813zm15.563 6.262c3.953-1.812 9.305-2.969 13.668-2.969 12.02 0 16.961 4.945 16.961 16.641v5.023c0 3.957 0 7.004.164 9.887 0 2.965.246 5.766.496 8.813h-9.059c-.41-2.059-.41-4.695-.492-5.93h-.168c-2.387 4.363-7.492 6.836-12.184 6.836-7 0-13.75-4.199-13.75-11.695 0-5.934 2.801-9.309 6.75-11.285s8.977-2.309 13.258-2.309h5.68c0-6.34-2.797-8.484-8.891-8.484-4.363 0-8.727 1.648-12.187 4.285l-.328-8.812zm11.938 30.723c3.129 0 5.602-1.398 7.164-3.543 1.648-2.223 2.141-5.023 2.141-8.07h-4.445c-4.609 0-11.363.742-11.363 6.836 0 3.379 2.801 4.859 6.504 4.859zm29.476-32.786h9.719v5.355h.164c3.211-4.531 7.574-6.262 12.926-6.262 9.305 0 13.422 6.59 13.422 15.488v24.875h-10.293v-21.086c0-4.859 0-11.367-6.668-11.367-7.41 0-9.059 8.07-9.059 13.098v19.273h-10.293v-39.457zm47.261 0h9.797v5.602h.168c2.305-3.789 6.172-6.508 12.266-6.508 12.105 0 16.551 9.641 16.551 20.512s-4.445 20.758-16.715 20.758c-4.363 0-7.988-1.07-11.527-5.437h-.164v20.594h-10.293v-55.52zm10.293 19.605c0 5.602 2.223 12.77 9.055 12.77s8.648-7.332 8.648-12.77-1.812-12.52-8.48-12.52-9.223 7-9.223 12.52zm38.864-17.542c3.953-1.812 9.305-2.969 13.668-2.969 12.02 0 16.961 4.945 16.961 16.641v5.023c0 3.957 0 7.004.164 9.887 0 2.965.246 5.766.492 8.813h-9.055c-.414-2.059-.414-4.695-.496-5.93h-.164c-2.387 4.363-7.492 6.836-12.184 6.836-7 0-13.75-4.199-13.75-11.695 0-5.934 2.797-9.309 6.75-11.285s8.977-2.309 13.258-2.309h5.68c0-6.34-2.801-8.484-8.891-8.484-4.367 0-8.73 1.648-12.187 4.285l-.328-8.812zm12.02 30.723c3.129 0 5.598-1.398 7.164-3.543 1.648-2.223 2.141-5.023 2.141-8.07h-4.445c-4.613 0-11.363.742-11.363 6.836 0 3.379 2.801 4.859 6.504 4.859zm47.425-33.692c11.691 0 20.668 7.91 20.668 20.926 0 11.367-7.574 20.344-20.668 20.344s-20.582-9.059-20.582-20.344c0-13.016 8.973-20.926 20.582-20.926zm0 33.281c7.906 0 9.965-7.004 9.965-13.594 0-6.012-3.211-11.695-9.965-11.695s-9.879 5.848-9.879 11.695c0 6.508 2.059 13.594 9.879 13.594zm29.641-50.414h10.293v57.414h-10.293zm39.687 17.133c11.691 0 20.668 7.91 20.668 20.926 0 11.367-7.578 20.344-20.668 20.344s-20.586-9.059-20.586-20.344c0-13.016 8.977-20.926 20.586-20.926zm0 33.281c7.902 0 9.961-7.004 9.961-13.594 0-6.012-3.211-11.695-9.961-11.695s-9.879 5.848-9.879 11.695c0 6.508 2.059 13.594 9.879 13.594zm92.629-36.082c-4.117-1.895-9.469-2.801-13.75-2.801-12.434 0-19.352 8.402-19.352 19.359s6.754 19.027 18.117 19.027c2.879 0 5.188-.328 6.996-.742V174.54h-11.363v-8.402h21.574v28.746c-5.68 1.566-11.527 2.719-17.289 2.719-17.293 0-29.312-8.648-29.312-26.687s11.195-28.586 29.313-28.586c6.172 0 11.113.824 15.641 2.227l-.656 9.059zm13.914 3.707h9.141v8.98h.164c.492-3.707 4.691-9.887 10.785-9.887.988 0 2.059 0 3.129.332v10.297c-.906-.496-2.719-.824-4.609-.824-8.316 0-8.316 10.379-8.316 16.063v14.496h-10.293zm48.332-.906c11.691 0 20.664 7.91 20.664 20.926 0 11.367-7.574 20.344-20.664 20.344s-20.586-9.059-20.586-20.344c0-13.016 8.977-20.926 20.586-20.926zm0 33.281c7.902 0 9.961-7.004 9.961-13.594 0-6.012-3.211-11.695-9.961-11.695s-9.883 5.848-9.883 11.695c0 6.508 2.059 13.594 9.883 13.594zm65.457 7h-9.715v-5.355h-.164c-3.129 3.789-7.578 6.262-12.93 6.262-9.301 0-13.418-6.59-13.418-15.484V157.24h10.289v21.09c0 4.777 0 11.367 6.672 11.367 7.41 0 9.055-8.074 9.055-13.098v-19.277h10.293v39.457zm11.031-39.375h9.801v5.602h.164c2.305-3.789 6.176-6.508 12.27-6.508 12.101 0 16.547 9.641 16.547 20.512s-4.445 20.758-16.715 20.758c-4.363 0-7.984-1.07-11.527-5.437h-.164v20.594h-10.289v-55.52zm10.375 19.605c0 5.602 2.223 12.77 9.059 12.77s8.645-7.332 8.645-12.77-1.812-12.52-8.48-12.52-9.223 7-9.223 12.52zm0 0"/><g fill="#006828"><g fill-rule="evenodd"><path d="M1458.094 7.899l.332-37.23c.328-6.18 1.726-9.145 6.504-9.969 2.141-.328 3.129-.496 4.941-.496 1.398 0 2.469-.328 2.469-1.562s-1.234-1.566-3.707-1.566c-6.008 0-17.043.496-21.242.496s-15.23-.496-24.535-.496c-2.637 0-3.871.328-3.871 1.566s1.07 1.563 2.965 1.563c2.469 0 5.434.168 6.836.496 5.762 1.234 7.16 4.035 7.574 9.969.328 5.598.328 10.543.328 37.23V38.79c0 16.145 0 30.066-.906 37.395-.742 5.109-1.562 8.98-5.105 9.641-1.562.328-3.703.656-6.34.656-2.141 0-2.797.496-2.797 1.402 0 1.234 1.234 1.73 3.539 1.73 7 0 18.113-.496 22.149-.496 4.363 0 15.48.496 25.277.496 1.977 0 3.375-.496 3.375-1.73 0-.906-.906-1.402-2.305-1.402-2.305 0-6.176-.328-8.562-.656-4.363-.742-5.93-4.531-6.34-9.473-.496-7.578-.496-21.418-.496-37.562V22.81h.906l1.977 2.637c3.707 5.105 38.203 45.633 45.945 52.469 7.492 6.672 12.266 10.543 21.734 11.449 3.707.332 6.836.332 12.105.332h15.23c3.379 0 4.199-.496 4.199-1.73 0-1.07-1.07-1.402-2.305-1.402-2.059 0-5.598-.492-10.867-2.633-9.469-3.707-17.375-11.617-25.113-18.949-6.836-6.504-41.25-43.492-47.59-51.809 5.926-6.344 32.441-32.621 37.875-37.895 7.574-7.328 13.504-11.035 18.938-13.18 3.293-1.234 7.738-1.977 10.207-1.977 1.73 0 2.637-.328 2.637-1.562s-1.234-1.566-2.965-1.566c-5.434 0-15.148.496-20.582.496-4.695 0-14.41-.496-18.035-.496-1.973 0-2.797.328-2.797 1.566 0 1.07.656 1.398 2.305 1.73 1.73.328 2.469 1.563 2.469 3.539 0 2.965-3.867 7.414-8.809 13.18-5.105 5.934-30.711 32.125-36.641 38.633h-.906zm0 0"/><path d="M1321.004 12.841c-.492 0-1.07-.328-1.07-1.234V7.899l.332-37.23c.328-6.18 1.727-9.145 6.504-9.969 2.141-.328 3.703-.496 5.105-.496 2.141 0 3.129-.328 3.129-1.562s-1.238-1.566-3.707-1.566c-6.832 0-17.867.496-22.066.496-4.774 0-15.809-.496-25.277-.496-2.469 0-3.703.328-3.703 1.566s1.07 1.563 2.961 1.563c2.473 0 5.438.168 6.836.496 5.762 1.234 7.164 4.035 7.574 9.969.328 5.598.328 10.543.328 37.23v30.89c0 16.145 0 29.984-.902 37.395-.742 5.109-1.566 8.98-5.105 9.641-1.566.328-3.707.738-6.34.738-2.141 0-2.801.496-2.801 1.402 0 1.234 1.234 1.73 3.539 1.73 7 0 18.035-.496 22.066-.496 4.941 0 15.976.496 27.336.496 2.141 0 3.543-.496 3.543-1.73 0-.906-.906-1.402-2.801-1.402a64.15 64.15 0 0 1-8.977-.738c-5.27-.742-6.34-4.531-6.832-9.473-.906-7.578-.906-21.418-.906-37.562V23.384c0-.906.496-1.07 1.07-1.07h67.024c.492 0 1.07.332 1.07 1.07V38.79c0 16.145 0 29.984-.906 37.395-.742 5.109-1.566 8.98-5.105 9.641-1.562.328-3.703.738-6.34.738-2.141 0-2.801.496-2.801 1.402 0 1.234 1.238 1.73 3.707 1.73 6.832 0 17.867-.496 21.902-.496 4.938 0 15.973.496 27.336.496 2.141 0 3.539-.496 3.539-1.73 0-.906-.906-1.402-2.801-1.402-2.633 0-6.504-.328-8.973-.738-5.27-.742-6.34-4.531-6.836-9.473-.906-7.578-.906-21.418-.906-37.562V7.899l.332-37.23c.328-6.18 1.727-9.145 6.504-9.969 2.141-.328 3.703-.496 5.105-.496 2.141 0 3.129-.328 3.129-1.562s-1.234-1.566-3.707-1.566c-6.832 0-17.867.496-22.066.496-4.774 0-15.809-.496-25.277-.496-2.469 0-3.703.328-3.703 1.566s1.07 1.563 2.965 1.563c2.469 0 5.434.168 6.832.496 5.766 1.234 7.164 4.035 7.574 9.969.332 5.598.332 10.543.332 37.23v3.707c0 .906-.496 1.234-1.07 1.234h-67.023zm-174.883 4.039c-5.02-1.402-16.137-2.637-21.898-2.887-4.199-.164-6.672-.492-8.234-.82-.246 0-.496-.168-.66-.332V9.63c0-22.57 0-34.762 3.707-37.973 2.961-2.637 9.219-3.133 22.969-3.133 9.387 0 16.223.164 20.668 4.945 2.141 2.305 4.199 7.246 4.609 10.625.168 1.563.496 2.637 1.976 2.637 1.238 0 1.402-.906 1.402-2.969 0-1.977-1.238-15.156-2.637-20.262-1.07-3.871-1.976-4.777-11.113-4.777-12.68 0-23.469-.414-31.453-.246-.988 0-1.895.082-2.801.082-5.352 0-11.445.41-18.774.41-3.457 0-14.488-.492-23.793-.492-2.637 0-3.871.328-3.871 1.563s1.07 1.566 2.965 1.566c2.469 0 5.434.164 6.832.578 5.766 1.234 7.164 4.035 7.492 9.965.332 5.602.332 10.461.332 37.066v30.809c0 16.063 0 29.902-.906 37.23-.66 5.109-1.566 8.898-5.105 9.641a30.39 30.39 0 0 1-6.258.656c-2.141 0-2.801.496-2.801 1.402 0 1.234 1.238 1.73 3.543 1.73 3.457 0 8.066-.332 12.02-.332 4.199-.164 8.07-.164 9.965-.164 2.633 0 7.902.164 13.09.496l12.27.492c32.191 0 46.684-19.437 46.684-38.137 0-20.43-15.891-31.219-30.219-36.16zm-12.512 66.391c-4.035 0-8.07-.164-12.766-2.141-5.598-2.309-6.09-5.273-6.09-16.805V22.892c0-.906.328-1.234 1.07-1.234 2.633 0 4.363 0 7.492.164 6.832.328 10.867 1.563 14.488 4.199 13.258 9.227 16.965 23.973 16.965 34.844 0 18.203-13.258 22.406-21.16 22.406zm0 0"/></g><path d="M1338.707 86.813l-45.449.328v-1.566s-.824.332-1.234.332c-6.672 0-8.645-4.285-14.738-18.863-11.281-26.691-39.359-98.355-43.559-107.992-1.727-4.035-2.797-5.602-4.363-5.602-1.727 0-2.797 1.895-4.937 7.004l-44.051 110.297c-3.539 8.73-6.836 14.742-14.902 15.813-1.402.168-1.566.332-3.129.332-1.402 0-2.059.41-2.059 1.398 0 1.402 1.07 1.73 3.375 1.73 9.059 0 16.469-.492 18.359-.492 5.438 0 13.012.492 18.609.492 1.977 0 2.965-.328 2.965-1.73 0-1.07-.496-1.398-2.637-1.398h-2.633c-5.434 0-7-2.227-7-5.437 0-2.141.906-6.344 2.637-10.707l9.469-25.125c.328-1.07.656-1.402 1.563-1.402h39.109c.824 0 1.402.414 1.813 1.238l13.996 37.23c.824 2.145-.328 3.707-1.562 4.039-1.73.164-2.469.492-2.469 1.563 0 1.238 2.141 1.238 5.27 1.402l33.18.328 40.676-.082c2.469 0 4.445-.66 4.445-2.059 0-.496-.246-.824-.742-1.07zm-97.898-51.238h-32.273c-.742 0-.906-.574-.742-1.234l16.137-43.164c.246-.742.496-1.562 1.07-1.562.496 0 .742.906.906 1.563l15.809 43.328c.164.496 0 1.07-.906 1.07zM396.695 7.735l-.328-36.82c-.328-5.93-1.73-8.648-7.492-9.887-1.398-.328-4.363-.492-6.75-.492-1.895 0-2.965-.332-2.965-1.566s1.234-1.566 3.785-1.566c9.223 0 20.172.496 25.031.496 7.082 0 17.207-.496 25.195-.496 21.738 0 29.559 7.332 32.277 9.887 3.785 3.625 8.645 11.449 8.645 20.676 0 24.629-18.031 42.008-42.734 42.008-.906 0-2.797 0-3.621-.164-.906-.164-2.059-.328-2.059-1.562 0-1.402 1.234-1.895 4.855-1.895 9.719 0 23.305-10.957 23.305-28.668 0-5.766-.496-17.379-10.211-26.027-6.258-5.77-13.34-6.758-17.375-6.758-2.633 0-5.187.168-6.75.66-.906.328-1.398 1.402-1.398 3.297v69.52c0 15.98 0 29.738.906 37.152.492 4.859 1.563 8.648 6.75 9.391 2.469.328 6.258.656 8.891.656 1.895 0 2.801.496 2.801 1.402 0 1.234-1.398 1.73-3.293 1.73-11.445 0-22.395-.496-26.926-.496-4.031 0-14.902.496-21.898.496-2.227 0-3.461-.496-3.461-1.73 0-.906.66-1.402 2.801-1.402a29.81 29.81 0 0 0 6.258-.656c3.457-.66 4.363-4.531 5.023-9.559.906-7.328.906-21.004.906-36.984V7.817zm0 0"/><path d="M489.738 43.321c-.906 0-1.238.328-1.566 1.398l-9.387 24.875c-1.727 4.367-2.633 8.484-2.633 10.629 0 3.129 1.563 5.352 6.914 5.352h2.637c2.059 0 2.633.332 2.633 1.402 0 1.398-1.07 1.73-2.965 1.73-5.516 0-13.008-.496-18.441-.496-1.895 0-8.234.496-17.207.496-2.223 0-3.293-.332-3.293-1.73 0-1.07.738-1.238 2.059-1.402 2.223-.328 2.797-.492 4.195-.738 6.426-1.074 9.223-6.508 12.684-15.242l43.555-109.059c2.059-5.027 3.129-6.922 4.855-6.922 1.566 0 2.637 1.566 4.367 5.52 4.199 9.555 31.945 80.48 43.059 106.84 6.59 15.648 11.609 18.039 15.316 18.945 2.633.492 5.188.656 7.328.656 1.398 0 2.223.164 2.223 1.402 0 1.398-1.562 1.73-7.988 1.73s-18.937 0-32.852-.332c-3.129-.164-5.187-.164-5.187-1.398 0-1.07.66-1.402 2.473-1.566 1.234-.328 2.469-1.895 1.563-4.035l-13.914-36.82c-.328-.906-.906-1.234-1.73-1.234zm35.402-8.652c.906 0 1.07-.492.906-1.07L510.402-9.315c-.164-.66-.328-1.566-.906-1.566s-.902.906-1.07 1.566l-15.973 42.75c-.164.66 0 1.234.66 1.234zm0 0"/><path d="M592.41 7.735l-.328-36.82c-.332-5.93-1.73-8.648-7.492-9.887-1.402-.328-4.367-.492-6.754-.492-1.895 0-2.965-.332-2.965-1.566s1.238-1.566 3.789-1.566c9.223 0 20.172.496 23.629.496 8.48 0 15.316-.496 21.16-.496 31.453 0 36.973 16.887 36.973 26.031 0 14.25-8.152 22.734-17.703 30.395 14.242 4.859 31.617 17.219 31.617 37.562 0 18.617-14.41 37.891-46.355 37.891-2.059 0-7.082-.328-12.187-.492-5.187-.332-10.457-.496-13.008-.496-1.895 0-5.766 0-9.879.164-3.953 0-8.484.332-12.023.332-2.223 0-3.457-.496-3.457-1.73 0-.906.656-1.402 2.797-1.402a29.73 29.73 0 0 0 6.258-.656c3.461-.66 4.367-4.531 5.023-9.555.906-7.332.906-21.008.906-36.988zm20.832 2.965c0 1.398.492 1.73 1.234 1.895 1.563.328 4.199.496 8.152.496 5.762 0 9.551-.742 12.516-3.297 4.527-3.625 7.078-9.883 7.078-18.453 0-11.613-6.75-26.934-21.734-26.934-2.473 0-3.953 0-5.766.328-1.234.332-1.562 1.07-1.562 2.965v42.918zm22.891 13.922c-3.625-2.637-7.66-3.789-14.41-4.203-3.129-.164-4.859-.164-7.492-.164-.66 0-1.07.328-1.07 1.234v41.188c0 11.449.492 14.414 6.094 16.641 4.691 1.895 8.645 2.059 12.68 2.059 7.82 0 20.992-4.203 20.992-22.242 0-10.789-3.621-25.371-16.879-34.594zm168.047-9.227h.906l36.309-38.223c4.859-5.766 8.645-10.047 8.645-13.012 0-1.895-.656-3.133-2.469-3.461-1.562-.328-2.223-.66-2.223-1.73 0-1.234.906-1.566 2.801-1.566 3.621 0 13.172.496 17.867.496 5.352 0 14.902-.496 20.336-.496 1.73 0 2.965.332 2.965 1.566s-.906 1.566-2.637 1.566c-2.469 0-6.75.66-10.043 1.895-5.352 2.059-11.281 5.766-18.773 13.016-5.352 5.188-31.617 31.301-37.547 37.559 6.258 8.156 40.262 44.813 47.098 51.238 7.656 7.328 15.48 15.074 24.867 18.781 5.184 2.059 8.645 2.633 10.785 2.633 1.234 0 2.223.332 2.223 1.402 0 1.234-.906 1.73-4.199 1.73h-15.066c-5.187 0-8.316 0-12.023-.332-9.387-.906-14.078-4.695-21.488-11.285-7.656-6.754-41.828-46.867-45.531-51.977l-1.895-2.633h-.906v15.813l.492 37.152c.332 4.859 1.895 8.648 6.258 9.391 2.473.328 6.258.656 8.48.656 1.402 0 2.227.496 2.227 1.402 0 1.234-1.402 1.73-3.297 1.73-9.715 0-20.664-.496-25.027-.496-4.035 0-14.902.496-21.902.496-2.223 0-3.457-.496-3.457-1.73 0-.906.656-1.402 2.797-1.402a29.73 29.73 0 0 0 6.258-.656c3.457-.66 4.363-4.531 5.023-9.559.906-7.328.906-21.004.906-36.984V7.817l-.332-36.82c-.328-5.93-1.727-8.648-7.492-9.887-1.398-.328-4.363-.492-6.75-.492-1.895 0-2.965-.328-2.965-1.566s1.234-1.562 3.789-1.562c9.223 0 20.172.492 24.289.492s15.148-.492 20.996-.492c2.469 0 3.621.328 3.621 1.563s-1.07 1.566-2.469 1.566c-1.73 0-2.801.164-4.859.492-4.691.906-6.094 3.789-6.422 9.887-.328 5.52-.328 10.461-.328 36.82v7.66zm110.25 56.836c-17.047-14.91-21.574-34.43-21.574-51.234 0-11.781 3.625-32.289 20.336-47.613 12.516-11.449 28.984-18.449 54.836-18.449 10.789 0 17.211.66 25.195 1.73 6.59.906 12.188 2.469 17.375 2.965 1.894.164 2.633 1.07 2.633 2.059 0 1.402-.492 3.461-.906 9.555-.328 5.766-.164 15.32-.492 18.781-.164 2.637-.492 3.953-2.059 3.953-1.398 0-1.73-1.398-1.73-3.789-.164-5.352-2.469-11.449-6.75-15.98-5.762-6.094-19.266-10.789-35.238-10.789-15.07 0-25.031 3.789-32.605 10.789-12.68 11.617-15.977 28.172-15.977 44.977 0 41.352 31.453 61.863 54.672 61.863 15.48 0 24.867-1.73 31.781-9.723 2.965-3.293 5.188-8.32 5.93-11.449.496-2.801.906-3.461 2.223-3.461 1.234 0 1.566 1.238 1.566 2.637 0 2.059-2.059 17.215-3.789 23.066-.906 2.965-1.562 3.789-4.527 5.023-6.918 2.801-20.172 4.035-31.289 4.035-23.793 0-43.719-5.187-59.527-18.945zM372.738 85.575c-2.637 0-6.422-.328-8.895-.656-5.187-.66-6.422-3.789-6.914-8.484-.66-7.496-.66-21.172-.66-38.059V7.817l.328-36.82c.332-6.098 1.73-9.062 6.422-9.887 2.059-.328 3.461-.492 5.188-.492s2.801-.328 2.801-1.73c0-1.07-1.398-1.398-3.621-1.398H240.094c-2.801 0-4.199.328-4.199 1.398 0 1.402 1.07 1.73 2.797 1.73 2.059 0 4.367.164 6.258.66 3.789.906 5.52 3.789 5.93 9.719.328 5.52.328 10.461.328 36.82v30.559c0 16.887 0 30.563-.906 37.891-.492 5.027-1.562 7.992-5.02 8.652a29.8 29.8 0 0 1-6.258.656c-2.059 0-2.801.496-2.801 1.402 0 1.234 1.234 1.73 3.457 1.73 6.918 0 17.867-.496 21.902-.496 4.695 0 15.645.496 27.09.496 1.895 0 3.293-.496 3.293-1.73 0-.906-.906-1.402-2.801-1.402-2.633 0-6.422-.328-8.891-.656-5.187-.66-6.422-3.789-6.918-8.484-.656-7.496-.656-21.172-.656-38.059V7.817l.41-35.586c.328-6.094 1.73-8.07 6.422-8.895 1.152-.164 2.141-.332 3.047-.414h42.238c1.316.082 2.555.25 3.707.578 3.785.906 5.516 2.883 5.926 8.73.332 5.52.25 9.145.25 35.586v30.559c0 16.887 0 30.563-.906 37.891-.496 5.027-1.566 7.992-5.023 8.652a29.8 29.8 0 0 1-6.258.656c-2.059 0-2.801.496-2.801 1.402 0 1.234 1.234 1.73 3.461 1.73 6.914 0 17.867-.496 21.898-.496 4.695 0 15.645.496 27.09.496 1.895 0 3.293-.496 3.293-1.73 0-.906-.906-1.402-2.797-1.402zm0 0"/><path d="M691.707 7.899l-.328-36.738c-.328-5.93-1.73-8.648-7.492-9.883-1.398-.332-4.363-.496-6.754-.496-1.891 0-2.961-.328-2.961-1.566s1.234-1.562 3.785-1.562l14.082.164 10.949.328 43.309-.164c3.293-.328 6.094-.66 7.492-1.07.906-.164 1.895-.66 2.801-.66s1.07.66 1.07 1.566c0 1.234-.906 3.293-1.402 11.285-.164 1.73-.492 9.391-.902 11.449-.168.906-.496 1.895-1.73 1.895s-1.562-.906-1.562-2.473c0-1.234-.168-4.117-1.07-6.258-1.238-3.133-2.965-5.191-11.613-6.262-2.961-.328-21.16-.66-24.617-.66-.906 0-1.234.496-1.234 1.73v43.906c0 1.234.164 1.895 1.234 1.895l27.746-.332c4.117-.328 6.754-.82 8.316-2.633 1.238-1.402 1.895-2.227 2.801-2.227.66 0 1.234.332 1.234 1.402s-.656 3.789-1.398 12.684l-.66 11.617c0 1.398 0 3.293-1.562 3.293-1.234 0-1.566-.66-1.566-1.566-.164-1.727-.164-4.035-.656-6.258-.824-3.461-3.293-6.098-9.719-6.754-3.293-.332-20.418-.496-24.617-.496-.906 0-1.07.742-1.07 1.73v13.672 26.855c.328 11.941 3.129 14.578 20.832 14.578 4.527 0 11.773 0 16.301-2.059s6.59-5.766 7.824-12.852c.328-1.895.656-2.633 1.891-2.633 1.402 0 1.402 1.398 1.402 3.129 0 3.953-1.402 15.816-2.223 19.273-1.234 4.531-2.801 4.531-9.387 4.531-13.012 0-22.562-.328-29.973-.492-7.492-.332-12.844-.496-18.031-.496-1.895 0-5.68 0-9.879.164-3.953 0-8.48.332-11.937.332-2.227 0-3.461-.496-3.461-1.73 0-.824.66-1.402 2.801-1.402 2.633 0 4.691-.328 6.258-.656 3.457-.742 4.363-4.531 5.023-9.555.902-7.25.902-21.008.902-36.906V7.981zm0 0"/></g></svg>