<svg xmlns="http://www.w3.org/2000/svg" width="117" height="46" fill="none"><path d="M96.603 25.84c0 3.642 2.971 5.914 6.118 5.914 3.263 0 6.118-2.272 6.03-5.623.088-3.467-2.855-5.739-6.234-5.739-3.146.029-5.797 2.098-5.914 5.448zM64.324 37.697h-7.516V10.75h7.604l6.817 10.459 6.73-10.459h7.604v26.977h-7.516V23.219l-6.817 9.963-6.904-9.963v14.479zm-25.695-3.35L26.889 10.75h8.303l7.225 14.333.291-.699 4.253-13.634h8.39l-8.507 23.306C44.165 41.863 39.737 45.913 31.842 46v-7.807c3.962 0 6.118-1.078 6.817-3.758v-.087h-.029zm-30.822 3.35H0V10.75h25.374v26.977h-7.895V17.975H7.807v19.723zm95.322 1.398c-8.012 0-14.712-6.322-14.712-15.003s3.758-14.828 12.556-18.761c1.369-.699 3.554-1.486 5.331-3.059.699-.583 1.486-1.573 1.864-2.272l6.526 4.049c-1.486 3.962-5.244 5.419-8.885 6.904-3.467 1.282-6.73 2.68-8.012 5.826l.204.087c1.864-1.69 4.458-2.476 7.021-2.476 6.118 0 11.857 4.836 11.653 11.857-.204 8.798-7.137 12.847-13.546 12.847z" fill="#e60c2a"/></svg>