<svg xmlns="http://www.w3.org/2000/svg" width="108" height="60" fill="none"><g clip-path="url(#A)" fill="#154a90"><path d="M53.641 0C37.994 0 25.307 7.199 25.307 16.066c0 2.819 1.285 5.473 3.54 7.774l.684.7c1.031.875 2.136 1.661 3.301 2.348a28.56 28.56 0 0 0 1.513.84 33.79 33.79 0 0 0 1.819.871 38.75 38.75 0 0 0 6.136 2.073l1.14.212a11.18 11.18 0 0 0 3.848 3.515c1.541.852 3.263 1.328 5.023 1.389a11.18 11.18 0 0 0 5.108-1.038 11.19 11.19 0 0 0 4.083-3.24c11.817-1.938 20.461-8.116 20.461-15.439C81.98 7.199 69.277 0 53.641 0zm5.623 28.287a7.3 7.3 0 0 1-7.959 1.585c-1.335-.553-2.475-1.489-3.278-2.69a7.3 7.3 0 0 1 0-8.115 7.3 7.3 0 0 1 7.498-3.104 7.3 7.3 0 0 1 3.739 2 7.29 7.29 0 0 1 0 10.324zm1.374-11.547a11.23 11.23 0 0 0-6.974-3.252c-2.635-.229-5.266.481-7.429 2.002a11.23 11.23 0 0 0-4.395 6.316 11.22 11.22 0 0 0 .704 7.662l-.435-.093-.518-.14c-3.903-1.083-7.919-2.83-11.029-5.411 1.721-4.949 6.437-10.272 13.055-14.071 4.918-2.83 9.505-3.11 14.206.829a13.25 13.25 0 0 1 2.975 3.685 9.73 9.73 0 0 1 .969 2.55 16.06 16.06 0 0 1 .306 1.684 11.23 11.23 0 0 0-1.436-1.762zm20.119-.669a7.95 7.95 0 0 1-.109 1.316c-1.166 7.085-9.303 9.329-15.46 9.557C74.071 18.273 73.2 3.29 57.756 3.85c-5.183.187-10.526 2.073-15.03 4.664a37.19 37.19 0 0 0-9.552 7.836c-5.54-5.058-3.804-8.095 1.897-11.05 5.566-2.892 12.345-4.079 18.569-4.079S66.649 2.41 72.21 5.302c3.674 1.907 7.722 5.115 8.437 9.453a8.01 8.01 0 0 1 .109 1.316zM5.183 44.607H0v12.625h2.073v-4.851h2.97c.717.016 1.431-.088 2.115-.306a3.51 3.51 0 0 0 1.42-.876 3.28 3.28 0 0 0 .746-1.285 5.42 5.42 0 0 0 .218-1.555c-.005-2.493-1.472-3.752-4.359-3.752zm2.244 3.747a2.26 2.26 0 0 1-.565 1.627c-.373.389-1.037.586-2.011.586H2.068v-4.146h2.783a3.45 3.45 0 0 1 1.959.461 1.67 1.67 0 0 1 .617 1.482v-.01zm9.505-3.747l-4.789 12.625h2.218l1.156-3.156h4.867l1.166 3.156h2.223l-4.768-12.625h-2.073zm2.851 7.67h-3.68l1.845-5.183 1.835 5.183zm17.361-7.67h-7.878l-.067 2.721c0 .881-.067 1.69-.135 2.4-.07.698-.185 1.39-.342 2.073-.155.665-.377 1.313-.663 1.933-.278.602-.626 1.169-1.037 1.69h-1.187l.15 4.566h1.829v-2.762h9.065v2.762h1.845l.155-4.566h-1.736V44.607zm-2.073 1.804v9.018h-5.592a10.29 10.29 0 0 0 1.114-2.457 13.09 13.09 0 0 0 .518-2.524l.145-2.731.041-1.306h3.773zm10.884-1.804l-4.789 12.625h2.218l1.156-3.156h4.866l1.161 3.156h2.213l-4.753-12.625h-2.073zm2.85 7.67h-3.68l1.84-5.183 1.84 5.183zm16.632-1.388c-.368-.407-.831-.716-1.347-.902a6.04 6.04 0 0 0-2.135-.342h-3.56v-3.224h7.022v-1.804h-9.07v12.625h5.623c1.591 0 2.721-.389 3.358-1.151a3.98 3.98 0 0 0 .943-2.617 5.18 5.18 0 0 0-.176-1.379 3.24 3.24 0 0 0-.658-1.208zm-1.301 2.591c0 1.301-.824 1.933-2.514 1.933h-3.229v-3.985h3.208c1.71.026 2.534.7 2.534 2.078v-.026zm9.054-8.873l-4.789 12.625h2.218l1.156-3.156h4.867l1.166 3.156h2.208l-4.773-12.625H73.19zm2.851 7.67h-3.654l1.845-5.183 1.809 5.183zm14.666-2.58h-5.706v-5.079h-2.068v12.625h2.068V51.5h5.706v5.742h2.073V44.618h-2.073v5.079zm10.48.782l6.022-5.862h-2.612l-5.193 5.255v-5.255h-2.068v12.625h2.068v-6.027l5.421 6.027h2.731l-6.369-6.763z"/></g><defs><clipPath id="A"><path fill="#fff" d="M0 0h107.556v60H0z"/></clipPath></defs></svg>