<svg xmlns="http://www.w3.org/2000/svg" width="98" height="14" fill="#2722ff"><path d="M14.215 5.536c1.602 0 2.544.925 2.506 2.294H11.35c.32-1.443 1.376-2.294 2.864-2.294zm.302 6.604c-1.772 0-3.091-1.202-3.26-2.904h6.973c.773-3.015-.942-5.272-4.014-5.272-2.601 0-4.73 2.201-4.73 4.902 0 2.793 2.167 4.902 5.032 4.902 2.167 0 3.825-1.091 4.579-2.756l-1.451-.888c-.452 1.202-1.545 2.016-3.128 2.016zM25.2 3.963c-1.263 0-2.318.573-3.072 1.369V4.241h-1.696v9.249h1.696V8.625c0-1.628 1.131-3.034 2.977-3.034 1.545 0 2.469.962 2.469 2.349v5.549h1.696V7.792c0-2.46-1.564-3.829-4.07-3.829zm19.597 1.573c1.602 0 2.544.925 2.506 2.294h-5.371c.32-1.443 1.376-2.294 2.865-2.294zm.302 8.232c2.167 0 3.826-1.091 4.579-2.756l-1.451-.888c-.452 1.202-1.545 2.016-3.128 2.016-1.772 0-3.091-1.202-3.26-2.904h6.972c.773-3.015-.942-5.272-4.014-5.272-2.601 0-4.73 2.201-4.73 4.902 0 2.793 2.167 4.902 5.032 4.902zM34.761 5.551c1.093 0 2.035.277 3.109 1.11l.05-.159.903-2.426-1.393-.447-.255.986c-.685-.352-1.507-.636-2.396-.636-2.28 0-3.543 1.036-3.543 2.59 0 1.535 1.376 2.294 3.505 2.96 1.734.518 2.224 1.017 2.224 1.498 0 .777-.773 1.221-1.866 1.221-1.413 0-2.619-.703-3.26-1.776l-1.3 1.054c.791 1.258 2.375 2.257 4.485 2.257 2.488 0 3.694-1.295 3.694-2.923 0-1.073-.735-1.961-3.543-2.867-1.263-.426-2.186-.666-2.186-1.461 0-.573.396-.98 1.771-.98zM4.276 5.545c1.093 0 2.035.277 3.11 1.11l.05-.159.903-2.426-1.393-.447-.255.986c-.685-.352-1.507-.636-2.396-.636-2.28 0-3.543 1.036-3.543 2.59 0 1.535 1.376 2.294 3.505 2.96 1.734.518 2.224 1.017 2.224 1.498 0 .777-.773 1.221-1.866 1.221-1.413 0-2.619-.703-3.26-1.776l-1.3 1.054c.791 1.258 2.374 2.257 4.485 2.257 2.488 0 3.694-1.295 3.694-2.923 0-1.073-.735-1.961-3.543-2.867-1.262-.425-2.186-.666-2.186-1.461 0-.574.396-.98 1.771-.98zm58.516 3.333c0-1.911-1.285-3.284-3.062-3.284s-3.062 1.373-3.062 3.284 1.285 3.284 3.062 3.284 3.062-1.373 3.062-3.284zm1.776 0c0 2.801-2.041 4.916-4.763 4.916-1.21 0-2.268-.519-3.081-1.317v1.039h-1.701V.602h1.701v4.677c.812-.798 1.871-1.317 3.081-1.317 2.721 0 4.763 2.115 4.763 4.916zm5.807 3.275c-1.761 0-3.035-1.361-3.035-3.255s1.274-3.255 3.035-3.255 3.035 1.361 3.035 3.255-1.274 3.255-3.035 3.255zm4.857-.314a.61.61 0 0 1-.192-.03c-.186-.064-.295-.227-.295-.467l.209-2.448.087-.858.378-3.802h-1.687l-.128 1.421-.03-.045a2.6 2.6 0 0 0-.426-.473c-.775-.681-1.748-1.113-2.846-1.113-2.698 0-4.721 2.097-4.721 4.874s2.023 4.874 4.721 4.874c1.178 0 2.211-.497 3.011-1.264.014.115.026.162.06.247.097.192.212.337.365.45.187.138.419.228.693.268.105.015.216.023.334.023h.9V11.84h-.431zm6.985-7.876c-1.262 0-2.318.573-3.072 1.369V4.241H77.45v9.249h1.696V8.625c0-1.628 1.13-3.034 2.977-3.034 1.545 0 2.468.962 2.468 2.349v5.549h1.696V7.792c0-2.46-1.564-3.829-4.071-3.829zm9.409 4.751l4.879-4.474h-2.223L89.95 8.234V.595h-1.695v12.889h1.695V9.417l4.596 4.068h2.467l-5.387-4.77z"/></svg>