<svg xmlns="http://www.w3.org/2000/svg" width="157.255" height="29" viewBox="0 0 41.607 7.673"><g transform="matrix(.190058 0 0 .190058 -16.40224 35.56215)"><path d="M357.4 258.9v34.9c0 14.3-5.9 21.1-15.9 21.1-9.1 0-13.1-5.3-13.1-15.3v-40.7h-25.5V304c0 19.4 8.8 31.5 28.2 31.5 13.1 0 21.5-6.2 26.3-15.9v13.5h25.5v-74.2zm87.1 8.9v24.7l-.1-.3.1 2.1c0 12-4.2 18-16.6 18-12.8 0-17.7-5-17.7-18 0-12.6 4.8-17.7 17.3-17.8l17 .2-13.1-20h-12.3c-24.5 0-34.4 17.1-34.4 37.1 0 19.6 9.9 37.1 34.4 37.1 12.2 0 20.3-4.2 25.4-11.3v13.2c0 9.9-5.2 14.1-16.5 14.1-11 0-15.7-4.5-16.6-11h-24.8c1 16 12.3 30.1 40.1 30.1 31.4 0 43.3-13.2 43.3-37.2v-69.9h-25.5zm81.5-11.3c-12.6 0-21.1 4.8-26.1 12.6v-39.9h-25.5v103.9h25.5V296c0-13.2 4.5-19.6 17.5-19.6 12.6 0 17.1 5.8 17.1 19.6s-4.5 19.6-17.1 19.6h-17.5l15.6 19.9H526c24.3 0 34-18.4 34-39.6 0-20.7-9.7-39.4-34-39.4zm73.5 30.7v3.6h-20v-29.2h19.6v3.6h-15.6v8.8h12.1v3.5h-12.1v9.6h16zm14.5-10.8l-4.5 4.5v10h-4v-29.2h4v14.6l14.6-14.6h5l-12.2 12 13.1 17.2h-5zm16.5-.1c0-8.8 5.7-15 13.8-15 8.4 0 13.8 5.9 13.8 15 0 8.8-5.7 15-13.8 15-8.4-.1-13.8-6-13.8-15zm23.6 0c0-6.9-3.8-11.4-9.8-11.4-5.9 0-9.8 4.5-9.8 11.4s3.8 11.4 9.8 11.4c5.9 0 9.8-4.5 9.8-11.4zm45.1 5.7c0 5.4-3.9 8.8-10.1 8.8h-12.2v-29.2h20v3.6h-16v7.9h8.2c6.2.1 10.1 3.5 10.1 8.9zm-4 0c0-3.5-2.1-5.3-6.5-5.3H681v10.6h7.7c4.3 0 6.5-1.7 6.5-5.3zm27.2 1.6h-14.5l-2.9 7.3h-4.1l12-29.2h4.8l12 29.2h-4.2zm-1.5-3.6l-5.8-14.6-5.8 14.6zm37.5-18.3v29.2h-4v-13.1h-15.8v13.1h-4v-29.2h4V274h15.8v-12.4h4zm17.5 14.7l-4.5 4.5v10h-4v-29.2h4v14.6l14.6-14.6h5l-12.2 12 13.1 17.2H787zm-187.8 40.7l-4.5 4.5v10h-4v-29.2h4V317l14.6-14.6h5l-12.2 12 13.1 17.2H599zm43.2-6c0 5.4-3.9 8.8-10.1 8.8h-8.1v11.5h-4v-29.2h12.1c6.2.1 10.1 3.6 10.1 8.9zm-4.1 0c0-3.5-2.1-5.2-6.5-5.2h-7.6v10.5h7.6c4.4 0 6.5-1.8 6.5-5.3zm25.3 13.1H638l-2.9 7.3H631l12-29.2h4.8l12 29.2h-4.2zm-1.4-3.5l-5.8-14.6-5.8 14.6zm9.7-26.1h4.3v4.3h-4.3zm3.9 7.7h4v29.2h-4zm3.5-7.7h4.3v4.3h-4.3zm33.3 7.7v29.2h-4v-13.1h-15.8v13.1h-4v-29.2h4v12.4h15.8v-12.4zm32.9 0v29.2h-4v-23.2l-15.9 23.2h-3.9v-29.2h4v23.1l15.8-23.1z" transform="matrix(.295112 0 0 .295112 71.5159 -254.75131)" fill="#2157a4"/><path fill="#fff" d="M111.267-155.534z"/><path d="M119.029-166.631c2.951-2.331 4.545-5.519 4.545-9.296a13.02 13.02 0 0 0-.384-2.981c1.033.974 1.269 2.508 1.269 3.866v.059c0 3.896-1.741 7.289-4.574 9.562l-.059.03c-2.744 2.184-4.308 5.459-4.308 9.148 0 .177 0 .325.029.502.088 2.508 1.21 4.751 2.892 6.374-.384-.915-.59-1.948-.59-3.01 0-2.774 1.446-5.224 3.63-6.64 4.338-2.804 7.201-7.673 7.201-13.221 0-5.755-3.099-10.771-7.702-13.516v.649c0 4.781-1.918 8.912-5.253 12.041l-.118.118c-2.449 2.243-4.161 5.519-4.161 9.178 0 2.597.886 4.987 2.243 6.994.029-4.574 2.302-7.555 5.342-9.857zm-5.607 14.284l-1.948-2.863c-1.771-2.626-2.715-5.548-2.715-8.529 0-4.161 1.83-8.263 5.046-11.214l.118-.089c2.863-2.686 4.368-6.138 4.368-10.004v-.826l-31.99 18.444 27.386 15.818a3.7 3.7 0 0 1-.266-.738zm15.611-28.951c1.535 2.745 2.42 5.873 2.42 9.089a18.36 18.36 0 0 1-8.322 15.434l-.03.03-.118.089a5.11 5.11 0 0 0-2.361 4.309 4.88 4.88 0 0 0 .384 1.948l.502 1.18 31.577-18.238z" fill="#76b72d"/></g></svg>