<svg width="157" height="64" viewBox="0 0 157 64" fill="none" xmlns="http://www.w3.org/2000/svg">
<path d="M0 16.3542H32.7083V49.0625H0V16.3542Z" fill="url(#paint0_linear_1026_1691)"/>
<path d="M0.948059 17.1148H31.9008V47.5412H0.948059V17.1148Z" fill="url(#paint1_linear_1026_1691)"/>
<path d="M25.4765 25.1586C23.4889 26.327 22.8804 26.4251 20.7186 27.719C21.9775 26.3536 22.4149 25.7725 23.1938 24.6292C21.2016 24.7349 18.3058 24.9745 16.2383 25.4324C18.038 24.4717 21.6055 23.403 23.4889 23.1482C23.0523 22.5457 19.5175 20.6312 18.6382 20.2622C21.4366 20.4798 24.8573 21.5257 26.5156 22.5397C27.1682 22.3358 27.846 22.3259 29.06 22.2179C28.7511 22.7488 28.7375 23.0561 27.5463 23.8457C27.8764 24.7288 27.0883 29.5818 26.4372 30.8673C26.4136 28.8371 26.2356 26.273 25.4765 25.1586V25.1586ZM10.9228 42.5708C9.78107 42.1472 8.95804 41.655 8.05285 40.8084C8.32365 40.0599 8.63323 39.4757 9.13755 38.7257C8.20955 38.8649 7.52495 38.9691 6.72474 39.1213C6.07362 37.9818 5.77848 36.8819 5.44683 35.3507C5.26884 36.9732 5.2019 38.1316 5.43086 39.4232C4.69606 39.6279 4.17653 39.8058 3.57257 40.0782C4.41918 40.5962 5.10302 40.9948 6.04776 41.4359C6.55588 42.5252 7.08149 43.2608 7.93343 44.1013C7.73338 43.3855 7.68089 42.8173 7.76304 42.0665C8.8196 42.3723 9.72402 42.5343 10.9228 42.5708V42.5708ZM13.897 26.4281C13.541 26.8899 13.1287 27.7509 13.0169 28.151C15.9607 28.5504 18.3225 30.0618 18.3225 30.0618C15.7484 29.6054 14.3922 29.6625 13.4315 29.7484C12.4776 29.8389 12.2814 29.9507 12.2814 29.9507C11.5869 31.4721 11.17 34.0849 11.17 34.0849C10.7022 32.9554 10.0252 30.6939 10.0252 30.6939C8.7268 31.3892 5.73893 34.1983 5.73893 34.1983C7.38119 30.9092 9.04855 29.413 9.04855 29.413C8.47502 28.8318 6.97119 28.542 5.87128 28.4933C6.44178 28.2606 7.90681 27.9875 9.03258 27.9358C10.1591 27.9038 10.8407 27.9677 10.8407 27.9677C11.8455 27.1743 13.3714 26.5057 13.897 26.4281V26.4281ZM17.0195 40.5315C16.5375 41.1913 16.0226 41.8265 15.4769 42.4347C14.5849 42.6956 13.6594 42.824 12.7301 42.8158C13.2935 43.104 13.8944 43.3122 14.5154 43.4342C13.9754 43.9314 13.3925 44.3799 12.7735 44.7745C13.7806 44.5364 15.1034 44.1089 16.0892 43.5262C16.6034 43.546 17.0849 43.5125 17.4379 43.4433C17.3446 43.1452 17.27 42.8416 17.2142 42.5343C18.1422 41.8163 18.8154 41.1651 19.5875 40.3839C18.8057 40.9412 17.9753 41.4267 17.1062 41.8345C17.066 41.401 17.0371 40.9665 17.0195 40.5315" fill="white"/>
<path d="M44.0639 38.413C45.1349 38.413 46.3017 38.7781 46.3017 39.7632C46.3017 40.2979 45.8415 40.7711 45.1562 41.0069C46.0659 41.3385 46.5908 42.0353 46.5908 42.7199C46.5908 43.9194 45.1349 44.4983 43.7634 44.4983H40.6272C40.7018 43.7376 40.7238 42.5107 40.7238 41.3111C40.7238 40.5208 40.7124 39.1737 40.6379 38.413H44.0639ZM43.1861 39.1022C42.9077 39.1022 42.6293 39.1227 42.4908 39.144C42.4587 39.8626 42.444 40.5819 42.4467 41.3012C42.4467 42.3403 42.4467 42.2163 42.4908 43.7376H43.3253C44.3103 43.7376 44.7819 43.2394 44.7819 42.64C44.7819 41.9759 44.1711 41.4556 43.3679 41.4556H42.8864L43.218 40.695H43.5717C43.9779 40.695 44.5241 40.4508 44.5241 39.9252C44.5241 39.3684 44.0213 39.1022 43.1861 39.1022ZM52.9506 38.413C52.8974 39.1737 52.8647 40.7437 52.8647 41.3104C52.8647 41.836 52.8761 42.977 52.9506 44.4983H51.5906L49.2265 41.0997C49.0447 40.841 49.4425 40.4189 48.6818 40.1291V41.9592C48.6818 42.656 49.0637 43.7376 49.1283 44.4983H47.5758C47.6724 42.977 47.6831 41.8139 47.6831 41.3104C47.6831 40.7657 47.6504 39.1737 47.6085 38.413H49.3748L51.3845 41.3918C51.4811 41.5408 50.9638 41.5964 51.7245 41.7249V38.413H52.9506ZM57.1579 38.413C58.4107 38.413 59.9206 38.7469 59.9206 40.0849C59.9206 41.2624 58.8496 41.8421 56.6764 41.8421C56.5478 41.8421 56.1941 42.0147 56.099 42.0033C56.1409 42.8066 56.131 43.7376 56.1834 44.4983H54.2886C54.364 42.977 54.3853 42.2429 54.3853 41.3104C54.3853 40.4866 54.364 39.1737 54.2886 38.413H57.1579ZM56.1196 39.176C56.1196 39.5502 56.099 39.9374 56.099 40.3116C56.099 40.5893 56.1089 40.803 56.1196 41.0084C56.1834 41.0175 56.4839 41.0175 56.6764 41.0175C57.2864 41.0175 58.133 40.8471 58.133 40.0652C58.133 39.3053 57.2651 39.1645 56.6117 39.1645C56.5265 39.1645 56.2055 39.1645 56.1196 39.176ZM65.8948 38.413C67.1476 38.413 68.6575 38.7469 68.6575 40.0849C68.6575 41.2624 67.5865 41.8421 65.4125 41.8421C65.284 41.8421 64.931 42.0147 64.8352 42.0033C64.8778 42.8066 64.8671 43.7376 64.9204 44.4983H63.0256C63.1009 42.977 63.1214 42.2429 63.1214 41.3104C63.1214 40.4866 63.1009 39.1737 63.0256 38.413H65.8948ZM64.8565 39.176C64.8565 39.5502 64.8352 39.9374 64.8352 40.3116C64.8352 40.5893 64.8458 40.803 64.8565 41.0084C64.9204 41.0175 65.2208 41.0175 65.4125 41.0175C66.0233 41.0175 66.8692 40.8471 66.8692 40.0652C66.8692 39.3053 66.002 39.1645 65.3486 39.1645C65.2634 39.1645 64.9417 39.1645 64.8565 39.176ZM72.0257 38.413C72.2394 39.1737 74.1449 42.977 74.5838 44.4983H72.689C72.6144 43.7376 72.4646 43.7855 72.1854 43.0568C71.8971 43.0477 71.5967 42.9587 71.2011 42.9587C70.8155 42.9587 70.5363 43.1017 70.2267 43.1124C70.0548 43.5847 69.905 43.7376 69.7658 44.4983H68.1174C68.4384 43.7376 70.3332 39.1737 70.6755 38.413H72.0257ZM71.8644 42.0041C71.64 41.4465 71.3289 40.7505 71.1791 40.269C71.0186 40.7612 70.6755 41.5211 70.5051 42.0041C70.7189 42.014 71.0079 42.0246 71.2011 42.0246C71.4681 42.0246 71.6081 42.0132 71.8644 42.0041ZM78.1285 38.413C79.3911 38.413 80.9011 38.8435 80.9011 40.1823C80.9011 40.8981 80.3656 41.5796 79.5304 41.9113C79.7015 42.2117 81.1049 43.7369 81.3826 44.4975H79.3174C78.953 43.7369 78.257 42.4255 77.5717 41.4077C78.3955 41.5157 79.1135 41.0304 79.1135 40.2386C79.1135 39.4787 78.235 39.2087 77.8067 39.2087C77.6143 39.2087 77.2499 39.1866 77.1213 39.1973C77.0943 39.8983 77.0801 40.5997 77.0787 41.3012C77.0787 41.8048 77.0787 42.9762 77.1746 44.4975H75.2478C75.3444 42.9762 75.3657 42.4681 75.3657 41.3096C75.3657 40.3375 75.3551 39.1729 75.2691 38.4123L78.1285 38.413ZM84.0373 38.413C83.9939 39.1737 83.9627 40.7657 83.9627 41.3218C83.9627 41.836 83.9627 42.977 84.0373 44.4983H82.1318C82.2276 42.977 82.2383 41.8139 82.2383 41.3218C82.2383 40.7764 82.2063 39.1737 82.1638 38.413H84.0373ZM88.7168 38.413C89.7871 38.413 90.9539 38.7781 90.9539 39.7632C90.9539 40.2979 90.4945 40.7711 89.8084 41.0069C90.7181 41.3385 91.243 42.0353 91.243 42.7199C91.243 43.9194 89.7871 44.4983 88.4164 44.4983H85.2794C85.3547 43.7376 85.376 42.5107 85.376 41.3111C85.376 40.5208 85.3654 39.1737 85.2908 38.413H88.7168ZM87.839 39.1022C87.5606 39.1022 87.2822 39.1227 87.1438 39.144C87.1119 39.8626 87.0974 40.5819 87.1004 41.3012C87.1004 42.3403 87.1004 42.2163 87.1438 43.7376H87.9782C88.964 43.7376 89.4349 43.2394 89.4349 42.64C89.4349 41.9759 88.8241 41.4556 88.0216 41.4556H87.5393L87.8717 40.695H88.2254C88.6324 40.695 89.1778 40.4508 89.1778 39.9252C89.1763 39.3684 88.6735 39.1022 87.839 39.1022ZM95.3657 38.413C95.5787 39.1737 97.4857 42.977 97.9238 44.4983H96.0298C95.9545 43.7376 95.8039 43.7855 95.5263 43.0568C95.2372 43.0477 94.9375 42.9587 94.5412 42.9587C94.1555 42.9587 93.8771 43.1017 93.5668 43.1124C93.3956 43.584 93.2458 43.7369 93.1066 44.4975H91.4582C91.7792 43.7369 93.674 39.1729 94.0163 38.4123L95.3657 38.413ZM95.2053 42.0041C94.9793 41.4465 94.669 40.7505 94.5199 40.269C94.3594 40.7612 94.0163 41.5211 93.8452 42.0041C94.0582 42.014 94.348 42.0246 94.5412 42.0246C94.8089 42.0246 94.9474 42.0132 95.2053 42.0041ZM100.842 38.2228C101.58 38.2228 102.689 38.3301 102.689 38.4693V39.9381C101.928 39.573 101.495 39.2619 100.671 39.2619C100.018 39.2619 100.004 39.5198 100.004 39.7107C100.004 40.6859 103.306 40.6957 103.306 42.4422C103.306 43.5764 102.097 44.2937 100.331 44.2937C99.5387 44.2937 98.8861 44.1332 98.1254 43.9529V42.5495C99.6467 43.1169 100.134 43.298 100.691 43.298C101.141 43.298 101.551 43.0949 101.551 42.71C101.551 41.6078 98.2844 41.7143 98.2844 39.8408C98.2836 38.8124 99.3212 38.2228 100.842 38.2228ZM112.652 41.4556C112.62 42.2163 112.588 43.1641 112.567 43.8494C111.946 44.1697 110.971 44.3218 110.029 44.3218C107.888 44.3218 106.517 42.9595 106.517 41.299C106.517 39.5548 107.953 38.2297 110.297 38.2297C110.833 38.2297 111.636 38.3118 112.203 38.451L111.786 39.5844C111.39 39.338 110.726 39.1334 110.276 39.1334C108.928 39.1334 108.445 40.3322 108.445 41.2959C108.445 42.9115 109.313 43.4372 110.287 43.4372C110.405 43.4372 110.78 43.4843 110.898 43.4524C110.898 42.7564 110.886 41.4549 110.834 41.4549L112.652 41.4556ZM116.645 38.413C117.909 38.413 119.419 38.8435 119.419 40.1823C119.419 40.8981 118.883 41.5796 118.047 41.9113C118.22 42.2117 119.622 43.7369 119.9 44.4975H117.834C117.47 43.7369 116.774 42.4255 116.088 41.4077C116.914 41.5157 117.629 41.0304 117.629 40.2386C117.629 39.4787 116.752 39.2087 116.323 39.2087C116.131 39.2087 115.767 39.1866 115.638 39.1973C115.606 39.9047 115.596 40.9171 115.596 41.3012C115.596 41.8048 115.596 42.9762 115.691 44.4975H113.765C113.861 42.9762 113.882 42.4681 113.882 41.3096C113.882 40.3375 113.871 39.1729 113.786 38.4123L116.645 38.413ZM123.348 44.3043C121.549 44.3043 120.2 43.0728 120.2 41.2647C120.2 39.4437 121.548 38.2228 123.348 38.2228C125.136 38.2228 126.484 39.4437 126.484 41.2647C126.484 43.0728 125.136 44.3043 123.348 44.3043ZM123.348 38.963C122.512 38.963 121.988 39.7761 121.988 41.2647C121.988 42.751 122.512 43.5444 123.348 43.5444C124.173 43.5444 124.687 42.751 124.687 41.2647C124.687 39.7761 124.173 38.963 123.348 38.963ZM129.162 38.413C129.129 38.413 129.312 39.1554 129.312 39.5616V42.3129C129.312 43.0637 129.563 43.5018 130.303 43.5018C130.945 43.5018 131.594 43.2447 131.594 42.0657V39.2726C131.594 38.6853 131.356 38.4123 131.314 38.4123H132.909C132.845 39.1729 133.115 39.8172 133.115 40.749V42.3867C133.115 43.714 131.876 44.2929 130.034 44.2929C128.365 44.2929 127.03 43.94 127.03 42.3023V40.193C127.03 39.6574 127.352 38.4123 127.288 38.4123L129.162 38.413ZM136.902 38.413C138.155 38.413 139.666 38.7469 139.666 40.0849C139.666 41.2624 138.595 41.8421 136.421 41.8421C136.291 41.8421 135.939 42.0147 135.843 42.0033C135.885 42.8066 135.875 43.7376 135.929 44.4983H134.033C134.108 42.977 134.129 42.2429 134.129 41.3104C134.129 40.4866 134.108 39.1737 134.033 38.413H136.902ZM135.864 39.176C135.864 39.5502 135.843 39.9374 135.843 40.3116C135.843 40.5893 135.853 40.803 135.864 41.0084C135.929 41.0175 136.228 41.0175 136.42 41.0175C137.03 41.0175 137.876 40.8471 137.876 40.0652C137.876 39.3053 137.009 39.1645 136.355 39.1645C136.27 39.1645 135.949 39.1645 135.864 39.176ZM43.6417 21.6785C43.5778 22.4392 43.3572 22.9853 43.3572 23.7376V29.616C43.3572 30.6695 43.8501 31.5481 45.5426 31.5481C46.997 31.5481 47.9212 31.0848 47.9212 28.6735V23.1618C47.9212 21.9797 48.1942 21.6785 48.1463 21.6785H50.5911C50.4625 22.4392 50.2031 24.2161 50.2031 26.085V29.3277C50.2031 31.8523 49.0104 32.9058 45.5913 32.9058C42.4923 32.9058 41.0752 32.0912 41.0752 28.7694V24.9836C41.0752 23.8966 40.7185 22.4392 40.6219 21.6785H43.6417ZM63.2393 21.6785C62.6483 22.4392 59.5813 25.4696 58.7666 26.2851C59.4056 27.1469 63.1108 32.3277 63.7824 32.3277H60.2522C59.5167 31.5671 57.3762 28.3023 56.3538 27.0085C56.3538 28.3503 56.3698 31.5671 56.5143 32.3277H53.4146C53.5744 30.8064 53.5904 27.7212 53.5904 26.7475C53.5904 25.6613 53.5272 22.4392 53.4306 21.6785H56.4976C56.4177 22.4392 56.3538 25.4012 56.3538 26.6783C58.3513 24.6656 59.3098 23.1998 60.4758 21.6785H63.2393ZM70.7759 21.6785C73.1241 21.6785 75.9195 22.2444 75.9195 24.8322C75.9195 26.2858 75.0729 27.0389 73.3956 27.55C73.6352 28.0285 76.3348 32.3277 76.7821 32.3277H73.4428C72.7088 31.5671 71.0467 28.3039 69.8327 26.4828C70.0411 26.5308 70.3446 26.6509 70.6961 26.6509C71.6705 26.6509 73.0442 25.993 73.0442 24.6983C73.0442 23.0857 71.0946 22.8203 70.1202 22.8203C69.6258 22.8203 69.1466 22.8636 68.9062 22.8948C68.8498 24.1415 68.8178 25.3893 68.8104 26.6372C68.8104 27.6269 68.8104 30.8064 68.9861 32.3277H65.8727C66.0317 30.8064 66.0644 29.0478 66.0644 26.7323C66.0644 24.7828 66.0484 22.4392 65.9039 21.6785H70.7759ZM82.6924 21.2769C84.0669 21.2769 85.1935 21.4845 85.9541 21.7082V24.1682C85.1935 23.625 84.0989 23.1139 82.325 23.1139C80.7269 23.1139 80.7185 23.7049 80.7185 24.1202C80.7185 26.1489 87.2472 25.8774 87.2472 29.4235C87.2472 31.612 85.3296 32.9058 82.0382 32.9058C80.52 32.9058 79.1074 32.6343 78.3468 32.3308V29.8875C80.6287 30.83 81.5955 31.1487 82.7304 31.1487C83.9931 31.1487 84.6435 30.7813 84.6435 29.9514C84.6435 27.763 78.0684 28.0817 78.0684 24.3598C78.0691 22.3951 79.865 21.2769 82.6924 21.2769ZM92.9263 21.6785C92.8305 22.4392 92.7666 25.6454 92.7666 26.7475C92.7666 27.7212 92.7826 30.8064 92.9263 32.3277H89.8282C89.9879 30.8064 90.0031 27.7212 90.0031 26.7475C90.0031 25.6613 89.9392 22.4392 89.8593 21.6785H92.9263ZM101.599 21.6785C103.595 21.6785 105.704 22.3243 105.704 24.1773C105.704 25.2962 104.761 26.2417 103.34 26.6091C105.273 27.2001 106.28 28.0391 106.28 29.4608C106.28 31.7291 103.595 32.3277 101.04 32.3277H95.848C95.9918 31.5671 96.0237 29.0166 96.0237 26.7323C96.0237 25.1981 96.0077 23.1998 95.8632 21.6785H101.599ZM99.8742 22.7465C99.5068 22.7465 99.0915 22.7784 98.8838 22.8104C98.8199 24.2959 98.7872 25.0946 98.7872 26.8206C98.7872 28.8485 98.7872 29.6959 98.8663 31.3412C99.2337 31.3571 99.8255 31.3571 100.161 31.3571C102.318 31.3571 103.388 30.8703 103.388 29.6236C103.388 28.1548 101.615 27.7638 100.273 27.7638H99.6498L100.273 26.2425H100.656C101.566 26.2425 102.86 25.6613 102.86 24.5424C102.861 23.3603 102.063 22.7465 99.8742 22.7465ZM114.041 21.6785C116.037 21.6785 118.145 22.3243 118.145 24.1773C118.145 25.2962 117.203 26.2417 115.782 26.6091C117.715 27.2001 118.72 28.0391 118.72 29.4608C118.72 31.7291 116.037 32.3277 113.48 32.3277H108.289C108.433 31.5671 108.465 29.0166 108.465 26.7323C108.465 25.1981 108.449 23.1998 108.305 21.6785H114.041ZM112.315 22.7465C111.948 22.7465 111.533 22.7784 111.324 22.8104C111.26 24.2959 111.228 25.0946 111.228 26.8206C111.228 28.8485 111.228 29.6959 111.307 31.3412C111.674 31.3571 112.267 31.3571 112.601 31.3571C114.759 31.3571 115.828 30.8703 115.828 29.6236C115.828 28.1548 114.055 27.7638 112.713 27.7638H112.09L112.713 26.2425H113.097C114.006 26.2425 115.3 25.6613 115.3 24.5424C115.302 23.3603 114.503 22.7465 112.315 22.7465ZM126.609 21.6785C127.04 22.4392 130.714 30.8064 131.577 32.3277H128.493C128.318 32.3277 127.951 31.0673 127.471 29.8693C126.832 29.8533 126.178 29.9256 125.267 29.9256C124.42 29.9256 123.781 29.8092 123.046 29.8252C122.695 30.7676 122.407 31.5671 122.152 32.3277H119.468C120.107 31.5671 123.862 23.1998 124.452 21.6785H126.609ZM126.881 28.5777C126.353 27.3136 125.82 26.0514 125.282 24.7911C124.701 26.0408 124.147 27.3033 123.621 28.5777C124.1 28.5929 124.755 28.6089 125.282 28.6089C125.794 28.6089 126.337 28.5929 126.881 28.5777ZM143.108 21.6785C142.997 22.4392 142.933 25.6454 142.933 26.7323C142.933 27.7212 142.948 30.8064 143.124 32.3277H141.032L136.238 25.4605C135.824 24.8375 135.712 24.6071 135.632 24.3195C135.632 26.0287 135.616 26.7422 135.616 28.2597C135.616 29.6327 135.648 31.5671 135.759 32.3277H133.155C133.315 30.8064 133.332 27.7212 133.332 26.7323C133.332 25.6454 133.268 22.4392 133.188 21.6785H136.126L139.705 26.8426C140.472 27.9616 140.632 27.7638 140.759 28.5244H140.776C140.679 27.0031 140.648 25.7884 140.584 24.3986L140.472 21.6785H143.108ZM155.773 21.6785C155.181 22.4392 152.114 25.4696 151.299 26.2851C151.939 27.1469 155.644 32.3277 156.316 32.3277H152.786C152.05 31.5671 149.91 28.3023 148.886 27.0085C148.886 28.3503 148.902 31.5671 149.047 32.3277H145.948C146.108 30.8064 146.124 27.7212 146.124 26.7475C146.124 25.6613 146.061 22.4392 145.964 21.6785H149.03C148.951 22.4392 148.886 25.4012 148.886 26.6783C150.884 24.6656 151.843 23.1998 153.008 21.6785H155.773Z" fill="#231F20"/>
<defs>
<linearGradient id="paint0_linear_1026_1691" x1="16.389" y1="15.5456" x2="16.389" y2="50.0725" gradientUnits="userSpaceOnUse">
<stop stop-color="#008053"/>
<stop offset="0.6" stop-color="#7FC4A7"/>
<stop offset="1" stop-color="#00A06D"/>
</linearGradient>
<linearGradient id="paint1_linear_1026_1691" x1="16.4259" y1="8.60454" x2="16.4259" y2="46.5979" gradientUnits="userSpaceOnUse">
<stop stop-color="#00A06D"/>
<stop offset="0.3" stop-color="#7FC4A7"/>
<stop offset="0.55" stop-color="#00A06D"/>
<stop offset="0.835" stop-color="#008053"/>
<stop offset="0.888" stop-color="#00885C"/>
<stop offset="0.973" stop-color="#009E74"/>
<stop offset="1" stop-color="#00A67D"/>
</linearGradient>
</defs>
</svg>
