<svg xmlns="http://www.w3.org/2000/svg" width="161" height="24" fill="none"><g clip-path="url(#A)"><path d="M134.634 6.402a9.2 9.2 0 0 0-3.169.54c-.988.338-1.808.733-2.459 1.18l-.169-1.383h-5.052V22.71h5.424V11.827c.407-.408.907-.739 1.518-1.012.605-.268 1.204-.407 1.785-.407.988 0 1.675.192 2.052.575.384.384.57 1.024.57 1.92v9.802h5.425V12.46c0-2.064-.471-3.593-1.413-4.582-.942-.982-2.448-1.476-4.512-1.476zm-16.228 1.517c-1.395-1.011-3.326-1.517-5.797-1.517-1.256 0-2.459.098-3.605.302-1.122.204-2.075.46-2.866.773v3.506a17.351 17.351 0 0 1 5.355-.843c1.483 0 2.494.18 3.035.541.541.337.808.907.808 1.721v.372h-4.448c-2.221 0-3.895.471-5.018 1.413-1.098.919-1.651 2.204-1.651 3.843 0 1.123.256 2.064.773 2.832a4.703 4.703 0 0 0 2.053 1.651c.878.36 1.82.541 2.832.541 1.348 0 2.471-.145 3.366-.436.919-.29 1.675-.71 2.256-1.244l.268 1.349h4.75V12.75c.012-2.215-.692-3.82-2.111-4.832zm-3.064 10.245c-.384.448-.89.82-1.517 1.11s-1.373.437-2.222.437c-.854 0-1.482-.169-1.883-.506-.407-.337-.605-.797-.605-1.384 0-1.279.796-1.919 2.39-1.919h3.843v2.262h-.006zm38.887-4.785l6.401-6.64h-6.163l-5.221 5.122V0h-5.425v22.711h5.425v-4.919l1.581-1.552 4.413 6.471h5.763l-6.774-9.332zM98.98 11.623c.721-.425 1.291-1.023 1.721-1.785.448-.785.675-1.75.675-2.896 0-1.883-.564-3.349-1.686-4.378-1.1-1.035-2.739-1.552-4.92-1.552H83.317V22.71h11.792c2.268 0 4.012-.54 5.221-1.616 1.216-1.1 1.82-2.687 1.82-4.75 0-1.396-.279-2.437-.843-3.135s-1.337-1.227-2.326-1.587zM88.735 4.919h4.146c1.122 0 1.896.215 2.326.64.424.407.64 1.023.64 1.854 0 .762-.216 1.36-.64 1.785s-1.11.64-2.053.64h-4.413V4.919h-.006zm7.146 13.31c-.47.406-1.203.604-2.192.604h-4.954v-5.256h4.75c1.146 0 1.954.215 2.425.64.471.406.71 1.022.71 1.854 0 1.035-.245 1.756-.739 2.157z" fill="#000"/><path d="M14.518 13.949c0 1.506-.395 2.628-1.18 3.367s-1.907 1.11-3.366 1.11-2.582-.372-3.367-1.11-1.18-1.867-1.18-3.367V1.012H0v13.443c0 1.866.407 3.436 1.215 4.715.832 1.28 1.989 2.245 3.471 2.896 1.506.651 3.268.977 5.291.977s3.774-.326 5.257-.977c1.506-.651 2.663-1.616 3.47-2.896.832-1.279 1.245-2.855 1.245-4.715V1.012h-5.425v12.937h-.005zm19.525-7.547a9.2 9.2 0 0 0-3.169.54c-.988.338-1.808.733-2.46 1.181l-.168-1.384h-5.052v15.972h5.424V11.827c.408-.407.908-.739 1.518-1.012.605-.267 1.204-.407 1.785-.407.989 0 1.675.192 2.053.576.383.383.575 1.023.575 1.918v9.804h5.425V12.46c0-2.065-.471-3.594-1.413-4.582-.942-.983-2.448-1.477-4.518-1.477zm16.676 0c-2.785 0-4.873.75-6.268 2.256s-2.087 3.53-2.087 6.064c0 2.785.843 4.873 2.529 6.268 1.686 1.372 3.919 2.053 6.704 2.053 1.256 0 2.413-.087 3.471-.268 1.058-.157 1.965-.413 2.727-.773v-3.535c-.605.244-1.372.448-2.29.605a15.47 15.47 0 0 1-2.664.238c-1.57 0-2.82-.204-3.739-.605-.9-.424-1.47-1.168-1.72-2.22h11.32v-2.867c0-2.204-.698-3.954-2.087-5.257-1.396-1.308-3.361-1.96-5.896-1.96zm3.268 6.942h-6.605c0-1.122.255-1.942.773-2.46.517-.54 1.424-.807 2.727-.807 1.122 0 1.919.238 2.39.709.47.448.709 1.064.709 1.855v.703h.006zm17.181 1.245l5.896-7.85h-5.896l-2.965 4.012-2.966-4.012h-5.895l5.895 7.85-6.134 8.117h5.931l3.169-4.21 3.169 4.21h5.93l-6.134-8.117z" fill="red"/></g><defs><clipPath id="A"><path fill="#fff" d="M0 0h161v24H0z"/></clipPath></defs></svg>