<svg xmlns="http://www.w3.org/2000/svg" width="190" height="30" viewBox="0 0 187 30"><path d="M0 .992l11.867 29.086h7.051L30.785.992h-6.969l-8.34 21.109L7.094.992zm41.406 29.711c7.055 0 11.867-3.41 11.867-9.184 0-6.109-5.062-7.77-10.707-8.809-4.605-.832-6.223-1.207-6.223-3.367 0-1.703 1.41-2.949 4.648-2.949 2.82 0 4.563 1.121 5.227 3.074l6.473-1.871c-.953-4.32-5.477-7.23-11.242-7.23-7.012 0-11.66 3.406-11.66 9.141s4.316 7.855 11.121 9.145c4.48.871 5.684 1.289 5.684 3.238 0 1.664-1.535 2.746-4.937 2.746s-5.395-1.539-5.895-3.535L29.5 22.723c.871 4.781 5.156 7.98 11.906 7.98zM78.621.992H53.73V7.14h9.211v22.938h6.469V7.141h9.211zm18.547 13.711a4.98 4.98 0 0 1 2.766.84c.817.547 1.457 1.328 1.836 2.238a5.02 5.02 0 0 1 .281 2.883 4.96 4.96 0 0 1-1.363 2.551 4.98 4.98 0 0 1-5.426 1.082c-.91-.379-1.687-1.016-2.234-1.836a4.99 4.99 0 0 1-.836-2.77c-.02-.66.094-1.316.34-1.93a4.84 4.84 0 0 1 1.074-1.641c.465-.465 1.023-.832 1.637-1.078a4.83 4.83 0 0 1 1.926-.34zm-5.145 15.375v-2.367a8.03 8.03 0 0 0 2.707 1.965 8.04 8.04 0 0 0 3.266.695c5.77 0 10.25-4.695 10.25-10.68 0-6.152-4.273-10.68-10.082-10.68-1.094.012-2.176.242-3.18.676a8.25 8.25 0 0 0-2.672 1.859V.992H86.52v29.086zm28.254-5.402c-.984 0-1.945-.293-2.766-.84a4.96 4.96 0 0 1-1.832-2.238 4.97 4.97 0 0 1-.285-2.879 5 5 0 0 1 1.363-2.555c.695-.695 1.582-1.172 2.547-1.363a5.01 5.01 0 0 1 2.879.281 4.99 4.99 0 0 1 2.234 1.84 4.98 4.98 0 0 1 .84 2.77c.02.66-.098 1.316-.34 1.93s-.613 1.172-1.078 1.637a4.8 4.8 0 0 1-1.633 1.078c-.613.242-1.27.359-1.93.34zm5.145-15.375v2.387a8 8 0 0 0-2.703-1.965c-1.031-.461-2.145-.695-3.27-.695-5.77 0-10.25 4.695-10.25 10.68 0 6.148 4.273 10.68 10.082 10.68 1.168-.004 2.316-.262 3.375-.746s2.004-1.199 2.766-2.082v2.535h5.52V9.32zm21.16 9.558v11.219h5.934V17.531c0-5.32-3.152-8.52-8.09-8.52a8.45 8.45 0 0 0-3.449.723 8.49 8.49 0 0 0-2.859 2.063V9.301h-5.516v20.777h5.809V19.691c0-3.117 1.617-4.988 4.273-4.988 2.406 0 3.898 1.578 3.898 4.156zM154.008.992v29.086h5.809v-9.016l8.258 9.016h7.965l-9.957-10.594L175.958 9.3H168.2l-8.383 9.102V.992zm0 0" fill="rgb(0%,0%,0%)"/><path d="M187 19.633l-8.172-8.184-8.172 8.184 8.172 8.184zm0 0" fill="rgb(98.431373%,32.156864%,1.960784%)"/></svg>